<?xml version="1.0" encoding="UTF-8"?>
<svg version="1.1" xmlns="http://www.w3.org/2000/svg" width="280" height="280">
<path d="M0 0 C0.65564941 0.17692383 1.31129883 0.35384766 1.98681641 0.53613281 C18.35041159 5.01899139 34.81134787 12.17973259 48 23 C48.66 23.33 49.32 23.66 50 24 C50 24.66 50 25.32 50 26 C50.59603027 26.27295898 51.19206055 26.54591797 51.80615234 26.82714844 C62.83124568 32.72126689 71.35665908 45.73627725 78 56 C78.63421875 56.97324219 79.2684375 57.94648437 79.921875 58.94921875 C97.43587117 87.35134086 102.58035578 122.91326615 95.19140625 155.3046875 C88.94910795 180.52908506 76.29142944 201.7471331 58.0625 220.1875 C57.49450684 220.76483887 56.92651367 221.34217773 56.34130859 221.93701172 C52.24620183 226 52.24620183 226 50 226 C50 226.66 50 227.32 50 228 C48.0493696 229.40457069 46.0378065 230.72519709 44 232 C42.98421875 232.64839844 41.9684375 233.29679688 40.921875 233.96484375 C11.59994846 252.20077097 -24.2165817 260.92073566 -58.48046875 252.9765625 C-59.64191406 252.65429688 -60.80335937 252.33203125 -62 252 C-62.65564941 251.82307617 -63.31129883 251.64615234 -63.98681641 251.46386719 C-80.35041159 246.98100861 -96.81134787 239.82026741 -110 229 C-110.66 228.67 -111.32 228.34 -112 228 C-112 227.34 -112 226.68 -112 226 C-112.59603027 225.72704102 -113.19206055 225.45408203 -113.80615234 225.17285156 C-124.83124568 219.27873311 -133.35665908 206.26372275 -140 196 C-140.63421875 195.02675781 -141.2684375 194.05351562 -141.921875 193.05078125 C-159.43587117 164.64865914 -164.58035578 129.08673385 -157.19140625 96.6953125 C-150.94910795 71.47091494 -138.29142944 50.2528669 -120.0625 31.8125 C-119.49450684 31.23516113 -118.92651367 30.65782227 -118.34130859 30.06298828 C-114.24620183 26 -114.24620183 26 -112 26 C-112 25.34 -112 24.68 -112 24 C-110.0493696 22.59542931 -108.0378065 21.27480291 -106 20 C-104.98421875 19.35160156 -103.9684375 18.70320313 -102.921875 18.03515625 C-72.74952922 -0.72966471 -35.00038909 -9.7115397 0 0 Z " fill="#000000" transform="translate(171,14)"/>
<path d="M0 0 C3.88909549 1.37626043 6.47787478 3.15231436 8.6809082 6.72900391 C10.13348801 10.33101468 10.34619678 12.84303389 10.29296875 16.7109375 C10.28330078 17.95488281 10.27363281 19.19882813 10.26367188 20.48046875 C10.23853516 21.76566406 10.21339844 23.05085938 10.1875 24.375 C10.16719727 26.33759766 10.16719727 26.33759766 10.14648438 28.33984375 C10.1112237 31.56031844 10.06193633 34.77994606 10 38 C11.22976562 37.96519531 12.45953125 37.93039063 13.7265625 37.89453125 C15.35936127 37.86637955 16.9921749 37.83908087 18.625 37.8125 C19.43324219 37.78736328 20.24148437 37.76222656 21.07421875 37.73632812 C26.99185023 37.66416189 31.12041994 38.61689926 35.8125 42.5 C38.45995002 45.8441474 38.33687321 49.64699702 38.27734375 53.71484375 C37.83767775 57.33744393 36.41791641 59.32756608 34 62 C28.8330234 65.33175473 24.5529549 65.37186223 18.625 65.1875 C17.79355469 65.17396484 16.96210938 65.16042969 16.10546875 65.14648438 C14.07002934 65.11139059 12.03492709 65.05759228 10 65 C10.0416021 72.33277157 10.11386241 79.66478001 10.20751953 86.99707031 C10.23575799 89.49179189 10.25695812 91.98660342 10.27099609 94.48144531 C10.29238499 98.06622466 10.33901708 101.64991918 10.390625 105.234375 C10.39185364 106.35116638 10.39308228 107.46795776 10.39434814 108.61859131 C10.41406677 109.65936829 10.4337854 110.70014526 10.45410156 111.77246094 C10.46298401 112.68735291 10.47186646 113.60224487 10.48101807 114.54486084 C11.15754816 117.74531043 12.51794297 118.9394804 15 121 C17.7603778 122.3801889 20.0585666 122.16300445 23.14453125 122.2109375 C24.37880859 122.23929687 25.61308594 122.26765625 26.88476562 122.296875 C29.49139677 122.34872246 32.09818865 122.39306286 34.70507812 122.4296875 C36.56229492 122.47609375 36.56229492 122.47609375 38.45703125 122.5234375 C39.59116455 122.54325684 40.72529785 122.56307617 41.89379883 122.58349609 C46.6669893 123.22352305 49.18817676 125.10272168 52.375 128.625 C54.53134522 133.10356315 54.45951188 136.28400498 53 141 C50.6230714 145.28939988 47.64600123 147.53674141 43 149 C38.8435014 149.40880923 34.69489012 149.41388259 30.51953125 149.42553711 C28.53354076 149.43730132 26.54789014 149.48688373 24.5625 149.53710938 C12.34467419 149.60430742 1.77814299 146.87917281 -7.1328125 138.1640625 C-15.51199288 128.4526275 -17.47072794 117.11401055 -17.29296875 104.6484375 C-17.28872391 103.50839264 -17.28447906 102.36834778 -17.28010559 101.1937561 C-17.26344334 97.58725387 -17.22581395 93.98133057 -17.1875 90.375 C-17.17243709 87.91537271 -17.15875151 85.45573657 -17.14648438 82.99609375 C-17.11358071 76.99720155 -17.0635069 70.99864216 -17 65 C-21.58443875 65.02277039 -26.1663748 65.10004335 -30.75 65.1875 C-32.05195312 65.19330078 -33.35390625 65.19910156 -34.6953125 65.20507812 C-36.57089844 65.24858398 -36.57089844 65.24858398 -38.484375 65.29296875 C-39.63647461 65.3086792 -40.78857422 65.32438965 -41.97558594 65.34057617 C-45.12603327 65.74539429 -45.12603327 65.74539429 -47.15788269 68.12728882 C-49.3784591 71.59019243 -49.49887615 73.53436798 -49.49829102 77.62280273 C-49.50380981 78.26738434 -49.50932861 78.91196594 -49.51501465 79.57608032 C-49.52430349 80.96848449 -49.52446555 82.36097363 -49.51642036 83.75338554 C-49.50374787 85.96118722 -49.51511727 88.16774636 -49.53245544 90.37550354 C-49.55912507 94.26782597 -49.56475248 98.15984218 -49.56335449 102.05224609 C-49.56112415 108.27808474 -49.5753578 114.50354386 -49.61894035 120.7292347 C-49.62874284 122.89744849 -49.62008026 125.06506012 -49.61024475 127.23326111 C-49.61639246 128.57144559 -49.62330536 129.90962685 -49.63110352 131.24780273 C-49.62966087 132.9905674 -49.62966087 132.9905674 -49.62818909 134.76853943 C-50.20594721 139.78991598 -51.89452913 142.99981207 -55.625 146.375 C-59.93899839 148.45211034 -63.29709057 148.96992413 -68 148 C-71.32520965 146.32191468 -74.29125158 144.41749684 -76 141 C-76.10827381 138.63169269 -76.15729981 136.29234 -76.16113281 133.92333984 C-76.16609772 133.19462677 -76.17106262 132.4659137 -76.17617798 131.71511841 C-76.19081659 129.29704856 -76.19760643 126.87904444 -76.203125 124.4609375 C-76.20887759 122.7790222 -76.21463531 121.09710692 -76.22039795 119.41519165 C-76.2309145 115.88274836 -76.23675204 112.35032785 -76.24023438 108.81787109 C-76.24570302 104.30542607 -76.26969313 99.79328525 -76.29820633 95.28093529 C-76.31689666 91.80293929 -76.32204183 88.32501538 -76.32357025 84.84697342 C-76.3265858 83.18449882 -76.33457705 81.52202516 -76.34775543 79.85960007 C-76.36494085 77.52384631 -76.36290507 75.18881984 -76.35644531 72.85302734 C-76.3656601 72.17427551 -76.37487488 71.49552368 -76.3843689 70.79620361 C-76.30504648 61.5725697 -72.13917599 54.60389449 -66 48 C-57.76505156 40.68711143 -50.07706078 37.85364132 -39.0703125 37.90234375 C-37.78125 37.90556641 -36.4921875 37.90878906 -35.1640625 37.91210938 C-33.81770764 37.92046267 -32.47135348 37.92892759 -31.125 37.9375 C-29.75520996 37.9425217 -28.38541815 37.94708343 -27.015625 37.95117188 C-23.6770381 37.96292746 -20.33854185 37.97936036 -17 38 C-17.02094727 37.18321777 -17.04189453 36.36643555 -17.06347656 35.52490234 C-17.1468513 31.80839445 -17.19872988 28.09208367 -17.25 24.375 C-17.30027344 22.44720703 -17.30027344 22.44720703 -17.3515625 20.48046875 C-17.44354031 11.60461012 -16.79855346 8.00958421 -10.75 1.625 C-7.11280619 -0.52425089 -4.0667024 -0.75623688 0 0 Z " fill="#FBFBFB" transform="translate(156,62)"/>
</svg>
