<svg width="16" height="16" viewBox="0 0 14.7451 14.5" fill="none" xmlns="http://www.w3.org/2000/svg">
<path id="Union" d="M2.5 9.5C2.77614 9.5 3 9.72386 3 10V11.5H4.5C4.77614 11.5 5 11.7239 5 12C5 12.2761 4.77614 12.5 4.5 12.5H3V14C3 14.2761 2.77614 14.5 2.5 14.5C2.22386 14.5 2 14.2761 2 14V12.5H0.5C0.223858 12.5 0 12.2761 0 12C0 11.7239 0.223858 11.5 0.5 11.5H2V10C2 9.72386 2.22386 9.5 2.5 9.5ZM8.02441 1.7832C8.26038 0.745503 9.73963 0.745512 9.97559 1.7832L10.7148 5.03516L13.9668 5.77441C15.0045 6.01038 15.0045 7.48963 13.9668 7.72559L10.7148 8.46484L9.97559 11.7168C9.73962 12.7545 8.26037 12.7545 8.02441 11.7168L7.28516 8.46484L4.0332 7.72559C2.9955 7.48962 2.99551 6.01037 4.0332 5.77441L7.28516 5.03516L8.02441 1.7832ZM8.26074 5.25684C8.17544 5.63197 7.88197 5.92544 7.50684 6.01074L4.25488 6.75L7.50684 7.48926C7.88197 7.57456 8.17544 7.86803 8.26074 8.24316L9 11.4951L9.73926 8.24316C9.82456 7.86803 10.118 7.57456 10.4932 7.48926L13.7451 6.75L10.4932 6.01074C10.118 5.92544 9.82456 5.63197 9.73926 5.25684L9 2.00488L8.26074 5.25684ZM3.5 0C3.77614 0 4 0.223858 4 0.5V1.5H5C5.27614 1.5 5.5 1.72386 5.5 2C5.5 2.27614 5.27614 2.5 5 2.5H4V3.5C4 3.77614 3.77614 4 3.5 4C3.22386 4 3 3.77614 3 3.5V2.5H2C1.72386 2.5 1.5 2.27614 1.5 2C1.5 1.72386 1.72386 1.5 2 1.5H3V0.5C3 0.223858 3.22386 0 3.5 0Z" fill="var(--fill-0, currentColor)"/>
</svg>
