<svg width="16" height="16" viewBox="0 0 16 16" fill="none" xmlns="http://www.w3.org/2000/svg">
<path d="M6.29004 2.64258C6.68364 0.785787 9.33386 0.785844 9.72754 2.64258L10.3643 5.65137L13.375 6.29004C15.232 6.68358 15.232 9.334 13.375 9.72754L10.3652 10.3652L9.72754 13.375C9.334 15.232 6.68358 15.232 6.29004 13.375L5.65137 10.3643L2.64258 9.72754C0.785849 9.33386 0.785782 6.68364 2.64258 6.29004L5.65234 5.65234L6.29004 2.64258ZM8.75 2.84961C8.58024 2.05002 7.43841 2.05009 7.26855 2.84961L6.56348 6.17773L6.49609 6.49609L6.17773 6.56348L2.84961 7.26855C2.05009 7.4384 2.05002 8.58023 2.84961 8.75L6.17773 9.45508L6.49609 9.52246L6.56348 9.83984L7.26855 13.168C7.43811 13.968 8.58044 13.968 8.75 13.168L9.45508 9.83984L9.52246 9.52246L9.83984 9.45508L13.168 8.75C13.968 8.58044 13.968 7.43811 13.168 7.26855L9.83984 6.56348L9.52246 6.49609L9.45508 6.17773L8.75 2.84961Z" fill="currentColor"/>
</svg>
