<svg width="16" height="16" viewBox="0 0 15 5" fill="none" xmlns="http://www.w3.org/2000/svg">
<path id="Union" d="M7.5 0C8.70949 0 9.71858 0.85886 9.9502 2H14.5C14.7761 2 15 2.22386 15 2.5C15 2.77614 14.7761 3 14.5 3H9.9502C9.71858 4.14114 8.70949 5 7.5 5C6.29051 5 5.28142 4.14114 5.0498 3H0.5C0.223858 3 0 2.77614 0 2.5C0 2.22386 0.223858 2 0.5 2H5.0498C5.28142 0.85886 6.29051 0 7.5 0ZM7.5 1C6.67157 1 6 1.67157 6 2.5C6 3.32843 6.67157 4 7.5 4C8.32843 4 9 3.32843 9 2.5C9 1.67157 8.32843 1 7.5 1Z" fill="var(--fill-0, currentColor)"/>
</svg>
