<svg width="16" height="16" viewBox="0 0 14 13.5" fill="none" xmlns="http://www.w3.org/2000/svg">
<path id="Union" d="M7 9.5C7.93378 9.5 8.71532 10.1406 8.93555 11.0059C8.95672 11.0031 8.97808 11 9 11H13.5C13.7761 11 14 11.2239 14 11.5C14 11.7761 13.7761 12 13.5 12H9C8.97804 12 8.95676 11.9959 8.93555 11.9932C8.71565 12.8589 7.93411 13.5 7 13.5C6.06581 13.5 5.2833 12.859 5.06348 11.9932C5.04257 11.9958 5.02163 12 5 12H0.5C0.223858 12 0 11.7761 0 11.5C0 11.2239 0.223858 11 0.5 11H5C5.02158 11 5.04261 11.0032 5.06348 11.0059C5.28362 10.1405 6.06614 9.5 7 9.5ZM7 10.5C6.44772 10.5 6 10.9477 6 11.5C6 12.0523 6.44772 12.5 7 12.5C7.55228 12.5 8 12.0523 8 11.5C8 10.9477 7.55228 10.5 7 10.5ZM10 0C10.8284 0 11.5 0.671573 11.5 1.5V6C11.5 6.82843 10.8284 7.5 10 7.5H8.91406C8.78151 7.50004 8.65428 7.55275 8.56055 7.64648L7.53027 8.67676L7.47363 8.72852C7.17906 8.9688 6.74433 8.95134 6.46973 8.67676L5.43945 7.64648C5.34572 7.55275 5.21849 7.50004 5.08594 7.5H4C3.17157 7.5 2.5 6.82843 2.5 6V1.5C2.5 0.671573 3.17157 0 4 0H10ZM4 1C3.72386 1 3.5 1.22386 3.5 1.5V6C3.5 6.27614 3.72386 6.5 4 6.5H5.08594C5.48371 6.50004 5.86522 6.65818 6.14648 6.93945L7 7.79297L7.85352 6.93945C8.13478 6.65818 8.51629 6.50004 8.91406 6.5H10C10.2761 6.5 10.5 6.27614 10.5 6V1.5C10.5 1.22386 10.2761 1 10 1H4Z" fill="var(--fill-0, currentColor)"/>
</svg>
