<svg width="16" height="16" viewBox="0 0 13.5177 13.5177" fill="none" xmlns="http://www.w3.org/2000/svg">
<path id="Union" d="M5.04003 1.39257C5.43364 -0.464219 8.08385 -0.464162 8.47753 1.39257L9.11425 4.40136L12.125 5.04003C13.982 5.43358 13.982 8.08399 12.125 8.47753L9.11523 9.11523L8.47753 12.125C8.08399 13.982 5.43358 13.982 5.04003 12.125L4.40136 9.11425L1.39257 8.47753C-0.464157 8.08385 -0.464224 5.43364 1.39257 5.04003L4.40234 4.40234L5.04003 1.39257ZM7.49999 1.5996C7.33023 0.800016 6.1884 0.800082 6.01855 1.5996L5.31347 4.92773L5.24609 5.24609L4.92773 5.31347L1.5996 6.01855C0.800086 6.1884 0.800012 7.33023 1.5996 7.49999L4.92773 8.20507L5.24609 8.27245L5.31347 8.58984L6.01855 11.918C6.1881 12.718 7.33044 12.718 7.49999 11.918L8.20507 8.58984L8.27245 8.27245L8.58984 8.20507L11.918 7.49999C12.718 7.33044 12.718 6.1881 11.918 6.01855L8.58984 5.31347L8.27245 5.24609L8.20507 4.92773L7.49999 1.5996Z" fill="var(--fill-0, currentColor)"/>
</svg>
