<svg width="16" height="16" viewBox="0 0 14 12.5003" fill="none" xmlns="http://www.w3.org/2000/svg">
<path id="Union" d="M4.50195 2.29948e-06C4.73102 0.000894813 4.93024 0.157509 4.98535 0.379885L7.41016 10.1689L9.67383 3.09766L9.70508 3.02149C9.79137 2.85332 9.96747 2.74569 10.1611 2.75C10.3828 2.75512 10.5751 2.90608 10.6328 3.12012L11.3828 5.90039H13.5C13.7761 5.90039 14 6.12425 14 6.40039C13.9998 6.67636 13.776 6.90039 13.5 6.90039H11C10.7741 6.90039 10.5765 6.7484 10.5176 6.53028L10.1084 5.0166L7.82617 12.1523C7.75802 12.3653 7.55649 12.5075 7.33301 12.5C7.10965 12.4924 6.91802 12.3371 6.86426 12.1201L4.49316 2.55274L3.48438 6.52344C3.42793 6.74493 3.2286 6.90039 3 6.90039H0.5C0.223988 6.90039 0.000210939 6.67636 0 6.40039C1.25629e-06 6.12425 0.223858 5.90039 0.5 5.90039H2.61133L4.01562 0.376955L4.04297 0.296877C4.12227 0.118245 4.30131 -0.000602749 4.50195 2.29948e-06Z" fill="var(--fill-0, currentColor)"/>
</svg>
