<svg width="16" height="16" viewBox="0 0 13.3367 13.5" fill="none" xmlns="http://www.w3.org/2000/svg">
<path id="Union" fill-rule="evenodd" clip-rule="evenodd" d="M11.3367 1C11.889 1 12.3367 1.44772 12.3367 2C12.3367 2.55228 11.889 3 11.3367 3C10.7844 3 10.3367 2.55228 10.3367 2C10.3367 1.44772 10.7844 1 11.3367 1ZM9.33667 2C9.33667 3.10457 10.2321 4 11.3367 4C12.4412 4 13.3367 3.10457 13.3367 2C13.3367 0.895431 12.4412 0 11.3367 0C10.2321 0 9.33667 0.895431 9.33667 2ZM4.10132 2.37012C4.44232 0.761071 6.73883 0.761066 7.07983 2.37012L7.58667 4.75879L9.97534 5.26465C11.584 5.60582 11.5839 7.90192 9.97534 8.24316L7.58569 8.74902L7.07983 11.1387C6.73859 12.7473 4.44249 12.7473 4.10132 11.1387L3.59546 8.75L1.20679 8.24316C-0.40226 7.90216 -0.402264 5.60565 1.20679 5.26465L3.59448 4.75781L4.10132 2.37012ZM6.10229 2.57715C5.98528 2.02503 5.1969 2.02507 5.07983 2.57715L4.50561 5.28418L4.43823 5.60156L4.12085 5.66895L1.41382 6.24316C0.861741 6.36023 0.861692 7.14861 1.41382 7.26562L4.12085 7.83887L4.43823 7.90625L4.50561 8.22461L5.07983 10.9307C5.19685 11.4828 5.98528 11.4828 6.10229 10.9307L6.67554 8.22461L6.74292 7.90625L7.06128 7.83887L9.76733 7.26562C10.3195 7.14861 10.3195 6.36018 9.76733 6.24316L7.06128 5.66895L6.74292 5.60156L6.67554 5.28418L6.10229 2.57715ZM11.8367 11V9.5H10.8367V11H9.33667V12H10.8367V13.5H11.8367V12H13.3367V11H11.8367Z" fill="var(--fill-0, currentColor)"/>
</svg>
