<svg width="16" height="16" viewBox="0 0 9 9" fill="none" xmlns="http://www.w3.org/2000/svg">
<path id="Union" d="M4.49805 0C4.77396 0.000263701 4.99805 0.22402 4.99805 0.5V3.99805H8.5L8.60059 4.00781C8.8285 4.05438 9 4.25637 9 4.49805C8.99977 4.73954 8.8284 4.94179 8.60059 4.98828L8.5 4.99805H4.99805V8.5C4.99805 8.77598 4.77396 8.99974 4.49805 9C4.2219 9 3.99805 8.77614 3.99805 8.5V4.99805H0.5C0.22402 4.99805 0.000263701 4.77396 0 4.49805C0 4.2219 0.223858 3.99805 0.5 3.99805H3.99805V0.5C3.99805 0.223858 4.2219 0 4.49805 0Z" fill="var(--fill-0, currentColor)"/>
</svg>
