<svg width="16" height="16" viewBox="0 0 14.916 14.6719" fill="none" xmlns="http://www.w3.org/2000/svg">
<path id="Union" d="M7.16699 0.338867C7.44276 0.339307 7.66699 0.562996 7.66699 0.838867C7.66673 1.11451 7.4426 1.33843 7.16699 1.33887C3.76124 1.33887 1 4.1001 1 7.50586C1.00044 10.9112 3.76151 13.6719 7.16699 13.6719C10.5721 13.6714 13.3326 10.911 13.333 7.50586C13.333 7.22983 13.557 7.00604 13.833 7.00586C14.1089 7.00612 14.333 7.22988 14.333 7.50586C14.3326 11.4633 11.1244 14.6714 7.16699 14.6719C3.20922 14.6719 0.000439663 11.4635 0 7.50586C0 3.54782 3.20895 0.338867 7.16699 0.338867ZM9.43359 8.53809C9.5994 8.31771 9.91308 8.27295 10.1338 8.43848C10.3541 8.60425 10.3988 8.91798 10.2334 9.13867V9.13965H10.2324V9.14062L10.2305 9.14258C10.2294 9.14395 10.228 9.14558 10.2266 9.14746C10.2233 9.15167 10.2191 9.1575 10.2139 9.16406C10.2033 9.17739 10.1884 9.19576 10.1699 9.21777C10.133 9.2618 10.0798 9.32252 10.0117 9.39355C9.87576 9.53539 9.67641 9.7229 9.41895 9.91016C8.90554 10.2835 8.13757 10.6717 7.16699 10.6719C6.19624 10.6719 5.42761 10.2835 4.91406 9.91016C4.65675 9.72302 4.45726 9.53537 4.32129 9.39355C4.25338 9.32269 4.20004 9.26178 4.16309 9.21777C4.14483 9.19602 4.12967 9.17735 4.11914 9.16406C4.11419 9.15781 4.10962 9.1516 4.10645 9.14746C4.10516 9.14578 4.10353 9.14383 4.10254 9.14258L4.10156 9.14062L4.09961 9.13867C3.9342 8.91777 3.97939 8.60408 4.2002 8.43848C4.42046 8.27361 4.73249 8.31795 4.89844 8.53711C4.89927 8.53832 4.90127 8.54135 4.90332 8.54395C4.90835 8.55023 4.918 8.56127 4.92969 8.5752C4.95392 8.60403 4.99209 8.64807 5.04297 8.70117C5.14654 8.8092 5.30172 8.95593 5.50195 9.10156C5.90503 9.39459 6.47174 9.67188 7.16699 9.67188C7.86213 9.67166 8.4281 9.3946 8.83105 9.10156C9.0316 8.9557 9.18646 8.80926 9.29004 8.70117C9.34147 8.6475 9.38007 8.60406 9.4043 8.5752C9.41618 8.56104 9.42474 8.55019 9.42969 8.54395C9.43159 8.54154 9.43281 8.53914 9.43359 8.53809ZM5.25195 4.67676C5.67186 4.71973 6 5.07461 6 5.50586C5.99956 5.96545 5.62658 6.33843 5.16699 6.33887C4.73574 6.33887 4.38086 6.01073 4.33789 5.59082L4.33301 5.50586L4.33789 5.41992C4.38076 4.99991 4.73567 4.67188 5.16699 4.67188L5.25195 4.67676ZM9.25195 4.67676C9.67186 4.71973 10 5.07461 10 5.50586C9.99956 5.96545 9.62658 6.33843 9.16699 6.33887C8.73574 6.33887 8.38086 6.01073 8.33789 5.59082L8.33301 5.50586L8.33789 5.41992C8.38076 4.99992 8.73567 4.67188 9.16699 4.67188L9.25195 4.67676ZM12.416 0C12.6922 0 12.916 0.223858 12.916 0.5V2H14.416C14.6922 2 14.916 2.22386 14.916 2.5C14.916 2.77614 14.6922 3 14.416 3H12.916V4.5C12.916 4.77614 12.6922 5 12.416 5C12.1399 5 11.916 4.77614 11.916 4.5V3H10.416C10.1399 3 9.91602 2.77614 9.91602 2.5C9.91602 2.22386 10.1399 2 10.416 2H11.916V0.5C11.916 0.223858 12.1399 0 12.416 0Z" fill="var(--fill-0, currentColor)"/>
</svg>
