<svg width="16" height="16" viewBox="0 0 14.5 14.5" fill="none" xmlns="http://www.w3.org/2000/svg">
<path id="Union" fill-rule="evenodd" clip-rule="evenodd" d="M13.5 7.25C13.5 3.79822 10.7018 1 7.25 1C3.79822 1 1 3.79822 1 7.25C1 10.7018 3.79822 13.5 7.25 13.5C10.7018 13.5 13.5 10.7018 13.5 7.25ZM7.25 14.5C3.24594 14.5 0 11.2541 0 7.25C0 3.24594 3.24594 0 7.25 0C11.2541 0 14.5 3.24594 14.5 7.25C14.5 11.2541 11.2541 14.5 7.25 14.5ZM6.75005 3.71447C6.75005 3.43832 6.97386 3.21452 7.25 3.21452C7.52614 3.21452 7.74995 3.43832 7.74995 3.71447V6.75005H10.7855C11.0617 6.75005 11.2855 6.97386 11.2855 7.25C11.2855 7.52614 11.0617 7.74995 10.7855 7.74995H7.74995V10.7855C7.74995 11.0617 7.52614 11.2855 7.25 11.2855C6.97386 11.2855 6.75005 11.0617 6.75005 10.7855V7.74995H3.71447C3.43832 7.74995 3.21452 7.52614 3.21452 7.25C3.21452 6.97386 3.43832 6.75005 3.71447 6.75005H6.75005V3.71447Z" fill="var(--fill-0, currentColor)"/>
</svg>
