<svg width="16" height="16" viewBox="0 0 10.4951 10.4951" fill="none" xmlns="http://www.w3.org/2000/svg">
<path id="Union" d="M5.24805 0C5.52402 0.000199355 5.74805 0.223981 5.74805 0.5V4.74805H9.99512C10.2713 4.74805 10.4951 4.9719 10.4951 5.24805C10.4949 5.52402 10.2711 5.74805 9.99512 5.74805H5.74805V9.99512C5.74805 10.2711 5.52402 10.4949 5.24805 10.4951C4.9719 10.4951 4.74805 10.2713 4.74805 9.99512V5.74805H0.5C0.223981 5.74805 0.000199355 5.52402 0 5.24805C0 4.9719 0.223858 4.74805 0.5 4.74805H4.74805V0.5C4.74805 0.223858 4.9719 0 5.24805 0Z" fill="var(--fill-0, currentColor)"/>
</svg>
