<svg width="16" height="16" viewBox="0 0 16 16" fill="none" xmlns="http://www.w3.org/2000/svg">
<g clip-path="url(#clip0_5_7864)">
<path fill-rule="evenodd" clip-rule="evenodd" d="M8.00049 0.853027C8.27652 0.853159 8.50049 1.07697 8.50049 1.35303C8.50049 1.62909 8.27652 1.8529 8.00049 1.85303C4.60547 1.85303 1.85303 4.60547 1.85303 8.00049C1.8531 9.77409 2.60551 11.3709 3.80713 12.4927C4.19468 11.9825 4.67544 11.5462 5.22803 11.2095C6.04028 10.7146 6.97492 10.4526 7.92725 10.4526C8.87941 10.4527 9.81336 10.7147 10.6255 11.2095C11.2069 11.5637 11.7076 12.0289 12.105 12.5737C13.3579 11.4485 14.1469 9.8172 14.147 8.00049C14.147 7.72451 14.3711 7.50075 14.647 7.50049C14.9231 7.50049 15.147 7.72435 15.147 8.00049C15.1468 11.9476 11.9476 15.1468 8.00049 15.147C4.05327 15.147 0.85316 11.9477 0.853027 8.00049C0.853027 4.05319 4.05319 0.853027 8.00049 0.853027ZM7.92725 11.4526C7.15812 11.4526 6.40374 11.6638 5.74854 12.063C5.2968 12.3382 4.90467 12.6957 4.59033 13.1138C5.56631 13.7658 6.73865 14.147 8.00049 14.147C9.21956 14.1469 10.3545 13.7902 11.3101 13.1782C10.9881 12.7325 10.5796 12.3522 10.105 12.063C9.44996 11.664 8.69613 11.4527 7.92725 11.4526ZM7.92725 3.8501C9.45268 3.8504 10.6956 5.07963 10.6958 6.60303C10.6957 8.12659 9.4528 9.35663 7.92725 9.35693C6.40144 9.35693 5.15874 8.12678 5.15869 6.60303C5.15894 5.07944 6.40156 3.8501 7.92725 3.8501ZM7.92725 4.8501C6.94754 4.8501 6.15894 5.63801 6.15869 6.60303C6.15874 7.56821 6.94742 8.35693 7.92725 8.35693C8.90682 8.35663 9.69575 7.56802 9.6958 6.60303C9.69555 5.63819 8.9067 4.8504 7.92725 4.8501ZM13.0005 0.500488C13.2764 0.500752 13.5005 0.724509 13.5005 1.00049V2.50049H15.0005C15.2764 2.50075 15.5005 2.72451 15.5005 3.00049C15.5002 3.27624 15.2762 3.50023 15.0005 3.50049H13.5005V5.00049C13.5002 5.27624 13.2762 5.50023 13.0005 5.50049C12.7245 5.50049 12.5008 5.27641 12.5005 5.00049V3.50049H11.0005C10.7245 3.50049 10.5008 3.27641 10.5005 3.00049C10.5005 2.72435 10.7243 2.50049 11.0005 2.50049H12.5005V1.00049C12.5005 0.724346 12.7243 0.500488 13.0005 0.500488Z" fill="currentColor"/>
</g>
<defs>
<clipPath id="clip0_5_7864">
<rect width="16" height="16" fill="white"/>
</clipPath>
</defs>
</svg>
