<svg width="16" height="16" viewBox="0 0 14.6475 14.6465" fill="none" xmlns="http://www.w3.org/2000/svg">
<path id="Union" d="M7.14746 0.352539C7.42349 0.352671 7.64746 0.576478 7.64746 0.852539C7.64746 1.1286 7.42349 1.35241 7.14746 1.35254C3.75245 1.35254 1 4.10499 1 7.5C1.00007 9.2736 1.75249 10.8704 2.9541 11.9922C3.34165 11.482 3.82241 11.0457 4.375 10.709C5.18725 10.2141 6.1219 9.95215 7.07422 9.95215C8.02638 9.95223 8.96034 10.2142 9.77246 10.709C10.3539 11.0633 10.8545 11.5284 11.252 12.0732C12.5048 10.9481 13.2939 9.31671 13.2939 7.5C13.2939 7.22402 13.518 7.00026 13.7939 7C14.0701 7 14.2939 7.22386 14.2939 7.5C14.2938 11.4471 11.0946 14.6464 7.14746 14.6465C3.20024 14.6465 0.000132101 11.4472 0 7.5C0 3.5527 3.20016 0.352539 7.14746 0.352539ZM7.07422 10.9521C6.30509 10.9521 5.55071 11.1633 4.89551 11.5625C4.44377 11.8377 4.05165 12.1952 3.7373 12.6133C4.71328 13.2653 5.88563 13.6465 7.14746 13.6465C8.36654 13.6464 9.50148 13.2898 10.457 12.6777C10.1351 12.2321 9.72662 11.8517 9.25195 11.5625C8.59693 11.1635 7.8431 10.9522 7.07422 10.9521ZM7.07422 3.34961C8.59965 3.34991 9.84253 4.57914 9.84277 6.10254C9.84272 7.6261 8.59977 8.85615 7.07422 8.85645C5.54841 8.85645 4.30572 7.62629 4.30566 6.10254C4.30591 4.57895 5.54853 3.34961 7.07422 3.34961ZM7.07422 4.34961C6.09451 4.34961 5.30591 5.13752 5.30566 6.10254C5.30572 7.06772 6.09439 7.85645 7.07422 7.85645C8.05379 7.85615 8.84272 7.06754 8.84277 6.10254C8.84253 5.13771 8.05367 4.34991 7.07422 4.34961ZM12.1475 0C12.4234 0.000263953 12.6475 0.224021 12.6475 0.5V2H14.1475C14.4234 2.00026 14.6475 2.22402 14.6475 2.5C14.6472 2.77576 14.4232 2.99974 14.1475 3H12.6475V4.5C12.6472 4.77576 12.4232 4.99974 12.1475 5C11.8715 5 11.6477 4.77592 11.6475 4.5V3H10.1475C9.87148 3 9.64772 2.77592 9.64746 2.5C9.64746 2.22386 9.87132 2 10.1475 2H11.6475V0.5C11.6475 0.223858 11.8713 0 12.1475 0Z" fill="var(--fill-0, currentColor)"/>
</svg>
