<svg width="16" height="16" viewBox="0 0 14.9997 14.7546" fill="none" xmlns="http://www.w3.org/2000/svg">
<path id="Union" d="M7.2497 0.254883C7.52578 0.254883 7.74961 0.478819 7.7497 0.754883C7.7497 1.03103 7.52584 1.25488 7.2497 1.25488C6.01371 1.25496 4.80474 1.62191 3.77704 2.30859C2.74953 2.99533 1.94824 3.97147 1.47528 5.11328C1.00234 6.25519 0.878736 7.51237 1.11981 8.72461C1.361 9.9367 1.95693 11.0499 2.83075 11.9238C3.70463 12.7977 4.81791 13.3935 6.02997 13.6348C7.24218 13.8759 8.49939 13.7522 9.6413 13.2793C10.7832 12.8063 11.7592 12.0051 12.446 10.9775C13.1327 9.94973 13.4997 8.74102 13.4997 7.50488C13.4998 7.22895 13.7238 7.0051 13.9997 7.00488C14.2758 7.00488 14.4996 7.22882 14.4997 7.50488C14.4997 8.9388 14.0747 10.3409 13.278 11.5332C12.4814 12.7253 11.3488 13.6544 10.0241 14.2031C8.69953 14.7517 7.24179 14.8949 5.83563 14.6152C4.42944 14.3354 3.13657 13.6457 2.12274 12.6318C1.10897 11.6179 0.419062 10.3252 0.139346 8.91895C-0.140257 7.51277 0.0028113 6.05505 0.551455 4.73047C1.10013 3.40586 2.02933 2.27319 3.22138 1.47656C4.41352 0.679997 5.81592 0.254963 7.2497 0.254883ZM10.8532 8.38965C11.0113 8.38984 11.1604 8.46477 11.2546 8.5918C11.3488 8.71892 11.3776 8.88372 11.3317 9.03516C11.2914 9.16814 11.2435 9.29985 11.1901 9.42871C10.9759 9.94571 10.662 10.4157 10.2663 10.8115C9.87036 11.2075 9.39982 11.522 8.88251 11.7363C8.36524 11.9506 7.81056 12.0605 7.25067 12.0605C6.69081 12.0605 6.13611 11.9505 5.61884 11.7363C5.10145 11.522 4.63105 11.2075 4.23505 10.8115C3.83916 10.4156 3.52455 9.94596 3.31024 9.42871C3.25686 9.29983 3.21 9.16816 3.16962 9.03516C3.12366 8.88366 3.15247 8.71897 3.24677 8.5918C3.34109 8.46483 3.48995 8.38965 3.64813 8.38965H10.8532ZM4.40204 9.38965C4.54826 9.65102 4.72946 9.89186 4.94208 10.1045C5.24522 10.4076 5.60559 10.6484 6.00165 10.8125C6.39756 10.9764 6.82218 11.0605 7.25067 11.0605C7.67919 11.0605 8.10379 10.9765 8.4997 10.8125C8.89568 10.6484 9.25618 10.4076 9.55927 10.1045C9.77177 9.89191 9.95316 9.65093 10.0993 9.38965H4.40204ZM5.09638 4.41016C5.68854 4.41032 6.17255 4.8951 6.17255 5.4873C6.17239 6.07938 5.68845 6.56331 5.09638 6.56348C4.50416 6.56348 4.01938 6.07948 4.01923 5.4873C4.01923 4.895 4.50407 4.41016 5.09638 4.41016ZM9.40399 4.41016C9.99616 4.41033 10.4802 4.8951 10.4802 5.4873C10.48 6.07938 9.99607 6.56331 9.40399 6.56348C8.81178 6.56348 8.327 6.07948 8.32685 5.4873C8.32685 4.895 8.81169 4.41016 9.40399 4.41016ZM12.4997 0C12.7758 0 12.9997 0.223858 12.9997 0.5V2H14.4997C14.7758 2 14.9997 2.22386 14.9997 2.5C14.9997 2.77614 14.7758 3 14.4997 3H12.9997V4.5C12.9997 4.77614 12.7758 5 12.4997 5C12.2237 4.99978 11.9997 4.77601 11.9997 4.5V3H10.4997C10.2237 2.99978 9.9997 2.77601 9.9997 2.5C9.9997 2.22399 10.2237 2.00022 10.4997 2H11.9997V0.5C11.9997 0.223991 12.2237 0.000216859 12.4997 0Z" fill="var(--fill-0, currentColor)"/>
</svg>
