<svg width="16" height="16" viewBox="0 0 14.5 14.5" fill="none" xmlns="http://www.w3.org/2000/svg">
<path id="Union" d="M4.98438 4.53125C5.23463 4.53125 5.4375 4.73412 5.4375 4.98438C5.4375 6.06596 5.86704 7.10337 6.63184 7.86816C7.39663 8.63296 8.43404 9.0625 9.51562 9.0625C9.76588 9.0625 9.96875 9.26537 9.96875 9.51562C9.96875 9.76588 9.76588 9.96875 9.51562 9.96875C8.43404 9.96875 7.39663 10.3983 6.63184 11.1631C5.86704 11.9279 5.4375 12.9653 5.4375 14.0469C5.4375 14.2971 5.23463 14.5 4.98438 14.5C4.73412 14.5 4.53125 14.2971 4.53125 14.0469C4.53125 13.5113 4.42564 12.9811 4.2207 12.4863C4.01576 11.9915 3.7156 11.5418 3.33691 11.1631C2.95823 10.7844 2.50845 10.4842 2.01367 10.2793C1.5189 10.0744 0.988661 9.96875 0.453125 9.96875C0.202871 9.96875 0 9.76588 0 9.51562C0 9.26537 0.202871 9.0625 0.453125 9.0625C0.988661 9.0625 1.5189 8.95689 2.01367 8.75195C2.50845 8.54701 2.95823 8.24685 3.33691 7.86816C3.7156 7.48948 4.01576 7.0397 4.2207 6.54492C4.42564 6.05015 4.53125 5.51991 4.53125 4.98438C4.53125 4.73412 4.73412 4.53125 4.98438 4.53125ZM4.9834 7.05762C4.73667 7.59675 4.39747 8.08885 3.97754 8.50879C3.55751 8.92882 3.06564 9.26888 2.52637 9.51562C3.06564 9.76237 3.55751 10.1024 3.97754 10.5225C4.39726 10.9422 4.7367 11.4338 4.9834 11.9727C5.22802 11.4381 5.56755 10.9461 5.99121 10.5225C6.41477 10.0989 6.90703 9.76023 7.44141 9.51562C6.90703 9.27102 6.41477 8.93235 5.99121 8.50879C5.56734 8.08492 5.22804 7.59245 4.9834 7.05762ZM11.3281 0C11.5784 0 11.7812 0.202871 11.7812 0.453125C11.7812 1.05401 12.0204 1.6298 12.4453 2.05469C12.8702 2.47957 13.446 2.71875 14.0469 2.71875C14.2971 2.71875 14.5 2.92162 14.5 3.17188C14.5 3.42213 14.2971 3.625 14.0469 3.625C13.446 3.625 12.8702 3.86418 12.4453 4.28906C12.0204 4.71395 11.7812 5.28974 11.7812 5.89062C11.7812 6.14088 11.5784 6.34375 11.3281 6.34375C11.0779 6.34375 10.875 6.14088 10.875 5.89062C10.875 5.28974 10.6358 4.71395 10.2109 4.28906C9.78605 3.86418 9.21026 3.625 8.60938 3.625C8.35912 3.625 8.15625 3.42213 8.15625 3.17188C8.15625 2.92162 8.35912 2.71875 8.60938 2.71875C9.21026 2.71875 9.78605 2.47957 10.2109 2.05469C10.6358 1.6298 10.875 1.05401 10.875 0.453125C10.875 0.202871 11.0779 0 11.3281 0ZM11.3281 2.08594C11.1959 2.30608 11.0372 2.51167 10.8525 2.69629C10.6679 2.8809 10.4623 3.03967 10.2422 3.17188C10.4623 3.30408 10.6679 3.46285 10.8525 3.64746C11.037 3.83188 11.196 4.03697 11.3281 4.25684C11.4602 4.03697 11.6193 3.83188 11.8037 3.64746C11.9881 3.46305 12.1932 3.30399 12.4131 3.17188C12.1932 3.03976 11.9881 2.8807 11.8037 2.69629C11.6191 2.51167 11.4603 2.30608 11.3281 2.08594Z" fill="var(--fill-0, currentColor)"/>
</svg>
