<svg width="16" height="16" viewBox="0 0 16 16" fill="none" xmlns="http://www.w3.org/2000/svg">
<g clip-path="url(#clip0_18347_79931)">
<path d="M5.73438 5.28125C5.98463 5.28125 6.1875 5.48412 6.1875 5.73438C6.1875 6.81596 6.61704 7.85337 7.38184 8.61816C8.14663 9.38296 9.18404 9.8125 10.2656 9.8125C10.5159 9.8125 10.7188 10.0154 10.7188 10.2656C10.7188 10.5159 10.5159 10.7188 10.2656 10.7188C9.18404 10.7188 8.14663 11.1483 7.38184 11.9131C6.61704 12.6779 6.1875 13.7153 6.1875 14.7969C6.1875 15.0471 5.98463 15.25 5.73438 15.25C5.48412 15.25 5.28125 15.0471 5.28125 14.7969C5.28125 14.2613 5.17564 13.7311 4.9707 13.2363C4.76576 12.7415 4.4656 12.2918 4.08691 11.9131C3.70823 11.5344 3.25845 11.2342 2.76367 11.0293C2.2689 10.8244 1.73866 10.7188 1.20312 10.7188C0.952871 10.7188 0.75 10.5159 0.75 10.2656C0.75 10.0154 0.952871 9.8125 1.20312 9.8125C1.73866 9.8125 2.2689 9.70689 2.76367 9.50195C3.25845 9.29701 3.70823 8.99685 4.08691 8.61816C4.4656 8.23948 4.76576 7.7897 4.9707 7.29492C5.17564 6.80015 5.28125 6.26991 5.28125 5.73438C5.28125 5.48412 5.48412 5.28125 5.73438 5.28125ZM5.7334 7.80762C5.48667 8.34675 5.14747 8.83885 4.72754 9.25879C4.30751 9.67882 3.81564 10.0189 3.27637 10.2656C3.81564 10.5124 4.30751 10.8524 4.72754 11.2725C5.14726 11.6922 5.4867 12.1838 5.7334 12.7227C5.97802 12.1881 6.31755 11.6961 6.74121 11.2725C7.16477 10.8489 7.65703 10.5102 8.19141 10.2656C7.65703 10.021 7.16477 9.68235 6.74121 9.25879C6.31734 8.83492 5.97804 8.34245 5.7334 7.80762ZM12.0781 0.75C12.3284 0.75 12.5312 0.952871 12.5312 1.20312C12.5312 1.80401 12.7704 2.3798 13.1953 2.80469C13.6202 3.22957 14.196 3.46875 14.7969 3.46875C15.0471 3.46875 15.25 3.67162 15.25 3.92188C15.25 4.17213 15.0471 4.375 14.7969 4.375C14.196 4.375 13.6202 4.61418 13.1953 5.03906C12.7704 5.46395 12.5312 6.03974 12.5312 6.64062C12.5312 6.89088 12.3284 7.09375 12.0781 7.09375C11.8279 7.09375 11.625 6.89088 11.625 6.64062C11.625 6.03974 11.3858 5.46395 10.9609 5.03906C10.5361 4.61418 9.96026 4.375 9.35938 4.375C9.10912 4.375 8.90625 4.17213 8.90625 3.92188C8.90625 3.67162 9.10912 3.46875 9.35938 3.46875C9.96026 3.46875 10.5361 3.22957 10.9609 2.80469C11.3858 2.3798 11.625 1.80401 11.625 1.20312C11.625 0.952871 11.8279 0.75 12.0781 0.75ZM12.0781 2.83594C11.9459 3.05608 11.7872 3.26167 11.6025 3.44629C11.4179 3.6309 11.2123 3.78967 10.9922 3.92188C11.2123 4.05408 11.4179 4.21285 11.6025 4.39746C11.787 4.58188 11.946 4.78697 12.0781 5.00684C12.2102 4.78697 12.3693 4.58188 12.5537 4.39746C12.7381 4.21305 12.9432 4.05399 13.1631 3.92188C12.9432 3.78976 12.7381 3.6307 12.5537 3.44629C12.3691 3.26167 12.2103 3.05608 12.0781 2.83594Z" fill="currentColor"/>
</g>
<defs>
<clipPath id="clip0_18347_79931">
<rect width="16" height="16" fill="white"/>
</clipPath>
</defs>
</svg>
