<svg width="16" height="16" viewBox="0 0 14 14" fill="none" xmlns="http://www.w3.org/2000/svg">
<g id="Union">
<mask id="path-1-inside-1_0_3796" fill="white">
<path d="M11.1543 0.00390625C12.7394 0.0842145 14 1.39489 14 3V11L13.9961 11.1543C13.9184 12.6883 12.6883 13.9184 11.1543 13.9961L11 14H3C1.39489 14 0.0842144 12.7394 0.00390625 11.1543L0 11V3C1.28853e-07 1.34315 1.34315 1.61064e-08 3 0H11L11.1543 0.00390625ZM3 1C1.89543 1 1 1.89543 1 3V11C1 12.1046 1.89543 13 3 13H11C12.1046 13 13 12.1046 13 11V3C13 1.89543 12.1046 1 11 1H3ZM6.03418 3.16309C6.29986 2.17644 7.70014 2.17644 7.96582 3.16309L8.57422 5.42578L10.8369 6.03418C11.8236 6.29986 11.8236 7.70014 10.8369 7.96582L8.57422 8.57422L7.96582 10.8369C7.70014 11.8236 6.29986 11.8236 6.03418 10.8369L5.42578 8.57422L3.16309 7.96582C2.17644 7.70014 2.17644 6.29986 3.16309 6.03418L5.42578 5.42578L6.03418 3.16309ZM6.39062 5.68555C6.29792 6.02944 6.02944 6.29792 5.68555 6.39062L3.42285 7L5.68555 7.60938C6.02944 7.70208 6.29792 7.97056 6.39062 8.31445L7 10.5771L7.60938 8.31445C7.70208 7.97056 7.97056 7.70208 8.31445 7.60938L10.5771 7L8.31445 6.39062C7.97056 6.29792 7.70208 6.02944 7.60938 5.68555L7 3.42285L6.39062 5.68555Z"/>
</mask>
<path d="M11.1543 0.00390625L11.2049 -0.994813L11.1923 -0.995453L11.1796 -0.995773L11.1543 0.00390625ZM14 3H15H14ZM14 11L14.9997 11.0253L15 11.0127V11H14ZM13.9961 11.1543L14.9948 11.2049L14.9955 11.1923L14.9958 11.1796L13.9961 11.1543ZM11.1543 13.9961L11.1796 14.9958L11.1923 14.9955L11.2049 14.9948L11.1543 13.9961ZM11 14V15H11.0127L11.0253 14.9997L11 14ZM3 14V15V15V14ZM0.00390625 11.1543L-0.995773 11.1796L-0.995453 11.1923L-0.994813 11.2049L0.00390625 11.1543ZM0 11H-1V11.0127L-0.99968 11.0253L0 11ZM0 3H-1V3H0ZM3 0V-1V0ZM11 0L11.0253 -0.99968L11.0127 -1H11V0ZM3 1V0V1ZM1 3H0V3H1ZM1 11H0H1ZM3 13V14V14V13ZM11 13V14V13ZM13 11H14V11H13ZM13 3H14H13ZM11 1V0V0V1ZM6.03418 3.16309L5.06857 2.90308L5.06848 2.90343L6.03418 3.16309ZM7.96582 3.16309L8.93152 2.90343L8.93143 2.90308L7.96582 3.16309ZM8.57422 5.42578L7.60852 5.68544L7.75813 6.24187L8.31456 6.39148L8.57422 5.42578ZM10.8369 6.03418L11.0969 5.06857L11.0966 5.06848L10.8369 6.03418ZM10.8369 7.96582L11.0966 8.93152L11.0969 8.93143L10.8369 7.96582ZM8.57422 8.57422L8.31456 7.60852L7.75813 7.75813L7.60852 8.31456L8.57422 8.57422ZM7.96582 10.8369L8.93143 11.0969L8.93152 11.0966L7.96582 10.8369ZM6.03418 10.8369L5.06848 11.0966L5.06857 11.0969L6.03418 10.8369ZM5.42578 8.57422L6.39148 8.31456L6.24187 7.75813L5.68544 7.60852L5.42578 8.57422ZM3.16309 7.96582L2.90308 8.93143L2.90343 8.93152L3.16309 7.96582ZM3.16309 6.03418L2.90343 5.06848L2.90308 5.06857L3.16309 6.03418ZM5.42578 5.42578L5.68544 6.39148L6.24187 6.24187L6.39148 5.68544L5.42578 5.42578ZM6.39062 5.68555L7.35615 5.94584L7.35622 5.9456L6.39062 5.68555ZM5.68555 6.39062L5.9456 7.35622L5.94584 7.35615L5.68555 6.39062ZM3.42285 7L3.1628 6.0344L-0.422589 7L3.1628 7.9656L3.42285 7ZM5.68555 7.60938L5.94584 6.64385L5.9456 6.64378L5.68555 7.60938ZM6.39062 8.31445L7.35622 8.05441L7.35615 8.05416L6.39062 8.31445ZM7 10.5771L6.0344 10.8372L7 14.4226L7.9656 10.8372L7 10.5771ZM7.60938 8.31445L6.64385 8.05416L6.64378 8.05441L7.60938 8.31445ZM8.31445 7.60938L8.05441 6.64378L8.05416 6.64385L8.31445 7.60938ZM10.5771 7L10.8372 7.9656L14.4226 7L10.8372 6.0344L10.5771 7ZM8.31445 6.39062L8.05416 7.35615L8.05441 7.35622L8.31445 6.39062ZM7.60938 5.68555L6.64378 5.9456L6.64385 5.94584L7.60938 5.68555ZM7 3.42285L7.9656 3.1628L7 -0.422589L6.0344 3.1628L7 3.42285ZM11.1543 0.00390625L11.1037 1.00263C12.1596 1.05612 13 1.93023 13 3H14H15C15 0.859555 13.3193 -0.887693 11.2049 -0.994813L11.1543 0.00390625ZM14 3H13V11H14H15V3H14ZM14 11L13.0003 10.9747L12.9964 11.129L13.9961 11.1543L14.9958 11.1796L14.9997 11.0253L14 11ZM13.9961 11.1543L12.9974 11.1037C12.9456 12.1252 12.1252 12.9456 11.1037 12.9974L11.1543 13.9961L11.2049 14.9948C13.2514 14.8911 14.8911 13.2514 14.9948 11.2049L13.9961 11.1543ZM11.1543 13.9961L11.129 12.9964L10.9747 13.0003L11 14L11.0253 14.9997L11.1796 14.9958L11.1543 13.9961ZM11 14V13H3V14V15H11V14ZM3 14V13C1.93023 13 1.05612 12.1596 1.00263 11.1037L0.00390625 11.1543L-0.994813 11.2049C-0.887693 13.3193 0.859555 15 3 15V14ZM0.00390625 11.1543L1.00359 11.129L0.99968 10.9747L0 11L-0.99968 11.0253L-0.995773 11.1796L0.00390625 11.1543ZM0 11H1V3H0H-1V11H0ZM0 3H1C1 1.89543 1.89543 1 3 1V0V-1C0.790861 -1 -1 0.790861 -1 3H0ZM3 0V1H11V0V-1H3V0ZM11 0L10.9747 0.99968L11.129 1.00359L11.1543 0.00390625L11.1796 -0.995773L11.0253 -0.99968L11 0ZM3 1V0C1.34315 2.416e-08 1.93277e-07 1.34315 0 3H1H2C2 2.44772 2.44772 2 3 2V1ZM1 3H0V11H1H2V3H1ZM1 11H0C2.416e-08 12.6569 1.34315 14 3 14V13V12C2.44772 12 2 11.5523 2 11H1ZM3 13V14H11V13V12H3V13ZM11 13V14C12.6569 14 14 12.6569 14 11H13H12C12 11.5523 11.5523 12 11 12V13ZM13 11H14V3H13H12V11H13ZM13 3H14C14 1.34315 12.6569 1.93277e-07 11 0V1V2C11.5523 2 12 2.44772 12 3H13ZM11 1V0H3V1V2H11V1ZM6.03418 3.16309L6.99979 3.4231L7.00021 3.4231L7.96582 3.16309L8.93143 2.90308C8.40007 0.929776 5.59993 0.929772 5.06857 2.90308L6.03418 3.16309ZM7.96582 3.16309L7.00012 3.42275L7.60852 5.68544L8.57422 5.42578L9.53992 5.16612L8.93152 2.90343L7.96582 3.16309ZM8.57422 5.42578L8.31456 6.39148L10.5773 6.99988L10.8369 6.03418L11.0966 5.06848L8.83388 4.46008L8.57422 5.42578ZM10.8369 6.03418L10.5769 6.99979V7.00021L10.8369 7.96582L11.0969 8.93143C13.0702 8.40007 13.0702 5.59993 11.0969 5.06857L10.8369 6.03418ZM10.8369 7.96582L10.5773 7.00012L8.31456 7.60852L8.57422 8.57422L8.83388 9.53992L11.0966 8.93152L10.8369 7.96582ZM8.57422 8.57422L7.60852 8.31456L7.00012 10.5773L7.96582 10.8369L8.93152 11.0966L9.53992 8.83388L8.57422 8.57422ZM7.96582 10.8369L7.00021 10.5769H6.99979L6.03418 10.8369L5.06857 11.0969C5.59993 13.0702 8.40007 13.0702 8.93143 11.0969L7.96582 10.8369ZM6.03418 10.8369L6.99988 10.5773L6.39148 8.31456L5.42578 8.57422L4.46008 8.83388L5.06848 11.0966L6.03418 10.8369ZM5.42578 8.57422L5.68544 7.60852L3.42275 7.00012L3.16309 7.96582L2.90343 8.93152L5.16612 9.53992L5.42578 8.57422ZM3.16309 7.96582L3.4231 7.00021L3.4231 6.99979L3.16309 6.03418L2.90308 5.06857C0.929776 5.59993 0.929772 8.40007 2.90308 8.93143L3.16309 7.96582ZM3.16309 6.03418L3.42275 6.99988L5.68544 6.39148L5.42578 5.42578L5.16612 4.46008L2.90343 5.06848L3.16309 6.03418ZM5.42578 5.42578L6.39148 5.68544L6.99988 3.42275L6.03418 3.16309L5.06848 2.90343L4.46008 5.16612L5.42578 5.42578ZM6.39062 5.68555L5.4251 5.42525L5.42525 5.4251L5.68555 6.39062L5.94584 7.35615C6.63363 7.17074 7.17074 6.63363 7.35615 5.94584L6.39062 5.68555ZM5.68555 6.39062L5.4255 5.42503L3.1628 6.0344L3.42285 7L3.6829 7.9656L5.9456 7.35622L5.68555 6.39062ZM3.42285 7L3.1628 7.9656L5.4255 8.57497L5.68555 7.60938L5.9456 6.64378L3.6829 6.0344L3.42285 7ZM5.68555 7.60938L5.42525 8.5749L5.4251 8.57475L6.39062 8.31445L7.35615 8.05416C7.17074 7.36637 6.63363 6.82926 5.94584 6.64385L5.68555 7.60938ZM6.39062 8.31445L5.42503 8.5745L6.0344 10.8372L7 10.5771L7.9656 10.3171L7.35622 8.05441L6.39062 8.31445ZM7 10.5771L7.9656 10.8372L8.57497 8.5745L7.60938 8.31445L6.64378 8.05441L6.0344 10.3171L7 10.5771ZM7.60938 8.31445L8.5749 8.57475L8.57475 8.5749L8.31445 7.60938L8.05416 6.64385C7.36637 6.82926 6.82926 7.36637 6.64385 8.05416L7.60938 8.31445ZM8.31445 7.60938L8.5745 8.57497L10.8372 7.9656L10.5771 7L10.3171 6.0344L8.05441 6.64378L8.31445 7.60938ZM10.5771 7L10.8372 6.0344L8.5745 5.42503L8.31445 6.39062L8.05441 7.35622L10.3171 7.9656L10.5771 7ZM8.31445 6.39062L8.57475 5.4251L8.5749 5.42525L7.60938 5.68555L6.64385 5.94584C6.82926 6.63363 7.36637 7.17074 8.05416 7.35615L8.31445 6.39062ZM7.60938 5.68555L8.57497 5.4255L7.9656 3.1628L7 3.42285L6.0344 3.6829L6.64378 5.9456L7.60938 5.68555ZM7 3.42285L6.0344 3.1628L5.42503 5.4255L6.39062 5.68555L7.35622 5.9456L7.9656 3.6829L7 3.42285Z" fill="var(--stroke-0, currentColor)" mask="url(#path-1-inside-1_0_3796)"/>
</g>
</svg>
