<svg width="16" height="16" viewBox="0 0 14.3139 12.4367" fill="none" xmlns="http://www.w3.org/2000/svg">
<path id="Union" d="M6.50998 0.370247C6.79974 -0.123479 7.51405 -0.123352 7.80392 0.370247L14.2102 11.3077C14.4843 11.7763 14.1847 12.3576 13.6692 12.4288L13.5627 12.4367H0.75119L0.644744 12.4288C0.129325 12.3575 -0.170378 11.7762 0.103729 11.3077L6.50998 0.370247ZM1.18674 11.4367H13.1272L7.15646 1.24329L1.18674 11.4367ZM7.15744 8.81263C7.64069 8.81263 8.03244 9.20438 8.03244 9.68763C8.03227 10.1707 7.64058 10.5626 7.15744 10.5626C6.67443 10.5625 6.28261 10.1706 6.28244 9.68763C6.28244 9.20448 6.67432 8.81278 7.15744 8.81263ZM7.15744 3.90833C7.43358 3.90833 7.65744 4.13219 7.65744 4.40833V7.65833C7.65727 7.93433 7.43347 8.15833 7.15744 8.15833C6.88154 8.15818 6.65761 7.93423 6.65744 7.65833V4.40833C6.65744 4.13229 6.88143 3.90849 7.15744 3.90833Z" fill="var(--fill-0, currentColor)"/>
</svg>
