<svg width="16" height="16" viewBox="0 0 14.5 14.5" fill="none" xmlns="http://www.w3.org/2000/svg">
<path id="Union" fill-rule="evenodd" clip-rule="evenodd" d="M13.5 7.25C13.5 3.79822 10.7018 1 7.25 1C3.79822 1 1 3.79822 1 7.25C1 10.7018 3.79822 13.5 7.25 13.5C10.7018 13.5 13.5 10.7018 13.5 7.25ZM7.25 14.5C3.24594 14.5 0 11.2541 0 7.25C0 3.24594 3.24594 0 7.25 0C11.2541 0 14.5 3.24594 14.5 7.25C14.5 11.2541 11.2541 14.5 7.25 14.5ZM7.25 5C7.73325 5 8.125 4.60825 8.125 4.125C8.125 3.64175 7.73325 3.25 7.25 3.25C6.76675 3.25 6.375 3.64175 6.375 4.125C6.375 4.60825 6.76675 5 7.25 5ZM6.75 6.68555V10.3926L6.75977 10.4941C6.8065 10.7218 7.00848 10.8926 7.25 10.8926C7.49152 10.8926 7.6935 10.7218 7.74023 10.4941L7.75 10.3926V6.68555C7.75 6.4094 7.52614 6.18555 7.25 6.18555C6.97386 6.18555 6.75 6.4094 6.75 6.68555Z" fill="var(--fill-0, currentColor)"/>
</svg>
