<svg width="16" height="16" viewBox="0 0 16 16" fill="none" xmlns="http://www.w3.org/2000/svg">
<path fill-rule="evenodd" clip-rule="evenodd" d="M2.5 3.2002C2.5 2.92405 2.72386 2.7002 3 2.7002H13C13.2761 2.7002 13.5 2.92405 13.5 3.2002C13.5 3.47634 13.2761 3.7002 13 3.7002H3C2.72386 3.7002 2.5 3.47634 2.5 3.2002ZM4.5 8.00024C4.5 7.7241 4.72386 7.50024 5 7.50024H11C11.2761 7.50024 11.5 7.7241 11.5 8.00024C11.5 8.27639 11.2761 8.50024 11 8.50024H5C4.72386 8.50024 4.5 8.27639 4.5 8.00024ZM3 12.3003C2.72386 12.3003 2.5 12.5242 2.5 12.8003C2.5 13.0764 2.72386 13.3003 3 13.3003H13C13.2761 13.3003 13.5 13.0764 13.5 12.8003C13.5 12.5242 13.2761 12.3003 13 12.3003H3Z" fill="currentColor"/>
</svg>
