<svg width="16" height="16" viewBox="0 0 11 10.6001" fill="none" xmlns="http://www.w3.org/2000/svg">
<path id="Union" fill-rule="evenodd" clip-rule="evenodd" d="M11 0.5C11 0.223858 10.7761 0 10.5 0H0.5C0.223858 0 0 0.223858 0 0.5C0 0.776142 0.223858 1 0.5 1H10.5C10.7761 1 11 0.776142 11 0.5ZM9 6.90004C9 6.62389 8.77614 6.40004 8.5 6.40004H2.5C2.22386 6.40004 2 6.62389 2 6.90004C2 7.17618 2.22386 7.40004 2.5 7.40004H8.5C8.77614 7.40004 9 7.17618 9 6.90004ZM8.5 3.19999C8.77614 3.19999 9 3.42385 9 3.69999C9 3.97613 8.77614 4.19999 8.5 4.19999H2.5C2.22386 4.19999 2 3.97613 2 3.69999C2 3.42385 2.22386 3.19999 2.5 3.19999H8.5ZM11 10.1001C11 9.82396 10.7761 9.6001 10.5 9.6001H0.5C0.223858 9.6001 0 9.82396 0 10.1001C0 10.3762 0.223858 10.6001 0.5 10.6001H10.5C10.7761 10.6001 11 10.3762 11 10.1001Z" fill="var(--fill-0, currentColor)"/>
</svg>
