<svg width="16" height="16" viewBox="0 0 11 10.6001" fill="none" xmlns="http://www.w3.org/2000/svg">
<path id="Union" fill-rule="evenodd" clip-rule="evenodd" d="M10.5 0C10.7761 0 11 0.223858 11 0.5C11 0.776142 10.7761 1 10.5 1H0.5C0.223858 1 0 0.776142 0 0.5C0 0.223858 0.223858 0 0.5 0H10.5ZM10.5 4.80005C10.7761 4.80005 11 5.02391 11 5.30005C11 5.57619 10.7761 5.80005 10.5 5.80005H0.5C0.223858 5.80005 0 5.57619 0 5.30005C0 5.02391 0.223858 4.80005 0.5 4.80005H10.5ZM11 10.1001C11 9.82396 10.7761 9.6001 10.5 9.6001H4.5C4.22386 9.6001 4 9.82396 4 10.1001C4 10.3762 4.22386 10.6001 4.5 10.6001H10.5C10.7761 10.6001 11 10.3762 11 10.1001Z" fill="var(--fill-0, currentColor)"/>
</svg>
