<svg width="16" height="16" viewBox="0 0 11 10.6001" fill="none" xmlns="http://www.w3.org/2000/svg">
<path id="Union" fill-rule="evenodd" clip-rule="evenodd" d="M10.5 0C10.7761 0 11 0.223858 11 0.5C11 0.776142 10.7761 1 10.5 1H0.5C0.223858 1 0 0.776142 0 0.5C0 0.223858 0.223858 0 0.5 0H10.5ZM8.5 4.80005C8.77614 4.80005 9 5.02391 9 5.30005C9 5.57619 8.77614 5.80005 8.5 5.80005H2.5C2.22386 5.80005 2 5.57619 2 5.30005C2 5.02391 2.22386 4.80005 2.5 4.80005H8.5ZM11 10.1001C11 9.82396 10.7761 9.6001 10.5 9.6001H0.5C0.223858 9.6001 0 9.82396 0 10.1001C0 10.3762 0.223858 10.6001 0.5 10.6001H10.5C10.7761 10.6001 11 10.3762 11 10.1001Z" fill="var(--fill-0, currentColor)"/>
</svg>
