<svg width="16" height="16" viewBox="0 0 14.999 12" fill="none" xmlns="http://www.w3.org/2000/svg">
<path id="Union" d="M7.49902 0C7.77517 2.19465e-09 7.99902 0.223858 7.99902 0.5V11.5C7.99902 11.7761 7.77517 12 7.49902 12C7.22288 12 6.99902 11.7761 6.99902 11.5V0.5C6.99902 0.223858 7.22288 4.71997e-08 7.49902 0ZM2.31738 2.31738C2.51267 2.12244 2.82926 2.12223 3.02441 2.31738L6.35352 5.64648C6.54846 5.84166 6.54839 6.1583 6.35352 6.35352L3.02441 9.68262C2.82923 9.8778 2.51266 9.87765 2.31738 9.68262C2.12212 9.48735 2.12212 9.17085 2.31738 8.97559L4.79297 6.5H0.5C0.223858 6.5 4.72472e-06 6.27614 0 6C8.12607e-05 5.72409 0.223155 5.50026 0.499023 5.5H4.79297L2.31738 3.02441C2.12214 2.82917 2.12218 2.51265 2.31738 2.31738ZM11.9746 2.31738C12.1699 2.12214 12.4864 2.12218 12.6816 2.31738C12.8769 2.51265 12.8769 2.82915 12.6816 3.02441L10.2061 5.5H14.499C14.7752 5.5 14.999 5.72386 14.999 6C14.999 6.27614 14.7752 6.5 14.499 6.5H10.2061L12.6816 8.97559C12.8769 9.17083 12.8768 9.48735 12.6816 9.68262C12.4864 9.87788 12.1699 9.87788 11.9746 9.68262L8.64551 6.35352C8.45029 6.15825 8.45026 5.84173 8.64551 5.64648L11.9746 2.31738Z" fill="var(--fill-0, currentColor)"/>
</svg>
