<svg width="16" height="16" viewBox="0 0 11 10.6001" fill="none" xmlns="http://www.w3.org/2000/svg">
<path id="Union" fill-rule="evenodd" clip-rule="evenodd" d="M11 0.5C11 0.223858 10.7761 0 10.5 0H0.5C0.223858 0 0 0.223858 0 0.5C0 0.776142 0.223858 1 0.5 1H10.5C10.7761 1 11 0.776142 11 0.5ZM11 6.89998C11 6.62384 10.7761 6.39998 10.5 6.39998H0.5C0.223858 6.39998 0 6.62384 0 6.89998C0 7.17613 0.223858 7.39998 0.5 7.39998H10.5C10.7761 7.39998 11 7.17613 11 6.89998ZM10.5 3.20003C10.7761 3.20003 11 3.42389 11 3.70003C11 3.97617 10.7761 4.20003 10.5 4.20003H0.5C0.223858 4.20003 0 3.97617 0 3.70003C0 3.42389 0.223858 3.20003 0.5 3.20003H10.5ZM11 10.1001C11 9.82396 10.7761 9.6001 10.5 9.6001H4.5C4.22386 9.6001 4 9.82396 4 10.1001C4 10.3762 4.22386 10.6001 4.5 10.6001H10.5C10.7761 10.6001 11 10.3762 11 10.1001Z" fill="var(--fill-0, currentColor)"/>
</svg>
