<svg width="16" height="16" viewBox="0 0 11 10.6001" fill="none" xmlns="http://www.w3.org/2000/svg">
<path id="Union" fill-rule="evenodd" clip-rule="evenodd" d="M11 0.5C11 0.223858 10.7761 0 10.5 0H0.5C0.223858 0 0 0.223858 0 0.5C0 0.776142 0.223858 1 0.5 1H10.5C10.7761 1 11 0.776142 11 0.5ZM11 6.90023C11 6.62409 10.7761 6.40023 10.5 6.40023H0.5C0.223858 6.40023 0 6.62409 0 6.90023C0 7.17637 0.223858 7.40023 0.5 7.40023H10.5C10.7761 7.40023 11 7.17637 11 6.90023ZM10.5 3.20015C10.7761 3.20015 11 3.42401 11 3.70015C11 3.97629 10.7761 4.20015 10.5 4.20015H0.5C0.223858 4.20015 0 3.97629 0 3.70015C0 3.42401 0.223858 3.20015 0.5 3.20015H10.5ZM11 10.1001C11 9.82396 10.7761 9.6001 10.5 9.6001H0.5C0.223858 9.6001 0 9.82396 0 10.1001C0 10.3762 0.223858 10.6001 0.5 10.6001H10.5C10.7761 10.6001 11 10.3762 11 10.1001Z" fill="var(--fill-0, currentColor)"/>
</svg>
