<svg width="16" height="16" viewBox="0 0 11 10.6006" fill="none" xmlns="http://www.w3.org/2000/svg">
<path id="Union" d="M10.5 9.60059C10.7761 9.60059 11 9.82444 11 10.1006C10.9997 10.3765 10.776 10.6006 10.5 10.6006H0.5C0.22402 10.6006 0.000263701 10.3765 0 10.1006C0 9.82444 0.223858 9.60059 0.5 9.60059H10.5ZM10.5 4.7998C10.7761 4.7998 10.9999 5.02377 11 5.2998C11 5.57595 10.7761 5.7998 10.5 5.7998H0.5C0.223858 5.7998 0 5.57595 0 5.2998C0.000131897 5.02377 0.223939 4.7998 0.5 4.7998H10.5ZM10.5 0C10.7761 0 11 0.223858 11 0.5C11 0.776142 10.7761 1 10.5 1H0.5C0.223858 1 0 0.776142 0 0.5C0 0.223858 0.223858 0 0.5 0H10.5Z" fill="var(--fill-0, currentColor)"/>
</svg>
