<svg width="16" height="16" viewBox="0 0 14.1072 12.4526" fill="none" xmlns="http://www.w3.org/2000/svg">
<path id="Union" fill-rule="evenodd" clip-rule="evenodd" d="M13.1072 2.5C13.1072 1.67157 12.4356 1 11.6072 1H4.28202C3.4536 1 2.78202 1.67157 2.78202 2.5V2.55566C2.78202 2.93518 2.99691 3.28215 3.33671 3.45117L7.4998 5.52148C7.78026 5.66091 8.10998 5.66097 8.39042 5.52148L12.5525 3.45117C12.8923 3.28216 13.1072 2.93519 13.1072 2.55566V2.5ZM13.1072 4.28799C13.0715 4.30859 13.0351 4.32817 12.9978 4.34668L8.83573 6.41699C8.27482 6.69597 7.61542 6.69589 7.05448 6.41699L2.8914 4.34668C2.85418 4.32817 2.81771 4.30859 2.78202 4.28799V8.16895C2.78202 8.99737 3.4536 9.66895 4.28202 9.66895H11.6072C12.4356 9.66895 13.1072 8.99737 13.1072 8.16895V4.28799ZM1.88238 1.79648C2.18625 0.758276 3.14559 0 4.28202 0H11.6072C12.9879 0 14.1072 1.11929 14.1072 2.5V2.55566V8.16895C14.1072 9.30977 13.3431 10.2721 12.2987 10.5721C12.1331 11.6375 11.2115 12.4526 10.0996 12.4526H3C1.34315 12.4526 0 11.1095 0 9.45264V3.8999C5.54366e-05 2.81021 0.823684 1.9129 1.88238 1.79648ZM4.28202 10.6689H11.2433C11.0661 11.1275 10.6208 11.4526 10.0996 11.4526H3C1.89543 11.4526 1 10.5572 1 9.45264V3.8999C1.00005 3.39988 1.32884 2.97666 1.78202 2.83461V8.16895C1.78202 9.54966 2.90131 10.6689 4.28202 10.6689Z" fill="var(--fill-0, currentColor)"/>
</svg>
