<svg width="16" height="16" viewBox="0 0 14.002 11.999" fill="none" xmlns="http://www.w3.org/2000/svg">
<path id="Union" fill-rule="evenodd" clip-rule="evenodd" d="M1.5 0C0.671573 0 0 0.671573 0 1.5V9.49902C0 10.8797 1.11929 11.999 2.5 11.999H6.50098H7.50098H11.502C12.8825 11.999 14.0017 10.8805 14.002 9.5V1.5C14.002 0.671574 13.3304 0 12.502 0H10.001C8.72781 0 7.61343 0.679792 7.00098 1.69621C6.38853 0.679792 5.27414 0 4.00098 0H1.5ZM7.50098 10.999H11.502C12.3302 10.999 13.0017 10.3282 13.002 9.5V1.5C13.002 1.22386 12.7781 1 12.502 1H10.001C8.62027 1 7.50098 2.11929 7.50098 3.5V10.999ZM6.50098 10.999V3.5C6.50098 2.11929 5.38169 1 4.00098 1H1.5C1.22386 1 1 1.22386 1 1.5V9.49902C1 10.3275 1.67157 10.999 2.5 10.999H6.50098Z" fill="var(--fill-0, currentColor)"/>
</svg>
