<svg width="16" height="16" viewBox="0 0 13.4844 10.8965" fill="none" xmlns="http://www.w3.org/2000/svg">
<path id="Union" fill-rule="evenodd" clip-rule="evenodd" d="M1.08691 3.37793C0.87793 3.37793 0.691406 3.3418 0.527344 3.26953C0.363281 3.19531 0.234375 3.08594 0.140625 2.94141C0.046875 2.79688 0 2.61719 0 2.40234C0 2.21875 0.0322266 2.06641 0.0966797 1.94531C0.163086 1.82227 0.253906 1.72266 0.369141 1.64648C0.484375 1.57031 0.615234 1.5127 0.761719 1.47363C0.910156 1.43457 1.06543 1.40723 1.22754 1.3916C1.41699 1.37402 1.56934 1.35645 1.68457 1.33887C1.80176 1.32129 1.88672 1.29492 1.93945 1.25977C1.99414 1.22266 2.02148 1.16992 2.02148 1.10156V1.08691C2.02148 0.99707 2.00195 0.920898 1.96289 0.858398C1.92383 0.793945 1.86719 0.745117 1.79297 0.711914C1.71875 0.678711 1.62793 0.662109 1.52051 0.662109C1.41309 0.662109 1.31836 0.678711 1.23633 0.711914C1.1543 0.745117 1.08691 0.790039 1.03418 0.84668C0.981445 0.901367 0.943359 0.964844 0.919922 1.03711L0.09375 0.905273C0.146484 0.71582 0.237305 0.553711 0.366211 0.418945C0.49707 0.28418 0.660156 0.180664 0.855469 0.108398C1.05273 0.0361328 1.27539 0 1.52344 0C1.70508 0 1.87988 0.0214844 2.04785 0.0644531C2.21582 0.107422 2.36621 0.173828 2.49902 0.263672C2.63184 0.351562 2.73633 0.46582 2.8125 0.606445C2.88867 0.74707 2.92676 0.914062 2.92676 1.10742V3.31641H2.06836V2.85938H2.04199C1.98926 2.96289 1.91895 3.05371 1.83105 3.13184C1.74316 3.20801 1.6377 3.26855 1.51465 3.31348C1.3916 3.35645 1.24902 3.37793 1.08691 3.37793ZM1.34473 2.75098C1.47949 2.75098 1.59766 2.72461 1.69922 2.67188C1.80273 2.61719 1.88281 2.54492 1.93945 2.45508C1.99805 2.36328 2.02734 2.26074 2.02734 2.14746V1.79883C2 1.81641 1.96094 1.83301 1.91016 1.84863C1.86133 1.86426 1.80566 1.87793 1.74316 1.88965C1.68262 1.90137 1.62207 1.91211 1.56152 1.92188C1.50098 1.92969 1.44629 1.9375 1.39746 1.94531C1.29004 1.96094 1.19629 1.98633 1.11621 2.02148C1.03613 2.05469 0.973633 2.10059 0.928711 2.15918C0.885742 2.21582 0.864258 2.28711 0.864258 2.37305C0.864258 2.49609 0.90918 2.58984 0.999023 2.6543C1.08887 2.71875 1.2041 2.75098 1.34473 2.75098ZM12.9844 0.943371C13.2605 0.943371 13.4844 1.16723 13.4844 1.44337C13.4844 1.71951 13.2605 1.94337 12.9844 1.94337H4.90137C4.62522 1.94337 4.40137 1.71951 4.40137 1.44337C4.40137 1.16723 4.62522 0.943371 4.90137 0.943371H12.9844ZM12.9844 5.41993C13.2605 5.41993 13.4844 5.64379 13.4844 5.91993C13.4844 6.19608 13.2605 6.41993 12.9844 6.41993H4.90137C4.62522 6.41993 4.40137 6.19608 4.40137 5.91993C4.40137 5.64379 4.62522 5.41993 4.90137 5.41993H12.9844ZM13.4844 10.3965C13.4844 10.1204 13.2605 9.8965 12.9844 9.8965H4.90137C4.62522 9.8965 4.40137 10.1204 4.40137 10.3965C4.40137 10.6726 4.62522 10.8965 4.90137 10.8965H12.9844C13.2605 10.8965 13.4844 10.6726 13.4844 10.3965ZM1.41504 10.2377C1.53809 10.2963 1.68652 10.3256 1.86035 10.3256C2.11035 10.3256 2.33594 10.2611 2.53711 10.1322C2.73828 10.0033 2.89746 9.81384 3.01465 9.56384C3.13184 9.31189 3.19043 9.00427 3.19043 8.64099C3.19043 8.26599 3.12988 7.95349 3.00879 7.70349C2.8877 7.45349 2.72656 7.26697 2.52539 7.14392C2.32617 7.01892 2.10645 6.95642 1.86621 6.95642C1.68262 6.95642 1.5293 6.98767 1.40625 7.05017C1.2832 7.11072 1.18359 7.18689 1.10742 7.27868C1.0332 7.37048 0.975586 7.4613 0.93457 7.55115H0.908203V5.90759H0V10.2728H0.893555V9.74841H0.93457C0.975586 9.83825 1.03516 9.9281 1.11328 10.0179C1.19141 10.1058 1.29199 10.1791 1.41504 10.2377ZM1.95117 9.48181C1.84961 9.56384 1.72461 9.60486 1.57617 9.60486C1.42969 9.60486 1.30469 9.56482 1.20117 9.48474C1.09961 9.40271 1.02148 9.28943 0.966797 9.1449C0.914062 9.00036 0.887695 8.83142 0.887695 8.63806C0.887695 8.44275 0.914062 8.2738 0.966797 8.13122C1.02148 7.98669 1.09961 7.87536 1.20117 7.79724C1.30469 7.71716 1.42969 7.67712 1.57617 7.67712C1.72656 7.67712 1.85156 7.71814 1.95117 7.80017C2.05273 7.8822 2.12988 7.99548 2.18262 8.14001C2.23535 8.28259 2.26172 8.44861 2.26172 8.63806C2.26172 8.82751 2.23535 8.99548 2.18262 9.14197C2.12988 9.2865 2.05273 9.39978 1.95117 9.48181Z" fill="var(--fill-0, currentColor)"/>
</svg>
