<svg width="16" height="16" viewBox="0 0 16 16" fill="none" xmlns="http://www.w3.org/2000/svg">
<path d="M9.92383 1C12.7262 1.00032 14.998 3.2727 14.998 6.0752C14.9978 8.49944 13.2973 10.5248 11.0244 11.0283C10.5218 13.3018 8.49684 15.0027 6.07227 15.0029C3.2698 15.0029 0.99733 12.7311 0.99707 9.92871C0.997152 7.50556 2.69635 5.48001 4.96777 4.97559C5.47041 2.70131 7.4985 1 9.92383 1ZM6.07227 5.85352C3.82199 5.85359 1.99717 7.67844 1.99707 9.92871C1.99733 12.1788 3.82209 14.0029 6.07227 14.0029C8.32229 14.0027 10.1462 12.1787 10.1465 9.92871C10.1464 7.67855 8.32239 5.85378 6.07227 5.85352ZM9.92383 2C8.09908 2 6.55394 3.19989 6.03516 4.85352C6.04751 4.85343 6.05989 4.85352 6.07227 4.85352C8.87467 4.85378 11.1464 7.12626 11.1465 9.92871C11.1465 9.9394 11.1456 9.95026 11.1455 9.96094C12.7981 9.44174 13.9978 7.89905 13.998 6.0752C13.998 3.82499 12.174 2.00032 9.92383 2Z" fill="currentColor"/>
</svg>
