<svg width="16" height="16" viewBox="0 0 14.001 14.0029" fill="none" xmlns="http://www.w3.org/2000/svg">
<path id="Union" d="M8.92676 0C11.7292 0.000315576 14.001 2.2727 14.001 5.0752C14.0007 7.49944 12.3002 9.52484 10.0273 10.0283C9.52469 12.3018 7.49977 14.0027 5.0752 14.0029C2.27273 14.0029 0.000259484 11.7311 0 8.92871C8.20073e-05 6.50556 1.69928 4.48001 3.9707 3.97559C4.47334 1.70131 6.50143 0 8.92676 0ZM5.0752 4.85352C2.82492 4.85359 1.00009 6.67844 1 8.92871C1.00026 11.1788 2.82502 13.0029 5.0752 13.0029C7.32522 13.0027 9.14915 11.1787 9.14941 8.92871C9.14932 6.67855 7.32532 4.85378 5.0752 4.85352ZM8.92676 1C7.10201 1 5.55687 2.19989 5.03809 3.85352C5.05044 3.85343 5.06282 3.85352 5.0752 3.85352C7.8776 3.85378 10.1493 6.12626 10.1494 8.92871C10.1494 8.9394 10.1485 8.95026 10.1484 8.96094C11.801 8.44174 13.0008 6.89905 13.001 5.0752C13.001 2.82499 11.1769 1.00032 8.92676 1Z" fill="var(--fill-0, currentColor)"/>
</svg>
