<svg width="16" height="16" viewBox="0 0 14.0664 15.0005" fill="none" xmlns="http://www.w3.org/2000/svg">
<path id="Union" d="M13.2695 0.0975647C13.409 -0.00527895 13.5944 -0.0296427 13.7578 0.0379943C13.9445 0.115371 14.0663 0.297868 14.0664 0.499908V11.6991C14.0664 11.9013 13.9446 12.0846 13.7578 12.162C13.5944 12.2297 13.409 12.2053 13.2695 12.1024L13.2129 12.0536L13.1865 12.0273C13.1674 12.0088 13.138 11.981 13.0996 11.9452C13.0222 11.8729 12.9069 11.7676 12.7598 11.6415C12.4648 11.3887 12.0433 11.0519 11.5391 10.7157C10.5141 10.0325 9.2163 9.39943 7.9668 9.39932H4.12012L6.24023 13.5097V13.5107C6.46726 13.9529 7.00968 14.1274 7.45117 13.9013C7.86602 13.6885 8.04547 13.1986 7.87988 12.7743L7.84277 12.6903L6.99219 11.039C6.86572 10.7935 6.96163 10.4917 7.20703 10.3651C7.4525 10.2387 7.75438 10.3355 7.88086 10.581L8.73145 12.2323L8.73242 12.2333C9.21137 13.1673 8.84109 14.3123 7.9082 14.7909C6.9742 15.2699 5.82917 14.8997 5.35059 13.9667V13.9657L2.98633 9.3837C1.31087 9.22574 0 7.81634 0 6.09952C0.000324215 4.2772 1.47743 2.79978 3.2998 2.79971H7.9668C9.2163 2.7996 10.5141 2.16756 11.5391 1.48428C12.0434 1.14805 12.4649 0.810308 12.7598 0.557526C12.9068 0.431475 13.0222 0.327013 13.0996 0.254791C13.1382 0.218778 13.1674 0.190262 13.1865 0.171783C13.1959 0.162745 13.2027 0.15557 13.207 0.151276C13.2089 0.149441 13.211 0.14825 13.2119 0.147369L13.2129 0.146393L13.2695 0.0975647ZM13.0664 1.60049C12.794 1.81919 12.4656 2.06841 12.0938 2.31631C11.019 3.03282 9.51685 3.79961 7.9668 3.79971H3.2998C2.02971 3.79978 1.00032 4.82948 1 6.09952C1 7.36983 2.02951 8.39926 3.2998 8.39932H7.9668C9.51686 8.39943 11.019 9.1672 12.0938 9.8837C12.4655 10.1315 12.794 10.3799 13.0664 10.5985V1.60049Z" fill="var(--fill-0, currentColor)"/>
</svg>
