<svg width="16" height="16" viewBox="0 0 15 14.3809" fill="none" xmlns="http://www.w3.org/2000/svg">
<path id="Union" d="M11.4961 0.00588514L11.6221 0.0283461C11.9105 0.0925473 12.1488 0.251176 12.3262 0.499049C12.4768 0.709616 12.515 0.968012 12.5322 1.1846C12.5505 1.41472 12.5498 1.71271 12.5498 2.06936V2.5762C13.9406 2.81379 14.9997 4.02205 15 5.48049C15 6.93914 13.9407 8.1471 12.5498 8.38479V8.8926C12.5498 9.24925 12.5505 9.54724 12.5322 9.77737C12.515 9.99395 12.4768 10.2523 12.3262 10.4629C12.1236 10.746 11.8416 10.9127 11.4961 10.9551C11.2353 10.987 10.9821 10.8913 10.7793 10.7998C10.56 10.7009 10.2849 10.5506 9.95215 10.3692C8.9005 9.79589 7.64301 9.24849 6.59961 9.14846V12.3086C6.59961 12.4568 6.60025 12.5666 6.59082 12.6641C6.50312 13.5683 5.78794 14.2842 4.88379 14.3721C4.78623 14.3816 4.67568 14.3809 4.52734 14.3809C4.40889 14.3809 4.32046 14.3817 4.23828 14.375C3.48316 14.3133 2.83695 13.8084 2.59375 13.0908C2.56731 13.0128 2.5463 12.9264 2.51758 12.8115L1.41504 8.40237C1.41167 8.38886 1.41042 8.37485 1.4082 8.36135C0.551279 7.69343 7.44279e-07 6.65114 0 5.48049C0.00030971 3.46492 1.63474 1.83108 3.65039 1.83108H6.27539C7.37418 1.83094 8.78894 1.2269 9.95215 0.592799C10.2849 0.411387 10.56 0.26108 10.7793 0.162135C10.9567 0.0821123 11.1726 -0.001685 11.3984 2.57604e-05L11.4961 0.00588514ZM3.4873 12.5684C3.52049 12.7011 3.53084 12.7395 3.54102 12.7696C3.65613 13.1094 3.96175 13.3486 4.31934 13.378C4.35096 13.3805 4.39062 13.3809 4.52734 13.3809C4.69911 13.3809 4.74984 13.3806 4.78711 13.377C5.21537 13.3353 5.55416 12.9957 5.5957 12.5674C5.59927 12.5302 5.59961 12.4796 5.59961 12.3086V9.13089H3.65039C3.28083 9.13089 2.92408 9.07481 2.58789 8.97268L3.4873 12.5684ZM11.3838 1.001C11.3679 1.00472 11.3115 1.01865 11.1904 1.07327C11.0138 1.15297 10.7782 1.28128 10.4307 1.47073C9.35123 2.05916 7.897 2.71733 6.59961 2.81643V8.14456C7.897 8.24363 9.35121 8.9028 10.4307 9.49124C10.7782 9.68068 11.0138 9.80899 11.1904 9.8887C11.3109 9.94306 11.3676 9.95619 11.3838 9.95999C11.442 9.95152 11.4715 9.93504 11.5068 9.88772C11.5109 9.8741 11.5253 9.82255 11.5352 9.69827C11.5495 9.51727 11.5498 9.26679 11.5498 8.8926V2.06936C11.5498 1.69514 11.5495 1.44469 11.5352 1.2637C11.525 1.13633 11.5104 1.0853 11.5068 1.07327C11.4717 1.02641 11.4418 1.00942 11.3838 1.001ZM3.65039 2.83108C2.18703 2.83108 1.00031 4.0172 1 5.48049C1 6.94405 2.18684 8.13089 3.65039 8.13089H5.59961V2.83108H3.65039ZM12.5498 7.36428C13.3843 7.14338 14 6.38449 14 5.48049C13.9997 4.57666 13.3843 3.81747 12.5498 3.59671V7.36428Z" fill="var(--fill-0, currentColor)"/>
</svg>
