<svg width="16" height="16" viewBox="0 0 14.002 14.002" fill="none" xmlns="http://www.w3.org/2000/svg">
<path id="Union" d="M7.00098 0C10.8674 0.000130333 14.0019 3.13451 14.002 7.00098C14.0018 10.8674 10.8674 14.0018 7.00098 14.002C3.13451 14.0019 0.000130336 10.8674 0 7.00098C5.49683e-05 3.13447 3.13447 5.49667e-05 7.00098 0ZM7.00098 1C3.68675 1.00005 1.00005 3.68675 1 7.00098C1.00013 10.3151 3.6868 13.0019 7.00098 13.002C10.3151 13.0018 13.0018 10.3151 13.002 7.00098C13.0019 3.6868 10.3151 1.00013 7.00098 1ZM5.81348 3.00488C5.98267 2.94962 6.16888 2.98903 6.30176 3.10742C6.43472 3.22629 6.49418 3.4074 6.45801 3.58203C6.41245 3.80148 6.38869 4.02972 6.38867 4.26367C6.38893 6.11524 7.89062 7.61599 9.74219 7.61621C9.97616 7.61621 10.2044 7.59243 10.4238 7.54688C10.5981 7.51086 10.7786 7.57068 10.8975 7.70312C11.0163 7.8361 11.0555 8.02287 11 8.19238C10.4618 9.83519 8.91788 11.0254 7.09277 11.0254C4.82178 11.0251 2.98047 9.18317 2.98047 6.91211C2.98074 5.0873 4.17089 3.543 5.81348 3.00488ZM5.38965 4.31055C4.54137 4.86645 3.98068 5.82382 3.98047 6.91211C3.98047 8.63089 5.37407 10.0251 7.09277 10.0254C8.18152 10.0254 9.13739 9.46295 9.69336 8.61426C7.32761 8.58802 5.41487 6.67654 5.38965 4.31055Z" fill="var(--fill-0, currentColor)"/>
</svg>
