<svg width="16" height="16" viewBox="0 0 15 13" fill="none" xmlns="http://www.w3.org/2000/svg">
<path id="Union" fill-rule="evenodd" clip-rule="evenodd" d="M6 0.5C6 0.223858 5.77614 0 5.5 0H0.5C0.223858 0 0 0.223858 0 0.5V5.5C0 5.77614 0.223858 6 0.5 6H5.5C5.77614 6 6 5.77614 6 5.5V0.5ZM5 5H1V1H5V5ZM14 4.5C14 3.11929 12.8807 2 11.5 2C10.1193 2 9 3.11929 9 4.5C9 5.88071 10.1193 7 11.5 7C12.8807 7 14 5.88071 14 4.5ZM15 4.5C15 6.433 13.433 8 11.5 8C9.567 8 8 6.433 8 4.5C8 2.567 9.567 1 11.5 1C13.433 1 15 2.567 15 4.5ZM6.5 7C6.67563 7 6.83835 7.09256 6.92871 7.24316L9.92871 12.2432C10.0211 12.3975 10.024 12.5895 9.93555 12.7461C9.84679 12.9028 9.68014 13 9.5 13H3.5C3.31986 13 3.15321 12.9028 3.06445 12.7461C2.97598 12.5895 2.97885 12.3975 3.07129 12.2432L6.07129 7.24316L6.1084 7.18945C6.20248 7.07078 6.34622 7 6.5 7ZM8.61719 12L6.5 8.4707L4.38281 12H8.61719Z" fill="var(--fill-0, currentColor)"/>
</svg>
