<svg width="16" height="16" viewBox="0 0 16 16" fill="none" xmlns="http://www.w3.org/2000/svg">
<path fill-rule="evenodd" clip-rule="evenodd" d="M1.5 2C1.22386 2 1 2.22386 1 2.5V7.5C1 7.77614 1.22386 8 1.5 8H6.5C6.77614 8 7 7.77614 7 7.5V2.5C7 2.22386 6.77614 2 6.5 2H1.5ZM2 7V3H6V7H2ZM12.5 4C11.1193 4 10 5.11929 10 6.5C10 7.88071 11.1193 9 12.5 9C13.8807 9 15 7.88071 15 6.5C15 5.11929 13.8807 4 12.5 4ZM9 6.5C9 4.567 10.567 3 12.5 3C14.433 3 16 4.567 16 6.5C16 8.433 14.433 10 12.5 10C10.567 10 9 8.433 9 6.5ZM7.5 9C7.67563 9 7.83838 9.09215 7.92875 9.24275L10.9287 14.2428C11.0214 14.3972 11.0239 14.5896 10.9351 14.7463C10.8463 14.9031 10.6801 15 10.5 15H4.5C4.31986 15 4.15365 14.9031 4.0649 14.7463C3.97615 14.5896 3.97857 14.3972 4.07125 14.2428L7.07125 9.24275C7.16162 9.09215 7.32437 9 7.5 9ZM9.61691 14L7.5 10.4718L5.3831 14H9.61691Z" fill="currentColor"/>
</svg>
