<svg width="16" height="16" viewBox="0 0 13 13" fill="none" xmlns="http://www.w3.org/2000/svg">
<g id="Union">
<mask id="path-1-inside-1_0_3060" fill="white">
<path fill-rule="evenodd" clip-rule="evenodd" d="M12 8H9.32812C8.91618 9.16461 7.80709 10 6.5 10C5.19291 10 4.08382 9.16461 3.67188 8H1V11C1 11.5523 1.44772 12 2 12H11C11.5523 12 12 11.5523 12 11V8ZM12 2V7H9C8.72386 7 8.5066 7.22751 8.43848 7.49512C8.21818 8.36024 7.4337 9 6.5 9C5.5663 9 4.78182 8.36024 4.56152 7.49512C4.4934 7.22751 4.27614 7 4 7H1V2C1 1.44772 1.44772 1 2 1H11C11.5523 1 12 1.44772 12 2ZM0 7V2C0 0.895431 0.895431 0 2 0H11C12.1046 0 13 0.895431 13 2V7V11C13 11.1416 12.9853 11.2797 12.9573 11.413C12.767 12.3194 11.963 13 11 13H2L1.7959 12.9893C1.66349 12.9758 1.53491 12.9495 1.41143 12.9115C0.594127 12.6603 0 11.8997 0 11V7Z"/>
</mask>
<path d="M12 8H13V7H12V8ZM9.32812 8V7H8.62113L8.38536 7.66653L9.32812 8ZM3.67188 8L4.61464 7.66653L4.37887 7H3.67188V8ZM1 8V7H0V8H1ZM12 7V8H13V7H12ZM8.43848 7.49512L9.40755 7.74189L9.40757 7.74183L8.43848 7.49512ZM4.56152 7.49512L3.59243 7.74183L3.59245 7.74189L4.56152 7.49512ZM1 7H0V8H1V7ZM12.9573 11.413L11.9786 11.2075L11.9786 11.2075L12.9573 11.413ZM2 13L1.94744 13.9986L1.9737 14H2V13ZM1.7959 12.9893L1.69503 13.9842L1.71914 13.9866L1.74334 13.9879L1.7959 12.9893ZM1.41143 12.9115L1.70529 11.9557L1.70524 11.9557L1.41143 12.9115ZM12 8V7H9.32812V8V9H12V8ZM9.32812 8L8.38536 7.66653C8.10995 8.44516 7.36922 9 6.5 9V10V11C8.24497 11 9.72242 9.88405 10.2709 8.33347L9.32812 8ZM6.5 10V9C5.63078 9 4.89005 8.44516 4.61464 7.66653L3.67188 8L2.72911 8.33347C3.27758 9.88405 4.75503 11 6.5 11V10ZM3.67188 8V7H1V8V9H3.67188V8ZM1 8H0V11H1H2V8H1ZM1 11H0C0 12.1046 0.895431 13 2 13V12V11H1ZM2 12V13H11V12V11H2V12ZM11 12V13C12.1046 13 13 12.1046 13 11H12H11V12ZM12 11H13V8H12H11V11H12ZM12 7H13V2H12H11V7H12ZM9 7V8H12V7V6H9V7ZM8.43848 7.49512L9.40757 7.74183C9.3975 7.78139 9.37482 7.8307 9.32142 7.88025C9.26251 7.93491 9.15079 8 9 8V7V6C8.12768 6 7.61198 6.68831 7.46939 7.24841L8.43848 7.49512ZM6.5 9V10C7.90173 10 9.0771 9.03956 9.40755 7.74189L8.43848 7.49512L7.4694 7.24835C7.35925 7.68091 6.96566 8 6.5 8V9ZM4.56152 7.49512L3.59245 7.74189C3.9229 9.03956 5.09827 10 6.5 10V9V8C6.03434 8 5.64075 7.68091 5.5306 7.24835L4.56152 7.49512ZM4 7V8C3.84921 8 3.73749 7.93491 3.67858 7.88024C3.62518 7.8307 3.6025 7.78139 3.59243 7.74183L4.56152 7.49512L5.53061 7.24841C5.38802 6.68831 4.87232 6 4 6V7ZM1 7V8H4V7V6H1V7ZM1 2H0V7H1H2V2H1ZM2 1V0C0.89543 0 0 0.895431 0 2H1H2V1ZM11 1V0H2V1V2H11V1ZM12 2H13C13 0.89543 12.1046 0 11 0V1V2H12ZM0 7H1V2H0H-1V7H0ZM0 2H1C1 1.44772 1.44772 1 2 1V0V-1C0.343146 -1 -1 0.343146 -1 2H0ZM2 0V1H11V0V-1H2V0ZM11 0V1C11.5523 1 12 1.44772 12 2H13H14C14 0.343146 12.6569 -1 11 -1V0ZM13 2H12V7H13H14V2H13ZM13 7H12V11H13H14V7H13ZM13 11H12C12 11.0721 11.9925 11.1414 11.9786 11.2075L12.9573 11.413L13.936 11.6185C13.978 11.4181 14 11.2111 14 11H13ZM12.9573 11.413L11.9786 11.2075C11.8836 11.6604 11.4803 12 11 12V13V14C12.4457 14 13.6504 12.9784 13.936 11.6185L12.9573 11.413ZM11 13V12H2V13V14H11V13ZM2 13L2.05256 12.0014L1.84846 11.9906L1.7959 12.9893L1.74334 13.9879L1.94744 13.9986L2 13ZM1.7959 12.9893L1.89677 11.9944C1.8304 11.9876 1.76644 11.9745 1.70529 11.9557L1.41143 12.9115L1.11758 13.8674C1.30338 13.9245 1.49659 13.964 1.69503 13.9842L1.7959 12.9893ZM1.41143 12.9115L1.70524 11.9557C1.29564 11.8298 1 11.4481 1 11H0H-1C-1 12.3513 -0.107381 13.4909 1.11762 13.8674L1.41143 12.9115ZM0 11H1V7H0H-1V11H0Z" fill="var(--stroke-0, currentColor)" mask="url(#path-1-inside-1_0_3060)"/>
</g>
</svg>
