<svg width="16" height="16" viewBox="0 0 16 16" fill="none" xmlns="http://www.w3.org/2000/svg">
<mask id="path-1-inside-1_15595_8896" fill="white">
<path d="M13.6533 1.30664C14.4097 1.38344 15 2.02216 15 2.79883V4.79883L14.9922 4.95215C14.967 5.19975 14.8807 5.42887 14.75 5.62598V11.583C14.75 12.8443 13.5957 13.7498 12.3271 13.75H3.67285C2.40428 13.7499 1.25 12.8443 1.25 11.583V5.62598C1.11932 5.42886 1.03295 5.19974 1.00781 4.95215L1 4.79883V2.79883C1 1.9704 1.67157 1.29883 2.5 1.29883H13.5L13.6533 1.30664ZM13.6533 6.29102L13.5 6.29883H2.5C2.41472 6.29883 2.33139 6.29004 2.25 6.27637V11.583C2.25 12.1625 2.81747 12.7499 3.67285 12.75H12.3271C13.1824 12.7498 13.75 12.1625 13.75 11.583V6.27637C13.718 6.28174 13.686 6.2877 13.6533 6.29102ZM9.19727 8.13965C9.473 8.14009 9.69721 8.36382 9.69727 8.63965C9.69727 8.91568 9.47228 9.13947 9.19629 9.13965H6.80273C6.52682 9.13938 6.30371 8.91563 6.30371 8.63965C6.30377 8.36355 6.5276 8.13965 6.80371 8.13965H9.19727ZM2.5 2.29883C2.22386 2.29883 2 2.52269 2 2.79883V4.79883C2 4.99863 2.11772 5.16993 2.28711 5.25H13.7129C13.8823 5.16993 14 4.99863 14 4.79883V2.79883C14 2.52269 13.7761 2.29883 13.5 2.29883H2.5Z"/>
</mask>
<path d="M13.6533 1.30664L13.7543 0.311755L13.7293 0.309216L13.7042 0.307936L13.6533 1.30664ZM15 2.79883H16V2.79883H15ZM15 4.79883L15.9987 4.84972L16 4.82429V4.79883H15ZM14.9922 4.95215L15.9871 5.05316L15.9896 5.02815L15.9909 5.00304L14.9922 4.95215ZM14.75 5.62598L13.9166 5.07338L13.75 5.32458V5.62598H14.75ZM12.3271 13.75V14.75H12.3273L12.3271 13.75ZM3.67285 13.75L3.67277 14.75H3.67285V13.75ZM1.25 5.62598H2.25V5.3246L2.08347 5.07341L1.25 5.62598ZM1.00781 4.95215L0.00910819 5.00304L0.0103876 5.02815L0.0129271 5.05316L1.00781 4.95215ZM1 4.79883H0V4.82429L0.00129569 4.84972L1 4.79883ZM1 2.79883H0V2.79883H1ZM2.5 1.29883V0.298828V1.29883ZM13.5 1.29883L13.5509 0.300124L13.5255 0.298828H13.5V1.29883ZM13.6533 6.29102L13.7042 7.28972L13.7293 7.28844L13.7543 7.2859L13.6533 6.29102ZM13.5 6.29883V7.29883H13.5255L13.5509 7.29753L13.5 6.29883ZM2.5 6.29883L2.5 7.29883H2.5V6.29883ZM2.25 6.27637L2.41565 5.29018L1.25 5.09439V6.27637H2.25ZM3.67285 12.75L3.67273 13.75H3.67285V12.75ZM12.3271 12.75V13.75H12.3274L12.3271 12.75ZM13.75 6.27637H14.75V5.09441L13.5844 5.29018L13.75 6.27637ZM9.19727 8.13965L9.19886 7.13965H9.19727V8.13965ZM9.69727 8.63965H10.6973V8.63945L9.69727 8.63965ZM9.19629 9.13965V10.1396H9.19692L9.19629 9.13965ZM6.80273 9.13965L6.80178 10.1396H6.80273V9.13965ZM6.30371 8.63965L5.30371 8.63944V8.63965L6.30371 8.63965ZM6.80371 8.13965V7.13965H6.80371L6.80371 8.13965ZM2.5 2.29883V1.29883V1.29883V2.29883ZM2 2.79883L1 2.79883V2.79883H2ZM2 4.79883H1H1H2ZM2.28711 5.25L1.85975 6.15408L2.06267 6.25H2.28711V5.25ZM13.7129 5.25V6.25H13.9373L14.1402 6.15408L13.7129 5.25ZM14 4.79883H15V4.79883H14ZM14 2.79883H15V2.79883L14 2.79883ZM13.5 2.29883V1.29883V1.29883V2.29883ZM13.6533 1.30664L13.5523 2.30153C13.8034 2.32702 14 2.54062 14 2.79883H15H16C16 1.50371 15.016 0.439852 13.7543 0.311755L13.6533 1.30664ZM15 2.79883H14V4.79883H15H16V2.79883H15ZM15 4.79883L14.0013 4.74794L13.9935 4.90126L14.9922 4.95215L15.9909 5.00304L15.9987 4.84972L15 4.79883ZM14.9922 4.95215L13.9973 4.85114C13.9893 4.92972 13.9619 5.00495 13.9166 5.07338L14.75 5.62598L15.5834 6.17857C15.7995 5.85279 15.9448 5.46977 15.9871 5.05316L14.9922 4.95215ZM14.75 5.62598H13.75V11.583H14.75H15.75V5.62598H14.75ZM14.75 11.583H13.75C13.75 12.1546 13.1915 12.7499 12.327 12.75L12.3271 13.75L12.3273 14.75C13.9998 14.7498 15.75 13.5339 15.75 11.583H14.75ZM12.3271 13.75V12.75H3.67285V13.75V14.75H12.3271V13.75ZM3.67285 13.75L3.67294 12.75C2.80846 12.7499 2.25 12.1547 2.25 11.583H1.25H0.25C0.25 13.5339 2.0001 14.7499 3.67277 14.75L3.67285 13.75ZM1.25 11.583H2.25V5.62598H1.25H0.25V11.583H1.25ZM1.25 5.62598L2.08347 5.07341C2.03807 5.00493 2.01067 4.9297 2.0027 4.85114L1.00781 4.95215L0.0129271 5.05316C0.0552272 5.46979 0.200563 5.85278 0.41653 6.17854L1.25 5.62598ZM1.00781 4.95215L2.00652 4.90126L1.9987 4.74794L1 4.79883L0.00129569 4.84972L0.00910819 5.00304L1.00781 4.95215ZM1 4.79883H2V2.79883H1H0V4.79883H1ZM1 2.79883H2C2 2.52269 2.22386 2.29883 2.5 2.29883V1.29883V0.298828C1.11929 0.298828 5.96046e-08 1.41812 0 2.79883H1ZM2.5 1.29883V2.29883H13.5V1.29883V0.298828H2.5V1.29883ZM13.5 1.29883L13.4491 2.29753L13.6024 2.30534L13.6533 1.30664L13.7042 0.307936L13.5509 0.300124L13.5 1.29883ZM13.6533 6.29102L13.6024 5.29231L13.4491 5.30012L13.5 6.29883L13.5509 7.29753L13.7042 7.28972L13.6533 6.29102ZM13.5 6.29883V5.29883H2.5V6.29883V7.29883H13.5V6.29883ZM2.5 6.29883L2.5 5.29883C2.48312 5.29883 2.45669 5.29708 2.41565 5.29018L2.25 6.27637L2.08435 7.26255C2.20609 7.283 2.34632 7.29883 2.5 7.29883L2.5 6.29883ZM2.25 6.27637H1.25V11.583H2.25H3.25V6.27637H2.25ZM2.25 11.583H1.25C1.25 12.8297 2.38752 13.7498 3.67273 13.75L3.67285 12.75L3.67297 11.75C3.47837 11.75 3.36045 11.6852 3.3019 11.6336C3.23518 11.5748 3.25 11.5441 3.25 11.583H2.25ZM3.67285 12.75V13.75H12.3271V12.75V11.75H3.67285V12.75ZM12.3271 12.75L12.3274 13.75C13.6123 13.7497 14.75 12.8297 14.75 11.583H13.75H12.75C12.75 11.544 12.7649 11.5747 12.6981 11.6335C12.6395 11.6852 12.5215 11.75 12.3269 11.75L12.3271 12.75ZM13.75 11.583H14.75V6.27637H13.75H12.75V11.583H13.75ZM13.75 6.27637L13.5844 5.29018C13.579 5.29108 13.5739 5.29195 13.5696 5.29269C13.5646 5.29354 13.5619 5.294 13.5579 5.29468C13.5508 5.29589 13.5468 5.29656 13.5438 5.29704C13.5377 5.29802 13.5422 5.29715 13.5523 5.29613L13.6533 6.29102L13.7543 7.2859C13.8291 7.27831 13.9076 7.2639 13.9156 7.26255L13.75 6.27637ZM9.19727 8.13965L9.19567 9.13965C8.92175 9.13921 8.69732 8.91753 8.69727 8.63985L9.69727 8.63965L10.6973 8.63945C10.6971 7.81012 10.0243 7.14096 9.19886 7.13965L9.19727 8.13965ZM9.69727 8.63965H8.69727C8.69727 8.36023 8.92303 8.13982 9.19565 8.13965L9.19629 9.13965L9.19692 10.1396C10.0215 10.1391 10.6973 9.47114 10.6973 8.63965H9.69727ZM9.19629 9.13965V8.13965H6.80273V9.13965V10.1396H9.19629V9.13965ZM6.80273 9.13965L6.80369 8.13965C7.0809 8.13991 7.30371 8.36494 7.30371 8.63965L6.30371 8.63965L5.30371 8.63965C5.30371 9.46632 5.97273 10.1389 6.80178 10.1396L6.80273 9.13965ZM6.30371 8.63965L7.30371 8.63985C7.30365 8.91568 7.08009 9.13965 6.80371 9.13965L6.80371 8.13965L6.80371 7.13965C5.97512 7.13965 5.30388 7.81143 5.30371 8.63944L6.30371 8.63965ZM6.80371 8.13965V9.13965H9.19727V8.13965V7.13965H6.80371V8.13965ZM2.5 2.29883V1.29883C1.67157 1.29883 1 1.9704 1 2.79883L2 2.79883L3 2.79883C3 3.07497 2.77614 3.29883 2.5 3.29883V2.29883ZM2 2.79883H1V4.79883H2H3V2.79883H2ZM2 4.79883H1C1 5.40413 1.35801 5.91691 1.85975 6.15408L2.28711 5.25L2.71446 4.34592C2.87743 4.42295 3 4.59312 3 4.79883H2ZM2.28711 5.25V6.25H13.7129V5.25V4.25H2.28711V5.25ZM13.7129 5.25L14.1402 6.15408C14.642 5.91691 15 5.40413 15 4.79883H14H13C13 4.59312 13.1226 4.42295 13.2855 4.34592L13.7129 5.25ZM14 4.79883H15V2.79883H14H13V4.79883H14ZM14 2.79883L15 2.79883C15 1.9704 14.3284 1.29883 13.5 1.29883V2.29883V3.29883C13.2239 3.29883 13 3.07497 13 2.79883L14 2.79883ZM13.5 2.29883V1.29883H2.5V2.29883V3.29883H13.5V2.29883Z" fill="currentColor" mask="url(#path-1-inside-1_15595_8896)"/>
</svg>
