<svg width="16" height="16" viewBox="0 0 14 12.4512" fill="none" xmlns="http://www.w3.org/2000/svg">
<g id="Union">
<mask id="path-1-inside-1_0_3802" fill="white">
<path d="M12.6533 0.0078125C13.4097 0.0846097 14 0.723336 14 1.5V3.5L13.9922 3.65332C13.967 3.90092 13.8807 4.13004 13.75 4.32715V10.2842C13.75 11.5454 12.5957 12.451 11.3271 12.4512H2.67285C1.40428 12.4511 0.25 11.5455 0.25 10.2842V4.32715C0.119317 4.13003 0.0329505 3.90091 0.0078125 3.65332L0 3.5V1.5C3.2213e-08 0.671573 0.671573 8.05319e-09 1.5 0H12.5L12.6533 0.0078125ZM12.6533 4.99219L12.5 5H1.5C1.41472 5 1.33139 4.99121 1.25 4.97754V10.2842C1.25 10.8637 1.81747 11.4511 2.67285 11.4512H11.3271C12.1824 11.451 12.75 10.8636 12.75 10.2842V4.97754C12.718 4.98291 12.686 4.98887 12.6533 4.99219ZM8.19727 6.84082C8.473 6.84126 8.69721 7.065 8.69727 7.34082C8.69727 7.61685 8.47228 7.84065 8.19629 7.84082H5.80273C5.52682 7.84056 5.30371 7.6168 5.30371 7.34082C5.30377 7.06473 5.5276 6.84082 5.80371 6.84082H8.19727ZM1.5 1C1.22386 1 1 1.22386 1 1.5V3.5C1 3.6998 1.11772 3.8711 1.28711 3.95117H12.7129C12.8823 3.8711 13 3.6998 13 3.5V1.5C13 1.22386 12.7761 1 12.5 1H1.5Z"/>
</mask>
<path d="M12.6533 0.0078125L12.7543 -0.987073L12.7293 -0.989612L12.7042 -0.990892L12.6533 0.0078125ZM14 1.5H15V1.5H14ZM14 3.5L14.9987 3.55089L15 3.52546V3.5H14ZM13.9922 3.65332L14.9871 3.75433L14.9896 3.72932L14.9909 3.70421L13.9922 3.65332ZM13.75 4.32715L12.9166 3.77455L12.75 4.02575V4.32715H13.75ZM11.3271 12.4512V13.4512H11.3273L11.3271 12.4512ZM2.67285 12.4512L2.67277 13.4512H2.67285V12.4512ZM0.25 4.32715H1.25V4.02577L1.08347 3.77458L0.25 4.32715ZM0.0078125 3.65332L-0.990892 3.70421L-0.989612 3.72932L-0.987073 3.75433L0.0078125 3.65332ZM0 3.5H-1V3.52546L-0.998704 3.55089L0 3.5ZM0 1.5H-1V1.5H0ZM1.5 0V-1V0ZM12.5 0L12.5509 -0.998704L12.5255 -1H12.5V0ZM12.6533 4.99219L12.7042 5.99089L12.7293 5.98961L12.7543 5.98707L12.6533 4.99219ZM12.5 5V6H12.5255L12.5509 5.9987L12.5 5ZM1.5 5L1.5 6H1.5V5ZM1.25 4.97754L1.41565 3.99135L0.25 3.79556V4.97754H1.25ZM2.67285 11.4512L2.67273 12.4512H2.67285V11.4512ZM11.3271 11.4512V12.4512H11.3274L11.3271 11.4512ZM12.75 4.97754H13.75V3.79558L12.5844 3.99135L12.75 4.97754ZM8.19727 6.84082L8.19886 5.84082H8.19727V6.84082ZM8.69727 7.34082H9.69727V7.34062L8.69727 7.34082ZM8.19629 7.84082V8.84082H8.19692L8.19629 7.84082ZM5.80273 7.84082L5.80178 8.84082H5.80273V7.84082ZM5.30371 7.34082L4.30371 7.34062V7.34082L5.30371 7.34082ZM5.80371 6.84082V5.84082H5.80371L5.80371 6.84082ZM1.5 1V0V0V1ZM1 1.5L0 1.5V1.5H1ZM1 3.5H0H0H1ZM1.28711 3.95117L0.859755 4.85526L1.06267 4.95117H1.28711V3.95117ZM12.7129 3.95117V4.95117H12.9373L13.1402 4.85526L12.7129 3.95117ZM13 3.5H14V3.5H13ZM13 1.5H14V1.5L13 1.5ZM12.5 1V0V0V1ZM12.6533 0.0078125L12.5523 1.0027C12.8034 1.0282 13 1.2418 13 1.5H14H15C15 0.204877 14.016 -0.858976 12.7543 -0.987073L12.6533 0.0078125ZM14 1.5H13V3.5H14H15V1.5H14ZM14 3.5L13.0013 3.44911L12.9935 3.60243L13.9922 3.65332L14.9909 3.70421L14.9987 3.55089L14 3.5ZM13.9922 3.65332L12.9973 3.55231C12.9893 3.6309 12.9619 3.70612 12.9166 3.77455L13.75 4.32715L14.5834 4.87975C14.7995 4.55396 14.9448 4.17094 14.9871 3.75433L13.9922 3.65332ZM13.75 4.32715H12.75V10.2842H13.75H14.75V4.32715H13.75ZM13.75 10.2842H12.75C12.75 10.8558 12.1915 11.451 11.327 11.4512L11.3271 12.4512L11.3273 13.4512C12.9998 13.4509 14.75 12.2351 14.75 10.2842H13.75ZM11.3271 12.4512V11.4512H2.67285V12.4512V13.4512H11.3271V12.4512ZM2.67285 12.4512L2.67294 11.4512C1.80846 11.4511 1.25 10.8559 1.25 10.2842H0.25H-0.75C-0.75 12.2351 1.0001 13.451 2.67277 13.4512L2.67285 12.4512ZM0.25 10.2842H1.25V4.32715H0.25H-0.75V10.2842H0.25ZM0.25 4.32715L1.08347 3.77458C1.03807 3.7061 1.01067 3.63087 1.0027 3.55231L0.0078125 3.65332L-0.987073 3.75433C-0.944773 4.17096 -0.799437 4.55396 -0.58347 4.87971L0.25 4.32715ZM0.0078125 3.65332L1.00652 3.60243L0.998704 3.44911L0 3.5L-0.998704 3.55089L-0.990892 3.70421L0.0078125 3.65332ZM0 3.5H1V1.5H0H-1V3.5H0ZM0 1.5H1C1 1.22386 1.22386 1 1.5 1V0V-1C0.119288 -1 -1 0.119288 -1 1.5H0ZM1.5 0V1H12.5V0V-1H1.5V0ZM12.5 0L12.4491 0.998704L12.6024 1.00652L12.6533 0.0078125L12.7042 -0.990892L12.5509 -0.998704L12.5 0ZM12.6533 4.99219L12.6024 3.99348L12.4491 4.0013L12.5 5L12.5509 5.9987L12.7042 5.99089L12.6533 4.99219ZM12.5 5V4H1.5V5V6H12.5V5ZM1.5 5L1.5 4C1.48312 4 1.45669 3.99825 1.41565 3.99135L1.25 4.97754L1.08435 5.96372C1.20609 5.98417 1.34632 6 1.5 6L1.5 5ZM1.25 4.97754H0.25V10.2842H1.25H2.25V4.97754H1.25ZM1.25 10.2842H0.25C0.25 11.5309 1.38752 12.451 2.67273 12.4512L2.67285 11.4512L2.67297 10.4512C2.47837 10.4511 2.36045 10.3864 2.3019 10.3348C2.23518 10.276 2.25 10.2453 2.25 10.2842H1.25ZM2.67285 11.4512V12.4512H11.3271V11.4512V10.4512H2.67285V11.4512ZM11.3271 11.4512L11.3274 12.4512C12.6123 12.4509 13.75 11.5309 13.75 10.2842H12.75H11.75C11.75 10.2452 11.7649 10.2759 11.6981 10.3347C11.6395 10.3864 11.5215 10.4511 11.3269 10.4512L11.3271 11.4512ZM12.75 10.2842H13.75V4.97754H12.75H11.75V10.2842H12.75ZM12.75 4.97754L12.5844 3.99135C12.579 3.99225 12.5739 3.99312 12.5696 3.99386C12.5646 3.99471 12.5619 3.99518 12.5579 3.99585C12.5508 3.99706 12.5468 3.99773 12.5438 3.99821C12.5377 3.99919 12.5422 3.99833 12.5523 3.9973L12.6533 4.99219L12.7543 5.98707C12.8291 5.97949 12.9076 5.96507 12.9156 5.96373L12.75 4.97754ZM8.19727 6.84082L8.19567 7.84082C7.92175 7.84038 7.69732 7.6187 7.69727 7.34102L8.69727 7.34082L9.69727 7.34062C9.6971 6.51129 9.02425 5.84213 8.19886 5.84082L8.19727 6.84082ZM8.69727 7.34082H7.69727C7.69727 7.0614 7.92303 6.84099 8.19565 6.84082L8.19629 7.84082L8.19692 8.84082C9.02153 8.8403 9.69727 8.17231 9.69727 7.34082H8.69727ZM8.19629 7.84082V6.84082H5.80273V7.84082V8.84082H8.19629V7.84082ZM5.80273 7.84082L5.80369 6.84082C6.0809 6.84109 6.30371 7.06611 6.30371 7.34082L5.30371 7.34082L4.30371 7.34082C4.30371 8.16749 4.97273 8.84003 5.80178 8.84082L5.80273 7.84082ZM5.30371 7.34082L6.30371 7.34102C6.30365 7.61685 6.08009 7.84082 5.80371 7.84082L5.80371 6.84082L5.80371 5.84082C4.97512 5.84082 4.30388 6.5126 4.30371 7.34062L5.30371 7.34082ZM5.80371 6.84082V7.84082H8.19727V6.84082V5.84082H5.80371V6.84082ZM1.5 1V0C0.671573 2.41598e-08 9.66383e-08 0.671573 0 1.5L1 1.5L2 1.5C2 1.77614 1.77614 2 1.5 2V1ZM1 1.5H0V3.5H1H2V1.5H1ZM1 3.5H0C7.06111e-08 4.1053 0.358011 4.61808 0.859755 4.85526L1.28711 3.95117L1.71446 3.04709C1.87743 3.12412 2 3.29429 2 3.5H1ZM1.28711 3.95117V4.95117H12.7129V3.95117V2.95117H1.28711V3.95117ZM12.7129 3.95117L13.1402 4.85526C13.642 4.61809 14 4.1053 14 3.5H13H12C12 3.29429 12.1226 3.12412 12.2855 3.04709L12.7129 3.95117ZM13 3.5H14V1.5H13H12V3.5H13ZM13 1.5L14 1.5C14 0.671573 13.3284 1.93277e-07 12.5 0V1V2C12.2239 2 12 1.77614 12 1.5L13 1.5ZM12.5 1V0H1.5V1V2H12.5V1Z" fill="var(--stroke-0, currentColor)" mask="url(#path-1-inside-1_0_3802)"/>
</g>
</svg>
