<svg width="16" height="16" viewBox="0 0 7 7.05942" fill="none" xmlns="http://www.w3.org/2000/svg">
<path id="Union" d="M0.5 0.0594191C0.622575 -0.0631562 6.43951 0.0368908 6.59766 0.0682081C6.60738 0.070132 6.61646 0.0745181 6.62598 0.0769972C6.67894 0.0907867 6.73035 0.111972 6.77734 0.143403C6.91148 0.233077 7 0.385955 7 0.559419V6.55942C6.99983 6.83541 6.77603 7.05942 6.5 7.05942C6.22397 7.05942 6.00017 6.83541 6 6.55942V1.76645L0.853516 6.91293C0.658294 7.10798 0.341706 7.10798 0.146484 6.91293C-0.0487238 6.71773 -0.0486165 6.40118 0.146484 6.2059L5.29297 1.05942H0.5C0.223965 1.05942 0.000173804 0.835414 0 0.559419C0 0.283277 0.223858 0.0594191 0.5 0.0594191Z" fill="var(--fill-0, currentColor)"/>
</svg>
