<svg width="16" height="16" viewBox="0 0 16 16" fill="none" xmlns="http://www.w3.org/2000/svg">
<path d="M14.0104 7.64664C14.0722 7.70847 14.1127 7.78296 14.1354 7.86139C14.1482 7.9056 14.1568 7.95186 14.1568 8.00019C14.1568 8.0542 14.1457 8.10545 14.1299 8.15418C14.1257 8.16705 14.1227 8.18029 14.1174 8.19285C14.0921 8.25331 14.056 8.30809 14.0104 8.35374L9.01025 13.3539C8.81501 13.5489 8.49835 13.549 8.30314 13.3539C8.10794 13.1587 8.10807 12.8421 8.30314 12.6468L12.4498 8.50014H2.34315C2.06704 8.50009 1.8432 8.2763 1.8432 8.00019C1.84322 7.72409 2.06706 7.50029 2.34315 7.50024H12.4498L8.30314 3.35359C8.10795 3.15833 8.10793 2.84173 8.30314 2.64648C8.49839 2.45124 8.81498 2.45128 9.01025 2.64648L14.0104 7.64664Z" fill="currentColor"/>
</svg>
