<svg width="16" height="16" viewBox="0 0 8.99992 8.99993" fill="none" xmlns="http://www.w3.org/2000/svg">
<path id="Union" d="M8.49992 0C8.58734 2.33823e-05 8.66867 0.0240314 8.74015 0.0634766C8.78047 0.085687 8.81926 0.112309 8.85344 0.146484C8.89163 0.184676 8.92003 0.228756 8.94328 0.274414C8.94942 0.286473 8.95666 0.297948 8.96183 0.310547C8.98669 0.371195 8.9999 0.435454 8.99992 0.5V7.57129C8.99978 7.84727 8.77591 8.07122 8.49992 8.07129C8.22386 8.07129 8.00006 7.84731 7.99992 7.57129V1.70703L0.853435 8.85352C0.658168 9.04872 0.341645 9.04876 0.146404 8.85352C-0.0488143 8.65827 -0.0487883 8.34174 0.146404 8.14648L7.29289 1H1.42863C1.15254 0.999954 0.928651 0.776096 0.92863 0.5C0.92863 0.223886 1.15253 4.61106e-05 1.42863 0H8.49992Z" fill="var(--fill-0, currentColor)"/>
</svg>
