<svg width="16" height="16" viewBox="0 0 10.9998 11.3135" fill="none" xmlns="http://www.w3.org/2000/svg">
<path id="Union" d="M5.51553 0.000976562C5.53614 0.00164242 5.55663 0.00363668 5.57705 0.00683594C5.5906 0.00893865 5.60392 0.0114804 5.61709 0.0146484C5.632 0.018247 5.64644 0.0233368 5.66103 0.0283203C5.67555 0.0332787 5.69012 0.037723 5.704 0.0439453C5.71647 0.0495267 5.72807 0.0568258 5.74014 0.0634766C5.75542 0.0719041 5.77081 0.079917 5.78506 0.0898438C5.80899 0.10652 5.83207 0.125156 5.85342 0.146484L10.8534 5.14648C11.0486 5.34171 11.0486 5.65824 10.8534 5.85352C10.6582 6.04878 10.3416 6.04878 10.1464 5.85352L5.9999 1.70703V10.8135C5.9999 11.0896 5.77604 11.3135 5.4999 11.3135C5.22376 11.3135 4.9999 11.0896 4.9999 10.8135V1.70703L0.853417 5.85352C0.658155 6.04878 0.341648 6.04878 0.146386 5.85352C-0.0487546 5.65824 -0.0488357 5.34171 0.146386 5.14648L5.14639 0.146484L5.22451 0.0820312C5.24986 0.0653025 5.27625 0.0506801 5.30361 0.0390625C5.31077 0.0360091 5.31874 0.0349508 5.32607 0.0322266C5.34608 0.0248282 5.36599 0.0174453 5.38662 0.0126953C5.39938 0.00974086 5.41257 0.00879272 5.42568 0.00683594C5.44582 0.00384703 5.46592 0.00150477 5.48623 0.000976562C5.49078 0.000854238 5.49532 0 5.4999 0C5.50514 0 5.51033 0.000816823 5.51553 0.000976562Z" fill="var(--fill-0, currentColor)"/>
</svg>
