<svg width="16" height="16" viewBox="0 0 10.9999 11.3134" fill="none" xmlns="http://www.w3.org/2000/svg">
<path id="Union" d="M5.49996 0C5.7761 0 5.99996 0.223858 5.99996 0.5V9.60645L10.1464 5.45996C10.3417 5.2647 10.6582 5.2647 10.8535 5.45996C11.0487 5.65522 11.0487 5.97173 10.8535 6.16699L5.85348 11.167C5.81941 11.2011 5.78036 11.2268 5.7402 11.249C5.69593 11.2735 5.6488 11.2936 5.59762 11.3037C5.53286 11.3166 5.46607 11.3167 5.40133 11.3037C5.3502 11.2935 5.30295 11.2736 5.25875 11.249C5.21887 11.2269 5.1803 11.2008 5.14645 11.167L0.146447 6.16699C-0.0488155 5.97173 -0.0488155 5.65522 0.146447 5.45996C0.341709 5.2647 0.658216 5.2647 0.853478 5.45996L4.99996 9.60645V0.5C4.99996 0.223858 5.22382 0 5.49996 0Z" fill="var(--fill-0, currentColor)"/>
</svg>
