<svg width="16" height="16" viewBox="0 0 7 7.05941" fill="none" xmlns="http://www.w3.org/2000/svg">
<path id="Union" d="M0.5 0.0594127C0.622568 -0.0631548 6.43952 0.0368962 6.59766 0.0682018C6.60738 0.0701245 6.61647 0.0745133 6.62598 0.0769909C6.70919 0.0986482 6.78831 0.140695 6.85352 0.205897C6.88737 0.239767 6.91344 0.278306 6.93555 0.318202C6.96007 0.362416 6.98002 0.409642 6.99023 0.46078C6.99674 0.493309 7.00001 0.526363 7 0.559413V6.55941C6.99991 6.83548 6.77609 7.05941 6.5 7.05941C6.22391 7.05941 6.00009 6.83548 6 6.55941V1.76644L0.853516 6.91293C0.658274 7.10808 0.341726 7.10808 0.146484 6.91293C-0.0487501 6.71769 -0.0486954 6.40117 0.146484 6.2059L5.29297 1.05941H0.5C0.223912 1.05941 8.86929e-05 0.83548 0 0.559413C0 0.28327 0.223858 0.0594127 0.5 0.0594127Z" fill="var(--fill-0, currentColor)"/>
</svg>
