<svg width="16" height="16" viewBox="0 0 8.99995 9.05928" fill="none" xmlns="http://www.w3.org/2000/svg">
<path id="Union" d="M1.42866 0.0594655C1.55129 -0.0631665 8.43939 0.0368515 8.5976 0.0682546L8.60053 0.0692311C8.62956 0.0751869 8.65755 0.0838605 8.68452 0.0946218C8.68884 0.0963408 8.69292 0.0986366 8.69721 0.100481C8.72283 0.111553 8.74726 0.124518 8.77045 0.139544C8.77417 0.141946 8.77753 0.144846 8.7812 0.147356C8.80365 0.162768 8.82506 0.179358 8.84467 0.198137C8.84741 0.200752 8.85077 0.203261 8.85346 0.20595C8.85673 0.209226 8.85909 0.213349 8.86225 0.216692C8.87817 0.233562 8.89272 0.251449 8.9062 0.270403C8.91168 0.278108 8.91682 0.285905 8.92182 0.293841C8.934 0.313198 8.94456 0.333367 8.95405 0.354387C8.95729 0.361594 8.96092 0.36855 8.96381 0.375872C8.98629 0.432765 8.99995 0.494626 8.99995 0.559466V7.63075C8.99966 7.90651 8.77571 8.13051 8.49995 8.13075C8.22398 8.13075 8.00023 7.90666 7.99995 7.63075V1.7665L0.853461 8.91298C0.658285 9.10812 0.341702 9.10797 0.14643 8.91298C-0.0488212 8.71773 -0.0487986 8.40121 0.14643 8.20595L7.29291 1.05947H1.42866C1.15261 1.05947 0.928818 0.83547 0.928656 0.559466C0.928656 0.283323 1.15251 0.0594655 1.42866 0.0594655Z" fill="var(--fill-0, currentColor)"/>
</svg>
