<svg width="16" height="16" viewBox="0 0 8.99995 9.05931" fill="none" xmlns="http://www.w3.org/2000/svg">
<path id="Union" d="M1.42866 0.0594346C1.55125 -0.0631596 8.43944 0.0368777 8.5976 0.0682237L8.60053 0.0692002C8.62914 0.0750596 8.65694 0.0830864 8.68354 0.0936143C8.69704 0.0989311 8.70952 0.106609 8.7226 0.113146C8.73647 0.120097 8.75053 0.126463 8.76362 0.13463C8.77408 0.14114 8.78383 0.148758 8.79389 0.156114C8.8115 0.169001 8.82795 0.183079 8.8437 0.198106C8.84665 0.20092 8.85056 0.203019 8.85346 0.205919C8.85674 0.209194 8.85909 0.213319 8.86225 0.216661C8.87818 0.233526 8.89272 0.251423 8.9062 0.270372C8.91169 0.278076 8.91682 0.285875 8.92182 0.29381C8.93401 0.313165 8.94456 0.333338 8.95405 0.354356C8.9573 0.361563 8.96092 0.368519 8.96382 0.375841C8.98633 0.432778 8.99995 0.494535 8.99995 0.559435V7.63072C8.99974 7.90658 8.77581 8.13055 8.49995 8.13072C8.22393 8.13072 8.00016 7.90669 7.99995 7.63072V1.76647L0.853464 8.91295C0.658244 9.10814 0.341696 9.10807 0.146432 8.91295C-0.0488203 8.7177 -0.0488012 8.40118 0.146432 8.20592L7.29292 1.05943H1.42866C1.15257 1.05943 0.928748 0.835502 0.928659 0.559435C0.928659 0.283292 1.15252 0.0594346 1.42866 0.0594346Z" fill="var(--fill-0, currentColor)"/>
</svg>
