<svg width="16" height="16" viewBox="0 0 12 14" fill="none" xmlns="http://www.w3.org/2000/svg">
<path id="Union" d="M9 0C10.6569 0 12 1.34315 12 3V11.5C12 12.8807 10.8807 14 9.5 14H2.5C1.11929 14 4.0266e-08 12.8807 0 11.5V2.5C0 1.11929 1.11929 4.83192e-08 2.5 0H9ZM2.5 1C1.67157 1 1 1.67157 1 2.5V11.5C1 12.3284 1.67157 13 2.5 13H9.5C10.3284 13 11 12.3284 11 11.5V3C11 1.89543 10.1046 1 9 1H2.5ZM8.75 9.5C9.02614 9.5 9.25 9.72386 9.25 10C9.25 10.2761 9.02614 10.5 8.75 10.5H3.25C2.97386 10.5 2.75 10.2761 2.75 10C2.75 9.72386 2.97386 9.5 3.25 9.5H8.75ZM8.75 6.5C9.02614 6.5 9.25 6.72386 9.25 7C9.25 7.27614 9.02614 7.5 8.75 7.5H3.25C2.97386 7.5 2.75 7.27614 2.75 7C2.75 6.72386 2.97386 6.5 3.25 6.5H8.75ZM8.75 3.5C9.02614 3.5 9.25 3.72386 9.25 4C9.25 4.27614 9.02614 4.5 8.75 4.5H3.25C2.97386 4.5 2.75 4.27614 2.75 4C2.75 3.72386 2.97386 3.5 3.25 3.5H8.75Z" fill="var(--fill-0, currentColor)"/>
</svg>
