<svg width="16" height="16" viewBox="0 0 12 15.25" fill="none" xmlns="http://www.w3.org/2000/svg">
<path id="Union" d="M6 0C6.93178 0 7.71237 0.637645 7.93457 1.5H8.125C8.6591 1.5 9.12094 1.80511 9.34863 2.25H9.5C10.8807 2.25 12 3.36929 12 4.75V12.75C12 14.1307 10.8807 15.25 9.5 15.25H2.5C1.20566 15.25 0.140824 14.2664 0.0126953 13.0059L0 12.75V4.75C1.28853e-07 3.36929 1.11929 2.25 2.5 2.25H2.65137C2.87906 1.80511 3.3409 1.5 3.875 1.5H4.06543C4.28763 0.637645 5.06822 0 6 0ZM2.5 3.25C1.67157 3.25 1 3.92157 1 4.75V12.75L1.00781 12.9033C1.08461 13.6597 1.72334 14.25 2.5 14.25H9.5C10.3284 14.25 11 13.5784 11 12.75V4.75C11 3.92157 10.3284 3.25 9.5 3.25H9.44727C9.28395 3.827 8.7543 4.25 8.125 4.25H3.875C3.2457 4.25 2.71605 3.827 2.55273 3.25H2.5ZM4.59473 9.95801C4.75588 9.73431 5.0679 9.68295 5.29199 9.84375C5.516 10.0048 5.56697 10.3178 5.40625 10.542L3.91992 12.6143C3.83178 12.7371 3.69193 12.8128 3.54102 12.8213C3.39002 12.8296 3.24286 12.7695 3.1416 12.6572L2.26367 11.6816C2.07931 11.4764 2.09582 11.1602 2.30078 10.9756C2.50604 10.7911 2.82316 10.8075 3.00781 11.0127L3.46875 11.5264L4.59473 9.95801ZM9.17578 10.75C9.45192 10.75 9.67578 10.9739 9.67578 11.25C9.67578 11.5261 9.45192 11.75 9.17578 11.75H6.82422C6.54808 11.75 6.32422 11.5261 6.32422 11.25C6.32422 10.9739 6.54808 10.75 6.82422 10.75H9.17578ZM4.59473 6.45801C4.75588 6.23431 5.0679 6.18295 5.29199 6.34375C5.516 6.50476 5.56697 6.81776 5.40625 7.04199L3.91992 9.11426C3.83178 9.23708 3.69193 9.31277 3.54102 9.32129C3.39002 9.32963 3.24286 9.26952 3.1416 9.15723L2.26367 8.18164C2.07931 7.97644 2.09582 7.66024 2.30078 7.47559C2.50604 7.29111 2.82316 7.30753 3.00781 7.5127L3.46875 8.02637L4.59473 6.45801ZM9.17578 7.0498C9.45192 7.0498 9.67578 7.27366 9.67578 7.5498C9.67578 7.82595 9.45192 8.0498 9.17578 8.0498H6.82422C6.54808 8.0498 6.32422 7.82595 6.32422 7.5498C6.32422 7.27366 6.54808 7.0498 6.82422 7.0498H9.17578ZM6 1C5.44764 1 5 1.44764 5 2C5 2.27614 4.77614 2.5 4.5 2.5H3.875C3.66789 2.5 3.5 2.66789 3.5 2.875C3.5 3.08211 3.66789 3.25 3.875 3.25H8.125C8.33211 3.25 8.5 3.08211 8.5 2.875C8.5 2.66789 8.33211 2.5 8.125 2.5H7.5C7.22386 2.5 7 2.27614 7 2C7 1.44764 6.55236 1 6 1Z" fill="var(--fill-0, currentColor)"/>
</svg>
