<svg width="16" height="16" viewBox="0 0 16 16" fill="none" xmlns="http://www.w3.org/2000/svg">
<g clip-path="url(#clip0_175_48024)">
<path fill-rule="evenodd" clip-rule="evenodd" d="M4.87966 1.39739C6.3698 0.69319 8.05431 0.513789 9.65933 0.888357C11.2643 1.26292 12.6955 2.16943 13.72 3.46046L13.72 3.46047C14.7445 4.75151 15.3022 6.35115 15.3022 7.99933V7.99935V8.6796C15.3022 9.35343 15.0345 9.9997 14.5581 10.4762C14.0816 10.9526 13.4353 11.2204 12.7615 11.2204C12.0876 11.2204 11.4414 10.9526 10.9649 10.4762C10.807 10.3182 10.6719 10.1416 10.562 9.95145C9.97353 10.7227 9.04475 11.2204 7.99976 11.2204C6.22085 11.2204 4.77877 9.77823 4.77877 7.99935C4.77877 6.22044 6.22085 4.77834 7.99976 4.77834C8.86077 4.77834 9.64288 5.11618 10.2208 5.66653V5.27834C10.2208 5.0022 10.4446 4.77834 10.7208 4.77834C10.9969 4.77834 11.2208 5.0022 11.2208 5.27834V7.99935V8.6796C11.2208 9.08819 11.3831 9.48012 11.672 9.76906C11.961 10.058 12.3529 10.2204 12.7615 10.2204C13.1701 10.2204 13.562 10.058 13.851 9.76906C14.1399 9.48012 14.3022 9.08819 14.3022 8.6796V7.99937C14.3022 7.99937 14.3022 7.99936 14.3022 7.99935C14.3022 6.57691 13.8209 5.19632 12.9367 4.08207L13.3264 3.77283L12.9367 4.08207C12.0524 2.96782 10.8173 2.18546 9.43206 1.86219L9.52398 1.46831L9.43206 1.86219C8.04684 1.53892 6.593 1.69375 5.30693 2.30152L5.11185 1.88873L5.30692 2.30152C4.02085 2.90928 2.97819 3.93424 2.34848 5.20971C1.71878 6.48519 1.53906 7.93617 1.83855 9.32675C2.13805 10.7173 2.89913 11.9657 3.99807 12.8689C5.09701 13.772 6.46915 14.2769 7.89142 14.3013C9.31364 14.3258 10.7023 13.8684 11.8317 13.0036C12.0509 12.8357 12.3648 12.8773 12.5326 13.0965C12.7005 13.3158 12.6589 13.6296 12.4397 13.7975C11.1311 14.7996 9.52211 15.3295 7.87423 15.3012C6.22631 15.2728 4.63645 14.6879 3.36314 13.6415L3.36313 13.6414C2.08984 12.5949 1.20798 11.1485 0.86097 9.5373C0.513956 7.92608 0.722186 6.24488 1.45181 4.76702L1.90014 4.98837L1.45181 4.76702C2.18143 3.28917 3.38953 2.10159 4.87966 1.39739ZM10.2208 7.99935C10.2208 6.77272 9.22636 5.77834 7.99976 5.77834C6.77314 5.77834 5.77877 6.77272 5.77877 7.99935C5.77877 9.22595 6.77314 10.2204 7.99976 10.2204C9.22636 10.2204 10.2208 9.22595 10.2208 7.99935Z" fill="currentColor"/>
</g>
<defs>
<clipPath id="clip0_175_48024">
<rect width="16" height="16" fill="white"/>
</clipPath>
</defs>
</svg>
