<svg width="16" height="16" viewBox="0 0 14.6041 14.6043" fill="none" xmlns="http://www.w3.org/2000/svg">
<path id="Union" d="M7.30236 4.08077C8.1641 4.08084 8.94508 4.42114 9.52307 4.97238V4.58077C9.52308 4.30466 9.74695 4.0808 10.0231 4.08077C10.2992 4.08077 10.5231 4.30464 10.5231 4.58077V7.98214C10.5231 8.3907 10.6853 8.78306 10.9742 9.07199C11.2632 9.36084 11.6555 9.52316 12.0641 9.52316C12.4724 9.5231 12.8641 9.36062 13.1529 9.07199C13.4419 8.78306 13.6041 8.3907 13.6041 7.98214V7.30148C13.604 5.87915 13.123 4.49866 12.2389 3.38449C11.3546 2.2703 10.1192 1.48802 8.734 1.16476C7.34889 0.8416 5.89497 0.996497 4.609 1.60421C3.32308 2.21199 2.28065 3.23705 1.651 4.51241C1.02134 5.78786 0.841746 7.23907 1.14123 8.6296C1.44079 10.02 2.20158 11.2685 3.30041 12.1716C4.39933 13.0747 5.77174 13.5798 7.19396 13.6042C8.61612 13.6286 10.0051 13.1712 11.1344 12.3064C11.3536 12.1386 11.6667 12.18 11.8346 12.3991C12.0025 12.6184 11.9611 12.9324 11.7418 13.1003C10.4333 14.1022 8.82414 14.6316 7.17639 14.6032C5.52861 14.5749 3.93887 13.9904 2.66564 12.9441C1.39236 11.8975 0.510705 10.4508 0.163691 8.83956C-0.183291 7.22837 0.0249066 5.54688 0.754511 4.06906C1.48416 2.59142 2.69227 1.40404 4.18225 0.699915C5.67232 -0.00421534 7.3566 -0.183407 8.96154 0.191126C10.5666 0.565686 11.9976 1.47236 13.0221 2.76339C14.0464 4.05432 14.604 5.65347 14.6041 7.30148V7.98214C14.6041 8.65593 14.3364 9.30257 13.86 9.77902C13.3836 10.2552 12.7376 10.5231 12.0641 10.5232C11.3903 10.5232 10.7437 10.2554 10.2672 9.77902C10.1079 9.61971 9.97431 9.43972 9.86389 9.24777C9.27559 10.021 8.3489 10.5231 7.30236 10.5232C5.52345 10.5232 4.08068 9.08036 4.08068 7.30148C4.08086 5.52271 5.52356 4.08077 7.30236 4.08077ZM5.08068 7.30148C5.08068 8.52808 6.07575 9.52316 7.30236 9.52316C8.52885 9.52303 9.52307 8.528 9.52307 7.30148C9.52289 6.07508 8.52874 5.0809 7.30236 5.08077C6.07585 5.08077 5.08086 6.07499 5.08068 7.30148Z" fill="var(--fill-0, currentColor)"/>
</svg>
