<svg width="16" height="16" viewBox="0 0 12.8358 14.4997" fill="none" xmlns="http://www.w3.org/2000/svg">
<path id="Union" d="M6.72176 1.0444C8.13888 -0.348188 10.3524 -0.348081 11.7696 1.0444C13.1912 2.44175 13.1912 4.63144 11.7696 6.02878L11.7667 6.03171L6.87605 10.771C6.01293 11.6162 4.60075 11.6431 3.7823 10.7495V10.7485C2.93375 9.8943 2.91096 8.50424 3.81941 7.70065L5.83797 5.71628C6.03473 5.52292 6.3514 5.52575 6.545 5.72214C6.73848 5.91903 6.73589 6.2356 6.53914 6.42917L4.50105 8.4321L4.49226 8.44089L4.4825 8.44968C4.06735 8.81692 4.01591 9.48219 4.41512 9.9614L4.50105 10.0551L4.51082 10.0639L4.51961 10.0737C4.92289 10.514 5.6822 10.542 6.17781 10.0551L6.18074 10.0522L11.0684 5.31589C12.0917 4.31035 12.0917 2.76283 11.0684 1.75729C10.0403 0.74714 8.45001 0.747031 7.42195 1.75729L2.1241 6.96335C0.625542 8.43604 0.625691 10.9183 2.1241 12.3911C3.62765 13.8686 6.16836 13.8685 7.67195 12.3911L10.6612 9.45456C10.8581 9.26109 11.1747 9.26363 11.3682 9.46042C11.5617 9.65738 11.5583 9.97392 11.3614 10.1674L8.37312 13.1049C6.48046 14.9645 3.31549 14.9647 1.42293 13.1049C-0.474333 11.2403 -0.474286 8.1151 1.42293 6.25046L6.72176 1.0444Z" fill="var(--fill-0, currentColor)"/>
</svg>
