<svg width="16" height="16" viewBox="0 0 13 15.542" fill="none" xmlns="http://www.w3.org/2000/svg">
<path id="Union" d="M6.69238 0.0800781L12.6924 2.58008L13 2.70898V9.04199C12.9999 10.7658 12.3156 12.4198 11.0967 13.6387C11.0504 13.685 11.0017 13.7287 10.9541 13.7734C10.9197 13.8184 10.8777 13.8569 10.8281 13.8887C9.72006 14.8781 8.30682 15.4605 6.82227 15.5342L6.5 15.542C4.77617 15.542 3.12229 14.8576 1.90332 13.6387C0.760583 12.4959 0.087574 10.9707 0.0078125 9.36426L0 9.04199V2.70898L0.307617 2.58008L6.30762 0.0800781L6.5 0L6.69238 0.0800781ZM6.5625 11.415C5.10185 11.4152 3.82874 12.2189 3.16016 13.4092C4.114 14.1388 5.28575 14.542 6.5 14.542L6.77246 14.5352C7.92528 14.478 9.02655 14.0574 9.9248 13.3418C9.24637 12.1888 7.99538 11.415 6.5625 11.415ZM1 3.375V9.04199L1.00684 9.31445C1.06941 10.5754 1.56505 11.7758 2.4082 12.7148C3.27436 11.3339 4.81074 10.4152 6.5625 10.415C8.27871 10.415 9.78783 11.2976 10.6631 12.6318C11.5213 11.6369 11.9999 10.3649 12 9.04199V3.375L6.5 1.08398L1 3.375ZM6.55566 4.36426C8.06016 4.36455 9.28027 5.58431 9.28027 7.08887C9.28007 8.59326 8.06003 9.81319 6.55566 9.81348C5.05105 9.81348 3.83125 8.59343 3.83105 7.08887C3.83105 5.58413 5.05093 4.36426 6.55566 4.36426ZM6.55566 5.36426C5.60321 5.36426 4.83105 6.13642 4.83105 7.08887C4.83125 8.04115 5.60334 8.81348 6.55566 8.81348C7.50775 8.81319 8.28007 8.04097 8.28027 7.08887C8.28027 6.13659 7.50787 5.36455 6.55566 5.36426Z" fill="var(--fill-0, currentColor)"/>
</svg>
