<svg width="16" height="16" viewBox="0 0 14.502 14.5014" fill="none" xmlns="http://www.w3.org/2000/svg">
<path id="Union" d="M7.11328 0.0192107C7.203 -0.00640356 7.29895 -0.00640356 7.38867 0.0192107L14.1396 1.94792C14.3539 2.00928 14.5017 2.20553 14.502 2.42839C14.502 7.14681 12.7579 10.1627 10.9863 11.9977C10.1049 12.9106 9.22227 13.526 8.55762 13.9137C8.22528 14.1076 7.94644 14.2455 7.74805 14.3356C7.64897 14.3806 7.56951 14.4137 7.51367 14.4362C7.48582 14.4474 7.46311 14.4556 7.44727 14.4616C7.43951 14.4645 7.43341 14.4677 7.42871 14.4694C7.42648 14.4702 7.42437 14.4708 7.42285 14.4714L7.4209 14.4723H7.41992C7.4184 14.4691 7.40425 14.4307 7.25098 14.0016L7.41895 14.4723C7.31027 14.5111 7.19169 14.5111 7.08301 14.4723L7.25098 14.0016C7.09771 14.4307 7.08355 14.4691 7.08203 14.4723H7.08105L7.0791 14.4714C7.07758 14.4708 7.07546 14.4702 7.07324 14.4694C7.06854 14.4677 7.06244 14.4645 7.05469 14.4616C7.03884 14.4556 7.01614 14.4474 6.98828 14.4362C6.93244 14.4137 6.85297 14.3806 6.75391 14.3356C6.55551 14.2455 6.27667 14.1076 5.94434 13.9137C5.27969 13.526 4.39705 12.9106 3.51562 11.9977C1.74408 10.1627 0 7.1468 0 2.42839C0.000293946 2.20554 0.148037 2.00929 0.362305 1.94792L7.11328 0.0192107ZM7.30762 9.4362C5.97213 9.43634 4.81163 10.1928 4.23438 11.3024L4.23535 11.3034C5.04149 12.1383 5.84714 12.6988 6.44824 13.0495C6.74849 13.2246 6.99722 13.3469 7.16797 13.4245C7.19781 13.438 7.22605 13.4488 7.25098 13.4596C7.27591 13.4488 7.30414 13.438 7.33398 13.4245C7.50473 13.3469 7.75346 13.2246 8.05371 13.0495C8.65482 12.6988 9.46046 12.1383 10.2666 11.3034C10.2911 11.278 10.3144 11.2512 10.3389 11.2253C9.74863 10.1579 8.6118 9.43637 7.30762 9.4362ZM1.00391 2.80437C1.07961 6.39698 2.23905 8.85784 3.54199 10.5065C4.33307 9.26286 5.72313 8.43633 7.30762 8.4362C8.8582 8.43635 10.2223 9.22815 11.0215 10.4274C12.2988 8.77941 13.4226 6.34006 13.4971 2.80437L7.25098 1.01921L1.00391 2.80437ZM7.2998 2.99089C8.68159 2.99101 9.80249 4.11109 9.80273 5.49284C9.80265 6.87474 8.68169 7.99565 7.2998 7.99577C5.91802 7.99553 4.79794 6.87466 4.79785 5.49284C4.79809 4.11116 5.91812 2.99113 7.2998 2.99089ZM7.2998 3.99089C6.47041 3.99113 5.79809 4.66345 5.79785 5.49284C5.79794 6.32238 6.47031 6.99553 7.2998 6.99577C8.1294 6.99565 8.80265 6.32245 8.80273 5.49284C8.80249 4.66337 8.12931 3.99101 7.2998 3.99089Z" fill="var(--fill-0, currentColor)"/>
</svg>
