<svg width="16" height="16" viewBox="0 0 16 16" fill="none" xmlns="http://www.w3.org/2000/svg">
<path d="M15.5 8C15.5 8.13261 15.4473 8.25975 15.3535 8.35352L12.3535 11.3535C12.1583 11.5488 11.8417 11.5488 11.6465 11.3535C11.4512 11.1583 11.4512 10.8417 11.6465 10.6465L13.793 8.5L2.20703 8.5L4.35352 10.6465C4.54876 10.8417 4.54874 11.1582 4.35352 11.3535C4.15825 11.5488 3.84175 11.5488 3.64648 11.3535L0.646484 8.35351C0.552761 8.25975 0.5 8.13257 0.5 8C0.500028 7.86743 0.552742 7.74023 0.646484 7.64648L3.64648 4.64648C3.84173 4.45128 4.15826 4.45131 4.35352 4.64648C4.54877 4.84173 4.54874 5.15825 4.35352 5.35352L2.20703 7.5L13.793 7.5L11.6465 5.35352C11.4512 5.15825 11.4512 4.84175 11.6465 4.64648C11.8417 4.45122 12.1583 4.45122 12.3535 4.64648L15.3535 7.64648C15.4473 7.74025 15.5 7.86739 15.5 8Z" fill="currentColor"/>
</svg>
