<svg width="16" height="16" viewBox="0 0 14 14" fill="none" xmlns="http://www.w3.org/2000/svg">
<path id="Union" d="M7 0C10.866 0 14 3.13401 14 7C14 10.866 10.866 14 7 14C3.13401 14 0 10.866 0 7C0 3.13401 3.13401 0 7 0ZM7 1C3.68629 1 1 3.68629 1 7C1 10.3137 3.68629 13 7 13C10.3137 13 13 10.3137 13 7C13 3.68629 10.3137 1 7 1ZM10.3203 10.5H9.06543L8.43945 8.6543H5.54492L4.90527 10.5H3.6748L6.29688 3.22461H7.70801L10.3203 10.5ZM6.68262 5.2998C6.54915 5.72949 6.42057 6.125 6.29688 6.48633L5.88086 7.6875H8.11035L7.70312 6.48633C7.58268 6.12174 7.45573 5.72624 7.32227 5.2998C7.22808 4.99657 7.12339 4.64663 7.00488 4.25098C6.88569 4.64667 6.77911 4.99654 6.68262 5.2998Z" fill="var(--fill-0, currentColor)"/>
</svg>
