<svg width="16" height="16" viewBox="0 0 6.99992 15" fill="none" xmlns="http://www.w3.org/2000/svg">
<path id="Union" d="M3.49996 0C3.63257 1.63756e-07 3.75971 0.0527163 3.85348 0.146484L6.85348 3.14648C7.04874 3.34175 7.04874 3.65825 6.85348 3.85352C6.65822 4.04878 6.34171 4.04878 6.14645 3.85352L3.99996 1.70703V13.293L6.14645 11.1465C6.3417 10.9512 6.65821 10.9513 6.85348 11.1465C7.04874 11.3417 7.04874 11.6583 6.85348 11.8535L3.85348 14.8535C3.75972 14.9472 3.63254 15 3.49996 15C3.36739 15 3.24019 14.9473 3.14645 14.8535L0.146447 11.8535C-0.0487549 11.6583 -0.048732 11.3417 0.146447 11.1465C0.341696 10.9512 0.658213 10.9513 0.853478 11.1465L2.99996 13.293V1.70703L0.853478 3.85352C0.658216 4.04878 0.341709 4.04878 0.146447 3.85352C-0.0488156 3.65825 -0.0488155 3.34175 0.146447 3.14648L3.14645 0.146484C3.24021 0.0527163 3.36735 5.79267e-09 3.49996 0Z" fill="var(--fill-0, currentColor)"/>
</svg>
