<svg width="16" height="16" viewBox="0 0 16 16" fill="none" xmlns="http://www.w3.org/2000/svg">
<path d="M8 1L8.23438 1.00391C8.77783 1.02187 9.30644 1.10204 9.8125 1.2373L9.67773 1.73828L9.54395 2.23926C9.05206 2.1078 8.53465 2.03711 8 2.03711C7.60982 2.03711 7.22892 2.07505 6.86035 2.14648C6.82012 2.15432 6.7803 2.16419 6.74023 2.17285C6.66783 2.18844 6.59579 2.20448 6.52441 2.22266C6.25008 2.29273 5.98048 2.3824 5.71777 2.49121C5.46016 2.59794 5.2109 2.72237 4.97168 2.86328C4.10331 3.37643 3.37643 4.10331 2.86328 4.97168C2.72236 5.2109 2.59794 5.46016 2.49121 5.71777C2.3824 5.98047 2.29273 6.25009 2.22266 6.52441C2.10259 6.9959 2.03712 7.48993 2.03711 8C2.03711 8.50591 2.10252 8.99585 2.2207 9.46387C2.29128 9.74215 2.38088 10.0159 2.49121 10.2822C2.59783 10.5396 2.72255 10.7884 2.86328 11.0273C3.37636 11.8959 4.10327 12.6225 4.97168 13.1357C5.21103 13.2768 5.46 13.402 5.71777 13.5088C5.98729 13.6204 6.2642 13.7114 6.5459 13.7822C6.55922 13.7856 6.57258 13.7887 6.58594 13.792C6.72544 13.8261 6.86624 13.854 7.00781 13.8779C7.33041 13.9318 7.66152 13.9629 8 13.9629C8.53458 13.9629 9.05212 13.8931 9.54395 13.7617L9.67773 14.2617L9.8125 14.7627C9.23398 14.9173 8.62596 15 8 15C7.89396 15 7.78852 14.9959 7.68359 14.9912C7.6647 14.9904 7.64583 14.9893 7.62695 14.9883C7.41802 14.9772 7.21164 14.9568 7.00781 14.9277C6.93102 14.9167 6.85469 14.9032 6.77832 14.8896C6.6693 14.8704 6.56136 14.8484 6.4541 14.8242C6.39218 14.8102 6.33009 14.797 6.26855 14.7812C6.242 14.7745 6.21491 14.7698 6.18848 14.7627V14.7588C5.89415 14.6798 5.60403 14.5839 5.32129 14.4668C5.03804 14.3495 4.76444 14.2121 4.5 14.0596L4.49902 14.0625C4.47045 14.046 4.44237 14.0286 4.41406 14.0117C4.40452 14.006 4.39526 13.9999 4.38574 13.9941C4.29937 13.942 4.21376 13.8888 4.12988 13.833C4.00653 13.7513 3.88652 13.6646 3.76855 13.5752C3.73993 13.5534 3.71187 13.531 3.68359 13.5088C3.59057 13.436 3.49948 13.3608 3.41016 13.2832C3.39691 13.2717 3.38327 13.2606 3.37012 13.249C3.26069 13.1526 3.15322 13.0536 3.0498 12.9502C2.94606 12.8464 2.84675 12.7387 2.75 12.6289C2.73839 12.6157 2.72733 12.6021 2.71582 12.5889C2.63645 12.4974 2.55976 12.4039 2.48535 12.3086C2.46493 12.2825 2.44389 12.2569 2.42383 12.2305C2.33441 12.1125 2.24773 11.9925 2.16602 11.8691C2.11028 11.7853 2.05704 11.6997 2.00488 11.6133C1.99915 11.6038 1.99299 11.5945 1.9873 11.585C1.97063 11.557 1.9538 11.5291 1.9375 11.501L1.93945 11.499C1.78716 11.235 1.65036 10.9615 1.5332 10.6787C1.41599 10.3957 1.31721 10.1061 1.23828 9.81152L1.2373 9.8125C1.22541 9.76801 1.21709 9.72257 1.20605 9.67773C1.1888 9.60788 1.17134 9.53811 1.15625 9.46777C1.14282 9.40489 1.1299 9.34181 1.11816 9.27832C1.10443 9.20439 1.09338 9.13001 1.08203 9.05566C1.04805 8.83154 1.02292 8.60437 1.01074 8.37402C1.0102 8.36394 1.00929 8.35384 1.00879 8.34375L1.00781 8.31738C1.00309 8.21215 1 8.10633 1 8C1 7.89397 1.00312 7.78851 1.00781 7.68359C1.00867 7.6647 1.00973 7.64583 1.01074 7.62695C1.02178 7.41805 1.04226 7.21161 1.07129 7.00781C1.0823 6.93103 1.09582 6.85468 1.10938 6.77832C1.12862 6.66932 1.15059 6.56134 1.1748 6.4541C1.18884 6.39219 1.20205 6.33008 1.21777 6.26855C1.22456 6.24192 1.23022 6.21499 1.2373 6.18848H1.24023C1.31919 5.89407 1.41606 5.6041 1.5332 5.32129C1.65047 5.0382 1.78698 4.76431 1.93945 4.5L1.9375 4.49902C2.02276 4.35169 2.11453 4.20864 2.20996 4.06836C2.27887 3.96676 2.34963 3.86643 2.42383 3.76855C2.44389 3.74216 2.46493 3.71653 2.48535 3.69043C2.55977 3.59512 2.63645 3.50159 2.71582 3.41016C2.72733 3.39691 2.73839 3.38327 2.75 3.37012C2.84659 3.26052 2.94623 3.15337 3.0498 3.0498C3.15338 2.94623 3.26052 2.8466 3.37012 2.75C3.38327 2.73839 3.39691 2.72733 3.41016 2.71582C3.50159 2.63645 3.59512 2.55976 3.69043 2.48535C3.71653 2.46493 3.74216 2.44389 3.76855 2.42383C3.89371 2.32895 4.02211 2.23855 4.15332 2.15234C4.22988 2.10189 4.30712 2.05237 4.38574 2.00488C4.39526 1.99915 4.40452 1.99299 4.41406 1.9873C4.44223 1.97047 4.4706 1.95395 4.49902 1.9375L4.5 1.93945C4.7643 1.78699 5.0382 1.65047 5.32129 1.5332C5.60411 1.41606 5.89406 1.31919 6.18848 1.24023V1.2373C6.21499 1.23022 6.24192 1.22456 6.26855 1.21777C6.33008 1.20205 6.39219 1.18884 6.4541 1.1748C6.56134 1.15059 6.66932 1.12862 6.77832 1.10938C6.85468 1.09582 6.93103 1.0823 7.00781 1.07129C7.21161 1.04226 7.41805 1.02178 7.62695 1.01074C7.64583 1.00973 7.6647 1.00867 7.68359 1.00781C7.78851 1.00312 7.89397 1 8 1ZM13.6143 11.2412L14.0625 11.501C13.448 12.5629 12.5629 13.448 11.501 14.0625L11.2412 13.6143L10.9814 13.165C11.8865 12.6414 12.6414 11.8865 13.165 10.9814L13.6143 11.2412ZM14.7627 6.18848C14.9173 6.76688 15 7.37418 15 8C15 8.62596 14.9173 9.23398 14.7627 9.8125L14.2617 9.67773L13.7617 9.54395C13.8931 9.05212 13.9629 8.53458 13.9629 8C13.9629 7.46541 13.8932 6.94789 13.7617 6.45605L14.2617 6.32227L14.7627 6.18848ZM11.501 1.9375C12.5629 2.55195 13.448 3.43712 14.0625 4.49902L13.6143 4.75879L13.165 5.01855C12.6414 4.11351 11.8865 3.35862 10.9814 2.83496L11.2412 2.38574L11.501 1.9375Z" fill="currentColor"/>
</svg>
