<svg width="16" height="16" viewBox="0 0 14 14" fill="none" xmlns="http://www.w3.org/2000/svg">
<path id="Union" d="M7 0C7.62595 0 8.23398 0.0826669 8.8125 0.237305L8.67773 0.738281L8.54395 1.23926C8.05206 1.1078 7.53465 1.03711 7 1.03711C6.60982 1.03711 6.22892 1.07505 5.86035 1.14648C5.82012 1.15432 5.7803 1.16419 5.74023 1.17285C5.66783 1.18844 5.59579 1.20448 5.52441 1.22266C5.25008 1.29273 4.98048 1.3824 4.71777 1.49121C4.46016 1.59794 4.2109 1.72237 3.97168 1.86328C3.10331 2.37643 2.37643 3.10331 1.86328 3.97168C1.72236 4.2109 1.59794 4.46016 1.49121 4.71777C1.3824 4.98047 1.29273 5.25009 1.22266 5.52441C1.10259 5.9959 1.03712 6.48993 1.03711 7C1.03711 7.39055 1.07589 7.77171 1.14746 8.14062C1.15517 8.18017 1.16434 8.21941 1.17285 8.25879C1.18843 8.33119 1.20449 8.40323 1.22266 8.47461C1.29276 8.74926 1.38227 9.01923 1.49121 9.28223C1.59783 9.53958 1.72255 9.78835 1.86328 10.0273C2.37636 10.8959 3.10327 11.6225 3.97168 12.1357C4.21103 12.2768 4.46 12.402 4.71777 12.5088C4.98729 12.6204 5.2642 12.7114 5.5459 12.7822C5.55922 12.7856 5.57258 12.7887 5.58594 12.792C5.72544 12.8261 5.86624 12.854 6.00781 12.8779C6.33041 12.9318 6.66152 12.9629 7 12.9629C7.53458 12.9629 8.05212 12.8931 8.54395 12.7617L8.67773 13.2617L8.8125 13.7627C8.23398 13.9173 7.62596 14 7 14C6.89396 14 6.78852 13.9959 6.68359 13.9912C6.6647 13.9904 6.64583 13.9893 6.62695 13.9883C6.41802 13.9772 6.21164 13.9568 6.00781 13.9277C5.93102 13.9167 5.85469 13.9032 5.77832 13.8896C5.66931 13.8704 5.56136 13.8484 5.4541 13.8242C5.39218 13.8102 5.33009 13.797 5.26855 13.7812C5.242 13.7745 5.21491 13.7698 5.18848 13.7627V13.7588C4.89415 13.6798 4.60403 13.5839 4.32129 13.4668C4.03804 13.3495 3.76444 13.2121 3.5 13.0596L3.49902 13.0625C3.47045 13.046 3.44237 13.0286 3.41406 13.0117C3.40452 13.006 3.39526 12.9999 3.38574 12.9941C3.29937 12.942 3.21376 12.8888 3.12988 12.833C3.00653 12.7513 2.88652 12.6646 2.76855 12.5752C2.73993 12.5534 2.71187 12.531 2.68359 12.5088C2.59057 12.436 2.49948 12.3608 2.41016 12.2832C2.39691 12.2717 2.38327 12.2606 2.37012 12.249C2.26069 12.1526 2.15322 12.0536 2.0498 11.9502C1.94606 11.8464 1.84675 11.7387 1.75 11.6289C1.73839 11.6157 1.72733 11.6021 1.71582 11.5889C1.63645 11.4974 1.55976 11.4039 1.48535 11.3086C1.46493 11.2825 1.44389 11.2569 1.42383 11.2305C1.33441 11.1125 1.24773 10.9925 1.16602 10.8691C1.11028 10.7853 1.05704 10.6997 1.00488 10.6133C0.999153 10.6038 0.992989 10.5945 0.987305 10.585C0.970626 10.557 0.953799 10.5291 0.9375 10.501L0.939453 10.499C0.787163 10.235 0.650356 9.96154 0.533203 9.67871C0.416055 9.39589 0.319188 9.10594 0.240234 8.81152L0.237305 8.8125C0.229625 8.78377 0.22412 8.75446 0.216797 8.72559C0.20146 8.66534 0.188528 8.60456 0.174805 8.54395C0.149701 8.43255 0.127155 8.32034 0.107422 8.20703C0.0948246 8.13518 0.081636 8.06344 0.0712891 7.99121C0.0422862 7.78707 0.0217194 7.58031 0.0107422 7.37109C0.00979001 7.35319 0.00862707 7.3353 0.0078125 7.31738C0.00309462 7.21215 0 7.10633 0 7C1.04075e-06 6.89397 0.00311553 6.78851 0.0078125 6.68359C0.00866902 6.6647 0.00973269 6.64583 0.0107422 6.62695C0.0217795 6.41805 0.0422634 6.21161 0.0712891 6.00781C0.0822999 5.93103 0.0958215 5.85468 0.109375 5.77832C0.128619 5.66932 0.150587 5.56134 0.174805 5.4541C0.188841 5.39219 0.202054 5.33008 0.217773 5.26855C0.224557 5.24192 0.230218 5.21499 0.237305 5.18848H0.240234C0.319187 4.89407 0.416059 4.6041 0.533203 4.32129C0.65047 4.0382 0.786982 3.76431 0.939453 3.5L0.9375 3.49902C1.02276 3.35169 1.11453 3.20864 1.20996 3.06836C1.27887 2.96676 1.34963 2.86643 1.42383 2.76855C1.44389 2.74216 1.46493 2.71653 1.48535 2.69043C1.55977 2.59512 1.63645 2.50159 1.71582 2.41016C1.72733 2.39691 1.73839 2.38327 1.75 2.37012C1.84659 2.26052 1.94623 2.15337 2.0498 2.0498C2.15338 1.94623 2.26052 1.8466 2.37012 1.75C2.38327 1.73839 2.39691 1.72733 2.41016 1.71582C2.50159 1.63645 2.59512 1.55976 2.69043 1.48535C2.71653 1.46493 2.74216 1.44389 2.76855 1.42383C2.89371 1.32895 3.02211 1.23855 3.15332 1.15234C3.22988 1.10189 3.30712 1.05237 3.38574 1.00488C3.39526 0.999153 3.40452 0.99299 3.41406 0.987305C3.44223 0.970471 3.4706 0.953947 3.49902 0.9375L3.5 0.939453C3.7643 0.786987 4.0382 0.650466 4.32129 0.533203C4.60411 0.416055 4.89406 0.319188 5.18848 0.240234V0.237305C5.21499 0.230218 5.24192 0.224557 5.26855 0.217773C5.33008 0.202054 5.39219 0.188841 5.4541 0.174805C5.56134 0.150587 5.66932 0.128619 5.77832 0.109375C5.85468 0.095822 5.93103 0.0822994 6.00781 0.0712891C6.21161 0.0422634 6.41805 0.0217795 6.62695 0.0107422C6.64583 0.00973287 6.6647 0.00866883 6.68359 0.0078125C6.78851 0.00311553 6.89397 1.04075e-06 7 0ZM12.6143 10.2412L13.0625 10.501C12.448 11.5629 11.5629 12.448 10.501 13.0625L10.2412 12.6143L9.98145 12.165C10.8865 11.6414 11.6414 10.8865 12.165 9.98145L12.6143 10.2412ZM13.7627 5.18848C13.9173 5.76688 14 6.37418 14 7C14 7.62596 13.9173 8.23398 13.7627 8.8125L13.2617 8.67773L12.7617 8.54395C12.8931 8.05212 12.9629 7.53458 12.9629 7C12.9629 6.46541 12.8932 5.94789 12.7617 5.45605L13.2617 5.32227L13.7627 5.18848ZM10.501 0.9375C11.5629 1.55195 12.448 2.43712 13.0625 3.49902L12.6143 3.75879L12.165 4.01855C11.6414 3.11351 10.8865 2.35862 9.98145 1.83496L10.2412 1.38574L10.501 0.9375Z" fill="var(--fill-0, currentColor)"/>
</svg>
