<svg width="16" height="16" viewBox="0 0 16 16" fill="none" xmlns="http://www.w3.org/2000/svg">
<path d="M13.2002 1C14.1938 1.00011 14.9999 1.80622 15 2.7998V13.6328C15 14.3872 14.3881 14.9998 13.6338 15H2.36621C1.61188 14.9998 1 14.3872 1 13.6328V2.7998C1.00011 1.80622 1.80622 1.00011 2.7998 1H13.2002ZM14 4.40918C13.7587 4.52938 13.488 4.59958 13.2002 4.59961H2.7998C2.51204 4.59958 2.24129 4.52938 2 4.40918V13.6328C2 13.8349 2.16416 13.9998 2.36621 14H13.6338C13.8358 13.9998 14 13.8349 14 13.6328V4.40918ZM11.0332 6.2002C11.3093 6.2002 11.5332 6.42405 11.5332 6.7002C11.5332 8.6516 9.95141 10.2334 8 10.2334C6.04865 10.2333 4.4668 8.65156 4.4668 6.7002C4.4668 6.42405 4.69065 6.2002 4.9668 6.2002C5.24294 6.2002 5.4668 6.42405 5.4668 6.7002C5.4668 8.09928 6.60094 9.23333 8 9.2334C9.39912 9.2334 10.5332 8.09932 10.5332 6.7002C10.5332 6.42414 10.7572 6.20034 11.0332 6.2002ZM2.7998 2C2.3585 2.00011 2.00011 2.3585 2 2.7998C2 3.2412 2.35844 3.5995 2.7998 3.59961H13.2002C13.6416 3.5995 14 3.2412 14 2.7998C13.9999 2.3585 13.6415 2.00011 13.2002 2H2.7998Z" fill="currentColor"/>
</svg>
