<svg width="16" height="16" viewBox="0 0 14 14" fill="none" xmlns="http://www.w3.org/2000/svg">
<path id="Union" d="M12.2002 0C13.1938 0.000105569 13.9999 0.806217 14 1.7998V12.6328C14 13.3872 13.3881 13.9998 12.6338 14H1.36621C0.611878 13.9998 0 13.3872 0 12.6328V1.7998C0.000105586 0.806217 0.806217 0.000105634 1.7998 0H12.2002ZM13 3.40918C12.7587 3.52938 12.488 3.59958 12.2002 3.59961H1.7998C1.51204 3.59958 1.24129 3.52938 1 3.40918V12.6328C1 12.8349 1.16416 12.9998 1.36621 13H12.6338C12.8358 12.9998 13 12.8349 13 12.6328V3.40918ZM10.0332 5.2002C10.3093 5.2002 10.5332 5.42405 10.5332 5.7002C10.5332 7.6516 8.95141 9.2334 7 9.2334C5.04865 9.23333 3.4668 7.65156 3.4668 5.7002C3.4668 5.42405 3.69065 5.2002 3.9668 5.2002C4.24294 5.2002 4.4668 5.42405 4.4668 5.7002C4.4668 7.09928 5.60094 8.23333 7 8.2334C8.39912 8.2334 9.5332 7.09932 9.5332 5.7002C9.5332 5.42414 9.75718 5.20034 10.0332 5.2002ZM1.7998 1C1.3585 1.00011 1.00011 1.3585 1 1.7998C1 2.2412 1.35844 2.5995 1.7998 2.59961H12.2002C12.6416 2.5995 13 2.2412 13 1.7998C12.9999 1.3585 12.6415 1.00011 12.2002 1H1.7998Z" fill="var(--fill-0, currentColor)"/>
</svg>
