<svg width="16" height="16" viewBox="0 0 16 16" fill="none" xmlns="http://www.w3.org/2000/svg">
<g clip-path="url(#clip0_15459_4111)">
<path fill-rule="evenodd" clip-rule="evenodd" d="M2.93311 0.5C2.10468 0.5 1.43311 1.17157 1.43311 2V6.53333C1.43311 7.36176 2.10468 8.03333 2.93311 8.03333H13.0664C13.8949 8.03333 14.5664 7.36176 14.5664 6.53333V2C14.5664 1.17157 13.8949 0.5 13.0664 0.5H2.93311ZM2.43311 2C2.43311 1.72386 2.65696 1.5 2.93311 1.5H13.0664C13.3426 1.5 13.5664 1.72386 13.5664 2V6.53333C13.5664 6.80948 13.3426 7.03333 13.0664 7.03333H2.93311C2.65696 7.03333 2.43311 6.80948 2.43311 6.53333V2ZM3.7998 8.8999C3.52366 8.8999 3.2998 9.12376 3.2998 9.3999V11.2666C3.2998 11.5427 3.52366 11.7666 3.7998 11.7666C4.07595 11.7666 4.2998 11.5427 4.2998 11.2666V9.8999H6.0998V11.2666C6.0998 11.5427 6.32366 11.7666 6.5998 11.7666C6.87595 11.7666 7.0998 11.5427 7.0998 11.2666V9.3999C7.0998 9.12376 6.87595 8.8999 6.5998 8.8999H3.7998ZM8.8999 9.3999C8.8999 9.12376 9.12376 8.8999 9.3999 8.8999H12.1999C12.476 8.8999 12.6999 9.12376 12.6999 9.3999V11.2666C12.6999 11.5427 12.476 11.7666 12.1999 11.7666C11.9238 11.7666 11.6999 11.5427 11.6999 11.2666V9.8999H9.8999V11.2666C9.8999 11.5427 9.67604 11.7666 9.3999 11.7666C9.12376 11.7666 8.8999 11.5427 8.8999 11.2666V9.3999ZM1 12.6333C0.723858 12.6333 0.5 12.8572 0.5 13.1333V15C0.5 15.2761 0.723858 15.5 1 15.5C1.27614 15.5 1.5 15.2761 1.5 15V13.6333H3.3V15C3.3 15.2761 3.52386 15.5 3.8 15.5C4.07614 15.5 4.3 15.2761 4.3 15V13.1333C4.3 12.8572 4.07614 12.6333 3.8 12.6333H1ZM11.7002 13.1333C11.7002 12.8572 11.9241 12.6333 12.2002 12.6333H15.0002C15.2763 12.6333 15.5002 12.8572 15.5002 13.1333V15C15.5002 15.2761 15.2763 15.5 15.0002 15.5C14.7241 15.5 14.5002 15.2761 14.5002 15V13.6333H12.7002V15C12.7002 15.2761 12.4763 15.5 12.2002 15.5C11.9241 15.5 11.7002 15.2761 11.7002 15V13.1333ZM6.6001 12.6333C6.32396 12.6333 6.1001 12.8572 6.1001 13.1333V15C6.1001 15.2761 6.32396 15.5 6.6001 15.5C6.87624 15.5 7.1001 15.2761 7.1001 15V13.6333H8.9001V15C8.9001 15.2761 9.12395 15.5 9.4001 15.5C9.67624 15.5 9.9001 15.2761 9.9001 15V13.1333C9.9001 12.8572 9.67624 12.6333 9.4001 12.6333H6.6001Z" fill="currentColor"/>
</g>
<defs>
<clipPath id="clip0_15459_4111">
<rect width="16" height="16" fill="white"/>
</clipPath>
</defs>
</svg>
