<svg width="16" height="16" viewBox="0 0 15 14.9995" fill="none" xmlns="http://www.w3.org/2000/svg">
<path id="Union" fill-rule="evenodd" clip-rule="evenodd" d="M12.5669 1C12.8428 1.00025 13.0669 1.22401 13.0669 1.5V6.0332C13.0669 6.30919 12.8428 6.53296 12.5669 6.5332H2.43311C2.15696 6.5332 1.93311 6.30935 1.93311 6.0332V1.5C1.93311 1.22386 2.15696 1 2.43311 1H12.5669ZM12.5669 7.5332C13.3951 7.53296 14.0669 6.86148 14.0669 6.0332V1.5C14.0669 0.671725 13.3951 0.000246378 12.5669 0H2.43311C1.60468 0 0.933105 0.671572 0.933105 1.5V6.0332C0.933105 6.86163 1.60468 7.5332 2.43311 7.5332H12.5669ZM5.59961 9.3999V10.7661C5.59961 11.0422 5.82356 11.266 6.09961 11.2661C6.37575 11.2661 6.59961 11.0423 6.59961 10.7661V8.8999C6.59961 8.62376 6.37575 8.3999 6.09961 8.3999H3.2998C3.05809 8.3999 2.8561 8.57135 2.80957 8.79932L2.7998 8.8999V10.7661L2.80957 10.8677C2.85629 11.0954 3.05827 11.2661 3.2998 11.2661C3.54134 11.2661 3.74332 11.0954 3.79004 10.8677L3.7998 10.7661V9.3999H5.59961ZM11.1997 10.7661V9.3999H9.3999V10.7661L9.39014 10.8677C9.34342 11.0954 9.14144 11.2661 8.8999 11.2661C8.65837 11.2661 8.45639 11.0954 8.40967 10.8677L8.3999 10.7661V8.8999L8.40967 8.79932C8.45619 8.57135 8.65819 8.3999 8.8999 8.3999H11.6997C11.9758 8.3999 12.1997 8.62376 12.1997 8.8999V10.7661C12.1997 11.0423 11.9758 11.2661 11.6997 11.2661C11.4237 11.266 11.1997 11.0422 11.1997 10.7661ZM2.7998 13.1333V14.4995C2.7998 14.7756 3.02375 14.9994 3.2998 14.9995C3.57595 14.9995 3.7998 14.7757 3.7998 14.4995V12.6333C3.7998 12.3572 3.57595 12.1333 3.2998 12.1333H0.5C0.258287 12.1333 0.056292 12.3047 0.00976562 12.5327L0 12.6333V14.4995L0.00976562 14.6011C0.0564844 14.8288 0.258463 14.9995 0.5 14.9995C0.741537 14.9995 0.943516 14.8288 0.990234 14.6011L1 14.4995V13.1333H2.7998ZM14 14.4995V13.1333H12.2002V14.4995L12.1904 14.6011C12.1437 14.8288 11.9417 14.9995 11.7002 14.9995C11.4587 14.9995 11.2567 14.8288 11.21 14.6011L11.2002 14.4995V12.6333L11.21 12.5327C11.2565 12.3047 11.4585 12.1333 11.7002 12.1333H14.5C14.7761 12.1333 15 12.3572 15 12.6333V14.4995C15 14.7757 14.7761 14.9995 14.5 14.9995C14.2239 14.9994 14 14.7756 14 14.4995ZM8.3999 13.1333V14.4995C8.3999 14.7756 8.62385 14.9994 8.8999 14.9995C9.17604 14.9995 9.3999 14.7757 9.3999 14.4995V12.6333C9.3999 12.3572 9.17604 12.1333 8.8999 12.1333H6.1001C5.85838 12.1333 5.65639 12.3047 5.60986 12.5327L5.6001 12.6333V14.4995L5.60986 14.6011C5.65658 14.8288 5.85856 14.9995 6.1001 14.9995C6.34163 14.9995 6.54361 14.8288 6.59033 14.6011L6.6001 14.4995V13.1333H8.3999Z" fill="var(--fill-0, currentColor)"/>
</svg>
