<svg width="16" height="16" viewBox="0 0 14.0664 14.0664" fill="none" xmlns="http://www.w3.org/2000/svg">
<path id="Union" d="M7.0332 0C8.51198 5.32304e-05 9.71094 1.19895 9.71094 2.67773C9.71081 3.98553 8.77298 5.07241 7.5332 5.30664V7.66211L9.64746 9.35449C10.1156 8.95337 10.7238 8.71094 11.3887 8.71094C12.8673 8.71121 14.0664 9.91002 14.0664 11.3887C14.0661 12.8671 12.8671 14.0661 11.3887 14.0664C9.91002 14.0664 8.71121 12.8673 8.71094 11.3887C8.71094 10.9356 8.82383 10.5088 9.02246 10.1348L7.0332 8.54297L5.04297 10.1348C5.24172 10.5089 5.35547 10.9355 5.35547 11.3887C5.3552 12.8672 4.15634 14.0664 2.67773 14.0664C1.19922 14.0662 0.000270666 12.8672 0 11.3887C0 9.90995 1.19905 8.7111 2.67773 8.71094C3.34226 8.71096 3.94889 8.95465 4.41699 9.35547L6.5332 7.66211V5.30664C5.29379 5.07213 4.35559 3.98529 4.35547 2.67773C4.35547 1.19905 5.55457 0.00021725 7.0332 0ZM2.67773 9.71094C1.75134 9.7111 1 10.4622 1 11.3887C1.00027 12.3149 1.7515 13.0662 2.67773 13.0664C3.60405 13.0664 4.3552 12.3149 4.35547 11.3887C4.35547 10.4622 3.60422 9.71099 2.67773 9.71094ZM11.3887 9.71094C10.4621 9.71094 9.71094 10.4621 9.71094 11.3887C9.71121 12.315 10.4623 13.0664 11.3887 13.0664C12.3148 13.0661 13.0661 12.3148 13.0664 11.3887C13.0664 10.4623 12.315 9.71121 11.3887 9.71094ZM7.0332 1C6.10686 1.00022 5.35547 1.75134 5.35547 2.67773C5.35561 3.60173 6.10325 4.35059 7.02637 4.35449H7.03906C7.96295 4.35149 8.7108 3.60229 8.71094 2.67773C8.71094 1.75123 7.95969 1.00005 7.0332 1Z" fill="var(--fill-0, currentColor)"/>
</svg>
