<svg width="16" height="16" viewBox="0 0 14 14" fill="none" xmlns="http://www.w3.org/2000/svg">
<path id="Union" d="M7 0C8.91064 0 10.6422 0.765822 11.9053 2.00684C11.9216 2.01952 11.9391 2.03189 11.9541 2.04688C11.9687 2.06153 11.9798 2.07881 11.9922 2.09473C13.2335 3.35788 14 5.08911 14 7C14 10.866 10.866 14 7 14C5.08911 14 3.35788 13.2335 2.09473 11.9922C2.07881 11.9798 2.06153 11.9687 2.04688 11.9541C2.03189 11.9391 2.01952 11.9216 2.00684 11.9053C0.765822 10.6422 0 8.91064 0 7C0 3.13401 3.13401 0 7 0ZM3.12695 11.5801C4.17228 12.4649 5.52319 13 7 13C10.3137 13 13 10.3137 13 7C13 5.52319 12.4649 4.17228 11.5801 3.12695L3.12695 11.5801ZM7 1C3.68629 1 1 3.68629 1 7C1 8.47681 1.53507 9.82772 2.41992 10.873L10.873 2.41992C9.82772 1.53507 8.47681 1 7 1Z" fill="var(--fill-0, currentColor)"/>
</svg>
