<svg width="16" height="16" viewBox="0 0 8.87695 11.9971" fill="none" xmlns="http://www.w3.org/2000/svg">
<path id="vector" d="M0 10.5732V1.42383C0 0.448242 0.474609 0 1.51172 0H4.78125C6.89941 0 8.22656 1.14258 8.22656 2.95312C8.22656 4.29785 7.49707 5.25586 6.24023 5.58984V5.67773C7.85742 5.8623 8.87695 6.97852 8.87695 8.62207C8.87695 10.6963 7.25977 11.9971 4.69336 11.9971H1.51172C0.474609 11.9971 0 11.5576 0 10.5732ZM1.98633 5.07129H3.67383C5.45801 5.07129 6.24902 4.47363 6.24902 3.28711C6.24902 2.22363 5.55469 1.58203 4.36816 1.58203H1.98633V5.07129ZM1.98633 10.415H3.89355C5.99414 10.415 6.84668 9.81738 6.84668 8.55176C6.84668 7.3125 6.01172 6.57422 4.52637 6.57422H1.98633V10.415Z" fill="var(--fill-0, currentColor)"/>
</svg>
