<svg width="16" height="16" viewBox="0 0 10.1162 12.1162" fill="none" xmlns="http://www.w3.org/2000/svg">
<path id="Union" d="M6.05762 0C7.93078 0 9.44922 1.51844 9.44922 3.3916C9.44913 4.33418 9.06415 5.18616 8.44336 5.80078C9.44431 6.39045 10.1162 7.47883 10.1162 8.72461C10.1162 10.5978 8.59778 12.1162 6.72461 12.1162H0.724609C0.324311 12.1162 0.000175789 11.7919 0 11.3916V0.724609C0 0.324203 0.324203 0 0.724609 0H6.05762ZM1.44922 10.666H6.72461C7.79696 10.666 8.66602 9.79696 8.66602 8.72461C8.66602 7.65226 7.79696 6.7832 6.72461 6.7832H1.44922V10.666ZM1.44922 5.33301H6.05762C7.12986 5.33301 7.99982 4.4638 8 3.3916C8 2.31925 7.12997 1.44922 6.05762 1.44922H1.44922V5.33301Z" fill="var(--fill-0, currentColor)"/>
</svg>
