<svg width="16" height="16" viewBox="0 0 9.03906 12" fill="none" xmlns="http://www.w3.org/2000/svg">
<path id="Union" d="M1.8623 0V0.00292969C1.88515 0.00137022 1.9084 0 1.93164 0H4.83203C5.58028 4.6771e-05 6.22308 0.12233 6.76074 0.366211C7.30405 0.610147 7.7205 0.956209 8.00879 1.40527C8.29701 1.84875 8.44041 2.37561 8.44043 2.98535V3.00195C8.44043 3.42316 8.34658 3.81681 8.1582 4.18262C7.96973 4.54294 7.71733 4.84819 7.40137 5.09766C7.10324 5.33302 6.76766 5.48704 6.39551 5.55957C6.35691 5.56724 6.32812 5.60125 6.32812 5.64062C6.32836 5.68185 6.36039 5.71577 6.40137 5.7207C6.91432 5.78246 7.36445 5.93864 7.75098 6.1875C8.15545 6.44802 8.47103 6.78652 8.69824 7.20215C8.92544 7.61231 9.03905 8.07765 9.03906 8.59863V8.61523C9.03906 9.31378 8.87366 9.91866 8.54102 10.4287C8.21392 10.9332 7.74457 11.3211 7.13477 11.5928C6.52501 11.8643 5.79304 12 4.93945 12H1.93164C1.90838 12 1.88517 11.9977 1.8623 11.9961V12H1.75C0.783502 12 0 11.2165 0 10.25V1.75C0 0.783502 0.783502 1.93864e-07 1.75 0H1.8623ZM1.8623 10.4785H4.55762C5.40009 10.4785 6.03737 10.3088 6.46973 9.9707C6.90214 9.63253 7.11815 9.14209 7.11816 8.49902V8.48242C7.11816 8.05008 7.01884 7.68963 6.81934 7.40137C6.61975 7.11308 6.32006 6.89707 5.9209 6.75293C5.52731 6.60325 5.03681 6.52833 4.44922 6.52832H1.8623V10.4785ZM1.8623 5.10645H4.0752C4.90108 5.1064 5.525 4.95656 5.94629 4.65723C6.36757 4.35231 6.57812 3.90825 6.57812 3.32617V3.30957C6.57808 2.74418 6.3864 2.30652 6.00391 1.99609C5.62137 1.6801 5.08361 1.52148 4.39062 1.52148H1.8623V5.10645Z" fill="var(--fill-0, currentColor)"/>
</svg>
