<svg width="16" height="16" viewBox="0 0 16 16" fill="none" xmlns="http://www.w3.org/2000/svg">
<path fill-rule="evenodd" clip-rule="evenodd" d="M2.5 1.8335C2.5 1.28121 2.94772 0.833496 3.5 0.833496H12.5C13.0523 0.833496 13.5 1.28121 13.5 1.8335V14.6668C13.5 14.8637 13.3844 15.0423 13.2048 15.1229C13.0252 15.2036 12.815 15.1713 12.6678 15.0405L8 10.8914L3.33218 15.0405C3.18502 15.1713 2.97479 15.2036 2.79517 15.1229C2.61556 15.0423 2.5 14.8637 2.5 14.6668V1.8335ZM12.5 1.8335L3.5 1.8335V13.5534L7.66782 9.84868C7.85726 9.68029 8.14274 9.68029 8.33218 9.84868L12.5 13.5534V1.8335Z" fill="currentColor"/>
</svg>
