<svg width="16" height="16" viewBox="0 0 11 14.333" fill="none" xmlns="http://www.w3.org/2000/svg">
<path id="Union" d="M1 1V12.7197L5.16797 9.01562L5.24316 8.95996C5.42729 8.84953 5.6663 8.86831 5.83203 9.01562L10 12.7197V1H1ZM11 13.833C11 14.0298 10.8845 14.2083 10.7051 14.2891C10.5255 14.3697 10.3151 14.3378 10.168 14.207L5.5 10.0576L0.832031 14.207C0.684873 14.3378 0.474506 14.3697 0.294922 14.2891C0.115508 14.2083 0 14.0298 0 13.833V1C0 0.447715 0.447716 4.02659e-09 1 0H10C10.5523 6.4426e-08 11 0.447715 11 1V13.833Z" fill="var(--fill-0, currentColor)"/>
</svg>
