<svg width="16" height="16" viewBox="0 0 14.5283 12.2734" fill="none" xmlns="http://www.w3.org/2000/svg">
<path id="Union" fill-rule="evenodd" clip-rule="evenodd" d="M13.0283 1C13.3043 1.0002 13.5283 1.22398 13.5283 1.5V10.1455H10.6426C10.6409 10.1455 10.6384 10.1465 10.6357 10.1465C10.6337 10.1465 10.6313 10.1465 10.6285 10.1465C10.6241 10.1464 10.619 10.1464 10.6133 10.1465L10.6092 10.1466C10.5913 10.1469 10.567 10.1473 10.5371 10.1484C10.4719 10.1509 10.379 10.1556 10.2646 10.165C10.0364 10.184 9.71832 10.2215 9.35547 10.2969C8.8828 10.3951 8.31423 10.5617 7.76397 10.8472V1.87073C8.31436 1.47175 8.98277 1.25054 9.55859 1.13086C9.87356 1.06541 10.1501 1.03194 10.3467 1.01562C10.4446 1.0075 10.5225 1.0039 10.5742 1.00195L10.5804 1.00172C10.6032 1.00086 10.6207 1.0002 10.6318 1H13.0283ZM6.76397 1.87047C6.21345 1.4716 5.54452 1.25051 4.96875 1.13086C4.65368 1.0654 4.3772 1.03192 4.18066 1.01562C4.08269 1.00751 4.00478 1.0039 3.95312 1.00195C3.94851 1.00178 3.9441 1.00161 3.9399 1.00145C3.92098 1.00073 3.90639 1.00018 3.89648 1H1.5C1.22386 1 1 1.22386 1 1.5V10.1455H3.88574C3.88745 10.1455 3.88992 10.1465 3.89258 10.1465C3.89792 10.1465 3.90511 10.1463 3.91406 10.1465C3.93248 10.1468 3.95856 10.1472 3.99121 10.1484C4.05648 10.1509 4.14928 10.1556 4.26367 10.165C4.49197 10.184 4.81003 10.2215 5.17285 10.2969C5.64553 10.3951 6.21384 10.562 6.76397 10.8475V1.87047ZM14.0283 11.1455C14.3043 11.1453 14.5283 10.9215 14.5283 10.6455V1.5C14.5283 0.671698 13.8566 0.000202591 13.0283 0H10.6133C10.602 0.000204944 10.5879 0.000810408 10.5712 0.00152871C10.5609 0.00197514 10.5495 0.00246515 10.5371 0.00292969C10.4719 0.00538628 10.379 0.0100534 10.2646 0.0195312C10.0364 0.0384588 9.71835 0.0759648 9.35547 0.151367C8.73703 0.27988 7.95465 0.525382 7.26367 1.00098C6.57289 0.525629 5.79113 0.279869 5.17285 0.151367C4.81005 0.0759757 4.49197 0.0384675 4.26367 0.0195312C4.14929 0.0100476 4.05648 0.00538749 3.99121 0.00292969C3.97914 0.00247513 3.96796 0.00200152 3.95774 0.00156834C3.94032 0.000829902 3.92567 0.000208926 3.91406 0H1.5C0.671573 0 0 0.671572 0 1.5V10.6455C0 10.9216 0.223858 11.1455 0.5 11.1455H3.88379C3.88478 11.1455 3.88609 11.1457 3.88769 11.1458C3.89004 11.1461 3.89301 11.1464 3.89648 11.1465C3.90006 11.1465 3.90424 11.1466 3.90901 11.1466C3.92042 11.1467 3.9352 11.1468 3.95312 11.1475C4.00479 11.1494 4.08267 11.154 4.18066 11.1621C4.37718 11.1784 4.65372 11.2109 4.96875 11.2764C5.60834 11.4093 6.36288 11.6683 6.94238 12.1562C7.12838 12.3124 7.40001 12.3126 7.58594 12.1562C8.16538 11.6684 8.91905 11.4093 9.55859 11.2764C9.87354 11.2109 10.1501 11.1784 10.3467 11.1621C10.4446 11.154 10.5225 11.1494 10.5742 11.1475C10.5924 11.1468 10.6075 11.1467 10.6191 11.1466C10.624 11.1466 10.6282 11.1465 10.6318 11.1465C10.6355 11.1464 10.6384 11.1461 10.6408 11.1458C10.6423 11.1457 10.6436 11.1455 10.6445 11.1455H14.0283Z" fill="var(--fill-0, currentColor)"/>
</svg>
