<svg width="16" height="16" viewBox="0 0 14 14" fill="none" xmlns="http://www.w3.org/2000/svg">
<path id="Union" d="M7.00098 9.28906C8.30156 9.28927 9.35621 10.344 9.35645 11.6445C9.35621 12.9451 8.30156 13.9998 7.00098 14C5.70042 13.9998 4.64575 12.9451 4.64551 11.6445C4.64574 10.344 5.70042 9.2893 7.00098 9.28906ZM7.00098 10.2852C6.25009 10.2854 5.64184 10.8936 5.6416 11.6445C5.64184 12.3954 6.2501 13.0046 7.00098 13.0049C7.75188 13.0047 8.36109 12.3954 8.36133 11.6445C8.36109 10.8936 7.75188 10.2854 7.00098 10.2852ZM2.35547 4.64453C3.65623 4.64453 4.7107 5.6993 4.71094 7C4.71073 8.30073 3.65624 9.35547 2.35547 9.35547C1.05497 9.35515 0.00020746 8.30053 0 7C0.00023363 5.69949 1.05498 4.64485 2.35547 4.64453ZM11.6445 4.64453C12.9453 4.64453 13.9998 5.6993 14 7C13.9998 8.30073 12.9453 9.35547 11.6445 9.35547C10.344 9.35521 9.28927 8.30057 9.28906 7C9.2893 5.69946 10.344 4.64479 11.6445 4.64453ZM2.35547 5.64062C1.60466 5.64095 0.996327 6.24917 0.996094 7C0.996301 7.75085 1.60464 8.36003 2.35547 8.36035C3.10657 8.36035 3.71561 7.75105 3.71582 7C3.71559 6.24897 3.10655 5.64062 2.35547 5.64062ZM11.6445 5.64062C10.8937 5.64088 10.2854 6.24913 10.2852 7C10.2854 7.75089 10.8937 8.36009 11.6445 8.36035C12.3956 8.36035 13.0047 7.75105 13.0049 7C13.0046 6.24897 12.3956 5.64062 11.6445 5.64062ZM7.00098 0C8.30156 0.0002088 9.35621 1.05489 9.35645 2.35547C9.35627 3.65609 8.30159 4.71073 7.00098 4.71094C5.70038 4.7107 4.64568 3.65608 4.64551 2.35547C4.64574 1.05491 5.70042 0.000233639 7.00098 0ZM7.00098 0.996094C6.25009 0.996327 5.64184 1.60459 5.6416 2.35547C5.64178 3.1064 6.25006 3.71559 7.00098 3.71582C7.75192 3.71561 8.36115 3.10642 8.36133 2.35547C8.36109 1.60457 7.75188 0.996302 7.00098 0.996094Z" fill="var(--fill-0, currentColor)"/>
</svg>
