<svg width="16" height="16" viewBox="0 0 16 16" fill="none" xmlns="http://www.w3.org/2000/svg">
<path d="M11.7114 1.79199C12.4635 1.03996 13.684 1.03996 14.436 1.79199C15.1876 2.544 15.1877 3.76373 14.436 4.51562L8.71143 10.2402C8.78509 11.0902 8.49902 11.9659 7.85107 12.6162L7.8501 12.6152C6.9641 13.5203 5.96289 13.9683 4.854 14.0791C3.76288 14.188 2.59144 13.9688 1.35596 13.5977C1.16313 13.5396 1.02352 13.3712 1.00244 13.1709C0.981632 12.9707 1.08372 12.7774 1.26025 12.6807C1.77189 12.4011 2.04289 12.1252 2.20459 11.8682C2.36928 11.6061 2.44591 11.3228 2.51123 10.9717C2.64095 10.2739 2.70768 9.31959 3.63037 8.38672C4.28023 7.72982 5.14675 7.4433 5.98779 7.51465L11.7114 1.79199ZM6.06982 8.53223C5.46155 8.42766 4.81506 8.61103 4.34131 9.08984C3.67535 9.7632 3.6394 10.3767 3.49463 11.1553C3.42268 11.542 3.31822 11.9756 3.05127 12.4004C2.94118 12.5754 2.80626 12.7422 2.64404 12.9023C3.41907 13.075 4.11785 13.1475 4.75439 13.084C5.63437 12.9961 6.4188 12.651 7.13916 11.9141L7.14209 11.9102C7.91677 11.1326 7.91708 9.8705 7.14209 9.0918C6.83965 8.78797 6.46625 8.60158 6.07666 8.5332C6.0744 8.53279 6.07208 8.53267 6.06982 8.53223ZM13.729 2.49902C13.3675 2.13751 12.78 2.13751 12.4185 2.49902L7.0874 7.8291C7.36271 7.96976 7.62116 8.15477 7.85107 8.38574C8.07736 8.61307 8.2587 8.86812 8.39697 9.13965L13.729 3.80859C14.0902 3.44722 14.09 2.86051 13.729 2.49902Z" fill="currentColor"/>
</svg>
