<svg width="16" height="16" viewBox="0 0 13.9999 12.879" fill="none" xmlns="http://www.w3.org/2000/svg">
<path id="Union" d="M10.7117 0.563932C11.4637 -0.187915 12.6843 -0.18804 13.4363 0.563932C14.1879 1.31587 14.1878 2.5356 13.4363 3.28757L7.71165 9.01217C7.78548 9.86227 7.49938 10.7377 6.8513 11.3882L6.85032 11.3872C5.96423 12.2925 4.96329 12.7402 3.85423 12.851C2.76302 12.96 1.59178 12.7408 0.356184 12.3696C0.163186 12.3115 0.0236112 12.1433 0.00266864 11.9428C-0.0180997 11.7425 0.0837163 11.5492 0.260481 11.4526C0.772451 11.1729 1.04315 10.8973 1.20482 10.6401C1.36959 10.3779 1.44612 10.095 1.51146 9.74362C1.64119 9.04577 1.70755 8.09163 2.6306 7.15866C3.28051 6.50171 4.14691 6.21518 4.98802 6.28659L10.7117 0.563932ZM5.0681 7.30417C4.46033 7.20025 3.81484 7.38342 3.34154 7.86178C2.67521 8.53528 2.63965 9.1485 2.49486 9.92721C2.42291 10.314 2.31857 10.7474 2.0515 11.1723C1.94135 11.3476 1.80665 11.514 1.64427 11.6743C2.41943 11.8469 3.11799 11.9195 3.75462 11.8559C4.63476 11.768 5.41892 11.4232 6.13939 10.686L6.14232 10.6821C6.91699 9.90455 6.91731 8.64244 6.14232 7.86374C5.84072 7.56082 5.4682 7.37495 5.07982 7.30612C5.07591 7.30543 5.07199 7.30495 5.0681 7.30417ZM12.7292 1.27096C12.3678 0.909515 11.7802 0.909641 11.4187 1.27096L6.08763 6.60104C6.36289 6.74167 6.62141 6.92678 6.8513 7.15768C7.07749 7.38492 7.25895 7.64019 7.3972 7.91159L12.7292 2.58053C13.0903 2.2191 13.0903 1.63237 12.7292 1.27096Z" fill="var(--fill-0, currentColor)"/>
</svg>
