<svg width="16" height="16" viewBox="0 0 9 10.6006" fill="none" xmlns="http://www.w3.org/2000/svg">
<path id="Union" d="M8.5 9.60059C8.77614 9.60059 9 9.82444 9 10.1006C8.99974 10.3765 8.77598 10.6006 8.5 10.6006H0.5C0.22402 10.6006 0.000263701 10.3765 0 10.1006C0 9.82444 0.223858 9.60059 0.5 9.60059H8.5ZM8.5 4.7998C8.77614 4.7998 9 5.02366 9 5.2998C9 5.57595 8.77614 5.7998 8.5 5.7998H0.5C0.223858 5.7998 0 5.57595 0 5.2998C0 5.02366 0.223858 4.7998 0.5 4.7998H8.5ZM8.5 0C8.77614 0 9 0.223858 9 0.5C9 0.776142 8.77614 1 8.5 1H0.5C0.223858 1 0 0.776142 0 0.5C0 0.223858 0.223858 0 0.5 0H8.5Z" fill="var(--fill-0, currentColor)"/>
</svg>
