<svg width="16" height="16" viewBox="0 0 13.9912 14.3761" fill="none" xmlns="http://www.w3.org/2000/svg">
<path id="Union" fill-rule="evenodd" clip-rule="evenodd" d="M2.72874 1.57617V0.5C2.72874 0.223858 2.9526 0 3.22874 0C3.50488 0 3.72874 0.223858 3.72874 0.5V1.57617L3.72874 1.57739L4 1.57625H9.99121C10.0847 1.57625 10.1751 1.57625 10.2625 1.57633C10.2625 1.57628 10.2625 1.57622 10.2625 1.57617V0.5C10.2625 0.223858 10.4863 0 10.7625 0C11.0386 0 11.2625 0.223858 11.2625 0.5V1.57617C11.2625 1.58053 11.2624 1.58488 11.2623 1.58921C11.8766 1.61202 12.2849 1.67497 12.626 1.84871C13.0964 2.08839 13.4791 2.47108 13.7188 2.94148C13.9911 3.47624 13.9912 4.17627 13.9912 5.57625V10.3761L13.9873 11.3038C13.9745 12.116 13.9229 12.6098 13.7188 13.0108L13.6221 13.1837C13.3819 13.5752 13.0375 13.8939 12.626 14.1036C12.2248 14.3079 11.7308 14.3594 10.918 14.3721L9.99121 14.3761H4L3.07324 14.3721C2.39567 14.3615 1.93962 14.3239 1.57422 14.1934L1.36523 14.1036C0.894829 13.8639 0.512144 13.4812 0.272461 13.0108C0.000145958 12.4761 0 11.7759 0 10.3761V5.57625C0 4.35101 2.19714e-05 3.66188 0.182617 3.15047L0.272461 2.94148C0.482108 2.53003 0.800962 2.18558 1.19238 1.94539L1.36523 1.84871C1.70631 1.67497 2.11461 1.61175 2.7289 1.58887L2.72874 1.57617ZM9.99121 13.3761H4C3.28346 13.3761 2.80616 13.3757 2.43945 13.3458C2.0848 13.3168 1.92228 13.2653 1.81934 13.213C1.53716 13.0692 1.3069 12.8398 1.16309 12.5577C1.11064 12.4548 1.05928 12.2916 1.03027 11.9366C1.00033 11.5699 1 11.0925 1 10.3761V6.37546C1.02486 6.37926 1.05032 6.38124 1.07625 6.38124H12.9151C12.941 6.38123 12.9664 6.37925 12.9912 6.37546V10.3761C12.9912 11.0925 12.9909 11.5699 12.9609 11.9366C12.9319 12.2916 12.8806 12.4548 12.8281 12.5577C12.6843 12.8398 12.4541 13.0692 12.1719 13.213C12.0689 13.2653 11.9064 13.3168 11.5518 13.3458C11.185 13.3757 10.7078 13.3761 9.99121 13.3761ZM12.9912 5.38701C12.9664 5.38321 12.941 5.38124 12.9151 5.38124H1.07625C1.05033 5.38124 1.02488 5.38321 1.00003 5.38701C1.0003 4.77401 1.00303 4.34913 1.03027 4.0157C1.05924 3.66114 1.11072 3.49853 1.16309 3.39558C1.3069 3.11334 1.53709 2.88314 1.81934 2.73933C1.92228 2.68697 2.0849 2.63549 2.43945 2.60652C2.80616 2.57656 3.28347 2.57625 4 2.57625H9.99121C10.7077 2.57625 11.1851 2.57656 11.5518 2.60652C11.9063 2.63549 12.0689 2.68697 12.1719 2.73933C12.4541 2.88314 12.6843 3.11334 12.8281 3.39558C12.8805 3.49853 12.932 3.66114 12.9609 4.0157C12.9882 4.34913 12.9909 4.774 12.9912 5.38701Z" fill="var(--fill-0, currentColor)"/>
</svg>
