<svg width="16" height="16" viewBox="0 0 16 16" fill="none" xmlns="http://www.w3.org/2000/svg">
<path fill-rule="evenodd" clip-rule="evenodd" d="M4.23265 0.640137C4.50879 0.640137 4.73265 0.863994 4.73265 1.14014V2.21638V2.21646L5.00391 2.21638H10.9951C11.0886 2.21638 11.179 2.21638 11.2664 2.21646C11.2664 2.21644 11.2664 2.21641 11.2664 2.21638V1.14014C11.2664 0.863994 11.4902 0.640137 11.7664 0.640137C12.0425 0.640137 12.2664 0.863994 12.2664 1.14014V2.21638C12.2664 2.22071 12.2663 2.22502 12.2662 2.22932C12.8806 2.25212 13.289 2.31506 13.6301 2.48887C14.1005 2.72855 14.483 3.111 14.7226 3.58141C14.9951 4.11619 14.9951 4.81625 14.9951 6.21638V11.0164C14.9951 12.4165 14.9951 13.1166 14.7226 13.6514C14.483 14.1218 14.1005 14.5042 13.6301 14.7439C13.0953 15.0164 12.3952 15.0164 10.9951 15.0164H5.00391C3.60377 15.0164 2.90371 15.0164 2.36893 14.7439C1.89852 14.5042 1.51607 14.1218 1.27639 13.6514C1.00391 13.1166 1.00391 12.4165 1.00391 11.0164V6.21639C1.00391 4.81625 1.00391 4.11619 1.27639 3.58141C1.51607 3.111 1.89852 2.72855 2.36893 2.48887C2.71004 2.31506 3.11841 2.25212 3.73281 2.22933L3.73265 2.21638V1.14014C3.73265 0.863994 3.9565 0.640137 4.23265 0.640137ZM5.00391 3.21638H10.9951C11.7117 3.21638 12.189 3.21716 12.5557 3.24712C12.9107 3.27613 13.0732 3.32743 13.1761 3.37987C13.4583 3.52368 13.6878 3.75315 13.8316 4.0354C13.8841 4.13832 13.9354 4.30078 13.9644 4.65582C13.9916 4.98926 13.9947 5.41411 13.9951 6.02714C13.9702 6.02334 13.9448 6.02137 13.9189 6.02137H2.08015C2.05424 6.02137 2.02879 6.02334 2.00395 6.02714C2.00429 5.41411 2.0074 4.98926 2.03465 4.65582C2.06365 4.30078 2.11496 4.13832 2.1674 4.0354C2.31121 3.75315 2.54068 3.52368 2.82292 3.37987C2.92584 3.32743 3.0883 3.27613 3.44334 3.24712C3.81006 3.21716 4.28734 3.21638 5.00391 3.21638ZM2.00391 7.01559V11.0164C2.00391 11.733 2.00468 12.2102 2.03465 12.5769C2.06365 12.932 2.11496 13.0944 2.1674 13.1974C2.31121 13.4796 2.54068 13.7091 2.82292 13.8529C2.92584 13.9053 3.0883 13.9566 3.44334 13.9856C3.81006 14.0156 4.28734 14.0164 5.00391 14.0164H10.9951C11.7117 14.0164 12.189 14.0156 12.5557 13.9856C12.9107 13.9566 13.0732 13.9053 13.1761 13.8529C13.4583 13.7091 13.6878 13.4796 13.8316 13.1974C13.8841 13.0944 13.9354 12.932 13.9644 12.5769C13.9943 12.2102 13.9951 11.7329 13.9951 11.0164V7.01559C13.9703 7.0194 13.9448 7.02137 13.9189 7.02137H2.08015C2.05423 7.02137 2.02877 7.0194 2.00391 7.01559Z" fill="currentColor"/>
</svg>
