<svg width="16" height="16" viewBox="0 0 14 14.376" fill="none" xmlns="http://www.w3.org/2000/svg">
<path id="Union" d="M10.7637 0C11.0397 0.00011696 11.2637 0.22393 11.2637 0.5V1.57715C11.2637 1.58108 11.2618 1.58496 11.2617 1.58887C11.8812 1.61138 12.292 1.67402 12.6348 1.84863C13.1052 2.08831 13.4879 2.47103 13.7275 2.94141C13.9999 3.47615 14 4.17624 14 5.57617V10.376C14 11.7758 13.9998 12.476 13.7275 13.0107L13.6309 13.1836C13.3907 13.5751 13.0463 13.8938 12.6348 14.1035C12.1 14.3759 11.4 14.376 10 14.376H4L3.07324 14.3721C2.39567 14.3614 1.93962 14.3238 1.57422 14.1934L1.36523 14.1035C0.894843 13.8638 0.512139 13.4811 0.272461 13.0107C0.000175369 12.476 0 11.7758 0 10.376V5.57617C9.34624e-10 4.35098 2.55673e-05 3.6618 0.182617 3.15039L0.272461 2.94141C0.482108 2.52998 0.80098 2.18549 1.19238 1.94531L1.36523 1.84863C1.70642 1.67485 2.1149 1.61166 2.72949 1.58887C2.7294 1.58497 2.72852 1.58107 2.72852 1.57715V0.5C2.72852 0.22393 2.95247 0.000117218 3.22852 0C3.50466 0 3.72852 0.223858 3.72852 0.5V1.57617H10C10.0908 1.57617 10.1786 1.57707 10.2637 1.57715V0.5C10.2637 0.223858 10.4875 0 10.7637 0ZM12.916 6.38184H1.07617C1.05012 6.38183 1.02497 6.37689 1 6.37305V10.376C1 11.0923 1.00034 11.5699 1.03027 11.9365C1.05928 12.2915 1.11065 12.4547 1.16309 12.5576C1.3069 12.8398 1.53717 13.0691 1.81934 13.2129C1.92227 13.2653 2.08481 13.3167 2.43945 13.3457C2.80616 13.3757 3.28346 13.376 4 13.376H10C10.7165 13.376 11.1938 13.3757 11.5605 13.3457C11.9152 13.3167 12.0777 13.2653 12.1807 13.2129C12.4628 13.0691 12.6931 12.8398 12.8369 12.5576C12.8893 12.4547 12.9407 12.2915 12.9697 11.9365C12.9997 11.5699 13 11.0923 13 10.376V6.37207C12.9726 6.37674 12.9448 6.38182 12.916 6.38184ZM10.2871 9.36426C11.0513 9.44164 11.6492 10.0867 11.6494 10.8711L11.6416 11.0264C11.5636 11.79 10.917 12.3866 10.1328 12.3867L9.97754 12.3789C9.21367 12.3013 8.61646 11.6552 8.61621 10.8711C8.6164 10.0345 9.29622 9.35645 10.1328 9.35645L10.2871 9.36426ZM10.1328 10.3564C9.84726 10.3564 9.6164 10.5881 9.61621 10.8711C9.61648 11.1541 9.84731 11.3867 10.1328 11.3867C10.4182 11.3866 10.6491 11.154 10.6494 10.8711C10.6492 10.5881 10.4183 10.3565 10.1328 10.3564ZM4 2.57617C3.28347 2.57617 2.80616 2.57649 2.43945 2.60645C2.08493 2.63541 1.92228 2.6869 1.81934 2.73926C1.53711 2.88306 1.3069 3.11329 1.16309 3.39551C1.11072 3.49844 1.05924 3.66112 1.03027 4.01562C1.01529 4.19904 1.00784 4.41021 1.00391 4.66504L1 5.38867C1.02489 5.38485 1.05021 5.38184 1.07617 5.38184H12.916C12.9443 5.38185 12.972 5.38511 12.999 5.38965C12.9988 4.77522 12.997 4.34954 12.9697 4.01562C12.9408 3.66112 12.8893 3.49844 12.8369 3.39551C12.6931 3.11329 12.4629 2.88306 12.1807 2.73926C12.0777 2.6869 11.9151 2.63541 11.5605 2.60645C11.1938 2.57649 10.7165 2.57617 10 2.57617H4Z" fill="var(--fill-0, currentColor)"/>
</svg>
