<svg width="16" height="16" viewBox="0 0 14.0039 14.3769" fill="none" xmlns="http://www.w3.org/2000/svg">
<path id="Union" fill-rule="evenodd" clip-rule="evenodd" d="M2.73138 1.57715V0.5C2.73138 0.223858 2.95524 0 3.23138 0C3.50752 0 3.73138 0.223858 3.73138 0.5V1.57715V1.57721L4 1.57713H10.0039L10.2723 1.57826C10.2723 1.57789 10.2723 1.57752 10.2723 1.57715V0.5C10.2723 0.223858 10.4961 0 10.7723 0C11.0484 0 11.2723 0.223858 11.2723 0.5V1.57715C11.2723 1.58132 11.2722 1.58549 11.2721 1.58964C11.888 1.61242 12.2971 1.67553 12.6387 1.84959C13.1091 2.08927 13.4918 2.47196 13.7314 2.94236C14.0038 3.4771 14.0039 4.17724 14.0039 5.57713V10.3769L13.999 11.3047C13.9862 12.1168 13.9356 12.6107 13.7314 13.0117L13.6348 13.1845C13.3946 13.5761 13.0502 13.8948 12.6387 14.1045L12.4297 14.1943C12.0643 14.3248 11.6082 14.3624 10.9307 14.373L10.0039 14.3769H4L3.07324 14.373C2.39567 14.3624 1.93962 14.3248 1.57422 14.1943L1.36523 14.1045C0.894829 13.8648 0.512144 13.4821 0.272461 13.0117C0.000145958 12.477 0 11.7768 0 10.3769V5.57713C0 4.35189 2.19714e-05 3.66276 0.182617 3.15134L0.272461 2.94236C0.482108 2.53091 0.800962 2.18646 1.19238 1.94627L1.36523 1.84959C1.7068 1.6756 2.11579 1.61272 2.73154 1.58999L2.73138 1.57715ZM4 13.3769H10.0039C10.7203 13.3769 11.1978 13.3766 11.5645 13.3467C11.9192 13.3177 12.0817 13.2663 12.1846 13.2138C12.4666 13.0701 12.696 12.8406 12.8398 12.5586C12.8923 12.4556 12.9436 12.2925 12.9727 11.9375C13.0026 11.5708 13.0039 11.0934 13.0039 10.3769V6.38016C12.9788 6.38408 12.953 6.38612 12.9267 6.38614H1.07713C1.0509 6.38614 1.02514 6.38412 1 6.38023V10.3769C1 11.0933 1.00033 11.5708 1.03027 11.9375C1.05928 12.2925 1.11064 12.4556 1.16309 12.5586C1.3069 12.8407 1.53716 13.0701 1.81934 13.2138C1.92228 13.2662 2.08481 13.3177 2.43945 13.3467C2.80616 13.3766 3.28346 13.3769 4 13.3769ZM1.00003 5.39205C1.00029 4.77681 1.00297 4.35076 1.03027 4.01658C1.05924 3.66202 1.11072 3.49941 1.16309 3.39646C1.3069 3.11422 1.53709 2.88402 1.81934 2.74021C1.92228 2.68784 2.0849 2.63637 2.43945 2.6074C2.80616 2.57744 3.28347 2.57713 4 2.57713H10.0039C10.7203 2.57713 11.1978 2.57744 11.5645 2.6074C11.9191 2.63639 12.0817 2.68782 12.1846 2.74021C12.4668 2.88402 12.696 3.11422 12.8398 3.39646C12.8923 3.49939 12.9437 3.66169 12.9727 4.01658C13 4.35078 13.0035 4.77681 13.0039 5.39211C12.9787 5.3882 12.953 5.38616 12.9267 5.38614H1.07713C1.05091 5.38614 1.02516 5.38816 1.00003 5.39205ZM9.14166 7.55705C9.32218 7.34818 9.6378 7.32581 9.84674 7.50627C10.0557 7.68677 10.079 8.00238 9.8985 8.21135L6.48053 12.1684C6.38672 12.2769 6.25096 12.3398 6.10748 12.3412C5.96398 12.3427 5.82654 12.2829 5.73053 12.1762L4.11139 10.3774C3.92692 10.1722 3.94362 9.85603 4.1485 9.67131C4.35376 9.48658 4.6708 9.50316 4.85553 9.70842L6.09381 11.0854L9.14166 7.55705Z" fill="var(--fill-0, currentColor)"/>
</svg>
