<svg width="16" height="16" viewBox="0 0 14 4" fill="none" xmlns="http://www.w3.org/2000/svg">
<path id="Union" d="M2 0C3.10457 0 4 0.895431 4 2C4 3.10457 3.10457 4 2 4C0.895431 4 0 3.10457 0 2C0 0.895431 0.895431 0 2 0ZM7 0C8.10457 0 9 0.895431 9 2C9 3.10457 8.10457 4 7 4C5.89543 4 5 3.10457 5 2C5 0.895431 5.89543 0 7 0ZM12 0C13.1046 0 14 0.895431 14 2C14 3.10457 13.1046 4 12 4C10.8954 4 10 3.10457 10 2C10 0.895431 10.8954 0 12 0ZM12 1C11.4477 1 11 1.44772 11 2C11 2.55228 11.4477 3 12 3C12.5523 3 13 2.55228 13 2C13 1.44772 12.5523 1 12 1ZM2 1C1.44772 1 1 1.44772 1 2C1 2.55228 1.44772 3 2 3C2.55228 3 3 2.55228 3 2C3 1.44772 2.55228 1 2 1ZM7 1C6.44772 1 6 1.44772 6 2C6 2.55228 6.44772 3 7 3C7.55228 3 8 2.55228 8 2C8 1.44772 7.55228 1 7 1Z" fill="var(--fill-0, currentColor)"/>
</svg>
