<svg width="16" height="16" viewBox="0 0 14 13" fill="none" xmlns="http://www.w3.org/2000/svg">
<path id="Union" d="M10.7998 8.14907e-10C11.9199 8.14907e-10 12.4804 -0.00021353 12.9082 0.217773C13.2844 0.409514 13.5905 0.71561 13.7822 1.0918C14 1.51957 14 2.08043 14 3.2002V9.7998C14 10.9196 14.0002 11.4804 13.7822 11.9082L13.7051 12.0459C13.5129 12.359 13.2373 12.6145 12.9082 12.7822L12.7402 12.8535C12.3311 12.9995 11.7797 13 10.7998 13H3.2002L2.45801 12.9971C1.91653 12.9886 1.55191 12.9577 1.25977 12.8535L1.0918 12.7822C0.762686 12.6145 0.487057 12.359 0.294922 12.0459L0.217773 11.9082C-0.000181853 11.4804 -5.66359e-08 10.9196 8.03504e-10 9.7998V3.2002C8.03504e-10 2.08043 -1.59173e-05 1.51957 0.217773 1.0918C0.409474 0.71561 0.715634 0.409514 1.0918 0.217773C1.41263 0.0543032 1.80804 0.0131541 2.45801 0.00292969L3.2002 8.14907e-10H10.7998ZM3.2002 1C2.62364 1 2.25111 1.00126 1.96777 1.02441C1.69622 1.04661 1.59533 1.08419 1.5459 1.10938C1.35802 1.20522 1.20518 1.35799 1.10938 1.5459C1.08419 1.59548 1.04655 1.6969 1.02441 1.96777C1.0013 2.25105 1 2.62397 1 3.2002V9.7998C1 10.3761 1.00127 10.749 1.02441 11.0322C1.04662 11.3034 1.0842 11.4047 1.10938 11.4541C1.20523 11.6419 1.35806 11.7949 1.5459 11.8906C1.59541 11.9158 1.69655 11.9534 1.96777 11.9756C2.25111 11.9987 2.62367 12 3.2002 12H10.7998C11.3763 12 11.7489 11.9987 12.0322 11.9756C12.3035 11.9534 12.4046 11.9158 12.4541 11.8906C12.6419 11.7949 12.7948 11.6419 12.8906 11.4541C12.9158 11.4047 12.9534 11.3034 12.9756 11.0322C12.9987 10.749 13 10.3761 13 9.7998V3.2002C13 2.62397 12.9987 2.25105 12.9756 1.96777C12.9534 1.6969 12.9158 1.59548 12.8906 1.5459C12.7948 1.35799 12.642 1.20522 12.4541 1.10938C12.4047 1.08419 12.3038 1.04661 12.0322 1.02441C11.8906 1.01285 11.7268 1.00602 11.5264 1.00293L10.7998 1H3.2002ZM10.7461 8.99902C11.1602 8.99902 11.4959 9.33499 11.4961 9.74902C11.4961 10.1632 11.1603 10.499 10.7461 10.499C10.3319 10.499 9.99609 10.1632 9.99609 9.74902C9.9963 9.33499 10.332 8.99902 10.7461 8.99902ZM11.4961 2.5C11.7722 2.5 11.9961 2.72386 11.9961 3C11.9958 3.27592 11.7721 3.5 11.4961 3.5H2.49609C2.22011 3.5 1.99636 3.27592 1.99609 3C1.99609 2.72386 2.21995 2.5 2.49609 2.5H11.4961Z" fill="var(--fill-0, currentColor)"/>
</svg>
