<svg width="16" height="16" viewBox="0 0 15.8654 6.57927" fill="none" xmlns="http://www.w3.org/2000/svg">
<path id="Union" d="M1.89199 5.45195C2.04652 5.60648 2.28611 5.63766 2.47549 5.5286L2.97268 5.24272C3.91335 4.70083 4.37675 3.59845 4.10446 2.54895C4.0425 2.31032 3.98039 2.06946 3.92009 1.83839C2.90608 2.30826 2.0642 2.8424 1.2567 3.51431C0.884083 3.82458 0.858381 4.41834 1.24634 4.8063L1.89199 5.45195ZM14.584 4.79594C14.7991 4.5807 14.8938 4.34506 14.8989 4.14408C14.9036 3.95203 14.8287 3.75195 14.6241 3.57784C14.5699 3.53176 14.5136 3.48309 14.4556 3.43283C13.6248 2.78556 12.7364 2.25449 11.8336 1.85634L11.661 2.60764C11.4281 3.62738 11.8781 4.68179 12.7755 5.21924L13.3189 5.54448C13.509 5.65815 13.752 5.62779 13.9087 5.47128L14.584 4.79594ZM0.563403 5.48924C-0.180958 4.74488 -0.219523 3.48471 0.638671 2.77061C1.65615 1.92401 2.7252 1.2798 4.05681 0.721102L4.06993 0.714887L4.08374 0.710744C5.50349 0.213398 6.14207 0.071392 7.71733 0.00501817C9.3455 -0.0635828 11.2727 0.591314 11.6617 0.739746C12.8419 1.19015 13.9995 1.85064 15.0625 2.68084L15.0819 2.69741C15.1391 2.74707 15.1957 2.79459 15.2504 2.84104C15.6685 3.1967 15.877 3.672 15.8649 4.16687C15.853 4.65284 15.6305 5.11658 15.2676 5.47957L14.5923 6.15491C14.1222 6.6249 13.3921 6.71469 12.8218 6.37312L12.279 6.04857C11.0226 5.2961 10.393 3.8199 10.7191 2.39219L10.9221 1.50693C10.2286 1.28496 8.88307 0.923675 7.75808 0.971075C6.45053 1.02617 5.87446 1.12748 4.82469 1.47793C4.89436 1.74459 4.96767 2.0261 5.04013 2.30519C5.42238 3.77723 4.77137 5.3212 3.45467 6.07965L2.95817 6.36622C2.39004 6.6934 1.67264 6.59848 1.20905 6.13489L0.563403 5.48924Z" fill="var(--fill-0, currentColor)"/>
</svg>
