<svg width="16" height="16" viewBox="0 0 13.4626 13.5186" fill="none" xmlns="http://www.w3.org/2000/svg">
<path id="Union" fill-rule="evenodd" clip-rule="evenodd" d="M11.3744 2.08817C12.711 3.42477 13.4623 5.23748 13.4626 7.12769C13.4626 7.40375 13.2387 7.62747 12.9626 7.62764C12.6865 7.62768 12.4627 7.40383 12.4627 7.12769C12.4624 5.5027 11.8163 3.94434 10.6673 2.79528C9.51825 1.64623 7.95988 1.00023 6.33489 0.999893C6.05874 0.999851 5.8349 0.776089 5.83494 0.499947C5.83508 0.223886 6.0588 -4.16988e-05 6.33489 5.82077e-09C8.22509 0.000332876 10.0378 0.751593 11.3744 2.08817ZM9.40071 4.06223C10.2136 4.87525 10.6701 5.97783 10.6706 7.12752C10.6706 7.4036 10.4468 7.62735 10.1707 7.62746C9.89473 7.62732 9.67082 7.4035 9.67071 7.12752C9.67027 6.24301 9.31897 5.39485 8.6936 4.76934C8.06803 4.14377 7.21943 3.79194 6.33474 3.79155C6.05869 3.79143 5.83484 3.56761 5.83479 3.2916C5.8349 3.01555 6.05873 2.7917 6.33474 2.79165C7.48454 2.79212 8.58767 3.2492 9.40071 4.06223ZM2.97128 1.02971L2.84335 1.02385H1.92343C1.39173 1.02389 0.889926 1.20072 0.52597 1.54827C0.155571 1.90211 -0.0387088 2.40243 0.0064391 2.96819C0.00790561 2.98656 0.00941539 3.00505 0.0109357 3.02368C0.0147515 3.07043 0.0186336 3.11798 0.0220641 3.16643V3.17913L0.0240172 3.1928C0.190923 4.5544 0.546638 5.86259 1.06992 7.03557C1.24509 7.42822 1.43952 7.80634 1.65195 8.16643V8.16545C2.55334 9.69926 3.81501 10.9899 5.32773 11.9262V11.9272C5.6264 12.1126 5.9349 12.2776 6.25156 12.4242C6.33553 12.4631 6.42032 12.5011 6.50546 12.5375C7.71577 13.0548 9.04683 13.3268 10.4498 13.4985L10.5201 13.5073V13.5063C11.1408 13.583 11.6438 13.2935 11.9674 12.8823C12.2829 12.4812 12.4485 11.948 12.4478 11.4321L12.4469 10.7035C12.4461 10.0312 11.9977 9.44108 11.3502 9.26018L10.8697 9.12639C9.33536 8.6982 7.70526 9.36001 6.9039 10.7367L6.4996 11.4301C6.27937 11.3216 6.06381 11.2066 5.85605 11.0776H5.85507C4.4799 10.2267 3.33259 9.05283 2.51328 7.65862V7.65764L2.37167 7.41057C2.30103 7.28238 2.23357 7.15116 2.16757 7.01799L2.91367 6.54827C4.19287 5.74203 4.80965 4.20564 4.44296 2.7387L4.29843 2.15959C4.1418 1.53385 3.60474 1.08367 2.97128 1.02971ZM7.76816 11.2406C8.34052 10.257 9.50505 9.78332 10.6012 10.0893L11.0807 10.2231C11.2965 10.2833 11.4466 10.4804 11.4469 10.7045L11.4478 11.433C11.4482 11.7504 11.3425 12.0581 11.1812 12.2631C11.0282 12.4577 10.848 12.5396 10.6422 12.5141L10.5719 12.5053C9.4286 12.3655 8.37997 12.1596 7.42831 11.8217L7.76816 11.2406ZM1.2164 2.27092C1.34801 2.14525 1.54949 2.05048 1.80917 2.02873L1.92343 2.02385H2.84335L2.92734 2.03069C3.12024 2.0635 3.27998 2.20788 3.3287 2.40276L3.47324 2.98088C3.73521 4.02876 3.29427 5.12668 2.38046 5.70256L1.7623 6.09123C1.40328 5.15951 1.14898 4.14336 1.01816 3.08538C1.01334 3.0178 1.00856 2.95233 1.00351 2.88909C0.981271 2.6105 1.07265 2.40822 1.2164 2.27092Z" fill="var(--fill-0, currentColor)"/>
</svg>
