<svg width="16" height="16" viewBox="0 0 12.9998 13.0038" fill="none" xmlns="http://www.w3.org/2000/svg">
<path id="Union" d="M12.033 10.0098C12.033 9.79129 11.8865 9.59982 11.6756 9.54297L10.9022 9.33496C9.85378 9.05299 8.74679 9.50466 8.19708 10.4395C8.03403 10.7168 7.86829 10.9997 7.71075 11.2686C8.87293 11.6979 9.94673 11.9342 11.1092 12.0332C11.596 12.0746 12.033 11.6706 12.033 11.123V10.0098ZM1.86797 0.966797C1.5629 0.966797 1.32575 1.06714 1.17754 1.20703C1.03632 1.34033 0.94757 1.53369 0.969536 1.79883C0.977988 1.90066 0.986811 2.00865 0.994927 2.12207C1.13491 3.25105 1.4084 4.33526 1.79668 5.32715L2.63946 4.79883C3.52511 4.24242 3.95251 3.17956 3.69805 2.16504L3.48907 1.33203C3.43504 1.11725 3.24182 0.966808 3.02032 0.966797H1.86797ZM12.9998 11.123C12.9998 12.1769 12.136 13.0914 11.0272 12.9971C9.59004 12.8747 8.27722 12.5551 6.82403 11.9609L6.81036 11.9551L6.79766 11.9492C5.35711 11.2561 4.77204 10.8834 3.53887 9.75C2.26666 8.58066 1.31047 6.64216 1.12969 6.23828C0.581622 5.01379 0.208874 3.64786 0.0339892 2.22559L0.0320361 2.21387V2.20117C0.0241006 2.08945 0.0152217 1.98223 0.00664549 1.87891C-0.0390051 1.32891 0.152759 0.844507 0.513481 0.503906C0.867391 0.169858 1.35492 0 1.86797 0H3.02032C3.68516 1.07355e-05 4.2648 0.452792 4.42657 1.09766L4.63555 1.92969C4.99188 3.35016 4.39328 4.83923 3.15313 5.61816L2.1961 6.21875C2.54672 6.90325 3.29618 8.21363 4.19317 9.03809C5.22952 9.99062 5.74195 10.347 6.81622 10.8818C6.99162 10.5823 7.17913 10.2621 7.36309 9.94922C8.13395 8.63822 9.68667 8.00644 11.1541 8.40137L11.9266 8.60938C12.5597 8.77976 12.9998 9.35415 12.9998 10.0098V11.123Z" fill="var(--fill-0, currentColor)"/>
</svg>
