<svg width="16" height="16" viewBox="0 0 15 13" fill="none" xmlns="http://www.w3.org/2000/svg">
<path id="Union" d="M8.5 0C9.28689 0 10.0279 0.370485 10.5 1L11.0996 1.7998C11.194 1.92571 11.3426 2 11.5 2H12.5C13.8807 2 15 3.11929 15 4.5V10.5C15 11.8807 13.8807 13 12.5 13H2.5C1.11929 13 1.61064e-08 11.8807 0 10.5V4.5C0 3.11929 1.11929 2 2.5 2H3.5C3.65738 2 3.80596 1.92571 3.90039 1.7998L4.5 1C4.97214 0.370485 5.71311 0 6.5 0H8.5ZM6.5 1C6.02793 1 5.58309 1.222 5.2998 1.59961L4.7002 2.40039C4.41691 2.778 3.97207 3 3.5 3H2.5C1.67157 3 1 3.67157 1 4.5V10.5C1 11.3284 1.67157 12 2.5 12H12.5C13.3284 12 14 11.3284 14 10.5V4.5C14 3.67157 13.3284 3 12.5 3H11.5C11.0279 3 10.5831 2.778 10.2998 2.40039L9.7002 1.59961C9.41691 1.222 8.97207 1 8.5 1H6.5ZM7.5 3.92969C9.29477 3.92969 10.7497 5.38498 10.75 7.17969C10.75 8.97461 9.29493 10.4297 7.5 10.4297C5.70507 10.4297 4.25 8.97461 4.25 7.17969C4.25026 5.38498 5.70523 3.92969 7.5 3.92969ZM7.5 4.92969C6.25752 4.92969 5.25026 5.93727 5.25 7.17969C5.25 8.42233 6.25736 9.42969 7.5 9.42969C8.74264 9.42969 9.75 8.42233 9.75 7.17969C9.74974 5.93727 8.74248 4.92969 7.5 4.92969ZM12.2607 4.09961C12.6058 4.09961 12.8856 4.37955 12.8857 4.72461C12.8857 5.06979 12.6059 5.34961 12.2607 5.34961C11.9156 5.34961 11.6357 5.06979 11.6357 4.72461C11.6359 4.37955 11.9156 4.09961 12.2607 4.09961Z" fill="var(--fill-0, currentColor)"/>
</svg>
