<svg width="16" height="16" viewBox="0 0 14 14.0448" fill="none" xmlns="http://www.w3.org/2000/svg">
<path id="Union" fill-rule="evenodd" clip-rule="evenodd" d="M7 1C10.3137 1 13 3.68629 13 7C13 10.3137 10.3137 13 7 13C5.88723 13 4.84648 12.6978 3.9541 12.1709C3.83179 12.0987 3.68426 12.0812 3.54883 12.124L1.45605 12.7852L2.05664 10.7246C2.09777 10.5834 2.07433 10.4312 1.99316 10.3086C1.36525 9.36043 1 8.2235 1 7C1 3.68629 3.68629 1 7 1ZM7 14C10.866 14 14 10.866 14 7C14 3.13401 10.866 0 7 0C3.13401 0 0 3.13401 0 7C0 8.34139 0.378154 9.59565 1.0332 10.6611L0.234375 13.4053C0.182797 13.5823 0.232537 13.7733 0.364258 13.9023C0.496238 14.0314 0.689266 14.0771 0.865234 14.0215L3.64746 13.1416C4.64394 13.6866 5.78547 14 7 14ZM7.44531 3.62818C7.64058 3.43294 7.9571 3.43292 8.15234 3.62818C8.34756 3.82343 8.34756 4.13996 8.15234 4.33521L6.3584 6.12915L8.71582 7.13013C8.86886 7.19505 8.97998 7.33218 9.01172 7.49537C9.04338 7.65849 8.99153 7.82708 8.87402 7.94458L6.44629 10.3713C6.25102 10.5666 5.93452 10.5666 5.73926 10.3713C5.54426 10.1761 5.54408 9.85948 5.73926 9.66431L7.64355 7.76099L5.28418 6.76099C5.13118 6.69606 5.02001 6.55891 4.98828 6.39576C4.95677 6.2328 5.00865 6.06492 5.12598 5.94751L7.44531 3.62818Z" fill="var(--fill-0, currentColor)"/>
</svg>
