<svg width="16" height="16" viewBox="0 0 11.0002 14.3331" fill="none" xmlns="http://www.w3.org/2000/svg">
<path id="Union" d="M3.26953 0.115399C3.64103 -0.0384663 4.05916 -0.0384663 4.43066 0.115399L5.30273 0.476727L5.30176 0.477704C5.42819 0.529856 5.57093 0.52915 5.69727 0.476727L5.69824 0.47575L6.57129 0.115399V0.116375C6.94253 -0.037058 7.35932 -0.0373438 7.73047 0.116375C8.10186 0.270217 8.39684 0.565347 8.55078 0.936688L8.91309 1.80876L8.96094 1.89763C9.0171 1.98169 9.0967 2.04865 9.19141 2.08806L10.0645 2.44938C10.4357 2.60331 10.7309 2.89842 10.8848 3.2697C11.0386 3.64118 11.0386 4.05933 10.8848 4.43083L10.5234 5.30192C10.4841 5.39686 10.4746 5.50095 10.4941 5.59977L10.5234 5.69743V5.69841L10.8848 6.5695H10.8838C10.96 6.75331 10.9999 6.9506 11 7.14958C11 7.3487 10.9609 7.54666 10.8848 7.73063C10.8086 7.91464 10.6965 8.082 10.5557 8.22282C10.4501 8.32837 10.3294 8.41734 10.1982 8.48747L10.0635 8.55095L9.19141 8.91227C9.09675 8.95142 9.0163 9.01797 8.95996 9.10173L8.91211 9.19157L8.76758 9.53923L9.3291 13.7677C9.35434 13.958 9.26783 14.1457 9.10742 14.2511C8.94698 14.3564 8.74074 14.3606 8.57617 14.2619L5.51758 12.4269C5.51147 12.4233 5.50541 12.4194 5.5 12.4162C5.49459 12.4194 5.48853 12.4233 5.48242 12.4269L2.42383 14.2619C2.25925 14.3606 2.05302 14.3564 1.89258 14.2511C1.73219 14.1457 1.64566 13.958 1.6709 13.7677L2.23145 9.5402L2.08789 9.19157C2.03557 9.06515 1.93493 8.96475 1.80859 8.91227L0.936523 8.55095C0.565236 8.39713 0.270172 8.10186 0.116211 7.73063C-0.0376501 7.35939 -0.0382606 6.94187 0.115234 6.57048L0.476563 5.69841L0.505859 5.60075C0.525242 5.50181 0.515676 5.3984 0.476563 5.30388L0.475586 5.3029L0.115234 4.42985C0.0390954 4.24603 5.98128e-05 4.04874 8.66544e-10 3.84977C-6.71535e-06 3.65063 0.0390276 3.45271 0.115234 3.26872C0.191462 3.08482 0.303551 2.91728 0.444336 2.77653C0.585141 2.63585 0.752611 2.52452 0.936523 2.44841L1.80859 2.08708L1.89844 2.03923C1.98238 1.98306 2.04852 1.90242 2.08789 1.80778L2.44922 0.936688C2.60311 0.565265 2.89811 0.269294 3.26953 0.115399ZM5.69727 10.5236C5.57095 10.4715 5.42895 10.4713 5.30273 10.5236L5.30176 10.5246L4.42969 10.8849C4.05835 11.0385 3.64077 11.0387 3.26953 10.8849C3.20164 10.8568 3.13759 10.8215 3.0752 10.7843L2.79785 12.8703L4.96875 11.5695C5.03847 11.5276 5.16938 11.4417 5.32129 11.4084L5.41016 11.3937C5.46986 11.3872 5.53014 11.3872 5.58984 11.3937L5.67871 11.4084L5.78809 11.4416C5.89229 11.4817 5.97895 11.5381 6.03125 11.5695L8.20117 12.8703L7.92383 10.7843C7.86152 10.8214 7.79728 10.8568 7.72949 10.8849C7.3581 11.0387 6.94072 11.0387 6.56934 10.8849L5.69727 10.5236ZM4.04785 1.03923C3.92139 0.986862 3.77881 0.986862 3.65234 1.03923C3.52601 1.09156 3.42551 1.19224 3.37305 1.31852L3.01172 2.19157V2.19255C2.85753 2.56311 2.56222 2.85735 2.19141 3.01091L1.31934 3.37223C1.2567 3.39816 1.19932 3.43663 1.15137 3.48454C1.10353 3.5324 1.06499 3.58902 1.03906 3.65153C1.01313 3.71414 1.00001 3.782 1 3.84977C1.00006 3.91738 1.01321 3.98458 1.03906 4.04704L1.04004 4.04802L1.40039 4.92009L1.4502 5.06169C1.5513 5.3953 1.53463 5.75523 1.40039 6.08024V6.08122L1.04004 6.95231C0.987764 7.07876 0.987683 7.22141 1.04004 7.34782C1.09249 7.47408 1.19303 7.57478 1.31934 7.62712L2.19141 7.98845H2.19238C2.56331 8.14254 2.85804 8.43768 3.01172 8.80876L3.37305 9.68181L3.4209 9.77165C3.47717 9.85557 3.55764 9.92184 3.65234 9.9611C3.77859 10.0134 3.92056 10.0132 4.04688 9.9611L4.91992 9.59977C5.29095 9.44603 5.70787 9.44649 6.0791 9.59977H6.08008L6.95215 9.9611C7.07842 10.0133 7.22039 10.0133 7.34668 9.9611C7.47307 9.90873 7.57453 9.80819 7.62695 9.68181L7.98828 8.80876C8.14241 8.43769 8.43733 8.14209 8.80859 7.98845L9.68066 7.62712C9.74326 7.6012 9.8007 7.56368 9.84863 7.51579C9.89656 7.46785 9.935 7.41045 9.96094 7.34782C9.98675 7.28536 9.99997 7.21814 10 7.15056C9.99996 7.08278 9.98689 7.01492 9.96094 6.95231H9.95996L9.59961 6.08024V6.07927C9.44564 5.70772 9.44618 5.29073 9.59961 4.92009L9.96094 4.04802C10.0133 3.92156 10.0133 3.77896 9.96094 3.65251C9.90856 3.52618 9.80792 3.42563 9.68164 3.37321L8.80859 3.01188C8.43791 2.85793 8.14208 2.56324 7.98828 2.19255L7.62695 1.3195C7.57451 1.19312 7.47406 1.09256 7.34766 1.0402C7.22133 0.987933 7.07947 0.98799 6.95313 1.0402H6.95215L6.0791 1.40056L6.07813 1.39958C5.75373 1.53376 5.39476 1.55176 5.06152 1.45134L4.91992 1.40056L4.04785 1.03923Z" fill="var(--fill-0, currentColor)"/>
</svg>
