<svg width="16" height="16" viewBox="0 0 16 16" fill="none" xmlns="http://www.w3.org/2000/svg">
<g clip-path="url(#clip0_20044_3915)">
<path d="M12.5088 9.04248C12.7847 9.04277 13.0088 9.26652 13.0088 9.54248V12.6274C13.0087 13.0616 12.797 13.4313 12.5068 13.7202C12.2184 14.0073 11.8262 14.243 11.3818 14.4302C10.491 14.8053 9.29486 15.0258 8 15.0259C6.7052 15.0259 5.50906 14.8053 4.61816 14.4302C4.1738 14.243 3.78161 14.0072 3.49316 13.7202C3.23925 13.4675 3.04552 13.1531 3.00098 12.7876L2.99121 12.6274V9.54248C2.99121 9.26634 3.21507 9.04248 3.49121 9.04248C3.76729 9.04256 3.99121 9.26638 3.99121 9.54248V12.6274L4 12.7017C4.01927 12.7836 4.07377 12.8873 4.19824 13.0112C4.36611 13.1783 4.63453 13.3519 5.00586 13.5083C5.74679 13.8203 6.80537 14.0259 8 14.0259C9.19456 14.0258 10.2533 13.8203 10.9941 13.5083C11.3653 13.3519 11.634 13.1782 11.8018 13.0112C11.9673 12.8463 12.0087 12.717 12.0088 12.6274V9.54248C12.0088 9.26634 12.2326 9.04248 12.5088 9.04248ZM7.33594 1.13428C7.75238 0.920336 8.24674 0.920653 8.66309 1.13525L14.6729 4.229H14.6738C15.1451 4.47202 15.3808 4.93072 15.3809 5.38916C15.3809 5.4025 15.379 5.41574 15.3779 5.4292C15.3736 5.57298 15.3456 5.71516 15.2949 5.85107C15.1749 6.4688 15.0863 7.23227 15.1143 8.10303C15.1387 8.85713 15.2452 9.51595 15.3691 10.0532C15.4308 10.322 15.2628 10.5907 14.9941 10.6528C14.7252 10.7149 14.4568 10.5467 14.3945 10.2778C14.2584 9.6877 14.1421 8.96399 14.1152 8.13525C14.1002 7.66578 14.116 7.2245 14.1514 6.81689L8.66309 9.64404C8.24665 9.85804 7.7523 9.85861 7.33594 9.64404L1.3252 6.54932C0.382576 6.06301 0.382336 4.71509 1.3252 4.229L7.33594 1.13525V1.13428ZM8.20508 2.02393C8.07698 1.95791 7.92391 1.95746 7.79395 2.02393L1.7832 5.11865C1.56325 5.23254 1.56322 5.54678 1.7832 5.66064L7.79395 8.75537C7.8902 8.80496 8.00053 8.81748 8.10449 8.79248L8.20605 8.75439L14.2148 5.66064C14.4353 5.54683 14.4354 5.23237 14.2148 5.11865V5.11768L8.20508 2.02393Z" fill="currentColor"/>
</g>
<defs>
<clipPath id="clip0_20044_3915">
<rect width="16" height="16" fill="white"/>
</clipPath>
</defs>
</svg>
