<svg width="16" height="16" viewBox="0 0 16 16" fill="none" xmlns="http://www.w3.org/2000/svg">
<path d="M5.76953 1.11523C6.14103 0.961369 6.55916 0.961369 6.93066 1.11523L7.80273 1.47656L7.80176 1.47754C7.92819 1.52969 8.07093 1.52899 8.19727 1.47656L8.19824 1.47559L9.07129 1.11523V1.11621C9.44253 0.962777 9.85932 0.962492 10.2305 1.11621C10.6019 1.27005 10.8968 1.56518 11.0508 1.93652L11.4131 2.80859L11.4609 2.89746C11.5171 2.98153 11.5967 3.04848 11.6914 3.08789L12.5645 3.44922C12.9357 3.60314 13.2309 3.89826 13.3848 4.26953C13.5386 4.64102 13.5386 5.05916 13.3848 5.43066L13.0234 6.30176C12.9841 6.39669 12.9746 6.50078 12.9941 6.59961L13.0234 6.69727V6.69824L13.3848 7.56934H13.3838C13.46 7.75315 13.4999 7.95043 13.5 8.14941C13.5 8.34853 13.4609 8.54649 13.3848 8.73047C13.3086 8.91447 13.1965 9.08184 13.0557 9.22266C12.9501 9.3282 12.8294 9.41718 12.6982 9.4873L12.5635 9.55078L11.6914 9.91211C11.5967 9.95125 11.5163 10.0178 11.46 10.1016L11.4121 10.1914L11.2676 10.5391L11.8291 14.7676C11.8543 14.9579 11.7678 15.1456 11.6074 15.251C11.447 15.3563 11.2407 15.3605 11.0762 15.2617L8.01758 13.4268C8.01147 13.4231 8.00541 13.4193 8 13.416C7.99459 13.4193 7.98853 13.4231 7.98242 13.4268L4.92383 15.2617C4.75925 15.3605 4.55302 15.3563 4.39258 15.251C4.23219 15.1456 4.14566 14.9578 4.1709 14.7676L4.73145 10.54L4.58789 10.1914C4.53557 10.065 4.43493 9.96459 4.30859 9.91211L3.43652 9.55078C3.06524 9.39696 2.77017 9.10169 2.61621 8.73047C2.46235 8.35923 2.46174 7.9417 2.61523 7.57031L2.97656 6.69824L3.00586 6.60059C3.02524 6.50165 3.01568 6.39824 2.97656 6.30371L2.97559 6.30273L2.61523 5.42969C2.5391 5.24586 2.50006 5.04858 2.5 4.84961C2.49999 4.65047 2.53903 4.45254 2.61523 4.26855C2.69146 4.08466 2.80355 3.91711 2.94434 3.77637C3.08514 3.63569 3.25261 3.52436 3.43652 3.44824L4.30859 3.08691L4.39844 3.03906C4.48238 2.9829 4.54852 2.90225 4.58789 2.80762L4.94922 1.93652C5.10311 1.5651 5.39811 1.26913 5.76953 1.11523ZM8.19727 11.5234C8.07095 11.4714 7.92895 11.4711 7.80273 11.5234L7.80176 11.5244L6.92969 11.8848C6.55835 12.0383 6.14077 12.0385 5.76953 11.8848C5.70164 11.8566 5.63759 11.8214 5.5752 11.7842L5.29785 13.8701L7.46875 12.5693C7.53847 12.5275 7.66938 12.4416 7.82129 12.4082L7.91016 12.3936C7.96986 12.3871 8.03014 12.3871 8.08984 12.3936L8.17871 12.4082L8.28809 12.4414C8.39229 12.4815 8.47895 12.5379 8.53125 12.5693L10.7012 13.8701L10.4238 11.7842C10.3615 11.8213 10.2973 11.8567 10.2295 11.8848C9.8581 12.0385 9.44072 12.0386 9.06934 11.8848L8.19727 11.5234ZM6.54785 2.03906C6.42139 1.9867 6.27881 1.9867 6.15234 2.03906C6.02601 2.0914 5.92551 2.19208 5.87305 2.31836L5.51172 3.19141V3.19238C5.35753 3.56295 5.06222 3.85719 4.69141 4.01074L3.81934 4.37207C3.7567 4.39799 3.69932 4.43646 3.65137 4.48438C3.60353 4.53224 3.56499 4.58886 3.53906 4.65137C3.51313 4.71398 3.50001 4.78184 3.5 4.84961C3.50006 4.91721 3.51321 4.98441 3.53906 5.04688L3.54004 5.04785L3.90039 5.91992L3.9502 6.06152C4.0513 6.39513 4.03463 6.75507 3.90039 7.08008V7.08105L3.54004 7.95215C3.48776 8.07859 3.48768 8.22125 3.54004 8.34766C3.59249 8.47392 3.69303 8.57461 3.81934 8.62695L4.69141 8.98828H4.69238C5.06331 9.14237 5.35804 9.43752 5.51172 9.80859L5.87305 10.6816L5.9209 10.7715C5.97717 10.8554 6.05764 10.9217 6.15234 10.9609C6.27859 11.0132 6.42056 11.013 6.54688 10.9609L7.41992 10.5996C7.79095 10.4459 8.20787 10.4463 8.5791 10.5996H8.58008L9.45215 10.9609C9.57842 11.0132 9.72039 11.0131 9.84668 10.9609C9.97307 10.9086 10.0745 10.808 10.127 10.6816L10.4883 9.80859C10.6424 9.43752 10.9373 9.14193 11.3086 8.98828L12.1807 8.62695C12.2433 8.60104 12.3007 8.56351 12.3486 8.51562C12.3966 8.46769 12.435 8.41029 12.4609 8.34766C12.4867 8.2852 12.5 8.21798 12.5 8.15039C12.5 8.08262 12.4869 8.01475 12.4609 7.95215H12.46L12.0996 7.08008V7.0791C11.9456 6.70755 11.9462 6.29056 12.0996 5.91992L12.4609 5.04785C12.5133 4.92139 12.5133 4.77879 12.4609 4.65234C12.4086 4.52602 12.3079 4.42547 12.1816 4.37305L11.3086 4.01172C10.9379 3.85777 10.6421 3.56308 10.4883 3.19238L10.127 2.31934C10.0745 2.19295 9.97406 2.0924 9.84766 2.04004C9.72133 1.98777 9.57947 1.98783 9.45312 2.04004H9.45215L8.5791 2.40039L8.57812 2.39941C8.25373 2.53359 7.89476 2.5516 7.56152 2.45117L7.41992 2.40039L6.54785 2.03906Z" fill="currentColor"/>
</svg>
