<svg width="16" height="16" viewBox="0 0 15.001 13.5371" fill="none" xmlns="http://www.w3.org/2000/svg">
<path id="Union" d="M12.167 4.2666C13.7315 4.26687 15.0008 5.53511 15.001 7.09961C15.001 7.67403 14.8281 8.20771 14.5342 8.6543V13.5371L13.8066 13.165L12.1641 12.3262L10.5244 13.1475L9.80078 13.5098V8.65527C9.5065 8.20844 9.33398 7.67456 9.33398 7.09961C9.33416 5.53506 10.6024 4.26678 12.167 4.2666ZM11.0996 0C12.4803 0 13.5996 1.11929 13.5996 2.5V2.96094C13.5996 3.23708 13.3758 3.46094 13.0996 3.46094C12.8236 3.46073 12.5996 3.23695 12.5996 2.96094V2.5C12.5996 1.67157 11.928 1 11.0996 1H2.5C1.67157 1 1 1.67157 1 2.5V9.83301C1 10.6614 1.67157 11.333 2.5 11.333H7.5C7.77603 11.333 7.99982 11.557 8 11.833C8 12.1092 7.77614 12.333 7.5 12.333H2.5C1.11929 12.333 0 11.2137 0 9.83301V2.5C0 1.11929 1.11929 0 2.5 0H11.0996ZM13.5342 9.58105C13.1287 9.8051 12.6629 9.93351 12.167 9.93359C11.6716 9.93354 11.2059 9.80557 10.8008 9.58203V11.8906L11.9434 11.3203L12.1699 11.207L12.3945 11.3223L13.5342 11.9033V9.58105ZM12.167 5.2666C11.1547 5.26678 10.3342 6.08735 10.334 7.09961C10.334 8.11202 11.1546 8.93342 12.167 8.93359C13.1793 8.93333 14.001 8.11197 14.001 7.09961C14.0008 6.0874 13.1792 5.26687 12.167 5.2666ZM6.09961 7.06641C6.37567 7.06641 6.59948 7.29038 6.59961 7.56641C6.59961 7.84255 6.37575 8.06641 6.09961 8.06641H3.2998C3.02366 8.06641 2.7998 7.84255 2.7998 7.56641C2.79994 7.29038 3.02374 7.06641 3.2998 7.06641H6.09961ZM8.06738 4.27637C8.29519 4.32301 8.4668 4.525 8.4668 4.7666C8.4668 5.0082 8.29519 5.21019 8.06738 5.25684L7.9668 5.2666H3.2998C3.02366 5.2666 2.7998 5.04274 2.7998 4.7666C2.7998 4.49046 3.02366 4.2666 3.2998 4.2666H7.9668L8.06738 4.27637Z" fill="var(--fill-0, currentColor)"/>
</svg>
