<svg width="16" height="16" viewBox="0 0 14.7637 14.0518" fill="none" xmlns="http://www.w3.org/2000/svg">
<path id="Union" d="M11.8906 8.06842C12.1665 8.06871 12.3906 8.29246 12.3906 8.56842V11.6534C12.3906 12.0875 12.1789 12.4573 11.8887 12.7462C11.6003 13.0332 11.2081 13.269 10.7637 13.4561C9.87284 13.8313 8.67672 14.0518 7.38186 14.0518C6.08706 14.0518 4.89092 13.8312 4.00002 13.4561C3.55566 13.269 3.16346 13.0332 2.87502 12.7462C2.6211 12.4934 2.42738 12.179 2.38284 11.8135L2.37307 11.6534V8.56842C2.37307 8.29228 2.59693 8.06842 2.87307 8.06842C3.14915 8.06849 3.37307 8.29232 3.37307 8.56842V11.6534L3.38186 11.7276C3.40113 11.8096 3.45562 11.9132 3.5801 12.0372C3.74797 12.2042 4.01639 12.3778 4.38772 12.5342C5.12865 12.8462 6.18723 13.0518 7.38186 13.0518C8.57642 13.0518 9.63513 12.8462 10.376 12.5342C10.7472 12.3779 11.0158 12.2042 11.1836 12.0372C11.3491 11.8723 11.3906 11.7429 11.3906 11.6534V8.56842C11.3906 8.29228 11.6145 8.06842 11.8906 8.06842ZM6.7178 0.160215C7.13424 -0.0537257 7.6286 -0.053409 8.04495 0.161192L14.0547 3.25494H14.0557C14.527 3.49796 14.7627 3.95666 14.7627 4.4151C14.7627 4.42844 14.7609 4.44167 14.7598 4.45514C14.7555 4.59892 14.7275 4.7411 14.6768 4.87701C14.5568 5.49474 14.4682 6.25821 14.4961 7.12897C14.5206 7.88306 14.6271 8.54189 14.751 9.07916C14.8126 9.34793 14.6447 9.61662 14.376 9.67877C14.1071 9.7408 13.8386 9.57259 13.7764 9.30377C13.6403 8.71364 13.524 7.98993 13.4971 7.16119C13.482 6.69172 13.4978 6.25044 13.5332 5.84283L8.04495 8.66998C7.62851 8.88398 7.13416 8.88454 6.7178 8.66998L0.707055 5.57525C-0.235565 5.08895 -0.235804 3.74103 0.707055 3.25494L6.7178 0.161192V0.160215ZM7.58694 1.04986C7.45884 0.983846 7.30577 0.983399 7.1758 1.04986L1.16506 4.14459C0.945107 4.25848 0.945081 4.57272 1.16506 4.68658L7.1758 7.78131C7.27206 7.8309 7.38239 7.84342 7.48635 7.81842L7.58791 7.78033L13.5967 4.68658C13.8172 4.57277 13.8173 4.25831 13.5967 4.14459V4.14361L7.58694 1.04986Z" fill="var(--fill-0, currentColor)"/>
</svg>
