<svg width="16" height="16" viewBox="0 0 14.5 14.5" fill="none" xmlns="http://www.w3.org/2000/svg">
<path id="Union" fill-rule="evenodd" clip-rule="evenodd" d="M13.4801 7.75228H10.5773L9.21892 10.1292C8.92175 10.6493 8.16462 10.6287 7.89665 10.0931L5.48845 5.2767L4.36247 7.24838C4.18443 7.55995 3.85317 7.75228 3.49431 7.75228H1.01989C1.2757 10.9692 3.9673 13.5 7.25 13.5C10.5327 13.5 13.2243 10.9692 13.4801 7.75228ZM13.4805 6.75228H10.5773C10.2186 6.75228 9.88723 6.94478 9.70915 7.25619L8.5822 9.22787L6.17497 4.41244L6.11931 4.31771C5.83463 3.90519 5.2203 3.8883 4.91326 4.28451L4.85271 4.37533L3.49431 6.75228H1.01953C1.27315 3.5332 3.96575 1 7.25 1C10.5343 1 13.2268 3.5332 13.4805 6.75228ZM0 7.25C0 11.2541 3.24594 14.5 7.25 14.5C11.2541 14.5 14.5 11.2541 14.5 7.25C14.5 3.24594 11.2541 0 7.25 0C3.24594 0 0 3.24594 0 7.25Z" fill="var(--fill-0, currentColor)"/>
</svg>
