<svg width="16" height="16" viewBox="0 0 14 12.9999" fill="none" xmlns="http://www.w3.org/2000/svg">
<path id="Union" d="M11.5 0C12.8807 0 14 1.11929 14 2.5V8.5C14 9.88071 12.8807 11 11.5 11H4.31641C4.03889 11 3.76664 11.0772 3.53027 11.2227L0.761719 12.9258C0.607484 13.0206 0.413913 13.0248 0.255859 12.9365C0.097827 12.8481 0 12.6811 0 12.5V2.5C0 1.11929 1.11929 4.0266e-08 2.5 0H11.5ZM2.5 1C1.67157 1 1 1.67157 1 2.5V11.6055L3.00586 10.3711C3.39988 10.1286 3.85376 10 4.31641 10H11.5C12.3284 10 13 9.32843 13 8.5V2.5C13 1.67157 12.3284 1 11.5 1H2.5ZM7 7.5C7.27614 7.5 7.5 7.72386 7.5 8C7.5 8.27614 7.27614 8.5 7 8.5H3C2.72386 8.5 2.5 8.27614 2.5 8C2.5 7.72386 2.72386 7.5 3 7.5H7ZM11 5C11.2761 5 11.5 5.22386 11.5 5.5C11.5 5.77614 11.2761 6 11 6H3C2.72386 6 2.5 5.77614 2.5 5.5C2.5 5.22386 2.72386 5 3 5H11ZM11 2.5C11.2761 2.5 11.5 2.72386 11.5 3C11.5 3.27614 11.2761 3.5 11 3.5H3C2.72386 3.5 2.5 3.27614 2.5 3C2.5 2.72386 2.72386 2.5 3 2.5H11Z" fill="var(--fill-0, currentColor)"/>
</svg>
