<svg width="16" height="16" viewBox="0 0 14 14" fill="none" xmlns="http://www.w3.org/2000/svg">
<path id="Union" d="M7 0C10.866 0 14 3.13401 14 7C14 10.866 10.866 14 7 14C3.13401 14 0 10.866 0 7C0 3.13401 3.13401 0 7 0ZM7 1C3.68629 1 1 3.68629 1 7C1 10.3137 3.68629 13 7 13C10.3137 13 13 10.3137 13 7C13 3.68629 10.3137 1 7 1ZM6.99805 2.5C7.27396 2.50026 7.49805 2.72402 7.49805 3V6.49805H11L11.1006 6.50781C11.3285 6.55438 11.5 6.75637 11.5 6.99805C11.4998 7.23954 11.3284 7.44179 11.1006 7.48828L11 7.49805H7.49805V11C7.49805 11.276 7.27396 11.4997 6.99805 11.5C6.7219 11.5 6.49805 11.2761 6.49805 11V7.49805H3C2.72402 7.49805 2.50026 7.27396 2.5 6.99805C2.5 6.7219 2.72386 6.49805 3 6.49805H6.49805V3C6.49805 2.72386 6.7219 2.5 6.99805 2.5Z" fill="var(--fill-0, currentColor)"/>
</svg>
