<svg width="16" height="16" viewBox="0 0 16 16" fill="none" xmlns="http://www.w3.org/2000/svg">
<g clip-path="url(#clip0_5_8100)">
<path fill-rule="evenodd" clip-rule="evenodd" d="M8 14.25C11.4518 14.25 14.25 11.4518 14.25 8C14.25 4.54822 11.4518 1.75 8 1.75C4.54822 1.75 1.75 4.54822 1.75 8C1.75 11.4518 4.54822 14.25 8 14.25ZM8 15.25C12.0041 15.25 15.25 12.0041 15.25 8C15.25 3.99594 12.0041 0.75 8 0.75C3.99594 0.75 0.75 3.99594 0.75 8C0.75 12.0041 3.99594 15.25 8 15.25ZM10.8536 5.14645C11.0488 5.34171 11.0488 5.65829 10.8536 5.85355L8.70711 8L10.8536 10.1464C11.0488 10.3417 11.0488 10.6583 10.8536 10.8536C10.6583 11.0488 10.3417 11.0488 10.1464 10.8536L8 8.70711L5.85355 10.8536C5.65829 11.0488 5.34171 11.0488 5.14645 10.8536C4.95118 10.6583 4.95118 10.3417 5.14645 10.1464L7.29289 8L5.14645 5.85355C4.95118 5.65829 4.95118 5.34171 5.14645 5.14645C5.34171 4.95118 5.65829 4.95118 5.85355 5.14645L8 7.29289L10.1464 5.14645C10.3417 4.95118 10.6583 4.95118 10.8536 5.14645Z" fill="currentColor"/>
</g>
<defs>
<clipPath id="clip0_5_8100">
<rect width="16" height="16" fill="white"/>
</clipPath>
</defs>
</svg>
