<svg width="16" height="16" viewBox="0 0 10.0037 10.0028" fill="none" xmlns="http://www.w3.org/2000/svg">
<path id="Union" d="M9.14931 0.146385C9.34454 -0.048836 9.66107 -0.048754 9.85635 0.146385C10.0516 0.341647 10.0516 0.658154 9.85635 0.853416L5.70889 5.00088L9.85732 9.14931C10.0525 9.34454 10.0525 9.66107 9.85732 9.85635C9.66206 10.0515 9.34553 10.0516 9.15029 9.85635L5.00185 5.70791L0.853416 9.85635C0.658154 10.0516 0.341647 10.0516 0.146385 9.85635C-0.048754 9.66107 -0.048836 9.34454 0.146385 9.14931L4.29482 5.00088L0.147362 0.853416C-0.0478185 0.65817 -0.0478185 0.341632 0.147362 0.146385C0.342613 -0.0487335 0.659167 -0.0487745 0.854393 0.146385L5.00185 4.29385L9.14931 0.146385Z" fill="var(--fill-0, currentColor)"/>
</svg>
