<svg width="16" height="16" viewBox="0 0 14.5 14.5" fill="none" xmlns="http://www.w3.org/2000/svg">
<path id="Union" fill-rule="evenodd" clip-rule="evenodd" d="M13.5 7.25C13.5 3.79822 10.7018 1 7.25 1C3.79822 1 1 3.79822 1 7.25C1 10.7018 3.79822 13.5 7.25 13.5C10.7018 13.5 13.5 10.7018 13.5 7.25ZM7.25 14.5C3.24594 14.5 0 11.2541 0 7.25C0 3.24594 3.24594 0 7.25 0C11.2541 0 14.5 3.24594 14.5 7.25C14.5 11.2541 11.2541 14.5 7.25 14.5ZM9.39648 4.39648C9.59175 4.20122 9.90825 4.20122 10.1035 4.39648C10.2988 4.59175 10.2988 4.90825 10.1035 5.10352L7.95703 7.25L10.1035 9.39648C10.2988 9.59175 10.2988 9.90825 10.1035 10.1035C9.90825 10.2988 9.59175 10.2988 9.39648 10.1035L7.25 7.95703L5.10352 10.1035C4.90825 10.2988 4.59175 10.2988 4.39648 10.1035C4.20122 9.90825 4.20122 9.59175 4.39648 9.39648L6.54297 7.25L4.39648 5.10352C4.20122 4.90825 4.20122 4.59175 4.39648 4.39648C4.59175 4.20122 4.90825 4.20122 5.10352 4.39648L7.25 6.54297L9.39648 4.39648Z" fill="var(--fill-0, currentColor)"/>
</svg>
