<svg width="16" height="16" viewBox="0 0 16 11.3125" fill="none" xmlns="http://www.w3.org/2000/svg">
<path id="Union" d="M15 8C15 7.33877 14.6966 6.76323 14.2412 6.34473C13.7797 5.9207 13.1936 5.6875 12.6875 5.6875C12.5601 5.6875 12.435 5.70099 12.3135 5.72559C12.1665 5.75535 12.0136 5.71703 11.8975 5.62207C11.8105 5.55087 11.7509 5.45331 11.7266 5.3457L11.7139 5.23535C11.7139 5.20822 11.716 5.18533 11.7178 5.16895C11.7179 5.16771 11.7176 5.16624 11.7178 5.16504C11.7057 2.86308 9.83605 1 7.53125 1C5.22677 1 3.35637 2.86255 3.34375 5.16406L3.34473 5.16699C3.34653 5.18308 3.34863 5.20645 3.34863 5.23438C3.34863 5.47244 3.18062 5.67757 2.94727 5.72461C2.02811 5.90957 1 6.68232 1 8C1 9.53374 2.224 10.3125 3.3125 10.3125H12.6875C13.7091 10.3125 14.2548 9.92846 14.5645 9.49219C14.8944 9.02713 15 8.43786 15 8ZM16 8C16 8.56204 15.871 9.3792 15.3809 10.0703C14.8702 10.7901 14.0093 11.3125 12.6875 11.3125H3.3125C1.81163 11.3125 0 10.2163 0 8C0 6.26273 1.22168 5.22628 2.35547 4.85059C2.52914 2.14301 4.77988 0 7.53125 0C10.2271 0 12.4427 2.05746 12.6943 4.6875C13.4808 4.68952 14.2987 5.03939 14.918 5.6084C15.5449 6.18456 16 7.01525 16 8Z" fill="var(--fill-0, currentColor)"/>
</svg>
