<svg width="16" height="16" viewBox="0 0 13.9944 11.8294" fill="none" xmlns="http://www.w3.org/2000/svg">
<path id="Union" d="M8.6968 0.314147C8.79932 0.0578522 9.09087 -0.0665191 9.34719 0.0358263C9.60345 0.138432 9.728 0.428918 9.62551 0.68524L5.29348 11.5153C5.19068 11.7712 4.90017 11.896 4.64407 11.7936C4.38798 11.691 4.26347 11.3995 4.36575 11.1432L8.6968 0.314147ZM9.89211 2.31415C10.0873 2.11901 10.4039 2.11925 10.5991 2.31415L13.8482 5.56317C14.043 5.75847 14.0433 6.07508 13.8482 6.2702L10.5991 9.51922C10.404 9.71391 10.0873 9.71391 9.89211 9.51922C9.69736 9.32408 9.69741 9.00737 9.89211 8.81219L12.7876 5.91669L9.89211 3.02118C9.69732 2.82598 9.69727 2.50931 9.89211 2.31415ZM3.39504 2.31219C3.59014 2.1171 3.90677 2.11742 4.10208 2.31219C4.29734 2.50746 4.29734 2.82396 4.10208 3.01922L1.20657 5.91473L4.10208 8.81024C4.2972 9.00551 4.29729 9.32206 4.10208 9.51727C3.90683 9.71212 3.5902 9.71227 3.39504 9.51727L0.14602 6.26825C-0.0486303 6.07307 -0.0487166 5.75634 0.14602 5.56122L3.39504 2.31219Z" fill="var(--fill-0, currentColor)"/>
</svg>
