<svg width="16" height="16" viewBox="0 0 14.6369 13.4993" fill="none" xmlns="http://www.w3.org/2000/svg">
<path id="Union" fill-rule="evenodd" clip-rule="evenodd" d="M6.23922 0.0359264C5.98283 -0.0666303 5.69236 0.057855 5.58981 0.314247L3.58981 5.31425C3.48725 5.57064 3.61173 5.8611 3.86813 5.96366C4.12452 6.06622 4.41498 5.94173 4.51754 5.68534L6.51754 0.68534C6.6201 0.428949 6.49561 0.138483 6.23922 0.0359264ZM0.636944 7.49933V10.4993C0.636944 12.1562 1.98009 13.4993 3.63694 13.4993H11.6369C13.2938 13.4993 14.6369 12.1562 14.6369 10.4993V4.49933C14.6369 2.84247 13.2938 1.49933 11.6369 1.49933C11.3608 1.49933 11.1369 1.72318 11.1369 1.99933C11.1369 2.27547 11.3608 2.49933 11.6369 2.49933C12.7415 2.49933 13.6369 3.39476 13.6369 4.49933V10.4993C13.6369 11.6039 12.7415 12.4993 11.6369 12.4993H3.63694C2.53237 12.4993 1.63694 11.6039 1.63694 10.4993V7.49933C1.63694 7.22318 1.41309 6.99933 1.13694 6.99933C0.860802 6.99933 0.636944 7.22318 0.636944 7.49933ZM7.24654 0.922401C7.44181 0.727139 7.75831 0.727139 7.95358 0.922401L9.95358 2.9224C10.0473 3.01617 10.1001 3.14331 10.1001 3.27592C10.1001 3.40852 10.0473 3.53566 9.95358 3.62943L7.95358 5.62943C7.75831 5.82469 7.44181 5.82469 7.24654 5.62943C7.05128 5.43417 7.05128 5.11766 7.24654 4.9224L8.89303 3.27592L7.24654 1.62943C7.05128 1.43417 7.05128 1.11766 7.24654 0.922401ZM2.85348 0.922401C2.65822 0.727139 2.34171 0.727139 2.14645 0.922401L0.146447 2.9224C-0.0488155 3.11766 -0.0488155 3.43417 0.146447 3.62943L2.14645 5.62943C2.34171 5.82469 2.65822 5.82469 2.85348 5.62943C3.04874 5.43417 3.04874 5.11766 2.85348 4.9224L1.20699 3.27592L2.85348 1.62943C3.04874 1.43417 3.04874 1.11766 2.85348 0.922401Z" fill="var(--fill-0, currentColor)"/>
</svg>
