<svg width="16" height="16" viewBox="0 0 16 16" fill="none" xmlns="http://www.w3.org/2000/svg">
<path d="M9.69727 2.31445C9.79985 2.05812 10.0913 1.93359 10.3477 2.03613C10.6037 2.13881 10.7284 2.42932 10.626 2.68555L6.29395 13.5156C6.1913 13.7716 5.90069 13.8962 5.64453 13.7939C5.38814 13.6914 5.26365 13.3999 5.36621 13.1436L9.69727 2.31445ZM10.8926 4.31445C11.0879 4.11955 11.4045 4.11931 11.5996 4.31445L14.8486 7.56348C15.0435 7.75864 15.0434 8.07532 14.8486 8.27051L11.5996 11.5195C11.4044 11.7143 11.0877 11.7144 10.8926 11.5195C10.6974 11.3244 10.6977 11.0078 10.8926 10.8125L13.7881 7.91699L10.8926 5.02148C10.6974 4.82629 10.6975 4.50973 10.8926 4.31445ZM4.39551 4.31348C4.59077 4.11821 4.90728 4.11821 5.10254 4.31348C5.29757 4.50876 5.29772 4.82532 5.10254 5.02051L2.20703 7.91602L5.10254 10.8115C5.29743 11.0068 5.29768 11.3234 5.10254 11.5186C4.90737 11.7133 4.59067 11.7133 4.39551 11.5186L1.14648 8.26953C0.951355 8.0744 0.951621 7.75779 1.14648 7.5625L4.39551 4.31348Z" fill="currentColor"/>
</svg>
