<svg width="16" height="16" viewBox="0 0 14.0039 14.0049" fill="none" xmlns="http://www.w3.org/2000/svg">
<path id="Union" d="M0.5 1.73438C0.776142 1.73438 1 1.95823 1 2.23438V6.06934H7.43555C7.71169 6.06934 7.93555 6.29319 7.93555 6.56934V13.5049C7.93531 13.7808 7.71154 14.0049 7.43555 14.0049C7.15969 14.0047 6.93579 13.7807 6.93555 13.5049V7.06934H0.5C0.224025 7.06934 0.000271678 6.84525 0 6.56934V2.23438C0 1.95823 0.223858 1.73438 0.5 1.73438ZM11.7705 6.06934C11.9346 6.06947 12.0884 6.15009 12.1816 6.28516V6.28613H12.1826L12.1836 6.28809C12.1845 6.28948 12.1858 6.29151 12.1875 6.29395C12.1911 6.29913 12.1965 6.30669 12.2031 6.31641C12.2164 6.33589 12.2355 6.36426 12.2598 6.40039C12.3085 6.47291 12.378 6.57728 12.4609 6.70508C12.6264 6.96024 12.8472 7.31221 13.0693 7.69531C13.2904 8.07673 13.5174 8.498 13.6904 8.8916C13.8544 9.26458 14.0039 9.685 14.0039 10.0371C14.0038 10.6295 13.7685 11.1983 13.3496 11.6172C12.9308 12.0357 12.3626 12.2714 11.7705 12.2715C11.1783 12.2714 10.6093 12.0359 10.1904 11.6172C9.77161 11.1983 9.53622 10.6294 9.53613 10.0371C9.53617 9.68511 9.68573 9.26449 9.84961 8.8916C10.0226 8.49815 10.2497 8.07662 10.4707 7.69531C10.6927 7.31231 10.9146 6.96022 11.0801 6.70508C11.1628 6.5776 11.2316 6.47286 11.2803 6.40039C11.3043 6.36455 11.3237 6.33588 11.3369 6.31641C11.3433 6.30701 11.349 6.29912 11.3525 6.29395C11.354 6.29179 11.3555 6.28945 11.3564 6.28809L11.3584 6.28613V6.28516L11.4395 6.19434C11.5296 6.11482 11.6476 6.06945 11.7705 6.06934ZM11.7695 7.4834C11.6377 7.69185 11.4862 7.93708 11.3359 8.19629C11.1238 8.56225 10.9166 8.94828 10.7646 9.29395C10.6037 9.66014 10.5362 9.91244 10.5361 10.0371C10.5362 10.3642 10.6662 10.6788 10.8975 10.9102C11.1287 11.1414 11.4435 11.2714 11.7705 11.2715C12.0973 11.2714 12.4113 11.1411 12.6426 10.9102C12.8739 10.6788 13.0038 10.3643 13.0039 10.0371C13.0039 9.9124 12.9364 9.66033 12.7754 9.29395C12.6234 8.94816 12.4163 8.56236 12.2041 8.19629C12.0536 7.93671 11.9015 7.69204 11.7695 7.4834ZM11.6377 0C12.4659 0.000240256 13.1377 0.671722 13.1377 1.5V2.96777C13.1377 3.79605 12.4659 4.46753 11.6377 4.46777H3.23438C2.40595 4.46777 1.73438 3.7962 1.73438 2.96777V1.5C1.73438 0.671572 2.40595 0 3.23438 0H11.6377ZM3.23438 1C2.95823 1 2.73438 1.22386 2.73438 1.5V2.96777C2.73438 3.24392 2.95823 3.46777 3.23438 3.46777H11.6377C11.9136 3.46753 12.1377 3.24377 12.1377 2.96777V1.5C12.1377 1.22401 11.9136 1.00024 11.6377 1H3.23438Z" fill="var(--fill-0, currentColor)"/>
</svg>
