<svg width="16" height="16" viewBox="0 0 6.06982 15.5" fill="none" xmlns="http://www.w3.org/2000/svg">
<path id="Union" fill-rule="evenodd" clip-rule="evenodd" d="M1 1.5C1 0.671573 1.67157 0 2.5 0H3.56982C4.39825 0 5.06982 0.671573 5.06982 1.5V2.5V3.25687C5.63232 3.31905 6.06982 3.79593 6.06982 4.375C6.06982 4.95407 5.63232 5.43095 5.06982 5.49313V12.4004C5.06976 12.4879 5.04616 12.5736 5.00244 12.6494L4.31982 13.833V14.25C4.31982 14.9404 3.76018 15.5 3.06982 15.5C2.37947 15.5 1.81982 14.9404 1.81982 14.25V13.833L1.13721 12.6494L1.10791 12.5908C1.08303 12.5306 1.06988 12.466 1.06982 12.4004V5.49867C0.474132 5.4699 0 4.97782 0 4.375C0 3.79593 0.437506 3.31905 1 3.25687V1.5ZM2.06982 5.5V12.2676L2.75244 13.4502C2.79627 13.5262 2.81982 13.6125 2.81982 13.7002V14.25C2.81982 14.3881 2.93175 14.5 3.06982 14.5C3.2079 14.5 3.31982 14.3881 3.31982 14.25V13.7002C3.31982 13.6125 3.34337 13.5262 3.38721 13.4502L4.06982 12.2676V5.5H2.06982Z" fill="var(--fill-0, currentColor)"/>
</svg>
