<svg width="16" height="16" viewBox="0 0 13 13" fill="none" xmlns="http://www.w3.org/2000/svg">
<path id="Union" fill-rule="evenodd" clip-rule="evenodd" d="M1 10.5C1 9.67157 1.67157 9 2.5 9H4V10.5C4 11.3284 3.32843 12 2.5 12C1.67157 12 1 11.3284 1 10.5ZM10.5 9C11.3284 9 12 9.67157 12 10.5C12 11.3284 11.3284 12 10.5 12C9.67157 12 9 11.3284 9 10.5V9H10.5ZM2.5 1C3.32843 1 4 1.67157 4 2.5V4H2.5C1.67157 4 1 3.32843 1 2.5C1 1.67157 1.67157 1 2.5 1ZM10.5 1C11.3284 1 12 1.67157 12 2.5C12 3.32843 11.3284 4 10.5 4H9V2.5C9 1.67157 9.67157 1 10.5 1ZM10.5 5C11.8807 5 13 3.88071 13 2.5C13 1.11929 11.8807 0 10.5 0C9.11929 0 8 1.11929 8 2.5V4H5V2.5C5 1.11929 3.88071 0 2.5 0C1.11929 0 0 1.11929 0 2.5C0 3.88071 1.11929 5 2.5 5H4V8H2.5C1.11929 8 0 9.11929 0 10.5C0 11.8807 1.11929 13 2.5 13C3.88071 13 5 11.8807 5 10.5V9H8V10.5C8 11.8807 9.11929 13 10.5 13C11.8807 13 13 11.8807 13 10.5C13 9.11929 11.8807 8 10.5 8H9V5H10.5ZM8 8H5V5H8V8Z" fill="var(--fill-0, currentColor)"/>
</svg>
