<svg width="16" height="16" viewBox="0 0 16 16" fill="none" xmlns="http://www.w3.org/2000/svg">
<path fill-rule="evenodd" clip-rule="evenodd" d="M4 1.5C2.61929 1.5 1.5 2.61929 1.5 4C1.5 5.38071 2.61929 6.5 4 6.5H5.5V9.5H4C2.61929 9.5 1.5 10.6193 1.5 12C1.5 13.3807 2.61929 14.5 4 14.5C5.38071 14.5 6.5 13.3807 6.5 12V10.5H9.5V12C9.5 13.3807 10.6193 14.5 12 14.5C13.3807 14.5 14.5 13.3807 14.5 12C14.5 10.6193 13.3807 9.5 12 9.5H10.5V6.5H12C13.3807 6.5 14.5 5.38071 14.5 4C14.5 2.61929 13.3807 1.5 12 1.5C10.6193 1.5 9.5 2.61929 9.5 4V5.5H6.5V4C6.5 2.61929 5.38071 1.5 4 1.5ZM4 2.5C4.82843 2.5 5.5 3.17157 5.5 4V5.5H4C3.17157 5.5 2.5 4.82843 2.5 4C2.5 3.17157 3.17157 2.5 4 2.5ZM2.5 12C2.5 11.1716 3.17157 10.5 4 10.5H5.5V12C5.5 12.8284 4.82843 13.5 4 13.5C3.17157 13.5 2.5 12.8284 2.5 12ZM12 13.5C11.1716 13.5 10.5 12.8284 10.5 12V10.5H12C12.8284 10.5 13.5 11.1716 13.5 12C13.5 12.8284 12.8284 13.5 12 13.5ZM13.5 4C13.5 4.82843 12.8284 5.5 12 5.5H10.5V4C10.5 3.17157 11.1716 2.5 12 2.5C12.8284 2.5 13.5 3.17157 13.5 4ZM6.5 9.5V6.5H9.5V9.5H6.5Z" fill="currentColor"/>
</svg>
