<svg width="16" height="16" viewBox="0 0 15 13.5167" fill="none" xmlns="http://www.w3.org/2000/svg">
<path id="Union" d="M7.5 0C11.5231 0 15 2.58068 15 6C15 9.41932 11.5231 12 7.5 12C7.20214 12 6.9082 11.986 6.61914 11.959C6.43565 12.0803 6.25749 12.2272 6.02637 12.4082C5.80041 12.5851 5.53789 12.7815 5.2334 12.9424C4.23396 13.4703 3.49492 13.5302 3.12988 13.5146C2.89785 13.5048 2.70957 13.3648 2.62207 13.1758C2.5382 12.9943 2.5515 12.782 2.65723 12.6104L2.73633 12.4756C2.82488 12.318 2.93701 12.094 3.02832 11.834C3.12999 11.5444 3.19908 11.1849 3.22461 10.9316C1.31444 9.87157 0 8.084 0 6C0 2.58068 3.47691 0 7.5 0ZM7.5 1C3.7911 1 1 3.34419 1 6C1 7.64452 2.04715 9.15225 3.75098 10.082C4.00032 10.2181 4.25781 10.5041 4.23242 10.9082C4.21089 11.2508 4.11651 11.7536 3.97168 12.166C3.94083 12.2538 3.90539 12.3369 3.87207 12.417C4.11806 12.35 4.41907 12.2412 4.7666 12.0576C4.98879 11.9402 5.19397 11.7904 5.41016 11.6211C5.61468 11.4609 5.85093 11.2649 6.08789 11.1104L6.16406 11.0654C6.34289 10.972 6.53589 10.9468 6.70801 10.9629C6.96736 10.9872 7.23186 11 7.5 11C11.2089 11 14 8.65581 14 6C14 3.34419 11.2089 1 7.5 1Z" fill="var(--fill-0, currentColor)"/>
</svg>
