<svg width="16" height="16" viewBox="0 0 11.5283 11.588" fill="none" xmlns="http://www.w3.org/2000/svg">
<path id="Union" d="M6.82692 0.812272C7.89699 -0.265488 9.6378 -0.271425 10.7156 0.7986C11.7933 1.86863 11.8002 3.60948 10.7302 4.68727L4.6736 10.7869C4.6003 10.8607 4.50562 10.9109 4.40309 10.9285L0.58473 11.5808C0.42548 11.608 0.261889 11.5569 0.14723 11.4431C0.0325692 11.3293 -0.0194791 11.1661 0.00660512 11.0066L0.631605 7.18434C0.648402 7.08166 0.697002 6.98574 0.770277 6.91188L6.82692 0.812272ZM10.0115 1.50758C9.32573 0.826883 8.21782 0.8309 7.53688 1.51637L1.59352 7.5027L1.10621 10.4763L4.07692 9.96852L10.0203 3.98317C10.7012 3.29731 10.6973 2.18855 10.0115 1.50758ZM1.96071 7.41774C2.15522 7.22185 2.47177 7.22138 2.66774 7.41579L4.157 8.89333C4.35296 9.08789 4.35351 9.4044 4.15895 9.60036C3.96439 9.79631 3.64788 9.79785 3.45192 9.60329L1.96364 8.12575C1.76768 7.93119 1.76615 7.6137 1.96071 7.41774Z" fill="var(--fill-0, currentColor)"/>
</svg>
