<svg width="16" height="16" viewBox="0 0 13.0004 13.0003" fill="none" xmlns="http://www.w3.org/2000/svg">
<path id="Union" fill-rule="evenodd" clip-rule="evenodd" d="M7.99945 4.29386L7.99945 0.832921C7.99922 0.55697 7.77545 0.332921 7.49945 0.332921C7.22364 0.333145 6.99967 0.557108 6.99945 0.832921L6.99945 5.49991C6.99945 5.77592 7.2235 5.99969 7.49945 5.99991L12.1664 5.99991C12.4426 5.99991 12.6664 5.77606 12.6664 5.49991C12.6664 5.22377 12.4426 4.99991 12.1664 4.99991L8.70746 4.99991L12.8539 0.853429C13.0492 0.658163 13.0492 0.341644 12.8539 0.146398C12.6587 -0.0487993 12.3422 -0.0487993 12.1469 0.146398L7.99945 4.29386ZM5.00091 8.70648L5.00091 12.1674C5.00114 12.4434 5.22491 12.6674 5.50091 12.6674C5.77673 12.6672 6.00069 12.4432 6.00091 12.1674L6.00091 7.50043C6.00091 7.22442 5.77687 7.00065 5.50091 7.00043L0.833923 7.00043C0.55778 7.00043 0.333923 7.22429 0.333923 7.50043C0.333923 7.77657 0.55778 8.00043 0.833923 8.00043H4.29291L0.146422 12.1469C-0.0487912 12.3422 -0.0488237 12.6587 0.146422 12.8539C0.341672 13.0491 0.658204 13.0491 0.853453 12.8539L5.00091 8.70648Z" fill="var(--fill-0, currentColor)"/>
</svg>
