<svg width="16" height="16" viewBox="0 0 16 16" fill="none" xmlns="http://www.w3.org/2000/svg">
<path d="M9.06299 3.01855C10.1331 1.94079 11.8739 1.93486 12.9517 3.00488C14.0294 4.07492 14.0362 5.81576 12.9663 6.89355L6.90967 12.9932C6.83637 13.067 6.74169 13.1172 6.63916 13.1348L2.8208 13.7871C2.66155 13.8143 2.49796 13.7632 2.3833 13.6494C2.26864 13.5356 2.21659 13.3723 2.24268 13.2129L2.86768 9.39062C2.88447 9.28794 2.93307 9.19203 3.00635 9.11816L9.06299 3.01855ZM12.2476 3.71387C11.5618 3.03317 10.4539 3.03718 9.77295 3.72266L3.82959 9.70898L3.34229 12.6826L6.31299 12.1748L12.2563 6.18945C12.9373 5.50359 12.9334 4.39483 12.2476 3.71387ZM4.19678 9.62402C4.39129 9.42814 4.70784 9.42767 4.90381 9.62207L6.39307 11.0996C6.58903 11.2942 6.58958 11.6107 6.39502 11.8066C6.20046 12.0026 5.88395 12.0041 5.68799 11.8096L4.19971 10.332C4.00375 10.1375 4.00222 9.81998 4.19678 9.62402Z" fill="currentColor"/>
</svg>
