<svg width="16" height="16" viewBox="0 0 13.5 13.5" fill="none" xmlns="http://www.w3.org/2000/svg">
<path id="Union" fill-rule="evenodd" clip-rule="evenodd" d="M11 13.5H2.5C1.11929 13.5 0 12.3807 0 11V2.5C0 1.20566 0.983608 0.140824 2.24414 0.0126953L2.5 0H11C12.3807 0 13.5 1.11929 13.5 2.5V11C13.5 12.3807 12.3807 13.5 11 13.5ZM11.5806 12.3835C11.0664 10.2269 9.12741 8.62324 6.81348 8.62302C4.48394 8.62302 2.5339 10.2482 2.03529 12.4266C1.43433 12.231 1 11.6662 1 11V2.5C1 1.67157 1.67157 1 2.5 1H11C11.8284 1 12.5 1.67157 12.5 2.5V11C12.5 11.6226 12.1207 12.1566 11.5806 12.3835ZM10.5777 12.5H3.04832C3.498 10.8425 5.01373 9.62302 6.81348 9.62302C8.61302 9.62323 10.1281 10.8427 10.5777 12.5ZM8.52976 5.29624C8.52976 4.3438 7.75758 3.57165 6.80515 3.57163C5.85269 3.57163 5.08054 4.34379 5.08054 5.29624C5.08056 6.24867 5.85271 7.02085 6.80515 7.02085C7.75756 7.02083 8.52973 6.24866 8.52976 5.29624ZM9.52976 5.29624C9.52973 6.80094 8.30985 8.02083 6.80515 8.02085C5.30042 8.02085 4.08056 6.80096 4.08054 5.29624C4.08054 3.7915 5.30041 2.57163 6.80515 2.57163C8.30986 2.57165 9.52976 3.79152 9.52976 5.29624Z" fill="var(--fill-0, currentColor)"/>
</svg>
