<svg width="16" height="16" viewBox="0 0 12.6831 14.1096" fill="none" xmlns="http://www.w3.org/2000/svg">
<path id="Union" fill-rule="evenodd" clip-rule="evenodd" d="M2.7583 9.70996V3.10056C2.72748 3.10651 2.69564 3.10962 2.66309 3.10962H2C1.44772 3.10962 1 3.55733 1 4.10962V12.1096C1 12.6619 1.44772 13.1096 2 13.1096H8.17871C8.73976 13.1096 9.19545 12.6545 9.19531 12.0969V11.71H4.7583C3.65384 11.71 2.75848 10.8144 2.7583 9.70996ZM2.66309 2.10962C2.69564 2.10962 2.72748 2.11273 2.7583 2.11867V2C2.7583 0.89543 3.65373 3.65704e-07 4.7583 0H7.71826C8.11752 1.61146e-05 8.50022 0.159285 8.78174 0.442383L12.2466 3.92969C12.5258 4.21065 12.683 4.59023 12.6831 4.98633V9.70996C12.683 10.8145 11.7875 11.7099 10.6831 11.71H10.1953V12.0969C10.1955 13.2103 9.28862 14.1096 8.17871 14.1096H2C0.895431 14.1096 0 13.2142 0 12.1096V4.10962C0 3.00505 0.89543 2.10962 2 2.10962H2.66309ZM3.7583 9.70996C3.75848 10.2621 4.20613 10.71 4.7583 10.71H10.6831C11.2353 10.7099 11.683 10.2621 11.6831 9.70996V5.15027H8.5332C7.98105 5.15027 7.53341 4.70238 7.5332 4.15027V1H4.7583C4.20602 1 3.7583 1.44772 3.7583 2V9.70996ZM8.5332 1.61077V4.15027H11.0571L8.5332 1.61077Z" fill="var(--fill-0, currentColor)"/>
</svg>
