<svg width="16" height="16" viewBox="0 0 16 16" fill="none" xmlns="http://www.w3.org/2000/svg">
<path fill-rule="evenodd" clip-rule="evenodd" d="M6.66358 1.76564C6.11129 1.76564 5.66357 2.21336 5.66357 2.76564V10.4753C5.66357 11.0276 6.11129 11.4753 6.66357 11.4753H12.5883C13.1406 11.4753 13.5883 11.0276 13.5883 10.4754V10.4665V10.4577V10.4488V10.4399V10.431V10.4222V10.4133V10.4044V10.3955V10.3866V10.3777V10.3688V10.3599V10.351V10.3421V10.3332V10.3243V10.3154V10.3065V10.2976V10.2887V10.2797V10.2708V10.2619V10.253V10.244V10.2351V10.2262V10.2172V10.2083V10.1994V10.1904V10.1815V10.1725V10.1636V10.1546V10.1457V10.1367V10.1278V10.1188V10.1099V10.1009V10.0919V10.083V10.074V10.065V10.0561V10.0471V10.0381V10.0291V10.0202V10.0112V10.0022V9.9932V9.98421V9.97522V9.96623V9.95724V9.94824V9.93924V9.93024V9.92124V9.91223V9.90323V9.89422V9.88521V9.87619V9.86718V9.85816V9.84914V9.84012V9.8311V9.82207V9.81305V9.80402V9.79499V9.78596V9.77692V9.76789V9.75885V9.74981V9.74077V9.73172V9.72268V9.71363V9.70458V9.69553V9.68648V9.67742V9.66837V9.65931V9.65025V9.64118V9.63212V9.62305V9.61399V9.60492V9.59585V9.58677V9.5777V9.56862V9.55954V9.55046V9.54138V9.5323V9.52321V9.51412V9.50504V9.49595V9.48685V9.47776V9.46866V9.45957V9.45047V9.44137V9.43226V9.42316V9.41405V9.40494V9.39583V9.38672V9.37761V9.3685V9.35938V9.35026V9.34114V9.33202V9.3229V9.31378V9.30465V9.29552V9.28639V9.27726V9.26813V9.259V9.24986V9.24072V9.23158V9.22244V9.2133V9.20416V9.19501V9.18587V9.17672V9.16757V9.15842V9.14927V9.14011V9.13095V9.1218V9.11264V9.10348V9.09432V9.08515V9.07599V9.06682V9.05766V9.04849V9.03932V9.03014V9.02097V9.0118V9.00262V8.99344V8.98426V8.97508V8.9659V8.95672V8.94753V8.93834V8.92916V8.91997V8.91078V8.90159V8.89239V8.8832V8.874V8.86481V8.85561V8.84641V8.8372V8.828V8.8188V8.80959V8.80039V8.79118V8.78197V8.77276V8.76355V8.75433V8.74512V8.7359V8.72669V8.71747V8.70825V8.69903V8.68981V8.68058V8.67136V8.66213V8.65291V8.64368V8.63445V8.62522V8.61599V8.60676V8.59752V8.58829V8.57905V8.56981V8.56057V8.55133V8.54209V8.53285V8.52361V8.51436V8.50512V8.49587V8.48662V8.47737V8.46812V8.45887V8.44962V8.44036V8.43111V8.42185V8.4126V8.40334V8.39408V8.38482V8.37556V8.3663V8.35704V8.34777V8.33851V8.32924V8.31997V8.3107V8.30143V8.29216V8.28289V8.27362V8.26435V8.25507V8.2458V8.23652V8.22724V8.21797V8.20869V8.19941V8.19013V8.18084V8.17156V8.16228V8.15299V8.14371V8.13442V8.12513V8.11585V8.10656V8.09727V8.08798V8.07868V8.06939V8.0601V8.0508V8.04151V8.03221V8.02291V8.01362V8.00432V7.99502V7.98572V7.97642V7.96711V7.95781V7.94851V7.9392V7.9299V7.92059V7.91129V7.90198V7.89267V7.88336V7.87405V7.86474V7.85543V7.84612V7.8368V7.82749V7.81818V7.80886V7.79955V7.79023V7.78091V7.77159V7.76228V7.75296V7.74364V7.73432V7.725V7.71567V7.70635V7.69703V7.6877V7.67838V7.66905V7.65973V7.6504V7.64108V7.63175V7.62242V7.61309V7.60376V7.59443V7.5851V7.57577V7.56644V7.55711V7.54777V7.53844V7.52911V7.51977V7.51044V7.5011V7.49177V7.48243V7.47309V7.46376V7.45442V7.44508V7.43574V7.4264V7.41706V7.40772V7.39838V7.38904V7.3797V7.37035V7.36101V7.35167V7.34232V7.33298V7.32364V7.31429V7.30494V7.2956V7.28625V7.27691V7.26756V7.25821V7.24886V7.23952V7.23017V7.22082V7.21147V7.20212V7.19277V7.18342V7.17407V7.16472V7.15537V7.14602V7.13666V7.12731V7.11796V7.10861V7.09925V7.0899V7.08055V7.07119V7.06184V7.05248V7.04313V7.03377V7.02442V7.01506V7.00571V6.99635V6.987V6.97764V6.96828V6.95893V6.94957V6.94021V6.93086V6.9215V6.91214V6.90278V6.89342V6.88407V6.87471V6.86535V6.85599V6.84663V6.83727V6.82791V6.81855V6.8092V6.79984V6.79048V6.78112V6.77176V6.7624V6.75304V6.74368V6.73432V6.72496V6.7156V6.70624V6.69688V6.68752V6.67815V6.66879V6.65943V6.65007V6.64071V6.63135V6.62199V6.61263V6.60327V6.59391V6.58455V6.57519V6.56583V6.55647V6.54711V6.53775V6.52839V6.51903V6.50967V6.50031V6.49095V6.48159V6.47223V6.46287V6.45351V6.44415V6.43479V6.42543V6.41607V6.40671V6.39735V6.38799V6.37863V6.36928V6.35992V6.35056V6.3412V6.33184V6.32249V6.31313V6.30377V6.29441V6.28506V6.2757V6.26634V6.25699V6.24763V6.23827V6.22892V6.21956V6.21021V6.20085V6.1915V6.18214V6.17279V6.16344V6.15408V6.14473V6.13538V6.12602V6.11667V6.10732V6.09797V6.08861V6.07926V6.06991V6.06056V6.05121V6.04186V6.03251V6.02316V6.01381V6.00446V5.99512V5.98577V5.97642V5.96707V5.95773V5.94838V5.93903V5.92969V5.92034V5.91552H10.4385C9.88619 5.91552 9.43848 5.4678 9.43848 4.91552V1.76564H6.66358ZM10.4385 2.37643V4.91552H12.9617L10.4385 2.37643ZM4.66357 2.76564C4.66357 1.66107 5.55901 0.76564 6.66358 0.76564H9.62347C10.0229 0.76564 10.4059 0.924968 10.6875 1.20831L14.1522 4.69489C14.4315 4.97591 14.5883 5.35601 14.5883 5.75221V5.76155V5.77088V5.78022V5.78956V5.7989V5.80824V5.81758V5.82692V5.83626V5.8456V5.85494V5.86428V5.87363V5.88297V5.89231V5.90166V5.911V5.92034V5.92969V5.93903V5.94838V5.95773V5.96707V5.97642V5.98577V5.99512V6.00446V6.01381V6.02316V6.03251V6.04186V6.05121V6.06056V6.06991V6.07926V6.08861V6.09797V6.10732V6.11667V6.12602V6.13538V6.14473V6.15408V6.16344V6.17279V6.18214V6.1915V6.20085V6.21021V6.21956V6.22892V6.23827V6.24763V6.25699V6.26634V6.2757V6.28506V6.29441V6.30377V6.31313V6.32249V6.33184V6.3412V6.35056V6.35992V6.36928V6.37863V6.38799V6.39735V6.40671V6.41607V6.42543V6.43479V6.44415V6.45351V6.46287V6.47223V6.48159V6.49095V6.50031V6.50967V6.51903V6.52839V6.53775V6.54711V6.55647V6.56583V6.57519V6.58455V6.59391V6.60327V6.61263V6.62199V6.63135V6.64071V6.65007V6.65943V6.66879V6.67815V6.68752V6.69688V6.70624V6.7156V6.72496V6.73432V6.74368V6.75304V6.7624V6.77176V6.78112V6.79048V6.79984V6.8092V6.81855V6.82791V6.83727V6.84663V6.85599V6.86535V6.87471V6.88407V6.89342V6.90278V6.91214V6.9215V6.93086V6.94021V6.94957V6.95893V6.96828V6.97764V6.987V6.99635V7.00571V7.01506V7.02442V7.03377V7.04313V7.05248V7.06184V7.07119V7.08055V7.0899V7.09925V7.10861V7.11796V7.12731V7.13666V7.14602V7.15537V7.16472V7.17407V7.18342V7.19277V7.20212V7.21147V7.22082V7.23017V7.23952V7.24886V7.25821V7.26756V7.27691V7.28625V7.2956V7.30494V7.31429V7.32364V7.33298V7.34232V7.35167V7.36101V7.37035V7.3797V7.38904V7.39838V7.40772V7.41706V7.4264V7.43574V7.44508V7.45442V7.46376V7.47309V7.48243V7.49177V7.5011V7.51044V7.51977V7.52911V7.53844V7.54777V7.55711V7.56644V7.57577V7.5851V7.59443V7.60376V7.61309V7.62242V7.63175V7.64108V7.6504V7.65973V7.66905V7.67838V7.6877V7.69703V7.70635V7.71567V7.725V7.73432V7.74364V7.75296V7.76228V7.77159V7.78091V7.79023V7.79955V7.80886V7.81818V7.82749V7.8368V7.84612V7.85543V7.86474V7.87405V7.88336V7.89267V7.90198V7.91129V7.92059V7.9299V7.9392V7.94851V7.95781V7.96711V7.97642V7.98572V7.99502V8.00432V8.01362V8.02291V8.03221V8.04151V8.0508V8.0601V8.06939V8.07868V8.08798V8.09727V8.10656V8.11585V8.12513V8.13442V8.14371V8.15299V8.16228V8.17156V8.18084V8.19013V8.19941V8.20869V8.21797V8.22724V8.23652V8.2458V8.25507V8.26435V8.27362V8.28289V8.29216V8.30143V8.3107V8.31997V8.32924V8.33851V8.34777V8.35704V8.3663V8.37556V8.38482V8.39408V8.40334V8.4126V8.42185V8.43111V8.44036V8.44962V8.45887V8.46812V8.47737V8.48662V8.49587V8.50512V8.51436V8.52361V8.53285V8.54209V8.55133V8.56057V8.56981V8.57905V8.58829V8.59752V8.60676V8.61599V8.62522V8.63445V8.64368V8.65291V8.66213V8.67136V8.68058V8.68981V8.69903V8.70825V8.71747V8.72669V8.7359V8.74512V8.75433V8.76355V8.77276V8.78197V8.79118V8.80039V8.80959V8.8188V8.828V8.8372V8.84641V8.85561V8.86481V8.874V8.8832V8.89239V8.90159V8.91078V8.91997V8.92916V8.93834V8.94753V8.95672V8.9659V8.97508V8.98426V8.99344V9.00262V9.0118V9.02097V9.03014V9.03932V9.04849V9.05766V9.06682V9.07599V9.08515V9.09432V9.10348V9.11264V9.1218V9.13095V9.14011V9.14927V9.15842V9.16757V9.17672V9.18587V9.19501V9.20416V9.2133V9.22244V9.23158V9.24072V9.24986V9.259V9.26813V9.27726V9.28639V9.29552V9.30465V9.31378V9.3229V9.33202V9.34114V9.35026V9.35938V9.3685V9.37761V9.38672V9.39583V9.40494V9.41405V9.42316V9.43226V9.44137V9.45047V9.45957V9.46866V9.47776V9.48685V9.49595V9.50504V9.51412V9.52321V9.5323V9.54138V9.55046V9.55954V9.56862V9.5777V9.58677V9.59585V9.60492V9.61399V9.62305V9.63212V9.64118V9.65025V9.65931V9.66837V9.67742V9.68648V9.69553V9.70458V9.71363V9.72268V9.73172V9.74077V9.74981V9.75885V9.76789V9.77692V9.78596V9.79499V9.80402V9.81305V9.82207V9.8311V9.84012V9.84914V9.85816V9.86718V9.87619V9.88521V9.89422V9.90323V9.91223V9.92124V9.93024V9.93924V9.94824V9.95724V9.96623V9.97522V9.98421V9.9932V10.0022V10.0112V10.0202V10.0291V10.0381V10.0471V10.0561V10.065V10.074V10.083V10.0919V10.1009V10.1099V10.1188V10.1278V10.1367V10.1457V10.1546V10.1636V10.1725V10.1815V10.1904V10.1994V10.2083V10.2172V10.2262V10.2351V10.244V10.253V10.2619V10.2708V10.2797V10.2887V10.2976V10.3065V10.3154V10.3243V10.3332V10.3421V10.351V10.3599V10.3688V10.3777V10.3866V10.3955V10.4044V10.4133V10.4222V10.431V10.4399V10.4488V10.4577V10.4665V10.4754C14.5883 11.5801 13.6928 12.4753 12.5883 12.4753H12.1002L12.1003 12.8624C12.1006 13.9759 11.1939 14.8753 10.0839 14.8753H3.90527C2.8007 14.8753 1.90527 13.9798 1.90527 12.8753V4.87526C1.90527 3.77069 2.8007 2.87526 3.90527 2.87526H4.56878C4.60119 2.87526 4.63288 2.87834 4.66357 2.88423V2.76564ZM6.66357 12.4753H11.1002L11.1003 12.8627C11.1004 13.4203 10.645 13.8753 10.0839 13.8753H3.90527C3.35299 13.8753 2.90527 13.4275 2.90527 12.8753V4.87526C2.90527 4.32297 3.35299 3.87526 3.90527 3.87526H4.56878C4.60119 3.87526 4.63288 3.87218 4.66357 3.86629V10.4753C4.66357 11.5798 5.559 12.4753 6.66357 12.4753Z" fill="currentColor"/>
</svg>
