<svg width="16" height="16" viewBox="0 0 12.4502 12.4502" fill="none" xmlns="http://www.w3.org/2000/svg">
<path id="Union" d="M0.5 7.87207C0.776142 7.87207 1 8.09593 1 8.37207V9.9502C1.00011 10.7785 1.67164 11.4502 2.5 11.4502H3.3623C3.63845 11.4502 3.8623 11.6741 3.8623 11.9502C3.8622 12.2262 3.63838 12.4502 3.3623 12.4502H2.5C1.11935 12.4502 0.000105879 11.3308 0 9.9502V8.37207C0 8.09593 0.223858 7.87207 0.5 7.87207ZM11.9502 7.87207C12.2262 7.87218 12.4502 8.09599 12.4502 8.37207V9.9502C12.4501 11.3308 11.3308 12.4501 9.9502 12.4502H8.37207C8.09599 12.4502 7.87218 12.2262 7.87207 11.9502C7.87207 11.6741 8.09593 11.4502 8.37207 11.4502H9.9502C10.7785 11.4501 11.4501 10.7785 11.4502 9.9502V8.37207C11.4502 8.09593 11.6741 7.87207 11.9502 7.87207ZM4.07812 0C4.35427 0 4.57812 0.223858 4.57812 0.5C4.57812 0.776142 4.35427 1 4.07812 1H2.5C1.67157 1 1 1.67157 1 2.5V4.07812C1 4.35427 0.776142 4.57812 0.5 4.57812C0.223858 4.57812 0 4.35427 0 4.07812V2.5C0 1.11929 1.11929 2.2963e-07 2.5 0H4.07812ZM9.9502 0C11.3308 0.000105373 12.4502 1.11935 12.4502 2.5V4.07812C12.4502 4.3542 12.2262 4.57802 11.9502 4.57812C11.6741 4.57812 11.4502 4.35427 11.4502 4.07812V2.5C11.4502 1.67164 10.7785 1.00011 9.9502 1H8.37207C8.09593 1 7.87207 0.776142 7.87207 0.5C7.87207 0.223858 8.09593 0 8.37207 0H9.9502Z" fill="var(--fill-0, currentColor)"/>
</svg>
