<svg width="16" height="16" viewBox="0 0 14.0049 14.0049" fill="none" xmlns="http://www.w3.org/2000/svg">
<path id="Union" fill-rule="evenodd" clip-rule="evenodd" d="M0.251953 5.13477C0.0875436 5.72982 3.76843e-05 6.35581 0 7.00195C0 10.869 3.13496 14.0047 7.00195 14.0049C10.8691 14.0049 14.0049 10.8691 14.0049 7.00195C14.0047 3.13496 10.869 0 7.00195 0C6.35581 3.76843e-05 5.72982 0.0875436 5.13477 0.251953C4.86888 0.325646 4.71272 0.601193 4.78613 0.867188C4.85966 1.13331 5.13524 1.28928 5.40137 1.21582C5.9106 1.07512 6.44675 1.00004 7.00195 1C10.3167 1 13.0047 3.68724 13.0049 7.00195C13.0049 10.3169 10.3169 13.0049 7.00195 13.0049C3.68724 13.0047 1 10.3167 1 7.00195C1.00004 6.44675 1.07512 5.9106 1.21582 5.40137C1.28928 5.13524 1.13331 4.85966 0.867188 4.78613C0.601193 4.71272 0.325646 4.86888 0.251953 5.13477ZM1.595 0.922629C1.40177 0.823256 1.16663 0.859804 1.01296 1.01345C0.859298 1.16712 0.822761 1.40224 0.922143 1.59548V1.59743C0.922304 1.59775 0.922556 1.59808 0.922847 1.59846C0.923239 1.59898 0.9237 1.59959 0.924097 1.60036C0.924761 1.60165 0.925696 1.60321 0.926784 1.60502C0.928298 1.60754 0.93011 1.61055 0.931909 1.61404C0.934452 1.61896 0.937451 1.6249 0.940928 1.63179C0.945996 1.64183 0.952081 1.65388 0.959253 1.66775L1.06472 1.87087C1.15567 2.04593 1.28608 2.29688 1.44558 2.60036C1.76474 3.20764 2.19993 4.02676 2.6614 4.87282C3.12247 5.71814 3.61217 6.5945 4.04128 7.31423C4.25565 7.67377 4.45716 7.99844 4.63406 8.26247C4.80463 8.51706 4.97174 8.74475 5.1155 8.88845C6.15737 9.92926 7.84614 9.93114 8.88796 8.88845C9.92906 7.84629 9.9295 6.15753 8.88796 5.11599C8.74429 4.97247 8.51678 4.80516 8.26199 4.63454C7.99795 4.45774 7.67328 4.2561 7.31375 4.04177C6.59401 3.61271 5.71759 3.123 4.87234 2.66189C4.02631 2.20035 3.2071 1.7653 2.59988 1.44607C2.31175 1.29459 2.07094 1.16944 1.89753 1.07931L1.87039 1.06521L1.66726 0.959739C1.65342 0.95258 1.64137 0.946495 1.63133 0.941426C1.62443 0.937943 1.61848 0.934938 1.61355 0.932395C1.61009 0.930607 1.60706 0.928792 1.60454 0.927275C1.60272 0.926183 1.60116 0.925245 1.59988 0.924582C1.59925 0.924259 1.59862 0.924103 1.59807 0.923966C1.59764 0.923858 1.59725 0.923762 1.59695 0.923606L1.59597 0.922629L1.36648 1.36697L1.595 0.922629ZM3.53933 4.39431C3.17944 3.73448 2.83594 3.09036 2.55105 2.55154C3.0898 2.83647 3.73408 3.1799 4.39382 3.53982C5.23463 3.99851 6.09742 4.4817 6.80105 4.90114C7.15315 5.11104 7.46162 5.30239 7.70535 5.4656C7.95795 5.63475 8.11269 5.75496 8.18093 5.82302C8.83169 6.47377 8.83201 7.52948 8.18093 8.18142C7.53041 8.83261 6.47469 8.83285 5.82253 8.18142C5.75461 8.11356 5.63457 7.95875 5.46511 7.70583C5.30189 7.46222 5.10958 7.15456 4.89968 6.80251C4.48017 6.0989 3.99801 5.23525 3.53933 4.39431Z" fill="var(--fill-0, currentColor)"/>
</svg>
