<svg width="16" height="16" viewBox="0 0 15.0001 15.0001" fill="none" xmlns="http://www.w3.org/2000/svg">
<path id="Union" d="M5.80082 0.67094C6.75699 -0.223646 8.24309 -0.223647 9.19926 0.67094L9.86137 1.29008C9.95938 1.38181 10.0876 1.43506 10.2217 1.43949L11.127 1.46977C12.436 1.51311 13.487 2.56407 13.5303 3.87309L13.5606 4.77836C13.565 4.91248 13.6183 5.04069 13.71 5.13871L14.3291 5.80082C15.2237 6.75699 15.2237 8.24309 14.3291 9.19926L13.71 9.86137C13.6183 9.95939 13.565 10.0876 13.5606 10.2217L13.5303 11.127C13.487 12.436 12.436 13.487 11.127 13.5303L10.2217 13.5606C10.0876 13.565 9.95939 13.6183 9.86137 13.71L9.19926 14.3291C8.24309 15.2237 6.75699 15.2237 5.80082 14.3291L5.13871 13.71C5.04069 13.6183 4.91248 13.565 4.77836 13.5606L3.87309 13.5303C2.56407 13.487 1.51311 12.436 1.46977 11.127L1.43949 10.2217C1.43506 10.0876 1.38181 9.95938 1.29008 9.86137L0.67094 9.19926C-0.223647 8.24309 -0.223646 6.75699 0.67094 5.80082L1.29008 5.13871C1.38181 5.0407 1.43506 4.91248 1.43949 4.77836L1.46977 3.87309C1.51311 2.56407 2.56407 1.51311 3.87309 1.46977L4.77836 1.43949C4.91248 1.43506 5.0407 1.38181 5.13871 1.29008L5.80082 0.67094ZM8.51664 1.40141C7.94486 0.866251 7.05522 0.866251 6.48344 1.40141L5.82231 2.02055C5.54736 2.27787 5.18794 2.42704 4.81156 2.43949L3.90629 2.46879C3.12357 2.49469 2.49469 3.12357 2.46879 3.90629L2.43949 4.81156C2.42704 5.18794 2.27787 5.54736 2.02055 5.82231L1.40141 6.48344C0.866251 7.05522 0.866251 7.94486 1.40141 8.51664L2.02055 9.17778C2.27787 9.45272 2.42704 9.81213 2.43949 10.1885L2.46879 11.0938C2.49469 11.8765 3.12357 12.5054 3.90629 12.5313L4.81156 12.5606C5.18794 12.573 5.54737 12.7222 5.82231 12.9795L6.48344 13.5987C7.05522 14.1338 7.94486 14.1338 8.51664 13.5987L9.17778 12.9795C9.45271 12.7222 9.81215 12.573 10.1885 12.5606L11.0938 12.5313C11.8765 12.5054 12.5054 11.8765 12.5313 11.0938L12.5606 10.1885C12.573 9.81213 12.7222 9.45271 12.9795 9.17778L13.5987 8.51664C14.1338 7.94486 14.1338 7.05522 13.5987 6.48344L12.9795 5.82231C12.7222 5.54737 12.573 5.18794 12.5606 4.81156L12.5313 3.90629C12.5054 3.12357 11.8765 2.49469 11.0938 2.46879L10.1885 2.43949C9.81213 2.42704 9.45272 2.27787 9.17778 2.02055L8.51664 1.40141ZM9.75004 8.50004C10.4404 8.50004 11 9.05967 11 9.75004C11 10.4404 10.4404 11 9.75004 11C9.05967 11 8.50004 10.4404 8.50004 9.75004C8.50004 9.05967 9.05967 8.50004 9.75004 8.50004ZM10.4571 5.25004L5.25004 10.4571L4.54301 9.75004L9.75004 4.54301L10.4571 5.25004ZM9.75004 9.50004C9.61196 9.50004 9.50004 9.61196 9.50004 9.75004C9.50004 9.88812 9.61196 10 9.75004 10C9.88812 10 10 9.88812 10 9.75004C10 9.61196 9.88812 9.50004 9.75004 9.50004ZM5.25004 4.00004C5.94039 4.00004 6.50004 4.55969 6.50004 5.25004C6.50004 5.94039 5.94039 6.50004 5.25004 6.50004C4.55969 6.50004 4.00004 5.94039 4.00004 5.25004C4.00004 4.55969 4.55969 4.00004 5.25004 4.00004ZM5.25004 5.00004C5.11197 5.00004 5.00004 5.11197 5.00004 5.25004C5.00004 5.38811 5.11197 5.50004 5.25004 5.50004C5.38811 5.50004 5.50004 5.38811 5.50004 5.25004C5.50004 5.11197 5.38811 5.00004 5.25004 5.00004Z" fill="var(--fill-0, currentColor)"/>
</svg>
