<svg width="16" height="16" viewBox="0 0 16 16" fill="none" xmlns="http://www.w3.org/2000/svg">
<path fill-rule="evenodd" clip-rule="evenodd" d="M0.5 2.75C0.5 1.92157 1.17157 1.25 2 1.25H4.50134C5.77438 1.25 6.88867 1.92966 7.50116 2.94591C8.11365 1.92966 9.22794 1.25 10.501 1.25H13.0023C13.8307 1.25 14.5023 1.92157 14.5023 2.75V6.25C14.5023 6.52614 14.2785 6.75 14.0023 6.75C13.7262 6.75 13.5023 6.52614 13.5023 6.25V2.75C13.5023 2.47386 13.2785 2.25 13.0023 2.25H10.501C9.1312 2.25 8.01872 3.35164 8.00119 4.71726L8.00134 4.75V5.12494C8.00134 5.13135 8.00122 5.13774 8.00098 5.14409V5.62494C8.00098 5.90108 7.77712 6.12494 7.50098 6.12494C7.22483 6.12494 7.00098 5.90108 7.00098 5.62494V4.75L7.00113 4.71726C6.9836 3.35164 5.87112 2.25 4.50134 2.25H2C1.72386 2.25 1.5 2.47386 1.5 2.75V10.7497C1.5 11.5781 2.17149 12.2496 2.99987 12.2497L6.50004 12.25C6.77619 12.25 7.00002 12.4739 7 12.75C6.99998 13.0262 6.7761 13.25 6.49996 13.25L2.99978 13.2497C1.61915 13.2496 0.5 12.1303 0.5 10.7497V2.75ZM15.2153 10.8586C15.2153 12.9891 13.4881 14.7162 11.3576 14.7162C9.22712 14.7162 7.5 12.9891 7.5 10.8586C7.5 8.7281 9.22712 7.00098 11.3576 7.00098C13.4881 7.00098 15.2153 8.7281 15.2153 10.8586ZM8.42583 10.8586C8.42583 12.4778 9.73845 13.7904 11.3576 13.7904C12.9768 13.7904 14.2894 12.4778 14.2894 10.8586C14.2894 9.23942 12.9768 7.92681 11.3576 7.92681C9.73845 7.92681 8.42583 9.23942 8.42583 10.8586ZM13.2204 9.2314C13.4335 9.40707 13.4638 9.72219 13.2881 9.93526L11.2409 12.4183C11.1442 12.5356 10.9994 12.6026 10.8474 12.6002C10.6954 12.5979 10.5527 12.5265 10.4597 12.4062L9.54206 11.2203C9.37307 11.0019 9.41312 10.6879 9.63152 10.5189C9.84992 10.3499 10.164 10.3899 10.3329 10.6083L10.8675 11.2992L12.5166 9.29912C12.6922 9.08605 13.0074 9.05574 13.2204 9.2314Z" fill="currentColor"/>
</svg>
