<svg width="16" height="16" viewBox="0 0 14.7153 13.4662" fill="none" xmlns="http://www.w3.org/2000/svg">
<path id="Union" fill-rule="evenodd" clip-rule="evenodd" d="M0 9.5V1.5C0 0.671573 0.671573 0 1.5 0H4.00098C5.27414 0 6.38853 0.679792 7.00098 1.69621C7.61343 0.679792 8.72781 0 10.001 0H12.502C13.3304 0 14.002 0.671574 14.002 1.5V5C14.002 5.27614 13.7781 5.5 13.502 5.5C13.226 5.49981 13.002 5.27602 13.002 5V1.5C13.002 1.22386 12.7781 1 12.502 1H10.001C8.62027 1 7.50098 2.11929 7.50098 3.5V3.875V4.375C7.50094 4.65111 7.2771 4.875 7.00098 4.875C6.72485 4.875 6.50101 4.65111 6.50098 4.375V3.875V3.5C6.50098 2.11929 5.38169 1 4.00098 1H1.5C1.22386 1 1 1.22386 1 1.5V9.5L1.00781 9.65332C1.08475 10.4095 1.72349 10.9999 2.5 11H6C6.27613 11 6.5 11.2239 6.5 11.5C6.49998 11.7761 6.27612 12 6 12H2.5C1.20552 11.9999 0.140512 11.0156 0.0126953 9.75488L0 9.5ZM14.7153 9.60861C14.7153 11.7391 12.9881 13.4662 10.8576 13.4662C8.72712 13.4662 7 11.7391 7 9.60861C7 7.4781 8.72712 5.75098 10.8576 5.75098C12.9881 5.75098 14.7153 7.4781 14.7153 9.60861ZM7.92583 9.60861C7.92583 11.2278 9.23845 12.5404 10.8576 12.5404C12.4768 12.5404 13.7894 11.2278 13.7894 9.60861C13.7894 7.98942 12.4768 6.67681 10.8576 6.67681C9.23845 6.67681 7.92583 7.98942 7.92583 9.60861ZM12.0166 8.04883C12.1923 7.83593 12.5077 7.80583 12.7207 7.98145C12.9336 8.15714 12.9637 8.47254 12.7881 8.68555L10.7412 11.168C10.6446 11.2852 10.4996 11.3529 10.3477 11.3506C10.1957 11.3482 10.053 11.2764 9.95996 11.1562L9.04199 9.9707C8.873 9.75231 8.91344 9.43754 9.13184 9.26855C9.35022 9.09988 9.66411 9.14012 9.83301 9.3584L10.3672 10.0488L12.0166 8.04883Z" fill="var(--fill-0, currentColor)"/>
</svg>
