<svg width="16" height="16" viewBox="0 0 14.0049 10.7539" fill="none" xmlns="http://www.w3.org/2000/svg">
<path id="Union" d="M12.6582 0.0078125C13.4145 0.0846755 14.0049 0.723385 14.0049 1.5V3.28711C14.0047 3.52462 13.8372 3.72895 13.6045 3.77637C12.8435 3.9311 12.2705 4.60551 12.2705 5.41113C12.2706 6.21663 12.8436 6.8902 13.6045 7.04492C13.8374 7.09233 14.0049 7.29745 14.0049 7.53516V9.25391C14.0047 10.0821 13.3331 10.7538 12.5049 10.7539H1.5C0.671691 10.7539 0.000189686 10.0822 0 9.25391V7.53516C0 7.29742 0.167419 7.09229 0.400391 7.04492C1.16129 6.89019 1.73423 6.21662 1.73438 5.41113C1.73438 4.60476 1.16152 3.93113 0.400391 3.77637C0.167568 3.729 0.000178053 3.52467 0 3.28711V1.5C0 0.671573 0.671573 1.42973e-08 1.5 0H12.5049L12.6582 0.0078125ZM1.5 1C1.22386 1 1 1.22386 1 1.5V2.91211C2.01243 3.29067 2.73438 4.26548 2.73438 5.41113C2.73425 6.55563 2.01219 7.52939 1 7.9082V9.25391C1.00019 9.52989 1.22397 9.75391 1.5 9.75391H12.5049C12.7808 9.75383 13.0047 9.52984 13.0049 9.25391V7.9082C11.9926 7.52942 11.2706 6.55568 11.2705 5.41113C11.2705 4.26629 11.9923 3.2908 13.0049 2.91211V1.5C13.0049 1.25834 12.8334 1.05635 12.6055 1.00977L12.5049 1H1.5ZM7.00293 2.62695C7.27885 2.62722 7.50293 2.85097 7.50293 3.12695V4.87695H9.25293C9.52885 4.87722 9.75293 5.10097 9.75293 5.37695C9.75293 5.65293 9.52885 5.87669 9.25293 5.87695H7.50293V7.62695C7.50293 7.90293 7.27885 8.12669 7.00293 8.12695C6.72679 8.12695 6.50293 7.9031 6.50293 7.62695V5.87695H4.75293C4.47679 5.87695 4.25293 5.6531 4.25293 5.37695C4.25293 5.10081 4.47679 4.87695 4.75293 4.87695H6.50293V3.12695C6.50293 2.85081 6.72679 2.62695 7.00293 2.62695Z" fill="var(--fill-0, currentColor)"/>
</svg>
