<svg width="16" height="16" viewBox="0 0 13.9912 11.9004" fill="none" xmlns="http://www.w3.org/2000/svg">
<path id="Union" d="M12.6479 0.00831282C13.4717 0.0950539 14.0695 0.833937 13.9829 1.65773C13.9193 2.26033 13.5066 2.7402 12.9673 2.9214C12.7339 4.90827 11.0461 6.4498 8.99656 6.44972H4.99656C3.49344 6.44973 2.2487 7.55531 2.03074 8.99757C2.65332 9.23278 3.06531 9.8644 2.99265 10.5571C2.90593 11.3806 2.16768 11.9782 1.34421 11.8921C0.520492 11.8055 -0.0780211 11.0673 0.00827464 10.2437C0.0717941 9.64059 0.484869 9.15919 1.02488 8.97804C1.25844 6.99143 2.94722 5.44972 4.99656 5.44972H8.99656C10.4998 5.44979 11.7444 4.34429 11.9624 2.90187C11.3392 2.6671 10.926 2.03719 10.9985 1.34425C11.0851 0.520407 11.8241 -0.0782 12.6479 0.00831282ZM1.5532 9.90284C1.27868 9.87399 1.03242 10.0737 1.00339 10.3482C0.974768 10.6226 1.17421 10.8681 1.4487 10.897C1.72292 10.9254 1.96849 10.7268 1.99753 10.4526C2.02618 10.1784 1.82736 9.93204 1.5532 9.90284ZM12.5434 1.00343C12.2689 0.974647 12.0225 1.17416 11.9936 1.44874C11.9651 1.72308 12.1646 1.96866 12.4389 1.99757C12.7132 2.02618 12.9586 1.82742 12.9878 1.55323C13.0166 1.27874 12.8179 1.03249 12.5434 1.00343Z" fill="var(--fill-0, currentColor)"/>
</svg>
