<svg width="16" height="16" viewBox="0 0 13.998 12.001" fill="none" xmlns="http://www.w3.org/2000/svg">
<path id="Union" d="M12.6548 0.00831657C13.4783 0.0951863 14.0762 0.834059 13.9897 1.65773C13.903 2.4812 13.1648 3.07883 12.3413 2.99269C11.7473 2.93026 11.2719 2.52837 11.0844 2.0005H3.74655C2.78017 2.00057 1.99645 2.7841 1.99655 3.7505C1.99673 4.71669 2.78036 5.50044 3.74655 5.5005H10.2466C11.7655 5.5005 12.9975 6.73159 12.9975 8.2505C12.9973 9.76927 11.7654 11.0005 10.2466 11.0005H2.91452C2.68886 11.6401 2.04818 12.0665 1.34421 11.9927C0.52063 11.906 -0.0780104 11.1678 0.00827048 10.3443C0.0948552 9.52046 0.833904 8.92188 1.65768 9.00832C2.2514 9.07084 2.72623 9.4728 2.91354 10.0005H10.2466C11.2131 10.0005 11.9973 9.21699 11.9975 8.2505C11.9975 7.28387 11.2132 6.5005 10.2466 6.5005H3.74655C2.2281 6.50044 0.996763 5.26896 0.996552 3.7505C0.996416 2.2318 2.22786 1.00057 3.74655 1.0005H11.0844C11.3105 0.361097 11.9509 -0.0656591 12.6548 0.00831657ZM1.55319 10.0034C1.27867 9.97473 1.03224 10.1742 1.00339 10.4487C0.974779 10.7231 1.17435 10.9686 1.4487 10.9976C1.72303 11.0262 1.96847 10.8275 1.99753 10.5532C2.02638 10.2787 1.82762 10.0325 1.55319 10.0034ZM12.5503 1.00343C12.2757 0.974572 12.0294 1.17415 12.0005 1.44875C11.9718 1.72321 12.1713 1.96872 12.4458 1.99757C12.72 2.02604 12.9656 1.82743 12.9946 1.55324C13.0234 1.27886 12.8245 1.03262 12.5503 1.00343Z" fill="var(--fill-0, currentColor)"/>
</svg>
