<svg width="16" height="16" viewBox="0 0 14.5 14.5" fill="none" xmlns="http://www.w3.org/2000/svg">
<path id="Union" d="M7.25 0C11.2541 0 14.5 3.24594 14.5 7.25C14.5 11.2541 11.2541 14.5 7.25 14.5C3.24594 14.5 0 11.2541 0 7.25C0 3.24594 3.24594 0 7.25 0ZM7.25098 9.75C5.02333 9.76988 3.78784 11.202 3.29785 12.0918C4.3748 12.9719 5.75069 13.5 7.25 13.5C8.74778 13.5 10.1218 12.9722 11.1982 12.0938C10.4337 10.6971 8.95344 9.75033 7.25098 9.75ZM7.25 1C3.79822 1 1 3.79822 1 7.25C1 8.83271 1.58971 10.2768 2.55957 11.3779C3.23711 10.2906 4.71791 8.77099 7.24609 8.75H7.25C9.23568 8.75 10.9719 9.80415 11.9385 11.3799C12.9094 10.2785 13.5 8.8337 13.5 7.25C13.5 3.79822 10.7018 1 7.25 1ZM7.25 3.25C8.63071 3.25 9.75 4.36929 9.75 5.75C9.75 7.13071 8.63071 8.25 7.25 8.25C5.86929 8.25 4.75 7.13071 4.75 5.75C4.75 4.36929 5.86929 3.25 7.25 3.25ZM7.25 4.25C6.42157 4.25 5.75 4.92157 5.75 5.75C5.75 6.57843 6.42157 7.25 7.25 7.25C8.07843 7.25 8.75 6.57843 8.75 5.75C8.75 4.92157 8.07843 4.25 7.25 4.25Z" fill="var(--fill-0, currentColor)"/>
</svg>
