<svg width="16" height="16" viewBox="0 0 13 14" fill="none" xmlns="http://www.w3.org/2000/svg">
<path id="Union" fill-rule="evenodd" clip-rule="evenodd" d="M4.5 1C4.77614 1 5 1.22386 5 1.5V3.5C5 3.77614 4.77614 4 4.5 4H1.5C1.22386 4 1 3.77614 1 3.5V1.5C1 1.22386 1.22386 1 1.5 1H4.5ZM4.5 5C5.32843 5 6 4.32843 6 3.5V1.5C6 0.671573 5.32843 0 4.5 0H1.5C0.671573 0 0 0.671573 0 1.5V3.5C0 4.32843 0.671573 5 1.5 5H4.5ZM11.5 10C11.7761 10 12 10.2239 12 10.5V12.5C12 12.7761 11.7761 13 11.5 13H8.5C8.22386 13 8 12.7761 8 12.5V10.5C8 10.2239 8.22386 10 8.5 10H11.5ZM11.5 14C12.3284 14 13 13.3284 13 12.5V10.5C13 9.67157 12.3284 9 11.5 9H8.5C7.67157 9 7 9.67157 7 10.5V12.5C7 13.3284 7.67157 14 8.5 14H11.5ZM12 1.5C12 1.22386 11.7761 1 11.5 1H8.5C8.22386 1 8 1.22386 8 1.5V6.5C8 6.77614 8.22386 7 8.5 7H11.5C11.7761 7 12 6.77614 12 6.5V1.5ZM13 6.5C13 7.32843 12.3284 8 11.5 8H8.5C7.67157 8 7 7.32843 7 6.5V1.5C7 0.671573 7.67157 0 8.5 0H11.5C12.3284 0 13 0.671573 13 1.5V6.5ZM4.5 7C4.77614 7 5 7.22386 5 7.5V12.5C5 12.7761 4.77614 13 4.5 13H1.5C1.22386 13 1 12.7761 1 12.5V7.5C1 7.22386 1.22386 7 1.5 7H4.5ZM4.5 14C5.32843 14 6 13.3284 6 12.5V7.5C6 6.67157 5.32843 6 4.5 6H1.5C0.671573 6 0 6.67157 0 7.5V12.5C0 13.3284 0.671573 14 1.5 14H4.5Z" fill="var(--fill-0, currentColor)"/>
</svg>
