<svg width="16" height="16" viewBox="0 0 16 16" fill="none" xmlns="http://www.w3.org/2000/svg">
<path fill-rule="evenodd" clip-rule="evenodd" d="M2.781 2.94771C2.53437 3.14208 2.5 3.27622 2.5 3.3335C2.5 3.39077 2.53437 3.52491 2.781 3.71928C3.02199 3.9092 3.4017 4.10211 3.91547 4.27337C4.9378 4.61414 6.38193 4.8335 8 4.8335C9.61807 4.8335 11.0622 4.61414 12.0845 4.27337C12.5983 4.10211 12.978 3.9092 13.219 3.71928C13.4656 3.52491 13.5 3.39077 13.5 3.3335C13.5 3.27622 13.4656 3.14208 13.219 2.94771C12.978 2.75779 12.5983 2.56488 12.0845 2.39362C11.0622 2.05285 9.61807 1.8335 8 1.8335C6.38193 1.8335 4.9378 2.05285 3.91547 2.39362C3.4017 2.56488 3.02199 2.75779 2.781 2.94771ZM2.16202 2.1623C1.80142 2.44649 1.5 2.83849 1.5 3.3335V7.5V8V12.6668C1.5 13.164 1.79435 13.5595 2.15723 13.8485C2.52314 14.14 3.02173 14.3776 3.59298 14.5665C4.74061 14.9461 6.29654 15.1668 8 15.1668C9.70346 15.1668 11.2594 14.9461 12.407 14.5665C12.9783 14.3776 13.4769 14.14 13.8428 13.8485C14.2057 13.5595 14.5 13.164 14.5 12.6668V8V7.5V3.3335C14.5 2.83849 14.1986 2.44649 13.838 2.1623C13.4717 1.87367 12.9728 1.63561 12.4008 1.44494C11.2515 1.06186 9.69564 0.833496 8 0.833496C6.30436 0.833496 4.74849 1.06186 3.59925 1.44494C3.02724 1.63561 2.52826 1.87367 2.16202 2.1623ZM13.5 7.5V4.73557C13.1862 4.92307 12.8124 5.08483 12.4008 5.22205C11.2515 5.60513 9.69564 5.8335 8 5.8335C6.30436 5.8335 4.74849 5.60513 3.59925 5.22205C3.18758 5.08483 2.81375 4.92307 2.5 4.73557V7.5V8C2.5 8.06954 2.53899 8.20733 2.78027 8.39953C3.01853 8.58931 3.39494 8.78092 3.90702 8.95029C4.92606 9.28736 6.37013 9.5 8 9.5C9.62987 9.5 11.0739 9.28736 12.093 8.95029C12.6051 8.78092 12.9815 8.58931 13.2197 8.39953C13.461 8.20733 13.5 8.06954 13.5 8V7.5ZM13.5 9.4173C13.1876 9.6043 12.8159 9.76446 12.407 9.89971C11.2594 10.2793 9.70346 10.5 8 10.5C6.29654 10.5 4.74061 10.2793 3.59298 9.89971C3.18409 9.76446 2.81243 9.6043 2.5 9.4173V12.6668C2.5 12.7364 2.53899 12.8742 2.78027 13.0664C3.01853 13.2561 3.39494 13.4477 3.90702 13.6171C4.92606 13.9542 6.37013 14.1668 8 14.1668C9.62987 14.1668 11.0739 13.9542 12.093 13.6171C12.6051 13.4477 12.9815 13.2561 13.2197 13.0664C13.461 12.8742 13.5 12.7364 13.5 12.6668V9.4173Z" fill="currentColor"/>
</svg>
