<svg width="16" height="16" viewBox="0 0 13 14.333" fill="none" xmlns="http://www.w3.org/2000/svg">
<path id="Union" fill-rule="evenodd" clip-rule="evenodd" d="M12 2.5C12 2.44272 11.9654 2.30862 11.7188 2.11426C11.4778 1.92443 11.0984 1.73173 10.585 1.56055C9.56264 1.21977 8.11807 1 6.5 1C4.88193 1 3.43736 1.21977 2.41504 1.56055C1.90162 1.73173 1.52217 1.92443 1.28125 2.11426C1.03462 2.30862 1 2.44272 1 2.5C1 2.55728 1.03462 2.69138 1.28125 2.88574C1.52217 3.07557 1.90162 3.26827 2.41504 3.43945C3.43736 3.78023 4.88193 4 6.5 4C8.11807 4 9.56264 3.78023 10.585 3.43945C11.0984 3.26827 11.4778 3.07557 11.7188 2.88574C11.9654 2.69138 12 2.55728 12 2.5ZM0.662109 1.3291C0.301547 1.61328 0 2.00503 0 2.5V6.6665V7.1665V11.833C0 12.33 0.294438 12.7256 0.657227 13.0146C1.02312 13.3061 1.52155 13.5444 2.09277 13.7334C3.2404 14.113 4.79654 14.333 6.5 14.333C8.20346 14.333 9.7596 14.113 10.9072 13.7334C11.4784 13.5444 11.9769 13.3061 12.3428 13.0146C12.7056 12.7256 13 12.33 13 11.833V7.1665V6.6665V2.5C13 2.00503 12.6985 1.61328 12.3379 1.3291C11.9717 1.04047 11.4724 0.801998 10.9004 0.611328C9.75118 0.228318 8.19546 0 6.5 0C4.80454 0 3.24882 0.228318 2.09961 0.611328C1.5276 0.801998 1.02835 1.04047 0.662109 1.3291ZM12 6.6665V3.90177C11.6861 4.08942 11.3121 4.25143 10.9004 4.38867C9.75118 4.77168 8.19546 5 6.5 5C4.80454 5 3.24882 4.77168 2.09961 4.38867C1.68789 4.25143 1.31386 4.08942 1 3.90177V6.6665V7.1665C1 7.23604 1.03904 7.37374 1.28027 7.56592C1.51853 7.7557 1.89515 7.94732 2.40723 8.1167C3.42626 8.45374 4.87021 8.6665 6.5 8.6665C8.12979 8.6665 9.57374 8.45374 10.5928 8.1167C11.1049 7.94732 11.4815 7.7557 11.7197 7.56592C11.961 7.37374 12 7.23604 12 7.1665V6.6665ZM12 8.58369C11.6876 8.77062 11.316 8.93069 10.9072 9.06592C9.7596 9.44552 8.20346 9.6665 6.5 9.6665C4.79654 9.6665 3.2404 9.44552 2.09277 9.06592C1.68398 8.93069 1.31238 8.77062 1 8.58369V11.833C1 11.9025 1.03918 12.0403 1.28027 12.2324C1.51853 12.4222 1.89515 12.6138 2.40723 12.7832C3.42627 13.1203 4.87016 13.333 6.5 13.333C8.12984 13.333 9.57373 13.1203 10.5928 12.7832C11.1049 12.6138 11.4815 12.4222 11.7197 12.2324C11.9608 12.0403 12 11.9025 12 11.833V8.58369Z" fill="var(--fill-0, currentColor)"/>
</svg>
