<svg width="16" height="16" viewBox="0 0 12.2755 11.8682" fill="none" xmlns="http://www.w3.org/2000/svg">
<path id="Union" d="M11.6427 10.8682C11.9186 10.8684 12.1427 11.0922 12.1427 11.3682C12.1427 11.6442 11.9186 11.8679 11.6427 11.8682H0.551832C0.2758 11.868 0.0518318 11.6442 0.0518318 11.3682C0.0518318 11.0921 0.2758 10.8683 0.551832 10.8682H11.6427ZM2.44636 3.70801C2.70689 3.491 3.10261 3.67652 3.10261 4.01562V7.85254C3.1026 8.19158 2.70689 8.37699 2.44636 8.16016L0.143629 6.24121C-0.0479196 6.08135 -0.0478329 5.78688 0.143629 5.62695L2.44636 3.70801ZM11.8761 5.44434C12.1039 5.49092 12.2755 5.69291 12.2755 5.93457C12.2752 6.17608 12.1039 6.37833 11.8761 6.4248L11.7755 6.43457H4.98836C4.71238 6.43457 4.48862 6.21049 4.48836 5.93457C4.48836 5.65843 4.71221 5.43457 4.98836 5.43457H11.7755L11.8761 5.44434ZM11.6427 0C11.9185 0.000374967 12.1427 0.224089 12.1427 0.5C12.1427 0.775911 11.9185 0.999625 11.6427 1H0.551832C0.275689 1 0.0518318 0.776142 0.0518318 0.5C0.0518318 0.223858 0.275689 0 0.551832 0H11.6427Z" fill="var(--fill-0, currentColor)"/>
</svg>
