<svg width="16" height="16" viewBox="0 0 16 16" fill="none" xmlns="http://www.w3.org/2000/svg">
<path d="M13.8672 12.8682C14.1431 12.8684 14.3672 13.0922 14.3672 13.3682C14.3672 13.6442 14.1431 13.8679 13.8672 13.8682H2.77637C2.50034 13.868 2.27637 13.6442 2.27637 13.3682C2.27637 13.0921 2.50034 12.8683 2.77637 12.8682H13.8672ZM4.6709 5.70801C4.93143 5.491 5.32715 5.67652 5.32715 6.01562V9.85254C5.32714 10.1916 4.93143 10.377 4.6709 10.1602L2.36816 8.24121C2.17662 8.08135 2.1767 7.78688 2.36816 7.62695L4.6709 5.70801ZM14.1006 7.44434C14.3285 7.49092 14.5 7.69291 14.5 7.93457C14.4998 8.17608 14.3284 8.37833 14.1006 8.4248L14 8.43457H7.21289C6.93691 8.43457 6.71315 8.21049 6.71289 7.93457C6.71289 7.65843 6.93675 7.43457 7.21289 7.43457H14L14.1006 7.44434ZM13.8672 2C14.143 2.00037 14.3672 2.22409 14.3672 2.5C14.3672 2.77591 14.143 2.99963 13.8672 3H2.77637C2.50022 3 2.27637 2.77614 2.27637 2.5C2.27637 2.22386 2.50022 2 2.77637 2H13.8672Z" fill="currentColor"/>
</svg>
