<svg width="16" height="16" viewBox="0 0 13 14.5293" fill="none" xmlns="http://www.w3.org/2000/svg">
<path id="Union" fill-rule="evenodd" clip-rule="evenodd" d="M4.27031 1.5V1.72949H1.67611V1.73781H0.5C0.223858 1.73781 0 1.96166 0 2.23781C0 2.51395 0.223858 2.73781 0.5 2.73781H1.67611V12.0293C1.67611 13.41 2.79539 14.5293 4.17611 14.5293H8.82357C10.2043 14.5293 11.3236 13.41 11.3236 12.0293V2.73781H12.5L12.6006 2.72804C12.8286 2.68151 13 2.47952 13 2.23781C13 1.99609 12.8286 1.7941 12.6006 1.74757L12.5 1.73781H11.3236V1.72949H8.7293V1.5C8.72929 0.671587 8.05771 1.28746e-05 7.2293 0H5.77031C4.94189 0 4.27032 0.67158 4.27031 1.5ZM2.67611 2.73781H10.3236V12.0293C10.3236 12.8577 9.65196 13.5293 8.82357 13.5293H4.17611C3.34768 13.5293 2.67611 12.8577 2.67611 12.0293V2.73781ZM7.7293 1.72949H5.27031V1.5C5.27032 1.22386 5.49417 1 5.77031 1H7.2293C7.50542 1.00001 7.72929 1.22387 7.7293 1.5V1.72949ZM4.48633 10.5783V5.57832C4.48633 5.30217 4.71019 5.07832 4.98633 5.07832C5.26247 5.07832 5.48633 5.30217 5.48633 5.57832V10.5783C5.48633 10.8545 5.26247 11.0783 4.98633 11.0783C4.71019 11.0783 4.48633 10.8545 4.48633 10.5783ZM7.51367 5.57832V10.5783C7.51367 10.8545 7.73753 11.0783 8.01367 11.0783C8.28981 11.0783 8.51367 10.8545 8.51367 10.5783V5.57832C8.51367 5.30217 8.28981 5.07832 8.01367 5.07832C7.73753 5.07832 7.51367 5.30217 7.51367 5.57832Z" fill="var(--fill-0, currentColor)"/>
</svg>
