<svg width="16" height="16" viewBox="0 0 13.9229 13.9229" fill="none" xmlns="http://www.w3.org/2000/svg">
<path id="Union" d="M13.4229 2.1543C13.6989 2.1543 13.9226 2.37833 13.9229 2.6543C13.9226 2.93023 13.6988 3.1543 13.4229 3.1543H12.4551L11.9824 10.2393C11.9452 10.7977 11.9163 11.2463 11.8633 11.6074C11.8094 11.9745 11.7261 12.2923 11.5605 12.583C11.2951 13.049 10.8938 13.4233 10.4111 13.6572C10.1101 13.803 9.78774 13.8652 9.41797 13.8945C9.05415 13.9234 8.60459 13.9229 8.04492 13.9229H5.87793C5.31826 13.9229 4.86868 13.9234 4.50488 13.8945C4.13524 13.8651 3.81269 13.8031 3.51172 13.6572C3.02937 13.4234 2.62868 13.0488 2.36328 12.583C2.19782 12.2924 2.11443 11.9743 2.06055 11.6074C2.00756 11.2463 1.97766 10.7976 1.94043 10.2393L1.46777 3.1543H0.5C0.224181 3.15409 0.000243388 2.93011 0 2.6543C0.000202654 2.37845 0.224155 2.1545 0.5 2.1543H13.4229ZM2.93848 10.1729C2.97676 10.7471 3.00392 11.1492 3.0498 11.4619C3.09478 11.7682 3.15257 11.9492 3.23145 12.0879C3.39677 12.3781 3.64678 12.612 3.94727 12.7578C4.09088 12.8274 4.27535 12.8729 4.58398 12.8975C4.89907 12.9225 5.30236 12.9229 5.87793 12.9229H8.04492C8.62048 12.9229 9.02377 12.9225 9.33887 12.8975C9.64776 12.8729 9.83189 12.8274 9.97559 12.7578C10.2764 12.6121 10.526 12.3783 10.6914 12.0879C10.7704 11.9491 10.828 11.7685 10.873 11.4619C10.9189 11.1492 10.9461 10.7472 10.9844 10.1729L11.4531 3.1543H2.46973L2.93848 10.1729ZM5.52539 5.38477C5.80141 5.38477 6.02519 5.6088 6.02539 5.88477V9.47461C6.02525 9.75064 5.80145 9.97461 5.52539 9.97461C5.24962 9.97427 5.02553 9.75043 5.02539 9.47461V5.88477C5.02559 5.609 5.24966 5.3851 5.52539 5.38477ZM8.39746 5.38477C8.67347 5.38478 8.89726 5.6088 8.89746 5.88477V9.47461C8.89733 9.75063 8.67351 9.9746 8.39746 9.97461C8.12157 9.97441 7.8976 9.75051 7.89746 9.47461V5.88477C7.89766 5.60892 8.12162 5.38497 8.39746 5.38477ZM9.11523 0C9.39125 0 9.61503 0.22403 9.61523 0.5C9.61523 0.776142 9.39138 1 9.11523 1H4.80762C4.53168 0.999757 4.30762 0.775992 4.30762 0.5C4.30782 0.22418 4.53181 0.000243017 4.80762 0H9.11523Z" fill="var(--fill-0, currentColor)"/>
</svg>
