<svg width="16" height="16" viewBox="0 0 13 14.5293" fill="none" xmlns="http://www.w3.org/2000/svg">
<path id="Union" d="M7.22949 0C8.0579 1.40964e-05 8.72949 0.671587 8.72949 1.5V1.72949H11.3242V1.7373H12.5L12.6006 1.74707C12.8284 1.79357 12.9998 1.99577 13 2.2373C13 2.47899 12.8285 2.68098 12.6006 2.72754L12.5 2.7373H11.3242V12.0293C11.3242 13.4098 10.2047 14.529 8.82422 14.5293H4.17676C2.79605 14.5293 1.67676 13.41 1.67676 12.0293V2.7373H0.5C0.223858 2.7373 0 2.51345 0 2.2373C0.000220206 1.96135 0.223994 1.7373 0.5 1.7373H1.67676V1.72949H4.27051V1.5C4.27051 0.67158 4.94208 0 5.77051 0H7.22949ZM2.67676 2.7373V12.0293C2.67676 12.8577 3.34833 13.5293 4.17676 13.5293H8.82422C9.65239 13.529 10.3242 12.8575 10.3242 12.0293V2.7373H2.67676ZM5.77051 1C5.49437 1 5.27051 1.22386 5.27051 1.5V1.72949H7.72949V1.5C7.72949 1.22387 7.50562 1.00001 7.22949 1H5.77051Z" fill="var(--fill-0, currentColor)"/>
</svg>
