<svg width="16" height="16" viewBox="0 0 14 13.5" fill="none" xmlns="http://www.w3.org/2000/svg">
<path id="Union" fill-rule="evenodd" clip-rule="evenodd" d="M12 0C13.1046 0 14 0.895431 14 2V10C14 11.1046 13.1046 12 12 12H2C0.895431 12 0 11.1046 0 10V2C0 0.895431 0.895431 0 2 0H12ZM2 1C1.44772 1 1 1.44772 1 2V10L1.00488 10.1025C1.05621 10.6067 1.48232 11 2 11H12C12.5523 11 13 10.5523 13 10V2C13 1.44772 12.5523 1 12 1H2ZM10 12.5C10.2761 12.5 10.5 12.7239 10.5 13C10.5 13.2761 10.2761 13.5 10 13.5H4C3.72386 13.5 3.5 13.2761 3.5 13C3.5 12.7239 3.72386 12.5 4 12.5H10ZM6.12402 3.19946C5.62694 2.85157 4.94434 3.20698 4.94434 3.81372V8.29712C4.94434 8.9037 5.62698 9.25977 6.12402 8.91235L9.32715 6.67017C9.75369 6.37159 9.75369 5.73925 9.32715 5.44067L6.12402 3.19946ZM8.46094 6.05493L5.94434 7.81665V4.29321L8.46094 6.05493Z" fill="var(--fill-0, currentColor)"/>
</svg>
