<svg width="16" height="16" viewBox="0 0 11.4005 11.3995" fill="none" xmlns="http://www.w3.org/2000/svg">
<path id="Union" fill-rule="evenodd" clip-rule="evenodd" d="M8.98528 10.3995L10.3995 8.98528L7.88957 6.47535L6.47535 7.88957L7.91426 9.32848L8.43562 8.77812C8.6253 8.5775 8.94137 8.56849 9.14203 8.7581C9.34265 8.94777 9.35165 9.26385 9.16206 9.46451L8.62206 10.0363L8.98528 10.3995ZM5.76825 8.59667L8.27817 11.1066C8.6687 11.4971 9.30186 11.4971 9.69239 11.1066L11.1066 9.69239C11.4971 9.30186 11.4971 8.6687 11.1066 8.27817L8.59667 5.76825L11.1077 3.25727C11.4982 2.86674 11.4982 2.23358 11.1077 1.84305L9.69344 0.428839C9.30292 0.0383151 8.66975 0.038315 8.27923 0.428839L5.76825 2.93982L2.97487 0.146447C2.77961 -0.0488155 2.46303 -0.0488155 2.26777 0.146447L0.146447 2.26777C-0.0488155 2.46303 -0.0488155 2.77961 0.146447 2.97487L2.93982 5.76825L0.962329 7.74574C0.908097 7.79997 0.866756 7.86576 0.842176 7.93771L0.823531 8.01159L0.362255 10.5942C0.333594 10.7551 0.38548 10.9199 0.501052 11.0354C0.616624 11.151 0.781401 11.2029 0.942303 11.1742L3.5249 10.713C3.62554 10.695 3.71846 10.6465 3.79076 10.5742L5.76825 8.59667ZM3.64693 5.06114L5.06114 3.64693L2.62132 1.20711L1.20711 2.62132L1.91076 3.32497L2.39275 2.84298C2.58802 2.64772 2.9046 2.64772 3.09986 2.84298C3.29512 3.03824 3.29512 3.35483 3.09986 3.55009L2.61787 4.03208L3.64693 5.06114ZM1.47263 10.0639L1.77992 8.34236L8.98633 1.13595L10.4005 2.55016L3.19413 9.75657L1.47263 10.0639Z" fill="var(--fill-0, currentColor)"/>
</svg>
