<svg width="16" height="16" viewBox="0 0 16 16" fill="none" xmlns="http://www.w3.org/2000/svg">
<path fill-rule="evenodd" clip-rule="evenodd" d="M2.34762 5.35329C2.15236 5.15803 2.15236 4.84145 2.34762 4.64618L3.40828 3.58552L4.46894 2.52486C4.6642 2.3296 4.98078 2.3296 5.17605 2.52486L7.29737 4.64618L7.96942 5.31824L10.4804 2.80726C10.8709 2.41673 11.5041 2.41673 11.8946 2.80726L13.3088 4.22147C13.6993 4.61199 13.6994 5.24516 13.3088 5.63568L10.7978 8.14666L11.54 8.88883L13.3078 10.6566C13.6983 11.0471 13.6983 11.6803 13.3078 12.0708L11.8936 13.485C11.503 13.8755 10.8699 13.8755 10.4793 13.485L9.77224 12.7779L7.96942 10.9751L5.99173 12.9528C5.91944 13.0251 5.82671 13.0735 5.72606 13.0914L3.14366 13.5525C2.98269 13.5813 2.81784 13.5295 2.70222 13.4139C2.5866 13.2982 2.53482 13.1334 2.56356 12.9724L3.02464 10.39C3.04261 10.2894 3.09101 10.1966 3.16331 10.1243L5.14099 8.14666L4.46894 7.47461L3.75838 6.76405L2.34762 5.35329ZM5.8481 7.43956L7.26231 6.02534L6.59026 5.35329L4.82249 3.58552L4.11539 4.29263L3.40828 4.99974L4.11193 5.70339L4.5941 5.22123C4.78936 5.02596 5.10594 5.02596 5.3012 5.22123C5.49647 5.41649 5.49647 5.73307 5.3012 5.92833L4.81904 6.4105L5.17605 6.76751L5.8481 7.43956ZM8.67653 10.268L10.1157 11.7072L10.6367 11.1562C10.8264 10.9556 11.1429 10.9467 11.3435 11.1364C11.5442 11.3261 11.553 11.6426 11.3633 11.8432L10.8231 12.4146L11.1865 12.7779L12.6007 11.3637L10.8329 9.59593L10.0907 8.85377L8.67653 10.268ZM3.67408 12.442L3.98147 10.7204L11.1875 3.51436L12.6017 4.92858L5.39568 12.1346L3.67408 12.442Z" fill="currentColor"/>
</svg>
