<svg width="16" height="16" viewBox="0 0 14.5 13" fill="none" xmlns="http://www.w3.org/2000/svg">
<path id="Union" fill-rule="evenodd" clip-rule="evenodd" d="M13 1C13.2761 1 13.5 1.22386 13.5 1.5V9C13.5 9.27614 13.2761 9.5 13 9.5H7.25H1.5C1.22386 9.5 1 9.27614 1 9V1.5C1 1.22386 1.22386 1 1.5 1H13ZM7.75 10.5H13C13.8284 10.5 14.5 9.82843 14.5 9V1.5C14.5 0.671573 13.8284 0 13 0H1.5C0.671573 0 0 0.671573 0 1.5V9C0 9.82843 0.671573 10.5 1.5 10.5H6.75V12H5.25C4.97386 12 4.75 12.2239 4.75 12.5C4.75 12.7761 4.97386 13 5.25 13H9.25C9.52614 13 9.75 12.7761 9.75 12.5C9.75 12.2239 9.52614 12 9.25 12H7.75V10.5Z" fill="var(--fill-0, currentColor)"/>
</svg>
