<svg width="16" height="16" viewBox="0 0 16 16" fill="none" xmlns="http://www.w3.org/2000/svg">
<path fill-rule="evenodd" clip-rule="evenodd" d="M2.25 1.5C1.42157 1.5 0.75 2.17157 0.75 3V10.5C0.75 11.3284 1.42157 12 2.25 12H7.5V13.5H6C5.72386 13.5 5.5 13.7239 5.5 14C5.5 14.2761 5.72386 14.5 6 14.5H8H10C10.2761 14.5 10.5 14.2761 10.5 14C10.5 13.7239 10.2761 13.5 10 13.5H8.5V12H13.75C14.5784 12 15.25 11.3284 15.25 10.5V3C15.25 2.17157 14.5784 1.5 13.75 1.5H2.25ZM8 11H13.75C14.0261 11 14.25 10.7761 14.25 10.5V3C14.25 2.72386 14.0261 2.5 13.75 2.5H2.25C1.97386 2.5 1.75 2.72386 1.75 3V10.5C1.75 10.7761 1.97386 11 2.25 11H8Z" fill="currentColor"/>
</svg>
