<svg width="16" height="16" viewBox="0 0 13 14" fill="none" xmlns="http://www.w3.org/2000/svg">
<path id="Union" d="M10.7559 0.0126953C12.0164 0.140824 13 1.20566 13 2.5V11.5C13 12.8807 11.8807 14 10.5 14H2.5C1.11929 14 4.0266e-08 12.8807 0 11.5V2.5C0 1.11929 1.11929 3.22128e-08 2.5 0H10.5L10.7559 0.0126953ZM2.5 1C1.67157 1 1 1.67157 1 2.5V11.5C1 12.3284 1.67157 13 2.5 13H10.5C11.3284 13 12 12.3284 12 11.5V2.5C12 1.72334 11.4097 1.08461 10.6533 1.00781L10.5 1H2.5ZM3.625 9.5C3.97018 9.5 4.25 9.77982 4.25 10.125C4.25 10.4702 3.97018 10.75 3.625 10.75C3.27982 10.75 3 10.4702 3 10.125C3 9.77982 3.27982 9.5 3.625 9.5ZM10 9.625C10.2761 9.625 10.5 9.84886 10.5 10.125C10.5 10.4011 10.2761 10.625 10 10.625H6C5.72386 10.625 5.5 10.4011 5.5 10.125C5.5 9.84886 5.72386 9.625 6 9.625H10ZM3.625 6.5C3.97018 6.5 4.25 6.77982 4.25 7.125C4.25 7.47018 3.97018 7.75 3.625 7.75C3.27982 7.75 3 7.47018 3 7.125C3 6.77982 3.27982 6.5 3.625 6.5ZM10 6.625C10.2761 6.625 10.5 6.84886 10.5 7.125C10.5 7.40114 10.2761 7.625 10 7.625H6C5.72386 7.625 5.5 7.40114 5.5 7.125C5.5 6.84886 5.72386 6.625 6 6.625H10ZM3.625 3.5C3.97018 3.5 4.25 3.77982 4.25 4.125C4.25 4.47018 3.97018 4.75 3.625 4.75C3.27982 4.75 3 4.47018 3 4.125C3 3.77982 3.27982 3.5 3.625 3.5ZM10 3.625C10.2761 3.625 10.5 3.84886 10.5 4.125C10.5 4.40114 10.2761 4.625 10 4.625H6C5.72386 4.625 5.5 4.40114 5.5 4.125C5.5 3.84886 5.72386 3.625 6 3.625H10Z" fill="var(--fill-0, currentColor)"/>
</svg>
