<svg width="16" height="16" viewBox="0 0 15.0005 14.9998" fill="none" xmlns="http://www.w3.org/2000/svg">
<path id="Union" fill-rule="evenodd" clip-rule="evenodd" d="M6.09961 1C9.00572 1 11.2002 2.94765 11.2002 5.16699C11.2 7.3862 9.00558 9.33301 6.09961 9.33301C5.35231 9.33296 4.64607 9.19907 4.00879 8.96289C3.86946 8.91125 3.71525 8.92475 3.58789 8.99707L3.53516 9.03223L1.93359 10.2324V7.74414C1.93351 7.63109 1.89467 7.52104 1.82422 7.43262C1.29835 6.77245 1.00008 5.99474 1 5.16699C1 2.94775 3.1937 1.00017 6.09961 1ZM6.09961 10.333C9.37951 10.333 12.2 8.10135 12.2002 5.16699C12.2002 2.23247 9.37963 0 6.09961 0C2.81975 0.000177223 0 2.23259 0 5.16699C7.40012e-05 6.18159 0.349294 7.11908 0.933594 7.9082V11.2334C0.933618 11.4228 1.04058 11.596 1.20996 11.6807C1.37924 11.7652 1.58198 11.7472 1.7334 11.6338L3.92188 9.99023C4.59873 10.2104 5.33212 10.333 6.09961 10.333ZM13.3433 6.38867C13.7644 6.99723 14.0005 7.69518 14.0005 8.43359C14.0004 9.26218 13.7022 10.039 13.1763 10.6992C13.1058 10.7877 13.067 10.8977 13.0669 11.0107V13.5654L11.2446 12.3516C11.1487 12.2877 11.0349 12.2593 10.9224 12.2695L10.811 12.293C10.2198 12.4886 9.5756 12.5996 8.8999 12.5996C7.44799 12.5995 6.14933 12.1031 5.22803 11.3223C5.01738 11.1437 4.7015 11.1692 4.52295 11.3799C4.3444 11.5905 4.37089 11.9064 4.58154 12.085C5.69283 13.0268 7.2237 13.5995 8.8999 13.5996C9.59679 13.5996 10.2652 13.4975 10.8882 13.3154L13.2896 14.916C13.443 15.0183 13.6407 15.0274 13.8032 14.9404C13.9656 14.8534 14.0668 14.6842 14.0669 14.5V11.1748C14.6511 10.3858 15.0004 9.44909 15.0005 8.43359C15.0005 7.47526 14.6926 6.58186 14.1655 5.82031C14.0084 5.59327 13.6973 5.53627 13.4702 5.69336C13.2433 5.85043 13.1864 6.16164 13.3433 6.38867Z" fill="var(--fill-0, currentColor)"/>
</svg>
