<svg width="16" height="16" viewBox="0 0 13.4422 14.2529" fill="none" xmlns="http://www.w3.org/2000/svg">
<path id="Union" d="M9.53985 0.0107422C10.5482 0.113358 11.3358 0.964611 11.3358 2V7.51953L11.3279 7.64453C11.3124 7.76791 11.2734 7.88817 11.2137 7.99805L8.09552 13.7305L8.02227 13.8457C7.86218 14.0632 7.61993 14.2065 7.35235 14.2432L7.21661 14.2529H6.9168L6.7127 14.2422C5.7712 14.1467 5.02308 13.3985 4.92755 12.457L4.9168 12.2529V9.71777H2.00274L1.87091 9.71387C0.522639 9.62847 -0.369836 8.23649 0.150203 6.96191L2.48321 1.24414C2.7903 0.491907 3.52228 0.000165351 4.33477 0H9.33575L9.53985 0.0107422ZM4.33477 1C3.92861 1.00017 3.56251 1.24602 3.40899 1.62207L1.07598 7.33984C0.807609 7.99761 1.29234 8.71777 2.00274 8.71777H4.9168C5.46888 8.71801 5.91678 9.16565 5.9168 9.71777V12.2529C5.91688 12.8051 6.36457 13.2529 6.9168 13.2529H7.21661L10.3358 7.51953V2C10.3358 1.44797 9.88768 1.00042 9.33575 1H4.33477ZM12.9422 0.133789C13.2182 0.13387 13.4421 0.357788 13.4422 0.633789V7.11914L13.4324 7.21973C13.3857 7.44741 13.1837 7.61907 12.9422 7.61914C12.7006 7.61914 12.4987 7.44746 12.452 7.21973L12.4422 7.11914V0.633789C12.4423 0.357738 12.6661 0.133789 12.9422 0.133789Z" fill="var(--fill-0, currentColor)"/>
</svg>
