<svg width="16" height="16" viewBox="0 0 15 3" fill="none" xmlns="http://www.w3.org/2000/svg">
<path id="Union" d="M0.5 0C0.776142 0 1 0.223858 1 0.5V2.5C1 2.77614 0.776142 3 0.5 3C0.223858 3 0 2.77614 0 2.5V0.5C0 0.223858 0.223858 0 0.5 0ZM14.5 0C14.7761 0 15 0.223858 15 0.5V2.5C15 2.77614 14.7761 3 14.5 3C14.2239 3 14 2.77614 14 2.5V0.5C14 0.223858 14.2239 0 14.5 0ZM12.5 1C12.7761 1 12.9999 1.22397 13 1.5C13 1.77614 12.7761 2 12.5 2H2.5C2.22386 2 2 1.77614 2 1.5C2.00013 1.22397 2.22394 1 2.5 1H12.5Z" fill="var(--fill-0, currentColor)"/>
</svg>
