<svg width="16" height="16" viewBox="0 0 16 16" fill="none" xmlns="http://www.w3.org/2000/svg">
<path fill-rule="evenodd" clip-rule="evenodd" d="M7.75 4.5C6.92157 4.5 6.25 3.82843 6.25 3C6.25 2.17157 6.92157 1.5 7.75 1.5C8.57843 1.5 9.25 2.17157 9.25 3C9.25 3.82843 8.57843 4.5 7.75 4.5ZM6.25 8C6.25 8.82843 6.92157 9.5 7.75 9.5C8.57843 9.5 9.25 8.82843 9.25 8C9.25 7.17157 8.57843 6.5 7.75 6.5C6.92157 6.5 6.25 7.17157 6.25 8ZM6.25 13C6.25 13.8284 6.92157 14.5 7.75 14.5C8.57843 14.5 9.25 13.8284 9.25 13C9.25 12.1716 8.57843 11.5 7.75 11.5C6.92157 11.5 6.25 12.1716 6.25 13Z" fill="currentColor"/>
</svg>
