<svg width="16" height="16" viewBox="0 0 14.5353 8.52353" fill="none" xmlns="http://www.w3.org/2000/svg">
<path id="Union" d="M9.80871 0.170961C9.99034 -0.0366809 10.3059 -0.0582496 10.5138 0.12311C10.7218 0.304772 10.7433 0.62119 10.5616 0.829164L3.98938 8.3526C3.89562 8.45988 3.76075 8.52202 3.61828 8.5235C3.47575 8.52496 3.33923 8.46582 3.24328 8.36041L0.130001 4.94049C-0.0556149 4.73639 -0.0406307 4.42031 0.163204 4.23444C0.367412 4.04856 0.684351 4.06344 0.870236 4.26764L3.60461 7.27252L9.80871 0.170961ZM13.6593 0.170961C13.8409 -0.0365215 14.1565 -0.0580963 14.3644 0.12311C14.572 0.304741 14.5936 0.621279 14.4122 0.829164L7.84094 8.3526C7.74727 8.45984 7.61123 8.5219 7.46887 8.5235C7.3265 8.52491 7.18978 8.46564 7.09387 8.36041L6.31555 7.50495C6.13009 7.30076 6.14479 6.98466 6.34875 6.79889C6.55297 6.61326 6.86998 6.62797 7.05578 6.83209L7.4552 7.27155L13.6593 0.170961Z" fill="var(--fill-0, currentColor)"/>
</svg>
