<svg width="16" height="16" viewBox="0 0 16 16" fill="none" xmlns="http://www.w3.org/2000/svg">
<path d="M10.541 3.90869C10.7226 3.70105 11.0382 3.67948 11.2461 3.86084C11.4541 4.0425 11.4756 4.35892 11.2939 4.56689L4.72168 12.0903C4.62792 12.1976 4.49306 12.2598 4.35059 12.2612C4.20806 12.2627 4.07154 12.2035 3.97559 12.0981L0.862305 8.67822C0.676689 8.47412 0.691673 8.15804 0.895508 7.97217C1.09972 7.78629 1.41665 7.80117 1.60254 8.00537L4.33691 11.0103L10.541 3.90869ZM14.3916 3.90869C14.5732 3.70121 14.8888 3.67963 15.0967 3.86084C15.3043 4.04247 15.3259 4.35901 15.1445 4.56689L8.57324 12.0903C8.47957 12.1976 8.34353 12.2596 8.20117 12.2612C8.0588 12.2626 7.92208 12.2034 7.82617 12.0981L7.04785 11.2427C6.8624 11.0385 6.87709 10.7224 7.08105 10.5366C7.28527 10.351 7.60228 10.3657 7.78809 10.5698L8.1875 11.0093L14.3916 3.90869Z" fill="currentColor"/>
</svg>
