<svg width="16" height="16" viewBox="0 0 13.9717 14.333" fill="none" xmlns="http://www.w3.org/2000/svg">
<path id="Union" d="M11.3389 2.46686e-06C11.7038 2.35384e-06 12.0076 -0.000654065 12.2549 0.0195337C12.5081 0.0402235 12.7459 0.0856779 12.9707 0.200198C13.3156 0.375971 13.5967 0.656077 13.7725 1.00098C13.8869 1.22566 13.9315 1.46375 13.9522 1.7168C13.9723 1.96413 13.9717 2.26891 13.9717 2.63379V5.7002C13.9717 6.0649 13.9723 6.36899 13.9522 6.61621C13.9315 6.86917 13.8868 7.10743 13.7725 7.33203C13.5967 7.67682 13.3155 7.95809 12.9707 8.13379C12.746 8.24814 12.5079 8.2928 12.2549 8.31348C12.0076 8.33366 11.7038 8.33301 11.3389 8.33301H10.832C10.7005 8.33301 10.625 8.33328 10.5684 8.33692C10.5355 8.33904 10.5204 8.34167 10.5156 8.34278C10.4915 8.3515 10.4689 8.36623 10.4512 8.38477C10.448 8.38908 10.4397 8.40236 10.4248 8.43067C10.3986 8.48086 10.3677 8.55005 10.3145 8.66992L8.07326 13.7109C7.90499 14.089 7.53008 14.3329 7.11622 14.333C5.93236 14.333 4.97196 13.3733 4.97169 12.1895V10.2334C4.97169 10.0388 4.97185 9.92198 4.96486 9.83594C4.96105 9.78949 4.95645 9.76641 4.95411 9.75781C4.93817 9.72652 4.91215 9.70056 4.88087 9.68457C4.87272 9.6823 4.85022 9.67772 4.80275 9.67383L4.40529 9.66699H3.86915C3.2355 9.66699 2.72751 9.6668 2.32228 9.63184C1.91251 9.59646 1.55449 9.52178 1.23439 9.33985C0.730123 9.05311 0.340625 8.59958 0.133802 8.05762C0.00258968 7.71356 -0.0165742 7.3479 0.0107554 6.9375C0.0378073 6.5318 0.11562 6.03029 0.211927 5.4043L0.56056 3.1377C0.633433 2.66402 0.691901 2.28036 0.763685 1.97168C0.836919 1.65696 0.931385 1.38281 1.09376 1.13379C1.35378 0.735273 1.72286 0.419085 2.15626 0.222659C2.42713 0.099968 2.71193 0.047975 3.03419 0.02344C3.3503 -0.000618894 3.73824 2.45553e-06 4.21779 2.46686e-06H11.3389ZM4.21779 1C3.72326 1 3.37972 1.00003 3.11036 1.02051C2.84724 1.04054 2.69089 1.07828 2.56837 1.13379C2.30853 1.25166 2.08757 1.4417 1.93165 1.68067C1.85831 1.79325 1.79703 1.94162 1.73732 2.19824C1.67616 2.46124 1.62398 2.80069 1.54884 3.28906L1.20021 5.55567C1.10121 6.19915 1.03233 6.65126 1.0088 7.00391C0.98566 7.35152 1.01124 7.55133 1.06837 7.70117C1.19248 8.02627 1.42602 8.29869 1.72853 8.47071C1.86795 8.54991 2.06118 8.60578 2.40822 8.63574C2.76044 8.66613 3.21779 8.66699 3.86915 8.66699H4.40529L4.66017 8.66797C4.74055 8.66927 4.81564 8.67217 4.8838 8.67774C5.02588 8.68935 5.18145 8.71572 5.33497 8.79395C5.5544 8.9058 5.73292 9.08427 5.84474 9.30371C5.92282 9.45713 5.94935 9.61291 5.96095 9.75489C5.97203 9.89102 5.97169 10.0552 5.97169 10.2334V12.1895C5.97196 12.821 6.48464 13.333 7.11622 13.333C7.13492 13.3329 7.15242 13.3217 7.16017 13.3047L9.4004 8.26367C9.46802 8.11153 9.53765 7.94768 9.63869 7.80567V1H4.21779ZM10.6387 7.33594C10.7041 7.33483 10.7689 7.33301 10.832 7.33301H11.3389C11.7204 7.33301 11.9766 7.33252 12.1738 7.31641C12.3647 7.3008 12.4563 7.27286 12.5166 7.24219C12.6733 7.16236 12.801 7.03455 12.8809 6.87793C12.9116 6.81763 12.9395 6.72594 12.9551 6.53516C12.9712 6.33802 12.9717 6.08144 12.9717 5.7002V2.63379C12.9717 2.25248 12.9712 1.99504 12.9551 1.79785C12.9395 1.60718 12.9115 1.51541 12.8809 1.45508C12.801 1.29838 12.6733 1.17071 12.5166 1.09082C12.4563 1.06014 12.3648 1.03222 12.1738 1.0166C12.0752 1.00854 11.9617 1.00409 11.8252 1.00196L11.3389 1H10.6387V7.33594Z" fill="var(--fill-0, currentColor)"/>
</svg>
