<svg width="16" height="16" viewBox="0 0 12 14" fill="none" xmlns="http://www.w3.org/2000/svg">
<path id="Union" d="M11.5 13C11.7761 13 12 13.2239 12 13.5C12 13.7761 11.7761 14 11.5 14H0.5C0.223858 14 0 13.7761 0 13.5C0 13.2239 0.223858 13 0.5 13H11.5ZM6 0C6.27614 0 6.5 0.223858 6.5 0.5V9.29297L10.6465 5.14648C10.8417 4.95122 11.1583 4.95122 11.3535 5.14648C11.5488 5.34175 11.5488 5.65825 11.3535 5.85352L6.35352 10.8535C6.18265 11.0244 5.91869 11.0461 5.72461 10.918L5.64648 10.8535L0.646484 5.85352C0.451222 5.65825 0.451222 5.34175 0.646484 5.14648C0.841747 4.95122 1.15825 4.95122 1.35352 5.14648L5.5 9.29297V0.5C5.5 0.223858 5.72386 0 6 0Z" fill="var(--fill-0, currentColor)"/>
</svg>
