<svg width="16" height="16" viewBox="0 0 14.002 14.002" fill="none" xmlns="http://www.w3.org/2000/svg">
<path id="Union" d="M7.00098 0C10.8674 0.000130332 14.0019 3.13451 14.002 7.00098C14.0018 10.8674 10.8674 14.0018 7.00098 14.002C3.1345 14.0019 0.000111588 10.8674 0 7.00098C6.28796e-05 3.13447 3.13447 5.51472e-05 7.00098 0ZM7.00098 1C3.68676 1.00006 1.00006 3.68675 1 7.00098C1.00011 10.3152 3.68679 13.0019 7.00098 13.002C10.3151 13.0018 13.0018 10.3151 13.002 7.00098C13.0019 3.6868 10.3151 1.00013 7.00098 1ZM7.00098 3.90039C7.27692 3.90052 7.50083 4.12445 7.50098 4.40039V8.39453L9.24805 6.64746C9.44331 6.45231 9.75985 6.45226 9.95508 6.64746C10.1501 6.84271 10.1502 7.1593 9.95508 7.35449L7.35449 9.95508C7.26079 10.0487 7.13347 10.1015 7.00098 10.1016C6.86851 10.1015 6.74118 10.0487 6.64746 9.95508L4.04688 7.35449C3.85182 7.15924 3.85175 6.84267 4.04688 6.64746C4.24208 6.45228 4.55864 6.45239 4.75391 6.64746L6.50098 8.39453V4.40039C6.50112 4.1244 6.72497 3.90045 7.00098 3.90039Z" fill="var(--fill-0, currentColor)"/>
</svg>
