<svg width="16" height="16" viewBox="0 0 16 16" fill="none" xmlns="http://www.w3.org/2000/svg">
<path d="M12.3389 0.833984C12.7038 0.833984 13.0076 0.833328 13.2549 0.853516C13.5081 0.874205 13.7459 0.91966 13.9707 1.03418C14.3156 1.20995 14.5967 1.49006 14.7725 1.83496C14.8868 2.05964 14.9315 2.29773 14.9521 2.55078C14.9723 2.79811 14.9717 3.10289 14.9717 3.46777V6.53418C14.9717 6.89888 14.9723 7.20297 14.9521 7.4502C14.9314 7.70315 14.8868 7.94141 14.7725 8.16602C14.5967 8.5108 14.3155 8.79207 13.9707 8.96777C13.746 9.08212 13.5079 9.12679 13.2549 9.14746C13.0076 9.16765 12.7038 9.16699 12.3389 9.16699H11.832C11.7005 9.16699 11.625 9.16726 11.5684 9.1709C11.5355 9.17302 11.5204 9.17566 11.5156 9.17676C11.4915 9.18548 11.4689 9.20022 11.4512 9.21875C11.448 9.22306 11.4396 9.23634 11.4248 9.26465C11.3985 9.31485 11.3677 9.38403 11.3145 9.50391L9.07324 14.5449C8.90497 14.923 8.53007 15.1669 8.11621 15.167C6.93234 15.167 5.97195 14.2072 5.97168 13.0234V11.0674C5.97168 10.8728 5.97184 10.756 5.96484 10.6699C5.96104 10.6235 5.95644 10.6004 5.9541 10.5918C5.93815 10.5605 5.91214 10.5345 5.88086 10.5186C5.87271 10.5163 5.85021 10.5117 5.80273 10.5078L5.40527 10.501H4.86914C4.23548 10.501 3.7275 10.5008 3.32227 10.4658C2.91249 10.4304 2.55448 10.3558 2.23438 10.1738C1.73011 9.88709 1.34061 9.43356 1.13379 8.8916C1.00258 8.54754 0.983413 8.18189 1.01074 7.77148C1.03779 7.36579 1.11561 6.86427 1.21191 6.23828L1.56055 3.97168C1.63342 3.498 1.69189 3.11434 1.76367 2.80566C1.83691 2.49094 1.93137 2.21679 2.09375 1.96777C2.35376 1.56926 2.72285 1.25307 3.15625 1.05664C3.42712 0.93395 3.71191 0.881957 4.03418 0.857422C4.35029 0.833363 4.73823 0.833984 5.21777 0.833984H12.3389ZM5.21777 1.83398C4.72325 1.83398 4.3797 1.83401 4.11035 1.85449C3.84723 1.87453 3.69087 1.91226 3.56836 1.96777C3.30852 2.08564 3.08756 2.27568 2.93164 2.51465C2.8583 2.62724 2.79702 2.7756 2.7373 3.03223C2.67615 3.29522 2.62396 3.63467 2.54883 4.12305L2.2002 6.38965C2.1012 7.03314 2.03231 7.48524 2.00879 7.83789C1.98565 8.1855 2.01122 8.38532 2.06836 8.53516C2.19247 8.86026 2.42601 9.13267 2.72852 9.30469C2.86794 9.3839 3.06117 9.43976 3.4082 9.46973C3.76042 9.50011 4.21778 9.50098 4.86914 9.50098H5.40527L5.66016 9.50195C5.74053 9.50325 5.81562 9.50615 5.88379 9.51172C6.02587 9.52333 6.18143 9.54971 6.33496 9.62793C6.55439 9.73978 6.7329 9.91825 6.84473 10.1377C6.92281 10.2911 6.94934 10.4469 6.96094 10.5889C6.97202 10.725 6.97168 10.8892 6.97168 11.0674V13.0234C6.97195 13.655 7.48463 14.167 8.11621 14.167C8.13491 14.1669 8.1524 14.1557 8.16016 14.1387L10.4004 9.09766C10.468 8.94551 10.5376 8.78167 10.6387 8.63965V1.83398H5.21777ZM11.6387 8.16992C11.7041 8.16881 11.7689 8.16699 11.832 8.16699H12.3389C12.7204 8.16699 12.9766 8.1665 13.1738 8.15039C13.3647 8.13479 13.4562 8.10684 13.5166 8.07617C13.6733 7.99634 13.801 7.86854 13.8809 7.71191C13.9116 7.65161 13.9394 7.55993 13.9551 7.36914C13.9712 7.17201 13.9717 6.91542 13.9717 6.53418V3.46777C13.9717 3.08647 13.9712 2.82903 13.9551 2.63184C13.9395 2.44116 13.9115 2.34939 13.8809 2.28906C13.801 2.13236 13.6733 2.00469 13.5166 1.9248C13.4562 1.89412 13.3648 1.8662 13.1738 1.85059C13.0751 1.84252 12.9617 1.83807 12.8252 1.83594L12.3389 1.83398H11.6387V8.16992Z" fill="currentColor"/>
</svg>
