<svg width="16" height="16" viewBox="0 0 16 16" fill="none" xmlns="http://www.w3.org/2000/svg">
<path d="M13.5 14C13.7761 14 14 14.2239 14 14.5C14 14.7761 13.7761 15 13.5 15H2.5C2.22386 15 2 14.7761 2 14.5C2 14.2239 2.22386 14 2.5 14H13.5ZM8 1C8.27614 1 8.5 1.22386 8.5 1.5V10.293L12.6465 6.14648C12.8417 5.95122 13.1583 5.95122 13.3535 6.14648C13.5488 6.34175 13.5488 6.65825 13.3535 6.85352L8.35352 11.8535C8.18265 12.0244 7.91869 12.0461 7.72461 11.918L7.64648 11.8535L2.64648 6.85352C2.45122 6.65825 2.45122 6.34175 2.64648 6.14648C2.84175 5.95122 3.15825 5.95122 3.35352 6.14648L7.5 10.293V1.5C7.5 1.22386 7.72386 1 8 1Z" fill="currentColor"/>
</svg>
