<svg width="16" height="16" viewBox="0 0 7.5 12.5" fill="none" xmlns="http://www.w3.org/2000/svg">
<path id="Union" fill-rule="evenodd" clip-rule="evenodd" d="M0 1.25C0 1.94036 0.559644 2.5 1.25 2.5C1.94036 2.5 2.5 1.94036 2.5 1.25C2.5 0.559644 1.94036 0 1.25 0C0.559644 0 0 0.559644 0 1.25ZM1.25 7.5C0.559644 7.5 0 6.94036 0 6.25C0 5.55964 0.559644 5 1.25 5C1.94036 5 2.5 5.55964 2.5 6.25C2.5 6.94036 1.94036 7.5 1.25 7.5ZM1.25 12.5C0.559644 12.5 0 11.9404 0 11.25C0 10.5596 0.559644 10 1.25 10C1.94036 10 2.5 10.5596 2.5 11.25C2.5 11.9404 1.94036 12.5 1.25 12.5ZM6.25 7.5C5.55964 7.5 5 6.94036 5 6.25C5 5.55964 5.55964 5 6.25 5C6.94036 5 7.5 5.55964 7.5 6.25C7.5 6.94036 6.94036 7.5 6.25 7.5ZM5 11.25C5 11.9404 5.55964 12.5 6.25 12.5C6.94036 12.5 7.5 11.9404 7.5 11.25C7.5 10.5596 6.94036 10 6.25 10C5.55964 10 5 10.5596 5 11.25ZM6.25 2.5C5.55964 2.5 5 1.94036 5 1.25C5 0.559644 5.55964 0 6.25 0C6.94036 0 7.5 0.559644 7.5 1.25C7.5 1.94036 6.94036 2.5 6.25 2.5Z" fill="var(--fill-0, currentColor)"/>
</svg>
