<svg width="16" height="16" viewBox="0 0 12.9209 10.2539" fill="none" xmlns="http://www.w3.org/2000/svg">
<path id="Union" d="M0 7.75391V4.16016C0.000138103 3.88413 0.223943 3.66016 0.5 3.66016C0.776057 3.66016 0.999862 3.88413 1 4.16016V7.75391L1.00781 7.90723C1.08449 8.66375 1.72325 9.25391 2.5 9.25391H10.4209C11.2493 9.25391 11.9209 8.58233 11.9209 7.75391V3.80664C11.9208 2.97826 11.2493 2.30664 10.4209 2.30664H6.40234C6.22215 2.30664 6.05553 2.20957 5.9668 2.05273L5.37109 1H0.5C0.223858 1 0 0.776142 0 0.5C0 0.223858 0.223858 0 0.5 0H5.66309L5.72949 0.00488281C5.88326 0.0255556 6.01999 0.116689 6.09766 0.253906L6.69336 1.30664H10.4209C11.8016 1.30664 12.9208 2.42597 12.9209 3.80664V7.75391C12.9209 9.13462 11.8016 10.2539 10.4209 10.2539H2.5C1.20557 10.2539 0.140709 9.27042 0.0126953 8.00977L0 7.75391Z" fill="var(--fill-0, currentColor)"/>
</svg>
