<svg width="16" height="16" viewBox="0 0 13.9996 12.9114" fill="none" xmlns="http://www.w3.org/2000/svg">
<path id="Union" fill-rule="evenodd" clip-rule="evenodd" d="M12.9996 2V7.22656C12.9994 7.77874 12.5518 8.22656 11.9996 8.22656H11.1802C10.9041 8.22656 10.6802 8.45042 10.6802 8.72656C10.6803 9.0026 10.9042 9.22656 11.1802 9.22656H11.9996C13.104 9.22656 13.9994 8.33103 13.9996 7.22656V2C13.9996 0.895431 13.1041 0 11.9996 0H5.72124C4.61667 0 3.72124 0.89543 3.72124 2V2.82715C3.72124 3.10329 3.94509 3.32715 4.22124 3.32715C4.49738 3.32715 4.72124 3.10329 4.72124 2.82715V2C4.72124 1.44772 5.16895 1 5.72124 1H11.9996C12.5518 1 12.9996 1.44771 12.9996 2ZM8.27832 4.68484C8.8306 4.68484 9.27832 5.13256 9.27832 5.68484V10.9114C9.2782 11.4636 8.83053 11.9114 8.27832 11.9114H2C1.44779 11.9114 1.00012 11.4636 1 10.9114V5.68484C1 5.13256 1.44772 4.68484 2 4.68484H8.27832ZM8.27832 12.9114C9.38281 12.9114 10.2782 12.0159 10.2783 10.9114V5.68484C10.2783 4.58028 9.38289 3.68484 8.27832 3.68484H2C0.895431 3.68484 2.06128e-07 4.58028 0 5.68484V10.9114C0.00012449 12.0159 0.895507 12.9114 2 12.9114H8.27832Z" fill="var(--fill-0, currentColor)"/>
</svg>
