<svg width="16" height="16" viewBox="0 0 16 16" fill="none" xmlns="http://www.w3.org/2000/svg">
<path fill-rule="evenodd" clip-rule="evenodd" d="M6.72124 1.54443C5.61667 1.54443 4.72124 2.43986 4.72124 3.54443V4.37181C4.72124 4.64795 4.94509 4.87181 5.22124 4.87181C5.49738 4.87181 5.72124 4.64795 5.72124 4.37181V3.54443C5.72124 2.99215 6.16895 2.54443 6.72124 2.54443H12.9997C13.552 2.54443 13.9997 2.99215 13.9997 3.54443V8.77077C13.9997 9.32305 13.552 9.77077 12.9997 9.77077H12.1801C11.9039 9.77077 11.6801 9.99462 11.6801 10.2708C11.6801 10.5469 11.9039 10.7708 12.1801 10.7708H12.9997C14.1043 10.7708 14.9997 9.87533 14.9997 8.77077V3.54443C14.9997 2.43986 14.1043 1.54443 12.9997 1.54443H6.72124ZM3 5.22928C1.89543 5.22928 1 6.12471 1 7.22928V12.4556C1 13.5602 1.89543 14.4556 3 14.4556H9.27846C10.383 14.4556 11.2785 13.5602 11.2785 12.4556V7.22928C11.2785 6.12471 10.383 5.22928 9.27846 5.22928H3ZM2 7.22928C2 6.67699 2.44772 6.22928 3 6.22928H9.27846C9.83075 6.22928 10.2785 6.67699 10.2785 7.22928V12.4556C10.2785 13.0079 9.83075 13.4556 9.27846 13.4556H3C2.44771 13.4556 2 13.0079 2 12.4556V7.22928Z" fill="currentColor"/>
</svg>
