<svg width="16" height="16" viewBox="0 0 16 16" fill="none" xmlns="http://www.w3.org/2000/svg">
<path fill-rule="evenodd" clip-rule="evenodd" d="M10.3448 2.47565C9.05549 1.93079 7.61628 1.85389 6.27629 2.25825C4.9363 2.66261 3.77987 3.52279 3.0072 4.68987C2.23453 5.85695 1.89426 7.25746 2.0453 8.64896C2.19633 10.0405 2.82916 11.3354 3.83424 12.3095C4.83931 13.2836 6.15336 13.8756 7.54891 13.9831C8.94445 14.0905 10.3336 13.7066 11.476 12.8978C12.6183 12.0891 13.4419 10.9063 13.8042 9.55431C13.8757 9.28758 14.1498 9.12929 14.4166 9.20076C14.6833 9.27223 14.8416 9.5464 14.7701 9.81313C14.3475 11.3905 13.3866 12.7704 12.0538 13.714C10.7211 14.6576 9.10031 15.1055 7.47214 14.9801C5.84397 14.8548 4.31088 14.1641 3.13827 13.0276C1.96566 11.8911 1.22734 10.3803 1.05113 8.75687C0.874924 7.13342 1.27191 5.49945 2.17338 4.13783C3.07484 2.77621 4.42403 1.77266 5.98739 1.30089C7.55075 0.829122 9.22985 0.918845 10.734 1.55452C11.9684 2.07616 13.0211 2.93849 13.7743 4.0323L13.9944 2.44727C14.0323 2.17376 14.2849 1.98282 14.5584 2.0208C14.8319 2.05878 15.0228 2.3113 14.9849 2.58482L14.5931 5.40611C14.5551 5.67963 14.3026 5.87056 14.0291 5.83258L11.2078 5.4408C10.9342 5.40281 10.7433 5.15029 10.7813 4.87678C10.8193 4.60326 11.0718 4.41232 11.3453 4.4503L13.0057 4.68088C12.3569 3.70468 11.4332 2.93563 10.3448 2.47565ZM10.4469 10.8675C10.6401 10.6702 10.6369 10.3537 10.4397 10.1604L8.51 8.26953L8.51001 4.27833C8.51001 4.00219 8.28615 3.77833 8.01001 3.77833C7.73387 3.77833 7.51001 4.00219 7.51001 4.27833L7.51 8.47961L7.51 8.6897L7.66005 8.83674L9.7398 10.8747C9.93703 11.0679 10.2536 11.0647 10.4469 10.8675Z" fill="currentColor"/>
</svg>
