<svg width="16" height="16" viewBox="0 0 13.9793 13.998" fill="none" xmlns="http://www.w3.org/2000/svg">
<path id="Union" fill-rule="evenodd" clip-rule="evenodd" d="M4.9774 0.298631C6.5406 -0.17302 8.21946 -0.0839912 9.7235 0.551561C10.9578 1.07318 12.0107 1.93568 12.7639 3.02952L12.984 1.44436C13.0221 1.17099 13.2746 0.97992 13.548 1.01789C13.8215 1.05586 14.0123 1.3085 13.9745 1.58191L13.5827 4.40347C13.5447 4.67699 13.2922 4.86793 13.0187 4.82994L10.1971 4.43812C9.92373 4.40001 9.73266 4.14753 9.77063 3.8741C9.8086 3.60067 10.0612 3.40981 10.3347 3.44763L11.9957 3.67829C11.3469 2.70226 10.4231 1.93346 9.33483 1.47344C8.04555 0.928579 6.60548 0.851299 5.26549 1.25566C3.92566 1.66007 2.76953 2.52034 1.99694 3.6873C1.22427 4.85438 0.883993 6.25479 1.03502 7.64629C1.18605 9.03775 1.81905 10.3323 2.82408 11.3064C3.82916 12.2806 5.14338 12.8728 6.53893 12.9803C7.93434 13.0876 9.32345 12.704 10.4657 11.8953C11.608 11.0865 12.4315 9.90354 12.7938 8.55156C12.8653 8.28492 13.1394 8.12663 13.4061 8.19805C13.6728 8.26951 13.831 8.54365 13.7596 8.81035C13.337 10.3877 12.3765 11.7681 11.0438 12.7117C9.71105 13.6553 8.08994 14.1027 6.46178 13.9773C4.83365 13.852 3.30039 13.1616 2.12779 12.0252C0.955295 10.8888 0.217181 9.37796 0.0408804 7.75469C-0.135319 6.13134 0.261608 4.49711 1.16295 3.13555C2.06441 1.77393 3.41405 0.770398 4.9774 0.298631ZM9.43616 9.86519C9.62939 9.668 9.62636 9.35137 9.42926 9.15809L7.49991 7.2674L7.49921 3.27543C7.49907 2.99941 7.27532 2.77548 6.99927 2.77548C6.72338 2.77567 6.49946 2.99952 6.49932 3.27543V7.47663L6.50001 7.68725L6.64986 7.83433L8.72906 9.8721C8.92618 10.0653 9.24286 10.0621 9.43616 9.86519Z" fill="var(--fill-0, currentColor)"/>
</svg>
