<svg width="16" height="16" viewBox="0 0 13.1047 13.1048" fill="none" xmlns="http://www.w3.org/2000/svg">
<path id="Union" d="M8.34538 0.585599C9.12638 -0.195195 10.3925 -0.195205 11.1735 0.585599L12.5192 1.9313C13.2998 2.71232 13.2999 3.97849 12.5192 4.75943L5.1276 12.151C4.91836 12.3603 4.65113 12.503 4.361 12.5612L1.79557 13.0749C0.745991 13.2848 -0.179969 12.3588 0.0299478 11.3092L0.54362 8.7438C0.601742 8.45355 0.74446 8.18652 0.953776 7.9772L8.34538 0.585599ZM1.66081 8.68423C1.59105 8.75399 1.54347 8.84336 1.52409 8.94009L1.01042 11.5055C0.940444 11.8554 1.24942 12.1644 1.59928 12.0944L4.16471 11.5807C4.26133 11.5613 4.35089 11.5137 4.42057 11.444L10.3522 5.51138L7.59245 2.75162L1.66081 8.68423ZM10.4665 1.29263C10.076 0.90235 9.44289 0.902362 9.05241 1.29263L8.29948 2.04458L11.0592 4.80435L11.8122 4.0524C12.2024 3.66198 12.2023 3.02882 11.8122 2.63833L10.4665 1.29263Z" fill="var(--fill-0, currentColor)"/>
</svg>
