<svg width="16" height="16" viewBox="0 0 12.5 12.5" fill="none" xmlns="http://www.w3.org/2000/svg">
<path id="Union" d="M6.72949 0C7.00549 0.00017567 7.22949 0.223966 7.22949 0.5C7.22949 0.776034 7.00549 0.999824 6.72949 1H3C1.89543 1 1 1.89543 1 3V9.5C1 10.6046 1.89543 11.5 3 11.5H9.5C10.6046 11.5 11.5 10.6046 11.5 9.5V5.77051C11.5002 5.49451 11.724 5.27051 12 5.27051C12.276 5.27051 12.4998 5.49451 12.5 5.77051V9.5C12.5 11.1569 11.1569 12.5 9.5 12.5H3C1.34315 12.5 0 11.1569 0 9.5V3C0 1.34315 1.34315 0 3 0H6.72949ZM11.6465 0.146484C11.8418 -0.0485597 12.1583 -0.0487051 12.3535 0.146484C12.5485 0.341691 12.5485 0.658309 12.3535 0.853516L5.62109 7.58594C5.42589 7.78101 5.1093 7.78094 4.91406 7.58594C4.71884 7.39071 4.71892 7.07418 4.91406 6.87891L11.6465 0.146484Z" fill="var(--fill-0, currentColor)"/>
</svg>
