<svg width="16" height="16" viewBox="0 0 12.5 12.5" fill="none" xmlns="http://www.w3.org/2000/svg">
<path id="Union" d="M6.83008 0.00976562C7.05789 0.0564122 7.22949 0.258397 7.22949 0.5C7.22949 0.741603 7.05789 0.943588 6.83008 0.990234L6.72949 1H6.25C3.35051 1 1 3.35051 1 6.25C1 9.14949 3.35051 11.5 6.25 11.5C9.14949 11.5 11.5 9.14949 11.5 6.25V5.77051C11.5002 5.49451 11.724 5.27051 12 5.27051C12.276 5.27051 12.4998 5.49451 12.5 5.77051V6.25C12.5 9.70178 9.70178 12.5 6.25 12.5C2.79822 12.5 0 9.70178 0 6.25C0 2.79822 2.79822 0 6.25 0H6.72949L6.83008 0.00976562ZM11.6465 0.146484C11.8418 -0.0485597 12.1583 -0.0487051 12.3535 0.146484C12.5485 0.341691 12.5485 0.658309 12.3535 0.853516L5.62109 7.58594C5.42589 7.78101 5.1093 7.78094 4.91406 7.58594C4.71884 7.39071 4.71892 7.07418 4.91406 6.87891L11.6465 0.146484Z" fill="var(--fill-0, currentColor)"/>
</svg>
