<svg width="16" height="16" viewBox="0 0 14.7207 12.4414" fill="none" xmlns="http://www.w3.org/2000/svg">
<path id="Union" fill-rule="evenodd" clip-rule="evenodd" d="M12.4141 3.30716C12.3982 3.25842 12.3896 3.20638 12.3896 3.15234V2.5C12.3896 1.67166 11.7179 1.00015 10.8896 1H2.51758C1.68915 1 1.01758 1.67157 1.01758 2.5V3.01583C1.07501 3.31806 1.26975 3.58136 1.55078 3.72266L3.44531 4.6748L4.125 5.0166L4.80176 5.35645L5.22559 5.56543C5.47323 5.68751 5.57513 5.98769 5.45313 6.23535C5.33102 6.48303 5.03088 6.58499 4.7832 6.46289L4.35938 6.25391L4.35645 6.25195L3.67578 5.91016L2.99609 5.56836L1.10156 4.61621C1.07312 4.60191 1.04512 4.58699 1.01758 4.57146V9.44141C1.01758 10.2698 1.68915 10.9414 2.51758 10.9414H5.72949C6.00551 10.9415 6.22945 11.1654 6.22949 11.4414C6.22949 11.7175 6.00554 11.9413 5.72949 11.9414H2.51758C1.13687 11.9414 0.0175782 10.8221 0.0175782 9.44141V3.09391C0.00596266 3.00686 5.93247e-06 2.91843 0 2.8291V2.5C2.71816e-05 1.11932 1.11932 1.32714e-05 2.5 0H2.51758H10.8896H10.9072C12.2879 1.85546e-05 13.4072 1.1193 13.4072 2.5V3.22461C13.407 3.50054 13.1832 3.72459 12.9072 3.72461C12.6594 3.72461 12.4536 3.54389 12.4141 3.30716ZM12.388 5.56696C11.8506 5.17362 11.1878 4.94141 10.4707 4.94141C8.67578 4.94141 7.2207 6.39648 7.2207 8.19141C7.2207 8.90846 7.45292 9.57127 7.84625 10.1087L12.388 5.56696ZM13.0952 6.27406L8.55336 10.8159C9.09084 11.2092 9.75365 11.4414 10.4707 11.4414C12.2656 11.4414 13.7207 9.98633 13.7207 8.19141C13.7207 7.47435 13.4885 6.81154 13.0952 6.27406ZM14.7207 8.19141C14.7207 10.5386 12.8179 12.4414 10.4707 12.4414C8.12349 12.4414 6.2207 10.5386 6.2207 8.19141C6.2207 5.8442 8.12349 3.94141 10.4707 3.94141C12.8179 3.94141 14.7207 5.8442 14.7207 8.19141Z" fill="var(--fill-0, currentColor)"/>
</svg>
