<svg width="16" height="16" viewBox="0 0 14 13" fill="none" xmlns="http://www.w3.org/2000/svg">
<path id="Union" d="M11.5 0C12.8807 0 14 1.11929 14 2.5V10.5C14 11.8807 12.8807 13 11.5 13H2.5C1.11929 13 8.59007e-08 11.8807 0 10.5V2.5C1.18115e-07 1.11929 1.11929 4.0266e-08 2.5 0H11.5ZM2.5 1C1.67157 1 1 1.67157 1 2.5V10.5C1 11.3284 1.67157 12 2.5 12H11.5C12.3284 12 13 11.3284 13 10.5V2.5C13 1.67157 12.3284 1 11.5 1H2.5ZM9.64648 3.14648C9.84175 2.95122 10.1583 2.95122 10.3535 3.14648C10.5488 3.34175 10.5488 3.65825 10.3535 3.85352L7.70703 6.5L10.3535 9.14648C10.5488 9.34175 10.5488 9.65825 10.3535 9.85352C10.1583 10.0488 9.84175 10.0488 9.64648 9.85352L7 7.20703L4.35352 9.85352C4.15825 10.0488 3.84175 10.0488 3.64648 9.85352C3.45122 9.65825 3.45122 9.34175 3.64648 9.14648L6.29297 6.5L3.64648 3.85352C3.45122 3.65825 3.45122 3.34175 3.64648 3.14648C3.84175 2.95122 4.15825 2.95122 4.35352 3.14648L7 5.79297L9.64648 3.14648Z" fill="var(--fill-0, currentColor)"/>
</svg>
