<svg width="16" height="16" viewBox="0 0 14.5 13" fill="none" xmlns="http://www.w3.org/2000/svg">
<path id="Union" fill-rule="evenodd" clip-rule="evenodd" d="M12.75 0C13.7165 0 14.5 0.783502 14.5 1.75C14.5 2.22689 14.3092 2.65923 13.9999 2.97487C13.7361 3.24396 13.3862 3.42824 12.9947 3.48302C12.9148 3.49421 12.8331 3.5 12.75 3.5C11.7835 3.5 11 2.7165 11 1.75C11 1.66512 11.006 1.58165 11.0177 1.5C11.0734 1.11067 11.2572 0.76268 11.5251 0.500124C11.5609 0.465062 11.5982 0.431524 11.6368 0.399615C11.9393 0.149967 12.3272 0 12.75 0ZM10.2999 0.5C10.144 0.804818 10.0434 1.14255 10.0112 1.5H2.5C1.67157 1.5 1 2.17157 1 3V3.5166C1.00006 3.89534 1.21396 4.24178 1.55273 4.41113L6.55273 6.91016C6.83421 7.05085 7.16579 7.05085 7.44727 6.91016L12.3325 4.46851C12.4686 4.48925 12.6081 4.5 12.75 4.5C13.2001 4.5 13.625 4.39186 14 4.20015V10.5C14 11.8807 12.8807 13 11.5 13H2.5C1.20566 13 0.140824 12.0164 0.0126953 10.7559L0 10.5V3.5166V3C0 1.61929 1.11929 0.5 2.5 0.5H10.2999ZM13 5.24894V10.5C13 11.3284 12.3284 12 11.5 12H2.5C1.72334 12 1.08461 11.4097 1.00781 10.6533L1 10.5V5.24894C1.03444 5.26881 1.0696 5.28773 1.10547 5.30566L6.10547 7.80469C6.66841 8.08608 7.33159 8.08608 7.89453 7.80469L12.8945 5.30566C12.9304 5.28773 12.9656 5.26881 13 5.24894Z" fill="var(--fill-0, currentColor)"/>
</svg>
