<svg width="16" height="16" viewBox="0 0 13.5 13.4047" fill="none" xmlns="http://www.w3.org/2000/svg">
<path id="Union" fill-rule="evenodd" clip-rule="evenodd" d="M2.5 13.4047H11L11.2559 13.392C12.4322 13.2724 13.3677 12.3369 13.4873 11.1606L13.5 10.9047V4.77677C13.5 3.85518 12.993 3.00789 12.1807 2.57267L7.93066 0.2963C7.19321 -0.0987667 6.30679 -0.0987667 5.56934 0.2963L1.31934 2.57267C0.506987 3.00789 0 3.85518 0 4.77677V10.9047L0.0126953 11.1606C0.132334 12.3369 1.06776 13.2724 2.24414 13.392L2.5 13.4047ZM11 12.4047H2.5C1.67162 12.4047 1.00008 11.7331 1 10.9047V5.81404L5.56515 8.27175C6.30503 8.67 7.19543 8.67012 7.93527 8.27175L12.5 5.81381V10.9047C12.4999 11.7331 11.8284 12.4047 11 12.4047ZM12.4969 4.67961L7.46164 7.39089C7.01767 7.62994 6.48275 7.62995 6.03878 7.39089L1.00316 4.6794C1.03658 4.16469 1.33332 3.70022 1.79199 3.4545L6.04199 1.17716C6.48428 0.940373 7.01572 0.940373 7.45801 1.17716L11.708 3.4545C12.1667 3.70026 12.4635 4.16482 12.4969 4.67961Z" fill="var(--fill-0, currentColor)"/>
</svg>
