<svg width="16" height="16" viewBox="0 0 16 16" fill="none" xmlns="http://www.w3.org/2000/svg">
<path d="M12.5 1.5C13.8807 1.5 15 2.61929 15 4V12C15 13.3807 13.8807 14.5 12.5 14.5H3.5C2.11929 14.5 1 13.3807 1 12V4C1 2.61929 2.11929 1.5 3.5 1.5H12.5ZM3.5 2.5C2.67157 2.5 2 3.17157 2 4V12C2 12.8284 2.67157 13.5 3.5 13.5H12.5C13.3284 13.5 14 12.8284 14 12V4C14 3.17157 13.3284 2.5 12.5 2.5H3.5ZM10.6465 4.64648C10.8417 4.45122 11.1583 4.45122 11.3535 4.64648C11.5488 4.84175 11.5488 5.15825 11.3535 5.35352L8.70703 8L11.3535 10.6465C11.5488 10.8417 11.5488 11.1583 11.3535 11.3535C11.1583 11.5488 10.8417 11.5488 10.6465 11.3535L8 8.70703L5.35352 11.3535C5.15825 11.5488 4.84175 11.5488 4.64648 11.3535C4.45122 11.1583 4.45122 10.8417 4.64648 10.6465L7.29297 8L4.64648 5.35352C4.45122 5.15825 4.45122 4.84175 4.64648 4.64648C4.84175 4.45122 5.15825 4.45122 5.35352 4.64648L8 7.29297L10.6465 4.64648Z" fill="currentColor"/>
</svg>
