<svg width="16" height="16" viewBox="0 0 16 16" fill="none" xmlns="http://www.w3.org/2000/svg">
<path d="M12.5 1.75C13.8807 1.75 15 2.86929 15 4.25V11.75L14.9873 12.0059C14.8677 13.1823 13.9323 14.1177 12.7559 14.2373L12.5 14.25H3.5L3.24414 14.2373C2.06772 14.1177 1.13227 13.1823 1.0127 12.0059L1 11.75V4.25C1 4.16796 1.004 4.08685 1.01172 4.00684C1.01575 3.96507 1.02323 3.92396 1.0293 3.88281C1.03528 3.84223 1.03995 3.80164 1.04785 3.76172C1.05425 3.7294 1.06366 3.69788 1.07129 3.66602C1.08276 3.61812 1.09324 3.57021 1.10742 3.52344C1.11665 3.49302 1.12833 3.46351 1.13867 3.43359C1.15342 3.39093 1.16761 3.34823 1.18457 3.30664C1.20084 3.26674 1.22004 3.22829 1.23828 3.18945C1.2546 3.15471 1.27024 3.11978 1.28809 3.08594C1.30293 3.05778 1.31908 3.03044 1.33496 3.00293C1.35728 2.96427 1.38001 2.92599 1.4043 2.88867C1.42309 2.8598 1.44295 2.83174 1.46289 2.80371C1.48949 2.7663 1.51635 2.7292 1.54492 2.69336C1.56367 2.66984 1.58297 2.64684 1.60254 2.62402C1.63407 2.58725 1.66661 2.55147 1.7002 2.5166C1.71953 2.49653 1.7388 2.47645 1.75879 2.45703C1.79749 2.41943 1.83785 2.38368 1.87891 2.34863C1.89736 2.33288 1.91566 2.31697 1.93457 2.30176C1.97261 2.27115 2.01194 2.24225 2.05176 2.21387C2.07786 2.19527 2.10402 2.17679 2.13086 2.15918C2.17126 2.13266 2.2129 2.10818 2.25488 2.08398C2.27964 2.06972 2.30382 2.05444 2.3291 2.04102C2.37468 2.0168 2.42155 1.99505 2.46875 1.97363C2.4938 1.96227 2.51847 1.95001 2.54395 1.93945C2.58999 1.92038 2.63719 1.90405 2.68457 1.8877C2.71351 1.87771 2.74207 1.86637 2.77148 1.85742C2.82049 1.84252 2.87067 1.83126 2.9209 1.81934C2.94825 1.81284 2.97524 1.80441 3.00293 1.79883C3.08202 1.78287 3.16254 1.77099 3.24414 1.7627L3.5 1.75H12.5ZM13.8945 6.55273L8.89453 9.05273L8.67871 9.14551C8.16705 9.33011 7.59802 9.29901 7.10547 9.05273L2.10547 6.55273C2.06947 6.53473 2.03456 6.51507 2 6.49512V11.75C2 12.5784 2.67157 13.25 3.5 13.25H12.5C13.3284 13.25 14 12.5784 14 11.75V6.49512C13.9654 6.51507 13.9305 6.53473 13.8945 6.55273ZM3.5 2.75C2.67157 2.75 2 3.42157 2 4.25V4.76367C2 5.1424 2.21401 5.48879 2.55273 5.6582L7.55273 8.1582C7.83426 8.29897 8.16574 8.29897 8.44727 8.1582L13.4473 5.6582C13.786 5.48879 14 5.14241 14 4.76367V4.25C14 3.42157 13.3284 2.75 12.5 2.75H3.5Z" fill="currentColor"/>
</svg>
