<svg width="16" height="16" viewBox="0 0 14 12.5" fill="none" xmlns="http://www.w3.org/2000/svg">
<path id="Union" d="M11.5 0C12.8807 0 14 1.11929 14 2.5V10L13.9873 10.2559C13.8677 11.4323 12.9323 12.3677 11.7559 12.4873L11.5 12.5H2.5L2.24414 12.4873C1.06772 12.3677 0.132274 11.4323 0.0126953 10.2559L0 10V2.5C0 2.41796 0.00399579 2.33685 0.0117188 2.25684C0.0157506 2.21507 0.0232348 2.17396 0.0292969 2.13281C0.0352756 2.09223 0.0399474 2.05164 0.0478516 2.01172C0.0542516 1.9794 0.063656 1.94788 0.0712891 1.91602C0.0827614 1.86812 0.0932376 1.82021 0.107422 1.77344C0.116647 1.74302 0.128331 1.71351 0.138672 1.68359C0.15342 1.64093 0.167612 1.59823 0.18457 1.55664C0.200842 1.51674 0.220039 1.47829 0.238281 1.43945C0.254597 1.40471 0.270241 1.36978 0.288086 1.33594C0.302934 1.30778 0.319082 1.28044 0.334961 1.25293C0.357276 1.21427 0.380007 1.17599 0.404297 1.13867C0.423092 1.1098 0.442952 1.08174 0.462891 1.05371C0.489492 1.0163 0.516352 0.979201 0.544922 0.943359C0.56367 0.919843 0.582971 0.896837 0.602539 0.874023C0.634071 0.837253 0.666611 0.801472 0.700195 0.766602C0.719527 0.746534 0.738802 0.726445 0.758789 0.707031C0.797488 0.669434 0.837846 0.633682 0.878906 0.598633C0.897362 0.582883 0.915657 0.566974 0.93457 0.551758C0.972609 0.521147 1.01194 0.492249 1.05176 0.463867C1.07786 0.445267 1.10402 0.426788 1.13086 0.40918C1.17126 0.382665 1.2129 0.358175 1.25488 0.333984C1.27964 0.319723 1.30382 0.304444 1.3291 0.291016C1.37468 0.266801 1.42155 0.245054 1.46875 0.223633C1.4938 0.212269 1.51847 0.200007 1.54395 0.189453C1.58999 0.170376 1.63719 0.154051 1.68457 0.137695C1.71351 0.127706 1.74207 0.116367 1.77148 0.107422C1.82049 0.0925155 1.87067 0.0812612 1.9209 0.0693359C1.94825 0.0628431 1.97524 0.0544138 2.00293 0.0488281C2.08202 0.0328734 2.16254 0.0209902 2.24414 0.0126953L2.5 0H11.5ZM12.8945 4.80273L7.89453 7.30273L7.67871 7.39551C7.16705 7.58011 6.59802 7.54901 6.10547 7.30273L1.10547 4.80273C1.06947 4.78473 1.03456 4.76507 1 4.74512V10C1 10.8284 1.67157 11.5 2.5 11.5H11.5C12.3284 11.5 13 10.8284 13 10V4.74512C12.9654 4.76507 12.9305 4.78473 12.8945 4.80273ZM2.5 1C1.67157 1 1 1.67157 1 2.5V3.01367C1 3.3924 1.21401 3.73879 1.55273 3.9082L6.55273 6.4082C6.83426 6.54897 7.16574 6.54897 7.44727 6.4082L12.4473 3.9082C12.786 3.73879 13 3.39241 13 3.01367V2.5C13 1.67157 12.3284 1 11.5 1H2.5Z" fill="var(--fill-0, currentColor)"/>
</svg>
