<svg width="16" height="16" viewBox="0 0 14.5 14.5" fill="none" xmlns="http://www.w3.org/2000/svg">
<path id="Union" fill-rule="evenodd" clip-rule="evenodd" d="M7.25 1C10.7018 1 13.5 3.79822 13.5 7.25C13.5 10.7018 10.7018 13.5 7.25 13.5C3.79822 13.5 1 10.7018 1 7.25C1 3.79822 3.79822 1 7.25 1ZM0 7.25C0 11.2541 3.24594 14.5 7.25 14.5C11.2541 14.5 14.5 11.2541 14.5 7.25C14.5 3.24594 11.2541 0 7.25 0C3.24594 0 0 3.24594 0 7.25ZM11.2542 8.33689C11.16 8.2098 11.0111 8.13485 10.8529 8.13474H3.64778C3.48951 8.13474 3.34073 8.20979 3.24641 8.33689C3.1521 8.46407 3.12328 8.62873 3.16927 8.78025C3.20965 8.91326 3.2565 9.04491 3.30989 9.1738C3.52419 9.69105 3.8388 10.1607 4.2347 10.5566C4.63071 10.9526 5.10107 11.2671 5.61849 11.4814C6.1358 11.6956 6.6904 11.8056 7.25032 11.8056C7.81029 11.8056 8.36481 11.6957 8.88216 11.4814C9.39957 11.2671 9.86994 10.9526 10.2659 10.5566C10.6617 10.1608 10.9755 9.69089 11.1898 9.1738C11.2432 9.04488 11.291 8.9133 11.3314 8.78025C11.3774 8.62874 11.3485 8.46407 11.2542 8.33689ZM4.94173 9.84958C4.7291 9.63695 4.5479 9.39611 4.40169 9.13474H10.099C9.95277 9.3961 9.7715 9.63695 9.55892 9.84958C9.25576 10.1527 8.89543 10.3935 8.49934 10.5576C8.10336 10.7216 7.67892 10.8056 7.25032 10.8056C6.82177 10.8056 6.39725 10.7215 6.0013 10.5576C5.60521 10.3935 5.24488 10.1527 4.94173 9.84958ZM6.17289 5.23197C6.17289 5.82428 5.68827 6.30889 5.09597 6.30889C4.50366 6.30889 4.01904 5.82428 4.01904 5.23197C4.01904 4.63966 4.50366 4.15505 5.09597 4.15505C5.68827 4.15505 6.17289 4.63966 6.17289 5.23197ZM9.40358 6.30889C9.99589 6.30889 10.4805 5.82428 10.4805 5.23197C10.4805 4.63966 9.99589 4.15505 9.40358 4.15505C8.81128 4.15505 8.32666 4.63966 8.32666 5.23197C8.32666 5.82428 8.81128 6.30889 9.40358 6.30889Z" fill="var(--fill-0, currentColor)"/>
</svg>
