<svg width="16" height="16" viewBox="0 0 16 16" fill="none" xmlns="http://www.w3.org/2000/svg">
<path fill-rule="evenodd" clip-rule="evenodd" d="M12.5 9.75C13.3284 9.75 14 9.07843 14 8.25V4.75C14 3.92157 13.3284 3.25 12.5 3.25H9.5C9.22386 3.25 9 3.47386 9 3.75C9 4.02614 9.22386 4.25 9.5 4.25H12.5C12.7761 4.25 13 4.47386 13 4.75V8.25C13 8.52614 12.7761 8.75 12.5 8.75H3.70711L5.85355 6.60355C6.04882 6.40829 6.04882 6.09171 5.85355 5.89645C5.65829 5.70118 5.34171 5.70118 5.14645 5.89645L2.14645 8.89645C1.95118 9.09171 1.95118 9.40829 2.14645 9.60355L5.14645 12.6036C5.34171 12.7988 5.65829 12.7988 5.85355 12.6036C6.04882 12.4083 6.04882 12.0917 5.85355 11.8964L3.70711 9.75H12.5Z" fill="currentColor"/>
</svg>
