<svg width="16" height="16" viewBox="0 0 12 9.49996" fill="none" xmlns="http://www.w3.org/2000/svg">
<path id="Union" fill-rule="evenodd" clip-rule="evenodd" d="M12 5V1.5C12 0.671573 11.3284 0 10.5 0H7.49996C7.22382 0 6.99996 0.223858 6.99996 0.5C6.99996 0.776142 7.22382 1 7.49996 1H10.5C10.7761 1 11 1.22386 11 1.5V5C11 5.27614 10.7761 5.5 10.5 5.5H1.70699L3.85348 3.35352C4.04874 3.15825 4.04874 2.84175 3.85348 2.64648C3.65822 2.45122 3.34171 2.45122 3.14645 2.64648L0.146447 5.64648C-0.0488155 5.84175 -0.0488155 6.15825 0.146447 6.35352L3.14645 9.35352C3.34171 9.54878 3.65822 9.54878 3.85348 9.35352C4.04874 9.15825 4.04874 8.84175 3.85348 8.64648L1.70699 6.5H10.5C11.3284 6.5 12 5.82843 12 5Z" fill="var(--fill-0, currentColor)"/>
</svg>
