<svg width="16" height="16" viewBox="0 0 13.7407 9" fill="none" xmlns="http://www.w3.org/2000/svg">
<path id="Union" d="M11.7407 0C12.845 0.00026384 13.7407 0.895593 13.7407 2V7L13.7299 7.2041C13.6277 8.21263 12.7761 8.99975 11.7407 9H4.49947C4.10179 8.9999 3.72014 8.84176 3.43893 8.56055L0.438928 5.56055C-0.11 5.01142 -0.143916 4.1428 0.336389 3.55371L0.438928 3.43945L3.43893 0.439453C3.72014 0.158241 4.10179 0.000103767 4.49947 0H11.7407ZM4.49947 1C4.36701 1.0001 4.23964 1.05281 4.14596 1.14648L1.14596 4.14648C0.950957 4.3417 0.950958 4.6583 1.14596 4.85352L4.14596 7.85352C4.23963 7.94719 4.36701 7.9999 4.49947 8H11.7407C12.2927 7.99974 12.7407 7.55212 12.7407 7V2C12.7407 1.44788 12.2927 1.00026 11.7407 1H4.49947ZM9.38229 2.14648C9.57753 1.95142 9.8941 1.95138 10.0893 2.14648C10.2844 2.34171 10.2844 2.65829 10.0893 2.85352L8.44576 4.49707L10.0903 6.1416C10.2852 6.33678 10.2852 6.65341 10.0903 6.84863C9.8951 7.04383 9.57854 7.04369 9.38326 6.84863L7.73873 5.2041L6.0942 6.84863C5.89899 7.04384 5.58245 7.04373 5.38717 6.84863C5.19201 6.65336 5.19194 6.33683 5.38717 6.1416L7.0317 4.49707L5.38815 2.85352C5.19288 2.65825 5.19288 2.34175 5.38815 2.14648C5.58343 1.95153 5.90002 1.95133 6.09518 2.14648L7.73873 3.79004L9.38229 2.14648Z" fill="var(--fill-0, currentColor)"/>
</svg>
