<svg width="16" height="16" viewBox="0 0 14 14" fill="none" xmlns="http://www.w3.org/2000/svg">
<path id="Union" d="M11.1543 0.00390625C12.7394 0.0842145 14 1.39489 14 3V11L13.9961 11.1543C13.9184 12.6883 12.6883 13.9184 11.1543 13.9961L11 14H3C1.39489 14 0.0842144 12.7394 0.00390625 11.1543L0 11V3C1.28853e-07 1.34315 1.34315 1.61064e-08 3 0H11L11.1543 0.00390625ZM3 1C1.89543 1 1 1.89543 1 3V11C1 12.1046 1.89543 13 3 13H11C12.1046 13 13 12.1046 13 11V3C13 1.89543 12.1046 1 11 1H3ZM9.07031 6.37891V7.58301H6.13477V9.23926H9.33398V10.4443H4.66699V6.37891H9.07031ZM9.33398 4.76074H4.66699V3.55664H9.33398V4.76074Z" fill="var(--fill-0, currentColor)"/>
</svg>
