<svg width="16" height="16" viewBox="0 0 14.5 14.5" fill="none" xmlns="http://www.w3.org/2000/svg">
<path id="Union" fill-rule="evenodd" clip-rule="evenodd" d="M7.25 1C10.7018 1 13.5 3.79822 13.5 7.25C13.5 10.7018 10.7018 13.5 7.25 13.5C3.79822 13.5 1 10.7018 1 7.25C1 3.79822 3.79822 1 7.25 1ZM0 7.25C0 11.2541 3.24594 14.5 7.25 14.5C11.2541 14.5 14.5 11.2541 14.5 7.25C14.5 3.24594 11.2541 0 7.25 0C3.24594 0 0 3.24594 0 7.25ZM7.25 9.14298C7.73325 9.14298 8.125 9.53473 8.125 10.018C8.125 10.5012 7.73325 10.893 7.25 10.893C6.76675 10.893 6.375 10.5012 6.375 10.018C6.375 9.53473 6.76675 9.14298 7.25 9.14298ZM6.75 3.7504V7.45743C6.75 7.73358 6.97386 7.95743 7.25 7.95743C7.52614 7.95743 7.75 7.73358 7.75 7.45743V3.7504L7.74023 3.64884C7.6935 3.42115 7.49152 3.2504 7.25 3.2504C7.00848 3.2504 6.8065 3.42115 6.75977 3.64884L6.75 3.7504Z" fill="var(--fill-0, currentColor)"/>
</svg>
