<svg width="16" height="16" viewBox="0 0 14.0044 14.5" fill="none" xmlns="http://www.w3.org/2000/svg">
<path id="Union" fill-rule="evenodd" clip-rule="evenodd" d="M3.5 2.50055V3.5C3.5 3.77614 3.72386 4 4 4C4.27614 4 4.5 3.77614 4.5 3.5V2.5H9.5V3.5C9.5 3.77614 9.72386 4 10 4C10.2761 4 10.5 3.77614 10.5 3.5V2.50052C10.9532 2.50202 11.2901 2.50782 11.5649 2.53027C11.9195 2.55924 12.0821 2.61072 12.1851 2.66309C12.4673 2.8069 12.6975 3.03709 12.8413 3.31934C12.8937 3.42228 12.9452 3.58489 12.9741 3.93945C13.0041 4.30616 13.0044 4.78347 13.0044 5.5V6.00345C12.8887 5.91626 12.7651 5.83887 12.6348 5.77246C12.1 5.50007 11.4 5.5 10 5.5H4C2.60002 5.5 1.89999 5.50007 1.36523 5.77246L1.19238 5.86914C1.12768 5.90884 1.06496 5.9514 1.00439 5.99663V5.5C1.00439 4.78347 1.00471 4.30616 1.03467 3.93945C1.06364 3.5849 1.11511 3.42228 1.16748 3.31934C1.31129 3.03709 1.54149 2.8069 1.82373 2.66309C1.92667 2.61072 2.08929 2.55924 2.44385 2.53027C2.71689 2.50797 3.05124 2.5021 3.5 2.50055ZM4.5 1.5H9.5V0.5C9.5 0.223858 9.72386 0 10 0C10.2761 0 10.5 0.223858 10.5 0.5V1.50054C11.5777 1.50432 12.1716 1.53429 12.6392 1.77246C13.1096 2.01214 13.4923 2.39483 13.7319 2.86523C14.0043 3.39999 14.0044 4.10002 14.0044 5.5V10.5L14.0005 11.4268C13.9877 12.2395 13.9363 12.7336 13.7319 13.1348L13.6353 13.3076C13.3951 13.699 13.0506 14.0179 12.6392 14.2275L12.4302 14.3174C12.0648 14.4478 11.6087 14.4855 10.9312 14.4961L10.0044 14.5H10H4.00439H4L3.07324 14.4961C2.39571 14.4855 1.93961 14.4478 1.57422 14.3174L1.36523 14.2275C0.894829 13.9879 0.512144 13.6052 0.272461 13.1348C0.0681362 12.7336 0.0166655 12.2395 0.00390625 11.4268L0 10.5V9.5C0 9.14637 0 8.8374 0.00439453 8.56447V5.5C0.00439453 4.27477 0.00441634 3.58563 0.187012 3.07422L0.276855 2.86523C0.486502 2.45378 0.805357 2.10933 1.19678 1.86914L1.36963 1.77246C1.77075 1.56814 2.26485 1.51667 3.07764 1.50391L3.5 1.50213V0.5C3.5 0.223858 3.72386 0 4 0C4.27614 0 4.5 0.223858 4.5 0.5V1.5ZM1.03027 7.93945C1.01591 8.11525 1.00836 8.31647 1.00439 8.55729V10.5C1.00439 11.2165 1.00471 11.6938 1.03467 12.0605C1.06364 12.4151 1.11511 12.5777 1.16748 12.6807C1.31129 12.9629 1.54149 13.1931 1.82373 13.3369C1.92667 13.3893 2.08929 13.4408 2.44385 13.4697C2.7455 13.4944 3.122 13.499 3.64494 13.4998L3.87282 13.5L4 13.5H4.00439H10H10.0044L10.2621 13.4999C10.8362 13.4994 11.2405 13.4959 11.5605 13.4697C11.9151 13.4408 12.0777 13.3893 12.1807 13.3369C12.4629 13.1931 12.6931 12.9629 12.8369 12.6807C12.8893 12.5777 12.9408 12.4151 12.9697 12.0605C12.9997 11.6938 13 11.2165 13 10.5V9.5C13 8.78347 12.9997 8.30616 12.9697 7.93945C12.9408 7.5849 12.8893 7.42228 12.8369 7.31934C12.6931 7.03709 12.4629 6.8069 12.1807 6.66309C12.0777 6.61072 11.9151 6.55924 11.5605 6.53027C11.3771 6.51529 11.166 6.50784 10.9111 6.50391L10 6.5H4C3.28347 6.5 2.80616 6.50032 2.43945 6.53027C2.0849 6.55924 1.92228 6.61072 1.81934 6.66309C1.53709 6.8069 1.3069 7.03709 1.16309 7.31934C1.11072 7.42228 1.05924 7.5849 1.03027 7.93945ZM7 8.75C7.65584 8.75 8.1875 9.28166 8.1875 9.9375C8.1875 10.5933 7.65584 11.125 7 11.125C6.34416 11.125 5.8125 10.5933 5.8125 9.9375C5.8125 9.28166 6.34416 8.75 7 8.75ZM7 12.125C8.20812 12.125 9.1875 11.1456 9.1875 9.9375C9.1875 8.72938 8.20812 7.75 7 7.75C5.79188 7.75 4.8125 8.72938 4.8125 9.9375C4.8125 11.1456 5.79188 12.125 7 12.125Z" fill="var(--fill-0, currentColor)"/>
</svg>
