<svg width="16" height="16" viewBox="0 0 13.001 13" fill="none" xmlns="http://www.w3.org/2000/svg">
<path id="Union" d="M4.83496 7.45898C5.03024 7.26413 5.34686 7.2639 5.54199 7.45898C5.73706 7.65412 5.73684 7.97074 5.54199 8.16602L1.70801 12H5.16699C5.44285 12.0002 5.66683 12.2241 5.66699 12.5C5.66699 12.776 5.44294 12.9998 5.16699 13H0.5C0.492903 13 0.485542 12.9974 0.478516 12.9971C0.453312 12.996 0.428155 12.9951 0.40332 12.9902C0.381417 12.9859 0.360626 12.9787 0.339844 12.9717C0.329813 12.9683 0.31941 12.966 0.30957 12.9619C0.127897 12.887 -1.82384e-08 12.7086 0 12.5V7.83301C0.000383369 7.55733 0.224285 7.33323 0.5 7.33301C0.775715 7.33323 0.999617 7.55733 1 7.83301V11.2939L4.83496 7.45898ZM12.5176 0.000976563C12.5444 0.00191727 12.5713 0.00356558 12.5977 0.00878906C12.6488 0.0188383 12.696 0.0391437 12.7402 0.0634766C12.7532 0.0706129 12.7669 0.0765896 12.7793 0.0849609C12.8329 0.120986 12.8789 0.167227 12.915 0.220703C12.9204 0.2287 12.9238 0.237866 12.9287 0.246094C12.9732 0.320797 13.001 0.406779 13.001 0.5V5.16699C13.0008 5.44278 12.7768 5.66673 12.501 5.66699C12.225 5.66699 12.0012 5.44294 12.001 5.16699V1.70605L8.16602 5.54102C7.97078 5.7362 7.65424 5.73618 7.45898 5.54102C7.26374 5.34577 7.26377 5.02925 7.45898 4.83398L11.293 1H7.83398C7.55784 1 7.33398 0.776142 7.33398 0.5C7.33398 0.223858 7.55784 -2.41411e-08 7.83398 0H12.501C12.5065 5.31878e-06 12.5121 0.000790939 12.5176 0.000976563Z" fill="var(--fill-0, currentColor)"/>
</svg>
