<svg width="16" height="16" viewBox="0 0 16 16" fill="none" xmlns="http://www.w3.org/2000/svg">
<path fill-rule="evenodd" clip-rule="evenodd" d="M12.4656 2.05528C12.2499 2.0035 11.9748 2.00002 11.2487 2.00002H5.50049C4.79217 2.00002 4.29101 2.00041 3.89921 2.03242C3.51325 2.06395 3.27766 2.12366 3.09251 2.21801C2.71618 2.40975 2.41022 2.71571 2.21848 3.09204C2.12413 3.27719 2.06442 3.51278 2.03289 3.89874C2.00088 4.29054 2.00049 4.7917 2.00049 5.50002V10.5C2.00049 11.2083 2.00088 11.7095 2.03289 12.1013C2.06442 12.4873 2.12413 12.7228 2.21848 12.908C2.41022 13.2843 2.71618 13.5903 3.09251 13.782C3.27766 13.8764 3.51325 13.9361 3.89921 13.9676C4.291 13.9996 4.79217 14 5.50048 14H11.2487H11.2487C11.9748 14 12.2499 13.9965 12.4656 13.9448C13.1969 13.7692 13.7678 13.1982 13.9434 12.4669C13.9952 12.2512 13.9987 11.9762 13.9987 11.25C13.9987 10.9739 14.2225 10.75 14.4987 10.75C14.7748 10.75 14.9987 10.9739 14.9987 11.25L14.9987 11.3248V11.3248V11.3248C14.9988 11.9503 14.9989 12.3542 14.9158 12.7004C14.6524 13.7973 13.796 14.6538 12.699 14.9171C12.3529 15.0002 11.9489 15.0002 11.3235 15H11.3235H11.3235L11.2487 15H11.2487H5.50048H5.47859H5.47855C4.79705 15 4.25506 15 3.81778 14.9643C3.36998 14.9277 2.98814 14.8512 2.63852 14.673C2.07403 14.3854 1.61509 13.9265 1.32747 13.362C1.14933 13.0124 1.0728 12.6305 1.03621 12.1827C1.00048 11.7454 1.00048 11.2034 1.00049 10.5219V10.5V5.50002V5.47814C1.00048 4.79662 1.00048 4.2546 1.03621 3.81731C1.0728 3.36951 1.14933 2.98767 1.32747 2.63805C1.61509 2.07356 2.07403 1.61462 2.63852 1.327C2.98814 1.14886 3.36998 1.07233 3.81778 1.03574C4.25507 1.00001 4.79709 1.00002 5.47861 1.00002L5.50049 1.00002H11.2487L11.3235 1.00001C11.9489 0.999885 12.3528 0.999804 12.699 1.08291C13.796 1.34626 14.6524 2.20274 14.9158 3.29968C14.9989 3.64584 14.9988 4.04978 14.9987 4.6752V4.67521V4.67522L14.9987 4.75002C14.9987 5.02616 14.7748 5.25002 14.4987 5.25002C14.2225 5.25002 13.9987 5.02616 13.9987 4.75002C13.9987 4.02388 13.9952 3.7488 13.9434 3.53313C13.7678 2.80183 13.1969 2.23085 12.4656 2.05528ZM10.2749 4.14647C10.4701 3.9512 10.7867 3.9512 10.982 4.14647L14.482 7.64647C14.6772 7.84173 14.6772 8.15831 14.482 8.35357L10.982 11.8536C10.7867 12.0488 10.4701 12.0488 10.2749 11.8536C10.0796 11.6583 10.0796 11.3417 10.2749 11.1465L12.9213 8.50002L4.51514 8.50002C4.23899 8.50002 4.01514 8.27616 4.01514 8.00002C4.01514 7.72388 4.23899 7.50002 4.51514 7.50002L12.9213 7.50002L10.2749 4.85357C10.0796 4.65831 10.0796 4.34173 10.2749 4.14647Z" fill="currentColor"/>
</svg>
