<svg width="16" height="16" viewBox="0 0 13.9981 14" fill="none" xmlns="http://www.w3.org/2000/svg">
<path id="Union" fill-rule="evenodd" clip-rule="evenodd" d="M12.998 3.75002C12.998 3.02409 12.9951 2.74886 12.9434 2.53322C12.7678 1.80192 12.1961 1.23125 11.4648 1.05568C11.2492 1.00393 10.974 1.00002 10.248 1.00002H4.5C3.79168 1.00002 3.29023 1.00023 2.89844 1.03224C2.51264 1.06378 2.27691 1.12347 2.0918 1.21779C1.71554 1.40952 1.40951 1.71556 1.21777 2.09181C1.12345 2.27693 1.06377 2.51265 1.03223 2.89845C1.00022 3.29025 1 3.7917 1 4.50002V9.50002C1 10.2083 1.00022 10.7098 1.03223 11.1016C1.06377 11.4874 1.12345 11.7231 1.21777 11.9082C1.40951 12.2845 1.71554 12.5905 2.0918 12.7822C2.27691 12.8766 2.51264 12.9362 2.89844 12.9678C3.29023 12.9998 3.79169 13 4.5 13H10.248C10.974 13 11.2492 12.9961 11.4648 12.9444C12.1961 12.7688 12.7678 12.1981 12.9434 11.4668C12.9951 11.2512 12.998 10.9759 12.998 10.25C12.998 9.97392 13.222 9.75009 13.498 9.75002C13.7742 9.75002 13.998 9.97387 13.998 10.25L13.9981 10.3221C13.9982 10.949 13.9982 11.3536 13.915 11.7002C13.6517 12.7972 12.7952 13.6537 11.6982 13.917C11.3515 14.0002 10.9466 14.0001 10.3194 14L10.248 14H4.5C3.80822 14 3.25934 14 2.81738 13.9639C2.36958 13.9273 1.98732 13.851 1.6377 13.6729C1.07347 13.3853 0.614723 12.9265 0.327149 12.3623C0.149006 12.0127 0.0727197 11.6304 0.036133 11.1826C2.80786e-05 10.7407 0 10.1918 0 9.50002V4.50002C0 3.80823 2.80516e-05 3.25935 0.036133 2.8174C0.0727198 2.3696 0.149006 1.98734 0.327149 1.63771C0.614723 1.07349 1.07347 0.61474 1.6377 0.327165C1.98732 0.149023 2.36958 0.0727363 2.81738 0.0361496C3.25934 4.46162e-05 3.80822 1.67398e-05 4.5 1.674e-05H10.248L10.3194 8.20571e-06C10.9466 -0.000105163 11.3515 -0.000178331 11.6982 0.0830246C12.7952 0.346378 13.6517 1.20287 13.915 2.29982C13.9982 2.64646 13.9982 3.051 13.9981 3.67792L13.998 3.75002C13.998 4.02616 13.7742 4.25002 13.498 4.25002C13.222 4.24994 12.998 4.02611 12.998 3.75002ZM9.27441 3.1465C9.46968 2.95124 9.78618 2.95124 9.98145 3.1465L13.4814 6.6465C13.6767 6.84176 13.6767 7.15827 13.4814 7.35353L9.98145 10.8535C9.78618 11.0488 9.46968 11.0488 9.27441 10.8535C9.07915 10.6583 9.07915 10.3418 9.27441 10.1465L11.9209 7.50002L3.51465 7.50002C3.23851 7.50002 3.01465 7.27616 3.01465 7.00002C3.01465 6.72387 3.23851 6.50002 3.51465 6.50002L11.9209 6.50002L9.27441 3.85353C9.07915 3.65827 9.07915 3.34176 9.27441 3.1465Z" fill="var(--fill-0, currentColor)"/>
</svg>
