<svg width="16" height="16" viewBox="0 0 16 16" fill="none" xmlns="http://www.w3.org/2000/svg">
<path d="M3.23798 3.23673C3.43323 3.04153 3.74976 3.04153 3.94501 3.23673L8.35419 7.64689C8.54942 7.84215 8.54944 8.15867 8.35419 8.35392L3.94501 12.7631L3.86689 12.8276C3.67282 12.9557 3.40884 12.9339 3.23798 12.7631C3.06713 12.5922 3.0454 12.3283 3.17353 12.1342L3.23798 12.0561L7.29365 8.0004L3.23798 3.94376C3.04278 3.74851 3.04277 3.43198 3.23798 3.23673ZM7.64716 3.23673C7.84236 3.04159 8.15893 3.0417 8.35419 3.23673L12.7634 7.64689C12.9586 7.84215 12.9586 8.15866 12.7634 8.35392L8.35419 12.7631L8.27607 12.8276C8.08202 12.9555 7.81793 12.9339 7.64716 12.7631C7.47653 12.5923 7.45478 12.3282 7.58271 12.1342L7.64716 12.0561L11.7028 8.0004L7.64716 3.94376C7.4522 3.74857 7.45223 3.43194 7.64716 3.23673Z" fill="currentColor"/>
</svg>
