<svg width="16" height="16" viewBox="0 0 14.002 14.002" fill="none" xmlns="http://www.w3.org/2000/svg">
<path id="Union" d="M7.00098 0C10.8674 0.000130333 14.0019 3.13451 14.002 7.00098C14.0018 10.8674 10.8674 14.0018 7.00098 14.002C3.13451 14.0019 0.000130336 10.8674 0 7.00098C5.49683e-05 3.13447 3.13447 5.49667e-05 7.00098 0ZM7.00098 1C3.68675 1.00005 1.00005 3.68675 1 7.00098C1.00013 10.3151 3.6868 13.0019 7.00098 13.002C10.3151 13.0018 13.0018 10.3151 13.002 7.00098C13.0019 3.6868 10.3151 1.00013 7.00098 1ZM7 2.38477C7.20675 2.38477 7.39435 2.50488 7.48145 2.69238L8.56055 5.0166L11.1055 5.3252C11.3107 5.35007 11.4829 5.49192 11.5469 5.68848C11.6108 5.88512 11.5548 6.10141 11.4033 6.24219L9.52637 7.98633L10.0195 10.502C10.0593 10.7048 9.97775 10.9126 9.81055 11.0342C9.64335 11.1557 9.42087 11.1687 9.24023 11.0684L7 9.82129L4.75977 11.0684C4.57913 11.1687 4.35665 11.1557 4.18945 11.0342C4.02225 10.9126 3.94071 10.7048 3.98047 10.502L4.47266 7.98633L2.59668 6.24219C2.44524 6.10141 2.38923 5.88512 2.45312 5.68848C2.51706 5.49192 2.68933 5.35007 2.89453 5.3252L5.43848 5.0166L6.51855 2.69238L6.55566 2.625C6.65284 2.47656 6.81919 2.38477 7 2.38477ZM6.27734 5.73242C6.19992 5.89906 6.04179 6.01402 5.85938 6.03613L4.15625 6.24219L5.41309 7.41016C5.54769 7.53528 5.60859 7.72102 5.57324 7.90137L5.24316 9.58301L6.74219 8.75L6.80371 8.7207C6.95064 8.66228 7.11749 8.67212 7.25781 8.75L8.75586 9.58301L8.42676 7.90137C8.39141 7.72102 8.45231 7.53528 8.58691 7.41016L9.84277 6.24219L8.14062 6.03613C7.95821 6.01402 7.80008 5.89906 7.72266 5.73242L7 4.17578L6.27734 5.73242Z" fill="var(--fill-0, currentColor)"/>
</svg>
