<svg width="16" height="16" viewBox="0 0 16 16" fill="none" xmlns="http://www.w3.org/2000/svg">
<path d="M8.00098 1C11.8674 1.00013 15.0019 4.13451 15.002 8.00098C15.0018 11.8674 11.8674 15.0018 8.00098 15.002C4.13451 15.0019 1.00013 11.8674 1 8.00098C1.00005 4.13447 4.13447 1.00005 8.00098 1ZM8.00098 2C4.68675 2.00005 2.00005 4.68675 2 8.00098C2.00013 11.3151 4.6868 14.0019 8.00098 14.002C11.3151 14.0018 14.0018 11.3151 14.002 8.00098C14.0019 4.6868 11.3151 2.00013 8.00098 2ZM8 3.38477C8.20675 3.38477 8.39435 3.50488 8.48145 3.69238L9.56055 6.0166L12.1055 6.3252C12.3107 6.35007 12.4829 6.49192 12.5469 6.68848C12.6108 6.88512 12.5548 7.10141 12.4033 7.24219L10.5264 8.98633L11.0195 11.502C11.0593 11.7048 10.9777 11.9126 10.8105 12.0342C10.6433 12.1557 10.4209 12.1687 10.2402 12.0684L8 10.8213L5.75977 12.0684C5.57913 12.1687 5.35665 12.1557 5.18945 12.0342C5.02225 11.9126 4.94071 11.7048 4.98047 11.502L5.47266 8.98633L3.59668 7.24219C3.44524 7.10141 3.38923 6.88512 3.45312 6.68848C3.51706 6.49192 3.68933 6.35007 3.89453 6.3252L6.43848 6.0166L7.51855 3.69238L7.55566 3.625C7.65284 3.47656 7.81919 3.38477 8 3.38477ZM7.27734 6.73242C7.19992 6.89906 7.04179 7.01402 6.85938 7.03613L5.15625 7.24219L6.41309 8.41016C6.54769 8.53528 6.60859 8.72102 6.57324 8.90137L6.24316 10.583L7.74219 9.75L7.80371 9.7207C7.95064 9.66228 8.11749 9.67212 8.25781 9.75L9.75586 10.583L9.42676 8.90137C9.39141 8.72102 9.45231 8.53528 9.58691 8.41016L10.8428 7.24219L9.14062 7.03613C8.95821 7.01402 8.80008 6.89906 8.72266 6.73242L8 5.17578L7.27734 6.73242Z" fill="currentColor"/>
</svg>
