<svg width="16" height="16" viewBox="0 0 12 14" fill="none" xmlns="http://www.w3.org/2000/svg">
<path id="Union" d="M9 0C10.6569 0 12 1.34315 12 3V7C12 7.27614 11.7761 7.5 11.5 7.5C11.2239 7.5 11 7.27614 11 7V3C11 1.89543 10.1046 1 9 1H2.5C1.67157 1 1 1.67157 1 2.5V11.5C1 12.3284 1.67157 13 2.5 13H5C5.27614 13 5.5 13.2239 5.5 13.5C5.5 13.7761 5.27614 14 5 14H2.5C1.11929 14 4.0266e-08 12.8807 0 11.5V2.5C0 1.11929 1.11929 4.83192e-08 2.5 0H9ZM9.5 9C9.77614 9 10 9.22386 10 9.5V11H11.5C11.7761 11 12 11.2239 12 11.5C12 11.7761 11.7761 12 11.5 12H10V13.5C10 13.7761 9.77614 14 9.5 14C9.22386 14 9 13.7761 9 13.5V12H7.5C7.22386 12 7 11.7761 7 11.5C7 11.2239 7.22386 11 7.5 11H9V9.5C9 9.22386 9.22386 9 9.5 9ZM8.75 6.5C9.02614 6.5 9.25 6.72386 9.25 7C9.25 7.27614 9.02614 7.5 8.75 7.5H3.25C2.97386 7.5 2.75 7.27614 2.75 7C2.75 6.72386 2.97386 6.5 3.25 6.5H8.75ZM8.75 3.5C9.02614 3.5 9.25 3.72386 9.25 4C9.25 4.27614 9.02614 4.5 8.75 4.5H3.25C2.97386 4.5 2.75 4.27614 2.75 4C2.75 3.72386 2.97386 3.5 3.25 3.5H8.75Z" fill="var(--fill-0, currentColor)"/>
</svg>
