<svg width="16" height="16" viewBox="0 0 12.0328 14" fill="none" xmlns="http://www.w3.org/2000/svg">
<path id="Union" d="M9 0C10.6569 0 12 1.34315 12 3V7C12 7.27614 11.7761 7.5 11.5 7.5C11.2239 7.5 11 7.27614 11 7V3C11 1.89543 10.1046 1 9 1H2.5C1.67157 1 1 1.67157 1 2.5V11.5C1 12.3284 1.67157 13 2.5 13H5C5.27614 13 5.5 13.2239 5.5 13.5C5.5 13.7761 5.27614 14 5 14H2.5C1.11929 14 4.0266e-08 12.8807 0 11.5V2.5C0 1.11929 1.11929 4.83192e-08 2.5 0H9ZM9 8.7998C10.1595 8.80002 11.1003 9.73997 11.1006 10.8994L11.0898 11.1143C11.0566 11.4423 10.947 11.7479 10.7803 12.0137L11.8867 13.1201C12.0813 13.3154 12.0816 13.6321 11.8867 13.8271C11.6916 14.022 11.3749 14.0218 11.1797 13.8271L10.0615 12.709C9.74975 12.8923 9.38768 12.9999 9 13L8.78613 12.9893C7.72697 12.8819 6.90039 11.9869 6.90039 10.8994C6.90065 9.73997 7.84054 8.80002 9 8.7998ZM9 9.87402C8.43371 9.87423 7.97487 10.3331 7.97461 10.8994C7.97461 11.4659 8.43355 11.9256 9 11.9258C9.56645 11.9256 10.0264 11.4659 10.0264 10.8994C10.0261 10.3331 9.56629 9.87423 9 9.87402ZM8.75 6.5C9.02614 6.5 9.25 6.72386 9.25 7C9.25 7.27614 9.02614 7.5 8.75 7.5H3.25C2.97386 7.5 2.75 7.27614 2.75 7C2.75 6.72386 2.97386 6.5 3.25 6.5H8.75ZM8.75 3.5C9.02614 3.5 9.25 3.72386 9.25 4C9.25 4.27614 9.02614 4.5 8.75 4.5H3.25C2.97386 4.5 2.75 4.27614 2.75 4C2.75 3.72386 2.97386 3.5 3.25 3.5H8.75Z" fill="var(--fill-0, currentColor)"/>
</svg>
