<svg width="16" height="16" viewBox="0 0 12 14" fill="none" xmlns="http://www.w3.org/2000/svg">
<path id="Union" d="M9 0C10.6569 0 12 1.34315 12 3V11.5C12 12.8807 10.8807 14 9.5 14H2.5C1.11929 14 4.0266e-08 12.8807 0 11.5V2.5C0 1.11929 1.11929 4.83192e-08 2.5 0H9ZM2.5 1C1.67157 1 1 1.67157 1 2.5V11.5C1 12.3284 1.67157 13 2.5 13H9.5C10.3284 13 11 12.3284 11 11.5V3C11 1.89543 10.1046 1 9 1H2.5ZM5.12207 8.67285C5.30258 8.46433 5.6183 8.44187 5.82715 8.62207C6.03573 8.80262 6.05829 9.1183 5.87793 9.32715L3.84277 11.6836C3.74903 11.7921 3.61313 11.8559 3.46973 11.8574C3.32627 11.8588 3.18875 11.798 3.09277 11.6914L2.12793 10.6201C1.94369 10.4149 1.96018 10.0987 2.16504 9.91406C2.37024 9.72938 2.68732 9.74608 2.87207 9.95117L3.45605 10.6006L5.12207 8.67285ZM9.5 10C9.77609 10 9.99991 10.2239 10 10.5C10 10.7761 9.77614 11 9.5 11H7.5C7.22403 10.9998 7 10.776 7 10.5C7.00009 10.2241 7.22408 10.0002 7.5 10H9.5ZM5 3C5.55228 3 6 3.44772 6 4V6C6 6.55228 5.55228 7 5 7H3C2.44772 7 2 6.55228 2 6V4C2 3.44772 2.44772 3 3 3H5ZM9.5 6C9.77607 6.00002 9.99991 6.22394 10 6.5C10 6.77613 9.77613 6.99998 9.5 7H7.5C7.22386 7 7 6.77614 7 6.5C7.00009 6.22393 7.22391 6 7.5 6H9.5ZM3 6H5V4H3V6ZM9.5 3C9.77609 3 9.99991 3.22393 10 3.5C10 3.77614 9.77614 4 9.5 4H7.5C7.224 3.99983 7 3.77604 7 3.5C7.00009 3.22404 7.22406 3.00017 7.5 3H9.5Z" fill="var(--fill-0, currentColor)"/>
</svg>
