<svg width="16" height="16" viewBox="0 0 12.6152 14" fill="none" xmlns="http://www.w3.org/2000/svg">
<path id="Union" d="M9 0C10.6569 0 12 1.34315 12 3V7C12 7.27614 11.7761 7.5 11.5 7.5C11.2239 7.5 11 7.27614 11 7V3C11 1.89543 10.1046 1 9 1H2.5C1.67157 1 1 1.67157 1 2.5V11.5C1 12.3284 1.67157 13 2.5 13H5C5.27614 13 5.5 13.2239 5.5 13.5C5.5 13.7761 5.27614 14 5 14H2.5C1.11929 14 4.0266e-08 12.8807 0 11.5V2.5C0 1.11929 1.11929 4.83192e-08 2.5 0H9ZM12.1152 9.15137C12.3914 9.15137 12.6152 9.37522 12.6152 9.65137C12.6148 9.92715 12.3911 10.1514 12.1152 10.1514H12.0146L11.8818 12.792C11.8475 13.4668 11.29 13.9968 10.6143 13.9971H9.00098C8.3251 13.997 7.76773 13.4669 7.7334 12.792L7.60156 10.1514H7.5C7.22412 10.1514 7.00042 9.92715 7 9.65137C7 9.37522 7.22386 9.15137 7.5 9.15137H12.1152ZM8.73242 12.7422C8.74021 12.8848 8.85803 12.997 9.00098 12.9971H10.6143C10.7571 12.9968 10.876 12.8847 10.8838 12.7422L11.0127 10.1514H8.60254L8.73242 12.7422ZM8.75 6.5C9.02614 6.5 9.25 6.72386 9.25 7C9.25 7.27614 9.02614 7.5 8.75 7.5H3.25C2.97386 7.5 2.75 7.27614 2.75 7C2.75 6.72386 2.97386 6.5 3.25 6.5H8.75ZM8.75 3.5C9.02614 3.5 9.25 3.72386 9.25 4C9.25 4.27614 9.02614 4.5 8.75 4.5H3.25C2.97386 4.5 2.75 4.27614 2.75 4C2.75 3.72386 2.97386 3.5 3.25 3.5H8.75Z" fill="var(--fill-0, currentColor)"/>
</svg>
