<svg width="16" height="16" viewBox="0 0 12.5392 14.0635" fill="none" xmlns="http://www.w3.org/2000/svg">
<path id="Union" d="M10.0615 8.6084C10.4803 8.19008 11.1595 8.18989 11.5781 8.6084L12.2256 9.25586C12.6437 9.67453 12.6438 10.3538 12.2256 10.7725L9.3457 13.6514C9.25748 13.7396 9.14354 13.7987 9.02051 13.8193L7.62109 14.0537C7.15522 14.1314 6.74647 13.7345 6.81152 13.2666L7.0127 11.8281C7.03077 11.6991 7.0915 11.5795 7.18359 11.4873L10.0615 8.6084ZM9 0C10.6569 0 12 1.34315 12 3V7C12 7.27614 11.7761 7.5 11.5 7.5C11.2239 7.5 11 7.27614 11 7V3C11 1.89543 10.1046 1 9 1H2.5C1.67157 1 1 1.67157 1 2.5V11.5C1 12.3284 1.67157 13 2.5 13H5C5.27614 13 5.5 13.2239 5.5 13.5C5.5 13.7761 5.27614 14 5 14H2.5C1.11929 14 4.0266e-08 12.8807 0 11.5V2.5C0 1.11929 1.11929 4.83192e-08 2.5 0H9ZM10.8711 9.31543C10.843 9.28744 10.7968 9.28764 10.7686 9.31543L7.98535 12.0986L7.8584 12.999L8.72852 12.8525L11.5176 10.0654C11.5457 10.0372 11.5456 9.99111 11.5176 9.96289L10.8711 9.31543ZM8.75 6.5C9.02614 6.5 9.25 6.72386 9.25 7C9.25 7.27614 9.02614 7.5 8.75 7.5H3.25C2.97386 7.5 2.75 7.27614 2.75 7C2.75 6.72386 2.97386 6.5 3.25 6.5H8.75ZM8.75 3.5C9.02614 3.5 9.25 3.72386 9.25 4C9.25 4.27614 9.02614 4.5 8.75 4.5H3.25C2.97386 4.5 2.75 4.27614 2.75 4C2.75 3.72386 2.97386 3.5 3.25 3.5H8.75Z" fill="var(--fill-0, currentColor)"/>
</svg>
