<svg width="16" height="16" viewBox="0 0 16 16" fill="none" xmlns="http://www.w3.org/2000/svg">
<path d="M11 1C12.6569 1 14 2.34315 14 4V8C14 8.27614 13.7761 8.5 13.5 8.5C13.2239 8.5 13 8.27614 13 8V4C13 2.89543 12.1046 2 11 2H4.5C3.67157 2 3 2.67157 3 3.5V12.5C3 13.3284 3.67157 14 4.5 14H7C7.27614 14 7.5 14.2239 7.5 14.5C7.5 14.7761 7.27614 15 7 15H4.5C3.11929 15 2 13.8807 2 12.5V3.5C2 2.11929 3.11929 1 4.5 1H11ZM11 9.7998C12.1595 9.80002 13.1003 10.74 13.1006 11.8994L13.0898 12.1143C13.0566 12.4423 12.947 12.7479 12.7803 13.0137L13.8867 14.1201C14.0813 14.3154 14.0816 14.6321 13.8867 14.8271C13.6916 15.022 13.3749 15.0218 13.1797 14.8271L12.0615 13.709C11.7497 13.8923 11.3877 13.9999 11 14L10.7861 13.9893C9.72697 13.8819 8.90039 12.9869 8.90039 11.8994C8.90065 10.74 9.84054 9.80002 11 9.7998ZM11 10.874C10.4337 10.8742 9.97487 11.3331 9.97461 11.8994C9.97461 12.4659 10.4335 12.9256 11 12.9258C11.5665 12.9256 12.0264 12.4659 12.0264 11.8994C12.0261 11.3331 11.5663 10.8742 11 10.874ZM10.75 7.5C11.0261 7.5 11.25 7.72386 11.25 8C11.25 8.27614 11.0261 8.5 10.75 8.5H5.25C4.97386 8.5 4.75 8.27614 4.75 8C4.75 7.72386 4.97386 7.5 5.25 7.5H10.75ZM10.75 4.5C11.0261 4.5 11.25 4.72386 11.25 5C11.25 5.27614 11.0261 5.5 10.75 5.5H5.25C4.97386 5.5 4.75 5.27614 4.75 5C4.75 4.72386 4.97386 4.5 5.25 4.5H10.75Z" fill="currentColor"/>
</svg>
