<svg width="16" height="16" viewBox="0 0 16 16" fill="none" xmlns="http://www.w3.org/2000/svg">
<path d="M11 1C12.6569 1 14 2.34315 14 4V8C14 8.27614 13.7761 8.5 13.5 8.5C13.2239 8.5 13 8.27614 13 8V4C13 2.89543 12.1046 2 11 2H4.5C3.67157 2 3 2.67157 3 3.5V12.5C3 13.3284 3.67157 14 4.5 14H7C7.27614 14 7.5 14.2239 7.5 14.5C7.5 14.7761 7.27614 15 7 15H4.5C3.11929 15 2 13.8807 2 12.5V3.5C2 2.11929 3.11929 1 4.5 1H11ZM14.1152 10.1514C14.3914 10.1514 14.6152 10.3752 14.6152 10.6514C14.6148 10.9272 14.3911 11.1514 14.1152 11.1514H14.0146L13.8818 13.792C13.8475 14.4668 13.29 14.9968 12.6143 14.9971H11.001C10.3251 14.997 9.76773 14.4669 9.7334 13.792L9.60156 11.1514H9.5C9.22412 11.1514 9.00042 10.9272 9 10.6514C9 10.3752 9.22386 10.1514 9.5 10.1514H14.1152ZM10.7324 13.7422C10.7402 13.8848 10.858 13.997 11.001 13.9971H12.6143C12.7571 13.9968 12.876 13.8847 12.8838 13.7422L13.0127 11.1514H10.6025L10.7324 13.7422ZM10.75 7.5C11.0261 7.5 11.25 7.72386 11.25 8C11.25 8.27614 11.0261 8.5 10.75 8.5H5.25C4.97386 8.5 4.75 8.27614 4.75 8C4.75 7.72386 4.97386 7.5 5.25 7.5H10.75ZM10.75 4.5C11.0261 4.5 11.25 4.72386 11.25 5C11.25 5.27614 11.0261 5.5 10.75 5.5H5.25C4.97386 5.5 4.75 5.27614 4.75 5C4.75 4.72386 4.97386 4.5 5.25 4.5H10.75Z" fill="currentColor"/>
</svg>
