<svg width="16" height="16" viewBox="0 0 12 14" fill="none" xmlns="http://www.w3.org/2000/svg">
<path id="Union" d="M6.63574 0C7.32489 0 7.98364 0.28441 8.45605 0.786133L11.3203 3.83008C11.7567 4.29377 12 4.90624 12 5.54297V11.5C12 12.8807 10.8807 14 9.5 14H2.5C1.11929 14 4.0266e-08 12.8807 0 11.5V2.5C0 1.11929 1.11929 4.83192e-08 2.5 0H6.63574ZM2.5 1C1.67157 1 1 1.67157 1 2.5V11.5C1 12.3284 1.67157 13 2.5 13H9.5C10.3284 13 11 12.3284 11 11.5V5.54297C11 5.44397 10.9907 5.34581 10.9717 5.25H8.5C7.67157 5.25 7 4.57843 7 3.75V1.0459C6.8818 1.01634 6.7597 1 6.63574 1H2.5ZM8 3.75C8 4.02614 8.22386 4.25 8.5 4.25H10.3438L8 1.75977V3.75Z" fill="var(--fill-0, currentColor)"/>
</svg>
