<svg width="16" height="16" viewBox="0 0 13 14" fill="none" xmlns="http://www.w3.org/2000/svg">
<path id="Union" d="M8.19531 0C8.89043 0 9.55432 0.289481 10.0273 0.798828L12.332 3.28027C12.6506 3.62333 12.8631 4.04672 12.9521 4.5H13V11.5C13 12.8807 11.8807 14 10.5 14H2.5C1.11929 14 0 12.8807 0 11.5V2.5C0 1.11929 1.11929 0 2.5 0H8.19531ZM2.5 1C1.67157 1 1 1.67157 1 2.5V11.5C1 12.3284 1.67157 13 2.5 13H10.5C11.3284 13 12 12.3284 12 11.5V5.5H10.5029C9.20863 5.5 8.1438 4.51634 8.01562 3.25586L8.00293 3V1H2.5ZM6.50391 5C6.63648 5.00003 6.76368 5.05274 6.85742 5.14648L9.35645 7.64648C9.55165 7.84176 9.55168 8.15829 9.35645 8.35352C9.16117 8.54872 8.84464 8.54875 8.64941 8.35352L7.00293 6.70703V11C7.00293 11.276 6.77982 11.4997 6.50391 11.5C6.22776 11.5 6.00391 11.2761 6.00391 11V6.70605L4.35645 8.35352C4.16117 8.54872 3.84464 8.54875 3.64941 8.35352C3.45421 8.15824 3.45418 7.84171 3.64941 7.64648L6.15039 5.14648C6.24415 5.05276 6.37133 5 6.50391 5ZM9.00293 3L9.01074 3.15332C9.08759 3.90967 9.7263 4.5 10.5029 4.5H11.9189C11.8517 4.30155 11.7446 4.11713 11.5996 3.96094L9.29492 1.47949C9.20772 1.38558 9.10903 1.30511 9.00293 1.2373V3Z" fill="var(--fill-0, currentColor)"/>
</svg>
