<svg width="16" height="16" viewBox="0 0 13 7.66211" fill="none" xmlns="http://www.w3.org/2000/svg">
<path id="Union" d="M8.10059 6.66211C8.37646 6.66243 8.60059 6.88616 8.60059 7.16211C8.60059 7.43806 8.37646 7.66179 8.10059 7.66211H4.90039C4.62425 7.66211 4.40039 7.43825 4.40039 7.16211C4.40039 6.88597 4.62425 6.66211 4.90039 6.66211H8.10059ZM10.5 3.33105C10.7761 3.33108 11 3.55493 11 3.83105C10.9999 4.1071 10.7761 4.33103 10.5 4.33105H2.5C2.22392 4.33105 2.0001 4.10711 2 3.83105C2 3.55491 2.22386 3.33105 2.5 3.33105H10.5ZM12.5 0C12.7761 0 13 0.223858 13 0.5C13 0.776142 12.7761 1 12.5 1H0.5C0.223858 1 0 0.776142 0 0.5C0 0.223858 0.223858 0 0.5 0H12.5Z" fill="var(--fill-0, currentColor)"/>
</svg>
