<svg width="16" height="16" viewBox="0 0 16 16" fill="none" xmlns="http://www.w3.org/2000/svg">
<path d="M7.21875 1.0468C7.36744 0.977579 7.54105 0.985481 7.68262 1.06828L8.19336 1.37785C10.6693 2.93813 12.0324 4.65913 12.7744 6.20891C13.564 7.85835 13.6318 9.27818 13.6318 10.0321L13.6201 10.4052C13.5622 11.2729 13.3037 12.1173 12.8633 12.871C12.3598 13.7326 11.6358 14.4454 10.7666 14.9355C10.622 15.0169 10.4464 15.0213 10.2979 14.9472C10.1494 14.873 10.0471 14.7299 10.0254 14.5654C9.93277 13.8611 9.67955 13.1873 9.28516 12.5966C8.99172 12.1572 8.6253 11.7725 8.2041 11.4579C7.88902 12.0147 7.44701 12.4917 6.91016 12.8495L6.91113 12.8505C6.64243 13.0464 6.41892 13.2989 6.25781 13.5898C6.09674 13.8806 6.00104 14.2034 5.97754 14.5351C5.96541 14.706 5.86678 14.8592 5.71582 14.9404C5.56488 15.0214 5.38267 15.0196 5.2334 14.9355C4.36422 14.4454 3.64115 13.7325 3.1377 12.871C2.69723 12.1172 2.43876 11.273 2.38086 10.4052L2.36816 10.0321C2.36816 8.46695 2.98165 7.36265 3.69336 6.51555C4.04352 6.0988 4.42042 5.7403 4.74805 5.42863C5.00188 5.18716 5.21848 4.98099 5.3916 4.78703L5.5498 4.59563C6.26259 3.66326 6.73913 2.57169 6.9375 1.41496L6.97266 1.29973C7.02087 1.18955 7.10733 1.09879 7.21875 1.0468ZM7.76758 2.29484C7.49011 3.34652 7.00826 4.33618 6.34473 5.20402H6.34375C6.09396 5.5303 5.75906 5.84735 5.4375 6.15324C5.1051 6.46946 4.76788 6.79146 4.45898 7.1591C3.85235 7.88118 3.36816 8.76559 3.36816 10.0321L3.37891 10.3388C3.42655 11.0525 3.6387 11.7472 4.00098 12.3671C4.29535 12.8708 4.68242 13.3108 5.1377 13.6689C5.20177 13.4744 5.28403 13.2855 5.38379 13.1054C5.61539 12.6873 5.93511 12.3245 6.32129 12.0429L6.3418 12.0292L6.53906 11.8876C6.98548 11.5409 7.33019 11.0776 7.5332 10.5468L7.58301 10.4501C7.64235 10.36 7.72953 10.2906 7.83301 10.2538C7.97091 10.2049 8.12328 10.2188 8.25 10.2919C8.99786 10.7241 9.63651 11.3226 10.1162 12.0409C10.4509 12.5421 10.6999 13.0931 10.8594 13.6708C11.3159 13.3124 11.704 12.8718 11.999 12.3671C12.413 11.6587 12.6315 10.8527 12.6318 10.0321L12.6279 9.75187C12.6069 9.03806 12.4844 7.91945 11.8721 6.64055C11.2281 5.2955 10.0264 3.74297 7.76758 2.29484Z" fill="currentColor"/>
</svg>
