<svg width="16" height="16" viewBox="0 0 11.2637 13.9999" fill="none" xmlns="http://www.w3.org/2000/svg">
<path id="Union" d="M4.85059 0.0467972C4.99928 -0.0224214 5.17288 -0.0145187 5.31445 0.0682816C8.11605 1.7083 9.61476 3.55578 10.4062 5.20891C11.1959 6.85835 11.2637 8.27818 11.2637 9.03215C11.2633 10.0298 10.9984 11.0096 10.4951 11.871C9.99163 12.7326 9.26768 13.4454 8.39844 13.9355C8.25382 14.0169 8.0782 14.0213 7.92969 13.9472C7.78119 13.873 7.67897 13.7299 7.65723 13.5654C7.56461 12.8611 7.31139 12.1873 6.91699 11.5966C6.62355 11.1572 6.25714 10.7725 5.83594 10.4579C5.52085 11.0147 5.07884 11.4917 4.54199 11.8495L4.54297 11.8505C4.27427 12.0464 4.05076 12.2989 3.88965 12.5898C3.72857 12.8806 3.63288 13.2034 3.60938 13.5351C3.59724 13.706 3.49862 13.8592 3.34766 13.9404C3.19672 14.0214 3.0145 14.0196 2.86523 13.9355C1.99606 13.4454 1.27299 12.7325 0.769531 11.871C0.329065 11.1172 0.0705939 10.273 0.0126953 9.4052L0 9.03215C0 7.46695 0.613484 6.36265 1.3252 5.51555C1.67535 5.0988 2.05226 4.7403 2.37988 4.42863C2.71836 4.10664 2.98947 3.8467 3.18164 3.59563C3.89443 2.66326 4.37096 1.57169 4.56934 0.414961L4.60449 0.299727C4.65271 0.189554 4.73917 0.0987907 4.85059 0.0467972ZM5.39941 1.29484C5.12195 2.34652 4.64009 3.33618 3.97656 4.20402H3.97559C3.72579 4.5303 3.39089 4.84735 3.06934 5.15324C2.73693 5.46946 2.39972 5.79146 2.09082 6.1591C1.48419 6.88118 1 7.76559 1 9.03215L1.01074 9.33879C1.05839 10.0525 1.27053 10.7472 1.63281 11.3671C1.92719 11.8708 2.31426 12.3108 2.76953 12.6689C2.8336 12.4744 2.91587 12.2855 3.01562 12.1054C3.24722 11.6873 3.56694 11.3245 3.95312 11.0429L3.97363 11.0292C4.51621 10.6721 4.93302 10.1535 5.16504 9.5468L5.21484 9.45012C5.27418 9.36005 5.36137 9.29055 5.46484 9.25383C5.60274 9.20492 5.75511 9.2188 5.88184 9.29191C6.6297 9.72407 7.26834 10.3226 7.74805 11.0409C8.08275 11.5421 8.3317 12.0931 8.49121 12.6708C8.94773 12.3124 9.33586 11.8718 9.63086 11.3671C10.0449 10.6587 10.2633 9.85269 10.2637 9.03215C10.2637 8.35419 10.2036 7.10189 9.50391 5.64055C8.85992 4.2955 7.65821 2.74297 5.39941 1.29484Z" fill="var(--fill-0, currentColor)"/>
</svg>
