<svg width="16" height="16" viewBox="0 0 14.4502 12.4502" fill="none" xmlns="http://www.w3.org/2000/svg">
<path id="Union" fill-rule="evenodd" clip-rule="evenodd" d="M0 9.08789V10.4502C0.000105775 11.5547 0.895495 12.4502 2 12.4502H3.45215C3.7282 12.4502 3.95204 12.2262 3.95215 11.9502C3.95215 11.6741 3.72827 11.4502 3.45215 11.4502H2C1.44778 11.4502 1.00011 11.0024 1 10.4502V9.08789C1 8.81175 0.776142 8.58789 0.5 8.58789C0.223858 8.58789 0 8.81175 0 9.08789ZM13.4502 9.08789V10.4502C13.4501 11.0023 13.0023 11.4501 12.4502 11.4502H10.998C10.7219 11.4502 10.498 11.6741 10.498 11.9502C10.4982 12.2262 10.722 12.4502 10.998 12.4502H12.4502C13.5546 12.4501 14.4501 11.5546 14.4502 10.4502V9.08789C14.4502 8.81181 14.2262 8.588 13.9502 8.58789C13.6741 8.58789 13.4502 8.81175 13.4502 9.08789ZM0 2V3.3623C0 3.63845 0.223858 3.8623 0.5 3.8623C0.776142 3.8623 1 3.63845 1 3.3623V2C1 1.44772 1.44772 1 2 1H3.45215C3.72827 0.99997 3.95215 0.776124 3.95215 0.5C3.95215 0.223876 3.72827 2.98911e-05 3.45215 0H2C0.895431 0 0 0.89543 0 2ZM13.4502 2V3.3623C13.4502 3.63845 13.6741 3.8623 13.9502 3.8623C14.2262 3.8622 14.4502 3.63838 14.4502 3.3623V2C14.4502 0.895496 13.5547 0.000105907 12.4502 0H10.998C10.7219 2.9891e-05 10.498 0.223876 10.498 0.5C10.498 0.776124 10.7219 0.99997 10.998 1H12.4502C13.0024 1.00011 13.4502 1.44778 13.4502 2ZM10.082 3.7251C10.3582 3.7251 10.582 3.94896 10.582 4.2251V8.2251C10.582 8.50124 10.3582 8.7251 10.082 8.7251H4.36816C4.12645 8.7251 3.92446 8.55365 3.87793 8.32568L3.86816 8.2251V4.2251C3.86816 3.94896 4.09202 3.7251 4.36816 3.7251H10.082ZM10.082 9.7251C10.9105 9.7251 11.582 9.05352 11.582 8.2251V4.2251C11.582 3.39667 10.9105 2.7251 10.082 2.7251H4.36816C3.53974 2.7251 2.86816 3.39667 2.86816 4.2251V8.2251L2.87598 8.37842C2.95277 9.13482 3.5915 9.7251 4.36816 9.7251H10.082Z" fill="var(--fill-0, currentColor)"/>
</svg>
