<svg width="16" height="16" viewBox="0 0 16 16" fill="none" xmlns="http://www.w3.org/2000/svg">
<path fill-rule="evenodd" clip-rule="evenodd" d="M8.00391 1C8.19225 1 8.36368 1.00013 8.50586 1.01172C8.65391 1.02382 8.81433 1.05071 8.97168 1.13086C9.19775 1.2461 9.38178 1.43021 9.49707 1.65625C9.57711 1.81352 9.6051 1.97409 9.61719 2.12207C9.62876 2.26416 9.62793 2.43583 9.62793 2.62402V3.81055H13.4893L13.6963 3.81152C13.7634 3.81289 13.8272 3.81602 13.8848 3.82129C13.9704 3.82913 14.0854 3.8453 14.2021 3.89844L14.3184 3.96484L14.3867 4.01855C14.5182 4.13235 14.6124 4.28362 14.6553 4.45215L14.6719 4.53809L14.6797 4.6709C14.6749 4.79876 14.6387 4.90926 14.6074 4.98926C14.5655 5.09644 14.5023 5.22199 14.4395 5.34766L13.5596 7.1084C13.5548 7.11779 13.5497 7.12617 13.5459 7.13379C13.5494 7.1418 13.5532 7.1512 13.5576 7.16113L14.5039 9.29004C14.5585 9.4128 14.6145 9.53686 14.6504 9.64258C14.6864 9.74886 14.7284 9.90612 14.6963 10.084C14.6555 10.3088 14.525 10.5083 14.3359 10.6367C14.1862 10.7382 14.0257 10.7642 13.9141 10.7744C13.8029 10.7845 13.6675 10.7842 13.5332 10.7842H8.14453C7.95615 10.7842 7.78477 10.7841 7.64258 10.7725C7.49454 10.7604 7.33409 10.7325 7.17676 10.6523C6.95072 10.5371 6.76664 10.353 6.65137 10.127C6.57137 9.9699 6.54338 9.80993 6.53125 9.66211C6.51964 9.51997 6.52051 9.34751 6.52051 9.15918V7.97266H2.25V14.5C2.24974 14.7759 2.02598 15 1.75 15C1.47402 15 1.25026 14.7759 1.25 14.5V2.20312C1.25 2.16152 1.25701 2.12068 1.2666 2.08203C1.2804 1.94554 1.30802 1.79937 1.38086 1.65625C1.4961 1.43021 1.68024 1.24614 1.90625 1.13086C2.06361 1.05068 2.224 1.02382 2.37207 1.01172C2.51426 1.0001 2.68562 1 2.87402 1H8.00391ZM9.62793 6.34863C9.62793 6.53683 9.62877 6.70851 9.61719 6.85059C9.60507 6.99855 9.57718 7.15919 9.49707 7.31641C9.38175 7.54244 9.19778 7.72659 8.97168 7.8418C8.81435 7.92192 8.65389 7.94982 8.50586 7.96191C8.3637 7.9735 8.19221 7.97266 8.00391 7.97266H7.52051V9.15918C7.52051 9.36378 7.52082 9.48808 7.52832 9.58008C7.53331 9.64089 7.53972 9.66622 7.54199 9.67285C7.56143 9.7108 7.59288 9.74235 7.63086 9.76172C7.62392 9.75821 7.63778 9.76836 7.72363 9.77539C7.81571 9.78291 7.93957 9.78418 8.14453 9.78418H13.5332C13.5677 9.78418 13.5993 9.7833 13.6279 9.7832C13.6164 9.75709 13.6048 9.72773 13.5908 9.69629L12.6445 7.56738C12.616 7.50329 12.5598 7.3879 12.54 7.26074C12.5247 7.16174 12.5271 7.06014 12.5469 6.96191C12.5723 6.83602 12.6336 6.72402 12.665 6.66113L13.5449 4.90039L13.5879 4.81055H9.62793V6.34863ZM2.45312 2.00781C2.38969 2.01302 2.36572 2.0205 2.36035 2.02246C2.32262 2.04184 2.2918 2.0726 2.27246 2.11035C2.27029 2.1165 2.26289 2.14123 2.25781 2.20312C2.25033 2.29512 2.25 2.41954 2.25 2.62402V6.97266H8.00391C8.20887 6.97266 8.33272 6.97236 8.4248 6.96484C8.48594 6.95985 8.51092 6.95345 8.51758 6.95117C8.55559 6.9318 8.587 6.90027 8.60645 6.8623C8.60344 6.86841 8.61321 6.85359 8.62012 6.76953C8.62764 6.67751 8.62793 6.55337 8.62793 6.34863V2.62402C8.62793 2.41954 8.6276 2.29512 8.62012 2.20312C8.6151 2.14194 8.60852 2.11687 8.60645 2.11035C8.58705 2.07238 8.55554 2.04187 8.51758 2.02246C8.51147 2.02031 8.48705 2.0129 8.4248 2.00781L8.00391 2H2.87402C2.66918 2 2.54517 2.00029 2.45312 2.00781Z" fill="currentColor"/>
</svg>
