<svg width="16" height="16" viewBox="0 0 13.4577 14" fill="none" xmlns="http://www.w3.org/2000/svg">
<path id="Union" d="M6.75391 1.1505e-09C6.94225 1.15052e-09 7.11368 0.000129166 7.25586 0.0117188C7.40391 0.0238178 7.56433 0.050711 7.72168 0.130859C7.94775 0.246099 8.13178 0.430213 8.24707 0.65625C8.32711 0.813517 8.3551 0.974094 8.36719 1.12207C8.37876 1.26416 8.37793 1.43583 8.37793 1.62402V2.81055H12.2393L12.4463 2.81152C12.5134 2.81289 12.5772 2.81602 12.6348 2.82129C12.7204 2.82913 12.8354 2.8453 12.9521 2.89844L13.0684 2.96484L13.1367 3.01855C13.2682 3.13235 13.3624 3.28362 13.4053 3.45215L13.4219 3.53809L13.4297 3.6709C13.4249 3.79876 13.3887 3.90926 13.3574 3.98926C13.3155 4.09644 13.2523 4.22199 13.1895 4.34766L12.3096 6.1084C12.3048 6.11779 12.2997 6.12617 12.2959 6.13379C12.2994 6.1418 12.3032 6.1512 12.3076 6.16113L13.2539 8.29004C13.3085 8.4128 13.3645 8.53686 13.4004 8.64258C13.4364 8.74886 13.4784 8.90612 13.4463 9.08398C13.4055 9.30883 13.275 9.5083 13.0859 9.63672C12.9362 9.73822 12.7757 9.76423 12.6641 9.77441C12.5529 9.78451 12.4175 9.78418 12.2832 9.78418H6.89453C6.70615 9.78418 6.53477 9.78406 6.39258 9.77246C6.24454 9.76037 6.08409 9.73246 5.92676 9.65234C5.70072 9.53709 5.51664 9.35298 5.40137 9.12695C5.32137 8.9699 5.29338 8.80993 5.28125 8.66211C5.26964 8.51997 5.27051 8.34751 5.27051 8.15918V6.97266H1V13.5C0.999736 13.7759 0.77598 14 0.5 14C0.224021 14 0.000263718 13.7759 0 13.5V1.20313C-1.8186e-09 1.16152 0.00701103 1.12068 0.0166016 1.08203C0.0304041 0.945545 0.0580212 0.799369 0.130859 0.65625C0.246098 0.430215 0.430239 0.246138 0.65625 0.130859C0.813613 0.0506791 0.973996 0.0238222 1.12207 0.0117188C1.26426 0.000101784 1.43562 -4.08902e-07 1.62402 1.1505e-09H6.75391ZM8.37793 5.34863C8.37793 5.53683 8.37877 5.70851 8.36719 5.85059C8.35507 5.99855 8.32718 6.15919 8.24707 6.31641C8.13175 6.54244 7.94778 6.72659 7.72168 6.8418C7.56435 6.92191 7.4039 6.94982 7.25586 6.96191C7.1137 6.9735 6.94221 6.97266 6.75391 6.97266H6.27051V8.15918C6.27051 8.36378 6.27082 8.48808 6.27832 8.58008C6.28331 8.64089 6.28972 8.66622 6.29199 8.67285C6.31143 8.7108 6.34287 8.74235 6.38086 8.76172C6.37392 8.75821 6.38778 8.76836 6.47363 8.77539C6.56571 8.78291 6.68957 8.78418 6.89453 8.78418H12.2832C12.3177 8.78418 12.3493 8.7833 12.3779 8.7832C12.3664 8.75709 12.3548 8.72773 12.3408 8.69629L11.3945 6.56738C11.366 6.50329 11.3098 6.3879 11.29 6.26074C11.2747 6.16174 11.2771 6.06014 11.2969 5.96191C11.3223 5.83602 11.3836 5.72402 11.415 5.66113L12.2949 3.90039L12.3379 3.81055H8.37793V5.34863ZM1.20313 1.00781C1.13969 1.01302 1.11572 1.0205 1.11035 1.02246C1.07262 1.04184 1.0418 1.0726 1.02246 1.11035C1.02029 1.1165 1.01289 1.14123 1.00781 1.20313C1.00033 1.29512 1 1.41954 1 1.62402V5.97266H6.75391C6.95887 5.97266 7.08272 5.97236 7.1748 5.96484C7.23594 5.95985 7.26092 5.95345 7.26758 5.95117C7.30559 5.9318 7.337 5.90027 7.35645 5.8623C7.35344 5.86841 7.36321 5.85359 7.37012 5.76953C7.37764 5.67751 7.37793 5.55337 7.37793 5.34863V1.62402C7.37793 1.41954 7.3776 1.29512 7.37012 1.20313C7.3651 1.14194 7.35852 1.11687 7.35645 1.11035C7.33705 1.07238 7.30554 1.04187 7.26758 1.02246C7.26147 1.02031 7.23705 1.0129 7.1748 1.00781L6.75391 1H1.62402C1.41918 1 1.29517 1.00029 1.20313 1.00781Z" fill="var(--fill-0, currentColor)"/>
</svg>
