<svg width="16" height="16" viewBox="0 0 13 14" fill="none" xmlns="http://www.w3.org/2000/svg">
<path id="Union" d="M6.5 0C6.77614 4.24389e-06 7 0.223861 7 0.5V13.5C7 13.7761 6.77614 14 6.5 14C6.22386 14 6 13.7761 6 13.5V0.5C6 0.223927 6.22395 0.000107853 6.5 0ZM0.324219 2.53223C0.519184 2.45897 0.738803 2.51419 0.875977 2.6709L4.37598 6.6709C4.54093 6.85941 4.54093 7.14059 4.37598 7.3291L0.875977 11.3291C0.738803 11.4858 0.519184 11.541 0.324219 11.4678C0.129235 11.3945 0 11.2083 0 11V3C0 2.7917 0.129235 2.6055 0.324219 2.53223ZM12.124 2.6709C12.2612 2.51419 12.4808 2.45897 12.6758 2.53223C12.8708 2.6055 13 2.7917 13 3V11C13 11.2083 12.8708 11.3945 12.6758 11.4678C12.4808 11.541 12.2612 11.4858 12.124 11.3291L8.62402 7.3291C8.45907 7.14059 8.45907 6.85941 8.62402 6.6709L12.124 2.6709ZM1 9.66895L3.33691 7L1 4.33008V9.66895ZM9.66309 7L12 9.66895V4.33008L9.66309 7Z" fill="var(--fill-0, currentColor)"/>
</svg>
