<svg width="16" height="16" viewBox="0 0 14 13" fill="none" xmlns="http://www.w3.org/2000/svg">
<path id="Union" fill-rule="evenodd" clip-rule="evenodd" d="M9.02344 1H13V11C13 11.5523 12.5523 12 12 12H2C1.44772 12 1 11.5523 1 11V2.38477H6.83398C7.04929 2.38477 7.259 2.31516 7.43164 2.18652L9.02344 1ZM12 13C13.1046 13 14 12.1046 14 11V0.650391C14 0.336462 13.7774 0.0744827 13.4814 0.0136719L13.3496 0H8.94043C8.81923 0 8.70021 0.0295231 8.59375 0.0849609L8.49219 0.148438L6.83398 1.38477H0.650391C0.291552 1.38477 0.000235252 1.67539 0 2.03418V11C0 12.1046 0.895431 13 2 13H12ZM11.306 6.67343C11.306 7.3215 10.7806 7.84686 10.1325 7.84686C9.48446 7.84686 8.9591 7.3215 8.9591 6.67343C8.9591 6.02536 9.48446 5.5 10.1325 5.5C10.7806 5.5 11.306 6.02536 11.306 6.67343ZM9.50517 8.40571C8.69913 8.40571 8.00124 8.96553 7.82639 9.75238L7.78494 9.93891C7.6656 10.4759 8.07423 10.9853 8.62433 10.9853H11.6397C12.1898 10.9853 12.5984 10.4759 12.4791 9.93891L12.4376 9.75238C12.2628 8.96553 11.5649 8.40571 10.7588 8.40571H9.50517ZM7.90569 8.4058C7.4974 8.71175 7.19639 9.15925 7.07935 9.68669L7.02653 9.92468C6.93551 10.3348 7.08557 10.7324 7.37105 10.9854H5.86022C5.31012 10.9854 4.90149 10.476 5.02082 9.939L5.06228 9.75247C5.23713 8.96563 5.93502 8.4058 6.74106 8.4058H7.90569ZM7.36854 5.5C7.76452 5.5 8.11469 5.69614 8.32719 5.99657C8.24496 6.21539 8.19999 6.45244 8.19999 6.7C8.19999 6.93431 8.24028 7.15921 8.31431 7.36815C8.1007 7.65847 7.75662 7.84686 7.36854 7.84686C6.72047 7.84686 6.1951 7.3215 6.1951 6.67343C6.1951 6.02536 6.72047 5.5 7.36854 5.5Z" fill="var(--fill-0, currentColor)"/>
</svg>
