<svg width="16" height="16" viewBox="0 0 16 16" fill="none" xmlns="http://www.w3.org/2000/svg">
<path fill-rule="evenodd" clip-rule="evenodd" d="M8.43184 3.68632L10.023 2.5H14V12.5C14 13.0523 13.5523 13.5 13 13.5H3C2.44772 13.5 2 13.0523 2 12.5V3.88462H7.83412C8.04952 3.88462 8.25916 3.81507 8.43184 3.68632ZM9.94008 1.5C9.77853 1.5 9.6213 1.55216 9.49179 1.64872L7.83412 2.88462H1.65C1.29102 2.88462 1 3.17563 1 3.53462V12.5C1 13.6046 1.89543 14.5 3 14.5H13C14.1046 14.5 15 13.6046 15 12.5V2.15C15 1.79101 14.709 1.5 14.35 1.5H9.94008ZM12.306 8.17343C12.306 8.8215 11.7806 9.34686 11.1325 9.34686C10.4845 9.34686 9.9591 8.8215 9.9591 8.17343C9.9591 7.52536 10.4845 7 11.1325 7C11.7806 7 12.306 7.52536 12.306 8.17343ZM10.5052 9.90571C9.69913 9.90571 9.00124 10.4655 8.82639 11.2524L8.78494 11.4389C8.6656 11.9759 9.07423 12.4853 9.62433 12.4853H12.6397C13.1898 12.4853 13.5984 11.9759 13.4791 11.4389L13.4376 11.2524C13.2628 10.4655 12.5649 9.90571 11.7588 9.90571H10.5052ZM8.90569 9.9058C8.4974 10.2118 8.19639 10.6592 8.07935 11.1867L8.02653 11.4247C7.93551 11.8348 8.08557 12.2324 8.37105 12.4854H6.86022C6.31012 12.4854 5.90149 11.976 6.02082 11.439L6.06228 11.2525C6.23713 10.4656 6.93502 9.9058 7.74106 9.9058H8.90569ZM8.36854 7C8.76452 7 9.11469 7.19614 9.32719 7.49657C9.24496 7.71539 9.19999 7.95244 9.19999 8.2C9.19999 8.43431 9.24028 8.65921 9.31431 8.86815C9.1007 9.15847 8.75662 9.34686 8.36854 9.34686C7.72047 9.34686 7.1951 8.8215 7.1951 8.17343C7.1951 7.52536 7.72047 7 8.36854 7Z" fill="currentColor"/>
</svg>
