<svg width="16" height="16" viewBox="0 0 14 13" fill="none" xmlns="http://www.w3.org/2000/svg">
<path id="Union" fill-rule="evenodd" clip-rule="evenodd" d="M13 1H9.02344L7.43164 2.18652C7.259 2.31516 7.04929 2.38477 6.83398 2.38477H1V11C1 11.5523 1.44772 12 2 12H12C12.5523 12 13 11.5523 13 11V1ZM14 11C14 12.1046 13.1046 13 12 13H2C0.895431 13 0 12.1046 0 11V2.03418C0.000235252 1.67539 0.291552 1.38477 0.650391 1.38477H6.83398L8.49219 0.148438L8.59375 0.0849609C8.70021 0.0295231 8.81923 0 8.94043 0H13.3496L13.4814 0.0136719C13.7774 0.0744827 14 0.336462 14 0.650391V11ZM7.00049 4.16821C7.13306 4.16824 7.26026 4.22095 7.354 4.3147L9.85303 6.8147C10.0482 7.00997 10.0483 7.3265 9.85303 7.52173C9.65775 7.71693 9.34123 7.71696 9.146 7.52173L7.5 5.87573V10.1682C7.5 10.4444 7.27614 10.6682 7 10.6682C6.72386 10.6682 6.5 10.4444 6.5 10.1682V5.87476L4.85303 7.52173C4.65775 7.71693 4.34123 7.71696 4.146 7.52173C3.95079 7.32645 3.95076 7.00993 4.146 6.8147L6.64697 4.3147C6.74074 4.22097 6.86791 4.16821 7.00049 4.16821Z" fill="var(--fill-0, currentColor)"/>
</svg>
