<svg width="16" height="16" viewBox="0 0 14 12.5" fill="none" xmlns="http://www.w3.org/2000/svg">
<path id="Union" d="M2 6.5C3.10457 6.5 4 7.39543 4 8.5C4 9.43162 3.3622 10.2113 2.5 10.4336V12C2.5 12.2761 2.27614 12.5 2 12.5C1.72386 12.5 1.5 12.2761 1.5 12V10.4336C0.637803 10.2113 0 9.43162 0 8.5C0 7.39543 0.89543 6.5 2 6.5ZM7 7.5C7.27614 7.5 7.5 7.72386 7.5 8V12C7.5 12.2761 7.27614 12.5 7 12.5C6.72386 12.5 6.5 12.2761 6.5 12V8C6.5 7.72386 6.72386 7.5 7 7.5ZM12 6.5C13.1046 6.5 14 7.39543 14 8.5C14 9.43162 13.3622 10.2113 12.5 10.4336V12C12.5 12.2761 12.2761 12.5 12 12.5C11.7239 12.5 11.5 12.2761 11.5 12V10.4336C10.6378 10.2113 10 9.43162 10 8.5C10 7.39543 10.8954 6.5 12 6.5ZM2 7.5C1.44772 7.5 1 7.94772 1 8.5C1 9.05228 1.44772 9.5 2 9.5C2.55228 9.5 3 9.05228 3 8.5C3 7.94772 2.55228 7.5 2 7.5ZM12 7.5C11.4477 7.5 11 7.94772 11 8.5C11 9.05228 11.4477 9.5 12 9.5C12.5523 9.5 13 9.05228 13 8.5C13 7.94772 12.5523 7.5 12 7.5ZM7 0C7.27614 0 7.5 0.223858 7.5 0.5V2.5C7.5 2.52163 7.49583 2.54257 7.49316 2.56348C8.35898 2.7833 9 3.56581 9 4.5C9 5.60457 8.10457 6.5 7 6.5C5.89543 6.5 5 5.60457 5 4.5C5 3.56614 5.64051 2.78362 6.50586 2.56348C6.50321 2.54261 6.5 2.52158 6.5 2.5V0.5C6.5 0.223858 6.72386 0 7 0ZM7 3.5C6.44772 3.5 6 3.94772 6 4.5C6 5.05228 6.44772 5.5 7 5.5C7.55228 5.5 8 5.05228 8 4.5C8 3.94772 7.55228 3.5 7 3.5ZM2 0C2.27614 0 2.5 0.223858 2.5 0.5V4.5C2.5 4.77614 2.27614 5 2 5C1.72386 5 1.5 4.77614 1.5 4.5V0.5C1.5 0.223858 1.72386 0 2 0ZM12 0C12.2761 0 12.5 0.223858 12.5 0.5V4.5C12.5 4.77614 12.2761 5 12 5C11.7239 5 11.5 4.77614 11.5 4.5V0.5C11.5 0.223858 11.7239 0 12 0Z" fill="var(--fill-0, currentColor)"/>
</svg>
