<svg width="16" height="16" viewBox="0 0 16 16" fill="none" xmlns="http://www.w3.org/2000/svg">
<path d="M11.4238 8.68848C13.0936 8.77299 14.4219 10.154 14.4219 11.8447C14.4217 13.5354 13.0935 14.9165 11.4238 15.001L11.2617 15.0049H4.75977C3.00593 15.0049 1.59974 13.5985 1.59961 11.8447C1.59961 10.0908 3.00585 8.68457 4.75977 8.68457H11.2617L11.4238 8.68848ZM4.75977 9.68457C3.55813 9.68457 2.59961 10.6431 2.59961 11.8447C2.59974 13.0462 3.55821 14.0049 4.75977 14.0049H8.95996C8.42921 13.4396 8.10163 12.6812 8.10156 11.8447C8.10156 11.0082 8.42921 10.2499 8.95996 9.68457H4.75977ZM11.2617 9.68457C10.0688 9.68457 9.10156 10.6518 9.10156 11.8447C9.10169 13.0375 10.0689 14.0049 11.2617 14.0049C12.4545 14.0047 13.4217 13.0375 13.4219 11.8447C13.4219 10.6519 12.4545 9.68471 11.2617 9.68457ZM11.2617 1C13.0156 1 14.4219 2.40624 14.4219 4.16016C14.4218 5.914 13.0156 7.32031 11.2617 7.32031H4.75977C3.0146 7.32031 1.5997 5.9053 1.59961 4.16016C1.59961 2.41494 3.01455 1 4.75977 1H11.2617ZM4.75977 2C3.56683 2 2.59961 2.96722 2.59961 4.16016C2.5997 5.35302 3.56689 6.32031 4.75977 6.32031C5.95257 6.32023 6.91984 5.35296 6.91992 4.16016C6.91992 2.96728 5.95263 2.00009 4.75977 2ZM7.06152 2C7.59229 2.56531 7.91992 3.32362 7.91992 4.16016C7.91988 4.99665 7.59229 5.75499 7.06152 6.32031H11.2617C12.4633 6.32031 13.4218 5.36172 13.4219 4.16016C13.4219 2.95852 12.4634 2 11.2617 2H7.06152Z" fill="currentColor"/>
</svg>
