<svg width="16" height="16" viewBox="0 0 12.8223 14.0049" fill="none" xmlns="http://www.w3.org/2000/svg">
<path id="Union" d="M9.82422 7.68848C11.494 7.77299 12.8223 9.15396 12.8223 10.8447C12.8221 12.5354 11.4939 13.9165 9.82422 14.001L9.66211 14.0049H3.16016C1.40632 14.0049 0.00013005 12.5985 0 10.8447C0 9.09081 1.40624 7.68457 3.16016 7.68457H9.66211L9.82422 7.68848ZM3.16016 8.68457C1.95852 8.68457 1 9.64309 1 10.8447C1.00013 12.0462 1.9586 13.0049 3.16016 13.0049H7.36035C6.8296 12.4396 6.50202 11.6812 6.50195 10.8447C6.50195 10.0082 6.8296 9.24989 7.36035 8.68457H3.16016ZM9.66211 8.68457C8.46918 8.68457 7.50195 9.65179 7.50195 10.8447C7.50208 12.0375 8.46926 13.0049 9.66211 13.0049C10.8548 13.0047 11.8221 12.0375 11.8223 10.8447C11.8223 9.65188 10.8549 8.68471 9.66211 8.68457ZM9.66211 0C11.416 0 12.8223 1.40624 12.8223 3.16016C12.8222 4.914 11.416 6.32031 9.66211 6.32031H3.16016C1.41499 6.32031 8.61505e-05 4.9053 0 3.16016C0 1.41494 1.41494 0 3.16016 0H9.66211ZM3.16016 1C1.96722 1 1 1.96722 1 3.16016C1.00009 4.35302 1.96728 5.32031 3.16016 5.32031C4.35296 5.32023 5.32023 4.35296 5.32031 3.16016C5.32031 1.96728 4.35302 1.00009 3.16016 1ZM5.46191 1C5.99268 1.56531 6.32031 2.32362 6.32031 3.16016C6.32027 3.99665 5.99268 4.75499 5.46191 5.32031H9.66211C10.8637 5.32031 11.8222 4.36172 11.8223 3.16016C11.8223 1.95852 10.8637 1 9.66211 1H5.46191Z" fill="var(--fill-0, currentColor)"/>
</svg>
