<svg width="16" height="16" viewBox="0 0 14.5 14.5" fill="none" xmlns="http://www.w3.org/2000/svg">
<path id="Union" fill-rule="evenodd" clip-rule="evenodd" d="M13.5 7.25C13.5 4.49136 11.7128 2.15016 9.233 1.32114L9.08734 3.4994L9.0861 3.51844V3.51845C9.08197 3.58268 9.07679 3.66326 9.05804 3.74354C9.04156 3.81402 9.01704 3.88235 8.98578 3.94764C8.94989 4.02257 8.90328 4.08903 8.86621 4.14189L8.8662 4.1419L8.85589 4.15662L8.82757 4.19764L8.81385 4.21738C8.77055 4.27981 8.71641 4.35784 8.64691 4.42518C8.58554 4.4846 8.51625 4.53557 8.44183 4.57752C8.35531 4.6263 8.26274 4.65694 8.18966 4.68114L8.1723 4.6869L6.2641 5.32264C6.24261 5.32979 6.22568 5.33523 6.21197 5.33964L6.2119 5.33966L6.21189 5.33967C6.19434 5.34531 6.18208 5.34925 6.1723 5.35291L6.17132 5.35486C6.15994 5.36963 6.1448 5.39076 6.11468 5.43299L5.55902 6.21131L5.54448 6.23177C5.48854 6.31061 5.41797 6.41008 5.32464 6.49061C5.24398 6.56019 5.15255 6.61682 5.05414 6.6576C4.93969 6.70496 4.81853 6.72343 4.7228 6.73804L4.69964 6.74158L4.63617 6.75135L4.6118 6.75517C4.51955 6.76969 4.40333 6.78798 4.28461 6.77869C4.18155 6.77058 4.07951 6.74653 3.98382 6.7074C3.87552 6.66307 3.7816 6.59544 3.70642 6.54131L3.70642 6.5413L3.68207 6.52381L1.44589 4.92716C1.15824 5.64525 1 6.42915 1 7.25C1 10.7018 3.79822 13.5 7.25 13.5C10.7018 13.5 13.5 10.7018 13.5 7.25ZM8.08929 3.43201L8.2467 1.07904C7.92214 1.02703 7.58922 1 7.25 1C4.9799 1 2.99247 2.21028 1.89777 4.0208L4.26312 5.71033C4.3155 5.74775 4.34215 5.76598 4.36175 5.77869L4.36273 5.77967H4.36468C4.38792 5.77714 4.42012 5.77293 4.48382 5.76307L4.54632 5.7533C4.61214 5.74312 4.64566 5.7376 4.66937 5.73279L4.67035 5.73182L4.6723 5.73084C4.68723 5.71183 4.70699 5.68431 4.74554 5.63026L5.30023 4.85193L5.31194 4.83546C5.35562 4.77394 5.41088 4.69613 5.48089 4.62928C5.54162 4.57134 5.60982 4.52185 5.68304 4.48084C5.76821 4.43316 5.85939 4.40298 5.93126 4.37919L5.94867 4.37342L7.85687 3.73768L7.86602 3.73463L7.86604 3.73463C7.90945 3.72017 7.93211 3.71263 7.94867 3.70643L7.95062 3.70545L7.9516 3.70447C7.95977 3.69364 7.96962 3.67947 7.98557 3.65652L8.00726 3.62537L8.03656 3.58436C8.06166 3.54841 8.07379 3.53025 8.08246 3.51697V3.51502L8.08343 3.51404C8.08473 3.50083 8.08591 3.48313 8.08797 3.45197L8.08929 3.43201ZM7.25 14.5C3.24594 14.5 0 11.2541 0 7.25C0 3.24594 3.24594 0 7.25 0C11.2541 0 14.5 3.24594 14.5 7.25C14.5 11.2541 11.2541 14.5 7.25 14.5ZM7.06506 7.30081C6.83531 7.14775 6.52485 7.20977 6.3717 7.43949L5.44299 8.83304C5.36953 8.9433 5.34284 9.07812 5.36877 9.20804L5.83361 11.5303C5.88036 11.764 6.08551 11.9326 6.32385 11.9326H8.18127C8.33865 11.9326 8.48723 11.8584 8.58166 11.7325L9.97424 9.87503C10.0567 9.76509 10.0902 9.62572 10.067 9.49027C10.0438 9.35483 9.9665 9.23446 9.85217 9.15824L7.06506 7.30081ZM6.734 10.9326L6.38928 9.21488L6.92639 8.40921L8.85705 9.69632L7.93127 10.9326H6.734Z" fill="var(--fill-0, currentColor)"/>
</svg>
