<svg width="16" height="16" viewBox="0 0 13 13" fill="none" xmlns="http://www.w3.org/2000/svg">
<path id="Union" d="M4.60254 7.50488C5.10667 7.55621 5.5 7.98232 5.5 8.5V11L5.48926 11.2041C5.3938 12.1457 4.64565 12.8938 3.7041 12.9893L3.5 13H2C0.964349 13 0.113005 12.2128 0.0107422 11.2041L0 11V9.5C3.22133e-08 8.39543 0.895431 7.5 2 7.5H4.5L4.60254 7.50488ZM11.2041 7.51074C12.2128 7.613 13 8.46435 13 9.5V11L12.9893 11.2041C12.8938 12.1457 12.1457 12.8938 11.2041 12.9893L11 13H9.5C8.46435 13 7.613 12.2128 7.51074 11.2041L7.5 11V8.5C7.5 7.94772 7.94772 7.5 8.5 7.5H11L11.2041 7.51074ZM8.5 11C8.5 11.5523 8.94772 12 9.5 12H11C11.5523 12 12 11.5523 12 11V9.5C12 8.94772 11.5523 8.5 11 8.5H8.5V11ZM2 8.5C1.44772 8.5 1 8.94772 1 9.5V11C1 11.5523 1.44772 12 2 12H3.5C4.05228 12 4.5 11.5523 4.5 11V8.5H2ZM3.7041 0.0107422C4.71278 0.113005 5.5 0.964349 5.5 2V4.5L5.49512 4.60254C5.44722 5.07297 5.07297 5.44722 4.60254 5.49512L4.5 5.5H2C0.964349 5.5 0.113005 4.71278 0.0107422 3.7041L0 3.5V2C3.22133e-08 0.895431 0.895431 3.22128e-08 2 0H3.5L3.7041 0.0107422ZM11.2041 0.0107422C12.2128 0.113005 13 0.964349 13 2V3.5L12.9893 3.7041C12.8938 4.64565 12.1457 5.3938 11.2041 5.48926L11 5.5H8.5C7.98232 5.5 7.55621 5.10667 7.50488 4.60254L7.5 4.5V2C7.5 0.895431 8.39543 3.22128e-08 9.5 0H11L11.2041 0.0107422ZM2 1C1.44772 1 1 1.44772 1 2V3.5C1 4.05228 1.44772 4.5 2 4.5H4.5V2C4.5 1.44772 4.05228 1 3.5 1H2ZM9.5 1C8.94772 1 8.5 1.44772 8.5 2V4.5H11C11.5523 4.5 12 4.05228 12 3.5V2C12 1.44772 11.5523 1 11 1H9.5Z" fill="var(--fill-0, currentColor)"/>
</svg>
