<svg width="16" height="16" viewBox="0 0 13 12.4999" fill="none" xmlns="http://www.w3.org/2000/svg">
<path id="Union" fill-rule="evenodd" clip-rule="evenodd" d="M0.146447 0.146447C0.341709 -0.0488155 0.658216 -0.0488155 0.853478 0.146447L2.85348 2.14645C3.04874 2.34171 3.04874 2.65822 2.85348 2.85348L0.853478 4.85348C0.658216 5.04874 0.341709 5.04874 0.146447 4.85348C-0.0488155 4.65822 -0.0488155 4.34171 0.146447 4.14645L1.79293 2.49996L0.146447 0.853478C-0.0488155 0.658216 -0.0488155 0.341709 0.146447 0.146447ZM12.5 0.950158C12.7761 0.950158 13 1.17402 13 1.45016C13 1.7263 12.7761 1.95016 12.5 1.95016H4.49996C4.22382 1.95016 3.99996 1.7263 3.99996 1.45016C3.99996 1.17402 4.22382 0.950158 4.49996 0.950158H12.5ZM12.5 5.75021C12.7761 5.75021 13 5.97406 13 6.25021C13 6.52635 12.7761 6.75021 12.5 6.75021H4.49996C4.22382 6.75021 3.99996 6.52635 3.99996 6.25021C3.99996 5.97406 4.22382 5.75021 4.49996 5.75021H12.5ZM13 11.0503C13 10.7741 12.7761 10.5503 12.5 10.5503H4.49996C4.22382 10.5503 3.99996 10.7741 3.99996 11.0503C3.99996 11.3264 4.22382 11.5503 4.49996 11.5503H12.5C12.7761 11.5503 13 11.3264 13 11.0503ZM0.853478 7.64645C0.658216 7.45118 0.341709 7.45118 0.146447 7.64645C-0.0488155 7.84171 -0.0488155 8.15822 0.146447 8.35348L1.79293 9.99996L0.146447 11.6464C-0.0488155 11.8417 -0.0488155 12.1582 0.146447 12.3535C0.341709 12.5487 0.658216 12.5487 0.853478 12.3535L2.85348 10.3535C3.04874 10.1582 3.04874 9.84171 2.85348 9.64645L0.853478 7.64645Z" fill="var(--fill-0, currentColor)"/>
</svg>
