<svg width="16" height="16" viewBox="0 0 14 14" fill="none" xmlns="http://www.w3.org/2000/svg">
<path id="Union" d="M0.5 9.75C0.776142 9.75 1 9.97386 1 10.25V12.5C1 12.7761 1.22386 13 1.5 13H3.75C4.02614 13 4.25 13.2239 4.25 13.5C4.25 13.7761 4.02614 14 3.75 14H1.5C0.671573 14 0 13.3284 0 12.5V10.25C0 9.97386 0.223858 9.75 0.5 9.75ZM13.5 9.75C13.7761 9.75 14 9.97386 14 10.25V12.5C14 13.3284 13.3284 14 12.5 14H10.25C9.97386 14 9.75 13.7761 9.75 13.5C9.75 13.2239 9.97386 13 10.25 13H12.5C12.7761 13 13 12.7761 13 12.5V10.25C13 9.97386 13.2239 9.75 13.5 9.75ZM7.15332 2.50781C7.90972 2.58461 8.5 3.22334 8.5 4V6L8.49219 6.15332C8.47995 6.27383 8.45213 6.38965 8.41309 6.5H10L10.1533 6.50781C10.9097 6.58461 11.5 7.22334 11.5 8V10L11.4922 10.1533C11.4205 10.8593 10.8593 11.4205 10.1533 11.4922L10 11.5H7L6.84668 11.4922C6.09028 11.4154 5.5 10.7767 5.5 10V8C5.5 7.8245 5.53153 7.65652 5.58691 7.5H4L3.84668 7.49219C3.09028 7.41539 2.5 6.77666 2.5 6V4C2.5 3.22334 3.09028 2.58461 3.84668 2.50781L4 2.5H7L7.15332 2.50781ZM7 7.5C6.75829 7.5 6.55629 7.67145 6.50977 7.89941L6.5 8V10C6.5 10.2761 6.72386 10.5 7 10.5H10C10.2761 10.5 10.5 10.2761 10.5 10V8C10.5 7.72386 10.2761 7.5 10 7.5H7ZM4 3.5C3.75829 3.5 3.55629 3.67145 3.50977 3.89941L3.5 4V6C3.5 6.27614 3.72386 6.5 4 6.5H7C7.27614 6.5 7.5 6.27614 7.5 6V4C7.5 3.72386 7.27614 3.5 7 3.5H4ZM3.75 0C4.02614 0 4.25 0.223858 4.25 0.5C4.25 0.776142 4.02614 1 3.75 1H1.5C1.22386 1 1 1.22386 1 1.5V3.75C1 4.02614 0.776142 4.25 0.5 4.25C0.223858 4.25 0 4.02614 0 3.75V1.5C0 0.671573 0.671573 0 1.5 0H3.75ZM12.5 0C13.3284 0 14 0.671573 14 1.5V3.75C14 4.02614 13.7761 4.25 13.5 4.25C13.2239 4.25 13 4.02614 13 3.75V1.5C13 1.22386 12.7761 1 12.5 1H10.25C9.97386 1 9.75 0.776142 9.75 0.5C9.75 0.223858 9.97386 0 10.25 0H12.5Z" fill="var(--fill-0, currentColor)"/>
</svg>
