<svg width="16" height="16" viewBox="0 0 13.0029 13.0029" fill="none" xmlns="http://www.w3.org/2000/svg">
<path id="Union" d="M8.83496 0C9.11109 0 9.33494 0.223878 9.33496 0.5V3.33398H12.5029C12.7791 3.33399 13.0029 3.55785 13.0029 3.83398C13.0029 4.11008 12.779 4.33397 12.5029 4.33398H9.33496V8.66895H12.5029C12.779 8.66896 13.0028 8.89288 13.0029 9.16895C13.0028 9.44501 12.779 9.66894 12.5029 9.66895H9.33496V12.5029C9.33495 12.7791 9.1111 13.0029 8.83496 13.0029C8.55882 13.0029 8.33497 12.7791 8.33496 12.5029V9.66895H4.66504V12.5029C4.66503 12.7791 4.44118 13.0029 4.16504 13.0029C3.8889 13.0029 3.66505 12.7791 3.66504 12.5029V9.66895H0.5C0.223912 9.66895 8.854e-05 9.44501 0 9.16895C8.29617e-05 8.89287 0.223909 8.66895 0.5 8.66895H3.66504V4.33398H0.5C0.223885 4.33398 4.44483e-05 4.11009 0 3.83398C0 3.55784 0.223858 3.33398 0.5 3.33398H3.66504V0.5C3.66506 0.223878 3.88891 0 4.16504 0C4.44117 0 4.66502 0.223878 4.66504 0.5V3.33398H8.33496V0.5C8.33498 0.223878 8.55883 0 8.83496 0ZM4.66504 4.33398V8.66895H8.33496V4.33398H4.66504Z" fill="var(--fill-0, currentColor)"/>
</svg>
