<svg width="16" height="16" viewBox="0 0 14.4863 11" fill="none" xmlns="http://www.w3.org/2000/svg">
<path id="Union" d="M8 0C8.27614 0 8.5 0.223858 8.5 0.5V10.5C8.5 10.7761 8.27614 11 8 11C7.72386 11 7.5 10.7761 7.5 10.5V5.75H1V10.5C1 10.7761 0.776142 11 0.5 11C0.223858 11 0 10.7761 0 10.5V0.5C0 0.223858 0.223858 0 0.5 0C0.776142 0 1 0.223858 1 0.5V4.75H7.5V0.5C7.5 0.223858 7.72386 0 8 0ZM12.0469 3.62793C12.5037 3.62794 12.906 3.71916 13.2539 3.90137C13.6041 4.08122 13.8777 4.32733 14.0742 4.63965C14.2707 4.94978 14.3691 5.30078 14.3691 5.69141C14.3691 5.9612 14.3186 6.22543 14.2168 6.4834C14.1174 6.74137 13.9428 7.02859 13.6943 7.3457C13.4458 7.66057 13.0999 8.04335 12.6572 8.49316L11.2119 10.0059V10.0586H14.0156C14.2754 10.0586 14.4862 10.2696 14.4863 10.5293C14.4863 10.7892 14.2755 11 14.0156 11H10.2656C9.95295 10.9997 9.69928 10.7463 9.69922 10.4336C9.69922 10.2868 9.75647 10.1457 9.8584 10.04L12.1602 7.65527C12.4229 7.37828 12.6401 7.13509 12.8105 6.92676C12.9832 6.71627 13.1121 6.51637 13.1973 6.32715C13.2825 6.13775 13.3252 5.93572 13.3252 5.72266C13.3251 5.48137 13.2679 5.27274 13.1543 5.09766C13.0407 4.92035 12.8858 4.78406 12.6895 4.68945C12.493 4.59245 12.2715 4.54395 12.0254 4.54395C11.765 4.54396 11.5379 4.59758 11.3438 4.7041C11.1496 4.81064 11.0006 4.96115 10.8965 5.15527C10.868 5.20844 10.843 5.26413 10.8223 5.32227C10.7252 5.59469 10.505 5.83691 10.2158 5.83691C9.9267 5.83672 9.68416 5.59928 9.74414 5.31641C9.7935 5.08362 9.87859 4.87026 9.99805 4.67578C10.2016 4.34436 10.4809 4.08756 10.8359 3.90527C11.1911 3.72061 11.5947 3.62793 12.0469 3.62793Z" fill="var(--fill-0, currentColor)"/>
</svg>
