<svg width="16" height="16" viewBox="0 0 13.1338 11" fill="none" xmlns="http://www.w3.org/2000/svg">
<path id="Union" d="M8 0C8.27614 0 8.5 0.223858 8.5 0.5V10.5C8.5 10.7761 8.27614 11 8 11C7.72386 11 7.5 10.7761 7.5 10.5V5.75H1V10.5C1 10.7761 0.776142 11 0.5 11C0.223858 11 0 10.7761 0 10.5V0.5C0 0.223858 0.223858 0 0.5 0C0.776142 0 1 0.223858 1 0.5V4.75H7.5V0.5C7.5 0.223858 7.72386 0 8 0ZM12.082 3.71484C12.5287 3.41101 13.1338 3.73125 13.1338 4.27148V10.4492C13.1338 10.7532 12.887 11 12.583 11C12.2791 11 12.0322 10.7532 12.0322 10.4492V4.82812H11.9902L10.9307 5.51953C10.638 5.71067 10.2501 5.5009 10.25 5.15137C10.25 5.00289 10.325 4.8645 10.4492 4.7832L12.0645 3.72754L12.082 3.71484Z" fill="var(--fill-0, currentColor)"/>
</svg>
