<svg width="16" height="16" viewBox="0 0 14.8028 11.0996" fill="none" xmlns="http://www.w3.org/2000/svg">
<path id="Union" d="M12.2598 3.62793C12.7261 3.62793 13.1292 3.71908 13.4678 3.90137C13.8085 4.08126 14.0713 4.32153 14.2559 4.62207C14.4429 4.92271 14.5346 5.25193 14.5322 5.60938C14.5346 6.01657 14.421 6.36239 14.1914 6.64648C13.9642 6.93045 13.6609 7.12073 13.2822 7.21777V7.27539C13.7652 7.34878 14.1401 7.54045 14.4053 7.85059C14.6725 8.16055 14.805 8.54503 14.8027 9.00391C14.8051 9.40393 14.6936 9.76289 14.4688 10.0801C14.2462 10.3973 13.9416 10.6478 13.5557 10.8301C13.1699 11.0098 12.7284 11.0996 12.2314 11.0996C11.7439 11.0996 11.3083 11.0157 10.9248 10.8477C10.5436 10.6796 10.2421 10.4458 10.0195 10.1475C9.90006 9.9843 9.81049 9.80725 9.75098 9.61621C9.66652 9.34478 9.90124 9.10352 10.1855 9.10352H10.3105C10.5739 9.10352 10.778 9.32177 10.9131 9.54785C10.9374 9.58846 10.9654 9.62759 10.9961 9.66504C11.1286 9.82115 11.3017 9.94217 11.5146 10.0273C11.7276 10.1124 11.9644 10.1553 12.2246 10.1553C12.511 10.1553 12.7643 10.1053 12.9844 10.0059C13.2069 9.90643 13.3814 9.7674 13.5068 9.58984C13.6321 9.41004 13.6943 9.2029 13.6943 8.96875C13.6943 8.72506 13.6322 8.51075 13.5068 8.32617C13.3837 8.13915 13.202 7.99228 12.9629 7.88574C12.7262 7.77925 12.4396 7.72559 12.1035 7.72559H11.9365C11.6895 7.72544 11.4893 7.52535 11.4893 7.27832C11.4894 7.03137 11.6896 6.8312 11.9365 6.83105H12.1035C12.3732 6.83105 12.61 6.78249 12.8135 6.68555C13.0194 6.58848 13.1809 6.4531 13.2969 6.28027C13.4128 6.10514 13.4707 5.90028 13.4707 5.66602C13.4707 5.44122 13.4201 5.24573 13.3184 5.08008C13.2189 4.91205 13.0762 4.7812 12.8916 4.68652C12.7094 4.59194 12.4944 4.54399 12.2461 4.54395C12.0094 4.54395 11.7879 4.58824 11.582 4.67578C11.3785 4.76098 11.2128 4.88402 11.085 5.04492C11.0556 5.08134 11.029 5.11939 11.0059 5.15918C10.8714 5.39085 10.6673 5.61619 10.3994 5.61621H10.332C10.0501 5.6162 9.8154 5.37905 9.89746 5.10938C9.95556 4.91887 10.0452 4.74251 10.165 4.58008C10.3876 4.28178 10.6813 4.04797 11.0459 3.87988C11.4103 3.71195 11.8149 3.62795 12.2598 3.62793ZM8 0C8.27614 0 8.5 0.223858 8.5 0.5V10.5C8.5 10.7761 8.27614 11 8 11C7.72386 11 7.5 10.7761 7.5 10.5V5.75H1V10.5C1 10.7761 0.776142 11 0.5 11C0.223858 11 0 10.7761 0 10.5V0.5C0 0.223858 0.223858 0 0.5 0C0.776142 0 1 0.223858 1 0.5V4.75H7.5V0.5C7.5 0.223858 7.72386 0 8 0Z" fill="var(--fill-0, currentColor)"/>
</svg>
