<svg width="16" height="16" viewBox="0 0 14 13" fill="none" xmlns="http://www.w3.org/2000/svg">
<path id="Union" fill-rule="evenodd" clip-rule="evenodd" d="M7 13H12L12.2041 12.9893C13.2128 12.887 14 12.0357 14 11V8V2C14 0.895431 13.1046 0 12 0H11.5H2.5H2C0.895431 0 0 0.895431 0 2V8V11L0.0107422 11.2041C0.1062 12.1457 0.854346 12.8938 1.7959 12.9893L2 13H7ZM1 4L1 7.5H6.5V4H1ZM7.5 4H13V7.5H7.5V4ZM13 11V8.5H7.5V12H12C12.5523 12 13 11.5523 13 11ZM1 11V8.5H6.5V12H2C1.44772 12 1 11.5523 1 11Z" fill="var(--fill-0, currentColor)"/>
</svg>
