<svg width="16" height="16" viewBox="0 0 15.125 13.7153" fill="none" xmlns="http://www.w3.org/2000/svg">
<path id="Union" d="M4.39651 0C5.60588 0.0152656 6.74384 0.524225 7.56155 1.38672C8.37887 0.52364 9.51817 0.0152744 10.7285 0H10.7393C13.1702 0.0148927 15.133 1.99167 15.125 4.42188C15.125 7.03985 13.7789 9.12303 12.2862 10.6279C10.7924 12.1338 9.10302 13.1126 8.29299 13.5352C7.83287 13.7753 7.2912 13.7753 6.83108 13.5352C6.02102 13.1126 4.33238 12.1338 2.83889 10.6279C1.34631 9.12299 2.39999e-05 7.03996 2.39999e-05 4.42188C-0.00791289 1.99178 1.95373 0.0149053 4.38577 0H4.39651ZM10.7383 1.125C9.64816 1.14021 8.63547 1.69093 8.0303 2.5957C7.92592 2.7517 7.75023 2.84564 7.56252 2.8457C7.37487 2.8457 7.19919 2.75162 7.09475 2.5957C6.48825 1.69041 5.47505 1.13989 4.38577 1.125C2.57513 1.13974 1.1182 2.61274 1.12502 4.41992V4.42188C1.12502 6.63043 2.25842 8.44523 3.63772 9.83594C5.01591 11.2255 6.59133 12.1405 7.35159 12.5371C7.48553 12.607 7.63854 12.607 7.77248 12.5371C8.53279 12.1405 10.1089 11.2256 11.4873 9.83594C12.8668 8.44522 14 6.63034 14 4.42188V4.41992C14.0068 2.6125 12.5485 1.1392 10.7383 1.125Z" fill="var(--fill-0, currentColor)"/>
</svg>
