<svg width="16" height="16" viewBox="0 0 14.3859 12.5798" fill="none" xmlns="http://www.w3.org/2000/svg">
<path id="Union" d="M1.18561 1.18973C2.77207 -0.396681 5.3451 -0.396469 6.9317 1.18973L7.13873 1.41629C7.15216 1.43239 7.16376 1.44987 7.17682 1.46609C7.25211 1.37251 7.33223 1.27943 7.42096 1.1907C9.00748 -0.395684 11.5805 -0.395628 13.1671 1.1907L13.3116 1.34207C14.7572 2.92565 14.7739 5.21475 13.1788 6.9241C13.1735 6.92972 13.1677 6.93534 13.1622 6.9407L7.52643 12.4378C7.33223 12.6272 7.02239 12.6272 6.82818 12.4378L1.19049 6.9407C1.18375 6.93413 1.17731 6.92713 1.17096 6.92019C-0.37537 5.23049 -0.410118 2.78545 1.18561 1.18973ZM6.22467 1.89773C5.02861 0.701673 3.0887 0.701673 1.89264 1.89773C0.708556 3.08226 0.694124 4.90988 1.90143 6.2366L7.17682 11.3811L12.4551 6.23269C13.7347 4.85407 13.6546 3.09263 12.46 1.89871V1.89773C11.264 0.701928 9.32399 0.701871 8.12799 1.89773C7.9239 2.10182 7.76281 2.34121 7.61627 2.61062C7.52875 2.77157 7.36002 2.87234 7.17682 2.87234C6.99368 2.87229 6.82486 2.77152 6.73736 2.61062C6.59057 2.34075 6.42985 2.10121 6.22564 1.89773H6.22467Z" fill="var(--fill-0, currentColor)"/>
</svg>
