<svg width="16" height="16" viewBox="0 0 14.5 14.5" fill="none" xmlns="http://www.w3.org/2000/svg">
<path id="Union" d="M7.25 0C11.2541 0 14.5 3.24594 14.5 7.25C14.5 11.2541 11.2541 14.5 7.25 14.5C3.24594 14.5 0 11.2541 0 7.25C0 3.24594 3.24594 0 7.25 0ZM7.25 1C3.79822 1 1 3.79822 1 7.25C1 10.7018 3.79822 13.5 7.25 13.5C10.7018 13.5 13.5 10.7018 13.5 7.25C13.5 3.79822 10.7018 1 7.25 1ZM7.14258 9.55957C7.34766 9.55957 7.51855 9.62793 7.65527 9.76465C7.79525 9.89811 7.86523 10.0658 7.86523 10.2676C7.86523 10.4661 7.79525 10.6338 7.65527 10.7705C7.51855 10.904 7.34766 10.9707 7.14258 10.9707C6.94076 10.9707 6.76986 10.904 6.62988 10.7705C6.49316 10.6338 6.4248 10.4661 6.4248 10.2676C6.4248 10.0658 6.49316 9.89811 6.62988 9.76465C6.76986 9.62793 6.94076 9.55957 7.14258 9.55957ZM7.33789 3.5293C7.77734 3.5293 8.15983 3.61068 8.48535 3.77344C8.81087 3.9362 9.06315 4.16243 9.24219 4.45215C9.42448 4.74186 9.51562 5.07878 9.51562 5.46289C9.51562 5.86328 9.42448 6.20345 9.24219 6.4834C9.0599 6.76009 8.81087 6.99609 8.49512 7.19141C8.29329 7.31185 8.12891 7.43066 8.00195 7.54785C7.87826 7.66504 7.78711 7.80664 7.72852 7.97266C7.66992 8.13542 7.64062 8.35352 7.64062 8.62695V8.69531H6.62988V8.62695C6.62988 8.18424 6.67057 7.84408 6.75195 7.60645C6.83659 7.36556 6.95703 7.17513 7.11328 7.03516C7.27279 6.89193 7.46159 6.75195 7.67969 6.61523C7.89453 6.48828 8.07357 6.3304 8.2168 6.1416C8.36003 5.94954 8.43164 5.72005 8.43164 5.45312C8.43164 5.24479 8.38281 5.06413 8.28516 4.91113C8.19076 4.75814 8.05892 4.63932 7.88965 4.55469C7.72363 4.47005 7.53971 4.42773 7.33789 4.42773C7.15885 4.42773 6.98633 4.46517 6.82031 4.54004C6.65755 4.61491 6.52083 4.7321 6.41016 4.8916C6.29948 5.04785 6.236 5.2513 6.21973 5.50195H5.14551C5.15853 5.07878 5.26432 4.7207 5.46289 4.42773C5.66146 4.13151 5.92513 3.90853 6.25391 3.75879C6.58268 3.60579 6.94401 3.5293 7.33789 3.5293Z" fill="var(--fill-0, currentColor)"/>
</svg>
