<svg width="16" height="16" viewBox="0 0 14.001 14.001" fill="none" xmlns="http://www.w3.org/2000/svg">
<path id="Union" d="M7 0C10.8659 0 14.0006 3.13415 14.001 7C14.001 10.8662 10.8662 14.001 7 14.001C3.13415 14.0006 0 10.8659 0 7C0.000405193 3.1344 3.1344 0.000405193 7 0ZM8.07812 10.9004C7.73451 10.9953 7.37285 11.0468 6.99902 11.0469C6.62635 11.0469 6.26556 10.9957 5.92285 10.9014L5.1709 12.7158C5.74767 12.9004 6.36201 13.0009 7 13.001C7.63819 13.001 8.2531 12.9004 8.83008 12.7158L8.07812 10.9004ZM1.66797 9.75098C2.23911 10.8562 3.14322 11.7603 4.24805 12.332L4.99902 10.5176C4.36683 10.1573 3.8415 9.63229 3.48145 9L1.66797 9.75098ZM10.5156 8.99805C10.1562 9.63005 9.63228 10.1551 9.00098 10.5156L9.75293 12.3311C10.858 11.7592 11.7618 10.8554 12.333 9.75L10.5156 8.99805ZM6.99902 3.95605C5.31705 3.95605 3.95329 5.32002 3.95312 7.00195C3.95326 8.68391 5.31704 10.0469 6.99902 10.0469C8.68081 10.0466 10.0438 8.68377 10.0439 7.00195C10.0438 5.32017 8.68079 3.95629 6.99902 3.95605ZM1.28418 5.17285C1.10012 5.74897 1.00008 6.36284 1 7C1 7.63735 1.10009 8.2518 1.28418 8.82812L3.09766 8.07715C3.00351 7.73486 2.95315 7.37417 2.95312 7.00195C2.95315 6.62891 3.00407 6.26781 3.09863 5.9248L1.28418 5.17285ZM10.8975 5.92773C10.9915 6.26998 11.0439 6.62983 11.0439 7.00195C11.0439 7.37324 10.9921 7.73269 10.8984 8.07422L12.7168 8.82715C12.9008 8.25102 13.001 7.6371 13.001 7C13.0009 6.36309 12.9008 5.74975 12.7168 5.17383L10.8975 5.92773ZM9.00098 3.48633C9.63194 3.84657 10.1551 4.37244 10.5146 5.00391L12.333 4.25098C11.7618 3.1457 10.858 2.24159 9.75293 1.66992L9.00098 3.48633ZM4.24707 1.66895C3.14281 2.24041 2.23905 3.14453 1.66797 4.24902L3.48242 5.00098C3.84258 4.36956 4.36741 3.84423 4.99902 3.48438L4.24707 1.66895ZM7 1C6.36208 1.00008 5.74761 1.10067 5.1709 1.28516L5.92285 3.10156C6.26551 3.00724 6.62641 2.95605 6.99902 2.95605C7.37246 2.95609 7.73386 3.00778 8.07715 3.10254L8.83008 1.28516C8.25316 1.10064 7.63811 1 7 1Z" fill="var(--fill-0, currentColor)"/>
</svg>
