<svg width="16" height="16" viewBox="0 0 15.3899 12.9999" fill="none" xmlns="http://www.w3.org/2000/svg">
<path id="Union" fill-rule="evenodd" clip-rule="evenodd" d="M13.3419 0.146447C13.5372 -0.0488155 13.8537 -0.0488155 14.049 0.146447C14.2352 0.332708 14.2438 0.629294 14.0747 0.825726C14.0718 0.828506 14.0689 0.831327 14.066 0.834191L2.06605 12.8342C2.05705 12.8432 2.04846 12.8525 2.04029 12.8619C1.84444 13.0487 1.53432 13.0459 1.34192 12.8535C1.14666 12.6582 1.14666 12.3417 1.34192 12.1464L3.04812 10.4402C1.75679 9.58242 0.716229 8.37742 0.0596668 6.95902C-0.0198593 6.78685 -0.0199186 6.58821 0.0596668 6.41605L0.18955 6.14847C1.57599 3.41221 4.41621 1.53519 7.69541 1.53519C8.9436 1.53525 10.1282 1.80732 11.1931 2.29523L13.3419 0.146447ZM4.93715 11.3771C5.80087 11.6769 6.7286 11.8398 7.69443 11.8399C11.0794 11.8399 13.9969 9.83965 15.3302 6.95902C15.4098 6.78685 15.4097 6.58824 15.3302 6.41605C14.7786 5.22455 13.9562 4.18365 12.9417 3.37262L12.229 4.08532C13.1196 4.77607 13.8486 5.6656 14.3497 6.68754C13.1436 9.14721 10.6167 10.8399 7.69443 10.8399C7.01657 10.8398 6.35996 10.7487 5.73618 10.5781L4.93715 11.3771ZM7.17996 9.13434C7.34629 9.16921 7.5187 9.18754 7.6954 9.18754C9.07611 9.18754 10.1954 8.06825 10.1954 6.68754C10.1954 6.51084 10.1771 6.33843 10.1422 6.1721L9.10047 7.21383C8.94868 7.61889 8.62675 7.94082 8.22169 8.09261L7.17996 9.13434ZM7.69541 2.53519C8.66178 2.53524 9.58485 2.7204 10.4312 3.05719L8.95865 4.52972C8.58796 4.31223 8.15624 4.18754 7.6954 4.18754C6.31468 4.18754 5.1954 5.30682 5.1954 6.68754C5.1954 7.14838 5.32009 7.5801 5.53758 7.9508L3.77171 9.71667C2.60168 8.98459 1.6506 7.9347 1.03916 6.68754C2.24514 4.22763 4.77297 2.53519 7.69541 2.53519ZM7.6954 5.18754C7.87625 5.18754 8.04963 5.21954 8.21017 5.2782L6.28606 7.20231C6.2274 7.04177 6.1954 6.86839 6.1954 6.68754C6.1954 5.85911 6.86697 5.18754 7.6954 5.18754Z" fill="var(--fill-0, currentColor)"/>
</svg>
