<svg width="16" height="16" viewBox="0 0 16 16" fill="none" xmlns="http://www.w3.org/2000/svg">
<g clip-path="url(#clip0_10767_89098)">
<path d="M1.16016 12.5V11.6973L4.06055 8.55078C4.38477 8.19922 4.6543 7.89062 4.86914 7.625C5.08398 7.35938 5.24609 7.10742 5.35547 6.86914C5.46484 6.62695 5.51953 6.37109 5.51953 6.10156C5.51953 5.79688 5.44727 5.5332 5.30273 5.31055C5.1582 5.08789 4.96289 4.91797 4.7168 4.80078C4.4707 4.67969 4.19141 4.61914 3.87891 4.61914C3.54688 4.61914 3.25781 4.6875 3.01172 4.82422C2.76953 4.95703 2.58203 5.14648 2.44922 5.39258C2.31641 5.63477 2.25 5.91992 2.25 6.24805H1.18359C1.18359 5.73242 1.30273 5.2793 1.54102 4.88867C1.7793 4.49805 2.10352 4.19531 2.51367 3.98047C2.92383 3.76172 3.38867 3.65234 3.9082 3.65234C4.42773 3.65234 4.88672 3.76172 5.28516 3.98047C5.6875 4.19531 6.00195 4.48633 6.22852 4.85352C6.45898 5.2207 6.57422 5.63281 6.57422 6.08984C6.57422 6.40625 6.51758 6.71484 6.4043 7.01562C6.29102 7.3125 6.0918 7.65039 5.80664 8.0293C5.52148 8.4082 5.12109 8.87109 4.60547 9.41797L2.69531 11.4512V11.5215H6.7207V12.5H1.16016ZM11.3027 12.6172C10.7324 12.6172 10.2266 12.5195 9.78516 12.3242C9.34375 12.1289 8.99219 11.8574 8.73047 11.5098C8.47266 11.1621 8.33398 10.7578 8.31445 10.2969H9.43945C9.46289 10.5742 9.55664 10.8145 9.7207 11.0176C9.88867 11.2168 10.1074 11.3711 10.377 11.4805C10.6504 11.5859 10.9531 11.6387 11.2852 11.6387C11.6523 11.6387 11.9766 11.5762 12.2578 11.4512C12.543 11.3223 12.7676 11.1426 12.9316 10.9121C13.0957 10.6816 13.1777 10.416 13.1777 10.1152C13.1777 9.79883 13.0977 9.52148 12.9375 9.2832C12.7812 9.04102 12.5527 8.85156 12.252 8.71484C11.9512 8.57812 11.584 8.50977 11.1504 8.50977H10.4414V7.54297H11.1504C11.4902 7.54297 11.7891 7.48242 12.0469 7.36133C12.3086 7.23633 12.5117 7.0625 12.6562 6.83984C12.8008 6.61719 12.873 6.35547 12.873 6.05469C12.873 5.76562 12.8086 5.51367 12.6797 5.29883C12.5547 5.08398 12.375 4.91797 12.1406 4.80078C11.9062 4.67969 11.6309 4.61914 11.3145 4.61914C11.0176 4.61914 10.7383 4.67383 10.4766 4.7832C10.2188 4.88867 10.0059 5.04102 9.83789 5.24023C9.67383 5.43945 9.58594 5.68164 9.57422 5.9668H8.50195C8.51758 5.50977 8.6543 5.10742 8.91211 4.75977C9.16992 4.41211 9.50977 4.14062 9.93164 3.94531C10.3574 3.75 10.8262 3.65234 11.3379 3.65234C11.8809 3.65234 12.3477 3.76172 12.7383 3.98047C13.1328 4.19922 13.4355 4.48633 13.6465 4.8418C13.8574 5.19727 13.9629 5.58203 13.9629 5.99609C13.9629 6.48828 13.832 6.90625 13.5703 7.25C13.3125 7.59375 12.9609 7.83203 12.5156 7.96484V8.03516C12.8867 8.09375 13.2031 8.21875 13.4648 8.41016C13.7305 8.60156 13.9316 8.84375 14.0684 9.13672C14.209 9.42969 14.2793 9.75977 14.2793 10.127C14.2793 10.6035 14.1504 11.0293 13.8926 11.4043C13.6348 11.7793 13.2812 12.0762 12.832 12.2949C12.3828 12.5098 11.873 12.6172 11.3027 12.6172Z" fill="currentColor"/>
</g>
<defs>
<clipPath id="clip0_10767_89098">
<rect width="16" height="16" fill="white"/>
</clipPath>
</defs>
</svg>
