<svg width="16" height="16" viewBox="0 0 11 12" fill="none" xmlns="http://www.w3.org/2000/svg">
<path id="Union" fill-rule="evenodd" clip-rule="evenodd" d="M3 2V10C3 10.5523 2.55228 11 2 11C1.44772 11 1 10.5523 1 10V2L1.00488 1.89746C1.05621 1.39333 1.48232 1 2 1C2.55228 1 3 1.44772 3 2ZM0.0107422 10.2041C0.113005 11.2128 0.964349 12 2 12C3.03565 12 3.887 11.2128 3.98926 10.2041L4 10V2C4 0.895431 3.10457 0 2 0C0.895431 0 0 0.895431 0 2V10L0.0107422 10.2041ZM10 2V10C10 10.5523 9.55228 11 9 11C8.44772 11 8 10.5523 8 10V2L8.00488 1.89746C8.05621 1.39333 8.48232 1 9 1C9.55228 1 10 1.44772 10 2ZM7.01074 10.2041C7.113 11.2128 7.96435 12 9 12C10.0357 12 10.887 11.2128 10.9893 10.2041L11 10V2C11 0.895431 10.1046 0 9 0C7.89543 0 7 0.895431 7 2V10L7.01074 10.2041Z" fill="var(--fill-0, currentColor)"/>
</svg>
