<svg width="16" height="16" viewBox="0 0 12 13.1719" fill="none" xmlns="http://www.w3.org/2000/svg">
<path id="Union" d="M8.5 0C8.77614 0 9 0.223858 9 0.5V1.5H11.5C11.7761 1.5 12 1.72386 12 2V12C12 12.2761 11.7761 12.5 11.5 12.5H10.25V13.1719H9.25V12.5H2.75V13.1719H1.75V12.5H0.5C0.223858 12.5 0 12.2761 0 12V2C0 1.72386 0.223858 1.5 0.5 1.5H3V0.5C3 0.223858 3.22386 0 3.5 0H8.5ZM1 11.5H11V2.5H1V11.5ZM4.5 10H3.5V4H4.5V10ZM8.5 10H7.5V4H8.5V10ZM4 1.5H8V1H4V1.5Z" fill="var(--fill-0, currentColor)"/>
</svg>
