<svg width="16" height="16" viewBox="0 0 16 16" fill="none" xmlns="http://www.w3.org/2000/svg">
<g id="icon/line/holiday">
<path id="Union" d="M7.05067 1.47162C7.94174 1.35431 8.84758 1.41381 9.71571 1.64642C10.5836 1.87902 11.3974 2.28014 12.1102 2.82709C12.8233 3.37422 13.4226 4.05654 13.872 4.8349C14.3213 5.61324 14.6121 6.47314 14.7294 7.3642C14.8466 8.2551 14.7871 9.16028 14.5546 10.0283L14.4325 10.4843L8.27138 8.83392L7.07704 13.0976L7.07313 13.1074L7.0702 13.1171C6.70421 14.2289 5.79215 14.7264 4.92372 14.5536C4.06816 14.3832 3.40464 13.5866 3.48134 12.4785L3.95204 12.5117L4.42372 12.5439C4.37767 13.2096 4.74868 13.5552 5.10829 13.6269C5.45367 13.6955 5.93517 13.5361 6.17079 12.83L7.36024 8.58978L1.21181 6.94134L1.33388 6.48627C1.56649 5.61813 1.96741 4.8038 2.51454 4.09076C3.06156 3.37794 3.74327 2.77932 4.52138 2.33002C5.29974 1.88063 6.15959 1.58893 7.05067 1.47162ZM10.5565 2.96576C10.688 3.28158 10.8248 3.65502 10.9374 4.07318C11.2611 5.27506 11.4074 6.8707 10.7606 8.52338L13.746 9.32318C13.8571 8.71831 13.8744 8.0989 13.7938 7.48724C13.6927 6.71916 13.4409 5.97849 13.0536 5.30756C12.6662 4.63659 12.1507 4.04777 11.536 3.57611C11.2295 3.34094 10.9013 3.13599 10.5565 2.96576ZM9.31923 2.83197C9.0096 3.04721 8.59149 3.3717 8.16298 3.80756C7.37006 4.61422 6.55799 5.78342 6.30165 7.32904L9.84462 8.27826C10.4407 6.83464 10.3218 5.41931 10.0253 4.3183C9.86536 3.72463 9.65658 3.22973 9.4872 2.8847C9.46598 2.8415 9.4444 2.80093 9.4247 2.76263C9.39176 2.7847 9.35536 2.80685 9.31923 2.83197ZM8.35731 2.37201C7.9636 2.34436 7.56691 2.35541 7.17372 2.40716C6.40568 2.50831 5.66493 2.76009 4.99403 3.1474C4.32303 3.53481 3.73426 4.05125 3.26259 4.66595C2.8871 5.15541 2.59276 5.70083 2.38661 6.28021L5.38759 7.08392C5.7009 5.33655 6.62241 4.02828 7.48915 3.14642C7.79206 2.83828 8.09144 2.58126 8.35731 2.37201Z" fill="var(--fill-0, currentColor)"/>
</g>
</svg>
