<svg width="16" height="16" viewBox="0 0 16 16" fill="none" xmlns="http://www.w3.org/2000/svg">
<path d="M6.64355 2.07178C7.40959 1.36495 8.59041 1.36495 9.35645 2.07178L14.1953 6.53955C14.7079 7.01281 15 7.6788 15 8.37646V12.5005C14.9998 13.881 13.8806 15.0005 12.5 15.0005H3.5C2.1194 15.0005 1.00019 13.881 1 12.5005V8.37646C1 7.6788 1.29209 7.01281 1.80469 6.53955L6.64355 2.07178ZM8.67871 2.80713C8.29565 2.45353 7.70435 2.45353 7.32129 2.80713L2.48242 7.27393C2.17495 7.55787 2 7.95793 2 8.37646V12.5005C2.00019 13.3288 2.67169 14.0005 3.5 14.0005H5V11.2505C5 9.59363 6.34315 8.25049 8 8.25049C9.65685 8.25049 11 9.59363 11 11.2505V14.0005H12.5C13.3283 14.0005 13.9998 13.3288 14 12.5005V8.37646C14 7.95793 13.825 7.55787 13.5176 7.27393L8.67871 2.80713ZM8 9.25049C6.89543 9.25049 6 10.1459 6 11.2505V14.0005H10V11.2505C10 10.1459 9.10457 9.25049 8 9.25049Z" fill="currentColor"/>
</svg>
