<svg width="16" height="16" viewBox="0 0 14 13.4588" fill="none" xmlns="http://www.w3.org/2000/svg">
<path id="Union" d="M5.64355 0.530122C6.40959 -0.176707 7.59041 -0.176708 8.35645 0.530122L13.1953 4.9979C13.7079 5.47115 14 6.13714 14 6.83481V10.9588C13.9998 12.3394 12.8806 13.4588 11.5 13.4588H2.5C1.1194 13.4588 0.000187065 12.3394 0 10.9588V6.83481C0 6.13714 0.292089 5.47115 0.804688 4.9979L5.64355 0.530122ZM7.67871 1.26547C7.29565 0.911878 6.70435 0.911878 6.32129 1.26547L1.48242 5.73227C1.17495 6.01622 1 6.41627 1 6.83481V10.9588C1.00019 11.7871 1.67169 12.4588 2.5 12.4588H4V9.70883C4 8.05198 5.34315 6.70883 7 6.70883C8.65685 6.70883 10 8.05198 10 9.70883V12.4588H11.5C12.3283 12.4588 12.9998 11.7871 13 10.9588V6.83481C13 6.41627 12.825 6.01622 12.5176 5.73227L7.67871 1.26547ZM7 7.70883C5.89543 7.70883 5 8.60426 5 9.70883V12.4588H9V9.70883C9 8.60426 8.10457 7.70883 7 7.70883Z" fill="var(--fill-0, currentColor)"/>
</svg>
