<svg width="16" height="16" viewBox="0 0 14 13.0002" fill="none" xmlns="http://www.w3.org/2000/svg">
<path id="Union" fill-rule="evenodd" clip-rule="evenodd" d="M12 7H2L1.7959 6.98926C0.854346 6.8938 0.1062 6.14565 0.0107422 5.2041L0 5V2C0 0.895431 0.895431 0 2 0H12C13.1046 0 14 0.895431 14 2V5C14 6.03565 13.2128 6.887 12.2041 6.98926L12 7ZM2 6H12C12.5523 6 13 5.55228 13 5V2C13 1.44772 12.5523 1 12 1H2C1.48232 1 1.05621 1.39333 1.00488 1.89746L1 2V5C1 5.55228 1.44772 6 2 6ZM13 9L13.1006 9.00977C13.3286 9.05629 13.5 9.25829 13.5 9.5C13.5 9.74171 13.3286 9.94371 13.1006 9.99023L13 10H1C0.723858 10 0.5 9.77614 0.5 9.5C0.5 9.22386 0.723858 9 1 9H13ZM13.1006 12.01L13 12.0002H1C0.723858 12.0002 0.5 12.2241 0.5 12.5002C0.5 12.7763 0.723858 13.0002 1 13.0002H13L13.1006 12.9904C13.3286 12.9439 13.5 12.7419 13.5 12.5002C13.5 12.2585 13.3286 12.0565 13.1006 12.01Z" fill="var(--fill-0, currentColor)"/>
</svg>
