<svg width="16" height="16" viewBox="0 0 16 16" fill="none" xmlns="http://www.w3.org/2000/svg">
<g id="icon/line/horizontal-split">
<path id="Union" d="M13 1.5C14.1046 1.5 15 2.39543 15 3.5V12.5C15 13.5357 14.2128 14.387 13.2041 14.4893L13 14.5H11L10.7959 14.4893C9.85435 14.3938 9.1062 13.6457 9.01074 12.7041L9 12.5V3.5C9 2.39543 9.89543 1.5 11 1.5H13ZM7.5 13.2344C7.77613 13.2344 7.99998 13.4583 8 13.7344C8 14.0105 7.77614 14.2344 7.5 14.2344H1.5C1.22386 14.2344 1 14.0105 1 13.7344C1.00002 13.4583 1.22387 13.2344 1.5 13.2344H7.5ZM11 2.5C10.4477 2.5 10 2.94772 10 3.5V12.5C10 13.0523 10.4477 13.5 11 13.5H13C13.5523 13.5 14 13.0523 14 12.5V3.5C14 2.94772 13.5523 2.5 13 2.5H11ZM7.60059 10.377C7.82854 10.4235 8 10.6255 8 10.8672C7.99994 11.1088 7.82851 11.3109 7.60059 11.3574L7.5 11.3672H1.5C1.2239 11.3672 1.00007 11.1433 1 10.8672C1 10.591 1.22386 10.3672 1.5 10.3672H7.5L7.60059 10.377ZM7.60059 7.50977C7.82854 7.55629 7.99998 7.7583 8 8C8 8.24171 7.82855 8.4437 7.60059 8.49023L7.5 8.5H1.5C1.22386 8.5 1 8.27614 1 8C1.00002 7.72388 1.22387 7.5 1.5 7.5H7.5L7.60059 7.50977ZM7.60059 4.64258C7.82854 4.6891 7.99998 4.89112 8 5.13281C8 5.37452 7.82855 5.57652 7.60059 5.62305L7.5 5.63281H1.5C1.22386 5.63281 1 5.40895 1 5.13281C1.00002 4.85669 1.22387 4.63281 1.5 4.63281H7.5L7.60059 4.64258ZM7.60059 1.77539C7.82855 1.82192 8 2.02391 8 2.26562C8 2.50734 7.82855 2.70933 7.60059 2.75586L7.5 2.76562H1.5C1.22386 2.76562 1 2.54177 1 2.26562C1 1.98948 1.22386 1.76562 1.5 1.76562H7.5L7.60059 1.77539Z" fill="var(--fill-0, currentColor)"/>
</g>
</svg>
