<svg width="16" height="16" viewBox="0 0 16 16" fill="none" xmlns="http://www.w3.org/2000/svg">
<path fill-rule="evenodd" clip-rule="evenodd" d="M13 2.5H3C2.44772 2.5 2 2.94772 2 3.5V6.5C2 7.05228 2.44772 7.5 3 7.5H13C13.5523 7.5 14 7.05228 14 6.5V3.5C14 2.94772 13.5523 2.5 13 2.5ZM3 1.5C1.89543 1.5 1 2.39543 1 3.5V6.5C1 7.60457 1.89543 8.5 3 8.5H13C14.1046 8.5 15 7.60457 15 6.5V3.5C15 2.39543 14.1046 1.5 13 1.5H3ZM1.5 11C1.5 10.7239 1.72386 10.5 2 10.5H14C14.2761 10.5 14.5 10.7239 14.5 11C14.5 11.2761 14.2761 11.5 14 11.5H2C1.72386 11.5 1.5 11.2761 1.5 11ZM2 13.5002C1.72386 13.5002 1.5 13.7241 1.5 14.0002C1.5 14.2763 1.72386 14.5002 2 14.5002H14C14.2761 14.5002 14.5 14.2763 14.5 14.0002C14.5 13.7241 14.2761 13.5002 14 13.5002H2Z" fill="currentColor"/>
</svg>
