<svg width="16" height="16" viewBox="0 0 10.9346 14" fill="none" xmlns="http://www.w3.org/2000/svg">
<path id="Union" d="M10.4678 0C10.7253 0.000264029 10.9346 0.209227 10.9346 0.466797C10.9346 0.724367 10.7253 0.93333 10.4678 0.933594H9.76465V3.39551C9.76453 4.69902 9.04819 5.71234 8.38867 6.37207C8.1333 6.62748 7.87799 6.83766 7.66113 7C7.87799 7.16234 8.1333 7.37252 8.38867 7.62793C9.04816 8.28764 9.76448 9.30104 9.76465 10.6045V13.0664H10.4678C10.7253 13.0667 10.9346 13.2756 10.9346 13.5332C10.9346 13.7908 10.7253 13.9997 10.4678 14H0.467773C0.210041 14 0 13.7909 0 13.5332C0 13.2755 0.210041 13.0664 0.467773 13.0664H1.1709V10.6045C1.17107 9.30077 1.88727 8.28763 2.54688 7.62793C2.80217 7.37262 3.05664 7.1623 3.27344 7C3.0567 6.83774 2.80208 6.62728 2.54688 6.37207C1.88728 5.71235 1.17102 4.69921 1.1709 3.39551V0.933594H0.467773C0.210041 0.933594 0 0.72453 0 0.466797C0 0.209064 0.210041 0 0.467773 0H10.4678ZM2.10449 0.933594V3.39551C2.10461 4.34406 2.6277 5.13348 3.20703 5.71289C3.49243 5.99824 3.77934 6.22066 3.99512 6.37109C4.10255 6.44597 4.19233 6.50206 4.25293 6.53906C4.283 6.55742 4.30648 6.57155 4.32129 6.58008C4.32837 6.58415 4.33387 6.58716 4.33691 6.58887L4.33984 6.59082L5.08984 7L4.33984 7.41016L4.33887 7.40918C4.33837 7.40945 4.33779 7.41054 4.33691 7.41113C4.33388 7.41283 4.32841 7.41583 4.32129 7.41992C4.30648 7.42845 4.283 7.44258 4.25293 7.46094C4.19231 7.49795 4.1026 7.55496 3.99512 7.62988C3.77927 7.78039 3.49243 8.00267 3.20703 8.28809C2.62774 8.86746 2.10466 9.65602 2.10449 10.6045V13.0664H8.83105V10.6045C8.83089 9.65625 8.30763 8.86742 7.72852 8.28809C7.44303 8.00256 7.15535 7.78042 6.93945 7.62988C6.83208 7.55503 6.74327 7.49798 6.68262 7.46094C6.65254 7.44257 6.62915 7.42851 6.61426 7.41992C6.60729 7.41591 6.6018 7.4129 6.59863 7.41113L6.59668 7.40918L5.84473 7L6.5957 6.59082L6.59863 6.58887C6.60181 6.58709 6.60724 6.58412 6.61426 6.58008C6.62915 6.57149 6.65246 6.55747 6.68262 6.53906C6.74322 6.50206 6.83219 6.44586 6.93945 6.37109C7.15533 6.22058 7.44299 5.99843 7.72852 5.71289C8.3078 5.13349 8.83093 4.344 8.83105 3.39551V0.933594H2.10449Z" fill="var(--fill-0, currentColor)"/>
</svg>
