<svg width="16" height="16" viewBox="0 0 16 16" fill="none" xmlns="http://www.w3.org/2000/svg">
<path d="M13.0005 1C13.258 1.00026 13.4673 1.20923 13.4673 1.4668C13.4673 1.72437 13.258 1.93333 13.0005 1.93359H12.2974V4.39551C12.2972 5.69902 11.5809 6.71234 10.9214 7.37207C10.666 7.62748 10.4107 7.83766 10.1938 8C10.4107 8.16234 10.666 8.37252 10.9214 8.62793C11.5809 9.28764 12.2972 10.301 12.2974 11.6045V14.0664H13.0005C13.258 14.0667 13.4673 14.2756 13.4673 14.5332C13.4673 14.7908 13.258 14.9997 13.0005 15H3.00049C2.74276 15 2.53369 14.7909 2.53369 14.5332C2.53369 14.2755 2.74276 14.0664 3.00049 14.0664H3.70361V11.6045C3.70378 10.3008 4.41998 9.28763 5.07959 8.62793C5.33488 8.37262 5.58936 8.1623 5.80615 8C5.58942 7.83774 5.33479 7.62728 5.07959 7.37207C4.42 6.71235 3.70373 5.69921 3.70361 4.39551V1.93359H3.00049C2.74276 1.93359 2.53369 1.72453 2.53369 1.4668C2.53369 1.20906 2.74276 1 3.00049 1H13.0005ZM4.63721 1.93359V4.39551C4.63733 5.34406 5.16042 6.13348 5.73975 6.71289C6.02514 6.99824 6.31206 7.22066 6.52783 7.37109C6.63526 7.44597 6.72504 7.50206 6.78564 7.53906C6.81572 7.55742 6.83919 7.57155 6.854 7.58008C6.86109 7.58415 6.86659 7.58716 6.86963 7.58887L6.87256 7.59082L7.62256 8L6.87256 8.41016L6.87158 8.40918C6.87109 8.40945 6.87051 8.41054 6.86963 8.41113C6.86659 8.41284 6.86112 8.41583 6.854 8.41992C6.83919 8.42845 6.81572 8.44258 6.78564 8.46094C6.72502 8.49795 6.63531 8.55496 6.52783 8.62988C6.31198 8.78039 6.02514 9.00267 5.73975 9.28809C5.16046 9.86746 4.63738 10.656 4.63721 11.6045V14.0664H11.3638V11.6045C11.3636 10.6562 10.8404 9.86742 10.2612 9.28809C9.97574 9.00256 9.68806 8.78042 9.47217 8.62988C9.36479 8.55503 9.27598 8.49798 9.21533 8.46094C9.18526 8.44257 9.16187 8.42851 9.14697 8.41992C9.14001 8.41591 9.13451 8.4129 9.13135 8.41113L9.12939 8.40918L8.37744 8L9.12842 7.59082L9.13135 7.58887C9.13453 7.58709 9.13995 7.58412 9.14697 7.58008C9.16187 7.57149 9.18518 7.55747 9.21533 7.53906C9.27593 7.50206 9.36491 7.44586 9.47217 7.37109C9.68805 7.22058 9.97571 6.99843 10.2612 6.71289C10.8405 6.13349 11.3636 5.344 11.3638 4.39551V1.93359H4.63721Z" fill="currentColor"/>
</svg>
