<svg width="16" height="16" viewBox="0 0 8.99992 10.9999" fill="none" xmlns="http://www.w3.org/2000/svg">
<path id="Union" d="M4.14645 6.14645C4.34171 5.95118 4.65822 5.95118 4.85348 6.14645L8.85348 10.1464C9.04874 10.3417 9.04874 10.6582 8.85348 10.8535C8.65822 11.0487 8.34171 11.0487 8.14645 10.8535L4.49996 7.20699L0.853478 10.8535C0.658216 11.0487 0.341709 11.0487 0.146447 10.8535C-0.0488153 10.6582 -0.048815 10.3417 0.146447 10.1464L4.14645 6.14645ZM8.14645 0.146447C8.34171 -0.0488153 8.65822 -0.0488153 8.85348 0.146447C9.04874 0.341709 9.04874 0.658216 8.85348 0.853478L4.85348 4.85348C4.75971 4.94725 4.63257 4.99996 4.49996 4.99996C4.36735 4.99996 4.24021 4.94725 4.14645 4.85348L0.146447 0.853478C-0.0488155 0.658216 -0.0488155 0.341709 0.146447 0.146447C0.341709 -0.0488155 0.658216 -0.0488155 0.853478 0.146447L4.49996 3.79293L8.14645 0.146447Z" fill="var(--fill-0, currentColor)"/>
</svg>
