<svg width="16" height="16" viewBox="0 0 8.99992 10.9999" fill="none" xmlns="http://www.w3.org/2000/svg">
<path id="Union" fill-rule="evenodd" clip-rule="evenodd" d="M8.85348 0.146447C8.65822 -0.0488152 8.34171 -0.0488152 8.14645 0.146447L4.49996 3.79293L0.853478 0.146447C0.658216 -0.0488155 0.341709 -0.0488155 0.146447 0.146447C-0.0488155 0.341709 -0.0488155 0.658216 0.146447 0.853478L4.14645 4.85348C4.34171 5.04874 4.65822 5.04874 4.85348 4.85348L8.85348 0.853478C9.04874 0.658216 9.04874 0.341709 8.85348 0.146447ZM0.146447 10.8535C0.341709 11.0487 0.658216 11.0487 0.853478 10.8535L4.49996 7.20699L8.14645 10.8535C8.34171 11.0487 8.65822 11.0487 8.85348 10.8535C9.04874 10.6582 9.04874 10.3417 8.85348 10.1464L4.85348 6.14645C4.65822 5.95118 4.34171 5.95118 4.14645 6.14645L0.146447 10.1464C-0.0488155 10.3417 -0.0488156 10.6582 0.146447 10.8535Z" fill="var(--fill-0, currentColor)"/>
</svg>
