<svg width="16" height="16" viewBox="0 0 14 14" fill="none" xmlns="http://www.w3.org/2000/svg">
<path id="Union" d="M10.9063 0.00390637C11.143 0.00766159 11.3545 0.0148717 11.543 0.0302736C11.9257 0.0615709 12.2595 0.127336 12.5674 0.28418C13.0587 0.534498 13.4577 0.934517 13.708 1.42578C13.8649 1.73374 13.9316 2.06736 13.9629 2.4502C13.9937 2.82731 13.9932 3.29501 13.9932 3.87793V9.2666L14 10.2148V10.2178L13.998 10.5947C13.9982 10.6002 14 10.6058 14 10.6113C14 11.2506 14.0043 11.6684 13.9092 12.0234C13.877 12.1434 13.8357 12.2595 13.7881 12.3721C13.7868 12.3752 13.7865 12.3787 13.7852 12.3818C13.7832 12.3864 13.7803 12.3909 13.7783 12.3955C13.7488 12.4634 13.7154 12.529 13.6807 12.5938C13.6764 12.6017 13.6733 12.6103 13.6689 12.6182C13.5917 12.7585 13.5016 12.8903 13.4014 13.0137C13.3916 13.0257 13.3821 13.0379 13.3721 13.0498C13.274 13.1663 13.1663 13.274 13.0498 13.3721C13.0379 13.3821 13.0257 13.3916 13.0137 13.4014C12.8927 13.4997 12.7634 13.5879 12.626 13.6641C12.6154 13.6699 12.6044 13.6749 12.5938 13.6807C12.5317 13.714 12.4683 13.745 12.4033 13.7734C12.396 13.7767 12.3892 13.782 12.3818 13.7852C12.3787 13.7865 12.3752 13.7868 12.3721 13.7881C12.2595 13.8357 12.1434 13.877 12.0234 13.9092C11.6684 14.0043 11.2506 14 10.6113 14H3.43848C3.25437 14 3.08548 13.9979 2.94434 13.9902C2.78508 13.9856 2.63831 13.9798 2.50293 13.9688C2.11071 13.9367 1.77003 13.869 1.45605 13.709C0.954389 13.4533 0.546661 13.0456 0.291016 12.5439C0.131039 12.23 0.0632955 11.8893 0.0312501 11.4971C-0.00031543 11.1107 1.21241e-07 10.6317 1.21241e-07 10.0332V3.9668C1.21031e-07 3.36834 -0.000315403 2.8893 0.0312501 2.50293C0.0632955 2.11071 0.131039 1.77003 0.291016 1.45605C0.546661 0.954388 0.954388 0.546661 1.45605 0.291016C1.77003 0.131039 2.11071 0.0632955 2.50293 0.0312501C2.8893 -0.000315419 3.36834 1.21189e-07 3.9668 1.2123e-07H10.1152L10.9063 0.00390637ZM9.85059 7.01563L9.84766 7.0166C9.8458 7.01746 9.84208 7.01849 9.83691 7.02148C9.8253 7.02823 9.80623 7.04118 9.77637 7.06445C9.71166 7.11491 9.63083 7.18806 9.49609 7.31055L3.38672 12.8643C3.3325 12.9135 3.28442 12.9573 3.24219 12.9961C3.45206 12.9987 3.691 13 3.9668 13H10.2178C10.7444 13 11.1141 12.9998 11.4033 12.9795C11.6355 12.9632 11.7904 12.9328 11.9111 12.8926C12.0141 12.8544 12.112 12.8076 12.2041 12.751C12.2449 12.7259 12.2849 12.7002 12.3232 12.6719C12.3367 12.6619 12.3501 12.652 12.3633 12.6416C12.4151 12.6008 12.4652 12.5582 12.5117 12.5117C12.5701 12.4534 12.6227 12.3897 12.6719 12.3232C12.7002 12.2849 12.7259 12.2449 12.751 12.2041C12.8121 12.1046 12.8628 11.9988 12.9023 11.8867C12.9383 11.7696 12.9643 11.6198 12.9795 11.4033C12.9997 11.1147 13 10.7464 13 10.2217L12.9941 9.43945L12.3662 8.90039L10.3467 7.28418C10.2043 7.17024 10.1186 7.10198 10.0508 7.05566C10.0195 7.03432 9.99933 7.02358 9.9873 7.01758C9.98162 7.01474 9.9784 7.01242 9.97656 7.01172H9.97363C9.93299 7.00135 9.89049 7.00272 9.85059 7.01563ZM3.9668 1C3.35182 1 2.9202 1.00085 2.58398 1.02832C2.25392 1.05531 2.05959 1.10553 1.91016 1.18164C1.59655 1.34143 1.34143 1.59655 1.18164 1.91016C1.10553 2.05959 1.05531 2.25392 1.02832 2.58398C1.00085 2.9202 1 3.35182 1 3.9668V10.0332C1 10.6482 1.00085 11.0798 1.02832 11.416C1.05531 11.7461 1.10553 11.9404 1.18164 12.0898C1.34143 12.4034 1.59655 12.6586 1.91016 12.8184C1.95546 12.8414 2.00544 12.8605 2.06152 12.8789C2.1198 12.7196 2.22492 12.5992 2.29492 12.5234C2.40105 12.4086 2.54952 12.2744 2.71387 12.125L8.82324 6.57129C8.94715 6.45865 9.06047 6.35461 9.16211 6.27539C9.26857 6.19243 9.39026 6.11347 9.54102 6.06445C9.76142 5.99287 9.99818 5.98542 10.2227 6.04297C10.3762 6.0824 10.5028 6.15339 10.6143 6.22949C10.7206 6.30209 10.8401 6.39841 10.9707 6.50293L12.9912 8.11914L12.9932 8.12012V3.87793C12.9932 3.27869 12.9925 2.85913 12.9658 2.53223C12.9396 2.21122 12.8905 2.02343 12.8174 1.87988C12.6629 1.57674 12.4164 1.33024 12.1133 1.17578C11.9697 1.10263 11.782 1.05358 11.4609 1.02734C11.2976 1.014 11.1111 1.00734 10.8906 1.00391L10.1152 1H3.9668ZM4.47266 2.52734C5.54634 2.52758 6.41699 3.39891 6.41699 4.47266C6.41676 5.5462 5.5462 6.41676 4.47266 6.41699C3.39891 6.41699 2.52758 5.54634 2.52734 4.47266C2.52734 3.39877 3.39877 2.52734 4.47266 2.52734ZM4.47266 3.52734C3.95105 3.52734 3.52734 3.95105 3.52734 4.47266C3.52758 4.99406 3.9512 5.41699 4.47266 5.41699C4.99391 5.41676 5.41676 4.99391 5.41699 4.47266C5.41699 3.9512 4.99406 3.52758 4.47266 3.52734Z" fill="var(--fill-0, currentColor)"/>
</svg>
