<svg width="16" height="16" viewBox="0 0 14.7194 14.3777" fill="none" xmlns="http://www.w3.org/2000/svg">
<path id="Union" d="M6.25702 0.00540507L6.45917 0.0307957L13.0666 1.19486C14.1544 1.38668 14.8805 2.42447 14.6887 3.51224L13.1916 12.0035L13.1467 12.2027C12.8891 13.1133 12.0211 13.7205 11.0773 13.6509L10.8742 13.6255L8.97284 13.2896L4.34003 14.3179C2.99217 14.6167 1.65759 13.7663 1.35858 12.4185L0.0597527 6.56009C-0.238928 5.2122 0.611274 3.87748 1.95917 3.57865L3.87811 3.15287L4.14276 1.65287C4.3226 0.63295 5.24591 -0.0690405 6.25702 0.00540507ZM2.17596 4.55521C1.36717 4.73451 0.856034 5.53548 1.03534 6.34427L2.33417 12.2017C2.51345 13.0104 3.31453 13.5205 4.12323 13.3413L6.40057 12.8365L4.26776 12.4605L4.06854 12.4146C3.15795 12.1571 2.55096 11.2899 2.6203 10.3462L2.64569 10.1441L3.68964 4.2183L2.17596 4.55521ZM4.32733 7.77494C4.23107 7.78397 4.14559 7.79838 4.07147 7.81302L3.63007 10.3169C3.53434 10.8607 3.89779 11.3802 4.44159 11.4761L11.048 12.6411C11.5918 12.737 12.1112 12.3734 12.2072 11.8296L12.5226 10.0396C12.5174 10.0372 12.5113 10.0364 12.506 10.0337C10.7747 9.16299 9.47174 9.06568 8.53632 9.24759C7.59689 9.43035 6.97298 9.90502 6.62421 10.2701C6.43346 10.4692 6.11769 10.4761 5.91815 10.2857C5.7187 10.0949 5.71088 9.77825 5.90155 9.57865C6.18498 9.28201 6.6003 8.93782 7.15741 8.66361C6.74354 8.20344 6.08259 7.9294 5.38495 7.81693C4.99781 7.75459 4.62594 7.74695 4.32733 7.77494ZM6.28534 1.01517C5.74159 0.919515 5.22302 1.28293 5.12714 1.82669L4.25409 6.77689C4.63549 6.74298 5.08421 6.75651 5.54413 6.8306C6.46073 6.97837 7.53409 7.39197 8.14569 8.30814C8.211 8.2926 8.27806 8.27836 8.34589 8.26517C9.48354 8.04403 10.928 8.17676 12.7023 9.01712L13.7043 3.33841C13.8001 2.7946 13.4366 2.2761 12.8928 2.18021L6.28534 1.01517ZM10.1984 2.51908C11.1649 2.51908 11.9484 3.30258 11.9484 4.26908C11.9482 5.23538 11.1648 6.01908 10.1984 6.01908C9.23217 6.01896 8.44865 5.23531 8.44842 4.26908C8.44842 3.30265 9.23203 2.51919 10.1984 2.51908ZM10.1984 3.51908C9.78431 3.5192 9.44842 3.85494 9.44842 4.26908C9.44865 4.68302 9.78445 5.01896 10.1984 5.01908C10.6125 5.01908 10.9482 4.68309 10.9484 4.26908C10.9484 3.85486 10.6126 3.51908 10.1984 3.51908Z" fill="var(--fill-0, currentColor)"/>
</svg>
