<svg width="16" height="16" viewBox="0 0 14 14" fill="none" xmlns="http://www.w3.org/2000/svg">
<path id="Union" d="M7 0.68457C7.27614 0.68457 7.5 0.908428 7.5 1.18457C7.49981 1.46055 7.27602 1.68457 7 1.68457H3.78418C3.20116 1.68457 2.79375 1.68502 2.47656 1.71094C2.16535 1.73638 1.98493 1.78357 1.84766 1.85352C1.55556 2.00238 1.31778 2.24012 1.16895 2.53223C1.09908 2.66949 1.05179 2.85002 1.02637 3.16113C1.00047 3.47831 1 3.8858 1 4.46875V10.2158L1.00391 10.9688C1.00724 11.1833 1.0134 11.3647 1.02637 11.5234C1.05181 11.8346 1.09901 12.0151 1.16895 12.1523C1.3178 12.4445 1.55551 12.6822 1.84766 12.8311C1.8832 12.8492 1.92201 12.8648 1.96485 12.8799C2.02321 12.7353 2.11751 12.626 2.18067 12.5576C2.28223 12.4477 2.42457 12.3191 2.58008 12.1777L8.36719 6.91602C8.48425 6.8096 8.59222 6.71056 8.68945 6.63477C8.79167 6.5551 8.9105 6.47845 9.05762 6.43066C9.27101 6.36141 9.49947 6.35449 9.7168 6.41016C9.86663 6.44857 9.98965 6.51776 10.0967 6.59082C10.1985 6.66034 10.313 6.75174 10.4365 6.85059L12.3506 8.38184C12.5906 8.57382 12.7751 8.71773 12.917 8.89844C13.0848 9.11225 13.2044 9.3604 13.2666 9.625C13.3191 9.84879 13.3154 10.0832 13.3154 10.3906C13.3154 10.517 13.3138 10.6372 13.3135 10.751C13.3136 10.7549 13.3154 10.7588 13.3154 10.7627C13.3154 11.3668 13.3198 11.7678 13.2285 12.1084C13.1983 12.2209 13.1596 12.3298 13.1152 12.4355C13.1131 12.4406 13.1125 12.4462 13.1104 12.4512C13.1038 12.4665 13.0947 12.4809 13.0879 12.4961C13.0678 12.5407 13.047 12.5848 13.0244 12.6279C13.0124 12.651 13 12.6737 12.9873 12.6963C12.9616 12.7421 12.9347 12.7871 12.9063 12.8311C12.8918 12.8534 12.8774 12.8756 12.8623 12.8975C12.8242 12.9526 12.7835 13.0057 12.7412 13.0576C12.7343 13.0661 12.7277 13.0747 12.7207 13.083C12.629 13.1928 12.5287 13.2948 12.4199 13.3877C12.3999 13.4048 12.379 13.421 12.3584 13.4375C12.2491 13.5251 12.1328 13.6039 12.0098 13.6729C11.9924 13.6826 11.9747 13.6918 11.957 13.7012C11.9034 13.7296 11.8489 13.7566 11.793 13.7812C11.7843 13.7851 11.7763 13.7902 11.7676 13.7939C11.7646 13.7952 11.7608 13.7956 11.7578 13.7969C11.65 13.8425 11.5388 13.8823 11.4238 13.9131C11.0832 14.0043 10.6831 14 10.0791 14H3.28418C3.10215 14 2.93443 13.9986 2.7959 13.9902C2.65199 13.9858 2.51878 13.9808 2.39551 13.9707C2.02231 13.9402 1.69533 13.8754 1.39356 13.7217C0.913411 13.477 0.523023 13.0866 0.278322 12.6064C0.12456 12.3047 0.0597901 11.9777 0.0292984 11.6045C0.0143116 11.421 0.00756346 11.2156 0.00390775 10.9854L1.49664e-06 10.2158V4.46875C1.49664e-06 3.90221 -0.000716438 3.44647 0.0292984 3.0791C0.0598009 2.70611 0.124646 2.37977 0.278322 2.07812C0.522991 1.59793 0.913409 1.20763 1.39356 0.962891C1.69533 0.809129 2.02231 0.744359 2.39551 0.713867C2.76284 0.683867 3.21775 0.68457 3.78418 0.68457H7ZM9.36621 7.38184C9.36077 7.38445 9.34256 7.39432 9.30469 7.42383C9.24427 7.47092 9.1683 7.53965 9.04004 7.65625L3.25195 12.918C3.22096 12.9461 3.19171 12.9717 3.16504 12.9961C3.34709 12.9978 3.55164 13 3.78418 13H9.70703C10.2063 13 10.5552 12.9996 10.8281 12.9805C11.0452 12.9652 11.1888 12.9371 11.2998 12.9004C11.3951 12.8652 11.486 12.8226 11.5713 12.7705C11.6101 12.7468 11.6472 12.7212 11.6836 12.6943C11.6973 12.6842 11.7113 12.6746 11.7246 12.6641C11.7721 12.6265 11.8186 12.5877 11.8613 12.5449C11.9174 12.4888 11.9677 12.4274 12.0146 12.3633C12.0419 12.326 12.0679 12.2878 12.0918 12.248C12.1361 12.1745 12.1732 12.0966 12.2051 12.0156C12.2477 11.9004 12.2792 11.7502 12.2959 11.5117C12.315 11.2388 12.3154 10.8898 12.3154 10.3906C12.3154 10.0358 12.3128 9.93818 12.293 9.85352C12.2641 9.73078 12.2086 9.61582 12.1309 9.5166C12.0772 9.44818 12.0027 9.38478 11.7256 9.16309L9.81152 7.63184C9.67641 7.52374 9.59641 7.46017 9.5332 7.41699C9.47567 7.37771 9.46193 7.37613 9.46875 7.37793C9.43498 7.36931 9.39937 7.37107 9.36621 7.38184ZM4.2627 3.0791C5.29456 3.0791 6.13178 3.91541 6.13184 4.94727C6.13184 5.97917 5.2946 6.81543 4.2627 6.81543C3.23101 6.81518 2.39453 5.97901 2.39453 4.94727C2.39459 3.91557 3.23104 3.07935 4.2627 3.0791ZM4.2627 4.0791C3.78333 4.07935 3.39459 4.46785 3.39453 4.94727C3.39453 5.42673 3.7833 5.81518 4.2627 5.81543C4.74231 5.81543 5.13184 5.42688 5.13184 4.94727C5.13178 4.4677 4.74228 4.0791 4.2627 4.0791ZM11.4473 0C11.7234 0 11.9473 0.223858 11.9473 0.5V2.05273H13.5C13.7761 2.05273 14 2.27659 14 2.55273C13.9999 2.82883 13.7761 3.05273 13.5 3.05273H11.9473V4.60547C11.9472 4.88152 11.7233 5.10547 11.4473 5.10547C11.1712 5.10541 10.9474 4.88148 10.9473 4.60547V3.05273H9.39453C9.11852 3.05262 8.89459 2.82876 8.89453 2.55273C8.89453 2.27666 9.11849 2.05285 9.39453 2.05273H10.9473V0.5C10.9473 0.223893 11.1712 5.74587e-05 11.4473 0Z" fill="var(--fill-0, currentColor)"/>
</svg>
