<svg width="16" height="16" viewBox="0 0 14 13" fill="none" xmlns="http://www.w3.org/2000/svg">
<path id="Union" fill-rule="evenodd" clip-rule="evenodd" d="M11.5 13H2.5L2.24414 12.9873C0.983608 12.8592 0 11.7943 0 10.5V2.5C0 1.11929 1.11929 0 2.5 0H11.5C12.8807 0 14 1.11929 14 2.5V10.5C14 11.8807 12.8807 13 11.5 13ZM2.15518 11.8879C2.13577 11.9064 2.11817 11.9261 2.10238 11.9467C1.46693 11.7725 1 11.1908 1 10.5V2.5C1 1.67157 1.67157 1 2.5 1H11.5C12.3284 1 13 1.67157 13 2.5V7.75151L9.6835 5.66528L9.54873 5.59595C9.27067 5.48052 8.95189 5.51195 8.70205 5.67993L8.58389 5.77466L2.15518 11.8879ZM11.5 12H3.48867L9.21572 6.55298L12.9833 8.9231C12.9888 8.92657 12.9944 8.92993 13 8.93316V10.5C13 11.3284 12.3284 12 11.5 12ZM4.25 3.5C4.66421 3.5 5 3.83579 5 4.25C5 4.66421 4.66421 5 4.25 5C3.83579 5 3.5 4.66421 3.5 4.25C3.5 3.83579 3.83579 3.5 4.25 3.5ZM2.5 4.25C2.5 5.2165 3.2835 6 4.25 6C5.2165 6 6 5.2165 6 4.25C6 3.2835 5.2165 2.5 4.25 2.5C3.2835 2.5 2.5 3.2835 2.5 4.25Z" fill="var(--fill-0, currentColor)"/>
</svg>
