<svg width="16" height="16" viewBox="0 0 16 16" fill="none" xmlns="http://www.w3.org/2000/svg">
<path d="M10.7773 2.5C10.9445 2.5 11.1006 2.58362 11.1934 2.72266L14.5273 7.72266C14.6391 7.89051 14.6391 8.10949 14.5273 8.27734L11.1934 13.2773C11.1006 13.4164 10.9445 13.5 10.7773 13.5H1.88867C1.70446 13.5 1.53533 13.3986 1.44824 13.2363C1.36123 13.0737 1.37037 12.8761 1.47266 12.7227L4.62012 8L1.47266 3.27734C1.37037 3.12392 1.36123 2.92625 1.44824 2.76367C1.53533 2.60137 1.70446 2.5 1.88867 2.5H10.7773ZM5.6377 7.72266C5.74966 7.89061 5.74966 8.10939 5.6377 8.27734L2.82324 12.5H10.5098L13.5098 8L10.5098 3.5H2.82324L5.6377 7.72266Z" fill="currentColor"/>
</svg>
