<svg width="16" height="16" viewBox="0 0 13.2223 11" fill="none" xmlns="http://www.w3.org/2000/svg">
<path id="Union" d="M9.38844 0C9.55557 0 9.71171 0.0836173 9.80445 0.222656L13.1384 5.22266C13.2502 5.39051 13.2502 5.60949 13.1384 5.77734L9.80445 10.7773C9.71171 10.9164 9.55557 11 9.38844 11H0.499765C0.315549 11 0.146421 10.8986 0.0593356 10.7363C-0.0276736 10.5737 -0.0185354 10.3761 0.0837497 10.2227L3.23121 5.5L0.0837497 0.777344C-0.0185354 0.623916 -0.0276736 0.42625 0.0593356 0.263672C0.146421 0.101374 0.315549 2.8427e-07 0.499765 0H9.38844ZM4.24879 5.22266C4.36076 5.39061 4.36076 5.60939 4.24879 5.77734L1.43434 10H9.12086L12.1209 5.5L9.12086 1H1.43434L4.24879 5.22266Z" fill="var(--fill-0, currentColor)"/>
</svg>
