<svg width="16" height="16" viewBox="0 0 13 13" fill="none" xmlns="http://www.w3.org/2000/svg">
<path id="Union" d="M12.5 8C12.7761 8 13 8.22386 13 8.5V9.2998C13 9.85161 13 10.2957 12.9707 10.6543C12.9409 11.0186 12.8784 11.3387 12.7275 11.6348C12.4879 12.1052 12.1052 12.4879 11.6348 12.7275C11.3387 12.8784 11.0186 12.9409 10.6543 12.9707C10.2957 13 9.85161 13 9.2998 13H3.7002C3.14839 13 2.70429 13 2.3457 12.9707C1.98136 12.9409 1.66133 12.8784 1.36523 12.7275C0.894829 12.4879 0.512144 12.1052 0.272461 11.6348C0.121634 11.3387 0.0590662 11.0186 0.0292969 10.6543C-8.95246e-07 10.2957 0 9.85161 0 9.2998V8.5C1.28852e-07 8.22386 0.223858 8 0.5 8C0.776142 8 1 8.22386 1 8.5V9.2998C1 9.86811 1.00019 10.2648 1.02539 10.5732C1.05009 10.8753 1.09613 11.0491 1.16309 11.1807C1.3069 11.4629 1.53709 11.6931 1.81934 11.8369C1.95091 11.9039 2.12471 11.9499 2.42676 11.9746C2.73518 11.9998 3.13189 12 3.7002 12H9.2998C9.86811 12 10.2648 11.9998 10.5732 11.9746C10.8753 11.9499 11.0491 11.9039 11.1807 11.8369C11.4629 11.6931 11.6931 11.4629 11.8369 11.1807C11.9039 11.0491 11.9499 10.8753 11.9746 10.5732C11.9998 10.2648 12 9.86811 12 9.2998V8.5C12 8.22386 12.2239 8 12.5 8ZM6.5 0C6.77614 0 7 0.223858 7 0.5V7.29297L9.47949 4.81348C9.67475 4.61821 9.99126 4.61821 10.1865 4.81348C10.3818 5.00874 10.3818 5.32525 10.1865 5.52051L6.85352 8.85352C6.65825 9.04878 6.34175 9.04878 6.14648 8.85352L2.81348 5.52051C2.61821 5.32525 2.61821 5.00874 2.81348 4.81348C3.00874 4.61821 3.32525 4.61821 3.52051 4.81348L6 7.29297V0.5C6 0.223858 6.22386 9.66382e-08 6.5 0Z" fill="var(--fill-0, currentColor)"/>
</svg>
