<svg width="16" height="16" viewBox="0 0 13.999 11.7939" fill="none" xmlns="http://www.w3.org/2000/svg">
<path id="Union" d="M9.3877 0C10.6033 0 11.6992 0.733411 12.1621 1.85742L13.8857 6.0459C13.9603 6.22705 13.999 6.42129 13.999 6.61719V9.29395C13.9989 10.6746 12.8797 11.7939 11.499 11.7939H2.5C1.11934 11.7939 9.09842e-05 10.6746 0 9.29395V6.61719C0 6.42123 0.0386608 6.22709 0.113281 6.0459L1.83789 1.85742C2.30084 0.73349 3.39675 0 4.6123 0H9.3877ZM1 9.29395C1.00009 10.1223 1.67163 10.7939 2.5 10.7939H11.499C12.3274 10.7939 12.9989 10.1223 12.999 9.29395V6.91895H10.9072C10.6172 6.9191 10.3465 7.06441 10.1855 7.30566C9.83908 7.82537 9.25545 8.13761 8.63086 8.1377H5.36816C4.74355 8.13763 4.15996 7.82538 3.81348 7.30566C3.6524 7.06427 3.38104 6.91895 3.09082 6.91895H1V9.29395ZM4.6123 1C3.80196 1 3.07134 1.48902 2.7627 2.23828L1.24707 5.91895H3.09082C3.71539 5.91895 4.29897 6.23138 4.64551 6.75098C4.80652 6.9925 5.0779 7.13763 5.36816 7.1377H8.63086C8.9211 7.13761 9.19251 6.99248 9.35352 6.75098C9.69997 6.23153 10.2828 5.9191 10.9072 5.91895H12.752L11.2373 2.23828C10.9287 1.48894 10.1981 1 9.3877 1H4.6123Z" fill="var(--fill-0, currentColor)"/>
</svg>
