<svg width="16" height="16" viewBox="0 0 13.1948 13.2447" fill="none" xmlns="http://www.w3.org/2000/svg">
<path id="Union" d="M2.97128 0.755822C3.60456 0.809937 4.14184 1.26009 4.29843 1.8857L4.44296 2.46481C4.80949 3.9316 4.19267 5.46816 2.91367 6.27438L2.16757 6.7441C2.23352 6.87717 2.30108 7.00859 2.37167 7.13668L2.51328 7.38375V7.38473C3.33257 8.7788 4.48 9.95286 5.85507 10.8037H5.85605C6.0637 10.9326 6.2795 11.0478 6.4996 11.1562L6.9039 10.4629C7.70526 9.08614 9.33537 8.42431 10.8697 8.8525L11.3502 8.98629C11.9975 9.16732 12.4461 9.75745 12.4469 10.4296L12.4478 11.1582C12.4484 11.674 12.2828 12.2073 11.9674 12.6084C11.6438 13.0195 11.1406 13.3089 10.5201 13.2324V13.2334L10.4498 13.2246C9.04698 13.053 7.71566 12.7808 6.50546 12.2636C6.42046 12.2273 6.33541 12.1892 6.25156 12.1504C5.93503 12.0038 5.62628 11.8386 5.32773 11.6533V11.6523C3.81511 10.7161 2.55332 9.42523 1.65195 7.89156V7.89254C1.43957 7.53254 1.24506 7.15423 1.06992 6.76168C0.546668 5.58876 0.190935 4.28043 0.0240172 2.91891L0.0220641 2.90524V2.89254C0.0172721 2.82487 0.0115818 2.75871 0.0064391 2.6943C-0.0387088 2.12854 0.155571 1.62822 0.52597 1.27438C0.889917 0.926897 1.39178 0.750005 1.92343 0.749962H2.84335L2.97128 0.755822ZM10.6012 9.81539C9.50506 9.50943 8.34053 9.98317 7.76816 10.9668L7.42831 11.5478C8.37986 11.8856 9.42875 12.0916 10.5719 12.2314L10.6422 12.2402C10.8478 12.2656 11.0283 12.1836 11.1812 11.9892C11.3424 11.7842 11.4482 11.4764 11.4478 11.1591L11.4469 10.4306C11.4466 10.2066 11.2963 10.0096 11.0807 9.94918L10.6012 9.81539ZM1.80917 1.75485C1.54956 1.77659 1.34801 1.87141 1.2164 1.99703C1.07265 2.13433 0.981272 2.33661 1.00351 2.6152C1.00855 2.67837 1.01334 2.74398 1.01816 2.81149C1.14899 3.86939 1.4033 4.88569 1.7623 5.81735L2.38046 5.42867C3.29406 4.85281 3.73505 3.75472 3.47324 2.70699L3.3287 2.12887C3.28002 1.93413 3.12006 1.78975 2.92734 1.7568L2.84335 1.74996H1.92343L1.80917 1.75485ZM12.3414 0.146447C12.5367 -0.0488155 12.8532 -0.0488155 13.0484 0.146447C13.2435 0.341723 13.2436 0.658273 13.0484 0.853478L9.67734 4.22457H12.2037C12.4798 4.22457 12.7037 4.44843 12.7037 4.72457C12.7036 5.00063 12.4798 5.22457 12.2037 5.22457H8.46933C8.43687 5.22452 8.4046 5.22017 8.37265 5.21383C8.35651 5.21064 8.34131 5.20486 8.32578 5.20016C8.30982 5.19533 8.29342 5.19197 8.27792 5.18551C8.25706 5.17681 8.23768 5.16559 8.21835 5.15426C8.2101 5.14941 8.20099 5.14595 8.19296 5.14059C8.11072 5.0858 8.04561 5.00741 8.00742 4.915C7.98239 4.85419 7.96935 4.78931 7.96933 4.72457V0.990197C7.9695 0.714413 8.19359 0.490545 8.46933 0.490197C8.74537 0.490197 8.96916 0.714198 8.96933 0.990197V3.51852L12.3414 0.146447Z" fill="var(--fill-0, currentColor)"/>
</svg>
