<svg width="16" height="16" viewBox="0 0 12.5 11.8687" fill="none" xmlns="http://www.w3.org/2000/svg">
<path id="Union" fill-rule="evenodd" clip-rule="evenodd" d="M12.3672 0.5C12.3672 0.223953 12.1432 0.000154557 11.8672 0H0.776367C0.500225 0 0.276367 0.223858 0.276367 0.5C0.276367 0.776142 0.500225 1 0.776367 1H11.8672C12.1432 0.999845 12.3672 0.776047 12.3672 0.5ZM12.5 5.93408C12.5 5.65794 12.2761 5.43408 12 5.43408H5.21289C4.93675 5.43408 4.71289 5.65794 4.71289 5.93408C4.71289 6.21022 4.93675 6.43408 5.21289 6.43408H12C12.2761 6.43408 12.5 6.21022 12.5 5.93408ZM11.8677 10.8687C12.1437 10.8688 12.3677 11.0926 12.3677 11.3687C12.3677 11.6447 12.1437 11.8685 11.8677 11.8687H0.776855C0.500713 11.8687 0.276855 11.6448 0.276855 11.3687C0.276855 11.0925 0.500713 10.8687 0.776855 10.8687H11.8677ZM0 4.01564V7.85287C0 8.19201 0.395543 8.37727 0.656074 8.16016L2.95841 6.24154C3.15032 6.08162 3.15032 5.78688 2.95841 5.62697L0.656073 3.70835C0.395543 3.49124 0 3.6765 0 4.01564Z" fill="var(--fill-0, currentColor)"/>
</svg>
