<svg width="16" height="16" viewBox="0 0 13 15.0674" fill="none" xmlns="http://www.w3.org/2000/svg">
<path id="Union" d="M10.7559 0.0136719C12.0164 0.141823 13 1.20665 13 2.50098V14.5674C12.9998 14.7597 12.8893 14.9355 12.7158 15.0186C12.5421 15.1014 12.3353 15.077 12.1855 14.9561L10.2295 13.374L8.70117 14.9189C8.60728 15.0137 8.47911 15.0674 8.3457 15.0674C8.21242 15.0673 8.08403 15.0137 7.99023 14.9189L6.5 13.4121L5.00977 14.9189C4.91597 15.0137 4.78758 15.0673 4.6543 15.0674C4.52089 15.0674 4.39272 15.0137 4.29883 14.9189L2.76953 13.374L0.814453 14.9561C0.664713 15.077 0.457944 15.1014 0.28418 15.0186C0.11071 14.9355 0.000186776 14.7597 0 14.5674V2.50098C0 1.12026 1.11929 1.28851e-07 2.5 0H10.5L10.7559 0.0136719ZM2.5 1.00098C1.67157 1.00098 1 1.67255 1 2.50098V13.5195L2.49316 12.3125L2.57227 12.2598C2.76391 12.1573 3.00513 12.1899 3.16309 12.3496L4.65332 13.8564L6.14453 12.3496L6.2207 12.2861C6.30262 12.231 6.39977 12.2012 6.5 12.2012C6.63357 12.2012 6.76155 12.2546 6.85547 12.3496L8.3457 13.8564L9.83691 12.3496L9.90918 12.2891C10.0884 12.1657 10.332 12.1711 10.5068 12.3125L12 13.5195V2.50098C12 1.72433 11.4097 1.08561 10.6533 1.00879L10.5 1.00098H2.5ZM10 8.56738C10.2761 8.56738 10.5 8.79124 10.5 9.06738C10.5 9.34353 10.2761 9.56738 10 9.56738H3C2.72386 9.56738 2.5 9.34353 2.5 9.06738C2.5 8.79124 2.72386 8.56738 3 8.56738H10ZM10 4.56738C10.2761 4.56738 10.5 4.79124 10.5 5.06738C10.5 5.34353 10.2761 5.56738 10 5.56738H3C2.72386 5.56738 2.5 5.34353 2.5 5.06738C2.5 4.79124 2.72386 4.56738 3 4.56738H10Z" fill="var(--fill-0, currentColor)"/>
</svg>
