<svg width="16" height="16" viewBox="0 0 10.334 11.668" fill="none" xmlns="http://www.w3.org/2000/svg">
<path id="Union" d="M9.83398 0C10.1099 0.000263449 10.334 0.224997 10.334 0.500977C10.3337 0.776732 10.1097 1.00071 9.83398 1.00098H7.51367L3.88867 10.668H6.50098C6.77689 10.6682 7.00098 10.892 7.00098 11.168C7.00054 11.4436 6.77662 11.6677 6.50098 11.668H0.500977C0.225105 11.668 0.000438705 11.4437 0 11.168C0 10.8918 0.224834 10.668 0.500977 10.668H2.82031L6.44629 1.00098H3.83398C3.55815 1.0008 3.33425 0.776786 3.33398 0.500977C3.33398 0.224943 3.55799 0.000175896 3.83398 0H9.83398Z" fill="var(--fill-0, currentColor)"/>
</svg>
