<svg width="16" height="16" viewBox="0 0 9.23336 12" fill="none" xmlns="http://www.w3.org/2000/svg">
<path id="Union" d="M8.666 0C9.01644 0 9.28293 0.314509 9.22557 0.660156C9.17998 0.933718 8.94334 1.13477 8.666 1.13477H6.13768L4.50487 10.8652H6.84373C7.19431 10.8652 7.46094 11.1806 7.4033 11.5264C7.35753 11.7997 7.12092 12 6.84373 12H0.567367C0.216921 12 -0.0495707 11.6855 0.00779693 11.3398C0.0533906 11.0663 0.290032 10.8652 0.567367 10.8652H3.09471L4.7285 1.13477H2.38963C2.03905 1.13477 1.77243 0.819442 1.83006 0.473633C1.87584 0.200301 2.11245 0 2.38963 0H8.666Z" fill="var(--fill-0, currentColor)"/>
</svg>
