<svg width="16" height="16" viewBox="0 0 14 13" fill="none" xmlns="http://www.w3.org/2000/svg">
<path id="Union" fill-rule="evenodd" clip-rule="evenodd" d="M13 2.5C13 1.67157 12.3284 1 11.5 1H2.5C1.67157 1 1 1.67157 1 2.5V7.5C1 7.77614 1.22386 8 1.5 8H12.5C12.7761 8 13 7.77614 13 7.5V2.5ZM14 7.5C14 8.15311 13.5826 8.70873 13 8.91465V10.5C13 11.8807 11.8807 13 10.5 13H3.5C2.11929 13 1 11.8807 1 10.5V8.91465C0.417404 8.70873 0 8.15311 0 7.5V2.5C0 1.11929 1.11929 0 2.5 0H11.5C12.8807 0 14 1.11929 14 2.5V7.5ZM2 9H12V10.5C12 11.3284 11.3284 12 10.5 12H3.5C2.67157 12 2 11.3284 2 10.5V9ZM8.5 6C8.5 5.72386 8.27614 5.5 8 5.5H6C5.72386 5.5 5.5 5.72386 5.5 6C5.5 6.27614 5.72386 6.5 6 6.5H8C8.27614 6.5 8.5 6.27614 8.5 6Z" fill="var(--fill-0, currentColor)"/>
</svg>
