<svg width="16" height="16" viewBox="0 0 10.6001 11" fill="none" xmlns="http://www.w3.org/2000/svg">
<path id="Union" fill-rule="evenodd" clip-rule="evenodd" d="M0.5 9C0.776142 9 1 8.77614 1 8.5V0.5C1 0.223858 0.776142 0 0.5 0C0.223858 0 0 0.223858 0 0.5V8.5C0 8.77614 0.223858 9 0.5 9ZM5.80029 10.5C5.80029 10.7761 5.57644 11 5.30029 11C5.02415 11 4.80029 10.7761 4.80029 10.5V0.5C4.80029 0.223858 5.02415 0 5.30029 0C5.57644 0 5.80029 0.223858 5.80029 0.5V10.5ZM10.6001 5.5C10.6001 5.77614 10.3762 6 10.1001 6C9.82396 6 9.6001 5.77614 9.6001 5.5V0.5C9.6001 0.223858 9.82396 0 10.1001 0C10.3762 0 10.6001 0.223858 10.6001 0.5V5.5Z" fill="var(--fill-0, currentColor)"/>
</svg>
