<svg width="16" height="16" viewBox="0 0 14.0663 14.0663" fill="none" xmlns="http://www.w3.org/2000/svg">
<path id="Union" d="M13.2129 0.146415C13.4082 -0.0487891 13.7247 -0.0488209 13.9199 0.146415C14.1151 0.341663 14.1151 0.658198 13.9199 0.853446L6.75977 8.01263C7.24495 8.64669 7.53319 9.43966 7.5332 10.2997C7.53315 12.3799 5.84678 14.0663 3.7666 14.0663C1.68639 14.0663 5.07682e-05 12.3799 0 10.2997C3.97016e-05 8.21952 1.68638 6.53317 3.7666 6.53313C4.62619 6.53317 5.41789 6.82185 6.05176 7.30657L13.2129 0.146415ZM3.7666 7.53313C2.23867 7.53317 1.00004 8.7718 1 10.2997C1.00005 11.8277 2.23867 13.0663 3.7666 13.0663C5.29449 13.0663 6.53315 11.8276 6.5332 10.2997C6.53316 8.77183 5.2945 7.53321 3.7666 7.53313ZM12.2793 3.87981C12.4745 3.68458 12.7911 3.68465 12.9863 3.87981L13.9199 4.81341C14.115 5.00869 14.1151 5.32524 13.9199 5.52044L11.1201 8.32024C10.9249 8.51519 10.6083 8.51522 10.4131 8.32024L9.47949 7.38665C9.28441 7.19146 9.28451 6.87487 9.47949 6.67962C9.67473 6.48449 9.99129 6.48449 10.1865 6.67962L10.7666 7.2597L12.8594 5.16692L12.2793 4.58684C12.0843 4.39169 12.0844 4.07507 12.2793 3.87981Z" fill="var(--fill-0, currentColor)"/>
</svg>
