<svg width="16" height="16" viewBox="0 0 15 12" fill="none" xmlns="http://www.w3.org/2000/svg">
<path id="Union" fill-rule="evenodd" clip-rule="evenodd" d="M13 1.5V7.5C13 7.77614 13.2239 8 13.5 8C13.7761 8 14 7.77614 14 7.5V1.5C14 1.11452 13.8587 0.73791 13.5967 0.454102C13.3335 0.169001 12.968 6.47662e-05 12.5771 0H2.42285C2.03201 6.47833e-05 1.66649 0.169001 1.40332 0.454102C1.14135 0.73791 1 1.11452 1 1.5V7.5C1 7.77614 1.22386 8 1.5 8C1.77614 8 2 7.77614 2 7.5V1.5C2 1.35505 2.05345 1.2231 2.1377 1.13184C2.22062 1.04204 2.32424 1.00006 2.42285 1H12.5771C12.6758 1.00006 12.7794 1.04204 12.8623 1.13184C12.9465 1.2231 13 1.35505 13 1.5ZM15 9.5C15 9.22386 14.7761 9 14.5 9H0.5C0.367392 9 0.240253 9.05272 0.146484 9.14648C0.0527162 9.24025 0 9.36739 0 9.5C0 10.1523 0.241977 10.7848 0.681641 11.2559C1.12225 11.7277 1.72735 11.9999 2.36621 12H12.6338C13.2727 11.9999 13.8778 11.7277 14.3184 11.2559C14.758 10.7848 15 10.1523 15 9.5ZM1.41211 10.5732C1.262 10.4124 1.14975 10.2155 1.08008 10H13.9199C13.8503 10.2155 13.738 10.4124 13.5879 10.5732C13.3286 10.851 12.9845 10.9999 12.6338 11H2.36621C2.01548 10.9999 1.67138 10.851 1.41211 10.5732Z" fill="var(--fill-0, currentColor)"/>
</svg>
