<svg width="16" height="16" viewBox="0 0 11 9" fill="none" xmlns="http://www.w3.org/2000/svg">
<path id="Union" fill-rule="evenodd" clip-rule="evenodd" d="M8.5 0C8.77614 0 9 0.223858 9 0.5C9 0.776142 8.77614 1 8.5 1H0.5C0.223858 1 0 0.776142 0 0.5C0 0.223858 0.223858 0 0.5 0H8.5ZM9.5 4C9.77614 4 10 4.22386 10 4.5C10 4.77614 9.77614 5 9.5 5H1.5C1.22386 5 1 4.77614 1 4.5C1 4.22386 1.22386 4 1.5 4H9.5ZM11 8.5C11 8.22386 10.7761 8 10.5 8H2.5C2.22386 8 2 8.22386 2 8.5C2 8.77614 2.22386 9 2.5 9H10.5C10.7761 9 11 8.77614 11 8.5Z" fill="var(--fill-0, currentColor)"/>
</svg>
