<svg width="16" height="16" viewBox="0 0 16 16" fill="none" xmlns="http://www.w3.org/2000/svg">
<path fill-rule="evenodd" clip-rule="evenodd" d="M2.5 4C2.5 3.72386 2.72386 3.5 3 3.5H11C11.2761 3.5 11.5 3.72386 11.5 4C11.5 4.27614 11.2761 4.5 11 4.5H3C2.72386 4.5 2.5 4.27614 2.5 4ZM3.5 8C3.5 7.72386 3.72386 7.5 4 7.5H12C12.2761 7.5 12.5 7.72386 12.5 8C12.5 8.27614 12.2761 8.5 12 8.5H4C3.72386 8.5 3.5 8.27614 3.5 8ZM5 11.5C4.72386 11.5 4.5 11.7239 4.5 12C4.5 12.2761 4.72386 12.5 5 12.5H13C13.2761 12.5 13.5 12.2761 13.5 12C13.5 11.7239 13.2761 11.5 13 11.5H5Z" fill="currentColor"/>
</svg>
