<svg width="16" height="16" viewBox="0 0 16 16" fill="none" xmlns="http://www.w3.org/2000/svg">
<path d="M11.7773 1.05615C11.9646 1.05109 12.1393 1.15171 12.2295 1.31592C13.6048 3.82105 13.947 6.91093 13.2842 9.4165C12.6193 11.9293 10.8976 13.9605 8.10352 14.0532C7.82767 14.0623 7.59626 13.8456 7.58691 13.5698C7.57789 13.2939 7.79438 13.0633 8.07031 13.0542C10.277 12.981 11.7229 11.4073 12.3174 9.16064C12.8449 7.16681 12.6638 4.72601 11.748 2.60889C10.9087 3.78251 9.76533 4.36843 8.66699 4.854C7.38975 5.41865 6.23469 5.83827 5.36523 6.78857L5.19531 6.98584C4.66851 7.63509 4.27734 8.50095 4.27734 9.41064C4.27754 10.512 4.76382 11.4979 5.53223 12.1665C6.59106 11.3216 7.73558 10.1168 8.67383 8.42432C8.80771 8.18286 9.11203 8.09518 9.35352 8.229C9.59502 8.36288 9.6817 8.66718 9.54785 8.90869C8.43804 10.9107 7.05619 12.2841 5.81836 13.2075C5.8088 13.2143 5.79999 13.222 5.79004 13.228C5.54619 13.4089 5.30936 13.574 5.08008 13.7212C4.3807 14.1701 3.76343 14.4691 3.31738 14.6567C3.09422 14.7506 2.91308 14.8166 2.78613 14.8599C2.72284 14.8814 2.67301 14.8979 2.6377 14.9087C2.62002 14.9141 2.60584 14.9184 2.5957 14.9214C2.59065 14.9229 2.58612 14.9234 2.58301 14.9243C2.58156 14.9247 2.58011 14.925 2.5791 14.9253L2.57812 14.9263H2.57715C2.3109 14.9995 2.03516 14.8429 1.96191 14.5767C1.88895 14.3106 2.04555 14.0357 2.31152 13.9624L2.31641 13.9604C2.32189 13.9589 2.33185 13.9566 2.34473 13.9526C2.37051 13.9447 2.41081 13.9317 2.46387 13.9136C2.5705 13.8772 2.72955 13.819 2.92969 13.7349C3.33048 13.5663 3.8956 13.293 4.54004 12.8794C4.59569 12.8437 4.65124 12.8059 4.70801 12.7681C3.82704 11.9224 3.27753 10.7309 3.27734 9.41064C3.27734 8.22098 3.78225 7.13956 4.41797 6.35596C5.49286 5.03062 7.00265 4.49698 8.2627 3.93994C9.55174 3.37006 10.6627 2.75709 11.3408 1.34033L11.375 1.27979C11.464 1.14554 11.6135 1.06081 11.7773 1.05615Z" fill="currentColor"/>
</svg>
