<svg width="16" height="16" viewBox="0 0 11.667 13.8883" fill="none" xmlns="http://www.w3.org/2000/svg">
<path id="Union" d="M9.83325 0.000191088C10.0206 -0.00499323 10.1952 0.0956581 10.2854 0.259957C11.6609 2.76514 12.003 5.85487 11.3401 8.36054C10.6752 10.8735 8.95372 12.9047 6.15943 12.9973C5.88351 13.0064 5.65207 12.7897 5.64282 12.5139C5.6338 12.238 5.85029 12.0074 6.12622 11.9982C8.33312 11.9252 9.77883 10.3515 10.3733 8.10468C10.9008 6.11076 10.7198 3.67011 9.80396 1.55293C8.96457 2.7266 7.82129 3.31245 6.7229 3.79804C5.44566 4.36269 4.2906 4.78231 3.42114 5.73261L3.25122 5.92988C2.72444 6.57913 2.33325 7.44501 2.33325 8.35468C2.3334 9.45622 2.8205 10.4419 3.58911 11.1105C4.64781 10.2656 5.79163 9.06059 6.72974 7.36836C6.86356 7.127 7.16799 7.03949 7.40943 7.17304C7.65093 7.30692 7.73761 7.61122 7.60376 7.85273C6.26654 10.265 4.53593 11.7667 3.13599 12.6652C2.43667 13.114 1.81931 13.4132 1.37329 13.6008C1.15023 13.6946 0.968954 13.7606 0.842043 13.8039C0.778864 13.8254 0.728872 13.8419 0.693605 13.8527C0.676049 13.8581 0.661698 13.8625 0.651613 13.8654C0.646666 13.8668 0.641975 13.8675 0.638918 13.8684C0.637559 13.8687 0.635956 13.8691 0.635012 13.8693L0.634035 13.8703H0.633058C0.366894 13.9434 0.0910494 13.7869 0.0178241 13.5207C-0.0549452 13.2548 0.101703 12.9798 0.367433 12.9064L0.372316 12.9045C0.377768 12.9029 0.387878 12.9006 0.400637 12.8967C0.426385 12.8888 0.466839 12.8757 0.519777 12.8576C0.626374 12.8212 0.785561 12.763 0.985598 12.6789C1.38636 12.5103 1.95157 12.237 2.59595 11.8234C2.65177 11.7876 2.70794 11.7501 2.76489 11.7121C1.88374 10.8664 1.33339 9.67508 1.33325 8.35468C1.33325 7.16504 1.83818 6.08359 2.47388 5.3C3.54877 3.97466 5.05856 3.44102 6.31861 2.88398C7.60774 2.31407 8.71861 1.70122 9.39673 0.284371L9.43091 0.223824C9.51994 0.0895788 9.6694 0.0048516 9.83325 0.000191088Z" fill="var(--fill-0, currentColor)"/>
</svg>
