<svg width="16" height="16" viewBox="0 0 15 14.5762" fill="none" xmlns="http://www.w3.org/2000/svg">
<path id="Union" d="M6.52637 3.07227C9.4494 2.45959 12.0303 4.67802 12.0303 7.5C12.0301 9.29049 10.9885 10.8292 9.48535 11.5635V13.2275C9.48491 13.9716 8.88084 14.576 8.13672 14.5762H6.86328C6.11926 14.5759 5.51607 13.9715 5.51562 13.2275V11.5635C3.80216 10.7266 2.68912 8.84387 3.03125 6.74219C3.32543 4.94002 4.73295 3.44785 6.52637 3.07227ZM6.51562 11.6064V13.2275C6.51607 13.4192 6.67155 13.5759 6.86328 13.5762H8.13672C8.32855 13.576 8.4849 13.4193 8.48535 13.2275V11.6064H6.51562ZM11.0303 7.5C11.0303 5.30073 9.02139 3.57079 6.73145 4.05078C5.43479 4.32235 4.38566 5.36133 4.07129 6.64355L4.01855 6.90332C3.75876 8.49971 4.56971 9.92787 5.84473 10.6064H9.15625C10.2707 10.0131 11.0301 8.84731 11.0303 7.5ZM1.34863 7C1.62448 7.00034 1.84863 7.22407 1.84863 7.5C1.84837 7.77571 1.62432 7.99966 1.34863 8H0.5C0.224021 8 0.000263953 7.77592 0 7.5C0 7.22386 0.223858 7 0.5 7H1.34863ZM14.5 7C14.7761 7.00008 15 7.22391 15 7.5C14.9997 7.77587 14.7759 7.99992 14.5 8H13.6514C13.3754 8 13.1516 7.77592 13.1514 7.5C13.1514 7.22386 13.3752 7 13.6514 7H14.5ZM2.19629 2.19629C2.39155 2.00103 2.70806 2.00103 2.90332 2.19629L3.50293 2.7959C3.69819 2.99116 3.69819 3.30767 3.50293 3.50293C3.30767 3.69819 2.99116 3.69819 2.7959 3.50293L2.19629 2.90332C2.00103 2.70806 2.00103 2.39155 2.19629 2.19629ZM12.0957 2.19629C12.2909 2.00107 12.6075 2.00116 12.8027 2.19629C12.998 2.39155 12.998 2.70806 12.8027 2.90332L12.2031 3.50293C12.0079 3.69819 11.6914 3.69819 11.4961 3.50293C11.301 3.30766 11.3009 2.99112 11.4961 2.7959L12.0957 2.19629ZM7.5 0C7.77614 0 8 0.223858 8 0.5V1.34863C7.99966 1.62448 7.77593 1.84863 7.5 1.84863C7.22407 1.84863 7.00034 1.62448 7 1.34863V0.5C7 0.223858 7.22386 0 7.5 0Z" fill="var(--fill-0, currentColor)"/>
</svg>
