<svg width="16" height="16" viewBox="0 0 14.0668 14.0669" fill="none" xmlns="http://www.w3.org/2000/svg">
<path id="Union" d="M7.60922 5.7508C7.80453 5.55611 8.12118 5.55573 8.31625 5.7508C9.79343 7.22833 9.79334 9.6238 8.31625 11.1014L6.45883 12.9588C4.98128 14.4364 2.58593 14.4361 1.10824 12.9588C-0.369415 11.4811 -0.369415 9.08588 1.10824 7.60822L1.11313 7.60334L2.74496 6.01838C2.94305 5.82637 3.25971 5.83024 3.45199 6.02814C3.64417 6.22609 3.6389 6.54276 3.44125 6.73517L1.81039 8.32013C0.728126 9.40765 0.729765 11.1663 1.81527 12.2518C2.90244 13.3386 4.66477 13.3388 5.7518 12.2518L7.60922 10.3944C8.69579 9.30729 8.69587 7.54484 7.60922 6.45783C7.41396 6.26257 7.41396 5.94606 7.60922 5.7508ZM7.60824 1.10822C9.08591 -0.369391 11.4812 -0.369422 12.9588 1.10822C14.436 2.5859 14.4363 4.9813 12.9588 6.45881L12.953 6.46369L11.3221 8.04865C11.1241 8.2409 10.8075 8.23573 10.6151 8.03791C10.4227 7.83986 10.4269 7.52329 10.6248 7.33088L12.2567 5.74592C13.3383 4.6585 13.3367 2.90061 12.2518 1.81525C11.1647 0.728133 9.40241 0.728165 8.31527 1.81525L6.45785 3.67267C5.37086 4.75982 5.37076 6.52211 6.45785 7.6092C6.65266 7.8045 6.65296 8.12112 6.45785 8.31623C6.26272 8.51109 5.94604 8.51095 5.75082 8.31623C4.27321 6.83862 4.2733 4.44331 5.75082 2.96564L7.60824 1.10822Z" fill="var(--fill-0, currentColor)"/>
</svg>
