<svg width="16" height="16" viewBox="0 0 14.9933 8.02786" fill="none" xmlns="http://www.w3.org/2000/svg">
<path id="Union" fill-rule="evenodd" clip-rule="evenodd" d="M10.9797 8.02734H8.97185C8.6957 8.02734 8.47185 7.80349 8.47185 7.52734C8.47185 7.2512 8.6957 7.02734 8.97185 7.02734H10.9797C12.644 7.02731 13.9933 5.678 13.9933 4.01367C13.9933 2.3494 12.6439 1.00003 10.9797 1L8.97185 1C8.6957 1 8.47185 0.776142 8.47185 0.5C8.47196 0.223955 8.69577 6.69388e-10 8.97185 0L10.9797 1.69239e-07C13.1962 3.32857e-05 14.9933 1.79711 14.9933 4.01367C14.9933 6.23028 13.1963 8.02731 10.9797 8.02734ZM4.01367 0.000520049H6.02148C6.29763 0.000520049 6.52148 0.224378 6.52148 0.50052C6.52148 0.776662 6.29763 1.00052 6.02148 1.00052H4.01367C2.34935 1.00055 1 2.34987 1 4.01419C1.00006 5.67847 2.34939 7.02783 4.01367 7.02786H6.02148C6.29763 7.02786 6.52148 7.25172 6.52148 7.52786C6.52137 7.80391 6.29756 8.02786 6.02148 8.02786H4.01367C1.7971 8.02783 5.70449e-05 6.23075 0 4.01419C0 1.79758 1.79707 0.000552438 4.01367 0.000520049ZM9.5045 3.51392H5.48888C5.21279 3.51398 4.98888 3.73781 4.98888 4.01392C4.98888 4.29002 5.21279 4.51385 5.48888 4.51392H9.5045C9.78064 4.51392 10.0045 4.29006 10.0045 4.01392C10.0045 3.73777 9.78064 3.51392 9.5045 3.51392Z" fill="var(--fill-0, currentColor)"/>
</svg>
