<svg width="16" height="16" viewBox="0 0 16 16" fill="none" xmlns="http://www.w3.org/2000/svg">
<path fill-rule="evenodd" clip-rule="evenodd" d="M8.9751 11.5115C8.9751 11.2353 9.19896 11.0115 9.4751 11.0115H11.4829C13.1472 11.0115 14.4964 9.66226 14.4964 7.99791C14.4964 6.33356 13.1472 4.98434 11.4828 4.98434L9.4751 4.98434C9.19896 4.98434 8.9751 4.76049 8.9751 4.48434C8.9751 4.2082 9.19896 3.98434 9.4751 3.98434L11.4828 3.98434C13.6995 3.98434 15.4964 5.78128 15.4964 7.99791C15.4964 10.2145 13.6995 12.0115 11.4829 12.0115H9.4751C9.19896 12.0115 8.9751 11.7876 8.9751 11.5115ZM7.02474 4.48465C7.02474 4.76079 6.80088 4.98465 6.52474 4.98465H4.51698C2.85264 4.98465 1.50342 6.33387 1.50342 7.99822C1.50342 9.66256 2.85264 11.0118 4.51698 11.0118H6.52474C6.80088 11.0118 7.02474 11.2356 7.02474 11.5118C7.02474 11.7879 6.80088 12.0118 6.52474 12.0118H4.51698C2.30035 12.0118 0.503418 10.2148 0.503418 7.99822C0.503418 5.78159 2.30035 3.98465 4.51698 3.98465H6.52474C6.80088 3.98465 7.02474 4.20851 7.02474 4.48465ZM10.0078 8.49805C10.2839 8.49805 10.5078 8.27419 10.5078 7.99805C10.5078 7.7219 10.2839 7.49805 10.0078 7.49805H5.99225C5.71611 7.49805 5.49225 7.7219 5.49225 7.99805C5.49225 8.27419 5.71611 8.49805 5.99225 8.49805H10.0078Z" fill="currentColor"/>
</svg>
