<svg width="16" height="16" viewBox="0 0 14.9991 9.06328" fill="none" xmlns="http://www.w3.org/2000/svg">
<path id="Union" d="M1.81299 0.146423C2.00825 -0.0486605 2.32481 -0.0487379 2.52002 0.146423C2.71506 0.341644 2.71506 0.658234 2.52002 0.853455C0.493278 2.88042 0.493174 6.183 2.52002 8.2099C2.71507 8.40512 2.71506 8.72171 2.52002 8.91693C2.32479 9.11194 2.0082 9.11197 1.81299 8.91693C-0.604382 6.49951 -0.604277 2.56391 1.81299 0.146423ZM12.479 0.146423C12.6743 -0.0488233 12.9908 -0.0487923 13.186 0.146423C15.6035 2.56391 15.6035 6.49945 13.186 8.91693C12.9908 9.11199 12.6742 9.11213 12.479 8.91693C12.2839 8.72173 12.284 8.40516 12.479 8.2099C14.506 6.18294 14.506 2.88041 12.479 0.853455C12.2839 0.658257 12.284 0.341686 12.479 0.146423ZM3.65381 1.86029C3.84894 1.6652 4.16556 1.66545 4.36084 1.86029C4.55609 2.05554 4.55606 2.37206 4.36084 2.56732C3.28653 3.64175 3.28677 5.29355 4.36084 6.3681C4.55609 6.56335 4.55606 6.87987 4.36084 7.07513C4.16557 7.27034 3.84905 7.27038 3.65381 7.07513C2.18921 5.61005 2.18898 3.32524 3.65381 1.86029ZM10.6382 1.86029C10.8334 1.66517 11.1499 1.66533 11.3452 1.86029C12.8103 3.32536 12.8102 5.61003 11.3452 7.07513C11.15 7.2704 10.8334 7.2704 10.6382 7.07513C10.4433 6.87984 10.443 6.56325 10.6382 6.3681C11.7127 5.29352 11.7127 3.64187 10.6382 2.56732C10.4432 2.37204 10.443 2.05546 10.6382 1.86029ZM7.49951 2.73041C8.47676 2.73054 9.26985 3.5227 9.27002 4.49994C9.2698 5.47713 8.47672 6.27032 7.49951 6.27045C6.52233 6.27028 5.7302 5.47711 5.72998 4.49994C5.73015 3.52273 6.5223 2.73058 7.49951 2.73041ZM7.49951 3.73041C7.07459 3.73058 6.73015 4.07501 6.72998 4.49994C6.7302 4.92482 7.07462 5.27028 7.49951 5.27045C7.92444 5.27032 8.2698 4.92485 8.27002 4.49994C8.26985 4.07499 7.92447 3.73054 7.49951 3.73041Z" fill="var(--fill-0, currentColor)"/>
</svg>
