<svg width="16" height="16" viewBox="0 0 13.5068 14.001" fill="none" xmlns="http://www.w3.org/2000/svg">
<path id="Union" fill-rule="evenodd" clip-rule="evenodd" d="M6.41797 10.8682C6.41797 10.592 6.64183 10.3682 6.91797 10.3682C7.1941 10.3682 7.41797 10.592 7.41797 10.8682V13.501C7.41789 13.777 7.19405 14.001 6.91797 14.001C6.64187 14.001 6.41804 13.7771 6.41797 13.501V10.8682ZM3.7666 9.3623C3.96183 9.16708 4.27836 9.16715 4.47363 9.3623C4.6689 9.55756 4.66889 9.87407 4.47363 10.0693L2.6123 11.9316C2.41715 12.1267 2.10052 12.1265 1.90527 11.9316C1.71001 11.7364 1.71001 11.4189 1.90527 11.2236L3.7666 9.3623ZM10.3496 10.3496C10.5449 10.1545 10.8614 10.1544 11.0566 10.3496L11.5215 10.8154C11.7167 11.0107 11.7167 11.3272 11.5215 11.5225C11.3262 11.7174 11.0096 11.7176 10.8145 11.5225L10.3496 11.0566C10.1544 10.8614 10.1543 10.5449 10.3496 10.3496ZM2.80371 6.41797C3.0798 6.41797 3.30362 6.6419 3.30371 6.91797C3.30371 7.19411 3.07985 7.41797 2.80371 7.41797H0.5C0.223858 7.41797 0 7.19411 0 6.91797C9.00532e-05 6.6419 0.223913 6.41797 0.5 6.41797H2.80371ZM13.0068 6.41797C13.2829 6.41801 13.5067 6.64193 13.5068 6.91797C13.5068 7.19408 13.2829 7.41792 13.0068 7.41797H12.0195C11.7434 7.41797 11.5195 7.19411 11.5195 6.91797C11.5196 6.6419 11.7434 6.41797 12.0195 6.41797H13.0068ZM2.04102 2.09375C2.23616 1.89861 2.55276 1.89884 2.74805 2.09375L4.14453 3.49023C4.33978 3.68549 4.33978 4.00201 4.14453 4.19727C3.94927 4.39252 3.63276 4.39253 3.4375 4.19727L2.04102 2.80078C1.84611 2.60549 1.84588 2.28889 2.04102 2.09375ZM10.9512 2.23047C11.1464 2.0352 11.4629 2.03521 11.6582 2.23047C11.8534 2.42573 11.8534 2.74225 11.6582 2.9375L10.7275 3.86816C10.5323 4.06342 10.2158 4.06341 10.0205 3.86816C9.82524 3.6729 9.82525 3.3564 10.0205 3.16113L10.9512 2.23047ZM6.41797 0.5C6.41797 0.223858 6.64183 0 6.91797 0C7.1941 1.60815e-05 7.41797 0.223868 7.41797 0.5V2.14551C7.41797 2.42164 7.1941 2.64549 6.91797 2.64551C6.64183 2.64551 6.41797 2.42165 6.41797 2.14551V0.5Z" fill="var(--fill-0, currentColor)"/>
</svg>
