<svg width="16" height="16" viewBox="0 0 14.333 14.333" fill="none" xmlns="http://www.w3.org/2000/svg">
<path id="Union" d="M10.5 0C12.2487 0.00026428 13.667 1.41825 13.667 3.16699C13.6669 3.43463 13.6287 3.69155 13.5635 3.93848C14.0542 4.90929 14.333 6.00635 14.333 7.16699C14.3326 11.1244 11.1244 14.3326 7.16699 14.333C3.20922 14.333 0.000440049 11.1247 0 7.16699C0 6.89616 0.0166387 6.62826 0.0458984 6.36523C0.0469309 6.35282 0.0488386 6.34029 0.0507812 6.32812C0.466122 2.76532 3.49271 0 7.16699 0C7.86653 7.88247e-05 8.54334 0.102539 9.18359 0.290039C9.58484 0.106155 10.0297 0 10.5 0ZM7.16699 1C4.21265 1 1.74423 3.07775 1.1416 5.85156L4.18359 5.58105L4.30469 5.5791C4.54376 5.59277 4.76657 5.70878 4.91406 5.89746L4.98145 5.99805L6.2002 8.13379L8.06445 9.19922C8.51811 9.45892 8.62424 10.0678 8.28418 10.4648L6.66699 12.3516V13.3115C6.83168 13.3247 6.9989 13.333 7.16699 13.333C10.5721 13.3326 13.3326 10.5721 13.333 7.16699C13.333 6.46068 13.2123 5.78259 12.9941 5.15137C12.9101 5.27785 12.8227 5.40337 12.7295 5.52441C12.204 6.20669 11.5035 6.87055 10.8535 7.52051C10.6585 7.71539 10.3417 7.71506 10.1465 7.52051C9.49667 6.8707 8.79597 6.20653 8.27051 5.52441C7.74022 4.83585 7.33325 4.06155 7.33301 3.16699C7.33301 2.36402 7.6344 1.63241 8.12695 1.07422C7.81449 1.0254 7.49358 1.00004 7.16699 1ZM1.00684 6.86719C1.00211 6.96626 1 7.06675 1 7.16699C1.00037 10.055 2.98639 12.4785 5.66699 13.1484V12.29C5.667 12.0913 5.73794 11.899 5.86719 11.748L7.39258 9.9668L5.66406 8.97949C5.53495 8.90569 5.42732 8.79804 5.35352 8.66895L4.16504 6.58594L1.00684 6.86719ZM10.5 1C9.30338 1 8.33301 1.97038 8.33301 3.16699C8.33325 3.74456 8.59318 4.30465 9.0625 4.91406C9.45357 5.42175 9.95425 5.91753 10.5 6.45898C11.0459 5.91737 11.5464 5.42191 11.9375 4.91406C12.4068 4.30465 12.6667 3.74456 12.667 3.16699C12.667 1.97054 11.6964 1.00026 10.5 1ZM10.6348 2.34668C10.9381 2.4092 11.167 2.67816 11.167 3C11.1667 3.3678 10.8678 3.66673 10.5 3.66699C10.1782 3.66699 9.9092 3.4381 9.84668 3.13477L9.83301 3L9.84668 2.86523C9.90898 2.56162 10.178 2.33301 10.5 2.33301L10.6348 2.34668Z" fill="var(--fill-0, currentColor)"/>
</svg>
