<svg width="16" height="16" viewBox="0 0 16 16" fill="none" xmlns="http://www.w3.org/2000/svg">
<path fill-rule="evenodd" clip-rule="evenodd" d="M4.17279 11.0253L4.1597 11.0123L4.14613 10.9997C3.06088 9.99193 2.5 8.58334 2.5 7.05226C2.5 3.954 4.954 1.5 8.05226 1.5C11.1555 1.5 13.5901 3.95314 13.5112 7.02663L13.5109 7.03944V7.05226C13.5109 8.58334 12.95 9.99193 11.8648 10.9997L11.5452 11.2964V11.3218C11.4673 11.3947 11.3745 11.4803 11.2691 11.5768C10.9128 11.9027 10.4342 12.3321 9.94918 12.7645C9.55174 13.1189 9.13709 13.4865 8.78577 13.7981C8.43755 14.1068 8.15155 14.3604 8.00622 14.4912C7.74672 14.2533 7.03042 13.6069 6.30717 12.9543L6.30595 12.9532L6.10132 12.7685L6.1003 12.7676L6.09826 12.7658C5.61945 12.3337 5.14135 11.9022 4.77688 11.5727C4.42866 11.2579 4.21698 11.0655 4.17897 11.031L4.17751 11.0296C4.17435 11.0268 4.17276 11.0253 4.17279 11.0253ZM7.90678 14.5823C7.91104 14.578 7.91528 14.574 7.91947 14.5701L7.90678 14.5823ZM5.43135 13.5109C6.39079 14.3767 7.35023 15.2426 7.39704 15.2894C7.77145 15.5702 8.33307 15.5702 8.61388 15.2894C8.63749 15.2658 8.89913 15.0339 9.27727 14.6988L9.27748 14.6986L9.27754 14.6985C10.3992 13.7044 12.5452 11.8024 12.5452 11.7324C13.8557 10.5156 14.5109 8.83073 14.5109 7.05226C14.6045 3.40172 11.7028 0.5 8.05226 0.5C4.40172 0.5 1.5 3.40172 1.5 7.05226C1.5 8.83073 2.15523 10.5156 3.46568 11.7324C3.51248 11.7792 4.47171 12.6449 5.43104 13.5106L5.43135 13.5109ZM5.18019 7.05226C5.18019 8.63419 6.47034 9.92434 8.05226 9.92434C9.63419 9.92434 10.9243 8.63419 10.9243 7.05226C10.9243 5.47034 9.63419 4.18019 8.05226 4.18019C6.47034 4.18019 5.18019 5.47034 5.18019 7.05226ZM8.05226 8.92434C7.02262 8.92434 6.18019 8.0819 6.18019 7.05226C6.18019 6.02262 7.02262 5.18019 8.05226 5.18019C9.0819 5.18019 9.92434 6.02262 9.92434 7.05226C9.92434 8.0819 9.0819 8.92434 8.05226 8.92434Z" fill="currentColor"/>
</svg>
