<svg width="16" height="16" viewBox="0 0 13.0129 14.9999" fill="none" xmlns="http://www.w3.org/2000/svg">
<path id="Union" fill-rule="evenodd" clip-rule="evenodd" d="M12.0117 6.52637L12.0107 6.53906V6.55273C12.0106 8.0836 11.4503 9.49238 10.3652 10.5L10.0449 10.7959V10.8203C10.0236 10.8403 10.0012 10.8613 9.9778 10.8833C9.91565 10.9417 9.84628 11.0069 9.76953 11.0771C9.41328 11.4031 8.93422 11.8322 8.44922 12.2646C8.06765 12.6048 7.6704 12.9575 7.32857 13.261C6.96047 13.5878 6.65664 13.8575 6.50586 13.9932C6.2225 13.7334 5.39119 12.9811 4.60156 12.2686C4.12174 11.8355 3.64259 11.4024 3.27734 11.0723C2.89521 10.7268 2.67704 10.5292 2.67285 10.5254L2.66016 10.5127L2.64648 10.5L2.44922 10.3057C1.49349 9.31507 1.00011 7.98793 1 6.55273C1 3.45447 3.45447 1 6.55273 1C9.65568 1.00025 12.0904 3.45316 12.0117 6.52637ZM11.0449 11.2324C12.3553 10.0157 13.0106 8.33103 13.0107 6.55273C13.1014 3.01639 10.3814 0.182618 6.89258 0.00878906L6.55273 0C2.90219 0 0 2.90219 0 6.55273L0.0078125 6.88477C0.0846476 8.53965 0.737329 10.0917 1.96582 11.2324C2.01335 11.2799 2.97254 12.1453 3.9317 13.0108C4.89119 13.8765 5.85066 14.7423 5.89746 14.7891L5.96973 14.8389C6.31604 15.0536 6.78284 15.0535 7.05762 14.8389L7.11426 14.7891C7.13999 14.7636 7.40084 14.5324 7.77706 14.1989C8.89847 13.205 11.0449 11.3024 11.0449 11.2324ZM6.55226 4.68019C7.5819 4.68019 8.42432 5.52262 8.42433 6.55226C8.42433 7.5819 7.5819 8.42433 6.55226 8.42433C5.52262 8.42432 4.68019 7.5819 4.68019 6.55226C4.68019 5.52262 5.52262 4.68019 6.55226 4.68019ZM6.55226 9.42433C8.13418 9.42433 9.42433 8.13418 9.42433 6.55226C9.42432 4.97033 8.13418 3.68019 6.55226 3.68019C4.97034 3.68019 3.68019 4.97034 3.68019 6.55226C3.68019 8.13418 4.97033 9.42432 6.55226 9.42433Z" fill="var(--fill-0, currentColor)"/>
</svg>
