<svg width="16" height="16" viewBox="0 0 14.5 14.5" fill="none" xmlns="http://www.w3.org/2000/svg">
<path id="Union" fill-rule="evenodd" clip-rule="evenodd" d="M7.25 1C10.7018 1 13.5 3.79822 13.5 7.25C13.5 10.7018 10.7018 13.5 7.25 13.5C3.79822 13.5 1 10.7018 1 7.25C1 3.79822 3.79822 1 7.25 1ZM0 7.25C0 11.2541 3.24594 14.5 7.25 14.5C11.2541 14.5 14.5 11.2541 14.5 7.25C14.5 3.24594 11.2541 0 7.25 0C3.24594 0 0 3.24594 0 7.25ZM11.1438 3.98001C11.2438 3.78667 11.2072 3.55047 11.0533 3.39651C10.9187 3.26187 10.7212 3.21653 10.5444 3.27428L10.4698 3.30605L5.85639 5.69184C5.76445 5.7394 5.68919 5.81466 5.64164 5.9066L3.25584 10.5201C3.15581 10.7135 3.19234 10.9496 3.3463 11.1036C3.50027 11.2574 3.73646 11.294 3.9298 11.194L8.54257 8.80753C8.63451 8.75998 8.70977 8.68472 8.75732 8.59278L11.1438 3.98001ZM4.86617 9.58369L6.45716 6.50667L9.53417 4.91568L7.94249 7.99201L4.86617 9.58369Z" fill="var(--fill-0, currentColor)"/>
</svg>
