<svg width="16" height="16" viewBox="0 0 13 14" fill="none" xmlns="http://www.w3.org/2000/svg">
<path id="Union" d="M6.5 0C8.15685 0 9.5 1.34315 9.5 3V4H10.5L10.7559 4.0127C12.0164 4.14082 13 5.20566 13 6.5V11.5L12.9873 11.7559C12.8677 12.9323 11.9323 13.8677 10.7559 13.9873L10.5 14H2.5C1.11929 14 0 12.8807 0 11.5V6.5C0 5.11929 1.11929 4 2.5 4H3.5V3C3.5 1.34315 4.84315 0 6.5 0ZM2.5 5C1.67157 5 1 5.67157 1 6.5V11.5C1 12.3284 1.67157 13 2.5 13H10.5C11.3284 13 12 12.3284 12 11.5V6.5C12 5.67157 11.3284 5 10.5 5H2.5ZM6.5 1C5.39543 1 4.5 1.89543 4.5 3V4H8.5V3C8.5 1.89543 7.60457 1 6.5 1Z" fill="var(--fill-0, currentColor)"/>
</svg>
