<svg width="16" height="16" viewBox="0 0 12.5 13" fill="none" xmlns="http://www.w3.org/2000/svg">
<path id="Union" fill-rule="evenodd" clip-rule="evenodd" d="M0 11.5V1.5C0 0.671573 0.671573 0 1.5 0H4.5C4.77614 0 5 0.223858 5 0.5C5 0.776142 4.77614 1 4.5 1H1.5C1.22386 1 1 1.22386 1 1.5V11.5C1 11.7761 1.22386 12 1.5 12H4.5C4.77614 12 5 12.2239 5 12.5C5 12.7761 4.77614 13 4.5 13H1.5C0.671573 13 0 12.3284 0 11.5ZM12.4621 6.30861C12.4861 6.36669 12.4996 6.4303 12.5 6.497C12.5 6.498 12.5 6.499 12.5 6.5C12.5 6.501 12.5 6.502 12.5 6.503C12.4992 6.62996 12.4504 6.75669 12.3536 6.85355L9.52513 9.68198C9.32986 9.87724 9.01328 9.87724 8.81802 9.68198C8.62276 9.48672 8.62276 9.17014 8.81802 8.97487L10.7929 7H4C3.72386 7 3.5 6.77614 3.5 6.5C3.5 6.22386 3.72386 6 4 6H10.7929L8.81802 4.02513C8.62276 3.82986 8.62276 3.51328 8.81802 3.31802C9.01328 3.12276 9.32986 3.12276 9.52513 3.31802L12.3536 6.14645C12.4015 6.19439 12.4377 6.24964 12.4621 6.30861Z" fill="var(--fill-0, currentColor)"/>
</svg>
