<svg width="16" height="16" viewBox="0 0 16 16" fill="none" xmlns="http://www.w3.org/2000/svg">
<path fill-rule="evenodd" clip-rule="evenodd" d="M1.75 3C1.75 2.17157 2.42157 1.5 3.25 1.5H6.25C6.52614 1.5 6.75 1.72386 6.75 2C6.75 2.27614 6.52614 2.5 6.25 2.5H3.25C2.97386 2.5 2.75 2.72386 2.75 3V13C2.75 13.2761 2.97386 13.5 3.25 13.5H6.25C6.52614 13.5 6.75 13.7239 6.75 14C6.75 14.2761 6.52614 14.5 6.25 14.5H3.25C2.42157 14.5 1.75 13.8284 1.75 13V3ZM5.25 8C5.25 7.72386 5.47386 7.5 5.75 7.5H12.5429L10.568 5.52513C10.3728 5.32986 10.3728 5.01328 10.568 4.81802C10.7633 4.62276 11.0799 4.62276 11.2751 4.81802L14.1036 7.64645C14.1515 7.69439 14.1877 7.74964 14.2121 7.80861C14.2361 7.86669 14.2496 7.9303 14.25 7.997C14.25 7.998 14.25 7.999 14.25 8C14.25 8.001 14.25 8.002 14.25 8.003C14.2492 8.12996 14.2004 8.25669 14.1036 8.35355L11.2751 11.182C11.0799 11.3772 10.7633 11.3772 10.568 11.182C10.3728 10.9867 10.3728 10.6701 10.568 10.4749L12.5429 8.5H5.75C5.47386 8.5 5.25 8.27614 5.25 8Z" fill="currentColor"/>
</svg>
