<svg width="16" height="16" viewBox="0 0 13.5674 14" fill="none" xmlns="http://www.w3.org/2000/svg">
<path id="Union" d="M6.56738 0C10.4334 0 13.5674 3.13401 13.5674 7C13.5674 10.866 10.4334 14 6.56738 14C3.69623 13.9999 1.23009 12.271 0.150392 9.7998C0.0400239 9.54682 0.155247 9.25212 0.408204 9.1416C0.661099 9.03115 0.955723 9.14667 1.06641 9.39941C1.99271 11.5195 4.10785 12.9999 6.56738 13C9.88109 13 12.5674 10.3137 12.5674 7C12.5674 3.68629 9.88109 1 6.56738 1C4.10785 1.00006 1.99271 2.4805 1.06641 4.60059C0.955723 4.85333 0.661099 4.96885 0.408204 4.8584C0.155247 4.74788 0.0400238 4.45318 0.150392 4.2002C1.23009 1.72902 3.69623 6.40574e-05 6.56738 0ZM4.91309 4.04688C5.08403 3.87593 5.34789 3.85406 5.54199 3.98242L5.62012 4.04688L8.21973 6.64648C8.3135 6.74025 8.36621 6.86739 8.36621 7C8.36621 7.13261 8.3135 7.25975 8.21973 7.35352L5.62012 9.95312C5.42486 10.1484 5.10835 10.1484 4.91309 9.95312C4.71796 9.75785 4.71787 9.44131 4.91309 9.24609L6.64649 7.51172H5.90918L4.65332 7.50977L2.14258 7.50488L0.499024 7.5C0.223029 7.49922 -0.000543144 7.27496 9.91145e-07 6.99902C0.000781227 6.72303 0.225037 6.49946 0.500978 6.5L2.14453 6.50488V6.50391L4.65527 6.50879L5.90918 6.51172H6.6709L4.91309 4.75391L4.84863 4.67578C4.72026 4.48172 4.74225 4.21784 4.91309 4.04688Z" fill="var(--fill-0, currentColor)"/>
</svg>
