<svg width="16" height="16" viewBox="0 0 11.7947 8.4541" fill="none" xmlns="http://www.w3.org/2000/svg">
<g id="Union">
<path d="M1.97656 6.17676C1.59701 6.17676 1.25863 6.1123 0.961426 5.9834C0.667806 5.85449 0.433268 5.66292 0.257812 5.40869C0.0859375 5.15088 0 4.83398 0 4.45801C0 4.13216 0.0626628 3.8654 0.187988 3.65771C0.313314 3.44645 0.479818 3.27816 0.6875 3.15283C0.898763 3.02751 1.13867 2.93441 1.40723 2.87354C1.67936 2.80908 1.95866 2.76074 2.24512 2.72852C2.59961 2.68555 2.8807 2.64974 3.08838 2.62109C3.29606 2.59245 3.44466 2.54948 3.53418 2.49219C3.62728 2.43132 3.67383 2.33285 3.67383 2.19678V2.15381C3.67383 1.97477 3.62907 1.81722 3.53955 1.68115C3.45361 1.54508 3.32829 1.43945 3.16357 1.36426C3.00244 1.28548 2.8055 1.24609 2.57275 1.24609C2.34001 1.24609 2.13411 1.28369 1.95508 1.35889C1.77962 1.43408 1.63818 1.53792 1.53076 1.67041C1.42692 1.79932 1.36605 1.94613 1.34814 2.11084L0.155762 2.08398C0.187988 1.73307 0.306152 1.42155 0.510254 1.14941C0.714355 0.873698 0.991862 0.657064 1.34277 0.499512C1.69368 0.34196 2.10547 0.263184 2.57812 0.263184C2.92188 0.263184 3.23519 0.307943 3.51807 0.397461C3.80452 0.483398 4.0498 0.610514 4.25391 0.778809C4.45801 0.943522 4.61556 1.14404 4.72656 1.38037C4.83757 1.61312 4.89307 1.87451 4.89307 2.16455V6.08008H3.68457V5.27441H3.65771C3.57536 5.43197 3.46257 5.58057 3.31934 5.72021C3.17969 5.85628 3.00065 5.96729 2.78223 6.05322C2.5638 6.13558 2.29525 6.17676 1.97656 6.17676ZM2.25049 5.2207C2.56559 5.2207 2.82878 5.16341 3.04004 5.04883C3.25488 4.93066 3.41423 4.77669 3.51807 4.58691C3.62549 4.39714 3.6792 4.18945 3.6792 3.96387V3.30859C3.63623 3.33724 3.56999 3.36589 3.48047 3.39453C3.39453 3.4196 3.2889 3.44466 3.16357 3.46973C3.04183 3.49479 2.91113 3.51807 2.77148 3.53955C2.63184 3.56104 2.49219 3.58252 2.35254 3.604C2.15202 3.62907 1.96403 3.67562 1.78857 3.74365C1.6167 3.80811 1.47705 3.89762 1.36963 4.01221C1.26579 4.12679 1.21387 4.27718 1.21387 4.46338C1.21387 4.69971 1.30697 4.8859 1.49316 5.02197C1.68294 5.15446 1.93538 5.2207 2.25049 5.2207Z" fill="var(--fill-0, currentColor)"/>
<path d="M9.05545 8.4541C8.57205 8.4541 8.1549 8.38965 7.80398 8.26074C7.45665 8.13542 7.17378 7.96533 6.95535 7.75049C6.74051 7.53564 6.58296 7.30111 6.4827 7.04688L7.56228 6.66553C7.62674 6.78011 7.71805 6.90007 7.83621 7.02539C7.95437 7.15072 8.11193 7.25635 8.30887 7.34229C8.50939 7.42822 8.76362 7.47119 9.07156 7.47119C9.50483 7.47119 9.86111 7.36735 10.1404 7.15967C10.4233 6.95199 10.5647 6.61719 10.5647 6.15527V4.99512H10.4842C10.4161 5.12402 10.3159 5.26725 10.1834 5.4248C10.0509 5.57878 9.86827 5.71126 9.63553 5.82227C9.40636 5.93327 9.11095 5.98877 8.7493 5.98877C8.28022 5.98877 7.8577 5.87777 7.48172 5.65576C7.10574 5.43376 6.80675 5.10612 6.58475 4.67285C6.36274 4.236 6.25174 3.69889 6.25174 3.06152C6.25174 2.41699 6.36095 1.86735 6.57937 1.4126C6.80138 0.954264 7.10037 0.605143 7.47635 0.365234C7.8559 0.121745 8.28559 0 8.76541 0C9.13064 0 9.42784 0.0608724 9.65701 0.182617C9.88618 0.304362 10.067 0.447591 10.1995 0.612305C10.332 0.777018 10.434 0.925618 10.5056 1.05811H10.5862V0.0751953H11.7947V6.20361C11.7947 6.71566 11.6748 7.13818 11.4348 7.47119C11.1949 7.8042 10.8673 8.05127 10.4519 8.2124C10.0401 8.37354 9.57465 8.4541 9.05545 8.4541ZM9.05008 4.979C9.54064 4.979 9.91661 4.80892 10.178 4.46875C10.443 4.125 10.5755 3.65055 10.5755 3.04541C10.5755 2.64437 10.5164 2.29525 10.3982 1.99805C10.2836 1.69727 10.1136 1.46273 9.88797 1.29443C9.66238 1.12614 9.38309 1.04199 9.05008 1.04199C8.71349 1.04199 8.43061 1.13151 8.20144 1.31055C7.97228 1.486 7.8004 1.72412 7.68582 2.0249C7.57124 2.32568 7.51395 2.66585 7.51395 3.04541C7.51395 3.42855 7.57124 3.76514 7.68582 4.05518C7.80398 4.34521 7.97765 4.57259 8.20682 4.7373C8.43598 4.89844 8.71707 4.979 9.05008 4.979Z" fill="var(--fill-0, currentColor)"/>
</g>
</svg>
