<svg width="16" height="16" viewBox="0 0 14.124 13.8548" fill="none" xmlns="http://www.w3.org/2000/svg">
<path id="Union" d="M4.03906 0.160803C4.57527 -0.0536801 5.17371 -0.0535216 5.70996 0.160803L8.78516 1.39029C9.08314 1.50949 9.41588 1.50948 9.71387 1.39029L11.6387 0.620764C12.8291 0.144605 14.1237 1.02137 14.124 2.30338V10.8512C14.1238 11.5921 13.6732 12.2586 12.9854 12.5338L10.085 13.694C9.54872 13.9084 8.95029 13.9084 8.41406 13.694L5.33887 12.4635C5.04098 12.3445 4.70801 12.3444 4.41016 12.4635L2.48535 13.234C1.29493 13.7099 0 12.8326 0 11.5505V3.00358C0.000154572 2.26262 0.451672 1.59616 1.13965 1.32096L4.03906 0.160803ZM5.375 11.4323C5.48838 11.4582 5.60068 11.4912 5.70996 11.5348L8.75 12.7506V2.42057C8.63646 2.39466 8.5235 2.36278 8.41406 2.31901L5.375 1.10319V11.4323ZM13.124 2.30338C13.1237 1.72884 12.5433 1.33606 12.0098 1.54947L10.085 2.31901C9.97572 2.36269 9.86333 2.39468 9.75 2.42057V12.7506L12.6133 11.6051C12.9216 11.4818 13.1238 11.1833 13.124 10.8512V2.30338ZM1.51074 2.24869C1.20242 2.37203 1.00015 2.67153 1 3.00358V11.5505C1 12.1252 1.5806 12.5188 2.11426 12.3053L4.03906 11.5348C4.14862 11.491 4.26132 11.4582 4.375 11.4323V1.10319L1.51074 2.24869Z" fill="var(--fill-0, currentColor)"/>
</svg>
