<svg width="16" height="16" viewBox="0 0 16 16" fill="none" xmlns="http://www.w3.org/2000/svg">
<path d="M10.124 3.17041C10.3059 2.963 10.6214 2.94194 10.8291 3.12354C11.0367 3.30529 11.0575 3.62081 10.876 3.82861L3.87598 11.8286C3.78488 11.9327 3.65482 11.9949 3.5166 11.9995C3.37831 12.0041 3.24433 11.9509 3.14648 11.853L0.146484 8.85303C-0.0486205 8.65775 -0.0487253 8.34121 0.146484 8.146C0.341717 7.95108 0.658337 7.95099 0.853516 8.146L3.47559 10.7681L10.124 3.17041ZM15.124 3.17041C15.3059 2.963 15.6214 2.94195 15.8291 3.12354C16.0367 3.30529 16.0575 3.62081 15.876 3.82861L8.87598 11.8286C8.78488 11.9327 8.65482 11.9949 8.5166 11.9995C8.37831 12.0041 8.24433 11.9509 8.14648 11.853L7.14648 10.853C6.95138 10.6578 6.95127 10.3412 7.14648 10.146C7.34172 9.95108 7.65834 9.95099 7.85352 10.146L8.47559 10.7681L15.124 3.17041Z" fill="currentColor"/>
</svg>
