<svg width="16" height="16" viewBox="0 0 16 16" fill="none" xmlns="http://www.w3.org/2000/svg">
<path fill-rule="evenodd" clip-rule="evenodd" d="M5.27606 2.65397C6.40504 2.07873 7.68714 1.87566 8.93861 2.07388C9.21136 2.11708 9.46748 1.93099 9.51067 1.65825C9.55387 1.38551 9.36779 1.12939 9.09505 1.08619C7.63499 0.854939 6.13921 1.09185 4.82207 1.76296C3.50494 2.43408 2.43407 3.50494 1.76296 4.82207C1.09185 6.13921 0.854939 7.63499 1.08619 9.09505C1.31744 10.5551 2.00498 11.9045 3.05026 12.9498C4.09554 13.995 5.44491 14.6826 6.90497 14.9138C8.36502 15.1451 9.86081 14.9082 11.1779 14.2371C12.4951 13.5659 13.5659 12.4951 14.2371 11.1779C14.9082 9.86081 15.1451 8.36502 14.9138 6.90497C14.8706 6.63222 14.6145 6.44614 14.3418 6.48934C14.069 6.53254 13.8829 6.78866 13.9261 7.0614C14.1244 8.31288 13.9213 9.59498 13.346 10.724C12.7708 11.8529 11.8529 12.7708 10.724 13.346C9.59498 13.9213 8.31288 14.1244 7.0614 13.9261C5.80993 13.7279 4.65332 13.1386 3.75737 12.2426C2.86141 11.3467 2.27209 10.1901 2.07388 8.93861C1.87566 7.68714 2.07873 6.40504 2.65397 5.27607C3.22921 4.14709 4.14709 3.22921 5.27606 2.65397ZM13.6558 3.86207C13.6558 4.6905 12.9842 5.36207 12.1558 5.36207C11.3273 5.36207 10.6558 4.6905 10.6558 3.86207C10.6558 3.03364 11.3273 2.36207 12.1558 2.36207C12.9842 2.36207 13.6558 3.03364 13.6558 3.86207ZM14.6558 3.86207C14.6558 5.24278 13.5365 6.36207 12.1558 6.36207C10.7751 6.36207 9.65577 5.24278 9.65577 3.86207C9.65577 2.48136 10.7751 1.36207 12.1558 1.36207C13.5365 1.36207 14.6558 2.48136 14.6558 3.86207Z" fill="currentColor"/>
</svg>
