<svg width="16" height="16" viewBox="0 0 15.9996 8.99996" fill="none" xmlns="http://www.w3.org/2000/svg">
<path id="Union" d="M10.124 0.170587C10.3059 -0.0370671 10.6213 -0.0580776 10.8291 0.123712C11.0366 0.305553 11.0576 0.621045 10.8759 0.82879L3.87594 8.82879C3.78487 8.93283 3.65475 8.99502 3.51656 8.99969C3.37834 9.00428 3.24428 8.95096 3.14645 8.8532L0.146447 5.8532C-0.0488155 5.65794 -0.0488155 5.34144 0.146447 5.14617C0.341718 4.95102 0.658252 4.95095 0.853478 5.14617L3.47555 7.76824L10.124 0.170587ZM15.124 0.170587C15.3059 -0.0370672 15.6213 -0.0580777 15.8291 0.123712C16.0366 0.305553 16.0576 0.621045 15.8759 0.82879L8.87594 8.82879C8.78487 8.93283 8.65475 8.99502 8.51656 8.99969C8.37834 9.00428 8.24428 8.95096 8.14645 8.8532L7.14645 7.8532C6.95118 7.65794 6.95118 7.34144 7.14645 7.14617C7.34172 6.95102 7.65825 6.95095 7.85348 7.14617L8.47555 7.76824L15.124 0.170587Z" fill="var(--fill-0, currentColor)"/>
</svg>
