<svg width="16" height="16" viewBox="0 0 14.0004 14.0004" fill="none" xmlns="http://www.w3.org/2000/svg">
<path id="Union" fill-rule="evenodd" clip-rule="evenodd" d="M8.09491 0.0861245C6.63506 -0.145018 5.13942 0.0919239 3.82245 0.762882C2.50532 1.434 1.434 2.50532 0.762882 3.82245C0.0919239 5.13942 -0.145018 6.63507 0.0861244 8.09491C0.317375 9.55497 1.00471 10.9051 2.04999 11.9504C3.09528 12.9957 4.44541 13.683 5.90546 13.9142C7.36531 14.1454 8.86095 13.9085 10.1779 13.2375C11.4951 12.5664 12.5664 11.4951 13.2375 10.1779C13.9085 8.86095 14.1454 7.36531 13.9142 5.90546C13.8711 5.63273 13.6147 5.44628 13.342 5.48944C13.0692 5.53264 12.8828 5.78897 12.926 6.06171C13.1242 7.31312 12.9211 8.5949 12.3459 9.72382C11.7706 10.8528 10.8528 11.7706 9.72382 12.3459C8.5949 12.9211 7.31312 13.1242 6.06171 12.926C4.81024 12.7278 3.65396 12.1383 2.758 11.2424C1.86204 10.3464 1.27262 9.19014 1.07441 7.93866C0.876217 6.68725 1.0793 5.40548 1.65448 4.27655C2.22972 3.14758 3.14758 2.22972 4.27655 1.65448C5.40548 1.0793 6.68725 0.876217 7.93866 1.07441C8.21141 1.1176 8.46773 0.931133 8.51093 0.65839C8.5541 0.385666 8.36764 0.12932 8.09491 0.0861245ZM11.1559 1.36225C11.9844 1.36225 12.6559 2.03382 12.6559 2.86225C12.6559 3.69067 11.9844 4.36225 11.1559 4.36225C10.3275 4.36225 9.65595 3.69067 9.65595 2.86225C9.65595 2.03382 10.3275 1.36225 11.1559 1.36225ZM8.65595 2.86225C8.65595 4.24296 9.77524 5.36225 11.1559 5.36225C12.5367 5.36225 13.6559 4.24296 13.6559 2.86225C13.6559 1.48154 12.5367 0.362248 11.1559 0.362248C9.77524 0.362248 8.65595 1.48154 8.65595 2.86225Z" fill="var(--fill-0, currentColor)"/>
</svg>
