<svg width="16" height="16" viewBox="0 0 16 16" fill="none" xmlns="http://www.w3.org/2000/svg">
<path d="M10.9316 1.50781C11.9409 1.58999 12.8104 2.27804 13.1152 3.25781L15.4775 10.8516C15.5085 10.951 15.5068 11.0528 15.4785 11.1455C15.4922 11.2618 15.5 11.38 15.5 11.5C15.5 13.1569 14.1569 14.5 12.5 14.5H3.5C1.84321 14.4999 0.5 13.1568 0.5 11.5C0.5 11.3797 0.507718 11.2611 0.521484 11.1445C0.493474 11.0521 0.491664 10.9507 0.522461 10.8516L2.88477 3.25781C3.20993 2.21264 4.17789 1.50006 5.27246 1.5H10.7275L10.9316 1.50781ZM3.5 9.5C2.39549 9.50007 1.5 10.3955 1.5 11.5C1.5 12.6045 2.39549 13.4999 3.5 13.5H12.5C13.6046 13.5 14.5 12.6046 14.5 11.5C14.5 10.3954 13.6046 9.5 12.5 9.5H3.5ZM6.75 10.75C7.16421 10.75 7.5 11.0858 7.5 11.5C7.5 11.9142 7.16421 12.25 6.75 12.25C6.33579 12.25 6 11.9142 6 11.5C6 11.0858 6.33579 10.75 6.75 10.75ZM9.75 10.75C10.1642 10.75 10.5 11.0858 10.5 11.5C10.5 11.9142 10.1642 12.25 9.75 12.25C9.33579 12.25 9 11.9142 9 11.5C9 11.0858 9.33579 10.75 9.75 10.75ZM12.75 10.75C13.1642 10.75 13.5 11.0858 13.5 11.5C13.5 11.9142 13.1642 12.25 12.75 12.25C12.3358 12.25 12 11.9142 12 11.5C12 11.0858 12.3358 10.75 12.75 10.75ZM5.27246 2.5C4.61574 2.50006 4.03494 2.9276 3.83984 3.55469L2.20898 8.79395C2.60027 8.60691 3.03739 8.50002 3.5 8.5H12.5C12.9623 8.5 13.399 8.6072 13.79 8.79395L12.1602 3.55469C11.9772 2.9667 11.4553 2.55403 10.8496 2.50488L10.7275 2.5H5.27246Z" fill="currentColor"/>
</svg>
