<svg width="16" height="16" viewBox="0 0 15.0003 13" fill="none" xmlns="http://www.w3.org/2000/svg">
<path id="Union" d="M10.4317 0.0078125C11.441 0.0899905 12.3105 0.778043 12.6153 1.75781L14.9776 9.35156C15.0085 9.45102 15.0069 9.55284 14.9786 9.64551C14.9923 9.7618 15.0001 9.88003 15.0001 10C15.0001 11.6569 13.6569 13 12.0001 13H3.00008C1.34329 12.9999 8.13724e-05 11.6568 8.13402e-05 10C8.13402e-05 9.87971 0.0077993 9.76112 0.0215657 9.64453C-0.00644483 9.55214 -0.00825488 9.45067 0.0225423 9.35156L2.38485 1.75781C2.71001 0.712639 3.67797 5.78903e-05 4.77254 0H10.2276L10.4317 0.0078125ZM3.00008 8C1.89557 8.00007 1.00008 8.89548 1.00008 10C1.00008 11.1045 1.89557 11.9999 3.00008 12H12.0001C13.1047 12 14.0001 11.1046 14.0001 10C14.0001 8.89543 13.1047 8 12.0001 8H3.00008ZM6.25008 9.25C6.66429 9.25 7.00008 9.58579 7.00008 10C7.00008 10.4142 6.66429 10.75 6.25008 10.75C5.83587 10.75 5.50008 10.4142 5.50008 10C5.50008 9.58579 5.83587 9.25 6.25008 9.25ZM9.25008 9.25C9.66429 9.25 10.0001 9.58579 10.0001 10C10.0001 10.4142 9.66429 10.75 9.25008 10.75C8.83587 10.75 8.50008 10.4142 8.50008 10C8.50008 9.58579 8.83587 9.25 9.25008 9.25ZM12.2501 9.25C12.6643 9.25 13.0001 9.58579 13.0001 10C13.0001 10.4142 12.6643 10.75 12.2501 10.75C11.8359 10.75 11.5001 10.4142 11.5001 10C11.5001 9.58579 11.8359 9.25 12.2501 9.25ZM4.77254 1C4.11582 1.00006 3.53502 1.4276 3.33993 2.05469L1.70907 7.29395C2.10035 7.10691 2.53747 7.00002 3.00008 7H12.0001C12.4623 7 12.8991 7.1072 13.2901 7.29395L11.6602 2.05469C11.4773 1.4667 10.9554 1.05403 10.3497 1.00488L10.2276 1H4.77254Z" fill="var(--fill-0, currentColor)"/>
</svg>
