<svg width="16" height="16" viewBox="0 0 16 16" fill="none" xmlns="http://www.w3.org/2000/svg">
<path fill-rule="evenodd" clip-rule="evenodd" d="M3.64551 3C3.36937 3 3.14551 3.22386 3.14551 3.5V12.5C3.14551 12.7761 3.36936 13 3.64551 13C3.92165 13 4.14551 12.7761 4.14551 12.5V3.5C4.14551 3.22386 3.92165 3 3.64551 3ZM6.0498 7.99975C6.04981 8.27589 6.27367 8.49975 6.54981 8.49976L12.3427 8.49983L9.86712 10.9755C9.67186 11.1707 9.67186 11.4873 9.86712 11.6826C10.0624 11.8778 10.379 11.8778 10.5742 11.6826L13.9034 8.35343C13.9528 8.30396 13.9898 8.24671 14.0142 8.18561C14.0372 8.12818 14.0498 8.0655 14.0498 7.99986C14.0498 7.92991 14.0354 7.86331 14.0095 7.80286C13.989 7.75503 13.9607 7.70974 13.9246 7.66894C13.917 7.66032 13.9091 7.65196 13.9009 7.64388L10.5741 4.3171C10.3789 4.12184 10.0623 4.12184 9.86703 4.3171C9.67177 4.51236 9.67177 4.82895 9.86703 5.02421L12.3427 7.49983L6.5498 7.49976C6.27366 7.49975 6.0498 7.72361 6.0498 7.99975Z" fill="currentColor"/>
</svg>
