<svg width="16" height="16" viewBox="0 0 10.9042 10" fill="none" xmlns="http://www.w3.org/2000/svg">
<path id="Union" d="M10.4042 0C10.6803 -2.21785e-10 10.9042 0.223858 10.9042 0.5V9.5C10.9042 9.77614 10.6803 10 10.4042 10C10.128 10 9.90418 9.77614 9.90418 9.5V0.5C9.90418 0.223858 10.128 1.03454e-08 10.4042 0ZM3.47546 1.31738C3.67071 1.12214 3.98723 1.12218 4.1825 1.31738C4.37763 1.51266 4.37772 1.82919 4.1825 2.02441L1.70691 4.5H7.49988C7.77602 4.5 7.99987 4.72386 7.99988 5C7.99975 5.27603 7.77594 5.5 7.49988 5.5H1.70691L4.1825 7.97559C4.37761 8.17084 4.37766 8.48739 4.1825 8.68262C3.98726 8.87772 3.67069 8.87772 3.47546 8.68262L0.146363 5.35352C-0.0488123 5.15829 -0.0487628 4.84174 0.146363 4.64648L3.47546 1.31738Z" fill="var(--fill-0, currentColor)"/>
</svg>
