<svg width="16" height="16" viewBox="0 0 16 16" fill="none" xmlns="http://www.w3.org/2000/svg">
<path d="M12.3535 3C12.6297 3 12.8535 3.22386 12.8535 3.5V12.5C12.8535 12.7761 12.6297 13 12.3535 13C12.0774 13 11.8535 12.7761 11.8535 12.5V3.5C11.8535 3.22386 12.0774 3 12.3535 3ZM5.4248 4.31738C5.62005 4.12214 5.93657 4.12218 6.13184 4.31738C6.32698 4.51266 6.32706 4.82919 6.13184 5.02441L3.65625 7.5H9.44922C9.72536 7.5 9.94921 7.72386 9.94922 8C9.94909 8.27603 9.72528 8.5 9.44922 8.5H3.65625L6.13184 10.9756C6.32695 11.1708 6.327 11.4874 6.13184 11.6826C5.9366 11.8777 5.62004 11.8777 5.4248 11.6826L2.0957 8.35352C1.90053 8.15829 1.90058 7.84174 2.0957 7.64648L5.4248 4.31738Z" fill="currentColor"/>
</svg>
