<svg width="16" height="16" viewBox="0 0 10.9043 10" fill="none" xmlns="http://www.w3.org/2000/svg">
<path id="Union" fill-rule="evenodd" clip-rule="evenodd" d="M9.9043 9.5V0.5C9.9043 0.223858 10.1282 0 10.4043 0C10.6804 0 10.9043 0.223858 10.9043 0.5V9.5C10.9043 9.77614 10.6804 10 10.4043 10C10.1282 10 9.9043 9.77614 9.9043 9.5ZM0.154496 5.36128C0.0592935 5.27025 -1.67471e-06 5.14198 0 4.99986C1.10543e-06 4.92627 0.0158989 4.8564 0.0444465 4.79348C0.0685993 4.74011 0.102611 4.69011 0.146484 4.64624L3.47559 1.31714C3.67083 1.1219 3.98735 1.12194 4.18262 1.31714C4.37788 1.5124 4.37788 1.82891 4.18262 2.02417L1.70695 4.49983L7.50001 4.49976C7.77615 4.49975 8 4.72361 8 4.99975C8 5.27589 7.77614 5.49975 7.49999 5.49976L1.70711 5.49983L4.18262 7.97534C4.37786 8.17058 4.37782 8.48711 4.18262 8.68237C3.98735 8.87764 3.67085 8.87764 3.47559 8.68237L0.154496 5.36128Z" fill="var(--fill-0, currentColor)"/>
</svg>
