<svg width="16" height="16" viewBox="0 0 13.9995 11.0319" fill="none" xmlns="http://www.w3.org/2000/svg">
<path id="Union" fill-rule="evenodd" clip-rule="evenodd" d="M8.90771 0.146447C8.71245 -0.0488155 8.39595 -0.0488155 8.20068 0.146447C8.00542 0.341709 8.00542 0.658216 8.20068 0.853478L12.2927 4.94552H5.46759C5.4602 4.94519 5.45278 4.94503 5.44531 4.94503H5.30371C2.92681 4.94485 1 3.01827 1 0.64132C1 0.365177 0.776142 0.14132 0.5 0.14132C0.223858 0.14132 0 0.365177 0 0.64132C0 2.81013 1.30224 4.67371 3.16699 5.49581C1.29039 6.39992 0.000182252 8.31846 0 10.5319C0 10.8081 0.223858 11.0319 0.5 11.0319C0.776142 11.0319 1 10.8081 1 10.5319C1.00025 8.05439 2.96903 6.0248 5.44397 5.94552L5.4458 5.94552H12.2922L8.20068 10.0371C8.00542 10.2323 8.00542 10.5498 8.20068 10.7451C8.39588 10.94 8.71252 10.94 8.90771 10.7451L13.8423 5.80954C13.9391 5.71836 13.9995 5.589 13.9995 5.44552C13.9995 5.39274 13.9913 5.34187 13.9762 5.2941C13.9528 5.22009 13.9117 5.15045 13.853 5.09176L8.90771 0.146447Z" fill="var(--fill-0, currentColor)"/>
</svg>
