<svg width="16" height="16" viewBox="0 0 10.9043 10" fill="none" xmlns="http://www.w3.org/2000/svg">
<path id="Union" fill-rule="evenodd" clip-rule="evenodd" d="M9.9043 9.5V0.5C9.9043 0.223858 10.1282 0 10.4043 0C10.6804 0 10.9043 0.223858 10.9043 0.5V9.5C10.9043 9.77614 10.6804 10 10.4043 10C10.1282 10 9.9043 9.77614 9.9043 9.5ZM7.84551 5.36128C7.94071 5.27025 8 5.14198 8 4.99986C8 4.92664 7.98426 4.85711 7.95599 4.79444C7.93181 4.74071 7.89765 4.69038 7.85352 4.64624L4.52441 1.31714C4.32917 1.1219 4.01265 1.12194 3.81738 1.31714C3.62212 1.5124 3.62212 1.82891 3.81738 2.02417L6.29305 4.49983L0.499993 4.49976C0.223851 4.49975 -3.73081e-06 4.72361 0 4.99975C3.6713e-06 5.27589 0.223864 5.49975 0.500007 5.49976L6.29289 5.49983L3.81738 7.97534C3.62214 8.17058 3.62218 8.48711 3.81738 8.68237C4.01265 8.87764 4.32915 8.87764 4.52441 8.68237L7.84551 5.36128Z" fill="var(--fill-0, currentColor)"/>
</svg>
