<svg width="16" height="16" viewBox="0 0 16 16" fill="none" xmlns="http://www.w3.org/2000/svg">
<path fill-rule="evenodd" clip-rule="evenodd" d="M9.90775 2.64645C9.71249 2.45118 9.39591 2.45118 9.20065 2.64645C9.00538 2.84171 9.00538 3.15829 9.20065 3.35355L13.2926 7.44556H6.4458H6.44555V7.4454H6.30404C3.92698 7.4454 2 5.51841 2 3.14136C2 2.86521 1.77614 2.64136 1.5 2.64136C1.22386 2.64136 1 2.86521 1 3.14136C1 5.30936 2.30074 7.17356 4.16438 7.99613C2.28885 8.90075 1 10.8196 1 13.0325C1 13.3086 1.22386 13.5325 1.5 13.5325C1.77614 13.5325 2 13.3086 2 13.0325C2 10.5534 3.97081 8.52286 6.44772 8.44556H13.2926L9.20065 12.5375C9.00538 12.7328 9.00538 13.0494 9.20065 13.2446C9.39591 13.4399 9.71249 13.4399 9.90775 13.2446L14.8442 8.30825C14.9401 8.21714 15 8.08834 15 7.94556C15 7.80297 14.9403 7.67432 14.8445 7.58323L9.90775 2.64645Z" fill="currentColor"/>
</svg>
