<svg width="16" height="16" viewBox="0 0 16 16" fill="none" xmlns="http://www.w3.org/2000/svg">
<path fill-rule="evenodd" clip-rule="evenodd" d="M1 4C1 2.34315 2.34315 1 4 1H12C13.6569 1 15 2.34315 15 4V12C15 13.6569 13.6569 15 12 15H4C2.34315 15 1 13.6569 1 12V4ZM4 2C2.89543 2 2 2.89543 2 4V4.5H14V4C14 2.89543 13.1046 2 12 2H4ZM2 12V5.5H14V12C14 13.1046 13.1046 14 12 14H4C2.89543 14 2 13.1046 2 12ZM9.28777 7.6857C9.39033 7.4293 9.26562 7.13832 9.00923 7.03576C8.75284 6.93321 8.46185 7.05791 8.35929 7.3143L6.62219 11.6571C6.51963 11.9135 6.64434 12.2044 6.90073 12.307C7.15712 12.4096 7.44811 12.2849 7.55066 12.0285L9.28777 7.6857ZM9.81246 7.82125C10.0077 7.62599 10.3243 7.62599 10.5196 7.82125L12.2567 9.55836C12.3504 9.65213 12.4031 9.7793 12.4031 9.91191C12.4031 10.0445 12.3504 10.1717 12.2567 10.2655L10.5196 12.0026C10.3243 12.1978 10.0077 12.1978 9.81246 12.0026C9.6172 11.8073 9.6172 11.4907 9.81246 11.2955L11.196 9.91191L9.81246 8.52836C9.6172 8.3331 9.6172 8.01651 9.81246 7.82125ZM6.09066 8.52836C6.28592 8.3331 6.28592 8.01651 6.09066 7.82125C5.8954 7.62599 5.57881 7.62599 5.38355 7.82125L3.64645 9.55836C3.45118 9.75362 3.45118 10.0702 3.64645 10.2655L5.38355 12.0026C5.57881 12.1978 5.8954 12.1978 6.09066 12.0026C6.28592 11.8073 6.28592 11.4907 6.09066 11.2955L4.70711 9.91191L6.09066 8.52836Z" fill="currentColor"/>
</svg>
