<svg width="16" height="16" viewBox="0 0 14 14" fill="none" xmlns="http://www.w3.org/2000/svg">
<path id="Union" fill-rule="evenodd" clip-rule="evenodd" d="M13 3C13 1.89543 12.1046 1 11 1H3C1.89543 1 1 1.89543 1 3V3.5H13V3ZM1 11V4.5H13V11C13 12.1046 12.1046 13 11 13H3C1.89543 13 1 12.1046 1 11ZM14 11C14 12.6569 12.6569 14 11 14H3C1.34315 14 0 12.6569 0 11V3C0 1.34315 1.34315 0 3 0H11C12.6569 0 14 1.34315 14 3V11ZM8.00928 6.03613C7.75289 5.93358 7.46144 6.05806 7.35889 6.31445L5.62256 10.6572C5.52001 10.9136 5.64449 11.2041 5.90088 11.3066C6.15727 11.4092 6.44773 11.2847 6.55029 11.0283L8.2876 6.68555C8.39008 6.42923 8.26553 6.13874 8.00928 6.03613ZM8.8125 6.82129C9.00776 6.62603 9.32427 6.62603 9.51953 6.82129L11.2568 8.55859C11.3505 8.65234 11.4033 8.77959 11.4033 8.91211C11.4033 9.04465 11.3506 9.1719 11.2568 9.26562L9.51953 11.0029C9.32432 11.1979 9.00771 11.1979 8.8125 11.0029C8.6173 10.8077 8.61744 10.4912 8.8125 10.2959L10.1963 8.91211L8.8125 7.52832C8.61724 7.33306 8.61724 7.01655 8.8125 6.82129ZM5.09082 6.82129C4.89559 6.62606 4.57906 6.62613 4.38379 6.82129L2.64648 8.55859C2.45132 8.75386 2.45126 9.0704 2.64648 9.26562L4.38379 11.0029C4.57904 11.1979 4.89565 11.198 5.09082 11.0029C5.28598 10.8078 5.28578 10.4912 5.09082 10.2959L3.70703 8.91211L5.09082 7.52832C5.28595 7.33308 5.28595 7.01653 5.09082 6.82129Z" fill="var(--fill-0, currentColor)"/>
</svg>
