<svg width="16" height="16" viewBox="0 0 16 16" fill="none" xmlns="http://www.w3.org/2000/svg">
<g id="icon/line/minus-people" clip-path="url(#clip0_0_1842)">
<path id="Union" d="M8.00041 0.852783C8.27644 0.852915 8.50041 1.07672 8.50041 1.35278C8.50041 1.62884 8.27644 1.85265 8.00041 1.85278C4.60539 1.85278 1.85294 4.60523 1.85294 8.00024C1.85301 9.77384 2.60543 11.3706 3.80705 12.4924C4.1946 11.9822 4.67536 11.546 5.22794 11.2092C6.0402 10.7144 6.97484 10.4524 7.92716 10.4524C8.87933 10.4525 9.81328 10.7145 10.6254 11.2092C11.2068 11.5635 11.7075 12.0287 12.1049 12.5735C13.3578 11.4483 14.1468 9.81696 14.1469 8.00024C14.1469 7.72426 14.371 7.50051 14.6469 7.50024C14.923 7.50024 15.1469 7.7241 15.1469 8.00024C15.1468 11.9473 11.9475 15.1466 8.00041 15.1467C4.05319 15.1467 0.853077 11.9474 0.852945 8.00024C0.852945 4.05295 4.05311 0.852783 8.00041 0.852783ZM7.92716 11.4524C7.15804 11.4524 6.40366 11.6636 5.74845 12.0627C5.29672 12.338 4.90459 12.6955 4.59025 13.1135C5.56623 13.7655 6.73857 14.1467 8.00041 14.1467C9.21948 14.1467 10.3544 13.79 11.31 13.178C10.988 12.7323 10.5796 12.352 10.1049 12.0627C9.44987 11.6638 8.69604 11.4525 7.92716 11.4524ZM7.92716 3.84985C9.4526 3.85015 10.6955 5.07938 10.6957 6.60278C10.6957 8.12635 9.45271 9.35639 7.92716 9.35669C6.40136 9.35669 5.15866 8.12653 5.15861 6.60278C5.15886 5.0792 6.40148 3.84985 7.92716 3.84985ZM7.92716 4.84985C6.94746 4.84985 6.15886 5.63777 6.15861 6.60278C6.15866 7.56796 6.94734 8.35669 7.92716 8.35669C8.90673 8.35639 9.69567 7.56778 9.69572 6.60278C9.69547 5.63795 8.90661 4.85015 7.92716 4.84985ZM15.0004 2.50024C15.2763 2.50051 15.5004 2.72426 15.5004 3.00024C15.5001 3.276 15.2762 3.49998 15.0004 3.50024H11.0004C10.7244 3.50024 10.5007 3.27616 10.5004 3.00024C10.5004 2.7241 10.7243 2.50024 11.0004 2.50024H15.0004Z" fill="var(--fill-0, currentColor)"/>
</g>
<defs>
<clipPath id="clip0_0_1842">
<rect width="16" height="16" fill="white"/>
</clipPath>
</defs>
</svg>
