<svg width="16" height="16" viewBox="0 0 12.4478 12.4948" fill="none" xmlns="http://www.w3.org/2000/svg">
<path id="Union" fill-rule="evenodd" clip-rule="evenodd" d="M2.84335 0L2.97128 0.00585938C3.60474 0.0598215 4.1418 0.510002 4.29843 1.13574L4.44296 1.71484C4.80965 3.18179 4.19287 4.71818 2.91367 5.52441L2.16757 5.99414C2.23357 6.12731 2.30103 6.25853 2.37167 6.38672L2.51328 6.63379V6.63477C3.33259 8.02898 4.4799 9.20284 5.85507 10.0537H5.85605C6.06381 10.1827 6.27937 10.2977 6.4996 10.4062L6.9039 9.71289C7.70526 8.33616 9.33536 7.67435 10.8697 8.10254L11.3502 8.23633C11.9977 8.41723 12.4461 9.00734 12.4469 9.67969L12.4478 10.4082C12.4485 10.9241 12.2829 11.4573 11.9674 11.8584C11.6438 12.2696 11.1408 12.5591 10.5201 12.4824V12.4834L10.4498 12.4746C9.04683 12.303 7.71577 12.031 6.50546 11.5137C6.42032 11.4773 6.33553 11.4393 6.25156 11.4004C5.9349 11.2537 5.6264 11.0888 5.32773 10.9033V10.9023C3.81501 9.96603 2.55334 8.67541 1.65195 7.1416V7.14258C1.43952 6.78249 1.24509 6.40437 1.06992 6.01172C0.546638 4.83874 0.190923 3.53055 0.0240172 2.16895L0.0220641 2.15527V2.14258C0.0186336 2.09413 0.0147515 2.04657 0.0109357 1.99983L0.0064391 1.94434C-0.0387088 1.37858 0.155571 0.878254 0.52597 0.524414C0.889926 0.176868 1.39173 4.30206e-05 1.92343 0H2.84335ZM10.6012 9.06543C9.50505 8.75947 8.34052 9.23319 7.76816 10.2168L7.42831 10.7979C8.37997 11.1358 9.4286 11.3416 10.5719 11.4814L10.6422 11.4902C10.848 11.5158 11.0282 11.4338 11.1812 11.2393C11.3425 11.0342 11.4482 10.7265 11.4478 10.4092L11.4469 9.68066C11.4466 9.45652 11.2965 9.25948 11.0807 9.19922L10.6012 9.06543ZM1.80917 1.00488C1.54949 1.02663 1.34801 1.12139 1.2164 1.24707C1.07265 1.38437 0.981271 1.58665 1.00351 1.86523C1.00856 1.92848 1.01334 1.99394 1.01816 2.06152C1.14898 3.11951 1.40328 4.13566 1.7623 5.06738L2.38046 4.67871C3.29427 4.10283 3.73521 3.00491 3.47324 1.95703L3.3287 1.37891C3.27998 1.18403 3.12024 1.03965 2.92734 1.00684L2.84335 1H1.92343L1.80917 1.00488ZM8.36704 0.188502C8.5623 -0.00676061 8.87881 -0.00676061 9.07407 0.188502L10.3114 1.42581L11.5487 0.188502C11.7439 -0.00670395 12.0604 -0.00659066 12.2557 0.188502C12.451 0.383764 12.451 0.700271 12.2557 0.895533L11.0184 2.13284L12.2557 3.37014C12.451 3.5654 12.451 3.88191 12.2557 4.07717C12.0604 4.27244 11.7439 4.27244 11.5487 4.07717L10.3114 2.83987L9.07407 4.07717C8.87881 4.27244 8.5623 4.27244 8.36704 4.07717C8.17195 3.8819 8.17183 3.56535 8.36704 3.37014L9.60434 2.13284L8.36704 0.895533C8.17178 0.700271 8.17178 0.383764 8.36704 0.188502Z" fill="var(--fill-0, currentColor)"/>
</svg>
