<svg width="16" height="16" viewBox="0 0 9.5 14" fill="none" xmlns="http://www.w3.org/2000/svg">
<path id="Union" fill-rule="evenodd" clip-rule="evenodd" d="M8.5 1.36621C8.49979 1.10879 8.32576 1.0002 8.22754 1H7V1.46558C7 2.01786 6.55228 2.46558 6 2.46558H3.5C2.94772 2.46558 2.5 2.01786 2.5 1.46558V1H1.27246C1.17424 1.0002 1.00021 1.10879 1 1.36621V12.6338L1.00781 12.7236C1.04267 12.9167 1.18655 12.9998 1.27246 13H8.22754C8.32576 12.9998 8.49979 12.8912 8.5 12.6338V1.36621ZM3.5 1V1.46558H6V1H3.5ZM9.5 12.6338C9.49977 13.3329 8.98253 13.9998 8.22754 14H1.27246C0.564413 13.9999 0.0653538 13.4132 0.00585938 12.7637L0 12.6338V1.36621C0.000224718 0.667149 0.51747 0.000156815 1.27246 0H8.22754C8.98253 0.000156955 9.49977 0.667149 9.5 1.36621V12.6338ZM4.75 12.2524C5.09518 12.2524 5.375 11.9726 5.375 11.6274C5.375 11.2823 5.09518 11.0024 4.75 11.0024C4.40482 11.0024 4.125 11.2823 4.125 11.6274C4.125 11.9726 4.40482 12.2524 4.75 12.2524Z" fill="var(--fill-0, currentColor)"/>
</svg>
