<svg width="16" height="16" viewBox="0 0 11.9999 8.49996" fill="none" xmlns="http://www.w3.org/2000/svg">
<path id="Union" d="M7.64648 0.146447C7.84175 -0.0488155 8.15825 -0.0488155 8.35352 0.146447L11.8535 3.64645C11.8874 3.6803 11.9134 3.71887 11.9355 3.75875C11.9601 3.80295 11.98 3.8502 11.9902 3.90133C12.0032 3.96607 12.0031 4.03286 11.9902 4.09762C11.9801 4.1488 11.96 4.19593 11.9355 4.2402C11.9134 4.28036 11.8876 4.31941 11.8535 4.35348L8.35352 7.85348C8.15825 8.04874 7.84175 8.04874 7.64648 7.85348C7.45122 7.65822 7.45122 7.34171 7.64648 7.14645L10.293 4.49996H4.5C2.567 4.49996 1 6.06697 1 7.99996C1 8.2761 0.776142 8.49996 0.5 8.49996C0.223858 8.49996 0 8.2761 0 7.99996C0 5.51468 2.01472 3.49996 4.5 3.49996H10.293L7.64648 0.853478C7.45122 0.658216 7.45122 0.341709 7.64648 0.146447Z" fill="var(--fill-0, currentColor)"/>
</svg>
