<svg width="16" height="16" viewBox="0 0 14 13" fill="none" xmlns="http://www.w3.org/2000/svg">
<path id="Union" d="M13.4814 0.0136719C13.7774 0.0744827 14 0.336462 14 0.650391V11C14 12.1046 13.1046 13 12 13H2C0.895431 13 0 12.1046 0 11V2.03418C0.000235252 1.67539 0.291552 1.38477 0.650391 1.38477H6.83398L8.49219 0.148438L8.59375 0.0849609C8.70021 0.0295231 8.81923 0 8.94043 0H13.3496L13.4814 0.0136719ZM7.43164 2.18652C7.259 2.31516 7.04929 2.38477 6.83398 2.38477H1V11C1 11.5523 1.44772 12 2 12H12C12.5523 12 13 11.5523 13 11V1H9.02344L7.43164 2.18652ZM7.22656 3.84766C7.42178 3.65263 7.73838 3.65263 7.93359 3.84766L10.9336 6.84766C11.1288 7.04286 11.1287 7.35941 10.9336 7.55469L7.93359 10.5547C7.73833 10.7499 7.42182 10.7499 7.22656 10.5547C7.03148 10.3594 7.03136 10.0429 7.22656 9.84766L9.37305 7.70117H3.41992C3.14378 7.70117 2.91992 7.47731 2.91992 7.20117C2.92012 6.92519 3.1439 6.70117 3.41992 6.70117H9.37305L7.22656 4.55469C7.03148 4.35941 7.03136 4.04286 7.22656 3.84766Z" fill="var(--fill-0, currentColor)"/>
</svg>
