<svg width="16" height="16" viewBox="0 0 16 16" fill="none" xmlns="http://www.w3.org/2000/svg">
<path d="M9.64648 3.64648C9.84175 3.45122 10.1583 3.45122 10.3535 3.64648L13.8535 7.14648C13.8874 7.18034 13.9134 7.21891 13.9355 7.25879C13.9601 7.30299 13.98 7.35024 13.9902 7.40137C14.0032 7.46611 14.0031 7.5329 13.9902 7.59766C13.9801 7.64884 13.96 7.69596 13.9355 7.74023C13.9134 7.7804 13.8876 7.81945 13.8535 7.85352L10.3535 11.3535C10.1583 11.5488 9.84175 11.5488 9.64648 11.3535C9.45122 11.1583 9.45122 10.8417 9.64648 10.6465L12.293 8H6.5C4.567 8 3 9.567 3 11.5C3 11.7761 2.77614 12 2.5 12C2.22386 12 2 11.7761 2 11.5C2 9.01472 4.01472 7 6.5 7H12.293L9.64648 4.35352C9.45122 4.15825 9.45122 3.84175 9.64648 3.64648Z" fill="currentColor"/>
</svg>
