<svg width="16" height="16" viewBox="0 0 12.375 6.75" fill="none" xmlns="http://www.w3.org/2000/svg">
<path id="Union" d="M0.875 5C1.35825 5 1.75 5.39175 1.75 5.875C1.75 6.35825 1.35825 6.75 0.875 6.75C0.391751 6.75 0 6.35825 0 5.875C0 5.39175 0.391751 5 0.875 5ZM11.875 5.375C12.1511 5.375 12.375 5.59886 12.375 5.875C12.375 6.15114 12.1511 6.375 11.875 6.375H3.875C3.59886 6.375 3.375 6.15114 3.375 5.875C3.375 5.59886 3.59886 5.375 3.875 5.375H11.875ZM0.875 0C1.35825 0 1.75 0.391751 1.75 0.875C1.75 1.35825 1.35825 1.75 0.875 1.75C0.391751 1.75 0 1.35825 0 0.875C0 0.391751 0.391751 0 0.875 0ZM11.875 0.375C12.1511 0.375 12.375 0.598858 12.375 0.875C12.375 1.15114 12.1511 1.375 11.875 1.375H3.875C3.59886 1.375 3.375 1.15114 3.375 0.875C3.375 0.598858 3.59886 0.375 3.875 0.375H11.875Z" fill="var(--fill-0, currentColor)"/>
</svg>
