<svg width="16" height="16" viewBox="0 0 12.5005 13.7768" fill="none" xmlns="http://www.w3.org/2000/svg">
<path id="Union" d="M5.36241 7.2651C6.35166 7.31184 7.48466 7.63372 8.46494 8.19772C9.44352 8.76083 10.3158 9.5927 10.7081 10.685C10.9538 11.3692 10.695 12.1056 10.1144 12.5102C9.31957 13.064 7.81132 13.7768 5.34092 13.7768C2.81844 13.7767 1.35204 13.0334 0.606546 12.4682C0.0891788 12.0759 -0.138841 11.3981 0.087015 10.7661C0.44756 9.7579 1.29314 8.86663 2.24912 8.24362C3.20469 7.62094 4.34628 7.21726 5.36241 7.2651ZM5.31846 8.19967C4.55751 8.16383 3.60837 8.47487 2.75987 9.0278C1.91183 9.58049 1.23879 10.3262 0.968851 11.0805C0.887698 11.3075 0.962506 11.5632 1.17198 11.7221C1.74981 12.1602 3.01627 12.8402 5.34092 12.8403C7.61858 12.8403 8.94029 12.1868 9.5792 11.7417C9.82852 11.5677 9.9235 11.2695 9.82725 11.0014C9.53358 10.1837 8.8552 9.50243 7.99815 9.00924C7.14286 8.51714 6.15447 8.23917 5.31846 8.19967ZM8.63487 6.14596C9.37528 6.35372 10.1914 6.83725 10.8829 7.45358C11.5742 8.06983 12.1885 8.86075 12.4747 9.7192C12.562 9.98118 12.4203 10.2647 12.1583 10.352C11.8964 10.4392 11.6128 10.2975 11.5255 10.0356C11.3117 9.39425 10.8255 8.74216 10.2169 8.19967C9.60856 7.65755 8.92422 7.26574 8.36534 7.10885C8.09973 7.03418 7.9443 6.75833 8.01866 6.49264C8.09321 6.22695 8.36916 6.07173 8.63487 6.14596ZM5.62119 1.2778C7.04268 1.27806 8.19541 2.43047 8.19541 3.85202C8.19503 5.27324 7.04245 6.42598 5.62119 6.42624C4.19972 6.42624 3.04736 5.2734 3.04698 3.85202C3.04698 2.43031 4.19949 1.2778 5.62119 1.2778ZM5.62119 2.21335C4.71647 2.21335 3.98252 2.94729 3.98252 3.85202C3.9829 4.75642 4.71671 5.48971 5.62119 5.48971C6.52546 5.48945 7.25851 4.75625 7.25889 3.85202C7.25889 2.94746 6.5257 2.21361 5.62119 2.21335ZM7.68467 0.0219391C9.04141 0.437541 10.0293 1.70074 10.0294 3.19479C10.0292 3.47063 9.80524 3.69459 9.5294 3.69479C9.25341 3.69476 9.02961 3.47074 9.0294 3.19479C9.02927 2.1525 8.34004 1.26951 7.3917 0.97897C7.12778 0.898047 6.97887 0.617933 7.05967 0.35397C7.14063 0.0901714 7.42079 -0.0587637 7.68467 0.0219391Z" fill="var(--fill-0, currentColor)"/>
</svg>
