<svg width="16" height="16" viewBox="0 0 13.9741 13.0004" fill="none" xmlns="http://www.w3.org/2000/svg">
<path id="Union " fill-rule="evenodd" clip-rule="evenodd" d="M8.9873 0.0568272C8.82256 -0.0291643 8.62343 -0.016885 8.4707 0.0890537L3.88281 3.27265H1.67969C1.24632 3.27265 0.823266 3.43218 0.505859 3.72577C0.18737 4.02048 0.000101788 4.42863 0 4.86347V8.1369C0.000101762 8.57175 0.18737 8.9799 0.505859 9.2746C0.823265 9.56819 1.24632 9.72773 1.67969 9.72773H3.05249L0.633301 12.1469C0.438039 12.3422 0.438039 12.6587 0.633301 12.8539C0.825311 13.046 1.13456 13.0492 1.33048 12.8635C1.33896 12.8536 1.3479 12.8439 1.35729 12.8346L13.3573 0.834552C13.3605 0.8313 13.3638 0.828103 13.3671 0.82496C13.5351 0.628521 13.5262 0.332786 13.3403 0.146914C13.1451 -0.0483484 12.8286 -0.0483484 12.6333 0.146914L9.25586 3.52436V0.500187C9.25586 0.314129 9.15215 0.143099 8.9873 0.0568272ZM12.6162 2.9897L11.9079 3.69802C12.1906 4.01586 12.4243 4.37537 12.6001 4.76478C12.8463 5.31012 12.9741 5.9018 12.9741 6.50013C12.9741 7.09849 12.8463 7.69011 12.6001 8.23548C12.3539 8.78087 11.9942 9.26742 11.5454 9.66322C11.3383 9.84587 11.3188 10.1622 11.5015 10.3693C11.6841 10.5764 12.0004 10.5959 12.2075 10.4132C12.7626 9.92364 13.2067 9.32117 13.5112 8.64662C13.8157 7.97197 13.9741 7.24031 13.9741 6.50013C13.9741 5.75993 13.8158 5.0283 13.5112 4.35365C13.2856 3.85387 12.9834 3.39371 12.6162 2.9897ZM9.25586 6.35005L8.25586 7.35005V11.5441L5.77938 9.82653L5.06078 10.5451L8.4707 12.9113C8.62343 13.0173 8.82256 13.0295 8.9873 12.9435C9.15215 12.8573 9.25586 12.6862 9.25586 12.5002V6.35005ZM4.05146 8.72875L8.25586 4.52436V1.45526L4.32324 4.18378C4.23955 4.24184 4.13994 4.27265 4.03809 4.27265H1.67969C1.48746 4.27265 1.30953 4.34359 1.18457 4.45917C1.06106 4.57344 1.0001 4.72002 1 4.86347V8.1369C1.0001 8.28035 1.06106 8.42693 1.18457 8.5412C1.30953 8.65679 1.48746 8.72773 1.67969 8.72773H4.03809L4.05146 8.72875Z" fill="var(--fill-0, currentColor)"/>
</svg>
