<svg width="16" height="16" viewBox="0 0 10.7998 15" fill="none" xmlns="http://www.w3.org/2000/svg">
<path id="Union" d="M10.2998 5.60059C10.5759 5.60059 10.7998 5.82444 10.7998 6.10059V7.50098C10.7994 10.3141 8.64775 12.6225 5.90039 12.875V14H8.2002C8.47598 14.0003 8.69998 14.2242 8.7002 14.5C8.70006 14.7759 8.47603 14.9997 8.2002 15H2.60059C2.32453 15 2.10072 14.776 2.10059 14.5C2.1008 14.224 2.32457 14 2.60059 14H4.90039V12.875C2.15279 12.6227 0.000448073 10.3143 0 7.50098V6.10059C0 5.82444 0.223858 5.60059 0.5 5.60059C0.776142 5.60059 1 5.82444 1 6.10059V7.50098C1.00047 9.93063 2.97063 11.9004 5.40039 11.9004C7.82997 11.9002 9.79933 9.9305 9.7998 7.50098V6.10059C9.7998 5.82451 10.0238 5.60069 10.2998 5.60059ZM5.39941 0C6.83522 0 7.99979 1.16385 8 2.59961V7.5C8 8.93594 6.83535 10.0996 5.39941 10.0996C3.96365 10.0994 2.7998 8.93581 2.7998 7.5V2.59961C2.80002 1.16398 3.96378 0.000211145 5.39941 0ZM5.39941 1C4.51607 1.00021 3.80002 1.71626 3.7998 2.59961V7.5C3.7998 8.38353 4.51594 9.0994 5.39941 9.09961C6.28307 9.09961 7 8.38366 7 7.5V2.59961C6.99979 1.71613 6.28294 1 5.39941 1Z" fill="var(--fill-0, currentColor)"/>
</svg>
