<svg width="16" height="16" viewBox="0 0 16 16" fill="none" xmlns="http://www.w3.org/2000/svg">
<path d="M7.22754 1.59912C7.37 1.50707 7.55041 1.49339 7.70508 1.56299L12.1689 3.57568C12.3425 3.65393 12.4573 3.82385 12.4639 4.01416C12.4704 4.20443 12.368 4.38217 12.2002 4.47217L7.99902 6.7251V9.48096H8C9.72363 9.48105 11.3768 10.1656 12.5957 11.3843C13.2876 12.0762 13.8078 12.9087 14.1279 13.814C14.1819 13.9669 14.1581 14.1376 14.0645 14.27C13.9707 14.4022 13.8183 14.481 13.6562 14.481H2.34277C2.18064 14.481 2.02831 14.4023 1.93457 14.27C1.8409 14.1376 1.81709 13.9669 1.87109 13.814C2.19121 12.9087 2.71139 12.0763 3.40332 11.3843C4.38378 10.4039 5.64575 9.7699 6.99902 9.55908V2.01904C6.99903 1.84951 7.08527 1.69127 7.22754 1.59912ZM8 10.481C6.54131 10.481 5.1418 11.0608 4.11035 12.0923C3.69972 12.503 3.36279 12.9731 3.10352 13.481H12.8965C12.6372 12.973 12.2994 12.5031 11.8887 12.0923C10.8573 11.0609 9.45856 10.4811 8 10.481ZM7.99902 5.58936L10.833 4.06982L7.99902 2.79248V5.58936Z" fill="currentColor"/>
</svg>
