<svg width="16" height="16" viewBox="0 0 12.3137 12.962" fill="none" xmlns="http://www.w3.org/2000/svg">
<path id="Union" d="M5.3849 0.0801226C5.52736 -0.0119285 5.70777 -0.0256105 5.86244 0.0439898L10.3263 2.05669C10.4999 2.13493 10.6147 2.30485 10.6212 2.49516C10.6277 2.68543 10.5253 2.86318 10.3576 2.95317L6.15638 5.2061V7.96196H6.15736C7.88099 7.96206 9.53419 8.64657 10.7531 9.86528C11.445 10.5572 11.9652 11.3897 12.2853 12.295C12.3393 12.4479 12.3155 12.6186 12.2218 12.751C12.1281 12.8832 11.9757 12.962 11.8136 12.962H0.500131C0.337997 12.962 0.185668 12.8833 0.0919277 12.751C-0.00173984 12.6186 -0.0255545 12.4479 0.0284511 12.295C0.348571 11.3897 0.868743 10.5573 1.56068 9.86528C2.54114 8.8849 3.80311 8.2509 5.15638 8.04008V0.500044C5.15639 0.330513 5.24262 0.172269 5.3849 0.0801226ZM6.15736 8.96196C4.69867 8.96196 3.29916 9.54184 2.26771 10.5733C1.85708 10.984 1.52015 11.4541 1.26087 11.962H11.0538C10.7945 11.454 10.4568 10.9841 10.046 10.5733C9.01467 9.54192 7.61591 8.96206 6.15736 8.96196ZM6.15638 4.07036L8.99037 2.55083L6.15638 1.27348V4.07036Z" fill="var(--fill-0, currentColor)"/>
</svg>
