<svg width="16" height="16" viewBox="0 0 14 13" fill="none" xmlns="http://www.w3.org/2000/svg">
<path id="Union" fill-rule="evenodd" clip-rule="evenodd" d="M13 1H9.02344L7.43164 2.18652C7.259 2.31516 7.04929 2.38477 6.83398 2.38477H1V11C1 11.5523 1.44772 12 2 12H12C12.5523 12 13 11.5523 13 11V1ZM14 11C14 12.1046 13.1046 13 12 13H2C0.895431 13 0 12.1046 0 11V2.03418C0.000235252 1.67539 0.291552 1.38477 0.650391 1.38477H6.83398L8.49219 0.148438L8.59375 0.0849609C8.70021 0.0295231 8.81923 0 8.94043 0H13.3496L13.4814 0.0136719C13.7774 0.0744827 14 0.336462 14 0.650391V11ZM6.50098 6.82471V4.82349C6.50098 4.54734 6.72483 4.32349 7.00098 4.32349C7.27712 4.32349 7.50098 4.54734 7.50098 4.82349V6.82471H9.50049C9.77663 6.82471 10.0005 7.04856 10.0005 7.32471C10.0005 7.60085 9.77663 7.82471 9.50049 7.82471H7.50098V9.82544C7.50098 10.1016 7.27712 10.3254 7.00098 10.3254C6.72483 10.3254 6.50098 10.1016 6.50098 9.82544V7.82471H4.49854C4.22239 7.82471 3.99854 7.60085 3.99854 7.32471C3.99854 7.04856 4.22239 6.82471 4.49854 6.82471H6.50098Z" fill="var(--fill-0, currentColor)"/>
</svg>
