<svg width="16" height="16" viewBox="0 0 13.998 14.4978" fill="none" xmlns="http://www.w3.org/2000/svg">
<path id="Union" fill-rule="evenodd" clip-rule="evenodd" d="M2.73017 1.57715V0.5C2.73017 0.223858 2.95402 0 3.23017 0C3.50631 0 3.73017 0.223858 3.73017 0.5V1.57715L3.73016 1.57802L4 1.57689H9.99805L10.2679 1.57802L10.2679 1.57715V0.5C10.2679 0.223858 10.4917 0 10.7679 0C11.044 0 11.2679 0.223858 11.2679 0.5V1.57715L11.2677 1.58946C11.8828 1.61229 12.2915 1.67548 12.6328 1.84935C13.1032 2.08903 13.4859 2.47172 13.7256 2.94212C13.998 3.47688 13.998 4.17691 13.998 5.57689V10.4978L13.9941 11.4255C13.9814 12.2381 13.9299 12.7325 13.7256 13.1335L13.6289 13.3054C13.3887 13.6969 13.0444 14.0156 12.6328 14.2253C12.2317 14.4297 11.7377 14.4811 10.9248 14.4939L9.99805 14.4978H4L3.07324 14.4939C2.39564 14.4832 1.93963 14.4457 1.57422 14.3152L1.36523 14.2253C0.953683 14.0156 0.609341 13.6969 0.369141 13.3054L0.272461 13.1335C0 12.5988 0 11.898 0 10.4981V10.4978V5.57689C0 4.35165 2.19268e-05 3.66252 0.182617 3.15111L0.272461 2.94212C0.482108 2.53067 0.800962 2.18622 1.19238 1.94603L1.36523 1.84935C1.70658 1.67548 2.11524 1.61229 2.73032 1.58946L2.73017 1.57715ZM9.99805 13.4978H4C3.28345 13.4978 2.80616 13.4975 2.43945 13.4675C2.08472 13.4385 1.92227 13.3871 1.81934 13.3347C1.53711 13.1909 1.3069 12.9616 1.16309 12.6794C1.11064 12.5765 1.05928 12.4134 1.03027 12.0583C1.00035 11.6917 1 11.2141 1 10.4978V6.37807C1.02506 6.38193 1.05074 6.38394 1.07689 6.38394H12.9216C12.9476 6.38393 12.9731 6.38193 12.998 6.3781V10.4978C12.998 11.2141 12.9977 11.6917 12.9678 12.0583C12.9388 12.4134 12.8874 12.5765 12.835 12.6794C12.6911 12.9616 12.4609 13.1909 12.1787 13.3347C12.0758 13.3871 11.9133 13.4385 11.5586 13.4675C11.1919 13.4975 10.7146 13.4978 9.99805 13.4978ZM12.998 5.38978C12.9731 5.38595 12.9476 5.38395 12.9216 5.38394H1.07689C1.05075 5.38394 1.02508 5.38595 1.00003 5.38981C1.0003 4.77564 1.003 4.35016 1.03027 4.01634C1.05924 3.66178 1.11072 3.49917 1.16309 3.39622C1.3069 3.11398 1.53709 2.88378 1.81934 2.73997C1.92228 2.68761 2.0849 2.63613 2.43945 2.60716C2.80616 2.5772 3.28347 2.57689 4 2.57689H9.99805L10.9092 2.58079C11.164 2.58473 11.3752 2.59218 11.5586 2.60716C11.9132 2.63613 12.0758 2.68761 12.1787 2.73997C12.461 2.88378 12.6912 3.11398 12.835 3.39622C12.8873 3.49917 12.9388 3.66178 12.9678 4.01634C12.995 4.35016 12.9978 4.77563 12.998 5.38978ZM7.1837 7.41473C7.37897 7.21947 7.69547 7.21947 7.89074 7.41473L10.0441 9.56805C10.2393 9.76331 10.2393 10.0798 10.0441 10.2751L7.89074 12.4294C7.69554 12.6243 7.3789 12.6243 7.1837 12.4294C6.98844 12.2341 6.98844 11.9166 7.1837 11.7214L8.4833 10.4218H4.30705C4.03091 10.4218 3.80705 10.1979 3.80705 9.92177C3.80705 9.64563 4.03091 9.42177 4.30705 9.42177H8.48372L7.1837 8.12176C6.98844 7.9265 6.98844 7.60999 7.1837 7.41473Z" fill="var(--fill-0, currentColor)"/>
</svg>
