<svg width="16" height="16" viewBox="0 0 13 11.5" fill="none" xmlns="http://www.w3.org/2000/svg">
<path id="Union" d="M12.6006 10.5098C12.8286 10.5563 13 10.7583 13 11C13 11.2417 12.8286 11.4437 12.6006 11.4902L12.5 11.5H0.5C0.223858 11.5 0 11.2761 0 11C0 10.7239 0.223858 10.5 0.5 10.5H12.5L12.6006 10.5098ZM12.6006 7.00977C12.8286 7.05629 13 7.25829 13 7.5C13 7.74171 12.8286 7.94371 12.6006 7.99023L12.5 8H0.5C0.223858 8 0 7.77614 0 7.5C0 7.22386 0.223858 7 0.5 7H12.5L12.6006 7.00977ZM12.6006 3.50977C12.8286 3.55629 13 3.75829 13 4C13 4.24171 12.8286 4.44371 12.6006 4.49023L12.5 4.5H0.5C0.223858 4.5 0 4.27614 0 4C0 3.72386 0.223858 3.5 0.5 3.5H12.5L12.6006 3.50977ZM12.6006 0.00976562C12.8286 0.0562919 13 0.258287 13 0.5C13 0.741713 12.8286 0.943708 12.6006 0.990234L12.5 1H0.5C0.223858 1 0 0.776142 0 0.5C0 0.223858 0.223858 0 0.5 0H12.5L12.6006 0.00976562Z" fill="var(--fill-0, currentColor)"/>
</svg>
