<svg width="16" height="16" viewBox="0 0 16 16" fill="none" xmlns="http://www.w3.org/2000/svg">
<path d="M8 1C11.866 1 15 4.13401 15 8C15 11.866 11.866 15 8 15C4.13401 15 1 11.866 1 8C1 4.13401 4.13401 1 8 1ZM8 2C4.68629 2 2 4.68629 2 8C2 11.3137 4.68629 14 8 14C11.3137 14 14 11.3137 14 8C14 4.68629 11.3137 2 8 2ZM11.5 7.49512C11.7761 7.49512 12 7.71897 12 7.99512C12 8.27126 11.7761 8.49512 11.5 8.49512H4.5C4.22386 8.49512 4 8.27126 4 7.99512C4 7.71897 4.22386 7.49512 4.5 7.49512H11.5Z" fill="currentColor"/>
</svg>
