<svg width="16" height="16" viewBox="0 0 14 14" fill="none" xmlns="http://www.w3.org/2000/svg">
<path id="Union" d="M7 0C10.866 0 14 3.13401 14 7C14 10.866 10.866 14 7 14C3.13401 14 0 10.866 0 7C0 3.13401 3.13401 0 7 0ZM7 1C3.68629 1 1 3.68629 1 7C1 10.3137 3.68629 13 7 13C10.3137 13 13 10.3137 13 7C13 3.68629 10.3137 1 7 1ZM10.5 6.49512C10.7761 6.49512 11 6.71897 11 6.99512C11 7.27126 10.7761 7.49512 10.5 7.49512H3.5C3.22386 7.49512 3 7.27126 3 6.99512C3 6.71897 3.22386 6.49512 3.5 6.49512H10.5Z" fill="var(--fill-0, currentColor)"/>
</svg>
