<svg width="16" height="16" viewBox="0 0 13.0985 13.7139" fill="none" xmlns="http://www.w3.org/2000/svg">
<path id="Union" d="M10.2021 4.65332C10.2021 3.68457 9.81765 2.7554 9.13273 2.07031C8.44761 1.3852 7.51765 1 6.54875 1C5.57999 1.00011 4.65076 1.38529 3.96574 2.07031C3.28077 2.75541 2.89543 3.68453 2.89543 4.65332C2.89541 6.88098 2.3321 8.43745 1.67765 9.48926C1.43476 9.87961 1.25642 10.1678 1.13566 10.375C1.33626 10.3803 1.60908 10.3828 1.97258 10.3828H11.1259C11.4888 10.3828 11.7613 10.3803 11.9618 10.375C11.8411 10.1678 11.6626 9.87939 11.4198 9.48926C10.7655 8.43745 10.2021 6.88072 10.2021 4.65332ZM5.23234 11.3828C5.24991 11.6568 5.29047 11.9219 5.39738 12.1455C5.47609 12.31 5.58588 12.4428 5.74601 12.5381C5.90911 12.6351 6.1591 12.7138 6.54875 12.7139C6.93639 12.7139 7.18565 12.6337 7.34855 12.5352C7.50911 12.4379 7.62042 12.3018 7.70011 12.1338C7.80589 11.9105 7.84701 11.6485 7.86515 11.3828H5.23234ZM11.2021 4.65332C11.2021 6.70337 11.7185 8.07533 12.2695 8.96094C12.5214 9.36582 12.7173 9.68151 12.8486 9.90918C12.9137 10.0222 12.97 10.1264 13.0107 10.2158C13.0309 10.2604 13.0523 10.3117 13.0683 10.3652C13.0819 10.4109 13.1052 10.5007 13.0966 10.6064C13.0896 10.6924 13.0726 10.8213 12.9999 10.9521C12.9272 11.083 12.8269 11.1655 12.7577 11.2168C12.6245 11.3156 12.4661 11.3392 12.4023 11.3486C12.3106 11.3622 12.2025 11.3696 12.0878 11.374C11.8572 11.383 11.5349 11.3828 11.1259 11.3828H8.87004C8.84959 11.7413 8.78839 12.1724 8.60343 12.5625C8.45422 12.8772 8.22155 13.1748 7.86711 13.3896C7.5149 13.603 7.07649 13.7139 6.54875 13.7139C6.02321 13.7138 5.58615 13.6068 5.23429 13.3975C4.87955 13.1863 4.64624 12.8918 4.49601 12.5781C4.30819 12.1857 4.2472 11.7487 4.22746 11.3828H1.97258C1.56359 11.3828 1.24127 11.383 1.01066 11.374C0.895949 11.3696 0.787869 11.3622 0.696208 11.3486C0.632506 11.3392 0.474102 11.3157 0.340739 11.2168C0.271554 11.1655 0.17133 11.083 0.0985517 10.9521C0.025861 10.8213 0.00892079 10.6924 0.00187197 10.6064C-0.00677539 10.5007 0.016581 10.4109 0.0301923 10.3652C0.0461763 10.3117 0.0666072 10.2604 0.0868329 10.2158C0.127474 10.1263 0.184729 10.0223 0.249919 9.90918C0.38115 9.68151 0.577109 9.36578 0.82902 8.96094C1.38 8.07533 1.89541 6.70331 1.89543 4.65332C1.89543 3.41931 2.3862 2.23591 3.25871 1.36328C4.13127 0.490722 5.31477 0.000106011 6.54875 0C7.78287 0 8.96711 0.490628 9.83976 1.36328C10.7122 2.2359 11.2021 3.41936 11.2021 4.65332Z" fill="var(--fill-0, currentColor)"/>
</svg>
