<svg width="16" height="16" viewBox="0 0 14.1982 14.418" fill="none" xmlns="http://www.w3.org/2000/svg">
<path id="Union" fill-rule="evenodd" clip-rule="evenodd" d="M5.77561 12.501C5.97796 13.0361 6.49294 13.4178 7.09885 13.418C7.70495 13.418 8.2207 13.0362 8.42307 12.501H5.77561ZM2.80686 10.0166C2.80686 10.3296 2.55341 10.5839 2.24045 10.584C2.0243 10.584 1.84885 10.7594 1.84885 10.9756V11.042C1.84885 11.295 2.05387 11.5008 2.30686 11.501H11.8908C12.144 11.501 12.3498 11.2952 12.3498 11.042V10.9756C12.3498 10.7595 12.1743 10.5842 11.9582 10.584C11.6452 10.584 11.3908 10.3297 11.3908 10.0166V6.37012C11.3908 4.611 10.3324 3.09834 8.81565 2.43555C8.67449 2.37387 8.52963 2.31888 8.38108 2.27246L8.06467 2.17383L8.03244 1.84473C7.98594 1.37096 7.58508 1 7.09885 1C6.61296 1.00018 6.21297 1.37036 6.16623 1.84375L6.13401 2.17383L5.8176 2.27246C5.59232 2.34283 5.37493 2.43124 5.16721 2.53613C3.7662 3.24373 2.80687 4.69554 2.80686 6.37012V10.0166ZM12.3908 9.65332C12.9473 9.83543 13.3498 10.3583 13.3498 10.9756V11.042C13.3498 11.8474 12.6963 12.501 11.8908 12.501H9.46311C9.23261 13.5956 8.26201 14.418 7.09885 14.418C5.93587 14.4178 4.96606 13.5954 4.73557 12.501H2.30686C1.50159 12.5008 0.84885 11.8473 0.84885 11.042V10.9756C0.84885 10.3585 1.25071 9.83552 1.80686 9.65332V6.37012C1.80687 4.30376 2.99136 2.51463 4.71604 1.64355C4.88324 1.55911 5.05578 1.48366 5.23264 1.41699C5.46017 0.599696 6.20916 0.000156544 7.09885 0C7.98821 0 8.73608 0.599298 8.96408 1.41602C9.04915 1.44805 9.13313 1.48233 9.21604 1.51855C11.0839 2.33475 12.3908 4.19939 12.3908 6.37012V9.65332ZM3.01194 1.06738C2.83443 0.855884 2.51936 0.82837 2.30783 1.00586C1.17545 1.95606 0.372483 3.24048 0.0148653 4.6748C-0.0516851 4.94253 0.11148 5.21337 0.379123 5.28027C0.647063 5.34708 0.918764 5.18396 0.985568 4.91602C1.29215 3.68674 1.97988 2.58585 2.95041 1.77148C3.16191 1.59398 3.18942 1.27891 3.01194 1.06738ZM11.8904 1.00586C11.6788 0.82837 11.3638 0.855884 11.1863 1.06738C11.0088 1.27891 11.0363 1.59398 11.2478 1.77148C12.2183 2.58585 12.906 3.68674 13.2126 4.91602C13.2794 5.18396 13.5511 5.34708 13.8191 5.28027C14.0867 5.21337 14.2499 4.94253 14.1833 4.6748C13.8257 3.24048 13.0227 1.95606 11.8904 1.00586Z" fill="var(--fill-0, currentColor)"/>
</svg>
