<svg width="16" height="16" viewBox="0 0 13 14.3331" fill="none" xmlns="http://www.w3.org/2000/svg">
<path id="Union" d="M6.82032 0.00889044C9.68844 0.172427 11.9522 2.524 11.9522 5.36045V5.83311C11.9522 7.83092 12.0841 8.70011 12.2402 9.15147C12.3122 9.35931 12.3908 9.48048 12.4785 9.5958C12.5594 9.70197 12.7197 9.88562 12.8516 10.1046C12.9469 10.2621 12.999 10.4431 13 10.628C13.0009 10.8129 12.9511 10.994 12.8574 11.1524C12.7638 11.3107 12.6297 11.4409 12.4707 11.5304C12.3119 11.6196 12.1327 11.6666 11.9512 11.6671H9.00001V11.7003C8.99987 12.3885 8.74414 13.0551 8.27931 13.5509C7.81335 14.0478 7.17375 14.3331 6.50001 14.3331C5.82628 14.3331 5.18668 14.0478 4.72072 13.5509C4.25589 13.0551 4.00016 12.3885 4.00001 11.7003V11.6671H1.04884C0.867372 11.6666 0.688113 11.6196 0.529309 11.5304C0.370379 11.4409 0.236235 11.3107 0.14259 11.1524C0.0489694 10.994 -0.000900397 10.8128 1.2308e-05 10.628C0.00105507 10.4431 0.0530859 10.262 0.14845 10.1046C0.411199 9.6679 0.599394 9.45261 0.763684 9.00889C0.921765 8.58164 1.04782 7.93949 1.04786 6.7794V5.29991C1.04697 4.59951 1.18969 3.90587 1.46681 3.25987C1.74417 2.61354 2.15086 2.02713 2.66212 1.53526C3.1734 1.04342 3.77995 0.654893 4.44532 0.391703C5.11065 0.128594 5.82311 -0.00420284 6.54103 0.000101373L6.82032 0.00889044ZM5.00001 11.7003C5.00016 12.1431 5.16534 12.5623 5.45021 12.8663C5.73435 13.1693 6.11307 13.3331 6.50001 13.3331C6.88695 13.3331 7.26567 13.1693 7.54982 12.8663C7.83468 12.5623 7.99987 12.1431 8.00001 11.7003V11.6671H5.00001V11.7003ZM6.53419 1.0001C5.94369 0.996638 5.35819 1.10654 4.81251 1.32237C4.26695 1.53825 3.77164 1.85563 3.35548 2.25596C2.93928 2.65639 2.60977 3.13237 2.38575 3.6544C2.16199 4.17611 2.04711 4.73522 2.04786 5.29893V6.7794C2.04782 8.00587 1.91537 8.77787 1.70118 9.35655C1.49337 9.91772 1.19591 10.3019 1.00392 10.6212L1.00294 10.6231C1.00075 10.627 1.00009 10.6306 1.00001 10.6329C1.00005 10.6354 1.00056 10.6396 1.00294 10.6437C1.00561 10.648 1.0111 10.6536 1.01954 10.6583C1.02824 10.6632 1.03952 10.6671 1.05177 10.6671H11.9483C11.9605 10.6671 11.9718 10.6632 11.9805 10.6583C11.9889 10.6536 11.9944 10.648 11.9971 10.6437C11.9993 10.6399 11.9999 10.6363 12 10.6339C12 10.6315 11.9995 10.6273 11.9971 10.6231L11.9961 10.6212C11.9009 10.4628 11.8263 10.3909 11.6826 10.2022C11.5457 10.0224 11.4089 9.80794 11.2949 9.47862C11.0789 8.85409 10.9522 7.83479 10.9522 5.83311V5.36045C10.9522 2.99477 8.99633 1.01777 6.53419 1.0001Z" fill="var(--fill-0, currentColor)"/>
</svg>
