<svg width="16" height="16" viewBox="0 0 13.2509 14.418" fill="none" xmlns="http://www.w3.org/2000/svg">
<path id="Union" fill-rule="evenodd" clip-rule="evenodd" d="M5.67672 12.501C5.87907 13.0361 6.39405 13.4178 6.99996 13.418C7.60606 13.418 8.12182 13.0362 8.32418 12.501H5.67672ZM2.70797 10.0166C2.70797 10.3296 2.45452 10.5839 2.14156 10.584C1.92542 10.584 1.74996 10.7594 1.74996 10.9756V11.042C1.74996 11.1098 1.7647 11.1743 1.79114 11.2323L9.85647 3.16693C9.52001 2.86673 9.13588 2.61869 8.71676 2.43555C8.5756 2.37387 8.43074 2.31888 8.28219 2.27246L7.96578 2.17383L7.93356 1.84473C7.88706 1.37096 7.4862 1 6.99996 1C6.51407 1.00018 6.11408 1.37036 6.06735 1.84375L6.03512 2.17383L5.71871 2.27246C5.49344 2.34283 5.27604 2.43124 5.06832 2.53613C3.66732 3.24373 2.70798 4.69554 2.70797 6.37012V10.0166ZM11.0102 4.83745C11.1922 5.31349 11.292 5.83019 11.292 6.37012V10.0166C11.292 10.3297 11.5463 10.584 11.8593 10.584C12.0754 10.5842 12.2509 10.7595 12.2509 10.9756V11.042C12.2509 11.2952 12.0451 11.501 11.792 11.501H4.34664L3.34664 12.501H4.63668C4.86718 13.5954 5.83698 14.4178 6.99996 14.418C8.16312 14.418 9.13372 13.5956 9.36422 12.501H11.792C12.5974 12.501 13.2509 11.8474 13.2509 11.042V10.9756C13.2509 10.3583 12.8484 9.83543 12.292 9.65332V6.37012C12.2919 5.54846 12.1047 4.77066 11.7707 4.07697L11.0102 4.83745ZM12.8856 1.54864C12.88 1.55376 12.8745 1.55903 12.8691 1.56445L0.869103 13.5645C0.857718 13.5758 0.846998 13.5876 0.836941 13.5998C0.640736 13.7791 0.336288 13.7738 0.146447 13.584C-0.0488155 13.3887 -0.0488155 13.0722 0.146447 12.877L1.06976 11.9536C0.869655 11.7038 0.749962 11.3868 0.749962 11.042V10.9756C0.749962 10.3585 1.15182 9.83552 1.70797 9.65332V6.37012C1.70798 4.30376 2.89247 2.51463 4.61715 1.64355C4.78436 1.55911 4.9569 1.48366 5.13375 1.41699C5.36128 0.599696 6.11027 0.000156544 6.99996 0C7.88932 0 8.63719 0.599298 8.8652 1.41602C8.95026 1.44805 9.03424 1.48233 9.11715 1.51855C9.65135 1.75198 10.1397 2.07117 10.5647 2.45874L12.1464 0.876953C12.3417 0.681691 12.6582 0.681691 12.8535 0.876953C13.0374 1.06083 13.0481 1.35223 12.8856 1.54864Z" fill="var(--fill-0, currentColor)"/>
</svg>
