<svg width="16" height="16" viewBox="0 0 13.4844 10.8906" fill="none" xmlns="http://www.w3.org/2000/svg">
<path id="Union" d="M12.9844 9.89062C13.2605 9.89062 13.4844 10.1145 13.4844 10.3906C13.4844 10.6668 13.2605 10.8906 12.9844 10.8906H4.90137C4.62522 10.8906 4.40137 10.6668 4.40137 10.3906C4.40137 10.1145 4.62522 9.89062 4.90137 9.89062H12.9844ZM1.47852 6.42969C1.90618 6.42975 2.24935 6.53456 2.50879 6.74316C2.76994 6.95174 2.90126 7.2229 2.90137 7.55762C2.90137 7.6523 2.88625 7.74829 2.85645 7.84473C2.82664 7.93941 2.79131 8.02401 2.75098 8.09766C2.71067 8.16944 2.65496 8.24823 2.58496 8.33398C2.51673 8.41795 2.4582 8.48535 2.40918 8.53613C2.36008 8.58523 2.2957 8.64824 2.2168 8.72363L1.30957 9.55957V9.57812H2.94824V10.3193H0.0556641V9.67578L1.53613 8.3125C1.69556 8.16006 1.80703 8.03093 1.87012 7.92578C1.9348 7.81901 1.96773 7.70709 1.96777 7.58984C1.96777 7.4671 1.9187 7.36464 1.82227 7.28223C1.72583 7.1981 1.60056 7.15527 1.44629 7.15527C1.28336 7.15534 1.14888 7.20697 1.04199 7.30859C0.936786 7.40854 0.883789 7.53633 0.883789 7.69238V7.71094H0V7.69238C0 7.31722 0.135549 7.01249 0.407227 6.7793C0.679009 6.54609 1.03665 6.42969 1.47852 6.42969ZM12.9844 5.41406C13.2605 5.41406 13.4844 5.63792 13.4844 5.91406C13.4844 6.1902 13.2605 6.41406 12.9844 6.41406H4.90137C4.62522 6.41406 4.40137 6.1902 4.40137 5.91406C4.40137 5.63792 4.62522 5.41406 4.90137 5.41406H12.9844ZM2.08691 3.82031H1.12109V0.852539H1.10254L0.146484 1.49805V0.662109L1.11816 0H2.08691V3.82031ZM12.9844 0.9375C13.2605 0.9375 13.4844 1.16136 13.4844 1.4375C13.4844 1.71364 13.2605 1.9375 12.9844 1.9375H4.90137C4.62522 1.9375 4.40137 1.71364 4.40137 1.4375C4.40137 1.16136 4.62522 0.9375 4.90137 0.9375H12.9844Z" fill="var(--fill-0, currentColor)"/>
</svg>
