<svg width="16" height="16" viewBox="0 0 14 12.4666" fill="none" xmlns="http://www.w3.org/2000/svg">
<path id="Union" d="M7.14551 0.00862727C7.38359 0.0436727 7.59982 0.163358 7.75586 0.343588L7.81934 0.424643L7.89453 0.556479C7.95529 0.690092 7.97596 0.826223 7.98633 0.939291C8.00019 1.09084 8 1.27954 8 1.48421V2.6805L12.2852 4.84359C12.4125 4.90781 12.5853 4.9872 12.7158 5.12093C12.8189 5.22668 12.8973 5.35436 12.9453 5.49398C13.0061 5.67076 13 5.86106 13 6.00374V11.4666H13.5C13.7761 11.4666 14 11.6905 14 11.9666C13.9999 12.2427 13.7761 12.4666 13.5 12.4666H0.5C0.223907 12.4666 8.03858e-05 12.2427 0 11.9666C0 11.6905 0.223858 11.4666 0.5 11.4666H1.01172V3.68246C1.01172 3.53936 1.00534 3.34797 1.06641 3.17074C1.11468 3.0309 1.19342 2.90344 1.29688 2.79769C1.42795 2.66372 1.60155 2.58444 1.72949 2.52035L6.11816 0.321127C6.30097 0.229544 6.46878 0.145109 6.61035 0.089682C6.75134 0.0344889 6.93734 -0.0219803 7.14551 0.00862727ZM6.97461 1.02132C6.88564 1.05619 6.76561 1.11537 6.56543 1.21566L2.17773 3.4139C2.09218 3.45676 2.04745 3.47897 2.0166 3.49691L2.01465 3.49789C2.01457 3.49908 2.01473 3.50045 2.01465 3.50179C2.01243 3.5374 2.01172 3.58681 2.01172 3.68246V11.4666H7V1.48421C7 1.26033 6.99988 1.12625 6.99121 1.03109C6.99074 1.02598 6.98878 1.02091 6.98828 1.01644C6.98416 1.01798 6.97927 1.0195 6.97461 1.02132ZM8 11.4666H12V6.00374C12 5.90865 12.0002 5.85952 11.998 5.82406C11.998 5.82277 11.9972 5.82131 11.9971 5.82015L11.9951 5.81917C11.9644 5.80122 11.9202 5.77914 11.835 5.73617L8 3.8016V11.4666ZM4.50098 9.15121C4.77701 9.15121 5.00079 9.37522 5.00098 9.65121C5.00098 9.92735 4.77712 10.1512 4.50098 10.1512H4.5C4.22386 10.1512 4 9.92735 4 9.65121C4.00018 9.37522 4.22397 9.15121 4.5 9.15121H4.50098ZM4.50098 6.65121C4.77701 6.65121 5.00079 6.87522 5.00098 7.15121C5.00098 7.42735 4.77712 7.65121 4.50098 7.65121H4.5C4.22386 7.65121 4 7.42735 4 7.15121C4.00018 6.87522 4.22397 6.65121 4.5 6.65121H4.50098ZM4.50098 4.15121C4.77701 4.15121 5.00079 4.37522 5.00098 4.65121C5.00098 4.92735 4.77712 5.15121 4.50098 5.15121H4.5C4.22386 5.15121 4 4.92735 4 4.65121C4.00018 4.37522 4.22397 4.15121 4.5 4.15121H4.50098Z" fill="var(--fill-0, currentColor)"/>
</svg>
