<svg width="16" height="16" viewBox="0 0 14 12.9075" fill="none" xmlns="http://www.w3.org/2000/svg">
<path id="Union" fill-rule="evenodd" clip-rule="evenodd" d="M13.5 11.9075H13.4883V7.95215L13.4883 7.91928V7.91922C13.4883 7.56947 13.4883 7.27659 13.4688 7.03711C13.4481 6.78444 13.4034 6.54671 13.2891 6.32227C13.1136 5.97799 12.8336 5.69793 12.4893 5.52246C12.2648 5.40808 12.0271 5.36344 11.7744 5.34278C11.5349 5.32321 11.2422 5.32322 10.8924 5.32324H10.8924L10.8594 5.32324H9.16602V2.62891C9.16602 2.26483 9.16565 1.9617 9.14551 1.71485C9.12486 1.4621 9.08016 1.2245 8.96582 1C8.7903 0.655521 8.5105 0.374743 8.16602 0.199221C7.94149 0.0848329 7.70395 0.0401902 7.45117 0.0195331C7.21167 -3.47601e-05 6.9189 -1.88806e-05 6.56913 1.28079e-06H6.53613H3.14062H3.10946C2.75923 -1.66135e-05 2.46633 -3.07418e-05 2.22656 0.0195331C1.9739 0.0401766 1.73616 0.0849618 1.51172 0.199221C1.16724 0.374742 0.886459 0.655521 0.710938 1C0.596679 1.22444 0.551894 1.46218 0.53125 1.71485C0.511686 1.95461 0.511701 2.2475 0.511718 2.59774V2.59774L0.511719 2.62891V11.9075H0.5C0.223858 11.9075 0 12.1313 0 12.4075C0 12.6836 0.223858 12.9075 0.5 12.9075H13.5C13.7761 12.9075 14 12.6836 14 12.4075C14 12.1313 13.7761 11.9075 13.5 11.9075ZM12.4883 7.95215V11.9075H9.16602V6.32324H10.8594C11.2401 6.32324 11.4956 6.32379 11.6924 6.33985C11.8834 6.35545 11.9751 6.38344 12.0352 6.41406C12.1913 6.49371 12.3188 6.62019 12.3984 6.77637C12.4291 6.83647 12.4561 6.92815 12.4717 7.11914C12.4877 7.31592 12.4883 7.57142 12.4883 7.95215ZM8.16602 2.62891V11.9075H1.51172V2.62891C1.51172 2.24819 1.51224 1.99267 1.52832 1.7959C1.54392 1.60492 1.57192 1.51323 1.60254 1.45313C1.68212 1.2972 1.80891 1.1704 1.96484 1.09082C2.02494 1.0602 2.11664 1.03221 2.30762 1.0166C2.50439 1.00053 2.7599 1 3.14062 1H6.53613C6.91703 1 7.17329 1.00052 7.37012 1.0166C7.56078 1.03221 7.65186 1.06023 7.71191 1.09082C7.86809 1.17042 7.99555 1.29698 8.0752 1.45313C8.10582 1.51323 8.13381 1.60491 8.14941 1.7959C8.16549 1.99267 8.16602 2.2482 8.16602 2.62891ZM6.99609 8.41528C6.99609 8.13914 6.77224 7.91528 6.49609 7.91528H3.5C3.22386 7.91528 3 8.13914 3 8.41528C3.0001 8.69135 3.22392 8.91528 3.5 8.91528H6.49609C6.77218 8.91528 6.996 8.69135 6.99609 8.41528ZM6.99609 5.75318C6.99588 5.47722 6.7721 5.25318 6.49609 5.25318H3.5C3.22399 5.25318 3.00022 5.47722 3 5.75318C3 6.02932 3.22386 6.25318 3.5 6.25318H6.49609C6.77224 6.25318 6.99609 6.02932 6.99609 5.75318ZM6.99609 3.09204C6.99609 2.8159 6.77224 2.59204 6.49609 2.59204H3.5C3.22386 2.59204 3 2.8159 3 3.09204C3 3.36819 3.22386 3.59204 3.5 3.59204H6.49609C6.77224 3.59204 6.99609 3.36819 6.99609 3.09204Z" fill="var(--fill-0, currentColor)"/>
</svg>
