<svg width="16" height="16" viewBox="0 0 14.4746 12.6416" fill="none" xmlns="http://www.w3.org/2000/svg">
<path id="Union" d="M10.3779 0C12.6403 0 14.4746 1.83431 14.4746 4.09668V8.54492C14.4746 10.8073 12.6403 12.6416 10.3779 12.6416H4.54785C2.28548 12.6416 0.451172 10.8073 0.451172 8.54492V4.16504H1.39941V8.54492C1.39941 10.2834 2.8094 11.6934 4.54785 11.6934H10.3779C12.1164 11.6934 13.5254 10.2834 13.5254 8.54492V4.09668C13.5254 2.35823 12.1164 0.949219 10.3779 0.949219H0V0H10.3779ZM6.60547 3.86523C7.10842 3.91614 7.50094 4.34105 7.50098 4.85742V5.26367L7.49609 5.36523C7.44521 5.86863 7.01974 6.26172 6.50293 6.26172L6.40137 6.25586C5.89701 6.20474 5.50336 5.77856 5.50488 5.26074L5.50684 4.85449C5.50868 4.30509 5.9545 3.86035 6.50391 3.86035L6.60547 3.86523ZM10.6055 3.86523C11.1084 3.91614 11.5009 4.34105 11.501 4.85742V5.26367L11.4961 5.36523C11.4452 5.86863 11.0197 6.26172 10.5029 6.26172L10.4014 6.25586C9.89701 6.20474 9.50336 5.77856 9.50488 5.26074L9.50684 4.85449C9.50868 4.30509 9.9545 3.86035 10.5039 3.86035L10.6055 3.86523Z" fill="var(--fill-0, currentColor)"/>
</svg>
