<svg width="16" height="16" viewBox="0 0 13.1947 13.2448" fill="none" xmlns="http://www.w3.org/2000/svg">
<path id="Union" fill-rule="evenodd" clip-rule="evenodd" d="M12.6947 4.73438C12.9707 4.73431 13.1945 4.51034 13.1947 4.23438V0.5C13.1947 0.367395 13.142 0.240252 13.0482 0.146484C12.9544 0.0527162 12.8273 0 12.6947 0H8.96031C8.68426 0.000105628 8.46031 0.223923 8.46031 0.5C8.46031 0.776077 8.68426 0.999894 8.96031 1H11.4877L8.11656 4.37109C7.9213 4.56636 7.9213 4.88286 8.11656 5.07812C8.31183 5.27339 8.62833 5.27339 8.8236 5.07812L12.1947 1.70703V4.23438C12.1949 4.51037 12.4187 4.73437 12.6947 4.73438ZM2.97128 0.755888L2.84335 0.750029H1.92343C1.39173 0.750072 0.889926 0.926898 0.52597 1.27444C0.155571 1.62828 -0.0387088 2.12861 0.0064391 2.69437C0.00790561 2.71274 0.00941539 2.73123 0.0109357 2.74986C0.0147515 2.7966 0.0186336 2.84416 0.0220641 2.89261V2.9053L0.0240172 2.91897C0.190923 4.28058 0.546638 5.58876 1.06992 6.76175C1.24509 7.1544 1.43952 7.53252 1.65195 7.89261V7.89163C2.55334 9.42544 3.81501 10.7161 5.32773 11.6524V11.6533C5.6264 11.8388 5.9349 12.0038 6.25156 12.1504C6.33553 12.1893 6.42032 12.2273 6.50546 12.2637C7.71577 12.781 9.04683 13.053 10.4498 13.2246L10.5201 13.2334V13.2325C11.1408 13.3092 11.6438 13.0196 11.9674 12.6084C12.2829 12.2074 12.4485 11.6742 12.4478 11.1582L12.4469 10.4297C12.4461 9.75737 11.9977 9.16725 11.3502 8.98636L10.8697 8.85257C9.33536 8.42438 7.70526 9.08619 6.9039 10.4629L6.4996 11.1563C6.27937 11.0478 6.06381 10.9327 5.85605 10.8037H5.85507C4.4799 9.95287 3.33259 8.77901 2.51328 7.38479V7.38382L2.37167 7.13675C2.30103 7.00856 2.23357 6.87734 2.16757 6.74417L2.91367 6.27444C4.19287 5.46821 4.80965 3.93182 4.44296 2.46487L4.29843 1.88577C4.1418 1.26003 3.60474 0.809851 2.97128 0.755888ZM7.76816 10.9668C8.34052 9.98322 9.50505 9.5095 10.6012 9.81546L11.0807 9.94925C11.2965 10.0095 11.4466 10.2066 11.4469 10.4307L11.4478 11.1592C11.4482 11.4765 11.3425 11.7843 11.1812 11.9893C11.0282 12.1838 10.848 12.2658 10.6422 12.2403L10.5719 12.2315C9.4286 12.0916 8.37997 11.8858 7.42831 11.5479L7.76816 10.9668ZM1.2164 1.9971C1.34801 1.87142 1.54949 1.77666 1.80917 1.75491L1.92343 1.75003H2.84335L2.92734 1.75687C3.12024 1.78968 3.27998 1.93406 3.3287 2.12894L3.47324 2.70706C3.73521 3.75494 3.29427 4.85286 2.38046 5.42874L1.7623 5.81741C1.40328 4.88569 1.14898 3.86954 1.01816 2.81155C1.01334 2.74397 1.00856 2.67851 1.00351 2.61526C0.981271 2.33668 1.07265 2.1344 1.2164 1.9971Z" fill="var(--fill-0, currentColor)"/>
</svg>
