<svg width="16" height="16" viewBox="0 0 11.5 2.5" fill="none" xmlns="http://www.w3.org/2000/svg">
<path id="Union" d="M1.25 0C1.94036 1.61065e-08 2.5 0.559644 2.5 1.25C2.5 1.94036 1.94036 2.5 1.25 2.5C0.559644 2.5 1.61064e-08 1.94036 0 1.25C0 0.559644 0.559644 0 1.25 0ZM5.75 0C6.44036 1.61065e-08 7 0.559644 7 1.25C7 1.94036 6.44036 2.5 5.75 2.5C5.05964 2.5 4.5 1.94036 4.5 1.25C4.5 0.559644 5.05964 0 5.75 0ZM10.25 0C10.9404 1.61065e-08 11.5 0.559644 11.5 1.25C11.5 1.94036 10.9404 2.5 10.25 2.5C9.55964 2.5 9 1.94036 9 1.25C9 0.559644 9.55964 0 10.25 0Z" fill="var(--fill-0, currentColor)"/>
</svg>
