<svg width="16" height="16" viewBox="0 0 13 10.8076" fill="none" xmlns="http://www.w3.org/2000/svg">
<path id="Union" fill-rule="evenodd" clip-rule="evenodd" d="M6.17383 9.80762C6.44978 9.80773 6.67367 10.0317 6.67383 10.3076C6.67383 10.5837 6.44987 10.8075 6.17383 10.8076H0.5C0.223858 10.8076 0 10.5838 0 10.3076C0.000154557 10.0316 0.223953 9.80762 0.5 9.80762H6.17383ZM12.5 0C12.7761 0 13 0.223858 13 0.5C13 0.776142 12.7761 1 12.5 1H0.5C0.223858 1 0 0.776142 0 0.5C0 0.223858 0.223858 0 0.5 0H12.5ZM9.50098 10.0576C9.63355 10.0576 9.76075 10.0049 9.85449 9.91113L12.3535 7.41113C12.5487 7.21586 12.5487 6.89933 12.3535 6.7041C12.1582 6.5089 11.8417 6.50887 11.6465 6.7041L10.0005 8.3501V3.05762C10.0005 2.78147 9.77663 2.55762 9.50049 2.55762C9.22435 2.55762 9.00049 2.78147 9.00049 3.05762V8.35107L7.35352 6.7041C7.15824 6.5089 6.84171 6.50887 6.64648 6.7041C6.45128 6.89938 6.45125 7.2159 6.64648 7.41113L9.14746 9.91113C9.24122 10.0049 9.3684 10.0576 9.50098 10.0576Z" fill="var(--fill-0, currentColor)"/>
</svg>
