<svg width="16" height="16" viewBox="0 0 12.5 14.5" fill="none" xmlns="http://www.w3.org/2000/svg">
<path id="Union" fill-rule="evenodd" clip-rule="evenodd" d="M9.25 0.5C9.25 0.223858 9.02614 0 8.75 0H3.75C3.47386 0 3.25 0.223858 3.25 0.5C3.25 0.776142 3.47386 1 3.75 1H8.75C9.02614 1 9.25 0.776142 9.25 0.5ZM11.5 8.25C11.5 5.3505 9.1495 3 6.25 3C3.35051 3 1 5.3505 1 8.25C1 11.1495 3.35051 13.5 6.25 13.5C9.1495 13.5 11.5 11.1495 11.5 8.25ZM6.25 14.5C2.79822 14.5 0 11.7018 0 8.25C0 4.79822 2.79822 2 6.25 2C9.70178 2 12.5 4.79822 12.5 8.25C12.5 11.7018 9.70178 14.5 6.25 14.5ZM6.25 8.69038C6.52614 8.69038 6.74995 8.46657 6.74995 8.19043V5.17003C6.74979 4.89403 6.52605 4.67009 6.25 4.67009C5.97396 4.67009 5.75021 4.89403 5.75005 5.17003V8.19043C5.75005 8.46657 5.97386 8.69038 6.25 8.69038Z" fill="var(--fill-0, currentColor)"/>
</svg>
