<svg width="16" height="16" viewBox="0 0 16 16" fill="none" xmlns="http://www.w3.org/2000/svg">
<path fill-rule="evenodd" clip-rule="evenodd" d="M5.5 0.5C5.22386 0.5 5 0.723858 5 1C5 1.27614 5.22386 1.5 5.5 1.5H10.5C10.7761 1.5 11 1.27614 11 1C11 0.723858 10.7761 0.5 10.5 0.5H5.5ZM8 14C10.8995 14 13.25 11.6495 13.25 8.75C13.25 5.8505 10.8995 3.5 8 3.5C5.10051 3.5 2.75 5.8505 2.75 8.75C2.75 11.6495 5.10051 14 8 14ZM8 15C11.4518 15 14.25 12.2018 14.25 8.75C14.25 5.29822 11.4518 2.5 8 2.5C4.54822 2.5 1.75 5.29822 1.75 8.75C1.75 12.2018 4.54822 15 8 15ZM8 9.19043C8.27614 9.19043 8.5 8.96657 8.5 8.69043L8.50001 5.67032C8.50001 5.39418 8.27615 5.17032 8.00001 5.17032C7.72386 5.17032 7.50001 5.39418 7.50001 5.67032L7.5 8.69043C7.5 8.96657 7.72386 9.19043 8 9.19043Z" fill="currentColor"/>
</svg>
