<svg width="16" height="16" viewBox="0 0 13 14" fill="none" xmlns="http://www.w3.org/2000/svg">
<path id="Union" d="M0.5 0C0.77614 4.24389e-06 1 0.223861 1 0.5V13.5C0.999996 13.7761 0.776139 14 0.5 14C0.22386 14 -9.10095e-08 13.7761 0 13.5V0.5C4.24286e-06 0.223927 0.223953 0.000107853 0.5 0ZM12.5 0C12.7761 4.24389e-06 13 0.223861 13 0.5V13.5C13 13.7761 12.7761 14 12.5 14C12.2239 14 12 13.7761 12 13.5V0.5C12 0.223927 12.224 0.000107853 12.5 0ZM8.25 2.75C9.63071 2.75 10.75 3.86929 10.75 5.25V8.75C10.75 10.1307 9.63071 11.25 8.25 11.25H4.75C3.36929 11.25 2.25 10.1307 2.25 8.75V5.25C2.25 3.86929 3.36929 2.75 4.75 2.75H8.25ZM4.75 3.75C3.92157 3.75 3.25 4.42157 3.25 5.25V8.75C3.25 9.57843 3.92157 10.25 4.75 10.25H8.25C9.07843 10.25 9.75 9.57843 9.75 8.75V5.25C9.75 4.42157 9.07843 3.75 8.25 3.75H4.75Z" fill="var(--fill-0, currentColor)"/>
</svg>
