<svg width="16" height="16" viewBox="0 0 12.4473 12.4473" fill="none" xmlns="http://www.w3.org/2000/svg">
<path id="Union" d="M9.94727 0C11.328 0 12.4473 1.11929 12.4473 2.5V9.94727C12.4473 11.328 11.328 12.4473 9.94727 12.4473H2.5C1.11929 12.4473 0 11.328 0 9.94727V2.5C0 1.11929 1.11929 0 2.5 0H9.94727ZM2.5 1C1.67157 1 1 1.67157 1 2.5V9.94727C1 10.7757 1.67157 11.4473 2.5 11.4473H9.94727C10.7757 11.4473 11.4473 10.7757 11.4473 9.94727V2.5C11.4473 1.67157 10.7757 1 9.94727 1H2.5Z" fill="var(--fill-0, currentColor)"/>
</svg>
