<svg width="16" height="16" viewBox="0 0 13.0068 14.8994" fill="none" xmlns="http://www.w3.org/2000/svg">
<path id="Union" d="M7.78906 0C8.18653 0 8.56837 0.157633 8.84961 0.438477L12.5674 4.15332C12.8487 4.43454 13.0067 4.81607 13.0068 5.21387V11.3994C13.0066 12.2277 12.3351 12.8994 11.5068 12.8994H11V13.3994C10.9998 14.2277 10.3283 14.8994 9.5 14.8994H1.84961C0.828063 14.8992 0 14.0704 0 13.0488V3.5C8.17423e-07 2.67157 0.671572 2 1.5 2H2.00684V1.5C2.00684 0.671722 2.67861 0.000239483 3.50684 0H7.78906ZM1.5 3C1.22386 3 1 3.22386 1 3.5V13.0488C1 13.5181 1.38035 13.8992 1.84961 13.8994H9.5C9.77603 13.8994 9.99981 13.6754 10 13.3994V12.8994H3.50684C2.67873 12.8992 2.00703 12.2275 2.00684 11.3994V3H1.5ZM3.50684 1C3.2309 1.00024 3.00684 1.22401 3.00684 1.5V11.3994C3.00703 11.6752 3.23101 11.8992 3.50684 11.8994H11.5068C11.7829 11.8994 12.0066 11.6754 12.0068 11.3994V5.2998H9.20801C8.4314 5.2998 7.79269 4.70945 7.71582 3.95312L7.70801 3.7998V1H3.50684ZM10.3584 9.45996C10.5861 9.50668 10.7578 9.70865 10.7578 9.9502C10.7578 10.1917 10.5861 10.3937 10.3584 10.4404L10.2578 10.4502H4.75781C4.4817 10.4502 4.25787 10.2263 4.25781 9.9502C4.25781 9.67405 4.48167 9.4502 4.75781 9.4502H10.2578L10.3584 9.45996ZM8.71973 7.30078C8.99559 7.3011 9.21973 7.52484 9.21973 7.80078C9.21967 8.07668 8.99556 8.30046 8.71973 8.30078H4.75781C4.4817 8.30078 4.25787 8.07688 4.25781 7.80078C4.25781 7.52464 4.48167 7.30078 4.75781 7.30078H8.71973ZM8.70801 3.7998L8.71777 3.90039C8.76438 4.12825 8.96637 4.2998 9.20801 4.2998H11.2988L8.70801 1.71094V3.7998Z" fill="var(--fill-0, currentColor)"/>
</svg>
