<svg width="16" height="16" viewBox="0 0 12 12" fill="none" xmlns="http://www.w3.org/2000/svg">
<path id="Union" d="M2.5 0C3.88071 0 5 1.11929 5 2.5V9.5C5 10.8807 3.88071 12 2.5 12C1.11929 12 0 10.8807 0 9.5V2.5C0 1.11929 1.11929 0 2.5 0ZM9.5 0C10.8807 0 12 1.11929 12 2.5V9.5C12 10.8807 10.8807 12 9.5 12C8.11929 12 7 10.8807 7 9.5V2.5C7 1.11929 8.11929 0 9.5 0ZM2.5 1C1.67157 1 1 1.67157 1 2.5V9.5C1 10.3284 1.67157 11 2.5 11C3.32843 11 4 10.3284 4 9.5V2.5C4 1.67157 3.32843 1 2.5 1ZM9.5 1C8.67157 1 8 1.67157 8 2.5V9.5C8 10.3284 8.67157 11 9.5 11C10.3284 11 11 10.3284 11 9.5V2.5C11 1.67157 10.3284 1 9.5 1Z" fill="var(--fill-0, currentColor)"/>
</svg>
