<svg width="16" height="16" viewBox="0 0 14.5 14.5" fill="none" xmlns="http://www.w3.org/2000/svg">
<path id="Union" fill-rule="evenodd" clip-rule="evenodd" d="M13.5 7.25C13.5 3.79822 10.7018 1 7.25 1C3.79822 1 1 3.79822 1 7.25C1 10.7018 3.79822 13.5 7.25 13.5C10.7018 13.5 13.5 10.7018 13.5 7.25ZM7.25 14.5C3.24594 14.5 0 11.2541 0 7.25C0 3.24594 3.24594 0 7.25 0C11.2541 0 14.5 3.24594 14.5 7.25C14.5 11.2541 11.2541 14.5 7.25 14.5ZM6.76686 3.02637V3.73527C6.3865 3.81944 6.0347 4.00232 5.75225 4.2674C5.45165 4.54952 5.24244 4.91265 5.15752 5.3133C5.07257 5.71417 5.11687 6.12929 5.28252 6.50471C5.44805 6.87975 5.72626 7.19526 6.07646 7.41486C6.42624 7.63416 6.83422 7.74974 7.24932 7.74982V6.74982C7.01849 6.74974 6.79508 6.68558 6.60771 6.56818C6.4205 6.45079 6.27943 6.28674 6.19756 6.10139C6.11591 5.91639 6.0949 5.71438 6.13603 5.52033C6.17726 5.32608 6.2804 5.14271 6.43682 4.99592C6.59358 4.84895 6.79695 4.7451 7.02275 4.70295C7.24871 4.66079 7.48256 4.68344 7.69365 4.76545C7.90467 4.84748 8.08053 4.98427 8.20146 5.15412C8.32203 5.3235 8.38408 5.51956 8.38408 5.71662H9.38408C9.38408 5.30705 9.25445 4.90907 9.01592 4.57404C8.77771 4.23947 8.44217 3.98296 8.05596 3.83283C7.96156 3.79616 7.86494 3.76615 7.76686 3.74286V3.02637H6.76686ZM6.76686 10.7649C6.6572 10.7406 6.54924 10.708 6.44404 10.6672C6.05783 10.517 5.72229 10.2605 5.48408 9.92597C5.24555 9.59094 5.11592 9.19296 5.11592 8.78339H6.11592C6.11592 8.98045 6.17797 9.17651 6.29854 9.34589C6.41947 9.51574 6.59533 9.65253 6.80635 9.73456C7.01744 9.81657 7.25129 9.83921 7.47725 9.79706C7.70305 9.75491 7.90642 9.65106 8.06318 9.50409C8.2196 9.3573 8.32273 9.17393 8.36397 8.97968C8.40509 8.78563 8.38409 8.58362 8.30244 8.39862C8.22057 8.21327 8.0795 8.04922 7.89229 7.93183C7.70492 7.81443 7.48151 7.75027 7.25068 7.75019V6.75019C7.66578 6.75027 8.07376 6.86585 8.42354 7.08515C8.77374 7.30475 9.05195 7.62026 9.21748 7.9953C9.38313 8.37072 9.42743 8.78584 9.34248 9.18671C9.25756 9.58736 9.04835 9.95049 8.74775 10.2326C8.47367 10.4898 8.13428 10.6697 7.76686 10.757V11.4738H6.76686V10.7649Z" fill="var(--fill-0, currentColor)"/>
</svg>
