<svg width="16" height="16" viewBox="0 0 14 12" fill="none" xmlns="http://www.w3.org/2000/svg">
<path id="Union" fill-rule="evenodd" clip-rule="evenodd" d="M2 12H12L12.2041 11.9893C13.1457 11.8938 13.8938 11.1457 13.9893 10.2041L14 10V4.38867V2C14 0.895431 13.1046 0 12 0H2C0.895431 0 0 0.895431 0 2V4.38867V10L0.0107422 10.2041C0.1062 11.1457 0.854346 11.8938 1.7959 11.9893L2 12ZM1 4.38867V10C1 10.5523 1.44772 11 2 11H12C12.5523 11 13 10.5523 13 10V4.38867H1ZM1 3.38867H13V2C13 1.44772 12.5523 1 12 1H2C1.96765 1 1.93565 1.00154 1.90408 1.00454C1.42855 1.0498 1.05011 1.42807 1.00459 1.90352L1 2V3.38867Z" fill="var(--fill-0, currentColor)"/>
</svg>
