<svg width="16" height="16" viewBox="0 0 14.6811 12.3643" fill="none" xmlns="http://www.w3.org/2000/svg">
<path id="Union" d="M6.20292 6.73535C7.75272 6.87009 9.05651 7.99524 9.39921 9.53711L9.47343 9.87207C9.75758 11.1508 8.7843 12.3643 7.4744 12.3643H2.04764C0.737999 12.3639 -0.234523 11.1506 0.0495971 9.87207L0.123816 9.53711C0.489345 7.89233 1.94869 6.72177 3.63358 6.72168H5.88944L6.20292 6.73535ZM3.40702 7.73145C2.28835 7.82876 1.34773 8.64094 1.10038 9.75391L1.02518 10.0898C0.88012 10.7437 1.37788 11.3639 2.04764 11.3643H7.4744C8.14447 11.3643 8.64206 10.7439 8.49686 10.0898L8.42264 9.75391C8.17521 8.64071 7.23403 7.82843 6.11503 7.73145L5.88944 7.72168H3.63358L3.40702 7.73145ZM11.0476 5.1748C12.7326 5.17485 14.1919 6.3454 14.5574 7.99023L14.6316 8.3252C14.9154 9.60355 13.943 10.817 12.6336 10.8174H10.6463C10.3703 10.8174 10.1465 10.5933 10.1463 10.3174C10.1463 10.0412 10.3701 9.81738 10.6463 9.81738H12.6336C13.3032 9.81705 13.8007 9.19666 13.656 8.54297L13.5808 8.20703C13.317 7.01973 12.2639 6.17485 11.0476 6.1748H8.79178C8.46654 6.1748 8.15333 6.2349 7.86405 6.3457C7.80314 6.36904 7.7431 6.3951 7.68436 6.42285C7.43492 6.54063 7.13651 6.43375 7.01835 6.18457C6.90043 5.935 7.00718 5.63663 7.25663 5.51855C7.33799 5.48011 7.42123 5.44447 7.50565 5.41211C7.90729 5.25823 8.34212 5.1748 8.79178 5.1748H11.0476ZM4.99882 1.04297C6.16922 1.1618 7.08258 2.15083 7.0828 3.35254L7.07108 3.58984C6.95223 4.76039 5.96341 5.67383 4.76151 5.67383L4.52421 5.66211C3.43179 5.55107 2.56286 4.68229 2.45194 3.58984L2.44022 3.35254C2.44046 2.0708 3.47975 1.03137 4.76151 1.03125L4.99882 1.04297ZM4.76151 2.03125C4.03203 2.03137 3.44046 2.62309 3.44022 3.35254C3.44022 4.08219 4.03189 4.67371 4.76151 4.67383C5.49123 4.67383 6.0828 4.08226 6.0828 3.35254C6.08257 2.62301 5.49109 2.03125 4.76151 2.03125ZM10.3894 0.0107422C11.4297 0.116601 12.242 0.995279 12.242 2.06348L12.2312 2.27441C12.1256 3.3147 11.2466 4.12673 10.1785 4.12695L9.96757 4.11621C8.99644 4.01766 8.22445 3.24551 8.12577 2.27441L8.11503 2.06348C8.11503 0.923912 9.03894 0 10.1785 0L10.3894 0.0107422ZM10.1785 1C9.59122 1 9.11503 1.4762 9.11503 2.06348C9.11509 2.6507 9.59126 3.12695 10.1785 3.12695C10.7655 3.12671 11.2419 2.65056 11.242 2.06348C11.242 1.47635 10.7656 1.00024 10.1785 1Z" fill="var(--fill-0, currentColor)"/>
</svg>
