<svg width="16" height="16" viewBox="0 0 16 16" fill="none" xmlns="http://www.w3.org/2000/svg">
<path d="M6.54932 8.53906C8.23426 8.53906 9.69351 9.70969 10.0591 11.3545L10.1333 11.6895C10.4175 12.9682 9.44418 14.1816 8.13428 14.1816H2.70752C1.39787 14.1813 0.425352 12.968 0.709473 11.6895L0.783691 11.3545C1.14922 9.70971 2.60857 8.53916 4.29346 8.53906H6.54932ZM4.29346 9.53906C3.07726 9.53916 2.02411 10.384 1.76025 11.5713L1.68506 11.9072C1.54 12.5611 2.03775 13.1813 2.70752 13.1816H8.13428C8.80434 13.1816 9.30194 12.5613 9.15674 11.9072L9.08252 11.5713C8.81862 10.384 7.76557 9.53906 6.54932 9.53906H4.29346ZM11.7075 6.99219C13.3925 6.99223 14.8518 8.16278 15.2173 9.80762L15.2915 10.1426C15.5753 11.4209 14.6029 12.6344 13.2935 12.6348H11.3062C11.0302 12.6348 10.8064 12.4107 10.8062 12.1348C10.8062 11.8586 11.03 11.6348 11.3062 11.6348H13.2935C13.963 11.6344 14.4606 11.014 14.3159 10.3604L14.2407 10.0244C13.9769 8.83711 12.9238 7.99223 11.7075 7.99219H9.45166C9.12641 7.99219 8.8132 8.05229 8.52393 8.16309C8.46302 8.18643 8.40298 8.21249 8.34424 8.24023C8.0948 8.35802 7.79638 8.25113 7.67822 8.00195C7.5603 7.75238 7.66705 7.45401 7.9165 7.33594C7.99786 7.2975 8.0811 7.26185 8.16553 7.22949C8.56716 7.07561 9.002 6.99219 9.45166 6.99219H11.7075ZM5.65869 2.86035C6.8291 2.97918 7.74246 3.96821 7.74268 5.16992L7.73096 5.40723C7.61211 6.57777 6.62329 7.49121 5.42139 7.49121L5.18408 7.47949C4.09167 7.36846 3.22273 6.49967 3.11182 5.40723L3.1001 5.16992C3.10033 3.88818 4.13962 2.84875 5.42139 2.84863L5.65869 2.86035ZM5.42139 3.84863C4.69191 3.84875 4.10033 4.44047 4.1001 5.16992C4.1001 5.89957 4.69177 6.49109 5.42139 6.49121C6.15111 6.49121 6.74267 5.89964 6.74268 5.16992C6.74244 4.4404 6.15097 3.84864 5.42139 3.84863ZM11.0493 1.82812C12.0896 1.93398 12.9019 2.81266 12.9019 3.88086L12.8911 4.0918C12.7854 5.13208 11.9065 5.94411 10.8384 5.94434L10.6274 5.93359C9.65631 5.83504 8.88432 5.06289 8.78564 4.0918L8.7749 3.88086C8.7749 2.7413 9.69881 1.81738 10.8384 1.81738L11.0493 1.82812ZM10.8384 2.81738C10.2511 2.81738 9.7749 3.29358 9.7749 3.88086C9.77496 4.46809 10.2511 4.94434 10.8384 4.94434C11.4254 4.9441 11.9018 4.46794 11.9019 3.88086C11.9019 3.29373 11.4255 2.81762 10.8384 2.81738Z" fill="currentColor"/>
</svg>
