<svg width="16" height="16" viewBox="0 0 14 14" fill="none" xmlns="http://www.w3.org/2000/svg">
<path id="Union" d="M7 0C10.866 0 14 3.13401 14 7C14 10.866 10.866 14 7 14C3.13401 14 0 10.866 0 7C0 3.13401 3.13401 0 7 0ZM9.75 8.5C9.01717 8.5 8.50422 8.65253 8.12793 8.84277C7.74778 9.03501 7.48265 9.27745 7.24707 9.50488C7.08807 9.65839 7.00001 9.85728 7 10.0352V13C9.48729 13 11.6207 11.4863 12.5303 9.33008C11.9601 8.92399 11.0744 8.5 9.75 8.5ZM3.75 8.5C3.01981 8.5 2.50767 8.6516 2.13184 8.84082C1.85955 8.97794 1.64585 9.1409 1.45996 9.30566C2.24038 11.1787 3.94236 12.5697 6 12.915V10.0352C6.00001 9.71331 6.099 9.4099 6.25781 9.15137C5.69171 8.81028 4.88188 8.50007 3.75 8.5ZM7 1C3.68629 1 1 3.68629 1 7C1 7.43945 1.04801 7.8677 1.1377 8.28027C1.29548 8.1649 1.47567 8.05099 1.68164 7.94727C2.2047 7.68387 2.87233 7.5 3.75 7.5C5.21393 7.50007 6.25673 7.94354 6.9668 8.41406C7.16146 8.25649 7.3943 8.09303 7.67676 7.9502C8.20055 7.68539 8.86925 7.5 9.75 7.5C11.1371 7.5 12.144 7.89812 12.8477 8.33789C12.9457 7.90751 13 7.46009 13 7C13 3.68629 10.3137 1 7 1ZM9.5 4.5C10.1875 4.5 10.75 5.0625 10.75 5.75C10.75 6.4375 10.1875 7 9.5 7C8.8125 7 8.25 6.4375 8.25 5.75C8.25 5.0625 8.8125 4.5 9.5 4.5ZM5 3.5C5.825 3.5 6.5 4.175 6.5 5C6.5 5.825 5.825 6.5 5 6.5C4.175 6.5 3.5 5.825 3.5 5C3.5 4.175 4.175 3.5 5 3.5Z" fill="var(--fill-0, currentColor)"/>
</svg>
