<svg width="16" height="16" viewBox="0 0 9.20979 12.5003" fill="none" xmlns="http://www.w3.org/2000/svg">
<path id="Union" fill-rule="evenodd" clip-rule="evenodd" d="M7.45979 1C7.874 1 8.20979 1.33579 8.20979 1.75C8.20979 2.16421 7.874 2.5 7.45979 2.5C7.04557 2.5 6.70979 2.16421 6.70979 1.75C6.70979 1.33579 7.04557 1 7.45979 1ZM7 3.43897C6.25655 3.23706 5.70979 2.55738 5.70979 1.75C5.70979 0.783502 6.49329 0 7.45979 0C8.42628 0 9.20979 0.783502 9.20979 1.75C9.20979 2.52798 8.70212 3.18739 8 3.41503V8.50034C7.99982 10.7093 6.20902 12.5003 4 12.5003C1.79098 12.5003 0.000185157 10.7093 0 8.50034V6.66636C0.000129517 6.45349 0.134824 6.26346 0.335938 6.1937C0.537292 6.12399 0.760814 6.19031 0.892578 6.35777L2.36133 8.22398C2.53182 8.44099 2.49427 8.75545 2.27734 8.92613C2.06035 9.09664 1.7459 9.05902 1.5752 8.84214L1 8.1107V8.50034C1.00019 10.157 2.34326 11.5003 4 11.5003C5.65674 11.5003 6.99982 10.157 7 8.50034V3.43897Z" fill="var(--fill-0, currentColor)"/>
</svg>
