<svg width="16" height="16" viewBox="0 0 14 14" fill="none" xmlns="http://www.w3.org/2000/svg">
<path id="Union" d="M7 0C10.866 9.66416e-08 14 3.13401 14 7C14 10.866 10.866 14 7 14C3.13401 14 9.66384e-08 10.866 0 7C0 3.13401 3.13401 0 7 0ZM7.20703 7.5L3.12598 11.5801C4.17138 12.4652 5.52292 13 7 13C10.1453 13 12.7234 10.5797 12.9775 7.5H7.20703ZM6.5 1.02246C3.42031 1.27661 1 3.85472 1 7C1 8.47658 1.53434 9.82778 2.41895 10.873L6.5 6.79297V1.02246ZM7.5 6.5H12.9775C12.737 3.58523 10.4148 1.263 7.5 1.02246V6.5Z" fill="var(--fill-0, currentColor)"/>
</svg>
