<svg width="16" height="16" viewBox="0 0 12.4046 14.4852" fill="none" xmlns="http://www.w3.org/2000/svg">
<path id="Union" fill-rule="evenodd" clip-rule="evenodd" d="M10.4371 2.24219C10.305 0.968307 9.23145 0.000245858 7.95076 0H4.38924C3.09798 0 2.01924 0.983794 1.89998 2.26953L1.38924 7.77148C1.36511 8.03069 1.27385 8.2789 1.12459 8.49219L0.182209 9.83887C-0.281226 10.5015 0.192897 11.4118 1.00154 11.4121H5.73483V13.9852C5.73506 14.2611 5.95883 14.4852 6.23483 14.4852C6.51083 14.4852 6.7346 14.2611 6.73483 13.9852V11.4121H11.4029C12.2119 11.4121 12.686 10.5016 12.2222 9.83887L11.273 8.4834C11.1268 8.27442 11.0366 8.03107 11.0103 7.77734L10.4371 2.24219ZM2.89608 2.36133C2.96773 1.58999 3.61456 1 4.38924 1H7.95076C8.71914 1.00025 9.36281 1.58136 9.44197 2.3457L10.0152 7.88086C10.059 8.30375 10.2109 8.70834 10.4547 9.05664L11.4029 10.4121H1.00154L1.94393 9.06641C2.19298 8.71062 2.34522 8.29572 2.38533 7.86328L2.89608 2.36133Z" fill="var(--fill-0, currentColor)"/>
</svg>
