<svg width="16" height="16" viewBox="0 0 12.4041 14.4844" fill="none" xmlns="http://www.w3.org/2000/svg">
<path id="Union" d="M7.95011 0C9.23093 7.10387e-05 10.3053 0.968207 10.4374 2.24219L11.0107 7.77734C11.037 8.03082 11.1273 8.2736 11.2733 8.48242L12.2216 9.83789C12.6854 10.5005 12.2119 11.4117 11.4032 11.4121H6.73429V13.9844C6.73426 14.2605 6.5104 14.4844 6.23429 14.4844C5.95827 14.4842 5.73431 14.2604 5.73429 13.9844V11.4121H1.00089C0.19233 11.4115 -0.281271 10.5005 0.182528 9.83789L1.12393 8.49219C1.27329 8.27875 1.3655 8.0299 1.38956 7.77051L1.89932 2.26855C2.01881 0.983201 3.09767 0.00019598 4.38858 0H7.95011ZM4.38858 1C3.61406 1.0002 2.96704 1.5901 2.89542 2.36133L2.38468 7.8623C2.34457 8.29475 2.19232 8.71062 1.94327 9.06641L1.00089 10.4121L11.4023 10.4111L10.454 9.05664C10.2102 8.70838 10.0594 8.30369 10.0155 7.88086L9.44229 2.3457C9.36309 1.58127 8.71862 1.00007 7.95011 1H4.38858Z" fill="var(--fill-0, currentColor)"/>
</svg>
