<svg width="16" height="16" viewBox="0 0 14 13.0107" fill="none" xmlns="http://www.w3.org/2000/svg">
<path id="Union" fill-rule="evenodd" clip-rule="evenodd" d="M4.82156 13.0057C4.79819 13.009 4.7743 13.0107 4.75 13.0107C4.7257 13.0107 4.70181 13.009 4.67844 13.0057H2L1.7959 12.9949C0.854346 12.8995 0.1062 12.1513 0.0107422 11.2098L0 11.0057V2.00566C0 0.901091 0.895431 0.00566052 2 0.00566047H4.67452C4.69913 0.0019327 4.72434 0 4.75 0C4.77566 0 4.80087 0.0019327 4.82548 0.00566047H9.17452C9.19913 0.0019327 9.22434 0 9.25 0C9.27566 0 9.30087 0.0019327 9.32548 0.00566047H12C13.1046 0.00566047 14 0.901091 14 2.00566V11.0057C14 12.0413 13.2128 12.8927 12.2041 12.9949L12 13.0057H9.32156C9.29819 13.009 9.2743 13.0107 9.25 13.0107C9.2257 13.0107 9.20181 13.009 9.17844 13.0057H4.82156ZM4.25 12.0057L4.25 1.00566H2C1.44772 1.00566 1 1.45338 1 2.00566V11.0057C1 11.5579 1.44772 12.0057 2 12.0057H4.25ZM5.25 12.0057H8.75L8.75 1.00566H5.25L5.25 12.0057ZM9.75 1.00566L9.75 12.0057H12C12.5523 12.0057 13 11.5579 13 11.0057V2.00566C13 1.45338 12.5523 1.00566 12 1.00566H9.75Z" fill="var(--fill-0, currentColor)"/>
</svg>
