<svg width="16" height="16" viewBox="0 0 11.9067 14.7711" fill="none" xmlns="http://www.w3.org/2000/svg">
<g id="Group 1321316369">
<path id="Vector" d="M11.1973 9.82614L6.24395 6.28805C6.0701 6.16387 5.83656 6.16387 5.66271 6.28805L0.709381 9.82614C0.430206 10.0255 0.430206 10.4405 0.709381 10.6399L5.66271 14.178C5.83656 14.3021 6.0701 14.3021 6.24395 14.178L11.1973 10.6399C11.4764 10.4405 11.4764 10.0255 11.1973 9.82614Z" fill="var(--fill-0, #EDEDED)" stroke="var(--stroke-0, currentColor)"/>
<path id="Vector_2" d="M11.1973 6.97868L6.24395 3.44059C6.0701 3.31641 5.83656 3.31641 5.66271 3.44059L0.709381 6.97868C0.430206 7.17809 0.430206 7.59301 0.709381 7.79242L5.66271 11.3305C5.83656 11.4547 6.0701 11.4547 6.24395 11.3305L11.1973 7.79241C11.4764 7.59301 11.4764 7.17809 11.1973 6.97868Z" fill="var(--fill-0, white)" stroke="var(--stroke-0, currentColor)"/>
<path id="Vector_3" d="M11.1974 4.13122L6.24403 0.593133C6.07018 0.468956 5.83664 0.468956 5.66279 0.593133L0.709464 4.13122C0.430289 4.33063 0.430289 4.74555 0.709464 4.94496L5.66279 8.48305C5.83664 8.60723 6.07018 8.60723 6.24403 8.48305L11.1974 4.94496C11.4765 4.74555 11.4765 4.33063 11.1974 4.13122Z" fill="var(--fill-0, white)" stroke="var(--stroke-0, currentColor)"/>
</g>
</svg>
