<svg width="16" height="16" viewBox="0 0 14 14.6571" fill="none" xmlns="http://www.w3.org/2000/svg">
<g id="Group 1321316368">
<path id="Vector" d="M11.2 7.32832L13.1456 5.93862C13.5643 5.63951 13.5643 5.01714 13.1456 4.71802L7.43593 0.6397C7.17516 0.453433 6.82484 0.453433 6.56407 0.6397L0.85442 4.71802C0.435659 5.01714 0.435658 5.63951 0.85442 5.93862L2.8 7.32832" stroke="var(--stroke-0, currentColor)"/>
<path id="Vector_2" d="M13.1456 8.71851L7.43593 4.64019C7.17516 4.45392 6.82484 4.45392 6.56407 4.64019L0.85442 8.71851C0.435659 9.01763 0.435658 9.63999 0.85442 9.93911L6.56407 14.0174C6.82484 14.2037 7.17516 14.2037 7.43593 14.0174L13.1456 9.93911C13.5643 9.64 13.5643 9.01763 13.1456 8.71851Z" fill="var(--fill-0, #EDEDED)" stroke="var(--stroke-0, currentColor)"/>
</g>
</svg>
