<svg width="16" height="16" viewBox="0 0 12 12" fill="none" xmlns="http://www.w3.org/2000/svg">
<path id="Union" fill-rule="evenodd" clip-rule="evenodd" d="M0 1C0 0.447715 0.447715 0 1 0C1.55228 0 2 0.447715 2 1C2 1.55228 1.55228 2 1 2C0.447715 2 0 1.55228 0 1ZM0 6C0 5.44772 0.447715 5 1 5C1.55228 5 2 5.44772 2 6C2 6.55228 1.55228 7 1 7C0.447715 7 0 6.55228 0 6ZM1 10C0.447715 10 0 10.4477 0 11C0 11.5523 0.447715 12 1 12C1.55228 12 2 11.5523 2 11C2 10.4477 1.55228 10 1 10ZM5 1C5 0.447715 5.44772 0 6 0C6.55228 0 7 0.447715 7 1C7 1.55228 6.55228 2 6 2C5.44772 2 5 1.55228 5 1ZM6 5C5.44772 5 5 5.44772 5 6C5 6.55228 5.44772 7 6 7C6.55228 7 7 6.55228 7 6C7 5.44772 6.55228 5 6 5ZM5 11C5 10.4477 5.44772 10 6 10C6.55228 10 7 10.4477 7 11C7 11.5523 6.55228 12 6 12C5.44772 12 5 11.5523 5 11ZM11 0C10.4477 0 10 0.447715 10 1C10 1.55228 10.4477 2 11 2C11.5523 2 12 1.55228 12 1C12 0.447715 11.5523 0 11 0ZM10 6C10 5.44772 10.4477 5 11 5C11.5523 5 12 5.44772 12 6C12 6.55228 11.5523 7 11 7C10.4477 7 10 6.55228 10 6ZM11 10C10.4477 10 10 10.4477 10 11C10 11.5523 10.4477 12 11 12C11.5523 12 12 11.5523 12 11C12 10.4477 11.5523 10 11 10Z" fill="var(--fill-0, currentColor)"/>
</svg>
