<svg width="16" height="16" viewBox="0 0 14 14.6566" fill="none" xmlns="http://www.w3.org/2000/svg">
<g id="Group 1321316369">
<path id="Vector" d="M11.2 7.32832L13.1456 8.71802C13.5643 9.01714 13.5643 9.63951 13.1456 9.93862L7.43593 14.0169C7.17516 14.2032 6.82484 14.2032 6.56407 14.0169L0.85442 9.93862C0.435659 9.63951 0.435658 9.01714 0.85442 8.71802L2.8 7.32832" stroke="var(--stroke-0, currentColor)"/>
<path id="Vector_2" d="M13.1456 4.71802L7.43593 0.6397C7.17516 0.453433 6.82484 0.453433 6.56407 0.6397L0.85442 4.71802C0.435659 5.01714 0.435658 5.63951 0.85442 5.93862L6.56407 10.0169C6.82484 10.2032 7.17516 10.2032 7.43593 10.0169L13.1456 5.93862C13.5643 5.63951 13.5643 5.01714 13.1456 4.71802Z" fill="var(--fill-0, #EDEDED)" stroke="var(--stroke-0, currentColor)"/>
</g>
</svg>
