<svg width="16" height="16" viewBox="0 0 16 16" fill="none" xmlns="http://www.w3.org/2000/svg">
<path d="M11.5 0.850098C11.7761 0.850098 12 1.07396 12 1.3501V2.3501H12.5C13.6046 2.3501 14.5 3.24553 14.5 4.3501V13.1499C14.5 14.1856 13.7128 15.0379 12.7041 15.1401L12.5 15.1499H3.5L3.2959 15.1401C2.2872 15.0379 1.50003 14.1856 1.5 13.1499V4.3501C1.5 3.24553 2.39543 2.3501 3.5 2.3501H4V1.3501C4 1.07402 4.22395 0.850207 4.5 0.850098C4.77614 0.850098 5 1.07396 5 1.3501V2.3501H11V1.3501C11 1.07402 11.224 0.850207 11.5 0.850098ZM3.5 3.3501C2.94772 3.3501 2.5 3.79781 2.5 4.3501V13.1499C2.50003 13.7022 2.94773 14.1499 3.5 14.1499H12.5C13.0523 14.1499 13.5 13.7022 13.5 13.1499V4.3501C13.5 3.79781 13.0523 3.3501 12.5 3.3501H3.5ZM7.5498 10.8882C7.82595 10.8882 8.0498 11.112 8.0498 11.3882C8.04964 11.6642 7.82585 11.8882 7.5498 11.8882H4.75C4.47405 11.8881 4.25016 11.6641 4.25 11.3882C4.25 11.1121 4.47395 10.8883 4.75 10.8882H7.5498ZM11.25 8.0874C11.526 8.0874 11.7498 8.31146 11.75 8.5874C11.75 8.86354 11.5261 9.0874 11.25 9.0874H4.75C4.47395 9.08729 4.25 8.86348 4.25 8.5874C4.25023 8.31153 4.47409 8.08751 4.75 8.0874H11.25ZM11.25 5.2876C11.5261 5.2876 11.7499 5.51154 11.75 5.7876C11.75 6.06374 11.5261 6.2876 11.25 6.2876H4.75C4.47395 6.28749 4.25 6.06367 4.25 5.7876C4.2501 5.51161 4.47401 5.28771 4.75 5.2876H11.25Z" fill="currentColor"/>
</svg>
