<svg width="16" height="16" viewBox="0 0 14.5 14.5" fill="none" xmlns="http://www.w3.org/2000/svg">
<path id="Union" fill-rule="evenodd" clip-rule="evenodd" d="M7.25 1C10.7018 1 13.5 3.79822 13.5 7.25C13.5 9.64824 12.1492 11.731 10.167 12.779V5.07471L11.2461 6.15381C11.4414 6.34907 11.7588 6.34907 11.9541 6.15381C12.1491 5.95867 12.1489 5.64203 11.9541 5.44678L10.0257 3.51837C9.95514 3.44573 9.86271 3.39445 9.75904 3.37516C9.63389 3.35172 9.50152 3.37621 9.3916 3.44873L9.38793 3.45176C9.35911 3.47118 9.33242 3.49352 9.3083 3.51837L7.37988 5.44678C7.18475 5.64205 7.18466 5.95859 7.37988 6.15381C7.57511 6.3489 7.89169 6.3489 8.08691 6.15381L9.16699 5.07306V13.2005C8.56292 13.395 7.91873 13.5 7.25 13.5C3.79822 13.5 1 10.7018 1 7.25C1 4.85176 2.35077 2.76901 4.33301 1.72104V9.42578L3.25342 8.34619C3.05816 8.15093 2.74165 8.15093 2.54639 8.34619C2.35112 8.54145 2.35112 8.85796 2.54639 9.05322L4.45858 10.9654C4.55028 11.0687 4.68411 11.1338 4.83301 11.1338C4.9762 11.1338 5.10546 11.0736 5.19672 10.9771L7.12061 9.05322C7.31552 8.85803 7.31552 8.54139 7.12061 8.34619C6.92534 8.15093 6.60786 8.15093 6.4126 8.34619L5.33301 9.42511V1.29948C5.93708 1.10502 6.58127 1 7.25 1ZM0 7.25C0 11.2541 3.24594 14.5 7.25 14.5C11.2541 14.5 14.5 11.2541 14.5 7.25C14.5 3.24594 11.2541 0 7.25 0C3.24594 0 0 3.24594 0 7.25Z" fill="var(--fill-0, currentColor)"/>
</svg>
