<svg width="16" height="16" viewBox="0 0 13 14.2998" fill="none" xmlns="http://www.w3.org/2000/svg">
<path id="Union" d="M10 0C10.2761 0 10.5 0.223858 10.5 0.5V1.5H11C12.1046 1.5 13 2.39543 13 3.5V12.2998C13 13.3355 12.2128 14.1878 11.2041 14.29L11 14.2998H2L1.7959 14.29C0.787203 14.1878 2.8269e-05 13.3355 0 12.2998V3.5C8.40767e-07 2.39543 0.895431 1.5 2 1.5H2.5V0.5C2.5 0.223925 2.72395 0.00010962 3 0C3.27614 0 3.5 0.223858 3.5 0.5V1.5H9.5V0.5C9.5 0.223925 9.72395 0.000109749 10 0ZM2 2.5C1.44772 2.5 1 2.94772 1 3.5V12.2998C1.00003 12.8521 1.44773 13.2998 2 13.2998H11C11.5523 13.2998 12 12.8521 12 12.2998V3.5C12 2.94772 11.5523 2.5 11 2.5H2ZM6.0498 10.0381C6.32595 10.0381 6.5498 10.2619 6.5498 10.5381C6.54964 10.8141 6.32585 11.0381 6.0498 11.0381H3.25C2.97405 11.038 2.75016 10.814 2.75 10.5381C2.75 10.262 2.97395 10.0382 3.25 10.0381H6.0498ZM9.75 7.2373C10.026 7.2373 10.2498 7.46136 10.25 7.7373C10.25 8.01345 10.0261 8.2373 9.75 8.2373H3.25C2.97395 8.23719 2.75 8.01338 2.75 7.7373C2.75023 7.46143 2.97409 7.23741 3.25 7.2373H9.75ZM9.75 4.4375C10.0261 4.4375 10.2499 4.66144 10.25 4.9375C10.25 5.21364 10.0261 5.4375 9.75 5.4375H3.25C2.97395 5.43739 2.75 5.21357 2.75 4.9375C2.7501 4.66151 2.97401 4.43761 3.25 4.4375H9.75Z" fill="var(--fill-0, currentColor)"/>
</svg>
