<svg width="16" height="16" viewBox="0 0 9.60156 11.317" fill="none" xmlns="http://www.w3.org/2000/svg">
<path id="Union" d="M0.723633 0.119236C1.1671 -0.0724006 1.69809 -0.0305058 2.09473 0.226658L9.07812 4.75303C9.40771 4.96672 9.60151 5.30215 9.60156 5.6583C9.60156 6.0145 9.40776 6.34985 9.07812 6.56357L2.09473 11.0909C1.69806 11.3481 1.1671 11.389 0.723633 11.1974C0.28014 11.0057 0 10.6133 0 10.1847V1.13193C0 0.703287 0.28014 0.310932 0.723633 0.119236ZM1.55078 1.06553C1.44213 0.99508 1.2647 0.974712 1.12012 1.0372C1.05525 1.06527 1.02227 1.0994 1.00879 1.11826C0.996329 1.13569 0.999954 1.13991 1 1.13193V10.1847C0.999874 10.1771 0.99665 10.1813 1.00879 10.1983C1.02227 10.2172 1.05532 10.2513 1.12012 10.2794C1.2647 10.3419 1.44213 10.3215 1.55078 10.2511L8.53418 5.7247L8.5791 5.68857C8.58909 5.67813 8.59543 5.66969 8.59863 5.66416C8.60002 5.66176 8.60092 5.65973 8.60156 5.6583C8.60156 5.66429 8.60427 5.66332 8.59863 5.65342C8.59217 5.64224 8.57388 5.61763 8.53418 5.59189L1.55078 1.06553Z" fill="var(--fill-0, currentColor)"/>
</svg>
