<svg width="16" height="16" viewBox="0 0 16 16" fill="none" xmlns="http://www.w3.org/2000/svg">
<path fill-rule="evenodd" clip-rule="evenodd" d="M5.74491 13.4322L12.7288 8.90548C13.0584 8.69176 13.2524 8.35635 13.2524 8.00015C13.2524 7.64395 13.0584 7.30853 12.7288 7.09481L5.74491 2.56814C5.34824 2.31095 4.81752 2.26958 4.37403 2.46128C3.93054 2.65297 3.65039 3.04483 3.65039 3.47347V12.5268C3.65039 12.9555 3.93054 13.3473 4.37403 13.539C4.81752 13.7307 5.34824 13.6893 5.74491 13.4322ZM12.1848 7.93388L5.20101 3.40729L5.20089 3.40721C5.09224 3.33676 4.91537 3.31671 4.77079 3.3792C4.70583 3.40728 4.67288 3.44122 4.65939 3.4601C4.65364 3.46814 4.65127 3.47334 4.65039 3.47582V12.5245C4.65127 12.527 4.65364 12.5322 4.65939 12.5402C4.67288 12.5591 4.70583 12.593 4.77079 12.6211C4.91537 12.6836 5.09224 12.6635 5.20089 12.5931L5.20101 12.593L12.1848 8.06641C12.1848 8.06639 12.1849 8.06636 12.1849 8.06633C12.2245 8.04062 12.2421 8.01674 12.2486 8.00558C12.2499 8.00335 12.2508 8.00154 12.2514 8.00015C12.2508 7.99875 12.2499 7.99695 12.2486 7.99472C12.2421 7.98356 12.2245 7.95967 12.1849 7.93396C12.1849 7.93394 12.1848 7.93391 12.1848 7.93388ZM4.64994 12.5227C4.64998 12.5228 4.6501 12.5231 4.65021 12.5239L4.64994 12.5227ZM4.64994 3.47755C4.6499 3.47755 4.64996 3.47715 4.65022 3.47634L4.64994 3.47755Z" fill="currentColor"/>
</svg>
