<svg width="16" height="16" viewBox="0 0 13.9993 14.0006" fill="none" xmlns="http://www.w3.org/2000/svg">
<path id="Union" d="M0.0664256 1.42482C-0.242281 0.578491 0.578491 -0.242281 1.42482 0.0664256H1.4258L13.3047 4.40725L13.4707 4.48342C14.2452 4.91876 14.1623 6.12179 13.2637 6.41115V6.41213L8.07131 8.07228L6.41018 13.2637L6.41115 13.2647C6.12278 14.1654 4.91763 14.2451 4.48244 13.4717L4.40627 13.3057L0.0664256 1.42482ZM1.01955 1.01955C1.00955 1.02955 1.00402 1.04048 1.00197 1.04885C1.00055 1.05501 0.999735 1.06516 1.00588 1.08205L5.34572 12.9619C5.35347 12.9828 5.3613 12.9897 5.36525 12.9922C5.37232 12.9965 5.38571 13.0013 5.40236 13.001C5.41939 13.0005 5.4328 12.9949 5.43947 12.9903C5.44337 12.9875 5.45126 12.9809 5.45803 12.96L7.19826 7.52248L7.24807 7.41408C7.30993 7.31315 7.40633 7.23619 7.5215 7.19924L12.959 5.459C12.9801 5.45195 12.9865 5.4434 12.9893 5.43947C12.994 5.43259 12.9996 5.42 13 5.40334C13.0004 5.38668 12.9955 5.37324 12.9912 5.36623C12.9887 5.36233 12.9819 5.35445 12.961 5.3467L1.08205 1.00588C1.06516 0.999735 1.05501 1.00055 1.04885 1.00197C1.04048 1.00402 1.02955 1.00955 1.01955 1.01955Z" fill="var(--fill-0, currentColor)"/>
</svg>
