<svg width="16" height="16" viewBox="0 0 13.9912 11.9013" fill="none" xmlns="http://www.w3.org/2000/svg">
<path id="Union" d="M12.6479 0.00828207C13.4716 0.0950215 14.0694 0.833926 13.9828 1.6577C13.8961 2.48126 13.158 3.07895 12.3344 2.99266C12.1041 2.96839 11.8925 2.89157 11.7075 2.77781L2.91253 9.89988C2.98528 10.1045 3.01681 10.3278 2.99261 10.5581C2.90569 11.3814 2.16759 11.9793 1.34417 11.893C0.520581 11.8065 -0.0778342 11.0681 0.00823484 10.2446C0.0948291 9.42072 0.83376 8.82208 1.65765 8.90867C1.88753 8.9329 2.09891 9.00907 2.28363 9.12254L11.0785 2.00145C11.0058 1.79708 10.9744 1.57425 10.9985 1.34422C11.0851 0.520498 11.8242 -0.0780575 12.6479 0.00828207ZM1.55316 9.90379C1.27853 9.87493 1.03222 10.0745 1.00335 10.3491C0.974955 10.6234 1.1743 10.8691 1.44866 10.8979C1.72283 10.9265 1.96825 10.7276 1.99749 10.4536C2.02634 10.1791 1.82753 9.9329 1.55316 9.90379ZM12.5434 1.0034C12.2689 0.974789 12.0225 1.17425 11.9936 1.44871C11.965 1.72303 12.1646 1.96848 12.4389 1.99754C12.7132 2.02616 12.9587 1.82749 12.9877 1.5532C13.0166 1.27873 12.8178 1.03246 12.5434 1.0034Z" fill="var(--fill-0, currentColor)"/>
</svg>
