<svg width="16" height="16" viewBox="0 0 16 16" fill="none" xmlns="http://www.w3.org/2000/svg">
<path fill-rule="evenodd" clip-rule="evenodd" d="M11.6255 12.3327L13.3034 14.0106L14.0105 13.3035L2.69682 1.98975L1.98972 2.69685L3.4663 4.17344C2.12292 5.03498 1.04087 6.26814 0.365002 7.7284C0.28516 7.9009 0.285298 8.09971 0.365029 8.27196C1.69838 11.1525 4.6151 13.1524 7.99997 13.1524C9.29734 13.1524 10.5272 12.8582 11.6255 12.3327ZM10.8693 11.5764L9.37865 10.0858C8.98352 10.3474 8.50933 10.5 8.00001 10.5C6.6193 10.5 5.50001 9.38075 5.50001 8.00004C5.50001 7.49068 5.65268 7.01652 5.91426 6.6214L4.19244 4.89958C2.96868 5.63424 1.97439 6.71239 1.34316 8.00015C2.54909 10.4602 5.07741 12.1524 7.99997 12.1524C9.01805 12.1524 9.98725 11.9473 10.8693 11.5764ZM6.6461 7.35324C6.55236 7.54906 6.50001 7.7683 6.50001 8.00004C6.50001 8.82846 7.17158 9.50004 8.00001 9.50004C8.23177 9.50004 8.451 9.44768 8.64681 9.35395L6.6461 7.35324ZM8.00007 3.84769C7.50161 3.84769 7.01513 3.89685 6.54506 3.99042L6.34984 3.00966C6.88385 2.90336 7.43571 2.84769 8.00007 2.84769C11.3849 2.84769 14.3017 4.84762 15.635 7.72812C15.7147 7.90029 15.7149 8.09908 15.635 8.27166C15.1968 9.21862 14.5877 10.0699 13.8477 10.7862L13.1522 10.0676C13.766 9.47356 14.2772 8.77458 14.6569 7.99993C13.4509 5.53987 10.9226 3.84769 8.00007 3.84769ZM9.50001 8.00004C9.50001 7.17161 8.82844 6.50004 8.00001 6.50004V5.50004C9.38072 5.50004 10.5 6.61933 10.5 8.00004H9.50001Z" fill="currentColor"/>
</svg>
