<svg width="16" height="16" viewBox="0 0 15.3899 12.0208" fill="none" xmlns="http://www.w3.org/2000/svg">
<path id="Union" fill-rule="evenodd" clip-rule="evenodd" d="M13.7055 11.3137L2.39178 0L1.68467 0.707107L3.16135 2.18379C1.91288 2.98435 0.889882 4.10568 0.209089 5.43217L0.0596753 5.73881C-0.0199848 5.9111 -0.0197987 6.10972 0.0596753 6.28178C1.39296 9.16214 4.30978 11.1624 7.69444 11.1626C8.99183 11.1626 10.2222 10.8686 11.3206 10.343L12.9984 12.0208L13.7055 11.3137ZM10.5641 9.58651L9.07344 8.09588C8.67837 8.35752 8.20429 8.51029 7.69496 8.51029C6.31425 8.51029 5.19496 7.391 5.19496 6.01029C5.19496 5.50094 5.34766 5.02681 5.60926 4.6317L3.88703 2.90947C2.66363 3.64415 1.67039 4.72281 1.03917 6.01029C2.24509 8.47004 4.77222 10.1625 7.69444 10.1626C8.71251 10.1626 9.68194 9.95742 10.5641 9.58651ZM6.34079 5.36323C6.24718 5.55918 6.19496 5.77856 6.19496 6.01029C6.19496 6.83872 6.86653 7.51029 7.69496 7.51029C7.92665 7.51029 8.14586 7.45786 8.34165 7.36409L6.34079 5.36323ZM7.69542 0.857948C11.0801 0.858104 13.9969 2.85842 15.3302 5.73881C15.4096 5.91081 15.4099 6.10939 15.3302 6.28178C14.8919 7.22865 14.283 8.08019 13.5431 8.79642L13.1954 8.43705L12.8468 8.07767C13.4605 7.48365 13.97 6.78392 14.3497 6.00932C13.1435 3.5502 10.6172 1.8581 7.69542 1.85795C7.19708 1.85795 6.71031 1.907 6.24034 2.00053L6.04503 1.02006C6.57897 0.913787 7.13113 0.857948 7.69542 0.857948ZM7.69496 3.51029C9.07567 3.51029 10.195 4.62958 10.195 6.01029H9.19496C9.19496 5.18186 8.52339 4.51029 7.69496 4.51029V3.51029Z" fill="var(--fill-0, currentColor)"/>
</svg>
