<svg width="16" height="16" viewBox="0 0 15.3899 10.3047" fill="none" xmlns="http://www.w3.org/2000/svg">
<path id="Union" fill-rule="evenodd" clip-rule="evenodd" d="M15.3302 4.88086C13.9969 2.00047 11.0801 0.000155702 7.69541 0C4.41621 0 1.57599 1.87702 0.18955 4.61328L0.0596668 4.88086C-0.0199186 5.05301 -0.0198593 5.25166 0.0596668 5.42383C1.39295 8.30419 4.30977 10.3045 7.69443 10.3047C11.0794 10.3047 13.9969 8.30446 15.3302 5.42383C15.4098 5.25165 15.4097 5.05305 15.3302 4.88086ZM1.03916 5.15234C2.24514 2.69244 4.77297 1 7.69541 1C10.6175 1.00015 13.1437 2.6928 14.3497 5.15234C13.1436 7.61202 10.6167 9.30469 7.69443 9.30469C4.77221 9.3045 2.24508 7.61209 1.03916 5.15234ZM7.69552 3.65232C8.52395 3.65232 9.19552 4.32389 9.19552 5.15232C9.19552 5.98075 8.52395 6.65232 7.69552 6.65232C6.86709 6.65232 6.19552 5.98075 6.19552 5.15232C6.19552 4.32389 6.86709 3.65232 7.69552 3.65232ZM5.19552 5.15232C5.19552 6.53303 6.31481 7.65232 7.69552 7.65232C9.07623 7.65232 10.1955 6.53303 10.1955 5.15232C10.1955 3.77161 9.07623 2.65232 7.69552 2.65232C6.31481 2.65232 5.19552 3.77161 5.19552 5.15232Z" fill="var(--fill-0, currentColor)"/>
</svg>
