<svg width="16" height="16" viewBox="0 0 14 12.7256" fill="none" xmlns="http://www.w3.org/2000/svg">
<path id="Union" d="M10.5 0C11.0523 0 11.5 0.447715 11.5 1V2.22559C12.8806 2.22559 13.9999 3.34496 14 4.72559V7.72559C14 9.1063 12.8807 10.2256 11.5 10.2256V11.7256C11.5 12.2779 11.0523 12.7256 10.5 12.7256H3.5C2.94772 12.7256 2.5 12.2779 2.5 11.7256V10.2256C1.11929 10.2256 0 9.1063 0 7.72559V4.72559C0.000102946 3.34496 1.11935 2.22559 2.5 2.22559V1C2.5 0.447715 2.94772 0 3.5 0H10.5ZM3.5 11.7256H10.5V7.72559H3.5V11.7256ZM2.5 3.22559C1.67164 3.22559 1.0001 3.89725 1 4.72559V7.72559C1 8.55401 1.67157 9.22559 2.5 9.22559V6.72559H11.5V9.22559C12.3284 9.22559 13 8.55401 13 7.72559V4.72559C12.9999 3.89725 12.3284 3.22559 11.5 3.22559H2.5ZM11 4.72559C11.2761 4.72559 11.4999 4.94953 11.5 5.22559C11.5 5.50173 11.2761 5.72559 11 5.72559H9C8.72387 5.72558 8.5 5.50172 8.5 5.22559C8.5001 4.94954 8.72393 4.7256 9 4.72559H11ZM3.5 2.22559H10.5V1H3.5V2.22559Z" fill="var(--fill-0, currentColor)"/>
</svg>
