<svg width="16" height="16" viewBox="0 0 13.0254 13.9222" fill="none" xmlns="http://www.w3.org/2000/svg">
<path id="Union" d="M2.04297 0.0852836C3.10046 -0.0683137 4.55742 -0.0682834 6.14648 0.547198C7.52967 1.08291 9.07709 1.08959 10.3066 0.949541C10.9166 0.88005 11.4377 0.776439 11.8047 0.689776C11.9878 0.646528 12.1322 0.606938 12.2295 0.579424C12.2779 0.565727 12.3149 0.555451 12.3389 0.548174L12.3711 0.537432C12.5232 0.488322 12.6901 0.515596 12.8193 0.609698C12.9483 0.70382 13.0254 0.854294 13.0254 1.01399V9.05892C13.0252 9.26994 12.8921 9.45852 12.6934 9.52962H12.6924L12.6914 9.5306C12.6907 9.53086 12.6896 9.53119 12.6885 9.53157C12.6861 9.5324 12.6827 9.53313 12.6787 9.5345C12.6704 9.5374 12.6585 9.54218 12.6436 9.5472C12.6135 9.5573 12.5699 9.57092 12.5146 9.58821C12.4042 9.62282 12.2451 9.66989 12.0459 9.722C11.6476 9.82618 11.0852 9.95131 10.4258 10.0345C9.11661 10.1996 7.37503 10.2069 5.76855 9.5179C4.38393 8.92406 3.11704 8.92418 2.19434 9.07259C1.73275 9.14684 1.35912 9.25859 1.10352 9.34993C1.06639 9.36321 1.03195 9.37775 1 9.38997V13.4222C0.999812 13.6982 0.776027 13.9222 0.5 13.9222C0.223973 13.9222 0.000187513 13.6982 0 13.4222V1.01399C0 0.819527 0.112761 0.641931 0.289062 0.559893L0.5 1.01399L0.290039 0.559893L0.291016 0.558916C0.29176 0.558574 0.292926 0.558379 0.293945 0.55794C0.296138 0.556939 0.299352 0.55555 0.302734 0.554034C0.309483 0.551007 0.318774 0.547199 0.330078 0.542315C0.353304 0.532281 0.386198 0.517814 0.427734 0.501299C0.510906 0.468237 0.630251 0.424063 0.78125 0.375323C1.08304 0.277917 1.51421 0.162088 2.04297 0.0852836ZM5.78516 1.47981C4.39288 0.940576 3.11659 0.940428 2.18652 1.07552C1.72169 1.14306 1.34504 1.24447 1.08789 1.32747C1.05661 1.33758 1.02765 1.34927 1 1.35872V8.32942C1.27774 8.24178 1.62762 8.15086 2.03516 8.08528C3.09996 7.91401 4.5665 7.91412 6.16309 8.59896C7.53779 9.18858 9.07589 9.19684 10.3008 9.04231C10.9084 8.96566 11.4273 8.85084 11.793 8.75521C11.8798 8.73249 11.957 8.70747 12.0254 8.68782V1.66439C11.6289 1.75772 11.0721 1.86939 10.4199 1.94368C9.11541 2.09228 7.38316 2.09873 5.78516 1.47981Z" fill="var(--fill-0, currentColor)"/>
</svg>
