<svg width="16" height="16" viewBox="0 0 14.0674 14.0674" fill="none" xmlns="http://www.w3.org/2000/svg">
<path id="Union" d="M10.3008 0C12.3585 0.000106072 14.067 1.70892 14.0674 3.7666C14.0674 5.82461 12.3588 7.53407 10.3008 7.53418H3.7666C2.26129 7.53458 1.00025 8.79544 1 10.3008C1.00011 11.8062 2.2612 13.067 3.7666 13.0674C5.27232 13.0674 6.53407 11.8065 6.53418 10.3008V10.0225L5.60547 10.9521C5.41024 11.1471 5.09364 11.1472 4.89844 10.9521C4.70325 10.757 4.7034 10.4404 4.89844 10.2451L6.68066 8.46289L6.75879 8.39844C6.95285 8.27043 7.21689 8.29209 7.3877 8.46289L9.16895 10.2451C9.36421 10.4404 9.36421 10.7569 9.16895 10.9521C8.97365 11.147 8.65704 11.1473 8.46191 10.9521L7.53418 10.0244V10.3008C7.53407 12.3588 5.82461 14.0674 3.7666 14.0674C1.70892 14.067 0.000106072 12.3585 0 10.3008C0.000251059 8.24315 1.709 6.53458 3.7666 6.53418H10.3008C11.8065 6.53407 13.0674 5.27232 13.0674 3.7666C13.067 2.2612 11.8062 1.00011 10.3008 1C8.79544 1.00025 7.53458 2.26129 7.53418 3.7666V4.04395L8.46191 3.11719C8.65711 2.92199 8.97367 2.92211 9.16895 3.11719C9.36408 3.31246 9.36417 3.629 9.16895 3.82422L7.3877 5.60645C7.19256 5.80136 6.87589 5.80121 6.68066 5.60645L4.89844 3.82422C4.70324 3.62902 4.70338 3.31247 4.89844 3.11719C5.0937 2.92193 5.41021 2.92193 5.60547 3.11719L6.53418 4.0459V3.7666C6.53458 1.709 8.24315 0.000251059 10.3008 0Z" fill="var(--fill-0, currentColor)"/>
</svg>
