<svg width="16" height="16" viewBox="0 0 14.0027 14.001" fill="none" xmlns="http://www.w3.org/2000/svg">
<path id="Union" fill-rule="evenodd" clip-rule="evenodd" d="M13.9715 0.556641C13.8318 3.01467 13.0841 5.00866 12.1042 6.59519C12.8082 8.45401 12.4063 10.6317 10.91 12.128C10.5887 12.4492 10.2356 12.7121 9.868 12.9287L9.53499 13.126L7.51545 11.1065C7.45431 11.1438 7.39468 11.1796 7.3367 11.2139C6.99024 11.4185 6.70111 11.5684 6.49686 11.668C6.39498 11.7176 6.31421 11.7551 6.2576 11.7803C6.22929 11.7929 6.20691 11.8029 6.1912 11.8096L6.17264 11.8174C6.17037 11.8183 6.16821 11.8187 6.16678 11.8193L6.16483 11.8203L5.9744 11.3584L6.16385 11.8213L5.85624 11.9463L5.62088 11.7119L2.28885 8.37891L2.05545 8.14551L2.1785 7.83887V7.83789L2.17948 7.83594C2.17973 7.83532 2.18017 7.8347 2.18066 7.83401C2.18126 7.83316 2.18193 7.83221 2.18241 7.83105L2.18491 7.82473L2.19022 7.81152L2.19283 7.8053C2.19923 7.79005 2.20772 7.76978 2.21854 7.74512C2.24353 7.68817 2.28059 7.60646 2.32987 7.50391C2.42845 7.29874 2.577 7.00879 2.78006 6.66113C2.81453 6.60213 2.85059 6.54143 2.88826 6.47917L1.14882 4.74057L0.875379 4.46615L1.07167 4.13315C1.2884 3.76547 1.55115 3.41147 1.87245 3.09018C3.36052 1.60162 5.52466 1.20294 7.37545 1.89005C8.96571 0.90613 10.9693 0.158501 13.4461 0.0292969L14.0027 0L13.9715 0.556641ZM9.89725 9.28809C10.3941 8.81969 10.8956 8.27894 11.3691 7.66093C11.6165 8.9818 11.2259 10.398 10.203 11.4209C10.0404 11.5835 9.86446 11.7269 9.6805 11.8575L8.36679 10.5437C8.84653 10.2019 9.36959 9.78555 9.89725 9.28809ZM2.14198 4.31967L3.44804 5.625C3.78839 5.14377 4.20317 4.61938 4.69901 4.09082C5.16182 3.5975 5.69584 3.09997 6.30608 2.63016C4.994 2.39463 3.59224 2.78404 2.57948 3.79721V3.79818C2.41701 3.9607 2.27246 4.13577 2.14198 4.31967ZM12.9265 1.07031C11.7127 1.18716 10.6302 1.46605 9.66866 1.84956L12.1372 4.31809C12.5225 3.35835 12.8046 2.27898 12.9265 1.07031ZM11.6938 5.28872L8.69662 2.29158C7.33847 2.98831 6.26172 3.88722 5.4285 4.77539C4.60472 5.65353 4.02037 6.51961 3.64334 7.16504C3.46192 7.47563 3.32937 7.73432 3.241 7.91699L6.08084 10.7578C6.26257 10.6686 6.51961 10.5356 6.82792 10.3535C7.47079 9.97382 8.33446 9.38661 9.21073 8.56055C10.0973 7.72467 10.9953 6.64602 11.6938 5.28872ZM3.02441 10.9639C2.36998 10.3094 1.30971 10.3094 0.655273 10.9639L0.595703 11.0293C0.000625397 11.7635 0 14.001 0 14.001C0 14.001 2.22504 13.9884 2.95898 13.3926L3.02441 13.333C3.67885 12.6786 3.67884 11.6183 3.02441 10.9639ZM1.46875 11.584C1.73091 11.4108 2.08647 11.44 2.31738 11.6709C2.58128 11.9348 2.58129 12.3621 2.31738 12.626C2.32168 12.6217 2.32097 12.6221 2.31376 12.6263C2.29051 12.6399 2.19966 12.693 1.99121 12.7549C1.7494 12.8267 1.45084 12.8809 1.1416 12.9199C1.12861 12.9216 1.11558 12.9226 1.10259 12.9236C1.0908 12.9245 1.07905 12.9254 1.06738 12.9268C1.06873 12.9148 1.06981 12.9028 1.07089 12.8907C1.07217 12.8764 1.07346 12.862 1.0752 12.8477C1.11287 12.5367 1.16645 12.2367 1.2373 11.9942C1.29709 11.7896 1.34853 11.6991 1.36238 11.6747C1.3646 11.6708 1.36586 11.6686 1.36602 11.6679L1.46875 11.584Z" fill="var(--fill-0, currentColor)"/>
</svg>
