<svg width="16" height="16" viewBox="0 0 9.84402 13.9999" fill="none" xmlns="http://www.w3.org/2000/svg">
<path id="Union" d="M6.28666 0C6.44055 0 6.58643 0.0711322 6.68119 0.192383C6.77583 0.313677 6.80927 0.471829 6.77201 0.621094L6.06107 3.4668H8.84232C9.63141 3.4668 10.1097 4.33818 9.68607 5.00391L4.10893 13.7686C3.98245 13.9671 3.73405 14.0504 3.51322 13.9688C3.29282 13.8869 3.15889 13.6625 3.19193 13.4297L3.97611 7.93359H1.5015C0.525862 7.93337 -0.191137 7.01591 0.0454487 6.06934L1.27885 1.13574C1.44584 0.468441 2.04608 0.000363329 2.73393 0H6.28666ZM2.73393 1C2.50483 1.00036 2.30513 1.15658 2.24955 1.37891L1.01615 6.3125C0.937626 6.6278 1.17656 6.93337 1.5015 6.93359H4.55326C4.69803 6.93359 4.83623 6.99621 4.93119 7.10547C5.02614 7.21494 5.06884 7.36045 5.04838 7.50391L4.50932 11.2754L8.84232 4.4668H5.42045C5.26662 4.46669 5.1206 4.39568 5.02592 4.27441C4.9314 4.1532 4.89794 3.99485 4.9351 3.8457L5.64701 1H2.73393Z" fill="var(--fill-0, currentColor)"/>
</svg>
