<svg width="16" height="16" viewBox="0 0 12.9951 13.0005" fill="none" xmlns="http://www.w3.org/2000/svg">
<path id="Union" d="M6.49805 0C10.0864 0.00019534 12.9951 2.90965 12.9951 6.49805C12.9949 10.0863 10.0863 12.9949 6.49805 12.9951C6.19102 12.9951 5.88795 12.9735 5.5918 12.9316L5.29785 12.8828C4.54932 12.7412 3.94818 12.4869 3.51465 12.2617C3.17831 12.4399 2.75056 12.6115 2.30176 12.7422C1.7253 12.9101 1.06613 13.0274 0.472656 12.9951C0.275773 12.9843 0.103737 12.858 0.0332031 12.6738C-0.0371844 12.4897 0.00716823 12.2811 0.146484 12.1416C0.446802 11.8408 0.702584 11.3447 0.837891 10.8301C0.90435 10.5772 0.93706 10.337 0.936523 10.1348C0.935945 9.92619 0.900276 9.79339 0.864258 9.72559H0.863281C0.317877 8.77555 6.51162e-05 7.67494 0 6.49805C0 2.90953 2.90953 7.76474e-06 6.49805 0ZM6.49805 1C3.46182 1.00001 1 3.46182 1 6.49805C1.00006 7.37225 1.20766 8.19658 1.57227 8.93066L1.73828 9.24023L1.74609 9.25488C1.88774 9.52053 1.93573 9.83509 1.93652 10.1328C1.93728 10.4374 1.88874 10.7642 1.80469 11.084C1.73282 11.3574 1.62876 11.6377 1.49902 11.9062C1.6728 11.8717 1.84941 11.8317 2.02246 11.7812C2.53861 11.6309 2.9832 11.4329 3.23438 11.2705L3.29492 11.2373C3.44106 11.1694 3.61275 11.1751 3.75488 11.2568C4.12683 11.4713 4.71481 11.7549 5.4834 11.9004C5.81107 11.9624 6.15135 11.9951 6.49805 11.9951C9.53399 11.9949 11.9949 9.53399 11.9951 6.49805C11.9951 3.46193 9.53412 1.0002 6.49805 1ZM6.39258 8.80957C6.59766 8.80957 6.76855 8.87793 6.90527 9.01465C7.04525 9.14811 7.11523 9.31576 7.11523 9.51758C7.11523 9.71615 7.04525 9.88379 6.90527 10.0205C6.76855 10.154 6.59766 10.2207 6.39258 10.2207C6.19076 10.2207 6.01986 10.154 5.87988 10.0205C5.74316 9.88379 5.6748 9.71615 5.6748 9.51758C5.6748 9.31576 5.74316 9.14811 5.87988 9.01465C6.01986 8.87793 6.19076 8.80957 6.39258 8.80957ZM6.58789 2.7793C7.02734 2.7793 7.40983 2.86068 7.73535 3.02344C8.06087 3.1862 8.31315 3.41243 8.49219 3.70215C8.67448 3.99186 8.76562 4.32878 8.76562 4.71289C8.76562 5.11328 8.67448 5.45345 8.49219 5.7334C8.3099 6.01009 8.06087 6.24609 7.74512 6.44141C7.54329 6.56185 7.37891 6.68066 7.25195 6.79785C7.12826 6.91504 7.03711 7.05664 6.97852 7.22266C6.91992 7.38542 6.89062 7.48438 6.89062 7.75781C6.89062 7.86137 6.80668 7.94531 6.70312 7.94531H6.06738C5.96383 7.94531 5.87988 7.86137 5.87988 7.75781C5.87988 7.3151 5.92057 7.09408 6.00195 6.85645C6.08659 6.61556 6.20703 6.42513 6.36328 6.28516C6.52279 6.14193 6.71159 6.00195 6.92969 5.86523C7.14453 5.73828 7.32357 5.5804 7.4668 5.3916C7.61003 5.19954 7.68164 4.97005 7.68164 4.70312C7.68164 4.49479 7.63281 4.31413 7.53516 4.16113C7.44076 4.00814 7.30892 3.88932 7.13965 3.80469C6.97363 3.72005 6.78971 3.67773 6.58789 3.67773C6.40885 3.67773 6.23633 3.71517 6.07031 3.79004C5.90755 3.86491 5.77083 3.9821 5.66016 4.1416C5.63439 4.17798 5.61147 4.2173 5.59082 4.25879C5.46264 4.51625 5.2456 4.75195 4.95801 4.75195C4.65018 4.7518 4.39316 4.49288 4.47559 4.19629C4.5287 4.00528 4.60804 3.83244 4.71289 3.67773C4.91146 3.38151 5.17513 3.15853 5.50391 3.00879C5.83268 2.85579 6.19401 2.7793 6.58789 2.7793Z" fill="var(--fill-0, currentColor)"/>
</svg>
