<svg width="16" height="16" viewBox="0 0 13.501 10.751" fill="none" xmlns="http://www.w3.org/2000/svg">
<path id="Union" d="M13.001 9.75098C13.2767 9.75148 13.501 9.97515 13.501 10.251C13.501 10.5268 13.2767 10.7505 13.001 10.751H0.540037C0.263895 10.751 0.040037 10.5271 0.040037 10.251C0.040037 9.97483 0.263895 9.75098 0.540037 9.75098H13.001ZM3.47363 0.629883C2.26763 1.21429 1.36605 2.00653 1.23828 3.33496C1.78228 3.33496 2.23371 3.31516 2.63574 3.45898C3.09355 3.6228 3.37122 3.927 3.48535 4.27539C3.66638 4.82086 3.57884 5.367 3.1123 5.80078C2.37455 6.48661 1.1186 6.30528 0.530271 5.5791C-0.165995 4.72125 -0.305737 3.09503 0.907225 1.64062C1.50885 0.919263 2.2343 0.372528 3.08203 0L3.47363 0.629883ZM7.8457 0.629883C6.63983 1.21428 5.73808 2.0066 5.61035 3.33496C6.15449 3.33496 6.60667 3.3151 7.00879 3.45898C7.46652 3.62281 7.74428 3.92704 7.8584 4.27539C8.03939 4.82082 7.95183 5.36702 7.48535 5.80078C6.74755 6.48677 5.49064 6.30546 4.90234 5.5791C4.20619 4.7212 4.06735 3.09494 5.28027 1.64062C5.88192 0.919259 6.60731 0.372515 7.45508 0L7.8457 0.629883ZM13.1006 5.1123C13.3286 5.15876 13.5 5.36076 13.5 5.60254C13.5 5.84432 13.3286 6.04632 13.1006 6.09277L13 6.10254H9.79883C9.52268 6.10254 9.29883 5.87868 9.29883 5.60254C9.29883 5.3264 9.52268 5.10254 9.79883 5.10254H13L13.1006 5.1123ZM13.1006 0.463867C13.3286 0.510325 13.5 0.712325 13.5 0.954102C13.5 1.19588 13.3286 1.39788 13.1006 1.44434L13 1.4541H9.79883C9.52268 1.4541 9.29883 1.23024 9.29883 0.954102C9.29883 0.677959 9.52268 0.454102 9.79883 0.454102H13L13.1006 0.463867Z" fill="var(--fill-0, currentColor)"/>
</svg>
