<svg width="16" height="16" viewBox="0 0 13 14.434" fill="none" xmlns="http://www.w3.org/2000/svg">
<path id="Union" d="M9.33594 2.18726C9.48599 1.9556 9.79558 1.88892 10.0273 2.03882C10.5155 2.35473 10.9586 2.73442 11.3447 3.16577C12.3736 4.31536 12.9999 5.83541 13 7.49976C13 7.93084 12.8976 8.43109 12.7734 8.88648C12.6471 9.34949 12.4878 9.80142 12.3564 10.1482C12.2301 10.4816 12.2031 10.8349 12.2861 11.1589L12.9346 13.6834C13.0568 14.1598 12.585 14.5732 12.1289 14.3894L9.96777 13.5164C9.60952 13.3718 9.19723 13.37 8.80664 13.5017C8.17976 13.7131 7.21205 13.9998 6.5 13.9998C2.9102 13.9998 8.94232e-05 11.0895 0 7.49976C0.000131897 7.22373 0.223939 6.99976 0.5 6.99976C0.776061 6.99976 0.999868 7.22373 1 7.49976C1.00009 10.5372 3.46249 12.9998 6.5 12.9998C7.02657 12.9998 7.84805 12.7687 8.48633 12.5535C9.07827 12.3538 9.73951 12.346 10.3428 12.5896L11.7695 13.1648L11.3184 11.407C11.1788 10.8627 11.2306 10.2996 11.4219 9.79468C11.5468 9.46488 11.6936 9.04429 11.8086 8.62281C11.9256 8.19377 12 7.79617 12 7.49976C11.9999 6.09089 11.4708 4.8061 10.5996 3.83277C10.2725 3.46734 9.8966 3.14607 9.4834 2.87867C9.25188 2.72855 9.18602 2.41896 9.33594 2.18726ZM2.44238 0.0769075C2.67584 -0.0700217 2.98457 -0.000179301 3.13184 0.233158C3.2788 0.466511 3.20869 0.775226 2.97559 0.922611C2.37152 1.30391 1.87357 1.83239 1.52832 2.45777C1.50744 2.4956 1.48843 2.53462 1.46875 2.573C1.6382 2.52634 1.81669 2.49976 2.00098 2.49976C3.10532 2.50002 4.00098 3.39535 4.00098 4.49976C4.00098 5.60417 3.10532 6.4995 2.00098 6.49976C0.965309 6.49976 0.112982 5.71256 0.0107422 4.70386L0.000976562 4.49976C0.0018321 3.61656 0.226503 2.74759 0.65332 1.97437C1.08013 1.20126 1.69559 0.548248 2.44238 0.0769075ZM6.94238 0.0769075C7.17584 -0.0700217 7.48457 -0.000179301 7.63184 0.233158C7.7788 0.466511 7.70869 0.775226 7.47559 0.922611C6.87152 1.30391 6.37357 1.83239 6.02832 2.45777C6.00744 2.4956 5.98843 2.53462 5.96875 2.573C6.1382 2.52634 6.31669 2.49976 6.50098 2.49976C7.60532 2.50002 8.50098 3.39535 8.50098 4.49976C8.50098 5.60417 7.60532 6.4995 6.50098 6.49976C5.46531 6.49976 4.61298 5.71256 4.51074 4.70386L4.50098 4.49976C4.50183 3.61656 4.7265 2.74759 5.15332 1.97437C5.58013 1.20126 6.19559 0.548248 6.94238 0.0769075ZM2.00098 3.49976C1.44869 3.49976 1.00098 3.94747 1.00098 4.49976C1.00098 5.05204 1.44869 5.49976 2.00098 5.49976C2.55304 5.4995 3.00098 5.05188 3.00098 4.49976C3.00098 3.94764 2.55304 3.50002 2.00098 3.49976ZM6.50098 3.49976C5.94869 3.49976 5.50098 3.94747 5.50098 4.49976C5.50098 5.05204 5.94869 5.49976 6.50098 5.49976C7.05304 5.4995 7.50098 5.05188 7.50098 4.49976C7.50098 3.94764 7.05304 3.50002 6.50098 3.49976Z" fill="var(--fill-0, currentColor)"/>
</svg>
