<svg width="16" height="16" viewBox="0 0 12.395 12.395" fill="none" xmlns="http://www.w3.org/2000/svg">
<path id="Union" fill-rule="evenodd" clip-rule="evenodd" d="M5.95211 1.20109C6.26995 1.3363 6.63723 1.18826 6.77244 0.870412C6.90766 0.552569 6.75961 0.185291 6.44177 0.0500747C6.12393 -0.085142 5.75665 0.062906 5.62143 0.380749C5.48621 0.698592 5.63426 1.06587 5.95211 1.20109ZM3.48578 1.03464C3.48249 1.38003 3.75982 1.66269 4.10521 1.66599C4.4506 1.66928 4.73327 1.39195 4.73656 1.04655C4.73985 0.701158 4.46252 0.418493 4.11713 0.415203C3.77173 0.411912 3.48907 0.689242 3.48578 1.03464ZM1.70743 2.4789C1.83657 2.79926 2.20096 2.95428 2.52132 2.82514C2.84168 2.69601 2.9967 2.33162 2.86756 2.01126C2.73843 1.69089 2.37404 1.53588 2.05367 1.66501C1.73331 1.79415 1.57829 2.15854 1.70743 2.4789ZM0.61728 4.49383C0.859184 4.74039 1.25516 4.74416 1.50172 4.50226C1.74827 4.26035 1.75205 3.86438 1.51014 3.61782C1.26824 3.37126 0.872264 3.36749 0.625706 3.6094C0.379149 3.8513 0.375377 4.24727 0.61728 4.49383ZM1.20109 6.44234C1.06587 6.76019 0.698592 6.90823 0.380749 6.77302C0.062906 6.6378 -0.085142 6.27052 0.0500747 5.95268C0.185291 5.63484 0.552569 5.48679 0.870412 5.62201C1.18826 5.75722 1.3363 6.1245 1.20109 6.44234ZM12.3449 6.44234C12.2097 6.76019 11.8425 6.90823 11.5246 6.77302C11.2068 6.6378 11.0587 6.27052 11.1939 5.95268C11.3292 5.63484 11.6964 5.48679 12.0143 5.62201C12.3321 5.75722 12.4802 6.1245 12.3449 6.44234ZM11.7975 8.76668C11.5509 9.00858 11.1549 9.00481 10.913 8.75825C10.6711 8.5117 10.6749 8.11572 10.9215 7.87382C11.168 7.63191 11.564 7.63568 11.8059 7.88224C12.0478 8.1288 12.044 8.52477 11.7975 8.76668ZM11.8378 4.49383C11.5959 4.74039 11.1999 4.74416 10.9534 4.50226C10.7068 4.26035 10.7031 3.86438 10.945 3.61782C11.1869 3.37126 11.5828 3.36749 11.8294 3.6094C12.076 3.8513 12.0797 4.24727 11.8378 4.49383ZM0.658218 8.76668C0.904775 9.00858 1.30075 9.00481 1.54265 8.75825C1.78456 8.5117 1.78079 8.11572 1.53423 7.87382C1.28767 7.63191 0.891696 7.63568 0.649792 7.88224C0.407888 8.1288 0.411661 8.52477 0.658218 8.76668ZM10.4014 10.705C10.0811 10.8341 9.71668 10.6791 9.58755 10.3587C9.45841 10.0384 9.61343 9.67398 9.93379 9.54484C10.2542 9.4157 10.6185 9.57072 10.7477 9.89108C10.8768 10.2114 10.7218 10.5758 10.4014 10.705ZM10.7477 2.4789C10.6185 2.79926 10.2542 2.95428 9.93379 2.82514C9.61343 2.69601 9.45841 2.33162 9.58755 2.01126C9.71668 1.69089 10.0811 1.53588 10.4014 1.66501C10.7218 1.79415 10.8768 2.15854 10.7477 2.4789ZM2.05367 10.705C2.37404 10.8341 2.73843 10.6791 2.86756 10.3587C2.9967 10.0384 2.84168 9.67398 2.52132 9.54484C2.20096 9.4157 1.83657 9.57072 1.70743 9.89108C1.57829 10.2114 1.73331 10.5758 2.05367 10.705ZM8.36992 11.9614C8.02452 11.9582 7.74719 11.6755 7.75049 11.3301C7.75378 10.9847 8.03644 10.7074 8.38183 10.7107C8.72723 10.714 9.00456 10.9966 9.00127 11.342C8.99798 11.6874 8.71531 11.9647 8.36992 11.9614ZM8.96876 1.03464C8.97205 1.38003 8.69472 1.66269 8.34932 1.66599C8.00393 1.66928 7.72126 1.39195 7.71797 1.04655C7.71468 0.701158 7.99201 0.418493 8.33741 0.415203C8.6828 0.411912 8.96547 0.689242 8.96876 1.03464ZM4.08461 11.9617C4.43001 11.9584 4.70734 11.6758 4.70405 11.3304C4.70076 10.985 4.41809 10.7077 4.0727 10.7109C3.7273 10.7142 3.44998 10.9969 3.45327 11.3423C3.45656 11.6877 3.73922 11.965 4.08461 11.9617ZM6.77244 12.0143C6.63723 12.3321 6.26995 12.4802 5.95211 12.3449C5.63426 12.2097 5.48621 11.8425 5.62143 11.5246C5.75665 11.2068 6.12393 11.0587 6.44177 11.1939C6.75961 11.3292 6.90766 11.6964 6.77244 12.0143ZM7.64966 6.19748C7.64966 6.99936 6.99961 7.6494 6.19774 7.6494C5.39586 7.6494 4.74581 6.99936 4.74581 6.19748C4.74581 5.39561 5.39586 4.74556 6.19774 4.74556C6.99961 4.74556 7.64966 5.39561 7.64966 6.19748ZM7.03183 2.83282C7.03183 3.29349 6.65839 3.66693 6.19773 3.66693C5.73706 3.66693 5.36362 3.29349 5.36362 2.83282C5.36362 2.37216 5.73706 1.99872 6.19773 1.99872C6.65839 1.99872 7.03183 2.37216 7.03183 2.83282ZM3.35442 4.35649C3.68016 4.68223 4.20829 4.68223 4.53403 4.35649C4.85977 4.03075 4.85977 3.50263 4.53403 3.17689C4.20829 2.85115 3.68016 2.85115 3.35442 3.17689C3.02869 3.50263 3.02869 4.03075 3.35442 4.35649ZM9.56258 7.03151C10.0232 7.03151 10.3967 6.65806 10.3967 6.1974C10.3967 5.73673 10.0232 5.36329 9.56258 5.36329C9.10192 5.36329 8.72847 5.73673 8.72847 6.1974C8.72847 6.65806 9.10192 7.03151 9.56258 7.03151ZM2.83282 7.03154C3.29349 7.03154 3.66693 6.65809 3.66693 6.19743C3.66693 5.73676 3.29349 5.36332 2.83282 5.36332C2.37216 5.36332 1.99872 5.73676 1.99872 6.19743C1.99872 6.65809 2.37216 7.03154 2.83282 7.03154ZM9.29258 9.11385C8.96684 9.43959 8.43871 9.43959 8.11298 9.11385C7.78724 8.78811 7.78724 8.25998 8.11298 7.93424C8.43871 7.6085 8.96684 7.6085 9.29258 7.93424C9.61832 8.25998 9.61832 8.78811 9.29258 9.11385ZM3.3534 9.11419C3.67914 9.43993 4.20726 9.43993 4.533 9.11419C4.85874 8.78845 4.85874 8.26033 4.533 7.93459C4.20726 7.60885 3.67914 7.60885 3.3534 7.93459C3.02766 8.26033 3.02766 8.78845 3.3534 9.11419ZM9.29145 4.35701C8.96571 4.68275 8.43759 4.68275 8.11185 4.35701C7.78611 4.03127 7.78611 3.50314 8.11185 3.1774C8.43759 2.85166 8.96571 2.85166 9.29145 3.1774C9.61719 3.50314 9.61719 4.03127 9.29145 4.35701ZM6.19795 10.3958C6.65861 10.3958 7.03206 10.0224 7.03206 9.56174C7.03206 9.10107 6.65861 8.72763 6.19795 8.72763C5.73728 8.72763 5.36384 9.10107 5.36384 9.56174C5.36384 10.0224 5.73728 10.3958 6.19795 10.3958Z" fill="var(--fill-0, currentColor)"/>
</svg>
