<svg width="16" height="16" viewBox="0 0 14.5 14.5" fill="none" xmlns="http://www.w3.org/2000/svg">
<path id="Union" fill-rule="evenodd" clip-rule="evenodd" d="M7.25 1C10.7018 1 13.5 3.79822 13.5 7.25C13.5 10.7018 10.7018 13.5 7.25 13.5C3.79822 13.5 1 10.7018 1 7.25C1 3.79822 3.79822 1 7.25 1ZM0 7.25C0 11.2541 3.24594 14.5 7.25 14.5C11.2541 14.5 14.5 11.2541 14.5 7.25C14.5 3.24594 11.2541 0 7.25 0C3.24594 0 0 3.24594 0 7.25ZM8.75 5.25C9.02614 5.25 9.25 5.47386 9.25 5.75V8.75C9.25 9.02614 9.02614 9.25 8.75 9.25H5.75C5.47386 9.25 5.25 9.02614 5.25 8.75V5.75C5.25 5.47386 5.47386 5.25 5.75 5.25H8.75ZM5.75 10.25H8.75C9.57843 10.25 10.25 9.57843 10.25 8.75V5.75C10.25 4.92157 9.57843 4.25 8.75 4.25H5.75C4.92157 4.25 4.25 4.92157 4.25 5.75V8.75C4.25 9.57843 4.92157 10.25 5.75 10.25Z" fill="var(--fill-0, currentColor)"/>
</svg>
