<svg width="16" height="16" viewBox="0 0 14 14" fill="none" xmlns="http://www.w3.org/2000/svg">
<path id="Union" fill-rule="evenodd" clip-rule="evenodd" d="M13 3C13 1.89543 12.1046 1 11 1H3C1.89543 1 1 1.89543 1 3V11C1 12.1046 1.89543 13 3 13H11C12.1046 13 13 12.1046 13 11V3ZM14 11C14 12.6569 12.6569 14 11 14H3C1.34315 14 0 12.6569 0 11V3C0 1.34315 1.34315 0 3 0H11C12.6569 0 14 1.34315 14 3V11ZM10.5 7V4.20703L7.35352 7.35352C7.15825 7.54878 6.84175 7.54878 6.64648 7.35352C6.45122 7.15825 6.45122 6.84175 6.64648 6.64648L9.79297 3.5H7C6.72386 3.5 6.5 3.27614 6.5 3C6.5 2.72386 6.72386 2.5 7 2.5H11C11.2761 2.5 11.5 2.72386 11.5 3V7C11.5 7.27614 11.2761 7.5 11 7.5C10.7239 7.5 10.5 7.27614 10.5 7Z" fill="var(--fill-0, currentColor)"/>
</svg>
