<svg width="16" height="16" viewBox="0 0 15.4298 12.7411" fill="none" xmlns="http://www.w3.org/2000/svg">
<path id="Union" fill-rule="evenodd" clip-rule="evenodd" d="M8.43129 0.0526749C6.92219 -0.142644 5.39299 0.209109 4.12024 1.04316C3.21655 1.63538 2.48455 2.44322 1.98449 3.38515C1.85502 3.62904 1.94766 3.93146 2.19151 4.06096C2.43541 4.19044 2.73783 4.09784 2.86731 3.85394C3.2889 3.05979 3.90637 2.37891 4.6682 1.87962C5.74124 1.17644 7.03086 0.879716 8.30316 1.04439C9.57538 1.2091 10.7467 1.82449 11.6053 2.77763C12.2602 3.50473 12.7002 4.39227 12.886 5.34163L11.7831 4.75456C11.5393 4.62481 11.2365 4.71724 11.1068 4.961C10.977 5.20476 11.0695 5.50755 11.3132 5.6373L13.5201 6.81196C13.7638 6.94171 14.0666 6.84928 14.1964 6.60552L15.371 4.39868C15.5008 4.15492 15.4083 3.85212 15.1646 3.72238C14.9208 3.59263 14.618 3.68505 14.4883 3.92881L13.8595 5.11006C13.6347 3.99871 13.1158 2.96031 12.348 2.1079C11.3295 0.977361 9.94035 0.247989 8.43129 0.0526749ZM2.52955 7.39235L3.66663 8.05356C3.90534 8.19237 4.21139 8.11138 4.3502 7.87266C4.48902 7.63395 4.40803 7.3279 4.16931 7.18909L2.00814 5.93237C1.76942 5.79356 1.46337 5.87455 1.32456 6.11327L0.0678471 8.27444C-0.0709654 8.51316 0.0100229 8.81921 0.24874 8.95802C0.487456 9.09683 0.793504 9.01584 0.932317 8.77713L1.5682 7.6836C1.81558 8.85675 2.39028 9.94314 3.23488 10.8115C4.29591 11.9023 5.71288 12.5778 7.22836 12.7151C8.74376 12.8525 10.2585 12.4424 11.4983 11.5603C12.3014 10.9888 12.9552 10.2434 13.4156 9.38787C13.5464 9.14472 13.4547 8.84169 13.2116 8.71085C12.9685 8.58018 12.6654 8.6708 12.5346 8.91388C12.1464 9.63517 11.5957 10.2636 10.9187 10.7454C9.8734 11.4892 8.59609 11.8351 7.31841 11.7192C6.04074 11.6034 4.84683 11.0334 3.95229 10.1138C3.21992 9.36079 2.72795 8.41369 2.52955 7.39235Z" fill="var(--fill-0, currentColor)"/>
</svg>
