<svg width="16" height="16" viewBox="0 0 15 14.4151" fill="none" xmlns="http://www.w3.org/2000/svg">
<path id="Union" d="M12.5 0C13.8805 0.000174809 14.9999 1.11954 15 2.5V8.7666C15 10.1472 13.8806 11.2664 12.5 11.2666H8.77441L5.38379 14.1729C4.7351 14.7283 3.7334 14.2672 3.7334 13.4131V11.2666H2.5C1.11966 11.2666 0.000111236 10.148 0 8.76758V6.10059C6.14339e-05 5.96815 0.0528946 5.84077 0.146484 5.74707C0.240225 5.65348 0.367524 5.60059 0.5 5.60059H6.75977L5.2793 4.12012C5.08434 3.92483 5.08414 3.60825 5.2793 3.41309C5.47447 3.21806 5.79109 3.21817 5.98633 3.41309L8.31934 5.74609C8.38437 5.81113 8.42555 5.89066 8.44727 5.97363C8.45802 6.01438 8.46678 6.05646 8.4668 6.10059C8.46676 6.15037 8.45597 6.19777 8.44238 6.24316C8.4376 6.25913 8.43415 6.2755 8.42773 6.29102C8.40053 6.35681 8.35952 6.41473 8.30859 6.46289L5.98633 8.78711C5.79111 8.98215 5.47452 8.98215 5.2793 8.78711C5.08439 8.59188 5.0843 8.27525 5.2793 8.08008L6.75781 6.60059H1V8.76758C1.00011 9.5956 1.67182 10.2666 2.5 10.2666H4.2334C4.50919 10.2668 4.73313 10.4908 4.7334 10.7666V13.4131L8.26367 10.3877L8.33594 10.3359C8.4121 10.2913 8.49951 10.2667 8.58887 10.2666H12.5C13.3282 10.2664 14 9.59496 14 8.7666V2.5C13.9999 1.67179 13.3282 1.00018 12.5 1H2.5C1.67176 1.00002 1.00018 1.67177 1 2.5V3.2998C1 3.57584 0.775993 3.79963 0.5 3.7998C0.223858 3.7998 0 3.57595 0 3.2998V2.5C0.000179491 1.11952 1.11945 3.94929e-05 2.5 0H12.5Z" fill="var(--fill-0, currentColor)"/>
</svg>
