<svg width="16" height="16" viewBox="0 0 16 16" fill="none" xmlns="http://www.w3.org/2000/svg">
<path d="M13.0005 0.499512C14.381 0.499687 15.5004 1.61905 15.5005 2.99951V9.26611C15.5005 10.6467 14.3811 11.7659 13.0005 11.7661H9.2749L5.88428 14.6724C5.23558 15.2278 4.23389 14.7668 4.23389 13.9126V11.7661H3.00049C1.62015 11.7661 0.5006 10.6475 0.500488 9.26709V6.6001C0.50055 6.46767 0.553383 6.34028 0.646973 6.24658C0.740714 6.15299 0.868012 6.1001 1.00049 6.1001H7.26025L5.77979 4.61963C5.58482 4.42434 5.58462 4.10776 5.77979 3.9126C5.97496 3.71757 6.29158 3.71768 6.48682 3.9126L8.81982 6.24561C8.88486 6.31064 8.92604 6.39017 8.94775 6.47314C8.95851 6.5139 8.96726 6.55597 8.96729 6.6001C8.96725 6.64988 8.95646 6.69728 8.94287 6.74268C8.93809 6.75864 8.93463 6.77501 8.92822 6.79053C8.90102 6.85632 8.86001 6.91424 8.80908 6.9624L6.48682 9.28662C6.2916 9.48167 5.97501 9.48167 5.77979 9.28662C5.58488 9.09139 5.58479 8.77477 5.77979 8.57959L7.2583 7.1001H1.50049V9.26709C1.5006 10.0951 2.17231 10.7661 3.00049 10.7661H4.73389C5.00968 10.7663 5.23361 10.9903 5.23389 11.2661V13.9126L8.76416 10.8872L8.83643 10.8354C8.91259 10.7908 9 10.7662 9.08936 10.7661H13.0005C13.8287 10.7659 14.5005 10.0945 14.5005 9.26611V2.99951C14.5004 2.17131 13.8287 1.49969 13.0005 1.49951H3.00049C2.17224 1.49954 1.50067 2.17128 1.50049 2.99951V3.79932C1.50049 4.07535 1.27648 4.29914 1.00049 4.29932C0.724346 4.29932 0.500488 4.07546 0.500488 3.79932V2.99951C0.500668 1.61904 1.61994 0.499551 3.00049 0.499512H13.0005Z" fill="currentColor"/>
</svg>
