<svg width="16" height="16" viewBox="0 0 13.5 7.99996" fill="none" xmlns="http://www.w3.org/2000/svg">
<path id="Union" d="M5.18066 0.146447C5.37593 -0.0488155 5.69243 -0.0488155 5.8877 0.146447L9.3877 3.64645C9.58296 3.84171 9.58296 4.15822 9.3877 4.35348L5.8877 7.85348C5.69243 8.04874 5.37593 8.04874 5.18066 7.85348C4.9854 7.65822 4.9854 7.34171 5.18066 7.14645L7.82715 4.49996H3.5C2.11929 4.49996 1 5.61925 1 6.99996V7.49996C1 7.7761 0.776142 7.99996 0.5 7.99996C0.223858 7.99996 0 7.7761 0 7.49996V6.99996C1.61067e-08 5.06697 1.567 3.49996 3.5 3.49996H7.82715L5.18066 0.853478C4.9854 0.658216 4.9854 0.341709 5.18066 0.146447ZM9.14648 0.146447C9.34175 -0.0488155 9.65825 -0.0488155 9.85352 0.146447L13.3535 3.64645C13.5488 3.84171 13.5488 4.15822 13.3535 4.35348L9.85352 7.85348C9.65825 8.04874 9.34175 8.04874 9.14648 7.85348C8.95122 7.65822 8.95122 7.34171 9.14648 7.14645L12.293 3.99996L9.14648 0.853478C8.95122 0.658216 8.95122 0.341709 9.14648 0.146447Z" fill="var(--fill-0, currentColor)"/>
</svg>
