<svg width="16" height="16" viewBox="0 0 16 16" fill="none" xmlns="http://www.w3.org/2000/svg">
<path d="M9.56934 4.14648C9.37407 3.95122 9.05757 3.95122 8.8623 4.14648L5.3623 7.64648C5.16704 7.84175 5.16704 8.15825 5.3623 8.35352L8.8623 11.8535C9.05757 12.0488 9.37407 12.0488 9.56934 11.8535C9.7646 11.6583 9.7646 11.3417 9.56934 11.1465L6.92285 8.5H11.25C12.6307 8.5 13.75 9.61929 13.75 11V11.5C13.75 11.7761 13.9739 12 14.25 12C14.5261 12 14.75 11.7761 14.75 11.5V11C14.75 9.067 13.183 7.5 11.25 7.5H6.92285L9.56934 4.85352C9.7646 4.65825 9.7646 4.34175 9.56934 4.14648ZM5.60352 4.14648C5.40825 3.95122 5.09175 3.95122 4.89648 4.14648L1.39648 7.64648C1.20122 7.84175 1.20122 8.15825 1.39648 8.35352L4.89648 11.8535C5.09175 12.0488 5.40825 12.0488 5.60352 11.8535C5.79878 11.6583 5.79878 11.3417 5.60352 11.1465L2.45703 8L5.60352 4.85352C5.79878 4.65825 5.79878 4.34175 5.60352 4.14648Z" fill="currentColor"/>
</svg>
