<svg width="16" height="16" viewBox="0 0 12 8.49996" fill="none" xmlns="http://www.w3.org/2000/svg">
<path id="Union" fill-rule="evenodd" clip-rule="evenodd" d="M8.35352 0.146447C8.15825 -0.0488155 7.84175 -0.0488155 7.64648 0.146447C7.45122 0.341709 7.45122 0.658216 7.64648 0.853478L10.293 3.49996H4.5C2.01472 3.49996 0 5.51468 0 7.99996C0 8.2761 0.223858 8.49996 0.5 8.49996C0.776142 8.49996 1 8.2761 1 7.99996C1 6.06697 2.567 4.49996 4.5 4.49996H10.293L7.64648 7.14645C7.45122 7.34171 7.45122 7.65822 7.64648 7.85348C7.84175 8.04874 8.15825 8.04874 8.35352 7.85348L11.8535 4.35348C12.0488 4.15822 12.0488 3.84171 11.8535 3.64645L8.35352 0.146447Z" fill="var(--fill-0, currentColor)"/>
</svg>
