<svg width="16" height="16" viewBox="0 0 14.0001 12.0002" fill="none" xmlns="http://www.w3.org/2000/svg">
<path id="Union" fill-rule="evenodd" clip-rule="evenodd" d="M8 1.5C8 1.22386 7.77614 1 7.5 1H6.5C6.22386 1 6 1.22386 6 1.5V11H8V1.5ZM9 11.5C9 11.7761 8.77614 12 8.5 12H5.5C5.22386 12 5 11.7761 5 11.5V1.5C5 0.671572 5.67157 0 6.5 0H7.5C8.32843 0 9 0.671573 9 1.5V11.5ZM13.0001 4.5C13.0001 4.22386 12.7763 4 12.5001 4H11.5001C11.224 4 11.0001 4.22386 11.0001 4.5V11H13.0001V4.5ZM14.0001 11.5C14.0001 11.7761 13.7763 12 13.5001 12H10.5001C10.224 12 10.0001 11.7761 10.0001 11.5V4.5C10.0001 3.67157 10.6717 3 11.5001 3H12.5001C13.3286 3 14.0001 3.67157 14.0001 4.5V11.5ZM2.5 7.00024C2.77614 7.00024 3 7.2241 3 7.50024V11.0002H1V7.50024C1 7.2241 1.22386 7.00024 1.5 7.00024H2.5ZM3.5 12.0002C3.77614 12.0002 4 11.7764 4 11.5002V7.50024C4 6.67182 3.32843 6.00024 2.5 6.00024H1.5C0.671572 6.00024 0 6.67182 0 7.50024V11.5002C0 11.7764 0.223858 12.0002 0.5 12.0002H3.5Z" fill="var(--fill-0, currentColor)"/>
</svg>
