<svg width="16" height="16" viewBox="0 0 16 16" fill="none" xmlns="http://www.w3.org/2000/svg">
<path d="M9.63064 1.56336C8.22819 1.20608 6.74403 1.3164 5.40603 1.88172C4.25614 2.36767 3.27307 3.1664 2.56131 4.17762L2.36209 2.74793C2.32413 2.47457 2.07195 2.28347 1.79861 2.32117C1.52509 2.35915 1.33387 2.61211 1.37185 2.88562L1.74197 5.55164L1.76541 5.6493C1.8428 5.86857 2.06619 6.01045 2.30545 5.97742L4.97146 5.6073L5.0701 5.58387C5.28942 5.50649 5.43127 5.28313 5.39822 5.04383C5.36497 4.80441 5.16753 4.6279 4.93533 4.61316L4.83377 4.61707L3.32791 4.82605C3.93596 3.93262 4.79055 3.22804 5.79471 2.80359C6.93132 2.32328 8.19218 2.22959 9.38357 2.53308L9.62088 2.59851C10.8022 2.95502 11.8317 3.68887 12.5545 4.68348L12.6951 4.88562C13.4216 5.983 13.7413 7.2999 13.5994 8.60828L13.5681 8.85242C13.3824 10.0677 12.8037 11.1918 11.9178 12.0507L11.7371 12.2186C10.8179 13.0349 9.65474 13.5301 8.42459 13.6249C7.11231 13.7259 5.80544 13.3649 4.73123 12.6044C3.657 11.8438 2.88244 10.7312 2.54178 9.45984C2.47024 9.19325 2.19611 9.03495 1.92947 9.10633C1.6628 9.17778 1.5046 9.45195 1.57596 9.71863C1.97696 11.2152 2.88866 12.5244 4.1531 13.4198C5.41771 14.3151 6.95586 14.7409 8.50076 14.622C9.94933 14.5104 11.3188 13.9269 12.4012 12.9657L12.6131 12.7684C13.6562 11.7574 14.3377 10.4345 14.5564 9.00379L14.5935 8.71668C14.7607 7.17638 14.3843 5.62579 13.5291 4.33387L13.364 4.09559C12.5131 2.92456 11.3008 2.06123 9.90994 1.64148L9.63064 1.56336Z" fill="currentColor"/>
</svg>
