<svg width="16" height="16" viewBox="0 0 13.2653 13.2832" fill="none" xmlns="http://www.w3.org/2000/svg">
<path id="Union" d="M4.7224 0.283237C6.20562 -0.164266 7.7992 -0.0795201 9.2263 0.523472C10.376 1.00945 11.3594 1.80733 12.071 2.81839L12.2693 1.38871C12.3074 1.11534 12.5603 0.924955 12.8337 0.962925C13.1071 1.00096 13.2983 1.25302 13.2605 1.5264L12.8904 4.19242C12.8524 4.46592 12.5994 4.65712 12.3259 4.61917L9.6599 4.24906C9.38644 4.21102 9.19516 3.95808 9.23314 3.6846C9.27112 3.41111 9.5241 3.21991 9.79759 3.25785L11.3025 3.46683C10.6945 2.57406 9.84118 1.86966 8.83763 1.44535C7.62537 0.933034 6.27143 0.860164 5.01146 1.24027C3.75136 1.62052 2.66384 2.42988 1.93724 3.52738C1.21075 4.62478 0.89098 5.94163 1.03294 7.25003C1.17504 8.55828 1.7697 9.77651 2.71458 10.6924C3.65958 11.6081 4.89576 12.1655 6.20775 12.2666C7.51986 12.3675 8.82703 12.0065 9.90111 11.2461C10.9752 10.4856 11.7499 9.37282 12.0906 8.1016C12.1621 7.83491 12.4362 7.67663 12.7029 7.74808C12.9692 7.81977 13.1278 8.09386 13.0564 8.36039C12.6554 9.85681 11.7435 11.1662 10.4792 12.0616C9.21476 12.9568 7.67631 13.3825 6.13157 13.2637C4.58682 13.1448 3.1319 12.4884 2.01927 11.4102C0.906806 10.3319 0.20614 8.89861 0.0388015 7.35843C-0.128385 5.81811 0.248057 4.26757 1.10325 2.97562C1.95863 1.68362 3.23898 0.730911 4.7224 0.283237Z" fill="var(--fill-0, currentColor)"/>
</svg>
