<svg width="16" height="16" viewBox="0 0 6.99348 6.99662" fill="none" xmlns="http://www.w3.org/2000/svg">
<path id="Union" d="M6.13849 2.86828C6.33246 2.67184 6.64939 2.67015 6.84552 2.86437C7.0413 3.05866 7.04298 3.37495 6.84943 3.57141L3.61408 6.84777C3.42018 7.04414 3.10417 7.04666 2.90802 6.85266C2.71211 6.65839 2.70956 6.34116 2.90314 6.14465L6.13849 2.86828ZM5.47443 0.0821477C5.66828 -0.0457839 5.9318 -0.0242848 6.10236 0.146601C6.27294 0.317571 6.29469 0.582263 6.16681 0.776484L6.10236 0.854609L0.85236 6.11437C0.657334 6.30956 0.341329 6.30957 0.146306 6.11437C-0.0487686 5.91892 -0.0487686 5.60182 0.146306 5.40637L5.39631 0.146601L5.47443 0.0821477Z" fill="var(--fill-0, currentColor)"/>
</svg>
