<svg width="16" height="16" viewBox="0 0 16 16" fill="none" xmlns="http://www.w3.org/2000/svg">
<g clip-path="url(#clip0_22038_3680)">
<g filter="url(#filter0_d_22038_3680)">
<path d="M4.95166 6.13029L7.5471 1.37199C7.63825 1.20487 7.87529 1.19688 7.97749 1.35748L11.0055 6.11578C11.1114 6.28221 10.9919 6.5 10.7946 6.5H5.17114C4.98137 6.5 4.86079 6.29688 4.95166 6.13029Z" fill="currentColor"/>
<path d="M5.06738 6.99316C4.59306 6.92922 4.2979 6.43239 4.46875 5.98535L4.5127 5.89062L7.1084 1.13281C7.38184 0.631495 8.09279 0.60716 8.39941 1.08887L11.4277 5.84766C11.745 6.3468 11.3864 6.99975 10.7949 7H5.1709L5.06738 6.99316Z" stroke="white"/>
</g>
<g filter="url(#filter1_d_22038_3680)">
<path d="M4.9945 9.88422L8.02251 14.6425C8.12471 14.8031 8.36175 14.7951 8.4529 14.628L11.0483 9.86971C11.1392 9.70312 11.0186 9.5 10.8289 9.5H5.20542C5.00815 9.5 4.88859 9.71779 4.9945 9.88422Z" fill="currentColor"/>
<path d="M5.09766 9.00781C4.60664 9.07634 4.31491 9.60655 4.52051 10.0576L4.57227 10.1523L7.60059 14.9111C7.90721 15.3928 8.61816 15.3685 8.8916 14.8672L11.4873 10.1094C11.7599 9.60966 11.3983 9.00017 10.8291 9H5.20508L5.09766 9.00781Z" stroke="white"/>
</g>
</g>
<defs>
<filter id="filter0_d_22038_3680" x="2.91943" y="0.241699" width="10.127" height="9.2583" filterUnits="userSpaceOnUse" color-interpolation-filters="sRGB">
<feFlood flood-opacity="0" result="BackgroundImageFix"/>
<feColorMatrix in="SourceAlpha" type="matrix" values="0 0 0 0 0 0 0 0 0 0 0 0 0 0 0 0 0 0 127 0" result="hardAlpha"/>
<feOffset dy="1"/>
<feGaussianBlur stdDeviation="0.5"/>
<feComposite in2="hardAlpha" operator="out"/>
<feColorMatrix type="matrix" values="0 0 0 0 0 0 0 0 0 0 0 0 0 0 0 0 0 0 0.3 0"/>
<feBlend mode="normal" in2="BackgroundImageFix" result="effect1_dropShadow_22038_3680"/>
<feBlend mode="normal" in="SourceGraphic" in2="effect1_dropShadow_22038_3680" result="shape"/>
</filter>
<filter id="filter1_d_22038_3680" x="2.95361" y="8.5" width="10.127" height="9.2583" filterUnits="userSpaceOnUse" color-interpolation-filters="sRGB">
<feFlood flood-opacity="0" result="BackgroundImageFix"/>
<feColorMatrix in="SourceAlpha" type="matrix" values="0 0 0 0 0 0 0 0 0 0 0 0 0 0 0 0 0 0 127 0" result="hardAlpha"/>
<feOffset dy="1"/>
<feGaussianBlur stdDeviation="0.5"/>
<feComposite in2="hardAlpha" operator="out"/>
<feColorMatrix type="matrix" values="0 0 0 0 0 0 0 0 0 0 0 0 0 0 0 0 0 0 0.3 0"/>
<feBlend mode="normal" in2="BackgroundImageFix" result="effect1_dropShadow_22038_3680"/>
<feBlend mode="normal" in="SourceGraphic" in2="effect1_dropShadow_22038_3680" result="shape"/>
</filter>
<clipPath id="clip0_22038_3680">
<rect width="16" height="16" fill="white"/>
</clipPath>
</defs>
</svg>
