<svg width="16" height="16" viewBox="0 0 14.125 14.1254" fill="none" xmlns="http://www.w3.org/2000/svg">
<path id="Union" d="M6.70898 0.14643C6.90424 -0.0488211 7.22075 -0.0487989 7.41602 0.14643C8.65204 1.38241 10.7409 2.64513 13.6963 3.06733C13.9424 3.10273 14.125 3.3138 14.125 3.56245H13.625L14.125 3.56342V3.59077C14.1248 3.60732 14.1239 3.63109 14.123 3.66108C14.1213 3.72128 14.1181 3.80808 14.1113 3.91791C14.0978 4.13757 14.0707 4.45103 14.0176 4.83393C13.9113 5.59921 13.6995 6.64899 13.2734 7.7851C12.4205 10.0597 10.6983 12.7097 7.24805 14.0898C7.12904 14.1373 6.99596 14.1373 6.87695 14.0898C3.42681 12.7097 1.70556 10.0596 0.852539 7.7851C0.426497 6.64899 0.213719 5.59921 0.107422 4.83393C0.0542553 4.45104 0.0271793 4.13757 0.0136719 3.91791C0.00691968 3.80808 0.00370416 3.72128 0.00195312 3.66108C0.00108198 3.6311 0.000236884 3.60731 0 3.59077V3.56245C1.52369e-05 3.31363 0.183373 3.10252 0.429688 3.06733C3.38482 2.64507 5.47303 1.38236 6.70898 0.14643ZM7.0625 1.18647C5.72625 2.3882 3.70966 3.51428 1.02148 3.98334C1.03552 4.16969 1.05806 4.41211 1.09766 4.69721C1.19646 5.40836 1.39402 6.38259 1.78809 7.43354C2.5599 9.49164 4.07407 11.8188 7.0625 13.083C10.051 11.8188 11.5651 9.49167 12.3369 7.43354C12.731 6.38257 12.9285 5.40837 13.0273 4.69721C13.0669 4.41215 13.0885 4.16968 13.1025 3.98334C10.4149 3.51417 8.39858 2.38805 7.0625 1.18647ZM7.0625 3.49995C8.30514 3.49996 9.31249 4.50731 9.3125 5.74995C9.31247 6.39393 9.0411 6.9741 8.6084 7.38373L9.21387 9.68452C9.33862 10.1599 8.97984 10.6249 8.48828 10.6249H5.63672C5.14516 10.6249 4.78638 10.1599 4.91113 9.68452L5.5166 7.38276C5.08419 6.97315 4.81253 6.39368 4.8125 5.74995C4.81251 4.50731 5.81986 3.49996 7.0625 3.49995ZM7.0625 4.49995C6.37215 4.49996 5.81251 5.05959 5.8125 5.74995C5.81253 6.18021 6.0295 6.56047 6.3623 6.78608L6.65527 6.98432L6.56543 7.32709L5.96094 9.62495H8.16406L7.55957 7.32709L7.46973 6.98432L7.7627 6.78608C8.0955 6.56047 8.31247 6.18021 8.3125 5.74995C8.31249 5.05959 7.75285 4.49996 7.0625 4.49995Z" fill="var(--fill-0, currentColor)"/>
</svg>
