<svg width="16" height="16" viewBox="0 0 9.79282 14.0284" fill="none" xmlns="http://www.w3.org/2000/svg">
<path id="Union" d="M3.41391 4.95723C4.19496 4.17618 5.46196 4.17618 6.24301 4.95723L9.07114 7.78536C9.85219 8.56641 9.85219 9.83341 9.07114 10.6145L6.24301 13.4426C5.46196 14.2236 4.19496 14.2236 3.41391 13.4426L0.585786 10.6145C-0.195262 9.83341 -0.195262 8.56641 0.585786 7.78536L3.41391 4.95723ZM5.53501 5.66426C5.14446 5.27405 4.51136 5.27384 4.12094 5.66426L1.29282 8.49239C0.902293 8.88291 0.902293 9.5169 1.29282 9.90743L4.12094 12.7356C4.51137 13.126 5.14446 13.1258 5.53501 12.7356L8.36411 9.90743C8.75463 9.5169 8.75463 8.88291 8.36411 8.49239L5.53501 5.66426ZM3.50083 0.525591C4.25221 -0.163129 5.40149 -0.176483 6.16879 0.494341L8.79282 2.78926V1.65352C8.79282 1.37745 9.01677 1.15364 9.29282 1.15352C9.56896 1.15352 9.79282 1.37738 9.79282 1.65352V4.02266C9.79269 4.1551 9.73999 4.2835 9.64633 4.37715C9.55262 4.47056 9.42515 4.52364 9.29282 4.52364H6.82895C6.55322 4.52352 6.32947 4.29927 6.32895 4.02364C6.32895 3.74757 6.55291 3.52375 6.82895 3.52364H8.11215L5.51059 1.24727C5.12694 0.911833 4.55231 0.918519 4.17661 1.2629L1.16684 4.02168C0.963273 4.20816 0.647342 4.19396 0.460786 3.99043C0.274375 3.7869 0.287648 3.47094 0.49106 3.28438L3.50083 0.525591Z" fill="var(--fill-0, currentColor)"/>
</svg>
