<svg width="16" height="16" viewBox="0 0 13.5 13.5" fill="none" xmlns="http://www.w3.org/2000/svg">
<path id="Union" d="M0.5 0C0.776142 0 1 0.223858 1 0.5V6.58594C1.32561 6.53131 1.6594 6.5 2 6.5C5.31371 6.5 8 9.18629 8 12.5H13C13.2761 12.5 13.4999 12.7239 13.5 13C13.4999 13.2761 13.2761 13.5 13 13.5H0.5C0.223911 13.5 8.70508e-05 13.2761 0 13V0.5C0 0.223858 0.223858 0 0.5 0ZM2 7.5C1.65722 7.5 1.32282 7.53503 1 7.60059V12.5H7C7 9.73858 4.76142 7.5 2 7.5Z" fill="var(--fill-0, currentColor)"/>
</svg>
