<svg width="16" height="16" viewBox="0 0 16 16" fill="none" xmlns="http://www.w3.org/2000/svg">
<path fill-rule="evenodd" clip-rule="evenodd" d="M12.5762 8C12.5762 10.5273 10.5273 12.5762 8 12.5762C5.47265 12.5762 3.42383 10.5273 3.42383 8C3.42383 5.47265 5.47265 3.42383 8 3.42383C10.5273 3.42383 12.5762 5.47265 12.5762 8ZM14.5762 8C14.5762 11.6319 11.6319 14.5762 8 14.5762C4.36808 14.5762 1.42383 11.6319 1.42383 8C1.42383 4.36808 4.36808 1.42383 8 1.42383C11.6319 1.42383 14.5762 4.36808 14.5762 8ZM8.00024 10C9.10481 10 10.0002 9.10457 10.0002 8C10.0002 6.89543 9.10481 6 8.00024 6C6.89567 6 6.00024 6.89543 6.00024 8C6.00024 9.10457 6.89567 10 8.00024 10Z" fill="currentColor"/>
</svg>
