<svg width="16" height="16" viewBox="0 0 13.1523 13.1523" fill="none" xmlns="http://www.w3.org/2000/svg">
<path id="Union" fill-rule="evenodd" clip-rule="evenodd" d="M6.57617 2C9.10352 2 11.1523 4.04882 11.1523 6.57617C11.1523 9.10352 9.10352 11.1523 6.57617 11.1523C4.04882 11.1523 2 9.10352 2 6.57617C2 4.04882 4.04882 2 6.57617 2ZM0 6.57617C0 10.2081 2.94425 13.1523 6.57617 13.1523C10.2081 13.1523 13.1523 10.2081 13.1523 6.57617C13.1523 2.94425 10.2081 0 6.57617 0C2.94425 0 0 2.94425 0 6.57617ZM6.57642 8.57617C7.68099 8.57617 8.57642 7.68074 8.57642 6.57617C8.57642 5.4716 7.68099 4.57617 6.57642 4.57617C5.47185 4.57617 4.57642 5.4716 4.57642 6.57617C4.57642 7.68074 5.47185 8.57617 6.57642 8.57617Z" fill="var(--fill-0, currentColor)"/>
</svg>
