<svg width="16" height="16" viewBox="0 0 13.9952 13.9951" fill="none" xmlns="http://www.w3.org/2000/svg">
<path id="Union" d="M10.1871 0.0101484C10.2728 -0.00337869 10.3601 -0.00338689 10.4458 0.0101484L10.5728 0.0404218L10.6607 0.0755781C10.7426 0.114492 10.8076 0.163564 10.857 0.205461C10.9181 0.257439 10.9838 0.32353 11.0435 0.383195L13.6119 2.95155C13.6715 3.01121 13.7376 3.0769 13.7896 3.13808C13.8455 3.20391 13.9139 3.29712 13.9546 3.42226C14.0088 3.58884 14.0087 3.76836 13.9546 3.93495C13.9139 4.06023 13.8455 4.15326 13.7896 4.21913C13.7375 4.28049 13.6717 4.34682 13.6119 4.40663L4.40678 13.6117C4.34696 13.6715 4.28063 13.7373 4.21928 13.7894C4.1534 13.8454 4.06037 13.9138 3.9351 13.9545C3.76851 14.0086 3.58899 14.0086 3.4224 13.9545C3.29726 13.9138 3.20405 13.8453 3.13822 13.7894C3.07705 13.7374 3.01135 13.6714 2.9517 13.6117L0.383342 11.0434C0.323676 10.9837 0.257585 10.918 0.205607 10.8568C0.149722 10.791 0.0812498 10.6978 0.0405681 10.5726C-0.0135154 10.4061 -0.01353 10.2265 0.0405681 10.06L0.0757243 9.97206C0.114685 9.89002 0.163662 9.82518 0.205607 9.77577C0.257721 9.71442 0.323529 9.64809 0.383342 9.58827L9.58842 0.383195C9.64823 0.323382 9.71457 0.257575 9.77592 0.205461C9.84178 0.149548 9.93486 0.0811306 10.0601 0.0404218L10.1871 0.0101484ZM9.02885 2.35097L10.0044 3.32655C10.1988 3.52096 10.1988 3.83625 10.0044 4.03066C9.81002 4.22499 9.49472 4.22504 9.30033 4.03066L8.32475 3.05507L7.03764 4.34218L8.01322 5.31777C8.20763 5.51217 8.20763 5.82746 8.01322 6.02187C7.81881 6.21623 7.50352 6.21626 7.30912 6.02187L6.33354 5.04628L5.04643 6.33339L6.02201 7.30898C6.21642 7.50338 6.21642 7.81867 6.02201 8.01308C5.82761 8.20747 5.51232 8.20748 5.31791 8.01308L4.34233 7.03749L3.05522 8.3246L4.0308 9.30019C4.2252 9.49459 4.22519 9.80988 4.0308 10.0043C3.8364 10.1987 3.52111 10.1987 3.3267 10.0043L2.35111 9.0287L1.06401 10.3158L3.67826 12.9301C3.68562 12.9227 3.69444 12.9158 3.70268 12.9076L12.9078 3.70253C12.916 3.6943 12.9229 3.68547 12.9302 3.67812L10.316 1.06386L9.02885 2.35097Z" fill="var(--fill-0, currentColor)"/>
</svg>
