<svg width="16" height="16" viewBox="0 0 16 16" fill="none" xmlns="http://www.w3.org/2000/svg">
<path fill-rule="evenodd" clip-rule="evenodd" d="M4.73291 1.13965C4.73291 0.863506 4.50905 0.639648 4.23291 0.639648C3.95677 0.639648 3.73291 0.863506 3.73291 1.13965V2.2159L3.73309 2.22926C3.1188 2.25206 2.71049 2.31501 2.36942 2.48879C1.89901 2.72848 1.51656 3.11093 1.27688 3.58133C1.00439 4.11611 1.00439 4.81618 1.00439 6.21631V11.0163C1.00439 12.4164 1.00439 13.1165 1.27688 13.6513C1.51656 14.1217 1.89901 14.5041 2.36942 14.7438C2.9042 15.0163 3.60426 15.0163 5.00439 15.0163H10.9956C12.3957 15.0163 13.0958 15.0163 13.6306 14.7438C14.101 14.5041 14.4834 14.1217 14.7231 13.6513C14.9956 13.1165 14.9956 12.4164 14.9956 11.0163V6.21631C14.9956 4.81618 14.9956 4.11611 14.7231 3.58133C14.4834 3.11093 14.101 2.72848 13.6306 2.48879C13.2895 2.31501 12.8812 2.25206 12.2669 2.22926L12.2671 2.2159V1.13965C12.2671 0.863506 12.0432 0.639648 11.7671 0.639648C11.4909 0.639648 11.2671 0.863506 11.2671 1.13965V2.2159L11.2671 2.21639L10.9956 2.21631H5.00439L4.73291 2.21639L4.73291 2.2159V1.13965ZM5.00439 3.21631H10.9956C11.7122 3.21631 12.1895 3.21709 12.5562 3.24705C12.9112 3.27606 13.0737 3.32736 13.1766 3.3798C13.4588 3.52361 13.6883 3.75308 13.8321 4.03532C13.8846 4.13824 13.9359 4.30071 13.9649 4.65575C13.9948 5.02246 13.9956 5.49974 13.9956 6.21631V11.0163C13.9956 11.7329 13.9948 12.2102 13.9649 12.5769C13.9359 12.9319 13.8846 13.0944 13.8321 13.1973C13.6883 13.4795 13.4588 13.709 13.1766 13.8528C13.0737 13.9053 12.9112 13.9566 12.5562 13.9856C12.1895 14.0155 11.7122 14.0163 10.9956 14.0163H5.00439C4.28783 14.0163 3.81054 14.0155 3.44383 13.9856C3.08879 13.9566 2.92633 13.9053 2.82341 13.8528C2.54117 13.709 2.31169 13.4795 2.16788 13.1973C2.11544 13.0944 2.06414 12.9319 2.03513 12.5769C2.00517 12.2102 2.00439 11.7329 2.00439 11.0163V6.21631C2.00439 5.49974 2.00517 5.02246 2.03513 4.65575C2.06414 4.30071 2.11544 4.13824 2.16788 4.03532C2.31169 3.75308 2.54117 3.52361 2.82341 3.3798C2.92633 3.32736 3.08879 3.27606 3.44383 3.24705C3.81054 3.21709 4.28783 3.21631 5.00439 3.21631ZM4.79251 5.93887C4.78083 5.78563 4.82971 5.69004 4.89384 5.62828C4.96401 5.5607 5.08943 5.5 5.27548 5.5H5.78036C5.87002 5.5 5.94818 5.56102 5.96993 5.64801L6.03329 5.90144C6.19951 6.5663 5.91994 7.26273 5.34015 7.62812L5.19725 7.71818C5.00733 7.18014 4.87148 6.60069 4.79697 5.99948L4.79251 5.93887ZM5.87331 8.47414L5.60041 8.64612C5.64812 8.73683 5.69756 8.82556 5.74867 8.91221L5.7491 8.91294C6.26911 9.79783 6.99705 10.5426 7.86986 11.0826L7.87054 11.083C7.95548 11.1358 8.04217 11.1857 8.13063 11.233L8.26161 11.0079C8.85372 9.99035 10.0583 9.50111 11.1923 9.81764L11.3765 9.86906C11.8931 10.0133 12.2505 10.484 12.2505 11.0204V11.5C12.2505 12.3163 11.5745 13.0331 10.6945 12.9287C9.78658 12.8209 8.73274 12.5983 8.13449 12.3425C8.07734 12.3181 8.02055 12.2929 7.96413 12.2667C7.75162 12.1683 7.54446 12.0576 7.34336 11.9328C6.33242 11.3072 5.48927 10.4446 4.88695 9.41959C4.74506 9.17901 4.61557 8.92683 4.49888 8.66524C4.15005 7.88331 3.91373 7.01335 3.80293 6.10929L3.80138 6.09657L3.80047 6.08378L3.7954 6.01484C3.76231 5.58062 3.90963 5.18779 4.20016 4.90799C4.48466 4.634 4.87238 4.5 5.27548 4.5H5.78036C6.32889 4.5 6.80703 4.87332 6.94007 5.40547L7.00343 5.6589C7.27444 6.74291 6.81863 7.87839 5.87331 8.47414ZM10.8123 11.9356C10.2034 11.8634 9.56234 11.7403 9.07123 11.6048L9.12593 11.5108C9.48909 10.8868 10.2279 10.5867 10.9234 10.7808L11.1076 10.8322C11.192 10.8558 11.2505 10.9328 11.2505 11.0204V11.5C11.2505 11.7882 11.0293 11.9614 10.8123 11.9356Z" fill="currentColor"/>
</svg>
