<svg width="16" height="16" viewBox="0 0 16 16" fill="none" xmlns="http://www.w3.org/2000/svg">
<path fill-rule="evenodd" clip-rule="evenodd" d="M13.2786 2.30129L12.4363 4.63874L12.2617 5.12326C12.173 5.1161 12.0834 5.11245 11.9929 5.11245C10.1741 5.11245 8.69971 6.58687 8.69971 8.40566C8.69971 9.52554 9.25869 10.5149 10.1129 11.1098C10.0981 11.1353 10.0855 11.1624 10.0752 11.191L9.27573 13.4095L7.33616 8.52158C7.28531 8.39345 7.18383 8.292 7.05569 8.24119L2.17079 6.30449L13.2786 2.30129ZM13.3771 4.97775L13.2404 5.35694C14.4407 5.84858 15.2861 7.02839 15.2861 8.40566C15.2861 10.2245 13.8117 11.6989 11.9929 11.6989C11.6502 11.6989 11.3197 11.6465 11.009 11.5494L9.99257 14.37C9.7584 15.0198 8.84463 15.0344 8.58986 14.3923L6.48633 9.09119L1.18794 6.99055C0.545724 6.73593 0.560145 5.822 1.21007 5.58777L13.4398 1.18025C14.037 0.965005 14.6148 1.54283 14.3996 2.14008L13.3771 4.97775ZM11.9929 6.11245C10.7264 6.11245 9.69971 7.13915 9.69971 8.40566C9.69971 9.67217 10.7264 10.6989 11.9929 10.6989C13.2594 10.6989 14.2861 9.67217 14.2861 8.40566C14.2861 7.13915 13.2594 6.11245 11.9929 6.11245ZM13.3585 8.16215C13.6346 8.16216 13.8585 8.38602 13.8585 8.66216C13.8585 8.9383 13.6346 9.16216 13.3585 9.16215L12.1971 9.16214C11.7829 9.16214 11.4472 8.82635 11.4472 8.41214L11.4471 7.25081C11.4471 6.97466 11.671 6.7508 11.9471 6.7508C12.2233 6.7508 12.4471 6.97466 12.4471 7.2508L12.4472 8.16214L13.3585 8.16215Z" fill="currentColor"/>
</svg>
