<svg width="16" height="16" viewBox="0 0 13.9912 14.3765" fill="none" xmlns="http://www.w3.org/2000/svg">
<path id="Union" fill-rule="evenodd" clip-rule="evenodd" d="M2.72852 0.5V1.57617L2.72868 1.58929C2.11452 1.61218 1.70627 1.6754 1.36523 1.84912L1.19238 1.9458C0.800962 2.18599 0.482108 2.53044 0.272461 2.94189L0.182617 3.15088C2.19714e-05 3.66229 0 4.35143 0 5.57666V10.3765C0 11.7763 0.000145958 12.4765 0.272461 13.0112C0.512144 13.4816 0.894829 13.8643 1.36523 14.104L1.57422 14.1938C1.93962 14.3243 2.39567 14.3619 3.07324 14.3726L4 14.3765H9.99121L10.918 14.3726C11.7308 14.3598 12.2248 14.3084 12.626 14.104C13.0375 13.8943 13.3819 13.5756 13.6221 13.1841L13.7188 13.0112C13.9229 12.6103 13.9745 12.1164 13.9873 11.3042L13.9912 10.3765V5.57666C13.9912 4.17668 13.9911 3.47665 13.7188 2.94189C13.4791 2.47149 13.0964 2.0888 12.626 1.84912C12.2849 1.6754 11.8767 1.61245 11.2625 1.58963L11.2627 1.57617V0.5C11.2627 0.223858 11.0388 0 10.7627 0C10.4866 0 10.2627 0.223858 10.2627 0.5V1.57617L10.2627 1.57674L9.99121 1.57666H4L3.72851 1.5778L3.72852 1.57617V0.5C3.72852 0.223858 3.50466 0 3.22852 0C2.95237 0 2.72852 0.223858 2.72852 0.5ZM9.99121 13.3765H4C3.28346 13.3765 2.80616 13.3762 2.43945 13.3462C2.0848 13.3172 1.92228 13.2658 1.81934 13.2134C1.53716 13.0696 1.3069 12.8403 1.16309 12.5581C1.11064 12.4552 1.05928 12.2921 1.03027 11.937C1.00033 11.5703 1 11.0929 1 10.3765V5.57666C1 4.86013 1.00032 4.38282 1.03027 4.01611C1.05924 3.66155 1.11072 3.49894 1.16309 3.396C1.3069 3.11375 1.53709 2.88356 1.81934 2.73975C1.92228 2.68738 2.0849 2.6359 2.43945 2.60693C2.80616 2.57698 3.28347 2.57666 4 2.57666H9.99121C10.7077 2.57666 11.1851 2.57698 11.5518 2.60693C11.9063 2.6359 12.0689 2.68738 12.1719 2.73975C12.4541 2.88356 12.6843 3.11375 12.8281 3.396C12.8805 3.49894 12.932 3.66156 12.9609 4.01611C12.9909 4.38282 12.9912 4.86013 12.9912 5.57666V10.3765C12.9912 11.0929 12.9909 11.5703 12.9609 11.937C12.9319 12.2921 12.8806 12.4552 12.8281 12.5581C12.6843 12.8403 12.4541 13.0696 12.1719 13.2134C12.0689 13.2658 11.9064 13.3172 11.5518 13.3462C11.185 13.3762 10.7078 13.3765 9.99121 13.3765ZM10.103 10.1924C10.1875 10.216 10.2456 10.2932 10.2456 10.3809V10.8604C10.2456 11.1485 10.025 11.3215 9.80811 11.2959C9.19906 11.2236 8.55804 11.0993 8.06689 10.9639L8.12158 10.8711C8.48476 10.2471 9.22399 9.94748 9.91943 10.1416L10.103 10.1924ZM3.88916 4.98828C3.95932 4.92073 4.08502 4.86037 4.271 4.86035H4.77588C4.86554 4.86035 4.94358 4.9218 4.96533 5.00879L5.02881 5.26172C5.19503 5.92658 4.91524 6.62289 4.33545 6.98828L4.19287 7.07715C4.03394 6.62668 3.91236 6.14736 3.8335 5.65039L3.7915 5.34766C3.79093 5.33975 3.79051 5.3318 3.79009 5.32389C3.78964 5.31545 3.7892 5.30705 3.78857 5.29883C3.777 5.1458 3.82508 5.04999 3.88916 4.98828ZM9.68994 12.2891C10.5699 12.3935 11.2456 11.6767 11.2456 10.8604V10.3809C11.2456 9.84443 10.8883 9.37372 10.3716 9.22949L10.188 9.17773C9.0541 8.86122 7.84945 9.3507 7.25732 10.3682L7.12549 10.5928C7.03731 10.5456 6.9504 10.4959 6.86572 10.4434L6.54541 10.2314C5.81408 9.71499 5.19972 9.04784 4.74463 8.27344V8.27246L4.59717 8.00488L4.86865 7.83496C5.81386 7.23929 6.27032 6.10343 5.99951 5.01953L5.93604 4.76562C5.80296 4.23353 5.32437 3.86035 4.77588 3.86035H4.271C3.86793 3.86037 3.48028 3.99459 3.1958 4.26855C2.90537 4.5483 2.75751 4.94092 2.79053 5.375C2.79132 5.38536 2.79226 5.39586 2.79321 5.40642C2.79435 5.41901 2.79549 5.43169 2.79639 5.44434L2.79834 5.46973C2.90913 6.37372 3.14584 7.2435 3.49463 8.02539C3.61123 8.28677 3.74057 8.53889 3.88232 8.7793V8.78027C4.48446 9.80486 5.32791 10.6665 6.33838 11.292V11.293C6.5395 11.4179 6.74694 11.5285 6.95947 11.627C7.0159 11.6531 7.07323 11.6787 7.13037 11.7031C7.72864 11.9588 8.7822 12.1814 9.68994 12.2891Z" fill="var(--fill-0, currentColor)"/>
</svg>
