<svg width="16" height="16" viewBox="0 0 14.5723 13.7312" fill="none" xmlns="http://www.w3.org/2000/svg">
<path id="Union" fill-rule="evenodd" clip-rule="evenodd" d="M12.7253 0.0459604C13.3225 -0.16928 13.9005 0.408675 13.6852 1.00592L12.6628 3.84381L12.5262 4.22266C13.7265 4.71432 14.5722 5.89396 14.5723 7.27106C14.5723 9.08985 13.0972 10.565 11.2784 10.565C10.9356 10.565 10.6051 10.5126 10.2943 10.4153L9.27802 13.2354C9.04385 13.8853 8.13045 13.8999 7.87568 13.2579L5.77119 7.95612L0.473336 5.85651C-0.168706 5.60179 -0.154073 4.6874 0.495797 4.45319L12.7253 0.0459604ZM11.7224 3.50397L11.5477 3.98894C11.4589 3.98176 11.3691 3.97809 11.2784 3.97809C9.4598 3.97822 7.98556 5.45246 7.98543 7.27106C7.98543 8.39094 8.54441 9.38054 9.39859 9.97572C9.38394 10.0011 9.37132 10.0282 9.36103 10.0567L8.56123 12.2745L6.62177 7.38678C6.58365 7.29097 6.51706 7.21024 6.43232 7.15436L6.3415 7.10651L1.45673 5.16998L12.5642 1.16608L11.7224 3.50397ZM13.5723 7.27106C13.5722 6.00467 12.5448 4.97809 11.2784 4.97809C10.0121 4.97822 8.98556 6.00475 8.98543 7.27106C8.98543 8.53749 10.012 9.56487 11.2784 9.56501C12.5449 9.56501 13.5723 8.53757 13.5723 7.27106ZM13.1442 7.52774C13.1442 7.80386 12.9204 8.02765 12.6443 8.02768H11.4828C11.0686 8.02765 10.7329 7.69195 10.7329 7.27776V6.11629C10.733 5.84023 10.9568 5.61636 11.2328 5.61634C11.5089 5.61634 11.7327 5.84022 11.7328 6.11629V7.02779H12.6443C12.9204 7.02782 13.1442 7.25164 13.1442 7.52774Z" fill="var(--fill-0, currentColor)"/>
</svg>
