<svg width="16" height="16" viewBox="0 0 14 10.779" fill="none" xmlns="http://www.w3.org/2000/svg">
<path id="Union" d="M8.60942 0.146435C8.80467 -0.0488151 9.12119 -0.048808 9.31645 0.146435C9.5117 0.341695 9.5117 0.658206 9.31645 0.853466L9.07914 1.09077C8.96583 1.20414 8.96599 1.38697 9.07817 1.49897H9.07914L12.501 4.92085C12.6143 5.03402 12.7962 5.03365 12.9082 4.92183L13.1465 4.68354C13.3418 4.4883 13.6583 4.4883 13.8536 4.68354C14.0488 4.87881 14.0488 5.19532 13.8536 5.39058L13.6163 5.62788C13.2198 6.02502 12.6302 6.10726 12.1514 5.87886L11.1329 8.75679C10.9825 9.18097 10.6213 9.49622 10.1778 9.58686L10.1788 9.58784L4.53324 10.7558C3.76592 10.9141 3.08372 10.236 3.24418 9.46577L4.41215 3.82124C4.5038 3.37921 4.81984 3.0177 5.2432 2.86714L8.12016 1.84761C7.89224 1.36915 7.97596 0.77994 8.37211 0.383739L8.60942 0.146435ZM0.407267 0.945263C0.599762 0.747831 0.916503 0.743478 1.1143 0.935497C1.71001 1.51571 2.54606 2.51882 2.55473 3.81636C2.56138 4.83781 2.04484 5.58554 1.64945 6.17475C1.22839 6.80225 0.956201 7.23973 1.0059 7.79487L1.02543 7.93745C1.09343 8.29408 1.32996 8.81999 2.1309 9.45015C2.34786 9.62082 2.3854 9.93527 2.21488 10.1523C2.04409 10.369 1.72966 10.406 1.51274 10.2353C0.417361 9.37341 0.0708345 8.55301 0.00980618 7.88667V7.88569C-0.0769029 6.92417 0.429414 6.19683 0.8184 5.61714C1.23327 4.99886 1.55899 4.49471 1.55473 3.82319C1.54882 2.94888 0.972746 2.19357 0.417033 1.65229C0.219583 1.45971 0.215009 1.14302 0.407267 0.945263ZM5.57719 3.8105C5.48241 3.84457 5.41227 3.9252 5.39164 4.02339L4.37797 8.91499L6.74223 6.54975C6.70894 6.44523 6.69147 6.33325 6.69145 6.21772C6.69169 5.61509 7.18056 5.12597 7.78324 5.12593C8.38587 5.12604 8.8748 5.61513 8.87504 6.21772C8.87493 6.82043 8.38595 7.30941 7.78324 7.30952C7.66697 7.30951 7.55534 7.29049 7.45024 7.25679L5.08695 9.62007L9.9766 8.60835H9.97758C10.075 8.58847 10.1563 8.51904 10.1905 8.4228L11.3399 5.17378L10.083 3.91694L8.82621 2.65913L5.57719 3.8105Z" fill="var(--fill-0, currentColor)"/>
</svg>
