<svg width="14" height="14" viewBox="0 0 14 14" fill="none" xmlns="http://www.w3.org/2000/svg">
<path fill-rule="evenodd" clip-rule="evenodd" d="M1 6.50097C1 3.46287 3.46287 1 6.50097 1C9.53907 1 12.0019 3.46287 12.0019 6.50097C12.0019 9.53907 9.53907 12.0019 6.50097 12.0019C3.46287 12.0019 1 9.53907 1 6.50097ZM6.50097 0C2.91058 0 0 2.91058 0 6.50097C0 10.0914 2.91058 13.0019 6.50097 13.0019C8.11619 13.0019 9.59382 12.4129 10.7308 11.4379L11.7131 12.4202L12.2464 12.9536L12.5131 13.2202L12.6464 13.3536C12.8417 13.5488 13.1583 13.5488 13.3536 13.3536C13.5488 13.1583 13.5488 12.8417 13.3536 12.6464L13.2202 12.5131L12.9536 12.2464L12.4202 11.7131L11.4379 10.7308C12.4129 9.59382 13.0019 8.11619 13.0019 6.50097C13.0019 2.91058 10.0914 0 6.50097 0Z" fill="currentColor"/>
</svg>
