<svg width="16" height="16" viewBox="0 0 12.8437 12.9499" fill="none" xmlns="http://www.w3.org/2000/svg">
<path id="Union" fill-rule="evenodd" clip-rule="evenodd" d="M6.00098 1C8.76293 1 11.002 3.23902 11.002 6.00098C11.002 8.76293 8.76293 11.002 6.00098 11.002C3.23902 11.002 1 8.76293 1 6.00098C1 3.23902 3.23902 1 6.00098 1ZM5.69238 11.9941L6.00098 12.002C7.45103 12.002 8.78096 11.4876 9.8183 10.6315L11.9904 12.8036C12.1857 12.9986 12.5023 12.9988 12.6974 12.8036C12.8926 12.6084 12.8924 12.2918 12.6974 12.0966L10.5342 9.93328C11.3856 8.95258 11.9241 7.69286 11.9941 6.30957L12.002 6.00098C12.002 2.79023 9.4804 0.168432 6.30957 0.0078125L6.00098 0C2.68673 0 0 2.68673 0 6.00098L0.0078125 6.30957C0.163255 9.37819 2.62376 11.8387 5.69238 11.9941Z" fill="var(--fill-0, currentColor)"/>
</svg>
