<svg width="16" height="16" viewBox="0 0 12.33 12.4365" fill="none" xmlns="http://www.w3.org/2000/svg">
<path id="Union" d="M5.15332 0C7.99942 0 10.3066 2.30722 10.3066 5.15332C10.3066 6.42343 9.8458 7.58508 9.08398 8.4834L10.6836 10.082L11.54 10.9395L11.9688 11.3682L12.1836 11.582C12.3789 11.7773 12.3789 12.0948 12.1836 12.29C11.9883 12.4853 11.6708 12.4853 11.4756 12.29L11.2617 12.0752L10.833 11.6465L9.97559 10.79L8.36621 9.17969C7.48496 9.88382 6.36904 10.3066 5.15332 10.3066C2.30722 10.3066 0 7.99942 0 5.15332C0 2.30722 2.30722 0 5.15332 0ZM5.15332 1C2.8595 1 1 2.8595 1 5.15332C1 7.44714 2.8595 9.30664 5.15332 9.30664C7.44714 9.30664 9.30664 7.44714 9.30664 5.15332C9.30664 2.8595 7.44714 1 5.15332 1Z" fill="var(--fill-0, currentColor)"/>
</svg>
