<svg width="16" height="16" viewBox="0 0 16 16" fill="none" xmlns="http://www.w3.org/2000/svg">
<path fill-rule="evenodd" clip-rule="evenodd" d="M12.5801 7.52636C12.5801 10.2883 10.3411 12.5273 7.5791 12.5273C4.81714 12.5273 2.57812 10.2883 2.57812 7.52636C2.57812 4.7644 4.81714 2.52539 7.5791 2.52539C10.3411 2.52539 12.5801 4.7644 12.5801 7.52636ZM11.3964 12.1569C10.359 13.013 9.02913 13.5273 7.5791 13.5273C4.26485 13.5273 1.57812 10.8406 1.57812 7.52636C1.57812 4.21212 4.26485 1.52539 7.5791 1.52539C10.8933 1.52539 13.5801 4.21212 13.5801 7.52636C13.5801 9.03054 13.0266 10.4055 12.1123 11.4586L13.1744 12.5207L13.8035 13.1498L14.118 13.4644L14.2753 13.6216C14.4706 13.8169 14.4706 14.1335 14.2753 14.3287C14.0801 14.524 13.7635 14.524 13.5682 14.3287L13.4109 14.1715L13.0964 13.8569L12.4673 13.2278L11.3964 12.1569Z" fill="currentColor"/>
</svg>
