<svg width="16" height="16" viewBox="0 0 13.0674 14.9997" fill="none" xmlns="http://www.w3.org/2000/svg">
<path id="Union" d="M6.38574 0.0223356C6.48201 -0.0074452 6.58538 -0.0074452 6.68164 0.0223356L12.7158 1.88855C12.925 1.95335 13.0672 2.14712 13.0674 2.36609V8.43347C13.0673 10.7945 11.3731 12.4413 9.8252 13.4589C9.03907 13.9757 8.25686 14.354 7.67285 14.6024C7.38008 14.727 7.13469 14.8197 6.96191 14.8817C6.87576 14.9126 6.80744 14.9362 6.75977 14.952C6.73605 14.9599 6.71717 14.9664 6.7041 14.9706C6.69758 14.9727 6.69219 14.9743 6.68848 14.9755C6.68662 14.976 6.68472 14.9761 6.68359 14.9764L6.68262 14.9774H6.68164C6.60931 14.9998 6.53321 15.0053 6.45898 14.994L6.38574 14.9774H6.38477L6.38379 14.9764C6.38267 14.9761 6.38069 14.976 6.37891 14.9755L6.30859 14.952C6.26089 14.9362 6.1919 14.9127 6.10547 14.8817C5.93271 14.8197 5.68813 14.7269 5.39551 14.6024C4.81145 14.354 4.02854 13.9758 3.24219 13.4589C1.69436 12.4412 0.000124546 10.7944 0 8.43347V2.36609C0.000197753 2.14705 0.143257 1.95329 0.352539 1.88855L6.38574 0.0223356ZM1 2.73523V8.43347C1.00012 10.2721 2.32309 11.6582 3.79199 12.6239C4.514 13.0985 5.23991 13.4497 5.78711 13.6825C6.05985 13.7985 6.28621 13.8849 6.44336 13.9413C6.47639 13.9531 6.50657 13.9633 6.5332 13.9725C6.56007 13.9632 6.59059 13.9533 6.62402 13.9413C6.78122 13.8848 7.00834 13.7986 7.28125 13.6825C7.82851 13.4497 8.55436 13.0985 9.27637 12.6239C10.7452 11.6582 12.0673 10.2721 12.0674 8.43347V2.73523L6.5332 1.02234L1 2.73523ZM6.53418 3.49987C7.63807 3.50014 8.53413 4.39594 8.53418 5.49987V6.49987H9.03418C9.31007 6.50014 9.53413 6.72394 9.53418 6.99987V9.99987C9.53418 10.2759 9.3101 10.4996 9.03418 10.4999H4.03418C3.75804 10.4999 3.53418 10.276 3.53418 9.99987V6.99987C3.53423 6.72377 3.75807 6.49987 4.03418 6.49987H4.53418V5.49987C4.53423 4.39577 5.43007 3.49987 6.53418 3.49987ZM4.53418 9.49987H8.53418V7.49987H4.53418V9.49987ZM6.53418 4.49987C5.98235 4.49987 5.53423 4.94806 5.53418 5.49987V6.49987H7.53418V5.49987C7.53413 4.94822 7.08578 4.50014 6.53418 4.49987Z" fill="var(--fill-0, currentColor)"/>
</svg>
