<svg width="16" height="16" viewBox="0 0 16 16" fill="none" xmlns="http://www.w3.org/2000/svg">
<path d="M11 1C12.6569 1 14 2.34315 14 4V12.5C14 13.8807 12.8807 15 11.5 15H4.5C3.11929 15 2 13.8807 2 12.5V3.5C2 2.11929 3.11929 1 4.5 1H11ZM4.5 2C3.67157 2 3 2.67157 3 3.5V12.5C3 13.3284 3.67157 14 4.5 14H11.5C12.3284 14 13 13.3284 13 12.5V4C13 2.89543 12.1046 2 11 2H4.5ZM6.59473 9.58301C6.75585 9.3592 7.06785 9.30792 7.29199 9.46875C7.51613 9.62976 7.56711 9.94271 7.40625 10.167L5.91992 12.2393C5.83174 12.3621 5.69201 12.4378 5.54102 12.4463C5.38999 12.4546 5.24287 12.3946 5.1416 12.2822L4.26367 11.3066C4.07931 11.1014 4.09582 10.7852 4.30078 10.6006C4.50604 10.416 4.82312 10.4325 5.00781 10.6377L5.46875 11.1514L6.59473 9.58301ZM11.1758 10.375C11.4519 10.375 11.6758 10.5989 11.6758 10.875C11.6758 11.1511 11.4519 11.375 11.1758 11.375H8.82422C8.54819 11.3749 8.32425 11.1511 8.32422 10.875C8.32422 10.5989 8.54817 10.3751 8.82422 10.375H11.1758ZM6.59473 5.58301C6.75585 5.3592 7.06785 5.30792 7.29199 5.46875C7.51613 5.62977 7.56711 5.94271 7.40625 6.16699L5.91992 8.23926C5.83174 8.36213 5.69201 8.43782 5.54102 8.44629C5.38999 8.45463 5.24287 8.39457 5.1416 8.28223L4.26367 7.30664C4.07931 7.10144 4.09582 6.78524 4.30078 6.60059C4.50604 6.41598 4.82312 6.43248 5.00781 6.6377L5.46875 7.15137L6.59473 5.58301ZM11.1758 6.1748C11.4519 6.1748 11.6758 6.39866 11.6758 6.6748C11.6758 6.95092 11.4519 7.1748 11.1758 7.1748H8.82422C8.54819 7.1747 8.32425 6.95085 8.32422 6.6748C8.32422 6.39873 8.54817 6.17491 8.82422 6.1748H11.1758Z" fill="currentColor"/>
</svg>
