<svg width="16" height="16" viewBox="0 0 12 14" fill="none" xmlns="http://www.w3.org/2000/svg">
<path id="Union" d="M9 0C10.6569 0 12 1.34315 12 3V11.5C12 12.8807 10.8807 14 9.5 14H2.5C1.11929 14 4.0266e-08 12.8807 0 11.5V2.5C0 1.11929 1.11929 4.83192e-08 2.5 0H9ZM2.5 1C1.67157 1 1 1.67157 1 2.5V11.5C1 12.3284 1.67157 13 2.5 13H9.5C10.3284 13 11 12.3284 11 11.5V3C11 1.89543 10.1046 1 9 1H2.5ZM4.59473 8.58301C4.75585 8.3592 5.06785 8.30792 5.29199 8.46875C5.51613 8.62976 5.56711 8.94271 5.40625 9.16699L3.91992 11.2393C3.83174 11.3621 3.69201 11.4378 3.54102 11.4463C3.38999 11.4546 3.24287 11.3946 3.1416 11.2822L2.26367 10.3066C2.07931 10.1014 2.09582 9.78524 2.30078 9.60059C2.50604 9.41598 2.82312 9.43248 3.00781 9.6377L3.46875 10.1514L4.59473 8.58301ZM9.17578 9.375C9.45192 9.375 9.67578 9.59886 9.67578 9.875C9.67575 10.1511 9.45191 10.375 9.17578 10.375H6.82422C6.54819 10.3749 6.32425 10.1511 6.32422 9.875C6.32422 9.59893 6.54817 9.37511 6.82422 9.375H9.17578ZM4.59473 4.58301C4.75585 4.3592 5.06785 4.30792 5.29199 4.46875C5.51613 4.62976 5.56711 4.94271 5.40625 5.16699L3.91992 7.23926C3.83174 7.36213 3.69201 7.43782 3.54102 7.44629C3.38999 7.45463 3.24287 7.39457 3.1416 7.28223L2.26367 6.30664C2.07931 6.10144 2.09582 5.78524 2.30078 5.60059C2.50604 5.41598 2.82312 5.43248 3.00781 5.6377L3.46875 6.15137L4.59473 4.58301ZM9.17578 5.1748C9.45192 5.1748 9.67578 5.39866 9.67578 5.6748C9.67575 5.95092 9.45191 6.1748 9.17578 6.1748H6.82422C6.54819 6.1747 6.32425 5.95085 6.32422 5.6748C6.32422 5.39873 6.54817 5.17491 6.82422 5.1748H9.17578Z" fill="var(--fill-0, currentColor)"/>
</svg>
