<svg width="16" height="16" viewBox="0 0 16 16" fill="none" xmlns="http://www.w3.org/2000/svg">
<path d="M10.8535 4.64648C11.0488 4.84175 11.0488 5.15825 10.8535 5.35352C10.6583 5.54878 10.3417 5.54878 10.1465 5.35352L8 3.20703L5.85352 5.35352C5.65825 5.54878 5.34175 5.54878 5.14648 5.35352C4.95122 5.15825 4.95122 4.84175 5.14648 4.64648L7.64648 2.14648C7.84175 1.95122 8.15825 1.95122 8.35352 2.14648L10.8535 4.64648ZM10.8535 10.6465C11.0488 10.8417 11.0488 11.1583 10.8535 11.3535L8.35352 13.8535C8.15825 14.0488 7.84175 14.0488 7.64648 13.8535L5.14648 11.3535C4.95122 11.1583 4.95122 10.8417 5.14648 10.6465C5.34175 10.4512 5.65825 10.4512 5.85352 10.6465L8 12.793L10.1465 10.6465C10.3417 10.4512 10.6583 10.4512 10.8535 10.6465Z" fill="currentColor"/>
</svg>
