<svg width="16" height="16" viewBox="0 0 11.9999 5.99992" fill="none" xmlns="http://www.w3.org/2000/svg">
<path id="Union" d="M2.64645 0.146447C2.84171 -0.0488151 3.15822 -0.0488153 3.35348 0.146447C3.54874 0.341709 3.54874 0.658216 3.35348 0.853478L1.20699 2.99996L3.35348 5.14645C3.54874 5.34171 3.54874 5.65822 3.35348 5.85348C3.15822 6.04874 2.84171 6.04874 2.64645 5.85348L0.146446 3.35348C-0.0488154 3.15822 -0.0488156 2.84171 0.146446 2.64645L2.64645 0.146447ZM8.64645 0.146447C8.84171 -0.0488155 9.15822 -0.0488155 9.35348 0.146447L11.8535 2.64645C12.0487 2.84171 12.0487 3.15822 11.8535 3.35348L9.35348 5.85348C9.15822 6.04874 8.84171 6.04874 8.64645 5.85348C8.45118 5.65822 8.45118 5.34171 8.64645 5.14645L10.7929 2.99996L8.64645 0.853478C8.45118 0.658216 8.45118 0.341709 8.64645 0.146447Z" fill="var(--fill-0, currentColor)"/>
</svg>
