<svg width="16" height="16" viewBox="0 0 13.1144 8.07199" fill="none" xmlns="http://www.w3.org/2000/svg">
<path id="Union" d="M2.45909 5.20796C2.62012 4.98417 2.9322 4.93309 3.15635 5.09371C3.38071 5.2547 3.4316 5.56759 3.27061 5.79195L1.78428 7.86421C1.69604 7.98706 1.5564 8.06286 1.40537 8.07125C1.25441 8.07947 1.10714 8.01954 1.00596 7.90718L0.128031 6.9316C-0.0560619 6.72646 -0.0395479 6.41016 0.16514 6.22554C0.370323 6.04088 0.687414 6.0576 0.872171 6.26265L1.33311 6.77632L2.45909 5.20796ZM12.6144 6.12496C12.8905 6.12496 13.1143 6.34883 13.1144 6.62496C13.1144 6.9011 12.8905 7.12496 12.6144 7.12496H4.61436C4.3384 7.12474 4.11436 6.90096 4.11436 6.62496C4.11437 6.34896 4.33841 6.12518 4.61436 6.12496H12.6144ZM2.45909 0.207965C2.62016 -0.0158784 2.93219 -0.0670221 3.15635 0.0937069C3.38071 0.2547 3.4316 0.567593 3.27061 0.791949L1.78428 2.86421C1.69604 2.98712 1.55644 3.06286 1.40537 3.07125C1.25434 3.07953 1.10718 3.01959 1.00596 2.90718L0.128031 1.9316C-0.0561911 1.72643 -0.0396869 1.41018 0.16514 1.22554C0.370357 1.04085 0.687427 1.05751 0.872171 1.26265L1.33311 1.77632L2.45909 0.207965ZM12.6144 1.12496C12.8905 1.12496 13.1143 1.34883 13.1144 1.62496C13.1144 1.9011 12.8905 2.12496 12.6144 2.12496H4.61436C4.3384 2.12474 4.11436 1.90096 4.11436 1.62496C4.11437 1.34896 4.33841 1.12518 4.61436 1.12496H12.6144Z" fill="var(--fill-0, currentColor)"/>
</svg>
