<svg width="16" height="16" viewBox="0 0 14.001 13.1348" fill="none" xmlns="http://www.w3.org/2000/svg">
<path id="Union" d="M11.501 0C12.8815 0.0001858 14.001 1.1194 14.001 2.5V8.03418C14.0008 9.4146 12.8814 10.534 11.501 10.5342H8.7998V12.1338H10.9004C11.1763 12.134 11.4003 12.3578 11.4004 12.6338C11.4004 12.9098 11.1763 13.1336 10.9004 13.1338H8.30859C8.30581 13.1338 8.3026 13.1348 8.2998 13.1348C8.29687 13.1348 8.29394 13.1338 8.29102 13.1338H5.70898C5.7061 13.1338 5.70309 13.1348 5.7002 13.1348C5.69726 13.1348 5.69433 13.1338 5.69141 13.1338H3.09961C2.82361 13.1336 2.59961 12.9098 2.59961 12.6338C2.59969 12.3578 2.82366 12.134 3.09961 12.1338H5.2002V10.5342H2.5C1.11942 10.5342 0.000207095 9.41471 0 8.03418V2.5C1.00057e-06 1.11929 1.11929 0 2.5 0H11.501ZM6.2002 10.5342V12.1338H7.7998V10.5342H6.2002ZM2.5 1C1.67157 1 1 1.67157 1 2.5V8.03418C1.00021 8.86243 1.6717 9.53418 2.5 9.53418H11.501C12.3291 9.53399 13.0008 8.86232 13.001 8.03418V2.5C13.001 1.67169 12.3292 1.00019 11.501 1H2.5Z" fill="var(--fill-0, currentColor)"/>
</svg>
