<svg width="16" height="16" viewBox="0 0 13.1875 15.0625" fill="none" xmlns="http://www.w3.org/2000/svg">
<path id="Union" d="M10.8125 0C12.1242 0 13.1875 1.06332 13.1875 2.375V12.6875C13.1875 13.9992 12.1242 15.0625 10.8125 15.0625H2.375C1.06332 15.0625 5.28491e-08 13.9992 0 12.6875V2.375C0 1.06332 1.06332 3.77493e-08 2.375 0H10.8125ZM2.375 1C1.61561 1 1 1.61561 1 2.375V12.6875C1 13.4469 1.61561 14.0625 2.375 14.0625H6.09375V1H2.375ZM7.09375 14.0625H10.8125C11.5719 14.0625 12.1875 13.4469 12.1875 12.6875V2.375C12.1875 1.61561 11.5719 1 10.8125 1H7.09375V14.0625ZM4.25 8.4375C4.52614 8.4375 4.75 8.66136 4.75 8.9375C4.75 9.21364 4.52614 9.4375 4.25 9.4375H2.375C2.09886 9.4375 1.875 9.21364 1.875 8.9375C1.875 8.66136 2.09886 8.4375 2.375 8.4375H4.25ZM10.8125 8.4375C11.0886 8.4375 11.3125 8.66136 11.3125 8.9375C11.3125 9.21364 11.0886 9.4375 10.8125 9.4375H8.9375C8.66136 9.4375 8.4375 9.21364 8.4375 8.9375C8.4375 8.66136 8.66136 8.4375 8.9375 8.4375H10.8125ZM4.25 5.625C4.52614 5.625 4.75 5.84886 4.75 6.125C4.75 6.40114 4.52614 6.625 4.25 6.625H2.375C2.09886 6.625 1.875 6.40114 1.875 6.125C1.875 5.84886 2.09886 5.625 2.375 5.625H4.25ZM10.8125 5.625C11.0886 5.625 11.3125 5.84886 11.3125 6.125C11.3125 6.40114 11.0886 6.625 10.8125 6.625H8.9375C8.66136 6.625 8.4375 6.40114 8.4375 6.125C8.4375 5.84886 8.66136 5.625 8.9375 5.625H10.8125ZM4.25 2.8125C4.52614 2.8125 4.75 3.03636 4.75 3.3125C4.75 3.58864 4.52614 3.8125 4.25 3.8125H2.375C2.09886 3.8125 1.875 3.58864 1.875 3.3125C1.875 3.03636 2.09886 2.8125 2.375 2.8125H4.25ZM10.8125 2.8125C11.0886 2.8125 11.3125 3.03636 11.3125 3.3125C11.3125 3.58864 11.0886 3.8125 10.8125 3.8125H8.9375C8.66136 3.8125 8.4375 3.58864 8.4375 3.3125C8.4375 3.03636 8.66136 2.8125 8.9375 2.8125H10.8125Z" fill="var(--fill-0, currentColor)"/>
</svg>
