<svg width="16" height="16" viewBox="0 0 16 16" fill="none" xmlns="http://www.w3.org/2000/svg">
<path d="M12.2188 0.46875C13.5304 0.46875 14.5938 1.53207 14.5938 2.84375V13.1562C14.5938 14.4679 13.5304 15.5312 12.2188 15.5312H3.78125C2.46957 15.5312 1.40625 14.4679 1.40625 13.1562V2.84375C1.40625 1.53207 2.46957 0.46875 3.78125 0.46875H12.2188ZM3.78125 1.46875C3.02186 1.46875 2.40625 2.08436 2.40625 2.84375V13.1562C2.40625 13.9156 3.02186 14.5312 3.78125 14.5312H7.5V1.46875H3.78125ZM8.5 14.5312H12.2188C12.9781 14.5312 13.5938 13.9156 13.5938 13.1562V2.84375C13.5938 2.08436 12.9781 1.46875 12.2188 1.46875H8.5V14.5312ZM5.65625 8.90625C5.93239 8.90625 6.15625 9.13011 6.15625 9.40625C6.15625 9.68239 5.93239 9.90625 5.65625 9.90625H3.78125C3.50511 9.90625 3.28125 9.68239 3.28125 9.40625C3.28125 9.13011 3.50511 8.90625 3.78125 8.90625H5.65625ZM12.2188 8.90625C12.4949 8.90625 12.7188 9.13011 12.7188 9.40625C12.7188 9.68239 12.4949 9.90625 12.2188 9.90625H10.3438C10.0676 9.90625 9.84375 9.68239 9.84375 9.40625C9.84375 9.13011 10.0676 8.90625 10.3438 8.90625H12.2188ZM5.65625 6.09375C5.93239 6.09375 6.15625 6.31761 6.15625 6.59375C6.15625 6.86989 5.93239 7.09375 5.65625 7.09375H3.78125C3.50511 7.09375 3.28125 6.86989 3.28125 6.59375C3.28125 6.31761 3.50511 6.09375 3.78125 6.09375H5.65625ZM12.2188 6.09375C12.4949 6.09375 12.7188 6.31761 12.7188 6.59375C12.7188 6.86989 12.4949 7.09375 12.2188 7.09375H10.3438C10.0676 7.09375 9.84375 6.86989 9.84375 6.59375C9.84375 6.31761 10.0676 6.09375 10.3438 6.09375H12.2188ZM5.65625 3.28125C5.93239 3.28125 6.15625 3.50511 6.15625 3.78125C6.15625 4.05739 5.93239 4.28125 5.65625 4.28125H3.78125C3.50511 4.28125 3.28125 4.05739 3.28125 3.78125C3.28125 3.50511 3.50511 3.28125 3.78125 3.28125H5.65625ZM12.2188 3.28125C12.4949 3.28125 12.7188 3.50511 12.7188 3.78125C12.7188 4.05739 12.4949 4.28125 12.2188 4.28125H10.3438C10.0676 4.28125 9.84375 4.05739 9.84375 3.78125C9.84375 3.50511 10.0676 3.28125 10.3438 3.28125H12.2188Z" fill="currentColor"/>
</svg>
