<svg width="16" height="16" viewBox="0 0 16 16" fill="none" xmlns="http://www.w3.org/2000/svg">
<g clip-path="url(#clip0_5_8211)">
<path fill-rule="evenodd" clip-rule="evenodd" d="M4.01903 3.06315C5.30004 3.37591 6.64017 2.82081 7.32482 1.69385H8.00038H8.67595C9.36059 2.82078 10.7007 3.37589 11.9817 3.0631L12.4594 3.54085L12.9371 4.0185C12.6243 5.29952 13.1795 6.63967 14.3064 7.32433V7.9999V8.67546C13.1795 9.36011 12.6244 10.7002 12.9371 11.9812L12.464 12.4544L11.956 12.937C10.6823 12.62 9.34583 13.1761 8.67367 14.3059H8.00038H7.32481C6.64016 13.179 5.3 12.6239 4.01898 12.9366L3.54133 12.4589L3.06359 11.9812C3.37638 10.7002 2.82127 9.3601 1.69434 8.67546L1.69434 7.9999L1.69434 7.32418C2.8122 6.64351 3.36849 5.30571 3.0487 4.03348L3.54133 3.54085L4.01903 3.06315ZM7.11411 0.693848C6.87353 0.693848 6.65324 0.828644 6.54374 1.04286C6.09008 1.93032 5.05934 2.35727 4.11102 2.05052C3.88212 1.97648 3.63103 2.03693 3.46092 2.20705L2.83423 2.83374L2.19037 3.4776C2.01924 3.64873 1.95956 3.9019 2.03624 4.13144C2.3478 5.06409 1.92332 6.09342 1.04302 6.54341C0.830791 6.6519 0.694336 6.871 0.694336 7.11282V7.9999V8.88617C0.694336 9.12675 0.829139 9.34704 1.04334 9.45654C1.93078 9.91019 2.35772 10.9409 2.05096 11.8892C1.97691 12.1181 2.03736 12.3692 2.20748 12.5393L2.83423 13.1661L3.46086 13.7927C3.63098 13.9628 3.88206 14.0233 4.11095 13.9492C5.0593 13.6425 6.09007 14.0695 6.54373 14.9569C6.65323 15.1711 6.87353 15.3059 7.11411 15.3059H8.00038H8.88702C9.12738 15.3059 9.34746 15.1713 9.45686 14.9573L9.47072 14.9302C9.91552 14.06 10.9277 13.6434 11.8562 13.9482C12.0792 14.0214 12.3244 13.9663 12.4946 13.8046L13.1573 13.175L13.1575 13.1751L13.1665 13.1661L13.7932 12.5394C13.9633 12.3692 14.0238 12.1182 13.9498 11.8893C13.643 10.9409 14.07 9.9102 14.9574 9.45654C15.1716 9.34704 15.3064 9.12675 15.3064 8.88617V7.9999V7.11362C15.3064 6.87304 15.1716 6.65275 14.9574 6.54325C14.07 6.08959 13.643 5.05881 13.9497 4.11047C14.0237 3.88157 13.9633 3.63049 13.7932 3.46037L13.1665 2.83374L12.5398 2.20699C12.3697 2.03687 12.1186 1.97642 11.8897 2.05047C10.9414 2.35723 9.91068 1.9303 9.45703 1.04286C9.34753 0.82865 9.12724 0.693848 8.88666 0.693848H8.00038H7.11411ZM5.88267 7.9999C5.88267 6.83032 6.8308 5.88218 8.00038 5.88218C9.16996 5.88218 10.1181 6.83032 10.1181 7.9999C10.1181 9.16947 9.16996 10.1176 8.00038 10.1176C6.8308 10.1176 5.88267 9.16947 5.88267 7.9999ZM8.00038 4.88218C6.27852 4.88218 4.88267 6.27803 4.88267 7.9999C4.88267 9.72176 6.27852 11.1176 8.00038 11.1176C9.72225 11.1176 11.1181 9.72176 11.1181 7.9999C11.1181 6.27803 9.72225 4.88218 8.00038 4.88218Z" fill="currentColor"/>
</g>
<defs>
<clipPath id="clip0_5_8211">
<rect width="16" height="16" fill="white"/>
</clipPath>
</defs>
</svg>
