<svg width="16" height="16" viewBox="0 0 14.6123 14.6123" fill="none" xmlns="http://www.w3.org/2000/svg">
<path id="Union" fill-rule="evenodd" clip-rule="evenodd" d="M12.2432 3.3252C11.9307 4.60572 12.4861 5.94317 13.6123 6.62793V7.98242C12.4861 8.66675 11.9315 10.0048 12.2432 11.2852L11.7646 11.7646L11.2598 12.2441C9.98697 11.9281 8.65455 12.4837 7.98242 13.6123H6.62793C5.94317 12.4861 4.60572 11.9307 3.3252 12.2432L2.36719 11.2852C2.67905 10.005 2.12594 8.6679 1 7.9834V6.62793C2.11695 5.94718 2.67186 4.61244 2.35254 3.34082L3.32617 2.36719C4.60647 2.67936 5.94323 2.12594 6.62793 1H7.9834C8.6679 2.12594 10.005 2.67905 11.2852 2.36719L12.2432 3.3252ZM14.2627 8.7627C14.4769 8.6532 14.6123 8.43294 14.6123 8.19238V6.41992C14.6123 6.17934 14.4769 5.95911 14.2627 5.84961C13.3754 5.39592 12.9493 4.3652 13.2559 3.41699C13.3299 3.1881 13.2687 2.93672 13.0986 2.7666L12.4727 2.13965L11.8457 1.5127L11.7783 1.4541C11.6132 1.32961 11.3956 1.29167 11.1953 1.35645C10.3063 1.64404 9.34499 1.28682 8.85449 0.509766L8.7627 0.348633L8.7168 0.272461C8.61492 0.127257 8.45693 0.0304408 8.28125 0.00585938L8.19238 0H6.41992C6.20944 0 6.01432 0.103182 5.89551 0.272461L5.84961 0.348633C5.42435 1.18054 4.4919 1.6077 3.5957 1.40527L3.41699 1.35645L3.33008 1.33496C3.15535 1.30433 2.97559 1.34822 2.83398 1.45508L2.7666 1.51367L2.13965 2.13965L1.49609 2.78418C1.32513 2.95528 1.2652 3.20807 1.3418 3.4375C1.63386 4.31177 1.27947 5.27146 0.508789 5.75879L0.348633 5.84961C0.136447 5.9581 1.14171e-05 6.17716 0 6.41895V8.19238C2.15386e-05 8.43283 0.134617 8.65315 0.348633 8.7627C1.23607 9.21634 1.66321 10.247 1.35645 11.1953C1.28242 11.4242 1.34266 11.6756 1.5127 11.8457L2.13965 12.4727L2.7666 13.0986C2.93672 13.2687 3.1881 13.3299 3.41699 13.2559C4.3652 12.9493 5.39592 13.3754 5.84961 14.2627C5.95911 14.4769 6.17934 14.6123 6.41992 14.6123H8.19238C8.43268 14.6123 8.65327 14.4776 8.7627 14.2637L8.77637 14.2363C9.22116 13.3662 10.2336 12.9491 11.1621 13.2539C11.3851 13.3271 11.6297 13.272 11.7998 13.1104L12.4629 12.4814L12.4727 12.4727L13.0986 11.8457C13.2687 11.6756 13.3299 11.4242 13.2559 11.1953C12.9491 10.2471 13.3754 9.21643 14.2627 8.7627ZM7.3065 5.18834C8.47587 5.18858 9.42369 6.13707 9.42369 7.3065C9.42344 8.47572 8.47572 9.42344 7.3065 9.42369C6.13707 9.42369 5.18858 8.47587 5.18834 7.3065C5.18834 6.13692 6.13692 5.18834 7.3065 5.18834ZM7.3065 10.4237C9.02801 10.4234 10.4234 9.02801 10.4237 7.3065C10.4237 5.58479 9.02816 4.18858 7.3065 4.18834C5.58464 4.18834 4.18834 5.58464 4.18834 7.3065C4.18858 9.02816 5.58479 10.4237 7.3065 10.4237Z" fill="var(--fill-0, currentColor)"/>
</svg>
