<svg width="16" height="16" viewBox="0 0 14.2407 11.8181" fill="none" xmlns="http://www.w3.org/2000/svg">
<path id="Union" d="M13.2402 5.75894L8.14746 10.216V8.20035C8.14746 7.65059 7.69621 7.19048 7.12891 7.20914L6.76367 7.22574C4.97293 7.33098 3.6854 7.76353 2.66016 8.42691C2.04361 8.82584 1.5358 9.30158 1.07812 9.81265C1.28261 7.9275 1.88224 6.65444 2.72559 5.80875C3.77911 4.75251 5.29623 4.27714 7.16504 4.20914C7.69686 4.18958 8.14746 3.7581 8.14746 3.20035V1.30191L13.2402 5.75894ZM7.14746 10.7668C7.14746 11.4111 7.90569 11.7555 8.39062 11.3312L13.8994 6.51187C14.3546 6.11354 14.3544 5.40543 13.8994 5.00699L8.39062 0.186676L8.29688 0.116364C7.81396 -0.192991 7.14758 0.147155 7.14746 0.751129V3.19937C7.14746 3.19937 7.1469 3.20083 7.14551 3.2023C7.14169 3.20615 7.13525 3.20887 7.12793 3.20914C5.12649 3.28201 3.31959 3.79641 2.01758 5.10172C0.713076 6.40957 7.54358e-05 8.42649 0 11.3175C0 11.5322 0.137422 11.7236 0.34082 11.7921C0.544088 11.8604 0.768674 11.791 0.898438 11.6203C1.62104 10.6695 2.28104 9.86241 3.20312 9.26578C4.11195 8.67776 5.31472 8.27035 7.14746 8.20816V10.7668Z" fill="var(--fill-0, currentColor)"/>
</svg>
