<svg width="16" height="16" viewBox="0 0 12.4473 12.4473" fill="none" xmlns="http://www.w3.org/2000/svg">
<path id="Union" d="M9.44727 11.4473C9.72332 11.4473 9.94718 11.6712 9.94727 11.9473C9.94727 12.2234 9.72337 12.4472 9.44727 12.4473H3C2.72386 12.4473 2.5 12.2234 2.5 11.9473C2.50008 11.6712 2.72391 11.4473 3 11.4473H9.44727ZM0.5 2.5C0.776142 2.5 1 2.72386 1 3V9.44727C0.999959 9.72337 0.776117 9.94727 0.5 9.94727C0.223883 9.94727 4.07125e-05 9.72337 0 9.44727V3C0 2.72386 0.223858 2.5 0.5 2.5ZM11.9473 2.5C12.2234 2.5 12.4473 2.72386 12.4473 3V9.44727C12.4472 9.72337 12.2234 9.94727 11.9473 9.94727C11.6712 9.94718 11.4473 9.72332 11.4473 9.44727V3C11.4473 2.72391 11.6712 2.50008 11.9473 2.5ZM9.44727 0C9.72337 4.07125e-05 9.94727 0.223883 9.94727 0.5C9.94727 0.776117 9.72337 0.999959 9.44727 1H3C2.72386 1 2.5 0.776142 2.5 0.5C2.5 0.223858 2.72386 0 3 0H9.44727Z" fill="var(--fill-0, currentColor)"/>
</svg>
