<svg width="16" height="16" viewBox="0 0 9.81827 9.81918" fill="none" xmlns="http://www.w3.org/2000/svg">
<path id="Union" d="M0.14643 0.146399C0.34168 -0.0487996 0.658212 -0.0487996 0.853462 0.146399L5.26264 4.55656C5.45787 4.75182 5.45789 5.06833 5.26264 5.26359L0.853462 9.67277C0.658208 9.86798 0.341684 9.86798 0.14643 9.67277C-0.0488209 9.47751 -0.0487993 9.161 0.14643 8.96573L4.20209 4.91007L0.14643 0.85343C-0.0487731 0.658175 -0.0487834 0.341648 0.14643 0.146399ZM4.55561 0.146399C4.7508 -0.0487442 5.06738 -0.0486336 5.26264 0.146399L9.67182 4.55656C9.86708 4.75182 9.86708 5.06832 9.67182 5.26359L5.26264 9.67277C5.06736 9.86777 4.75079 9.86794 4.55561 9.67277C4.3606 9.47758 4.36066 9.16096 4.55561 8.96573L8.61127 4.91007L4.55561 0.85343C4.36065 0.658238 4.36068 0.341611 4.55561 0.146399Z" fill="var(--fill-0, currentColor)"/>
</svg>
