<svg width="16" height="16" viewBox="0 0 16 16" fill="none" xmlns="http://www.w3.org/2000/svg">
<path d="M3.23682 3.23682C3.43207 3.04162 3.7486 3.04162 3.94385 3.23682L8.35303 7.64697C8.54826 7.84224 8.54828 8.15875 8.35303 8.354L3.94385 12.7632C3.74859 12.9584 3.43207 12.9584 3.23682 12.7632C3.04157 12.5679 3.04159 12.2514 3.23682 12.0562L7.29248 8.00049L3.23682 3.94385C3.04161 3.74859 3.0416 3.43207 3.23682 3.23682ZM7.646 3.23682C7.84119 3.04167 8.15776 3.04178 8.35303 3.23682L12.7622 7.64697C12.9575 7.84223 12.9575 8.15874 12.7622 8.354L8.35303 12.7632C8.15774 12.9582 7.84117 12.9584 7.646 12.7632C7.45099 12.568 7.45105 12.2514 7.646 12.0562L11.7017 8.00049L7.646 3.94385C7.45103 3.74866 7.45107 3.43203 7.646 3.23682Z" fill="currentColor"/>
</svg>
