<svg width="16" height="16" viewBox="0 0 13.9981 14" fill="none" xmlns="http://www.w3.org/2000/svg">
<path id="Union" fill-rule="evenodd" clip-rule="evenodd" d="M1.00002 3.75002C1.00002 3.02409 1.00297 2.74886 1.0547 2.53322C1.23027 1.80192 1.80192 1.23125 2.53322 1.05568C2.74887 1.00393 3.02402 1.00002 3.75002 1.00002H9.49806C10.2064 1.00002 10.7078 1.00023 11.0996 1.03224C11.4854 1.06378 11.7212 1.12347 11.9063 1.21779C12.2825 1.40952 12.5886 1.71556 12.7803 2.09181C12.8746 2.27693 12.9343 2.51265 12.9658 2.89845C12.9978 3.29025 12.9981 3.7917 12.9981 4.50002V9.50002C12.9981 10.2083 12.9978 10.7098 12.9658 11.1016C12.9343 11.4874 12.8746 11.7231 12.7803 11.9082C12.5886 12.2845 12.2825 12.5905 11.9063 12.7822C11.7212 12.8766 11.4854 12.9362 11.0996 12.9678C10.7078 12.9998 10.2064 13 9.49806 13H3.75002C3.02404 13 2.74887 12.9961 2.53322 12.9444C1.80192 12.7688 1.23027 12.1981 1.0547 11.4668C1.00297 11.2512 1.00002 10.9759 1.00002 10.25C1.00002 9.97392 0.776096 9.75009 0.500017 9.75002C0.223875 9.75002 1.73052e-05 9.97387 1.73052e-05 10.25L8.48269e-06 10.3221C-0.00010741 10.949 -0.00018219 11.3536 0.0830251 11.7002C0.346379 12.7972 1.20288 13.6537 2.29982 13.917C2.64657 14.0002 3.05144 14.0001 3.67871 14L3.75002 14H9.49806C10.1898 14 10.7387 14 11.1807 13.9639C11.6285 13.9273 12.0107 13.851 12.3604 13.6729C12.9246 13.3853 13.3833 12.9265 13.6709 12.3623C13.8491 12.0127 13.9253 11.6304 13.9619 11.1826C13.998 10.7407 13.9981 10.1918 13.9981 9.50002V4.50002C13.9981 3.80823 13.998 3.25935 13.9619 2.8174C13.9253 2.3696 13.8491 1.98734 13.6709 1.63771C13.3833 1.07349 12.9246 0.61474 12.3604 0.327165C12.0107 0.149023 11.6285 0.0727363 11.1807 0.0361496C10.7387 4.46162e-05 10.1898 1.67398e-05 9.49806 1.674e-05H3.75002L3.67871 8.20571e-06C3.05143 -0.000105163 2.64657 -0.000178331 2.29982 0.0830246C1.20288 0.346378 0.346379 1.20287 0.0830251 2.29982C-0.000182221 2.64647 -0.000107427 3.051 8.48084e-06 3.67794L1.73052e-05 3.75002C1.73052e-05 4.02616 0.223875 4.25002 0.500017 4.25002C0.776096 4.24994 1.00002 4.02611 1.00002 3.75002ZM6.25978 3.1465C6.45504 2.95124 6.77155 2.95124 6.96681 3.1465L10.4668 6.6465C10.6621 6.84176 10.6621 7.15827 10.4668 7.35353L6.96681 10.8535C6.77155 11.0488 6.45504 11.0488 6.25978 10.8535C6.06452 10.6583 6.06452 10.3418 6.25978 10.1465L8.90627 7.50002L0.500017 7.50002C0.223875 7.50002 1.72698e-05 7.27616 1.72456e-05 7.00002C1.72215e-05 6.72387 0.223875 6.50002 0.500017 6.50002L8.90627 6.50002L6.25978 3.85353C6.06452 3.65827 6.06452 3.34176 6.25978 3.1465Z" fill="var(--fill-0, currentColor)"/>
</svg>
