<svg width="16" height="16" viewBox="0 0 16 16" fill="none" xmlns="http://www.w3.org/2000/svg">
<path fill-rule="evenodd" clip-rule="evenodd" d="M3.53362 2.05528C3.74929 2.0035 4.02436 2.00002 4.7505 2.00002H10.4987C11.207 2.00002 11.7082 2.00041 12.1 2.03242C12.4859 2.06395 12.7215 2.12366 12.9067 2.21801C13.283 2.40975 13.589 2.71571 13.7807 3.09204C13.875 3.27719 13.9348 3.51278 13.9663 3.89874C13.9983 4.29054 13.9987 4.7917 13.9987 5.50002V10.5C13.9987 11.2083 13.9983 11.7095 13.9663 12.1013C13.9348 12.4873 13.875 12.7228 13.7807 12.908C13.589 13.2843 13.283 13.5903 12.9067 13.782C12.7215 13.8764 12.4859 13.9361 12.1 13.9676C11.7082 13.9996 11.207 14 10.4987 14H4.75051H4.75048C4.02436 14 3.74928 13.9965 3.53362 13.9448C2.80232 13.7692 2.23134 13.1982 2.05577 12.4669C2.00399 12.2512 2.00051 11.9762 2.00051 11.25C2.00051 10.9739 1.77665 10.75 1.50051 10.75C1.22437 10.75 1.00051 10.9739 1.00051 11.25L1.0005 11.3248L1.0005 11.3248C1.00037 11.9503 1.00029 12.3542 1.0834 12.7004C1.34675 13.7973 2.20322 14.6538 3.30017 14.9171C3.64632 15.0002 4.05026 15.0002 4.67566 15H4.67567H4.67568L4.75048 15H4.75051H10.4987H10.5206H10.5206C11.2021 15 11.7441 15 12.1814 14.9643C12.6292 14.9277 13.011 14.8512 13.3607 14.673C13.9252 14.3854 14.3841 13.9265 14.6717 13.362C14.8499 13.0124 14.9264 12.6305 14.963 12.1827C14.9987 11.7454 14.9987 11.2034 14.9987 10.5219V10.5219V10.5V5.50002V5.47814V5.4781C14.9987 4.79659 14.9987 4.25459 14.963 3.81731C14.9264 3.36951 14.8499 2.98767 14.6717 2.63805C14.3841 2.07356 13.9252 1.61462 13.3607 1.327C13.011 1.14886 12.6292 1.07233 12.1814 1.03574C11.7441 1.00001 11.2021 1.00002 10.5206 1.00002H10.4987H4.7505L4.67571 1.00001C4.05028 0.999885 3.64633 0.999804 3.30017 1.08291C2.20322 1.34626 1.34675 2.20274 1.0834 3.29968C1.00029 3.64584 1.00037 4.04978 1.0005 4.67521L1.0005 4.67522L1.00051 4.75002C1.00051 5.02616 1.22437 5.25002 1.50051 5.25002C1.77665 5.25002 2.00051 5.02616 2.00051 4.75002C2.00051 4.02388 2.00399 3.7488 2.05577 3.53313C2.23134 2.80183 2.80232 2.23085 3.53362 2.05528ZM7.26037 4.14647C7.45564 3.9512 7.77222 3.9512 7.96748 4.14647L11.4675 7.64647C11.6627 7.84173 11.6627 8.15831 11.4675 8.35357L7.96748 11.8536C7.77222 12.0488 7.45564 12.0488 7.26037 11.8536C7.06511 11.6583 7.06511 11.3417 7.26037 11.1465L9.90682 8.50002L1.50065 8.50002C1.2245 8.50002 1.00065 8.27616 1.00065 8.00002C1.00065 7.72388 1.2245 7.50002 1.50065 7.50002L9.90682 7.50002L7.26037 4.85357C7.06511 4.65831 7.06511 4.34173 7.26037 4.14647Z" fill="currentColor"/>
</svg>
