<svg width="16" height="16" viewBox="0 0 14 13" fill="none" xmlns="http://www.w3.org/2000/svg">
<path id="Union" d="M12 0C13.1046 0 14 0.895431 14 2V11C14 12.0357 13.2128 12.887 12.2041 12.9893L12 13H2L1.7959 12.9893C0.854346 12.8938 0.1062 12.1457 0.0107422 11.2041L0 11V2C0 0.895431 0.895431 4.83192e-08 2 0H12ZM1 4.38867V11C1 11.5523 1.44772 12 2 12H12C12.5523 12 13 11.5523 13 11V4.38867H1ZM2 1C1.44772 1 1 1.44772 1 2V3.38867H13V2C13 1.44772 12.5523 1 12 1H2Z" fill="var(--fill-0, currentColor)"/>
</svg>
