<svg width="16" height="16" viewBox="0 0 8.49971 8.49892" fill="none" xmlns="http://www.w3.org/2000/svg">
<path id="Union" d="M7.64544 0.14642C7.84069 -0.0488244 8.15721 -0.0487889 8.35247 0.14642C8.54774 0.341682 8.54774 0.658189 8.35247 0.853451L4.95697 4.24896L8.35345 7.64544C8.54849 7.84065 8.54845 8.15725 8.35345 8.35247C8.15824 8.54768 7.84169 8.54758 7.64642 8.35247L4.24994 4.95599L0.853451 8.35247C0.658189 8.54774 0.341682 8.54774 0.14642 8.35247C-0.0487889 8.15721 -0.0488244 7.84069 0.14642 7.64544L3.5429 4.24896L0.147397 0.853451C-0.0478656 0.658189 -0.0478656 0.341682 0.147397 0.14642C0.342676 -0.0486311 0.659236 -0.0487718 0.854428 0.14642L4.24994 3.54193L7.64544 0.14642Z" fill="var(--fill-0, currentColor)"/>
</svg>
