<svg width="16" height="16" viewBox="0 0 9.99992 5.99993" fill="none" xmlns="http://www.w3.org/2000/svg">
<path id="Union" fill-rule="evenodd" clip-rule="evenodd" d="M6.64645 0.146447C6.45119 0.341709 6.45119 0.658216 6.64645 0.853478L8.79293 2.99996L6.64645 5.14645C6.45119 5.34171 6.45119 5.65822 6.64645 5.85348C6.84171 6.04874 7.15822 6.04874 7.35348 5.85348L9.85348 3.35348C10.0487 3.15822 10.0487 2.84171 9.85348 2.64645L7.35348 0.146447C7.15822 -0.0488155 6.84171 -0.0488155 6.64645 0.146447ZM3.35348 0.146447C3.54874 0.341709 3.54874 0.658216 3.35348 0.853478L1.20699 2.99996L3.35348 5.14645C3.54874 5.34171 3.54874 5.65822 3.35348 5.85348C3.15822 6.04874 2.84171 6.04874 2.64645 5.85348L0.146447 3.35348C-0.0488155 3.15822 -0.0488156 2.84171 0.146447 2.64645L2.64645 0.146447C2.84171 -0.048815 3.15822 -0.0488151 3.35348 0.146447Z" fill="var(--fill-0, currentColor)"/>
</svg>
