<svg width="16" height="16" viewBox="0 0 16 16" fill="none" xmlns="http://www.w3.org/2000/svg">
<path d="M11.3955 3.89648C11.5908 3.70124 11.9073 3.70128 12.1025 3.89648C12.2978 4.09175 12.2978 4.40825 12.1025 4.60352L8.70703 7.99902L12.1035 11.3955C12.2985 11.5907 12.2985 11.9073 12.1035 12.1025C11.9083 12.2977 11.5918 12.2976 11.3965 12.1025L8 8.70605L4.60352 12.1025C4.40825 12.2978 4.09175 12.2978 3.89648 12.1025C3.70128 11.9073 3.70124 11.5908 3.89648 11.3955L7.29297 7.99902L3.89746 4.60352C3.7022 4.40825 3.7022 4.09175 3.89746 3.89648C4.09274 3.70143 4.4093 3.70129 4.60449 3.89648L8 7.29199L11.3955 3.89648Z" fill="currentColor"/>
</svg>
