<svg width="16" height="16" viewBox="0 0 13.0818 14.1066" fill="none" xmlns="http://www.w3.org/2000/svg">
<path id="Union" d="M6.76562 0.0177246C7.74031 -0.0583262 8.71867 0.111207 9.61133 0.509912C10.504 0.90864 11.2831 1.52429 11.877 2.30093C12.4706 3.0775 12.861 3.99039 13.0117 4.9562C13.1624 5.92203 13.0691 6.91065 12.7402 7.8312C12.4372 8.67938 11.9407 9.44355 11.2949 10.0685V14.1066H10.2949V9.63101L10.4619 9.48257C11.0661 8.94218 11.525 8.25855 11.7979 7.49526C12.0706 6.73178 12.1484 5.91155 12.0234 5.1105C11.8984 4.30944 11.5744 3.55244 11.082 2.90835C10.5897 2.2644 9.9442 1.75368 9.2041 1.423C8.46379 1.09232 7.6521 0.951732 6.84375 1.01479C6.03538 1.07787 5.25527 1.34184 4.5752 1.78335C3.89517 2.22485 3.33679 2.83044 2.9502 3.54312C2.56373 4.25572 2.36157 5.05375 2.3623 5.8644V6.57827L2.30957 6.68374L1.3418 8.61831L2.08594 8.99038L2.3623 9.12905V11.2248C2.36242 11.4079 2.43499 11.5835 2.56445 11.713C2.69397 11.8425 2.86962 11.9151 3.05273 11.9152H5.93555V14.1066H4.93555V12.9152H3.05273C2.6044 12.9151 2.17448 12.7371 1.85742 12.4201C1.54042 12.103 1.36242 11.6731 1.3623 11.2248V9.74624L0.447266 9.28921L0 9.06655L1.3623 6.34194V5.8644C1.36156 4.8871 1.60532 3.92465 2.07129 3.06558C2.53744 2.20639 3.21139 1.47774 4.03125 0.945459C4.85119 0.41315 5.79102 0.0938175 6.76562 0.0177246ZM7.72266 3.63394C7.98331 3.69213 8.22659 3.79495 8.44531 3.93374L9.3291 3.05093L10.0361 3.75796L9.15234 4.64077C9.29156 4.85978 9.39482 5.10327 9.45312 5.3644H10.7012V6.3644H9.45215C9.3939 6.62485 9.29109 6.86752 9.15234 7.08608L10.0361 7.96987L9.3291 8.6769L8.44531 7.79312C8.22644 7.93216 7.98354 8.0356 7.72266 8.0939V9.34194H6.72266V8.0939C6.46176 8.03559 6.21884 7.93219 6 7.79312L5.11719 8.6769L4.41016 7.96987L5.29297 7.08608C5.15431 6.86753 5.05137 6.62482 4.99316 6.3644H3.74512V5.3644H4.99219C5.05044 5.1033 5.15384 4.85977 5.29297 4.64077L4.41016 3.75796L5.11719 3.05093L6 3.93374C6.2187 3.79492 6.46199 3.69214 6.72266 3.63394V2.38687H7.72266V3.63394ZM7.2041 4.57827C6.50248 4.58831 5.93698 5.15952 5.93652 5.86343C5.93652 6.57384 6.5123 7.15029 7.22266 7.15054C7.93311 7.15041 8.50977 6.57391 8.50977 5.86343C8.50931 5.15953 7.94284 4.58832 7.24121 4.57827H7.2041Z" fill="var(--fill-0, currentColor)"/>
</svg>
