<svg width="16" height="16" viewBox="0 0 16 16" fill="none" xmlns="http://www.w3.org/2000/svg">
<g clip-path="url(#clip0_5_8121)">
<path fill-rule="evenodd" clip-rule="evenodd" d="M7.50519 0.788033C7.77856 0.514665 8.22177 0.514667 8.49514 0.788033L15.2123 7.50519C15.4857 7.77856 15.4857 8.22177 15.2123 8.49514L11.8537 11.8537L8.49514 15.2123C8.22177 15.4857 7.77856 15.4857 7.50519 15.2123L4.14661 11.8537L0.788033 8.49514C0.514665 8.22177 0.514667 7.77856 0.788033 7.50519L4.14661 4.14661L7.50519 0.788033ZM8.00016 1.70727L4.85372 4.85372L1.70727 8.00016L4.85372 11.1466L8.00017 14.2931L11.1466 11.1466L14.2931 8.00016L8.00016 1.70727Z" fill="currentColor"/>
</g>
<defs>
<clipPath id="clip0_5_8121">
<rect width="16" height="16" fill="white"/>
</clipPath>
</defs>
</svg>
