<svg width="16" height="16" viewBox="0 0 14 13" fill="none" xmlns="http://www.w3.org/2000/svg">
<path id="Union" fill-rule="evenodd" clip-rule="evenodd" d="M6 13H12L12.2041 12.9893C13.2128 12.887 14 12.0357 14 11V2C14 0.895431 13.1046 0 12 0H6H2C0.895431 0 0 0.895431 0 2V11L0.0107422 11.2041C0.1062 12.1457 0.854346 12.8938 1.7959 12.9893L2 13H6ZM6 12H12C12.5523 12 13 11.5523 13 11V2C13 1.44772 12.5523 1 12 1H6V12ZM5 12V1H2C1.44772 1 1 1.44772 1 2V11C1 11.5523 1.44772 12 2 12H5Z" fill="var(--fill-0, currentColor)"/>
</svg>
