<svg width="16" height="16" viewBox="0 0 13.568 13.0009" fill="none" xmlns="http://www.w3.org/2000/svg">
<path id="Union" d="M5.9271 0.484365C6.31576 -0.161455 7.2523 -0.161455 7.64096 0.484365L9.20542 3.08397C9.34501 3.31593 9.57256 3.48182 9.83628 3.54296L12.7923 4.22753C13.5266 4.3976 13.8167 5.2882 13.3226 5.85741L11.3333 8.14843L11.2708 8.22753C11.1355 8.41951 11.0716 8.65445 11.0921 8.89062L11.3539 11.9131C11.4149 12.617 10.7537 13.1446 10.099 12.9658L9.96811 12.9209L7.17417 11.7373C6.92483 11.6317 6.64323 11.6317 6.39389 11.7373L3.59995 12.9209L3.46909 12.9658C2.81431 13.1447 2.15214 12.617 2.21323 11.9131L2.47592 8.89062C2.49642 8.65446 2.43259 8.4195 2.29721 8.22753L2.23471 8.14843L0.245456 5.85741C-0.217732 5.32382 0.00800546 4.50769 0.642917 4.26757L0.775729 4.22753L3.73178 3.54296C3.96244 3.48947 4.16532 3.35574 4.306 3.16796L4.36264 3.08397L5.9271 0.484365ZM5.21909 3.5996C4.93989 4.06348 4.4848 4.39434 3.95737 4.51659L1.00132 5.20116L2.99057 7.49315C3.3453 7.90201 3.51875 8.43728 3.47202 8.97655L3.2103 12L6.00424 10.8164C6.50278 10.6053 7.06529 10.6053 7.56382 10.8164L10.3578 12L10.096 8.97655C10.0493 8.43726 10.2227 7.90202 10.5775 7.49315L12.5667 5.20116L9.61069 4.51659C9.08325 4.39435 8.62818 4.06348 8.34897 3.5996L6.78354 0.99999L5.21909 3.5996Z" fill="var(--fill-0, currentColor)"/>
</svg>
