<svg width="16" height="16" viewBox="0 0 13.8888 13.7455" fill="none" xmlns="http://www.w3.org/2000/svg">
<path id="Union" fill-rule="evenodd" clip-rule="evenodd" d="M2.31971 1.04578L3.1606 1.32578C3.2966 1.37111 3.38816 1.49822 3.38816 1.64222C3.38816 1.78622 3.29572 1.91333 3.15972 1.95867L2.31883 2.23867L2.03794 3.08044C1.99349 3.21556 1.86549 3.308 1.72238 3.308C1.57927 3.308 1.45216 3.21644 1.40683 3.08044L1.12594 2.23867L0.285048 1.95867C0.149048 1.91333 0.0566038 1.78622 0.0566038 1.64222C0.0566038 1.49822 0.149048 1.37111 0.285048 1.32578L1.12594 1.04578L1.40683 0.204C1.49749 -0.068 1.94816 -0.068 2.03883 0.204L2.31971 1.04578ZM7.39254 0.444336C7.30824 0.273908 7.13447 0.166016 6.9443 0.166016C6.77771 0.166052 6.62347 0.248662 6.53121 0.383789L6.49606 0.444336L4.62106 4.24414L0.427697 4.85254C0.239512 4.88 0.0831764 5.01248 0.0243772 5.19336C-0.0343884 5.37433 0.0150822 5.57323 0.15133 5.70605L3.18453 8.66309L2.46871 12.8389C2.43655 13.0263 2.51322 13.2162 2.66696 13.3281C2.82092 13.44 3.02583 13.4548 3.1943 13.3662L7.0566 11.3359C7.30059 11.2074 7.3947 10.9054 7.26656 10.6611C7.13808 10.4167 6.83521 10.3227 6.59078 10.4512L3.62496 12.0098L4.21481 8.57324C4.24248 8.41117 4.18899 8.24564 4.07125 8.13086L1.57321 5.69727L5.02535 5.19629C5.18809 5.17259 5.32851 5.0703 5.40133 4.92285L6.9443 1.7959L8.48727 4.92285C8.56005 5.07029 8.70057 5.17252 8.86324 5.19629L12.3134 5.69629L10.5673 7.39941C10.3699 7.59212 10.3661 7.90876 10.5586 8.10645C10.7513 8.30418 11.0679 8.30799 11.2656 8.11523L13.7382 5.70605C13.8745 5.57321 13.923 5.37432 13.8642 5.19336C13.8054 5.0124 13.6492 4.87993 13.4609 4.85254L9.26656 4.24414L7.39254 0.444336ZM12.4186 11.1019L11.296 10.7277L10.9218 9.60501C10.8 9.24234 10.2 9.24234 10.0782 9.60501L9.70397 10.7277L8.58131 11.1019C8.39997 11.1623 8.27731 11.3321 8.27731 11.5232C8.27731 11.7143 8.39997 11.8841 8.58131 11.9446L9.70397 12.3188L10.0782 13.4415C10.1386 13.6228 10.3093 13.7455 10.5004 13.7455C10.6915 13.7455 10.8613 13.6228 10.9226 13.4415L11.2969 12.3188L12.4195 11.9446C12.6009 11.8841 12.7235 11.7143 12.7235 11.5232C12.7235 11.3321 12.6009 11.1623 12.4195 11.1019H12.4186ZM12.2776 1.99967C12.2776 2.36786 11.9792 2.66634 11.611 2.66634C11.2428 2.66634 10.9443 2.36786 10.9443 1.99967C10.9443 1.63148 11.2428 1.33301 11.611 1.33301C11.9792 1.33301 12.2776 1.63148 12.2776 1.99967Z" fill="var(--fill-0, currentColor)"/>
</svg>
