<svg width="16" height="16" viewBox="0 0 14.3146 13.6627" fill="none" xmlns="http://www.w3.org/2000/svg">
<path id="Union" d="M7.15726 0C7.35168 0 7.52832 0.112847 7.61039 0.289062L9.4766 4.30762L13.875 4.84082C14.0681 4.86432 14.23 4.99765 14.2901 5.18262C14.3501 5.3676 14.2977 5.57067 14.1553 5.70312L10.9092 8.71875L11.7627 13.0674C11.7999 13.2582 11.7228 13.4531 11.5655 13.5674C11.408 13.6817 11.1984 13.6942 11.0284 13.5996L7.15726 11.4453L3.28617 13.5996C3.11614 13.6941 2.90645 13.6817 2.74906 13.5674C2.59185 13.4531 2.51461 13.2581 2.55179 13.0674L3.40433 8.71875L0.159214 5.70312C0.0169021 5.57069 -0.0355318 5.36754 0.0244487 5.18262C0.0845377 4.99768 0.246495 4.86438 0.439488 4.84082L4.83695 4.30762L6.70414 0.289062L6.73929 0.226562C6.8307 0.0867823 6.98707 6.32247e-05 7.15726 0ZM5.62796 4.98145C5.55509 5.1381 5.40593 5.24575 5.23441 5.2666L1.62796 5.70312L4.2891 8.17676C4.41551 8.29447 4.47265 8.46914 4.43949 8.63867L3.74027 12.2031L6.9141 10.4375L6.97269 10.4092C7.11105 10.3542 7.26835 10.3641 7.40043 10.4375L10.5733 12.2031L9.87503 8.63867C9.8419 8.46919 9.89909 8.29447 10.0254 8.17676L12.6856 5.70312L9.08011 5.2666C8.90864 5.24569 8.7594 5.13808 8.68656 4.98145L7.15726 1.68652L5.62796 4.98145Z" fill="var(--fill-0, currentColor)"/>
</svg>
