<svg width="16" height="16" viewBox="0 0 13.5 12.375" fill="none" xmlns="http://www.w3.org/2000/svg">
<path id="Union" fill-rule="evenodd" clip-rule="evenodd" d="M8.5625 2.8125C8.5625 1.81148 7.75102 1 6.75 1C5.74898 1 4.9375 1.81148 4.9375 2.8125C4.9375 3.81352 5.74898 4.625 6.75 4.625C7.75102 4.625 8.5625 3.81352 8.5625 2.8125ZM6.75 5.625C5.1967 5.625 3.9375 4.3658 3.9375 2.8125C3.9375 1.2592 5.1967 0 6.75 0C8.3033 0 9.5625 1.2592 9.5625 2.8125C9.5625 4.3658 8.3033 5.625 6.75 5.625ZM12.5 9.5625C12.5 8.56148 11.6885 7.75 10.6875 7.75C9.68648 7.75 8.875 8.56148 8.875 9.5625C8.875 10.5635 9.68648 11.375 10.6875 11.375C11.6885 11.375 12.5 10.5635 12.5 9.5625ZM10.6875 12.375C9.1342 12.375 7.875 11.1158 7.875 9.5625C7.875 8.0092 9.1342 6.75 10.6875 6.75C12.2408 6.75 13.5 8.0092 13.5 9.5625C13.5 11.1158 12.2408 12.375 10.6875 12.375ZM2.8125 7.75C3.81352 7.75 4.625 8.56148 4.625 9.5625C4.625 10.5635 3.81352 11.375 2.8125 11.375C1.81148 11.375 1 10.5635 1 9.5625C1 8.56148 1.81148 7.75 2.8125 7.75ZM0 9.5625C0 11.1158 1.2592 12.375 2.8125 12.375C4.3658 12.375 5.625 11.1158 5.625 9.5625C5.625 8.0092 4.3658 6.75 2.8125 6.75C1.2592 6.75 0 8.0092 0 9.5625Z" fill="var(--fill-0, currentColor)"/>
</svg>
