<svg width="16" height="16" viewBox="0 0 12 14" fill="none" xmlns="http://www.w3.org/2000/svg">
<path id="Union" d="M7.79297 0C8.41183 0 8.99623 0.286962 9.375 0.776367L11.582 3.62695C11.8532 3.97739 12 4.40846 12 4.85156V12C12 13.1045 11.1046 14 10 14H2C0.895431 14 1.30239e-07 13.1046 0 12V2C8.04735e-09 0.895431 0.895431 0 2 0H7.79297ZM2 1C1.44772 1 1 1.44772 1 2V12C1 12.5523 1.44772 13 2 13H2.08008V8.61523C2.08008 8.48264 2.13282 8.35548 2.22656 8.26172C2.32033 8.16795 2.44747 8.11523 2.58008 8.11523H9.37988C9.65603 8.11523 9.87988 8.33909 9.87988 8.61523V13H10C10.5523 13 11 12.5523 11 12V4.85156C11 4.62999 10.9266 4.41446 10.791 4.23926L8.58398 1.3877C8.39459 1.14306 8.10235 1 7.79297 1H2ZM3.08008 13H8.87988V9.11523H3.08008V13ZM2.57812 2.03516C2.85427 2.03516 3.07812 2.25901 3.07812 2.53516V4.53516C3.07786 4.81107 2.8541 5.03516 2.57812 5.03516C2.30215 5.03516 2.07839 4.81107 2.07812 4.53516V2.53516C2.07812 2.25901 2.30198 2.03516 2.57812 2.03516ZM4.57812 2.03516C4.85427 2.03516 5.07812 2.25901 5.07812 2.53516V4.53516C5.07786 4.81107 4.8541 5.03516 4.57812 5.03516C4.30215 5.03516 4.07839 4.81107 4.07812 4.53516V2.53516C4.07812 2.25901 4.30198 2.03516 4.57812 2.03516ZM6.57812 2.03516C6.85427 2.03516 7.07812 2.25901 7.07812 2.53516V4.53516C7.07786 4.81107 6.8541 5.03516 6.57812 5.03516C6.30215 5.03516 6.07839 4.81107 6.07812 4.53516V2.53516C6.07812 2.25901 6.30198 2.03516 6.57812 2.03516Z" fill="var(--fill-0, currentColor)"/>
</svg>
