<svg width="16" height="16" viewBox="0 0 14.5 12.5068" fill="none" xmlns="http://www.w3.org/2000/svg">
<path id="Union" d="M7.18262 0C8.43066 0 9.54688 0.369141 10.3027 1.03711C10.8916 1.56445 11.2168 2.17969 11.2168 2.75977C11.2168 3.18164 10.9531 3.46289 10.5488 3.46289C10.1973 3.46289 9.96875 3.30469 9.81934 2.95312C9.42383 1.97754 8.43945 1.37109 7.21777 1.37109C5.66211 1.37109 4.66016 2.14453 4.66016 3.33984C4.66016 4.23633 5.25781 4.87793 6.38281 5.17676L7.57324 5.50195H13.75C14.1642 5.50195 14.5 5.83774 14.5 6.25195C14.5 6.66617 14.1642 7.00195 13.75 7.00195H10.7891C11.2637 7.53037 11.4893 8.18872 11.4893 9.00879C11.4893 11.1621 9.83691 12.5068 7.2002 12.5068C5.78516 12.5068 4.55469 12.1201 3.80762 11.4434C3.1748 10.8721 2.84961 10.3008 2.84961 9.77344C2.84961 9.33398 3.12207 9.03516 3.51758 9.03516C3.87793 9.03516 4.12402 9.21973 4.45801 9.7207C5.07324 10.6787 5.99609 11.1357 7.29688 11.1357C8.94922 11.1357 9.95117 10.4062 9.95117 9.17578C9.95117 8.16504 9.31836 7.52344 7.97363 7.16309L7.37598 7.00195H0.75C0.335786 7.00195 0 6.66617 0 6.25195C0 5.83774 0.335786 5.50195 0.75 5.50195H3.84766C3.32437 4.96427 3.06055 4.28266 3.06055 3.4541C3.06055 1.38867 4.72168 0 7.18262 0Z" fill="var(--fill-0, currentColor)"/>
</svg>
