<svg width="16" height="16" viewBox="0 0 13 11.667" fill="none" xmlns="http://www.w3.org/2000/svg">
<path id="Union" d="M12.5 5.33301C12.776 5.33301 12.9998 5.55702 13 5.83301C12.9997 6.10893 12.776 6.33301 12.5 6.33301H10.1387C10.6714 6.89964 11 7.6609 11 8.5C10.9997 10.2487 9.58175 11.667 7.83301 11.667H5.16699C3.41825 11.667 2.00026 10.2487 2 8.5C2 8.22386 2.22386 8 2.5 8C2.77614 8 3 8.22386 3 8.5C3.00026 9.69639 3.97054 10.667 5.16699 10.667H7.83301C9.02946 10.667 9.99974 9.69639 10 8.5C10 7.30338 9.02962 6.33301 7.83301 6.33301H0.5C0.22402 6.33301 0.000263701 6.10893 0 5.83301C0.000175928 5.55702 0.223966 5.33301 0.5 5.33301H12.5ZM7.83301 0C9.58191 0 11 1.41809 11 3.16699C10.9996 3.44276 10.7759 3.66699 10.5 3.66699C10.2241 3.66699 10.0004 3.44276 10 3.16699C10 1.97038 9.02962 1 7.83301 1H5.16699C3.97038 1 3 1.97038 3 3.16699C2.99956 3.44276 2.77587 3.66699 2.5 3.66699C2.22413 3.66699 2.00044 3.44276 2 3.16699C2 1.41809 3.41809 0 5.16699 0H7.83301Z" fill="var(--fill-0, currentColor)"/>
</svg>
