<svg width="16" height="16" viewBox="0 0 13 12.1987" fill="none" xmlns="http://www.w3.org/2000/svg">
<path id="Union" d="M9.37598 6.92146C9.58391 6.74003 9.9004 6.76148 10.082 6.96931C10.5008 7.4487 10.7373 8.06423 10.7373 8.83943C10.7372 9.83312 10.1979 10.6587 9.44727 11.2291C8.69845 11.798 7.70704 12.1422 6.69434 12.192C5.80548 12.2357 4.90225 12.0695 4.11621 11.6109C3.32387 11.1484 2.67969 10.4053 2.29395 9.35114C2.19907 9.09183 2.33249 8.80443 2.5918 8.70954C2.85102 8.61495 3.13857 8.74819 3.2334 9.00739C3.54362 9.85517 4.03993 10.409 4.62012 10.7476C5.20662 11.0898 5.90919 11.2292 6.64551 11.1929L6.95508 11.1666C7.67059 11.0789 8.34083 10.8145 8.84277 10.4332C9.41444 9.99874 9.73719 9.44204 9.7373 8.83943C9.7373 8.28556 9.57544 7.9096 9.3291 7.62751C9.14738 7.41958 9.16805 7.10317 9.37598 6.92146ZM6.49219 0.000558245C8.12189 -0.0255294 9.68375 0.863415 10.4219 2.52107C10.534 2.77298 10.4205 3.06858 10.1689 3.18122C9.91677 3.29348 9.62119 3.18037 9.50879 2.92829C8.94146 1.65388 7.75684 0.9798 6.50879 0.999582H6.50781C5.71093 1.01229 4.96415 1.24787 4.43066 1.63044C3.90395 2.00841 3.60365 2.51165 3.60352 3.09821C3.60352 3.75161 3.84297 4.15815 4.21973 4.46247C4.61523 4.78183 5.1811 5.00176 5.86914 5.19978H12.5C12.5345 5.19978 12.5681 5.20291 12.6006 5.20954C12.8285 5.25616 13 5.45815 13 5.69978C12.9998 5.97569 12.7759 6.19967 12.5 6.19978H0.5C0.223974 6.19978 0.000188543 5.97576 0 5.69978C0 5.42363 0.223858 5.19978 0.5 5.19978H3.54688C2.96749 4.71263 2.60352 4.03613 2.60352 3.09821C2.60366 2.12306 3.11822 1.34138 3.84766 0.817941C4.57075 0.299355 5.52327 0.0159557 6.49219 0.000558245Z" fill="var(--fill-0, currentColor)"/>
</svg>
