<svg width="16" height="16" viewBox="0 0 14.5 14.5" fill="none" xmlns="http://www.w3.org/2000/svg">
<path id="Union" fill-rule="evenodd" clip-rule="evenodd" d="M7.25 1C10.7018 1 13.5 3.79822 13.5 7.25C13.5 10.7018 10.7018 13.5 7.25 13.5C3.79822 13.5 1 10.7018 1 7.25C1 3.79822 3.79822 1 7.25 1ZM0 7.25C0 11.2541 3.24594 14.5 7.25 14.5C11.2541 14.5 14.5 11.2541 14.5 7.25C14.5 3.24594 11.2541 0 7.25 0C3.24594 0 0 3.24594 0 7.25ZM10.4736 4.53101C10.2607 4.35541 9.94524 4.38556 9.76953 4.59839L6.31934 8.78198L4.97852 7.04858C4.80962 6.83031 4.49573 6.79009 4.27734 6.95874C4.05895 7.12773 4.01851 7.44249 4.1875 7.66089L5.91211 9.8894C6.00513 10.0096 6.14783 10.0814 6.2998 10.0837C6.45181 10.0861 6.59665 10.0184 6.69336 9.90112L10.541 5.23511C10.7166 5.02214 10.6864 4.70672 10.4736 4.53101Z" fill="var(--fill-0, currentColor)"/>
</svg>
