<svg width="16" height="16" viewBox="0 0 12 14.5" fill="none" xmlns="http://www.w3.org/2000/svg">
<path id="Union" d="M8.15332 0.0078125C8.74155 0.0675353 9.22723 0.467822 9.41504 1.00781C9.44268 1.00307 9.471 1 9.5 1C10.8807 1 12 2.11929 12 3.5V12C12 13.3807 10.8807 14.5 9.5 14.5H2.5C1.11929 14.5 0 13.3807 0 12V3.5C1.77173e-07 2.11929 1.11929 1 2.5 1H2.58691C2.79297 0.41766 3.34707 1.26943e-08 4 0H8L8.15332 0.0078125ZM9.41504 1.99121C9.21138 2.57796 8.65608 3 8 3H4C3.34707 3 2.79297 2.58234 2.58691 2H2.5C1.67157 2 1 2.67157 1 3.5V12C1 12.8284 1.67157 13.5 2.5 13.5H9.5C10.3284 13.5 11 12.8284 11 12V3.5C11 2.67157 10.3284 2 9.5 2C9.47095 2 9.44274 1.99597 9.41504 1.99121ZM8.75 7.75C9.02614 7.75 9.25 7.97386 9.25 8.25C9.25 8.52614 9.02614 8.75 8.75 8.75H3.25C2.97386 8.75 2.75 8.52614 2.75 8.25C2.75 7.97386 2.97386 7.75 3.25 7.75H8.75ZM8.75 4.75C9.02614 4.75 9.25 4.97386 9.25 5.25C9.25 5.52614 9.02614 5.75 8.75 5.75H3.25C2.97386 5.75 2.75 5.52614 2.75 5.25C2.75 4.97386 2.97386 4.75 3.25 4.75H8.75ZM4 1C3.72386 1 3.5 1.22386 3.5 1.5C3.5 1.77614 3.72386 2 4 2H8C8.27614 2 8.5 1.77614 8.5 1.5C8.5 1.25829 8.32855 1.05629 8.10059 1.00977L8 1H4Z" fill="var(--fill-0, currentColor)"/>
</svg>
