<svg width="16" height="16" viewBox="0 0 14.5 14.5" fill="none" xmlns="http://www.w3.org/2000/svg">
<path id="Union" fill-rule="evenodd" clip-rule="evenodd" d="M13.4803 7.75H11.2193C10.9936 9.55941 9.55945 10.9935 7.75 11.219V13.4803C10.8031 13.2386 13.2386 10.8031 13.4803 7.75ZM6.75 13.4803V11.219C4.94076 10.9933 3.50681 9.55926 3.28118 7.75H1.01971C1.26137 10.8031 3.69695 13.2386 6.75 13.4803ZM13.4803 6.75C13.2386 3.69695 10.8031 1.26137 7.75 1.01971V3.28087C9.55948 3.5064 10.9937 4.94054 11.2193 6.75H13.4803ZM6.75 1.01971V3.28092C4.94073 3.50664 3.50676 4.94069 3.28116 6.75H1.01971C1.26137 3.69695 3.69695 1.26137 6.75 1.01971ZM0 7.25C0 11.2541 3.24594 14.5 7.25 14.5C11.2541 14.5 14.5 11.2541 14.5 7.25C14.5 3.24594 11.2541 0 7.25 0C3.24594 0 0 3.24594 0 7.25ZM7.25022 4.24995C8.90708 4.24995 10.2502 5.59309 10.2502 7.24995C10.2502 8.9068 8.90708 10.2499 7.25022 10.2499C5.59337 10.2499 4.25022 8.9068 4.25022 7.24995C4.25022 5.59309 5.59337 4.24995 7.25022 4.24995Z" fill="var(--fill-0, currentColor)"/>
</svg>
