<svg width="16" height="16" viewBox="0 0 11.9497 10" fill="none" xmlns="http://www.w3.org/2000/svg">
<path id="Union" d="M2.97446 0C3.2506 0 3.47446 0.223858 3.47446 0.5V8.29297L5.09653 6.67188C5.2918 6.47672 5.60833 6.47665 5.80356 6.67188C5.99844 6.86713 5.99859 7.18375 5.80356 7.37891L3.33285 9.84766C3.30786 9.87338 3.28083 9.8971 3.25082 9.91699C3.24658 9.9198 3.24145 9.92116 3.23715 9.92383C3.18707 9.95488 3.13192 9.97845 3.07211 9.99023C3.00766 10.003 2.94123 10.0031 2.8768 9.99023C2.77799 9.97056 2.68944 9.92211 2.62094 9.85352L0.14633 7.37891C-0.0488543 7.18372 -0.0486991 6.86716 0.14633 6.67188C0.341601 6.47672 0.658136 6.47665 0.853361 6.67188L2.47446 8.29297V0.5C2.47446 0.22402 2.69854 0.000263572 2.97446 0ZM8.97543 0C9.11548 0.000133851 9.24204 0.0584677 9.33285 0.151367L11.8036 2.62109C11.9985 2.81625 11.9984 3.13289 11.8036 3.32812C11.6083 3.52333 11.2918 3.52323 11.0965 3.32812L9.47543 1.70703V9.5C9.47543 9.77598 9.25135 9.99974 8.97543 10C8.69951 9.99974 8.47543 9.77598 8.47543 9.5V1.70605L6.85336 3.32812C6.65815 3.52333 6.34161 3.52323 6.14633 3.32812C5.95137 3.13284 5.95117 2.81625 6.14633 2.62109L8.62094 0.146484C8.63029 0.13713 8.64133 0.129552 8.65121 0.121094C8.73855 0.0461812 8.85137 0.000118507 8.97543 0Z" fill="var(--fill-0, currentColor)"/>
</svg>
