<svg width="16" height="16" viewBox="0 0 16 16" fill="none" xmlns="http://www.w3.org/2000/svg">
<path fill-rule="evenodd" clip-rule="evenodd" d="M13 4.99936C13 5.2755 12.7761 5.49936 12.5 5.49936L4.70703 5.49936L6.32812 7.12143C6.52328 7.3167 6.52335 7.63323 6.32812 7.82846C6.13287 8.02334 5.81625 8.02349 5.62109 7.82846L3.15234 5.35776C3.12662 5.33276 3.1029 5.30573 3.08301 5.27572C3.0802 5.27149 3.07884 5.26636 3.07617 5.26205C3.04512 5.21197 3.02155 5.15682 3.00977 5.09701C2.99704 5.03257 2.99695 4.96613 3.00977 4.9017C3.02944 4.80289 3.07789 4.71434 3.14648 4.64584L5.62109 2.17123C5.81628 1.97605 6.13284 1.9762 6.32812 2.17123C6.52328 2.3665 6.52335 2.68304 6.32812 2.87826L4.70703 4.49936L12.5 4.49936C12.776 4.49936 12.9997 4.72344 13 4.99936ZM13 11.0003C12.9999 11.1404 12.9415 11.2669 12.8486 11.3578L10.3789 13.8285C10.1838 14.0234 9.86711 14.0233 9.67187 13.8285C9.47667 13.6333 9.47677 13.3167 9.67187 13.1214L11.293 11.5003L3.5 11.5003C3.22402 11.5003 3.00026 11.2763 3 11.0003C3.00026 10.7244 3.22402 10.5003 3.5 10.5003L11.2939 10.5003L9.67187 8.87826C9.47667 8.68305 9.47677 8.36651 9.67187 8.17123C9.86716 7.97627 10.1837 7.97607 10.3789 8.17123L12.8535 10.6458C12.8629 10.6552 12.8704 10.6662 12.8789 10.6761C12.9538 10.7635 12.9999 10.8763 13 11.0003Z" fill="currentColor"/>
</svg>
