<svg width="16" height="16" viewBox="0 0 16 16" fill="none" xmlns="http://www.w3.org/2000/svg">
<path fill-rule="evenodd" clip-rule="evenodd" d="M2.625 2.10215C2.625 1.95808 2.79569 1.70215 3.19318 1.70215H12.8068C13.2043 1.70215 13.375 1.95808 13.375 2.10215V13.8021C13.375 13.9462 13.2043 14.2021 12.8068 14.2021H3.19318C2.79569 14.2021 2.625 13.9462 2.625 13.8021V2.10215ZM3.19318 0.702148C2.41079 0.702148 1.625 1.2521 1.625 2.10215V13.8021C1.625 14.6522 2.41079 15.2021 3.19318 15.2021H12.8068C13.5892 15.2021 14.375 14.6522 14.375 13.8021V2.10215C14.375 1.2521 13.5892 0.702148 12.8068 0.702148H3.19318ZM7.19313 12.5165C6.91698 12.5165 6.69313 12.7404 6.69313 13.0165C6.69313 13.2926 6.91698 13.5165 7.19313 13.5165H8.69313C8.96927 13.5165 9.19313 13.2926 9.19313 13.0165C9.19313 12.7404 8.96927 12.5165 8.69313 12.5165H7.19313Z" fill="currentColor"/>
</svg>
