<svg width="16" height="16" viewBox="0 0 12.75 14.5" fill="none" xmlns="http://www.w3.org/2000/svg">
<path id="Union" fill-rule="evenodd" clip-rule="evenodd" d="M11.1816 1C11.5791 1 11.75 1.25632 11.75 1.40039V13.0996C11.75 13.2437 11.5791 13.5 11.1816 13.5H1.56836C1.22024 13.5 1.0457 13.3037 1.00781 13.1582L1 13.0996V1.40039C1 1.25632 1.17087 1 1.56836 1H11.1816ZM11.1816 14.5C11.964 14.5 12.75 13.9497 12.75 13.0996V1.40039C12.75 0.550344 11.964 0 11.1816 0H1.56836C0.785971 0 0 0.550344 0 1.40039V13.0996L0.00878906 13.2559C0.0979982 14.0167 0.834879 14.5 1.56836 14.5H11.1816ZM7.56813 12.3144C7.56813 12.0382 7.34427 11.8144 7.06813 11.8144H5.56813C5.29198 11.8144 5.06813 12.0382 5.06813 12.3144C5.06813 12.5905 5.29198 12.8144 5.56813 12.8144H7.06813C7.34427 12.8144 7.56813 12.5905 7.56813 12.3144Z" fill="var(--fill-0, currentColor)"/>
</svg>
