<svg width="16" height="16" viewBox="0 0 14 14" fill="none" xmlns="http://www.w3.org/2000/svg">
<path id="Union" d="M11.5 0C12.8807 0 14 1.11929 14 2.5V11.5C14 12.7943 13.0164 13.8592 11.7559 13.9873L11.5 14H2.5L2.24414 13.9873C1.06772 13.8677 0.132274 12.9323 0.0126953 11.7559L0 11.5V2.5C0 1.11929 1.11929 3.22128e-08 2.5 0H11.5ZM4.75 13H11.5C12.3284 13 13 12.3284 13 11.5V9.75H4.75V13ZM2.5 1C1.67157 1 1 1.67157 1 2.5V11.5C1 12.3284 1.67157 13 2.5 13H3.75V1H2.5ZM4.75 8.75H13V5.25H4.75V8.75ZM4.75 4.25H13V2.5C13 1.67157 12.3284 1 11.5 1H4.75V4.25Z" fill="var(--fill-0, currentColor)"/>
</svg>
