<svg width="16" height="16" viewBox="0 0 13.8436 9" fill="none" xmlns="http://www.w3.org/2000/svg">
<path id="Union" d="M11.8436 0C12.9481 0 13.8436 0.895431 13.8436 2V7C13.8436 8.10457 12.9481 9 11.8436 9H4.1668L4.00664 8.99121C3.69067 8.95731 3.39324 8.82404 3.15801 8.61035L3.04571 8.49609L0.378715 5.49609C-0.0945414 4.96334 -0.124346 4.1776 0.289848 3.61328L0.378715 3.50391L3.04571 0.503906C3.29465 0.22385 3.63785 0.0483594 4.00664 0.00878906L4.1668 0H11.8436ZM4.1668 1C4.02403 1.00004 3.88763 1.06126 3.79278 1.16797L1.12579 4.16797C0.957819 4.35729 0.957819 4.64271 1.12579 4.83203L3.79278 7.83203C3.88763 7.93874 4.02403 7.99996 4.1668 8H11.8436C12.3958 8 12.8436 7.55228 12.8436 7V2C12.8436 1.44772 12.3958 1 11.8436 1H4.1668ZM3.98125 3.5C4.53348 3.50007 4.98125 3.94776 4.98125 4.5C4.98125 5.05224 4.53348 5.49993 3.98125 5.5C3.42897 5.5 2.98126 5.05228 2.98125 4.5C2.98125 3.94772 3.42897 3.5 3.98125 3.5Z" fill="var(--fill-0, currentColor)"/>
</svg>
