<svg width="16" height="16" viewBox="0 0 14 8" fill="none" xmlns="http://www.w3.org/2000/svg">
<path id="Union" fill-rule="evenodd" clip-rule="evenodd" d="M12.7275 8C13.4302 7.99986 13.9999 7.43024 14 6.72754L14 1.27246L13.9932 1.14258C13.928 0.500907 13.3864 0.000135625 12.7275 0H4L3.79395 0.00488287C1.68056 0.112115 0 1.85996 0 4C0 6.20914 1.79086 8 4 8L12.7275 8ZM1 4C1 2.34315 2.34315 1 4 1L12.7275 1C12.878 1.00014 12.9999 1.12205 13 1.27246L13 6.72754C12.9999 6.87795 12.878 6.99986 12.7275 7L4 7C2.34315 7 1 5.65685 1 4ZM3.75 2.75C3.05964 2.75 2.5 3.30964 2.5 4C2.5 4.69036 3.05964 5.25 3.75 5.25C4.44036 5.25 5 4.69036 5 4C5 3.30964 4.44036 2.75 3.75 2.75Z" fill="var(--fill-0, currentColor)"/>
</svg>
