<svg width="16" height="16" viewBox="0 0 16 16" fill="none" xmlns="http://www.w3.org/2000/svg">
<path fill-rule="evenodd" clip-rule="evenodd" d="M9.9287 14.171L3.75759 7.99985C2.58601 6.82828 2.58601 4.92879 3.75759 3.75721C4.92916 2.58564 6.82865 2.58564 8.00023 3.75721L14.1713 9.92833C14.2778 10.0348 14.2778 10.2075 14.1713 10.314L10.3144 14.171C10.2079 14.2775 10.0352 14.2775 9.9287 14.171ZM11.0215 14.8781C10.5245 15.3751 9.71862 15.3751 9.22159 14.8781L3.05048 8.70696C1.48838 7.14486 1.48838 4.6122 3.05048 3.05011C4.61258 1.48801 7.14524 1.48801 8.70733 3.05011L14.8784 9.22122C15.3755 9.71825 15.3755 10.5241 14.8784 11.0211L11.0215 14.8781ZM6.58601 4.81787C6.09786 4.32972 5.3064 4.32972 4.81825 4.81787C4.33009 5.30603 4.33009 6.09749 4.81825 6.58564C5.3064 7.0738 6.09786 7.0738 6.58601 6.58564C7.07417 6.09749 7.07417 5.30603 6.58601 4.81787Z" fill="currentColor"/>
</svg>
