<svg width="16" height="16" viewBox="0 0 16 16" fill="none" xmlns="http://www.w3.org/2000/svg">
<path d="M6.51123 1.41406C7.9313 1.09322 9.41768 1.23961 10.7476 1.83203C11.0007 1.94483 11.1149 2.24189 11.0024 2.49512C10.8896 2.74848 10.5917 2.86289 10.3384 2.75C9.20642 2.2458 7.94163 2.12048 6.73291 2.39355C5.52403 2.66673 4.43562 3.32351 3.63037 4.26562C2.82512 5.20776 2.34576 6.38539 2.26416 7.62207C2.18269 8.85842 2.50306 10.0884 3.17725 11.1279C3.85175 12.1675 4.84492 12.962 6.00732 13.3916C7.16992 13.8211 8.44085 13.8631 9.62939 13.5117C10.8179 13.1603 11.8609 12.4341 12.603 11.4414C13.345 10.4489 13.7467 9.24312 13.7476 8.00391V7.42871C13.7477 7.15156 13.9724 6.92691 14.2495 6.92676C14.5268 6.92676 14.7513 7.15146 14.7515 7.42871V8.00391L14.7456 8.27637C14.6899 9.63601 14.225 10.9497 13.4077 12.043C12.5359 13.2092 11.3099 14.0627 9.91357 14.4756C8.51754 14.8882 7.02522 14.8384 5.65967 14.334C4.29398 13.8294 3.12789 12.8962 2.33545 11.6748C1.54309 10.4534 1.16641 9.00844 1.26221 7.55566C1.35807 6.10295 1.92083 4.72003 2.8667 3.61328C3.81263 2.50655 5.09116 1.73501 6.51123 1.41406ZM13.894 2.64551C14.0899 2.44947 14.4077 2.44908 14.604 2.64453C14.8001 2.84046 14.8007 3.15824 14.605 3.35449L8.35498 9.61133L8.27881 9.67383C8.19683 9.72864 8.09958 9.75876 7.99951 9.75879C7.86641 9.75872 7.73817 9.70545 7.64404 9.61133L5.76904 7.73633C5.57348 7.54025 5.57336 7.22237 5.76904 7.02637C5.96508 6.83033 6.28382 6.83051 6.47998 7.02637L7.99854 8.54492L13.894 2.64551Z" fill="currentColor"/>
</svg>
