<svg width="16" height="16" viewBox="0 0 13.5039 13.5045" fill="none" xmlns="http://www.w3.org/2000/svg">
<path id="Union" d="M5.26365 0.166108C6.68372 -0.154739 8.1701 -0.00834072 9.49998 0.584077C9.75314 0.69688 9.86731 0.993931 9.75486 1.24716C9.64197 1.50053 9.34416 1.61494 9.0908 1.50205C7.95884 0.997848 6.69405 0.872527 5.48533 1.1456C4.27645 1.41878 3.18804 2.07555 2.38279 3.01767C1.57754 3.95981 1.09818 5.13744 1.01658 6.37412C0.93511 7.61047 1.25548 8.84044 1.92967 9.87998C2.60417 10.9196 3.59734 11.7141 4.75974 12.1436C5.92234 12.5732 7.19327 12.6151 8.38181 12.2638C9.57032 11.9123 10.6134 11.1861 11.3554 10.1935C12.0974 9.20091 12.4991 7.99516 12.5 6.75595V6.18076C12.5001 5.9036 12.7248 5.67895 13.0019 5.6788C13.2792 5.6788 13.5037 5.90351 13.5039 6.18076V6.75595C13.503 8.21197 13.0319 9.62883 12.1601 10.795C11.2883 11.9612 10.0623 12.8148 8.66599 13.2276C7.26995 13.6402 5.77764 13.5905 4.41209 13.086C3.0464 12.5814 1.88031 11.6483 1.08787 10.4269C0.295514 9.20542 -0.0811688 7.76049 0.0146267 6.30771C0.110492 4.855 0.673247 3.47207 1.61912 2.36533C2.56505 1.2586 3.84358 0.487061 5.26365 0.166108ZM12.6465 1.39755C12.8423 1.20152 13.1601 1.20113 13.3564 1.39658C13.5526 1.59251 13.5531 1.91028 13.3574 2.10654L7.1074 8.36337C7.01323 8.45764 6.88518 8.5108 6.75193 8.51083C6.61883 8.51076 6.49059 8.4575 6.39646 8.36337L4.52146 6.48837C4.3259 6.2923 4.32578 5.97441 4.52146 5.77841C4.7175 5.58237 5.03624 5.58256 5.2324 5.77841L6.75095 7.29697L12.6465 1.39755Z" fill="var(--fill-0, currentColor)"/>
</svg>
