<svg width="16" height="16" viewBox="0 0 15.0007 11.9388" fill="none" xmlns="http://www.w3.org/2000/svg">
<path id="Union" fill-rule="evenodd" clip-rule="evenodd" d="M7.76498 0.0516345C7.56728 -0.0290963 7.34099 -0.014963 7.15267 0.0926501L3.75228 2.03503L0.555991 3.86218C0.086073 4.13096 0.0860726 4.80825 0.555991 5.07703L3.75228 6.90417L7.15267 8.84656C7.36787 8.96953 7.63278 8.96953 7.84798 8.84656L11.2484 6.90417L14.4447 5.07703C14.9146 4.80825 14.9146 4.13096 14.4447 3.86218L7.84798 0.0926501L7.76498 0.0516345ZM1.50814 4.4696L4.24837 2.90417L7.50033 1.0448L13.4915 4.46863L10.7523 6.03503L7.50033 7.89343L4.24837 6.03503L1.50814 4.4696ZM14.9349 7.22156C14.7979 6.98187 14.492 6.8982 14.2523 7.03503L10.7523 9.03503L7.50033 10.8934L4.24837 9.03503L0.748373 7.03503C0.508646 6.8982 0.202721 6.98187 0.0657563 7.22156C-0.07108 7.46128 0.0125911 7.76721 0.25228 7.90417L3.75228 9.90417L7.15267 11.8466C7.36787 11.9695 7.63278 11.9695 7.84798 11.8466L11.2484 9.90417L14.7484 7.90417C14.9881 7.76721 15.0717 7.46128 14.9349 7.22156Z" fill="var(--fill-0, currentColor)"/>
</svg>
