<svg width="16" height="16" viewBox="0 0 14 13" fill="none" xmlns="http://www.w3.org/2000/svg">
<path id="Union" d="M12 0C13.1046 0 14 0.895451 14 2V11C14 12.0356 13.2128 12.887 12.2041 12.9893L12 13H2L1.7959 12.9893C0.854349 12.8938 0.106199 12.1457 0.0107422 11.2041L0 11V2C2.44491e-05 0.895451 0.895446 4.83185e-08 2 0H12ZM2 1C1.44773 1 1.00002 1.44774 1 2V11C1 11.5523 1.44772 12 2 12H4.5V1H2ZM5.5 6V12H12C12.5523 12 13 11.5523 13 11V6H5.5ZM5.5 5H13V2C13 1.44774 12.5523 1 12 1H5.5V5Z" fill="var(--fill-0, currentColor)"/>
</svg>
