<svg width="16" height="16" viewBox="0 0 13.9525 14" fill="none" xmlns="http://www.w3.org/2000/svg">
<path id="Union" d="M6.18457 0C6.46052 0.000223663 6.68457 0.223996 6.68457 0.5C6.68457 0.776004 6.46052 0.999776 6.18457 1H2.5C1.67157 1 1 1.67157 1 2.5V11.5C1 12.3284 1.67157 13 2.5 13H10.5C11.3284 13 12 12.3284 12 11.5V9.03125C12 8.75511 12.2239 8.53125 12.5 8.53125C12.7761 8.53125 13 8.75511 13 9.03125V11.5C13 12.8807 11.8807 14 10.5 14H2.5C1.11929 14 0 12.8807 0 11.5V2.5C0 1.11929 1.11929 1.05389e-07 2.5 0H6.18457ZM6.03906 3.91504C6.06546 3.86627 6.13595 3.866 6.16211 3.91504C7.02923 5.54036 8.36003 6.87116 9.98535 7.73828C10.0341 7.76454 10.0339 7.83495 9.98535 7.86133L9.8916 7.91309C8.30917 8.78089 7.01242 10.0909 6.16211 11.6846L6.13574 11.7119C6.1036 11.7306 6.05881 11.7216 6.03906 11.6846C5.22612 10.1608 4.00526 8.89594 2.5166 8.0293L2.21582 7.86133C2.16665 7.8351 2.16665 7.76451 2.21582 7.73828C3.84093 6.87115 5.17203 5.54021 6.03906 3.91504ZM6.10059 5.68066C5.50153 6.48654 4.78729 7.2007 3.98145 7.7998C4.78718 8.39879 5.50156 9.11227 6.10059 9.91797C6.69944 9.11257 7.41333 8.39862 8.21875 7.7998C7.41301 7.20075 6.69959 6.48644 6.10059 5.68066ZM10.9609 0.0703125C10.9777 0.0399077 11.0223 0.0399077 11.0391 0.0703125C11.7094 1.28823 12.7118 2.29061 13.9297 2.96094C13.9601 2.97768 13.9601 3.02234 13.9297 3.03906L13.8672 3.07422C12.6775 3.74422 11.6979 4.73271 11.0391 5.92969L11.0215 5.94727C11.0014 5.95836 10.9734 5.9523 10.9609 5.92969C10.3324 4.78773 9.41222 3.83491 8.2959 3.16797L8.07031 3.03906C8.03992 3.02234 8.03994 2.97768 8.07031 2.96094C9.28823 2.29061 10.2906 1.28823 10.9609 0.0703125ZM11 1.79395C10.6403 2.23614 10.2361 2.64026 9.79395 3C10.2359 3.35959 10.6404 3.76311 11 4.20508C11.3595 3.76331 11.7633 3.35947 12.2051 3C11.7631 2.64038 11.3596 2.23594 11 1.79395Z" fill="var(--fill-0, currentColor)"/>
</svg>
