<svg width="16" height="16" viewBox="0 0 10 12" fill="none" xmlns="http://www.w3.org/2000/svg">
<path id="Union" d="M9 0C9.55228 2.01331e-09 10 0.447715 10 1V2C10 2.27614 9.77614 2.5 9.5 2.5C9.22386 2.5 9 2.27614 9 2V1H5.5V11H6.5C6.77614 11 7 11.2239 7 11.5C7 11.7761 6.77614 12 6.5 12H3.5C3.22386 12 3 11.7761 3 11.5C3 11.2239 3.22386 11 3.5 11H4.5V1H1V2C1 2.27614 0.776142 2.5 0.5 2.5C0.223858 2.5 0 2.27614 0 2V1C8.05326e-09 0.447715 0.447716 1.28851e-07 1 0H9Z" fill="var(--fill-0, currentColor)"/>
</svg>
