<svg width="16" height="16" viewBox="0 0 14.0023 14.334" fill="none" xmlns="http://www.w3.org/2000/svg">
<path id="Union" d="M7.0752 0.0117188C8.1562 0.121452 8.99983 1.03461 9 2.14453V4.50098C9.00026 4.5928 9.07511 4.66797 9.16699 4.66797H11.502L11.6445 4.67188C13.106 4.75343 14.1984 6.0808 13.9727 7.54785L13.2549 12.2148C13.0669 13.434 12.0178 14.334 10.7842 14.334H1.83301C0.820798 14.3338 0.000264194 13.5132 0 12.501V7.83398C0.000175647 6.82172 0.820744 6.00115 1.83301 6.00098H3.40039C3.46593 6.00086 3.5259 5.96212 3.55273 5.90234L5.89844 0.623047C6.06668 0.244723 6.44238 0 6.85645 0L7.0752 0.0117188ZM1.83301 7.00098C1.37303 7.00115 1.00018 7.37401 1 7.83398V12.501C1.00026 12.9609 1.37308 13.3338 1.83301 13.334H3.33301V7.00098H1.83301ZM6.85645 1.00098C6.83757 1.00098 6.82025 1.0121 6.8125 1.0293L4.46582 6.30859C4.43029 6.38832 4.38378 6.46114 4.33301 6.5293V13.334H10.7842C11.5243 13.334 12.1538 12.7939 12.2666 12.0625L12.9844 7.39551C13.1153 6.5438 12.5059 5.77018 11.6719 5.67676L11.502 5.66797H9.16699C8.52282 5.66797 8.00026 5.14508 8 4.50098V2.14453C7.99983 1.55262 7.55005 1.06568 6.97363 1.00684L6.85645 1.00098Z" fill="var(--fill-0, currentColor)"/>
</svg>
