<svg width="16" height="16" viewBox="0 0 16 16" fill="none" xmlns="http://www.w3.org/2000/svg">
<path fill-rule="evenodd" clip-rule="evenodd" d="M8.0752 0.844727C9.1562 0.95446 9.99983 1.86762 10 2.97754V5.33398C10.0003 5.42581 10.0751 5.50098 10.167 5.50098H12.502L12.6445 5.50488C14.106 5.58643 15.1984 6.9138 14.9727 8.38086L14.2549 13.0479C14.0669 14.267 13.0178 15.167 11.7842 15.167H2.83301C1.8208 15.1668 1.00026 14.3462 1 13.334V8.66699C1.00018 7.65473 1.82074 6.83416 2.83301 6.83398H4.40039C4.46593 6.83386 4.5259 6.79512 4.55273 6.73535L6.89844 1.45605C7.06668 1.07773 7.44238 0.833008 7.85645 0.833008L8.0752 0.844727ZM2.83301 7.83398C2.37303 7.83416 2.00018 8.20701 2 8.66699V13.334C2.00026 13.7939 2.37308 14.1668 2.83301 14.167H4.33301V7.83398H2.83301ZM7.85645 1.83398C7.83757 1.83398 7.82025 1.84511 7.8125 1.8623L5.46582 7.1416C5.43029 7.22133 5.38378 7.29415 5.33301 7.3623V14.167H11.7842C12.5243 14.167 13.1538 13.6269 13.2666 12.8955L13.9844 8.22852C14.1153 7.37681 13.5059 6.60318 12.6719 6.50977L12.502 6.50098H10.167C9.52282 6.50098 9.00026 5.97809 9 5.33398V2.97754C8.99983 2.38563 8.55005 1.89869 7.97363 1.83984L7.85645 1.83398Z" fill="currentColor"/>
</svg>
