<svg width="16" height="16" viewBox="0 0 11.9206 9.58084" fill="none" xmlns="http://www.w3.org/2000/svg">
<path id="Union" d="M11.1755 0.0643094C11.4162 -0.0710332 11.7208 0.0142007 11.8562 0.254739C11.9916 0.49542 11.9065 0.800025 11.6658 0.935403C8.54613 2.69015 6.09749 5.43098 4.70288 8.7274L4.47046 9.27525C4.40379 9.43285 4.26131 9.54588 4.09253 9.57407C3.92364 9.6022 3.75166 9.54149 3.63745 9.41392L1.58765 7.12388V7.1229L0.129642 5.51646C-0.0557695 5.31198 -0.0404832 4.99593 0.163822 4.8104C0.368362 4.62493 0.684373 4.64009 0.869877 4.84458L2.32984 6.45493L2.33179 6.45689L3.85913 8.16197C5.35201 4.74038 7.91883 1.8962 11.1755 0.0643094Z" fill="var(--fill-0, currentColor)"/>
</svg>
