<svg width="16" height="16" viewBox="0 0 13.0029 13.0033" fill="none" xmlns="http://www.w3.org/2000/svg">
<path id="Union" d="M9.88184 0.00217273C10.1565 0.0280689 10.3586 0.272328 10.333 0.547095L10.0732 3.3342H12.5029C12.779 3.33421 13.0029 3.55811 13.0029 3.8342C13.0028 4.11026 12.779 4.33419 12.5029 4.3342H4.5791L4.09766 8.66916H8.42578L8.67285 6.44553C8.70371 6.17158 8.95054 5.97385 9.22461 6.00413C9.49897 6.03461 9.69634 6.28252 9.66602 6.55686L9.43164 8.66916H12.5029C12.779 8.66918 13.0028 8.8931 13.0029 9.16916C13.0028 9.44523 12.779 9.66915 12.5029 9.66916H9.32031L9 12.5578C8.96951 12.8323 8.72172 13.0297 8.44727 12.9992C8.17305 12.9685 7.9754 12.7218 8.00586 12.4475L8.31445 9.66916H3.98633L3.66504 12.5588C3.63433 12.833 3.38653 13.0306 3.1123 13.0002C2.83807 12.9695 2.64042 12.7218 2.6709 12.4475L2.97949 9.66916H0.5C0.223912 9.66916 8.854e-05 9.44523 0 9.16916C8.29617e-05 8.89309 0.223909 8.66916 0.5 8.66916H3.09082L3.57227 4.3342H0.5C0.223912 4.3342 8.854e-05 4.11027 0 3.8342C4.40619e-05 3.5581 0.223885 3.3342 0.5 3.3342H3.68359L4.00488 0.444556C4.03563 0.170449 4.28245 -0.0272005 4.55664 0.00314929C4.83097 0.0337405 5.02947 0.281524 4.99902 0.555884L4.69043 3.3342H9.06836L9.33789 0.453345C9.3638 0.178728 9.60716 -0.0233371 9.88184 0.00217273Z" fill="var(--fill-0, currentColor)"/>
</svg>
