<svg width="16" height="16" viewBox="0 0 16 16" fill="none" xmlns="http://www.w3.org/2000/svg">
<path d="M13.2158 3.27393C13.4564 3.13858 13.7611 3.22382 13.8965 3.46436C14.0319 3.70504 13.9467 4.00964 13.7061 4.14502C10.5864 5.89976 8.13777 8.64059 6.74316 11.937L6.51074 12.4849C6.44407 12.6425 6.30159 12.7555 6.13281 12.7837C5.96392 12.8118 5.79194 12.7511 5.67773 12.6235L3.62793 10.3335V10.3325L2.16992 8.72607C1.98451 8.5216 1.9998 8.20555 2.2041 8.02002C2.40864 7.83455 2.72465 7.8497 2.91016 8.0542L4.37012 9.66455L4.37207 9.6665L5.89941 11.3716C7.39229 7.95 9.95911 5.10582 13.2158 3.27393Z" fill="currentColor"/>
</svg>
