<svg width="16" height="16" viewBox="0 0 14.0049 10.7539" fill="none" xmlns="http://www.w3.org/2000/svg">
<path id="Union" fill-rule="evenodd" clip-rule="evenodd" d="M12.6055 1.00977C12.8334 1.05635 13.0049 1.25834 13.0049 1.5V2.91211C11.9923 3.2908 11.2705 4.26629 11.2705 5.41113C11.2706 6.55568 11.9926 7.52942 13.0049 7.9082V9.25391C13.0047 9.52984 12.7808 9.75383 12.5049 9.75391H5.00244V8.78906C5.00223 8.5131 4.77845 8.28906 4.50244 8.28906C4.22643 8.28906 4.00265 8.5131 4.00244 8.78906V9.75391H1.5C1.22397 9.75391 1.00019 9.52989 1 9.25391V7.9082C2.01219 7.52939 2.73425 6.55563 2.73438 5.41113C2.73438 4.26548 2.01243 3.29067 1 2.91211V1.5C1 1.22386 1.22386 1 1.5 1H4.00244V1.96484C4.00265 2.24081 4.22643 2.46484 4.50244 2.46484C4.77845 2.46484 5.00223 2.24081 5.00244 1.96484V1H12.5049L12.6055 1.00977ZM13.6045 3.77637C13.8372 3.72895 14.0047 3.52462 14.0049 3.28711V1.5C14.0049 0.723385 13.4145 0.0846755 12.6582 0.0078125L12.5049 0H1.5C0.671573 0 0 0.671573 0 1.5V3.28711C0.000178053 3.52467 0.167568 3.729 0.400391 3.77637C1.16152 3.93113 1.73438 4.60476 1.73438 5.41113C1.73423 6.21662 1.16129 6.89019 0.400391 7.04492C0.167419 7.09229 0 7.29742 0 7.53516V9.25391C0.000189686 10.0822 0.671691 10.7539 1.5 10.7539H12.5049C13.3331 10.7538 14.0047 10.0821 14.0049 9.25391V7.53516C14.0049 7.29745 13.8374 7.09233 13.6045 7.04492C12.8436 6.8902 12.2706 6.21663 12.2705 5.41113C12.2705 4.60551 12.8435 3.9311 13.6045 3.77637ZM4.00244 3.91406V6.83984C4.00265 7.11581 4.22643 7.33984 4.50244 7.33984C4.77845 7.33984 5.00223 7.11581 5.00244 6.83984V3.91406C5.00223 3.6381 4.77845 3.41406 4.50244 3.41406C4.22643 3.41406 4.00265 3.6381 4.00244 3.91406Z" fill="var(--fill-0, currentColor)"/>
</svg>
