<svg width="16" height="16" viewBox="0 0 15 12" fill="none" xmlns="http://www.w3.org/2000/svg">
<path id="Union" fill-rule="evenodd" clip-rule="evenodd" d="M2 5H5L5.2041 4.98926C6.21278 4.887 7 4.03565 7 3V2C7 0.895431 6.10457 0 5 0H2C0.895431 0 0 0.895431 0 2V3L0.0107422 3.2041C0.1062 4.14565 0.854346 4.8938 1.7959 4.98926L2 5ZM5 4H2C1.44772 4 1 3.55228 1 3V2C1 1.44772 1.44772 1 2 1H5L5.10254 1.00488C5.60667 1.05621 6 1.48232 6 2V3C6 3.55228 5.55228 4 5 4ZM2 12H5L5.2041 11.9893C6.21278 11.887 7 11.0357 7 10V9C7 7.89543 6.10457 7 5 7H2C0.895431 7 0 7.89543 0 9V10L0.0107422 10.2041C0.1062 11.1457 0.854346 11.8938 1.7959 11.9893L2 12ZM5 11H2C1.44772 11 1 10.5523 1 10V9C1 8.44772 1.44772 8 2 8H5L5.10254 8.00488C5.60667 8.05621 6 8.48232 6 9V10C6 10.5523 5.55228 11 5 11ZM13 5H10L9.7959 4.98926C8.85435 4.8938 8.1062 4.14565 8.01074 3.2041L8 3V2C8 0.895431 8.89543 0 10 0H13C14.1046 0 15 0.895431 15 2V3C15 4.03565 14.2128 4.887 13.2041 4.98926L13 5ZM10 4H13C13.5523 4 14 3.55228 14 3V2C14 1.48232 13.6067 1.05621 13.1025 1.00488L13 1H10C9.44771 1 9 1.44772 9 2V3C9 3.55228 9.44772 4 10 4ZM10 12H13L13.2041 11.9893C14.2128 11.887 15 11.0357 15 10V9C15 7.89543 14.1046 7 13 7H10C8.89543 7 8 7.89543 8 9V10L8.01074 10.2041C8.1062 11.1457 8.85435 11.8938 9.7959 11.9893L10 12ZM13 11H10C9.44772 11 9 10.5523 9 10V9C9 8.44772 9.44771 8 10 8H13L13.1025 8.00488C13.6067 8.05621 14 8.48232 14 9V10C14 10.5523 13.5523 11 13 11Z" fill="var(--fill-0, currentColor)"/>
</svg>
