<svg width="16" height="16" viewBox="0 0 14.5 14.5" fill="none" xmlns="http://www.w3.org/2000/svg">
<g id="Union">
<path id="Vector" fill-rule="evenodd" clip-rule="evenodd" d="M7.25 1C10.7018 1 13.5 3.79822 13.5 7.25C13.5 10.7018 10.7018 13.5 7.25 13.5C3.79822 13.5 1 10.7018 1 7.25C1 3.79822 3.79822 1 7.25 1ZM0 7.25C0 11.2541 3.24594 14.5 7.25 14.5C11.2541 14.5 14.5 11.2541 14.5 7.25C14.5 3.24594 11.2541 0 7.25 0C3.24594 0 0 3.24594 0 7.25ZM7.25 1.75C6.97386 1.75 6.75 1.97386 6.75 2.25C6.75 2.52614 6.97386 2.75 7.25 2.75C7.52614 2.75 7.75 2.52614 7.75 2.25C7.75 1.97386 7.52614 1.75 7.25 1.75ZM6.75 12.25C6.75 11.9739 6.97386 11.75 7.25 11.75C7.52614 11.75 7.75 11.9739 7.75 12.25C7.75 12.5261 7.52614 12.75 7.25 12.75C6.97386 12.75 6.75 12.5261 6.75 12.25ZM12.75 7.25C12.75 6.97386 12.5261 6.75 12.25 6.75C11.9739 6.75 11.75 6.97386 11.75 7.25C11.75 7.52614 11.9739 7.75 12.25 7.75C12.5261 7.75 12.75 7.52614 12.75 7.25ZM2.25 6.75C2.52614 6.75 2.75 6.97386 2.75 7.25C2.75 7.52614 2.52614 7.75 2.25 7.75C1.97386 7.75 1.75 7.52614 1.75 7.25C1.75 6.97386 1.97386 6.75 2.25 6.75ZM4.10355 4.10355C3.90829 4.29882 3.59171 4.29882 3.39645 4.10355C3.20118 3.90829 3.20118 3.59171 3.39645 3.39645C3.59171 3.20118 3.90829 3.20118 4.10355 3.39645C4.29882 3.59171 4.29882 3.90829 4.10355 4.10355ZM3.39645 11.1036C3.59171 11.2988 3.90829 11.2988 4.10355 11.1036C4.29882 10.9083 4.29882 10.5917 4.10355 10.3964C3.90829 10.2012 3.59171 10.2012 3.39645 10.3964C3.20118 10.5917 3.20118 10.9083 3.39645 11.1036ZM11.1036 4.10355C10.9083 4.29882 10.5917 4.29882 10.3964 4.10355C10.2012 3.90829 10.2012 3.59171 10.3964 3.39645C10.5917 3.20118 10.9083 3.20118 11.1036 3.39645C11.2988 3.59171 11.2988 3.90829 11.1036 4.10355ZM10.3964 11.1036C10.5917 11.2988 10.9083 11.2988 11.1036 11.1036C11.2988 10.9083 11.2988 10.5917 11.1036 10.3964C10.9083 10.2012 10.5917 10.2012 10.3964 10.3964C10.2012 10.5917 10.2012 10.9083 10.3964 11.1036ZM11.2496 7.24467C11.2525 7.52061 11.0312 7.74697 10.7552 7.75014L7.25554 7.79019L6.75007 7.79571V3.75056C6.75007 3.47442 6.97388 3.25062 7.25002 3.25062C7.52615 3.25063 7.74997 3.47443 7.74997 3.75056V6.78477L10.7441 6.75024C11.0202 6.74709 11.2464 6.96855 11.2496 7.24467Z" fill="var(--fill-0, currentColor)"/>
<circle id="Vector_2" cx="7.25" cy="7.25" r="1.25" fill="var(--fill-0, white)" stroke="var(--stroke-0, currentColor)"/>
</g>
</svg>
