<svg width="16" height="16" viewBox="0 0 14.5 14.5" fill="none" xmlns="http://www.w3.org/2000/svg">
<path id="Union" fill-rule="evenodd" clip-rule="evenodd" d="M7.25 1C10.7018 1 13.5 3.79822 13.5 7.25C13.5 10.7018 10.7018 13.5 7.25 13.5C3.79822 13.5 1 10.7018 1 7.25C1 3.79822 3.79822 1 7.25 1ZM0 7.25C0 11.2541 3.24594 14.5 7.25 14.5C11.2541 14.5 14.5 11.2541 14.5 7.25C14.5 3.24594 11.2541 0 7.25 0C3.24594 0 0 3.24594 0 7.25ZM11.7498 7.25021C11.7497 7.52628 11.5259 7.75016 11.2498 7.75015H7.50023C7.0861 7.75015 6.75044 7.41433 6.75031 7.00023L6.74962 3.24994C6.74965 2.97397 6.97364 2.75023 7.24957 2.75C7.52569 2.74999 7.74948 2.97382 7.74951 3.24994V6.75095L11.2498 6.75026C11.526 6.75026 11.7498 6.97406 11.7498 7.25021Z" fill="var(--fill-0, currentColor)"/>
</svg>
