<svg width="16" height="16" viewBox="0 0 14 11.4004" fill="none" xmlns="http://www.w3.org/2000/svg">
<path id="Union" d="M6.56641 10.4004C6.84255 10.4004 7.06641 10.6242 7.06641 10.9004C7.06622 11.1764 6.84244 11.4004 6.56641 11.4004H0.5C0.224061 11.4003 0.000182765 11.1763 0 10.9004C0 10.6243 0.223948 10.4005 0.5 10.4004H6.56641ZM13.5 6.93359C13.776 6.93381 14 7.15758 14 7.43359C13.9999 7.70949 13.7759 7.93338 13.5 7.93359H0.5C0.224029 7.93349 0.000130271 7.70956 0 7.43359C0 7.15752 0.223948 6.9337 0.5 6.93359H13.5ZM2.56934 0.15918C2.78682 0.226687 2.96526 0.39328 3.04297 0.616211L4.2168 3.99121C4.31837 4.28359 4.10155 4.58887 3.79199 4.58887H3.77441C3.57659 4.58868 3.40241 4.45879 3.34473 4.26953L3.11133 3.50586H1.53613L1.30273 4.27051C1.24483 4.45961 1.06986 4.58887 0.87207 4.58887H0.857422C0.548037 4.58872 0.331139 4.28352 0.432617 3.99121L1.59961 0.629883C1.70432 0.328304 1.98841 0.126163 2.30762 0.125977H2.56934V0.15918ZM13.5 3.4668C13.7759 3.46705 14 3.69081 14 3.9668C13.9999 4.24272 13.7759 4.46654 13.5 4.4668H6.56641C6.29038 4.46672 6.06648 4.24282 6.06641 3.9668C6.06641 3.6907 6.29033 3.46688 6.56641 3.4668H13.5ZM1.75 2.80762H2.89844L2.35254 1.0166H2.29688L1.75 2.80762ZM13.5 0C13.7759 0.000254376 13.9999 0.224105 14 0.5C14 0.775985 13.7759 0.999746 13.5 1H6.56641C6.29033 0.99992 6.06641 0.776093 6.06641 0.5C6.06651 0.223998 6.2904 8.03356e-05 6.56641 0H13.5Z" fill="var(--fill-0, currentColor)"/>
</svg>
