<svg width="16" height="16" viewBox="0 0 13.3738 10.377" fill="none" xmlns="http://www.w3.org/2000/svg">
<g id="Union">
<path d="M1.36426 8.00293H0L2.86816 0H4.37744L7.23486 8.00293H5.88135L3.65234 1.50928H3.58789L1.36426 8.00293ZM1.53076 4.86621H5.7041V5.92432H1.53076V4.86621Z" fill="var(--fill-0, currentColor)"/>
<path d="M10.6346 10.377C10.1512 10.377 9.734 10.3125 9.38309 10.1836C9.03575 10.0583 8.75288 9.88818 8.53445 9.67334C8.31961 9.4585 8.16206 9.22396 8.0618 8.96973L9.14139 8.58838C9.20584 8.70296 9.29715 8.82292 9.41531 8.94824C9.53348 9.07357 9.69103 9.1792 9.88797 9.26514C10.0885 9.35107 10.3427 9.39404 10.6507 9.39404C11.0839 9.39404 11.4402 9.2902 11.7195 9.08252C12.0024 8.87484 12.1438 8.54004 12.1438 8.07812V6.91797H12.0633C11.9952 7.04688 11.895 7.1901 11.7625 7.34766C11.63 7.50163 11.4474 7.63411 11.2146 7.74512C10.9855 7.85612 10.6901 7.91162 10.3284 7.91162C9.85932 7.91162 9.4368 7.80062 9.06082 7.57861C8.68484 7.35661 8.38585 7.02897 8.16385 6.5957C7.94184 6.15885 7.83084 5.62174 7.83084 4.98438C7.83084 4.33984 7.94005 3.7902 8.15848 3.33545C8.38048 2.87712 8.67947 2.52799 9.05545 2.28809C9.43501 2.0446 9.86469 1.92285 10.3445 1.92285C10.7097 1.92285 11.0069 1.98372 11.2361 2.10547C11.4653 2.22721 11.6461 2.37044 11.7786 2.53516C11.9111 2.69987 12.0131 2.84847 12.0847 2.98096H12.1653V1.99805H13.3738V8.12646C13.3738 8.63851 13.2539 9.06104 13.0139 9.39404C12.774 9.72705 12.4464 9.97412 12.031 10.1353C11.6193 10.2964 11.1538 10.377 10.6346 10.377ZM10.6292 6.90186C11.1197 6.90186 11.4957 6.73177 11.7571 6.3916C12.0221 6.04785 12.1546 5.5734 12.1546 4.96826C12.1546 4.56722 12.0955 4.2181 11.9773 3.9209C11.8627 3.62012 11.6927 3.38558 11.4671 3.21729C11.2415 3.04899 10.9622 2.96484 10.6292 2.96484C10.2926 2.96484 10.0097 3.05436 9.78055 3.2334C9.55138 3.40885 9.3795 3.64697 9.26492 3.94775C9.15034 4.24854 9.09305 4.5887 9.09305 4.96826C9.09305 5.3514 9.15034 5.68799 9.26492 5.97803C9.38309 6.26807 9.55675 6.49544 9.78592 6.66016C10.0151 6.82129 10.2962 6.90186 10.6292 6.90186Z" fill="var(--fill-0, currentColor)"/>
</g>
</svg>
