<svg width="16" height="16" viewBox="0 0 14.0049 14.0049" fill="none" xmlns="http://www.w3.org/2000/svg">
<path id="Union" d="M10.0371 13.0049C10.313 13.0051 10.5371 13.2289 10.5371 13.5049C10.537 13.7808 10.313 14.0046 10.0371 14.0049H3.96777C3.69172 14.0048 3.46786 13.7809 3.46777 13.5049C3.46777 13.2288 3.69167 13.0049 3.96777 13.0049H10.0371ZM11.7715 10.4043C12.0473 10.4047 12.2715 10.6284 12.2715 10.9043C12.2712 11.18 12.0471 11.4039 11.7715 11.4043H2.23438C1.95839 11.4043 1.73463 11.1802 1.73438 10.9043C1.73438 10.6282 1.95823 10.4043 2.23438 10.4043H11.7715ZM13.5049 7.80273C13.781 7.80281 14.0049 8.02664 14.0049 8.30273C14.0049 8.57881 13.7809 8.80266 13.5049 8.80273H0.5C0.223873 8.80273 2.52531e-05 8.57886 0 8.30273C0 8.02659 0.223858 7.80273 0.5 7.80273H13.5049ZM7.00293 0C10.3913 0.000312144 13.1377 2.74732 13.1377 6.13574C13.1375 6.41165 12.9136 6.63562 12.6377 6.63574C12.3618 6.6356 12.1379 6.41163 12.1377 6.13574C12.1377 3.29961 9.83899 1.00031 7.00293 1C4.1666 1 1.86719 3.29942 1.86719 6.13574C1.867 6.41165 1.64311 6.63562 1.36719 6.63574C1.09116 6.63574 0.86738 6.41172 0.867188 6.13574C0.867188 2.74713 3.61432 0 7.00293 0Z" fill="var(--fill-0, currentColor)"/>
</svg>
