<svg width="16" height="16" viewBox="0 0 14.5 14.5" fill="none" xmlns="http://www.w3.org/2000/svg">
<path id="Union" d="M13.5 7.25C13.5 3.79822 10.7018 1 7.25 1C3.79822 1 1 3.79822 1 7.25C1 10.7018 3.79822 13.5 7.25 13.5V14.5L6.87695 14.4902C3.16983 14.3023 0.19767 11.3302 0.00976562 7.62305L0 7.25C0 3.24594 3.24594 0 7.25 0L7.62305 0.00976562C11.4537 0.203933 14.5 3.37106 14.5 7.25L14.4902 7.62305C14.2961 11.4537 11.1289 14.5 7.25 14.5V13.5C10.7018 13.5 13.5 10.7018 13.5 7.25Z" fill="var(--fill-0, currentColor)"/>
</svg>
