<svg width="16" height="16" viewBox="0 0 13.9998 13.9998" fill="none" xmlns="http://www.w3.org/2000/svg">
<path id="Union" fill-rule="evenodd" clip-rule="evenodd" d="M6.5 1.7998V0.5C6.5 0.223858 6.72386 0 7 0C7.27614 0 7.5 0.223858 7.5 0.5V1.7998C7.5 2.07595 7.27614 2.2998 7 2.2998C6.72386 2.2998 6.5 2.07595 6.5 1.7998ZM11.5865 1.64648C11.7817 1.45122 12.0983 1.45122 12.2935 1.64648C12.4888 1.84175 12.4888 2.15825 12.2935 2.35352L11.2935 3.35352C11.0983 3.54878 10.7817 3.54878 10.5865 3.35352C10.3912 3.15825 10.3912 2.84175 10.5865 2.64648L11.5865 1.64648ZM13.9998 7C13.9998 6.72386 13.7759 6.5 13.4998 6.5H12.2C11.9239 6.5 11.7 6.72386 11.7 7C11.7 7.27614 11.9239 7.5 12.2 7.5H13.4998C13.7759 7.5 13.9998 7.27614 13.9998 7ZM10.5866 10.5861C10.7819 10.3909 11.0984 10.3909 11.2937 10.5861L12.2937 11.5861C12.4889 11.7814 12.4889 12.0979 12.2937 12.2932C12.0984 12.4884 11.7819 12.4884 11.5866 12.2932L10.5866 11.2932C10.3914 11.0979 10.3914 10.7814 10.5866 10.5861ZM6.5 12.2V13.4998C6.5 13.7759 6.72386 13.9998 7 13.9998C7.27614 13.9998 7.5 13.7759 7.5 13.4998V12.2C7.5 11.9239 7.27614 11.7 7 11.7C6.72386 11.7 6.5 11.9239 6.5 12.2ZM2.64668 10.5861C2.84194 10.3909 3.15845 10.3909 3.35371 10.5861C3.54897 10.7814 3.54897 11.0979 3.35371 11.2932L2.35371 12.2932C2.15845 12.4884 1.84194 12.4884 1.64668 12.2932C1.45142 12.0979 1.45142 11.7814 1.64668 11.5861L2.64668 10.5861ZM2.2998 7C2.2998 6.72386 2.07595 6.5 1.7998 6.5H0.5C0.223858 6.5 0 6.72386 0 7C0 7.27614 0.223858 7.5 0.5 7.5H1.7998C2.07595 7.5 2.2998 7.27614 2.2998 7ZM1.70654 1.70648C1.90181 1.51122 2.21831 1.51122 2.41357 1.70648L3.41357 2.70648C3.60884 2.90175 3.60884 3.21825 3.41357 3.41352C3.21831 3.60878 2.90181 3.60878 2.70654 3.41352L1.70654 2.41352C1.51128 2.21825 1.51128 1.90175 1.70654 1.70648ZM7.0002 4.49995C8.38091 4.49995 9.5002 5.61924 9.5002 6.99995C9.5002 8.38066 8.38091 9.49995 7.0002 9.49995C5.61948 9.49995 4.5002 8.38066 4.5002 6.99995C4.5002 5.61924 5.61948 4.49995 7.0002 4.49995ZM7.0002 10.5C8.93319 10.5 10.5002 8.93295 10.5002 6.99995C10.5002 5.06695 8.93319 3.49995 7.0002 3.49995C5.0672 3.49995 3.5002 5.06695 3.5002 6.99995C3.5002 8.93295 5.0672 10.5 7.0002 10.5Z" fill="var(--fill-0, currentColor)"/>
</svg>
