<svg width="16" height="16" viewBox="0 0 14.3337 13.0002" fill="none" xmlns="http://www.w3.org/2000/svg">
<path id="Union" d="M9.89209 4.81934C10.07 4.7571 10.2639 4.75717 10.4419 4.81934L10.5298 4.85547L10.5981 4.89355C10.7484 4.98853 10.8386 5.1249 10.8921 5.21484C10.9581 5.32584 11.0265 5.4721 11.0991 5.62402L13.0093 9.61719L14.2847 12.2842C14.4038 12.5333 14.2984 12.832 14.0493 12.9512C13.8002 13.0701 13.5014 12.9649 13.3823 12.7158L12.2427 10.333H8.09131L6.95166 12.7158C6.8325 12.9649 6.53377 13.0703 6.28467 12.9512C6.03559 12.832 5.93019 12.5333 6.04932 12.2842L7.32471 9.61719L9.23486 5.62402C9.30752 5.47211 9.37684 5.32584 9.44287 5.21484C9.5041 5.11196 9.61307 4.94824 9.80518 4.85547L9.89209 4.81934ZM4.50049 0C4.77663 1.28852e-07 5.00049 0.223858 5.00049 0.5V1.33301H8.50049C8.77652 1.33301 9.00031 1.55702 9.00049 1.83301C9.00049 2.10915 8.77663 2.33301 8.50049 2.33301H7.24951C6.90739 4.03946 6.2438 5.60608 5.30908 6.96973C5.55443 7.13075 5.79919 7.26938 6.03857 7.37695C6.29046 7.49012 6.40272 7.7862 6.28955 8.03809C6.17642 8.28988 5.88122 8.40203 5.62939 8.28906C5.3199 8.15001 5.01087 7.9739 4.70947 7.77246C3.637 9.08681 2.29038 10.1694 0.723144 10.9482C0.475873 11.0711 0.175122 10.9699 0.0522457 10.7227C-0.0705765 10.4754 0.0305819 10.1746 0.277832 10.0518C1.70831 9.34085 2.93547 8.35702 3.91455 7.16406C3.12048 6.47231 2.42115 5.59751 2.03955 4.69434C1.93234 4.44005 2.05191 4.14649 2.30615 4.03906C2.56044 3.93185 2.854 4.05141 2.96143 4.30566C3.26369 5.02087 3.83638 5.75562 4.51514 6.35938C5.32019 5.17236 5.90463 3.81493 6.22705 2.33301H0.500488C0.224354 2.333 0.00048789 2.10914 0.00048789 1.83301C0.00066375 1.55702 0.224462 1.33302 0.500488 1.33301H4.00049V0.5C4.00049 0.223864 4.22435 9.53474e-06 4.50049 0ZM10.1372 6.05469L8.56982 9.33301H11.7642L10.1968 6.05469C10.1866 6.03348 10.1756 6.0141 10.1665 5.99512C10.1575 6.01399 10.1473 6.03362 10.1372 6.05469Z" fill="var(--fill-0, currentColor)"/>
</svg>
