<svg width="16" height="16" viewBox="0 0 16 16" fill="none" xmlns="http://www.w3.org/2000/svg">
<path fill-rule="evenodd" clip-rule="evenodd" d="M12.6426 1.00101C13.9443 1.00116 14.999 2.05681 14.9991 3.35843C14.9989 4.66003 13.9442 5.71473 12.6426 5.71488C11.341 5.71475 10.2854 4.66004 10.2852 3.35843C10.2853 3.06269 10.342 2.7804 10.4415 2.51957C9.39581 2.05358 8.23518 1.89511 7.09675 2.0684C5.79702 2.26633 4.5981 2.88554 3.68464 3.83109C2.77113 4.77672 2.19397 5.99688 2.04108 7.30277C1.88836 8.60847 2.16865 9.92871 2.83894 11.0596C3.50928 12.1902 4.53244 13.0698 5.75104 13.5625C6.96978 14.0551 8.3172 14.1344 9.58503 13.7871C10.853 13.4397 11.972 12.6848 12.7696 11.6397C13.5671 10.5945 13.9997 9.31573 14.0001 8.00101C14.0003 7.72508 14.2241 7.50199 14.5001 7.50199C14.7761 7.50219 15.0001 7.72593 15.0001 8.00199C14.9996 9.53571 14.4949 11.0268 13.5645 12.2461C12.634 13.4655 11.329 14.3457 9.84968 14.751C8.37035 15.1563 6.7981 15.0651 5.37604 14.4903C3.95422 13.9154 2.76067 12.8886 1.97858 11.5694C1.19657 10.25 0.869726 8.70989 1.04792 7.18656C1.22628 5.66302 1.90013 4.23999 2.96589 3.13675C4.03162 2.03358 5.42996 1.31102 6.94636 1.08011C8.32769 0.869848 9.73681 1.07881 10.9942 1.67386C11.4193 1.25785 12.001 1.00108 12.6426 1.00101ZM8.00007 4.71586C9.81452 4.71608 11.2852 6.18748 11.2852 8.00199C11.2849 9.81618 9.81429 11.2869 8.00007 11.2871C6.18576 11.287 4.71431 9.81624 4.71394 8.00199C4.71394 6.18742 6.18553 4.71598 8.00007 4.71586ZM8.00007 5.71586C6.73781 5.71598 5.71394 6.7397 5.71394 8.00199C5.71431 9.26396 6.73804 10.287 8.00007 10.2871C9.26201 10.2869 10.2849 9.2639 10.2852 8.00199C10.2852 6.73977 9.26224 5.71608 8.00007 5.71586ZM12.6426 2.00101C11.8933 2.00114 11.2853 2.60908 11.2852 3.35843C11.2854 4.10776 11.8933 4.71475 12.6426 4.71488C13.392 4.71473 13.9989 4.10774 13.9991 3.35843C13.999 2.6091 13.392 2.00116 12.6426 2.00101Z" fill="currentColor"/>
</svg>
