<svg width="16" height="16" viewBox="0 0 13.9996 13.9996" fill="none" xmlns="http://www.w3.org/2000/svg">
<path id="Union" d="M11.6422 0.000528117C12.9437 0.000679685 13.9984 1.05638 13.9986 2.35795C13.9985 3.65954 12.9438 4.71424 11.6422 4.7144C10.3406 4.71419 9.2849 3.65951 9.28475 2.35795C9.28479 2.06222 9.3415 1.7799 9.441 1.51908C8.39533 1.05313 7.23468 0.894602 6.09627 1.06791C4.79654 1.26584 3.59762 1.88505 2.68416 2.83061C1.77066 3.77624 1.19349 4.99641 1.04061 6.30229C0.887853 7.60801 1.16815 8.9282 1.83846 10.0591C2.5088 11.1898 3.53191 12.0693 4.75057 12.5621C5.96934 13.0547 7.31666 13.1339 8.58455 12.7867C9.85254 12.4393 10.9715 11.6844 11.7691 10.6392C12.5169 9.65922 12.9441 8.47433 12.9947 7.24662L12.9996 7.00053C12.9999 6.7246 13.2236 6.5015 13.4996 6.5015C13.7757 6.50162 13.9997 6.7254 13.9996 7.0015C13.9991 8.53526 13.4945 10.0263 12.564 11.2456C11.6335 12.465 10.3285 13.3452 8.8492 13.7505C7.36982 14.1558 5.79766 14.0646 4.37557 13.4898C2.95369 12.9149 1.76019 11.8882 0.978105 10.5689C0.19608 9.24947 -0.130776 7.70943 0.0474413 6.18607C0.225805 4.66255 0.899659 3.23951 1.96541 2.13627C3.03114 1.03309 4.42948 0.310535 5.94588 0.0796297C7.32719 -0.130659 8.73633 0.0783643 9.99373 0.67338C10.4188 0.257388 11.0006 0.000630245 11.6422 0.000528117ZM6.99959 3.71537C8.81405 3.7156 10.2847 5.187 10.2847 7.0015C10.2844 8.81575 8.81385 10.2864 6.99959 10.2867C5.18531 10.2865 3.71377 8.81576 3.71346 7.0015C3.71346 5.18698 5.18512 3.71558 6.99959 3.71537ZM6.99959 4.71537C5.7374 4.71558 4.71346 5.73927 4.71346 7.0015C4.71377 8.26347 5.7376 9.28645 6.99959 9.28666C8.26157 9.28643 9.28443 8.26346 9.28475 7.0015C9.28475 5.73928 8.26176 4.7156 6.99959 4.71537ZM11.6422 1.00053C10.8929 1.00074 10.2849 1.6087 10.2847 2.35795C10.2849 3.10722 10.8929 3.71419 11.6422 3.7144C12.3915 3.71424 12.9985 3.10726 12.9986 2.35795C12.9984 1.60866 12.3915 1.00068 11.6422 1.00053Z" fill="var(--fill-0, currentColor)"/>
</svg>
