<svg width="16" height="16" viewBox="0 0 13 13" fill="none" xmlns="http://www.w3.org/2000/svg">
<path id="Union" d="M11 0C12.1046 0 13 0.895431 13 2V11C13 11.1334 12.9859 11.2636 12.9609 11.3896C12.9565 11.412 12.9505 11.4339 12.9453 11.4561C12.9356 11.4976 12.9253 11.5386 12.9131 11.5791C12.9061 11.6022 12.8974 11.6247 12.8896 11.6475C12.8768 11.6849 12.8646 11.7224 12.8496 11.7588C12.8406 11.7807 12.83 11.8018 12.8203 11.8232C12.8043 11.8585 12.7884 11.8936 12.7705 11.9277C12.7577 11.9522 12.7443 11.9762 12.7305 12C12.7135 12.0293 12.6952 12.0576 12.6768 12.0859C12.6615 12.1094 12.646 12.1325 12.6299 12.1553C12.6087 12.1851 12.5872 12.2146 12.5645 12.2432C12.5483 12.2634 12.5315 12.2831 12.5146 12.3027C12.4906 12.3307 12.466 12.3582 12.4404 12.3848C12.4235 12.4024 12.4062 12.4195 12.3887 12.4365C12.3618 12.4625 12.334 12.4873 12.3057 12.5117C12.2854 12.5293 12.2651 12.5467 12.2441 12.5635C12.2175 12.5847 12.1898 12.6042 12.1621 12.624C12.1391 12.6405 12.1165 12.6573 12.0928 12.6729C12.0665 12.6901 12.0398 12.7067 12.0127 12.7227C11.9853 12.7388 11.9579 12.7547 11.9297 12.7695C11.9016 12.7843 11.8726 12.7971 11.8438 12.8105C11.815 12.824 11.7863 12.8375 11.7568 12.8496C11.7305 12.8604 11.7037 12.8702 11.6768 12.8799C11.6448 12.8914 11.6128 12.9032 11.5801 12.9131C11.5336 12.9271 11.4863 12.9385 11.4385 12.9492C11.4257 12.9521 11.4133 12.9564 11.4004 12.959C11.336 12.9721 11.2706 12.9825 11.2041 12.9893L11 13H2L1.7959 12.9893C1.73646 12.9832 1.6779 12.974 1.62012 12.9629C1.58577 12.9563 1.55225 12.9468 1.51855 12.9385C1.49341 12.9323 1.46812 12.9271 1.44336 12.9199C1.41896 12.9129 1.3951 12.9044 1.37109 12.8965C1.33628 12.8849 1.30152 12.8737 1.26758 12.8604C1.24977 12.8533 1.2324 12.8454 1.21484 12.8379C1.17884 12.8225 1.14328 12.8065 1.1084 12.7891C1.08725 12.7785 1.06661 12.7671 1.0459 12.7559C1.01523 12.7392 0.98475 12.7223 0.955078 12.7041C0.931189 12.6894 0.907977 12.6738 0.884766 12.6582C0.861664 12.6426 0.838808 12.6268 0.816406 12.6104C0.787041 12.5887 0.758579 12.5661 0.730469 12.543C0.716554 12.5315 0.703049 12.5196 0.689453 12.5078C0.662813 12.4847 0.636702 12.461 0.611328 12.4365C0.59311 12.4189 0.575157 12.4011 0.557617 12.3828C0.533828 12.358 0.510778 12.3326 0.488281 12.3066C0.475432 12.2918 0.46261 12.277 0.450195 12.2617C0.427024 12.2333 0.404421 12.2045 0.382812 12.1748C0.378448 12.1688 0.37344 12.1633 0.369141 12.1572L0.302734 12.0576C0.299333 12.0522 0.296319 12.0465 0.292969 12.041C0.274817 12.0113 0.257829 11.9809 0.241211 11.9502C0.228738 11.9272 0.215685 11.9044 0.204102 11.8809C0.187677 11.8474 0.17376 11.8128 0.15918 11.7783C0.150725 11.7584 0.140631 11.739 0.132812 11.7188C0.122367 11.6916 0.114751 11.6634 0.105469 11.6357C0.0383968 11.4358 0 11.2225 0 11V2C0 0.895431 0.895431 4.0266e-08 2 0H11ZM1 11C1 11.5523 1.44772 12 2 12H11C11.5523 12 12 11.5523 12 11V8H9.32812C8.91618 9.16461 7.80709 10 6.5 10C5.19291 10 4.08382 9.16461 3.67188 8H1V11ZM2 1C1.44772 1 1 1.44772 1 2V7H4C4.27614 7 4.4934 7.22751 4.56152 7.49512C4.78182 8.36024 5.5663 9 6.5 9C7.4337 9 8.21818 8.36024 8.43848 7.49512C8.5066 7.22751 8.72386 7 9 7H12V2C12 1.44772 11.5523 1 11 1H2ZM6.22461 2.08203C6.41869 1.95387 6.68265 1.97562 6.85352 2.14648L8.85352 4.14648C9.04878 4.34175 9.04878 4.65825 8.85352 4.85352C8.65825 5.04878 8.34175 5.04878 8.14648 4.85352L7 3.70703V7.5C7 7.77614 6.77614 8 6.5 8C6.22386 8 6 7.77614 6 7.5V3.70703L4.85352 4.85352C4.65825 5.04878 4.34175 5.04878 4.14648 4.85352C3.95122 4.65825 3.95122 4.34175 4.14648 4.14648L6.14648 2.14648L6.22461 2.08203Z" fill="var(--fill-0, currentColor)"/>
</svg>
