<svg width="16" height="16" viewBox="0 0 13.3496 12.4746" fill="none" xmlns="http://www.w3.org/2000/svg">
<path id="Union" d="M12.6748 11.125C13.0476 11.125 13.3496 11.427 13.3496 11.7998C13.3496 12.1726 13.0476 12.4746 12.6748 12.4746H0.674805C0.302012 12.4746 0 12.1726 0 11.7998C0 11.427 0.302012 11.125 0.674805 11.125H12.6748ZM4.5752 0C4.94776 0.000263579 5.25 0.302175 5.25 0.674805C5.25 1.04743 4.94776 1.34935 4.5752 1.34961H4.04199V5.94824C4.042 7.6201 5.08106 8.6748 6.71387 8.6748C8.35449 8.6748 9.39355 7.61229 9.39355 5.94824V1.34961H8.77539C8.4026 1.34961 8.10059 1.0476 8.10059 0.674805C8.10059 0.302012 8.4026 0 8.77539 0H11.2754C11.648 0.000263579 11.9502 0.302175 11.9502 0.674805C11.9502 1.04743 11.648 1.34935 11.2754 1.34961H10.7607V5.97949C10.7607 8.32323 9.13573 9.90137 6.71387 9.90137C4.15919 9.90137 2.67481 8.30761 2.6748 5.94824V1.34961H2.0752C1.7024 1.34961 1.40039 1.0476 1.40039 0.674805C1.40039 0.302012 1.7024 0 2.0752 0H4.5752Z" fill="var(--fill-0, currentColor)"/>
</svg>
