<svg width="16" height="16" viewBox="0 0 11.667 12.333" fill="none" xmlns="http://www.w3.org/2000/svg">
<path id="Union" d="M11.167 11.333C11.4427 11.3334 11.6668 11.5573 11.667 11.833C11.6667 12.1087 11.4426 12.3326 11.167 12.333H0.5C0.224021 12.333 0.000263953 12.1089 0 11.833C0.000176024 11.557 0.223966 11.333 0.5 11.333H11.167ZM9.83301 0C10.1089 0.000263953 10.333 0.224021 10.333 0.5V5.16699C10.3326 7.65174 8.31779 9.66673 5.83301 9.66699C3.34815 9.66682 1.33345 7.65179 1.33301 5.16699V0.5C1.33301 0.223966 1.55702 0.000175863 1.83301 0C2.10893 0.000263953 2.33301 0.224021 2.33301 0.5V5.16699C2.33345 7.09951 3.90043 8.66682 5.83301 8.66699C7.76551 8.66673 9.33257 7.09945 9.33301 5.16699V0.5C9.33301 0.223966 9.55702 0.000175992 9.83301 0Z" fill="var(--fill-0, currentColor)"/>
</svg>
