<svg width="16" height="16" viewBox="0 0 13 13.6523" fill="none" xmlns="http://www.w3.org/2000/svg">
<path id="Union" d="M6.97754 0C8.37065 2.0165e-05 9.49998 1.12935 9.5 2.52246C9.5 2.7986 9.27614 3.02246 9 3.02246C8.72386 3.02246 8.5 2.7986 8.5 2.52246C8.49998 1.68164 7.81836 1.00002 6.97754 1H6.14258C5.23547 1.00015 4.50015 1.73547 4.5 2.64258V4.15234H10.5L10.7559 4.16504C11.9322 4.28461 12.8676 5.22018 12.9873 6.39648L13 6.65234V11.1523C13 12.4467 12.0164 13.5115 10.7559 13.6396L10.5 13.6523H2.5C1.11929 13.6523 4.832e-08 12.5331 0 11.1523V6.65234L0.0126953 6.39648C0.140936 5.13607 1.20574 4.15234 2.5 4.15234H3.5V2.64258C3.50015 1.18319 4.68319 0.000150702 6.14258 0H6.97754ZM2.5 5.15234C1.67165 5.15234 1.00013 5.82403 1 6.65234V11.1523C1 11.9808 1.67157 12.6523 2.5 12.6523H10.5C11.3284 12.6523 12 11.9808 12 11.1523V6.65234C11.9999 5.82403 11.3283 5.15234 10.5 5.15234H2.5Z" fill="var(--fill-0, currentColor)"/>
</svg>
