<svg width="16" height="16" viewBox="0 0 13.2224 14.6103" fill="none" xmlns="http://www.w3.org/2000/svg">
<path id="Union" fill-rule="evenodd" clip-rule="evenodd" d="M12.1464 0.146447C12.3417 -0.0488155 12.6582 -0.0488155 12.8535 0.146447C13.0397 0.332708 13.0483 0.629294 12.8792 0.825726C12.8763 0.828506 12.8734 0.831327 12.8706 0.834191L0.870568 12.8342C0.861567 12.8432 0.852981 12.8525 0.84481 12.8619C0.648959 13.0487 0.338845 13.0459 0.146447 12.8535C-0.0488155 12.6582 -0.0488155 12.3417 0.146447 12.1464L1.079 11.2139C0.786302 10.8887 0.711461 10.3802 0.999962 9.9677L1.94235 8.62102C2.0916 8.40773 2.18286 8.15952 2.20699 7.90032L2.71774 2.39836C2.83699 1.11263 3.91574 0.128832 5.20699 0.128832H8.76852C9.68207 0.129007 10.4902 0.621642 10.9264 1.36645L12.1464 0.146447ZM3.57788 11.5409H6.55514V14.1103C6.55537 14.3862 6.77914 14.6103 7.05514 14.6103C7.33114 14.6103 7.55491 14.3862 7.55514 14.1103V11.5409H12.2207C13.0296 11.5409 13.5037 10.6305 13.04 9.9677L12.0908 8.61223C11.9445 8.40325 11.8544 8.1599 11.8281 7.90618L11.395 3.72387L10.4835 4.63531L10.833 8.00969C10.8768 8.43258 11.0286 8.83717 11.2724 9.18547L12.2207 10.5409H4.57788L3.57788 11.5409ZM8.76852 1.12883C9.41107 1.12904 9.96641 1.53545 10.1774 2.11554L1.97666 10.3162L2.76168 9.19524C3.01073 8.83945 3.16298 8.42455 3.20309 7.99211L3.71383 2.49016C3.78548 1.71882 4.43231 1.12883 5.20699 1.12883H8.76852Z" fill="var(--fill-0, currentColor)"/>
</svg>
