<svg width="16" height="16" viewBox="0 0 14 15.0008" fill="none" xmlns="http://www.w3.org/2000/svg">
<path id="Union" fill-rule="evenodd" clip-rule="evenodd" d="M2.00779 0.260265L1.97144 0.209364C1.81091 -0.0152641 1.49787 -0.0673293 1.27319 0.0931532C1.04857 0.253677 0.9965 0.56672 1.15698 0.791395L2.15901 2.19424C0.828499 3.46847 0 5.26269 0 7.25042C0 11.1164 3.13401 14.2504 7 14.2504C8.1585 14.2504 9.25127 13.969 10.2137 13.4708L11.157 14.7914C11.3175 15.016 11.6305 15.0681 11.8552 14.9076C12.0697 14.7544 12.1268 14.4621 11.992 14.2405L2.02832 0.291357C2.02104 0.281167 2.0142 0.270796 2.00779 0.260265ZM11.8409 12.3067C13.1715 11.0325 14 9.2382 14 7.25042C14 3.38443 10.866 0.250419 7 0.250419C5.84145 0.250419 4.74864 0.531872 3.78621 1.03013L4.37486 1.85425C4.75042 1.67119 5.14797 1.52618 5.5625 1.42425C5.29299 1.77128 5.06451 2.1506 4.87171 2.54983L5.54989 3.49929C5.88261 2.63227 6.35522 1.89476 7 1.37151C7.70524 1.94382 8.2045 2.77246 8.54004 3.74651C8.86111 4.67868 9.02257 5.71819 9.0791 6.72893C8.68698 6.72932 8.28493 6.73101 7.86164 6.73574L8.57214 7.73044C8.74426 7.72956 8.91357 7.7291 9.08105 7.72893C9.06969 7.94328 9.05365 8.159 9.0324 8.37481L9.87696 9.55718C9.9881 8.94648 10.0523 8.32896 10.082 7.73089C10.3499 7.73241 10.6181 7.73414 10.8909 7.73591L10.8914 7.73591L10.8916 7.73591C11.5422 7.74012 12.2185 7.74449 12.9775 7.74651C12.8585 9.20037 12.2217 10.507 11.2517 11.4818L11.8409 12.3067ZM1.02246 6.74651C1.14312 5.29583 1.77942 3.99182 2.74776 3.01848L4.12266 4.94334C4.01363 5.54086 3.94956 6.1449 3.91895 6.73089C3.44606 6.73298 2.98378 6.73577 2.53027 6.73851H2.53018C2.01728 6.74161 1.51559 6.74464 1.02246 6.74651ZM4.91992 6.72893C4.93114 6.52831 4.94654 6.32656 4.96651 6.12474L5.39912 6.73038C5.23809 6.72964 5.07838 6.72919 4.91992 6.72893ZM4.91797 7.72893C5.30963 7.72957 5.70904 7.73172 6.11772 7.73643L8.45004 11.0017C8.11734 11.8683 7.6445 12.6052 7 13.1283C6.29502 12.5561 5.79543 11.7282 5.45996 10.7543C5.13433 9.80894 4.97227 8.75318 4.91797 7.72893ZM8.43652 13.0756C8.706 12.7286 8.93481 12.3496 9.1279 11.9507L9.62438 12.6457C9.24876 12.8288 8.85114 12.9737 8.43652 13.0756ZM3.91699 7.73089C3.46101 7.73294 3.0143 7.73565 2.57423 7.73831L2.5736 7.73832C2.04828 7.7415 1.53241 7.74462 1.02148 7.74651C1.23402 10.3427 3.09848 12.4696 5.5625 13.0756C5.10284 12.4836 4.76211 11.798 4.51465 11.0795C4.14536 10.0073 3.972 8.83593 3.91699 7.73089ZM8.43652 1.42425C8.89661 2.01653 9.23774 2.70243 9.48535 3.42132C9.85029 4.48087 10.0229 5.63735 10.0801 6.73089C10.3618 6.73246 10.6434 6.73426 10.9295 6.7361L10.93 6.7361L10.9305 6.73611C11.5733 6.74023 12.2384 6.7445 12.9766 6.74651C12.7609 4.1535 10.8986 2.02926 8.43652 1.42425Z" fill="var(--fill-0, currentColor)"/>
</svg>
