<svg width="16" height="16" viewBox="0 0 12 14" fill="none" xmlns="http://www.w3.org/2000/svg">
<path id="Union" d="M5.72461 3.08203C5.91869 2.95387 6.18265 2.97562 6.35352 3.14648L11.3535 8.14648C11.5488 8.34175 11.5488 8.65825 11.3535 8.85352C11.1583 9.04878 10.8417 9.04878 10.6465 8.85352L6.5 4.70703V13.5C6.5 13.7761 6.27614 14 6 14C5.72386 14 5.5 13.7761 5.5 13.5V4.70703L1.35352 8.85352C1.15825 9.04878 0.841747 9.04878 0.646484 8.85352C0.451222 8.65825 0.451222 8.34175 0.646484 8.14648L5.64648 3.14648L5.72461 3.08203ZM11.5 0C11.7761 0 12 0.223858 12 0.5C12 0.776142 11.7761 1 11.5 1H0.5C0.223858 1 0 0.776142 0 0.5C0 0.223858 0.223858 0 0.5 0H11.5Z" fill="var(--fill-0, currentColor)"/>
</svg>
