<svg width="16" height="16" viewBox="0 0 14.6897 8.26074" fill="none" xmlns="http://www.w3.org/2000/svg">
<g id="Union">
<path d="M1.36426 8.13184H0L2.86816 0.128906H4.37744L7.23486 8.13184H5.88135L3.65234 1.63818H3.58789L1.36426 8.13184ZM1.53076 4.99512H5.7041V6.05322H1.53076V4.99512Z" fill="var(--fill-0, currentColor)"/>
<path d="M11.2415 8.26074C10.511 8.26074 9.86648 8.08708 9.30789 7.73975C8.7493 7.39242 8.31066 6.90902 7.99197 6.28955C7.67687 5.67008 7.51932 4.95215 7.51932 4.13574C7.51932 3.30143 7.67866 2.57454 7.99734 1.95508C8.31961 1.33561 8.76004 0.855794 9.31863 0.515625C9.87723 0.171875 10.5128 0 11.2254 0C11.6658 0 12.0794 0.0680339 12.4661 0.204102C12.8528 0.336589 13.1966 0.524577 13.4973 0.768066C13.8017 1.01156 14.0524 1.3016 14.2493 1.63818C14.4462 1.97119 14.5751 2.3418 14.636 2.75H13.3201C13.2664 2.51367 13.1787 2.29883 13.0569 2.10547C12.9352 1.91211 12.783 1.74561 12.6004 1.60596C12.4213 1.46631 12.2172 1.35889 11.9881 1.28369C11.7625 1.2085 11.5154 1.1709 11.2469 1.1709C10.7599 1.1709 10.3338 1.29443 9.96853 1.5415C9.6033 1.78499 9.32042 2.12874 9.1199 2.57275C8.91938 3.01318 8.81912 3.53418 8.81912 4.13574C8.81912 4.73014 8.91938 5.24935 9.1199 5.69336C9.324 6.13379 9.60867 6.47754 9.97391 6.72461C10.3391 6.9681 10.767 7.08984 11.2576 7.08984C11.673 7.08984 12.0418 7.00391 12.364 6.83203C12.6899 6.66016 12.9459 6.42025 13.1321 6.1123C13.3219 5.80078 13.4168 5.44092 13.4168 5.03271L13.7659 5.05957H11.4886V4.00684H14.6897V4.94678C14.6897 5.59131 14.5393 6.16423 14.2386 6.66553C13.9414 7.16325 13.5332 7.55355 13.0139 7.83643C12.4947 8.1193 11.9039 8.26074 11.2415 8.26074Z" fill="var(--fill-0, currentColor)"/>
</g>
</svg>
