<svg width="16" height="16" viewBox="0 0 16 16" fill="none" xmlns="http://www.w3.org/2000/svg">
<path d="M1.91211 12H0.547852L3.41602 3.99707H4.92529L7.78271 12H6.4292L4.2002 5.50635H4.13574L1.91211 12ZM2.07861 8.86328H6.25195V9.92139H2.07861V8.86328Z" fill="currentColor"/>
<path d="M11.7893 12.1289C11.0589 12.1289 10.4143 11.9552 9.85574 11.6079C9.29715 11.2606 8.85851 10.7772 8.53982 10.1577C8.22472 9.53825 8.06717 8.82031 8.06717 8.00391C8.06717 7.1696 8.22651 6.44271 8.5452 5.82324C8.86746 5.20378 9.30789 4.72396 9.86648 4.38379C10.4251 4.04004 11.0607 3.86816 11.7732 3.86816C12.2137 3.86816 12.6272 3.9362 13.0139 4.07227C13.4007 4.20475 13.7444 4.39274 14.0452 4.63623C14.3496 4.87972 14.6002 5.16976 14.7971 5.50635C14.9941 5.83936 15.123 6.20996 15.1839 6.61816H13.8679C13.8142 6.38184 13.7265 6.16699 13.6048 5.97363C13.483 5.78027 13.3308 5.61377 13.1482 5.47412C12.9692 5.33447 12.7651 5.22705 12.5359 5.15186C12.3103 5.07666 12.0633 5.03906 11.7947 5.03906C11.3077 5.03906 10.8816 5.1626 10.5164 5.40967C10.1512 5.65316 9.86827 5.99691 9.66775 6.44092C9.46723 6.88135 9.36697 7.40234 9.36697 8.00391C9.36697 8.59831 9.46723 9.11751 9.66775 9.56152C9.87185 10.002 10.1565 10.3457 10.5218 10.5928C10.887 10.8363 11.3149 10.958 11.8054 10.958C12.2208 10.958 12.5896 10.8721 12.9119 10.7002C13.2377 10.5283 13.4938 10.2884 13.68 9.98047C13.8697 9.66895 13.9646 9.30908 13.9646 8.90088L14.3137 8.92773H12.0364V7.875H15.2376V8.81494C15.2376 9.45947 15.0872 10.0324 14.7864 10.5337C14.4892 11.0314 14.081 11.4217 13.5618 11.7046C13.0426 11.9875 12.4518 12.1289 11.7893 12.1289Z" fill="currentColor"/>
</svg>
