<svg width="16" height="16" viewBox="0 0 12.324 14.0762" fill="none" xmlns="http://www.w3.org/2000/svg">
<path id="Union" d="M9.91152 8.66406C10.1874 8.66436 10.4115 8.8881 10.4115 9.16406V9.68066C10.6816 9.76062 10.9236 9.90479 11.1225 10.0938L11.5746 9.83398C11.8137 9.69633 12.1193 9.77763 12.2572 10.0166C12.3946 10.2554 12.3129 10.561 12.0746 10.6992L11.6215 10.96C11.6528 11.0913 11.6723 11.2282 11.6723 11.3691C11.6722 11.51 11.6528 11.647 11.6215 11.7783L12.0746 12.04C12.3128 12.1783 12.3948 12.4839 12.2572 12.7227C12.1193 12.9612 11.8135 13.0433 11.5746 12.9062L11.1215 12.6445C10.9228 12.8331 10.6812 12.9768 10.4115 13.0566V13.5762C10.411 13.8517 10.1871 14.0759 9.91152 14.0762C9.6357 14.0762 9.41205 13.8519 9.41152 13.5762V13.0566C9.14217 12.977 8.90021 12.8346 8.70156 12.6465L8.25332 12.9062C8.01442 13.0437 7.70877 12.9612 7.5707 12.7227C7.43279 12.4837 7.51463 12.1783 7.75332 12.04L8.20058 11.7812C8.16885 11.6491 8.15082 11.511 8.15078 11.3691C8.15078 11.2272 8.16888 11.0892 8.20058 10.957L7.75332 10.6992C7.51463 10.5612 7.43322 10.2555 7.5707 10.0166C7.70879 9.77763 8.01425 9.69606 8.25332 9.83398L8.70058 10.0918C8.89942 9.9033 9.14174 9.76037 9.41152 9.68066V9.16406C9.41152 8.88792 9.63538 8.66406 9.91152 8.66406ZM5.7289 6.39648C6.77174 6.44582 7.96336 6.78176 9.00039 7.36914C9.24046 7.50525 9.32476 7.8106 9.18886 8.05078C9.0528 8.291 8.74747 8.37521 8.50722 8.23926C7.60201 7.72659 6.56276 7.43725 5.68203 7.39551C4.8691 7.3571 3.85419 7.68859 2.94765 8.2793C2.04146 8.86985 1.32286 9.66757 1.03457 10.4736C0.947893 10.7162 1.02844 10.9884 1.25234 11.1582C1.86982 11.6262 3.22238 12.3535 5.70547 12.3535C5.9815 12.3536 6.20547 12.5775 6.20547 12.8535C6.20529 13.1294 5.98139 13.3534 5.70547 13.3535C3.01056 13.3535 1.44426 12.5588 0.647848 11.9551C0.0949057 11.5358 -0.14838 10.8121 0.0931606 10.1367C0.478323 9.05986 1.38066 8.10789 2.40175 7.44238C3.42274 6.77709 4.64326 6.34519 5.7289 6.39648ZM9.91152 10.6094C9.49138 10.6094 9.1508 10.949 9.15078 11.3691C9.15104 11.7891 9.49153 12.1299 9.91152 12.1299C10.3313 12.1296 10.672 11.7889 10.6723 11.3691C10.6722 10.9492 10.3314 10.6097 9.91152 10.6094ZM6.00332 0C7.5221 0 8.75332 1.23122 8.75332 2.75C8.75332 4.26878 7.5221 5.5 6.00332 5.5C4.48465 5.49987 3.25332 4.2687 3.25332 2.75C3.25332 1.2313 4.48465 0.000134524 6.00332 0ZM6.00332 1C5.03693 1.00013 4.25332 1.78358 4.25332 2.75C4.25332 3.71642 5.03693 4.49987 6.00332 4.5C6.96982 4.5 7.75332 3.7165 7.75332 2.75C7.75332 1.7835 6.96982 1 6.00332 1Z" fill="var(--fill-0, currentColor)"/>
</svg>
