<svg width="16" height="16" viewBox="0 0 11.5384 13.3535" fill="none" xmlns="http://www.w3.org/2000/svg">
<path id="Union" d="M5.72888 6.39648C6.78577 6.44645 7.99607 6.79093 9.04333 7.39355C10.0887 7.99515 11.0208 8.88387 11.4398 10.0508C11.7021 10.7816 11.4243 11.5678 10.8041 12C9.95497 12.5915 8.34435 13.3535 5.70544 13.3535C3.01045 13.3535 1.44418 12.5588 0.647824 11.9551C0.0949456 11.5358 -0.148371 10.8121 0.0931365 10.1367C0.478324 9.0597 1.38046 8.10695 2.40173 7.44141C3.42271 6.77607 4.64321 6.34522 5.72888 6.39648ZM5.682 7.39551C4.86905 7.35713 3.85416 7.68855 2.94763 8.2793C2.04145 8.86986 1.32281 9.66757 1.03454 10.4736C0.947911 10.7161 1.02849 10.9885 1.25232 11.1582C1.86972 11.6262 3.22224 12.3535 5.70544 12.3535C8.13864 12.3535 9.55025 11.6552 10.2328 11.1797C10.4993 10.994 10.6011 10.6751 10.4984 10.3887C10.1847 9.51517 9.45979 8.78761 8.54431 8.26074C7.63073 7.73505 6.57507 7.43779 5.682 7.39551ZM6.00427 0C7.52288 0.000199313 8.75427 1.23134 8.75427 2.75C8.75427 4.26866 7.52288 5.4998 6.00427 5.5C4.48549 5.5 3.25427 4.26878 3.25427 2.75C3.25427 1.23122 4.48549 1.20798e-08 6.00427 0ZM6.00427 1C5.03777 1 4.25427 1.7835 4.25427 2.75C4.25427 3.7165 5.03777 4.5 6.00427 4.5C6.9706 4.4998 7.75427 3.71638 7.75427 2.75C7.75427 1.78362 6.9706 1.0002 6.00427 1Z" fill="var(--fill-0, currentColor)"/>
</svg>
