<svg width="16" height="16" viewBox="0 0 13 13.1238" fill="none" xmlns="http://www.w3.org/2000/svg">
<path id="Union" d="M8.87305 6.80078C11.0946 6.61565 12.9999 8.36846 13 10.5977C13 11.6512 12.2384 12.5504 11.1992 12.7236L11.0635 12.7461C8.04197 13.2497 4.95803 13.2497 1.93652 12.7461L1.80078 12.7236C0.761627 12.5504 0 11.6512 0 10.5977C8.69073e-05 8.36846 1.90543 6.61565 4.12695 6.80078L5.71094 6.93262C6.23598 6.97637 6.76402 6.97637 7.28906 6.93262L8.87305 6.80078ZM4.04395 7.79688C2.40544 7.66033 1.00009 8.9535 1 10.5977C1 11.1622 1.40804 11.6443 1.96484 11.7373L2.10059 11.7598C5.01333 12.2452 7.98667 12.2452 10.8994 11.7598L11.0352 11.7373C11.592 11.6443 12 11.1622 12 10.5977C11.9999 8.9535 10.5946 7.66033 8.95605 7.79688L7.37207 7.92871C6.79176 7.97707 6.20824 7.97707 5.62793 7.92871L4.04395 7.79688ZM6.5 0C8.15685 0 9.5 1.34315 9.5 3C9.5 4.65685 8.15685 6 6.5 6C4.84315 6 3.5 4.65685 3.5 3C3.5 1.34315 4.84315 0 6.5 0ZM6.5 1C5.39543 1 4.5 1.89543 4.5 3C4.5 4.10457 5.39543 5 6.5 5C7.60457 5 8.5 4.10457 8.5 3C8.5 1.89543 7.60457 1 6.5 1Z" fill="var(--fill-0, currentColor)"/>
</svg>
