<svg width="16" height="16" viewBox="0 0 16 16" fill="none" xmlns="http://www.w3.org/2000/svg">
<path fill-rule="evenodd" clip-rule="evenodd" d="M12.8011 9.70312C13.0771 9.70334 13.3011 9.92712 13.3011 10.2031V11.7031H14.8011C15.0771 11.7033 15.3011 11.9271 15.3011 12.2031C15.3011 12.4791 15.0771 12.7029 14.8011 12.7031H13.3011V14.2031C13.3011 14.4791 13.0771 14.7029 12.8011 14.7031C12.525 14.7031 12.3011 14.4793 12.3011 14.2031V12.7031H10.8011C10.525 12.7031 10.3011 12.4793 10.3011 12.2031C10.3011 11.927 10.525 11.7031 10.8011 11.7031H12.3011V10.2031C12.3011 9.92698 12.525 9.70312 12.8011 9.70312ZM7.97497 7.39648C9.01783 7.44578 10.2094 7.78175 11.2465 8.36914C11.4867 8.50522 11.5709 8.81052 11.4349 9.05078C11.2988 9.29101 10.9935 9.37534 10.7533 9.23926C9.84802 8.72658 8.80884 8.43721 7.92809 8.39551C7.11514 8.35714 6.10024 8.68855 5.19372 9.2793C4.28754 9.86986 3.56889 10.6676 3.28063 11.4736C3.194 11.7161 3.27459 11.9885 3.49841 12.1582C4.1158 12.6262 5.46833 13.3534 7.95153 13.3535C8.30829 13.3535 8.64319 13.3386 8.95641 13.3115C9.23153 13.2878 9.47463 13.4915 9.49841 13.7666C9.52191 14.0414 9.3181 14.2837 9.04333 14.3076C8.70072 14.3372 8.33655 14.3535 7.95153 14.3535C5.25654 14.3534 3.69027 13.5588 2.89391 12.9551C2.34105 12.5358 2.09772 11.8121 2.33923 11.1367C2.72436 10.0599 3.62675 9.10791 4.64782 8.44238C5.6688 7.77705 6.8893 7.34523 7.97497 7.39648ZM8.25036 1C9.76898 1.00019 11.0004 2.23133 11.0004 3.75C11.0004 5.26867 9.76898 6.49981 8.25036 6.5C6.73158 6.5 5.50036 5.26878 5.50036 3.75C5.50036 2.23122 6.73158 1 8.25036 1ZM8.25036 2C7.28386 2 6.50036 2.7835 6.50036 3.75C6.50036 4.7165 7.28386 5.5 8.25036 5.5C9.2167 5.49981 10.0004 4.71638 10.0004 3.75C10.0004 2.78362 9.2167 2.00019 8.25036 2Z" fill="currentColor"/>
</svg>
