<svg width="16" height="16" viewBox="0 0 12.8498 13.543" fill="none" xmlns="http://www.w3.org/2000/svg">
<path id="Union" d="M9.64769 6.45703C10.6124 6.45712 11.3948 7.23936 11.3948 8.2041V8.39062C12.2056 8.43431 12.8498 9.10401 12.8498 9.92578V12.0039C12.8498 12.8539 12.1608 13.5429 11.3108 13.543H7.98558C7.13569 13.5428 6.44652 12.8538 6.44652 12.0039V9.92578C6.44653 9.10441 7.0903 8.43491 7.90062 8.39062V8.2041C7.90062 7.23939 8.68301 6.45717 9.64769 6.45703ZM5.72874 6.39648C6.09456 6.41378 6.47655 6.46674 6.86155 6.55176C7.13113 6.61131 7.30185 6.87789 7.24241 7.14746C7.18287 7.41693 6.91618 7.58758 6.64671 7.52832C6.31224 7.45444 5.98621 7.40992 5.68187 7.39551C4.86892 7.35714 3.85402 7.68855 2.94749 8.2793C2.04131 8.86986 1.32267 9.66757 1.03441 10.4736C0.94797 10.7156 1.0284 10.9883 1.25218 11.1582C1.74535 11.5319 2.70115 12.0658 4.31566 12.2695C4.61109 12.3068 4.92919 12.3335 5.27073 12.3457C5.5467 12.3555 5.76298 12.5873 5.75316 12.8633C5.74321 13.1391 5.51138 13.3544 5.23558 13.3447C4.86481 13.3315 4.51665 13.3028 4.19066 13.2617C2.40028 13.0358 1.27995 12.4344 0.648664 11.9561C0.0959762 11.5372 -0.148641 10.8125 0.0929999 10.1367C0.478134 9.05986 1.38052 8.10791 2.40159 7.44238C3.42257 6.77705 4.64308 6.34523 5.72874 6.39648ZM7.98558 9.38672C7.68799 9.38687 7.44653 9.62816 7.44652 9.92578V12.0039C7.44652 12.3015 7.68798 12.5428 7.98558 12.543H11.3108C11.6085 12.5429 11.8498 12.3016 11.8498 12.0039V9.92578C11.8498 9.62808 11.6085 9.38675 11.3108 9.38672H7.98558ZM9.64769 7.45703C9.2353 7.45717 8.90062 7.79168 8.90062 8.2041V8.38672H10.3948V8.2041C10.3948 7.79164 10.0601 7.45712 9.64769 7.45703ZM6.00413 0C7.52276 0.0001854 8.75413 1.23133 8.75413 2.75C8.75413 4.26867 7.52276 5.49981 6.00413 5.5C4.48535 5.5 3.25413 4.26878 3.25413 2.75C3.25413 1.23122 4.48535 1.20798e-08 6.00413 0ZM6.00413 1C5.03763 1 4.25413 1.7835 4.25413 2.75C4.25413 3.7165 5.03763 4.5 6.00413 4.5C6.97047 4.49981 7.75413 3.71638 7.75413 2.75C7.75413 1.78362 6.97047 1.00019 6.00413 1Z" fill="var(--fill-0, currentColor)"/>
</svg>
