<svg width="16" height="16" viewBox="0 0 13.0551 13.3535" fill="none" xmlns="http://www.w3.org/2000/svg">
<path id="Union" d="M5.7289 6.39648C6.77179 6.44578 7.96328 6.78172 9.00038 7.36914C9.24062 7.50522 9.32487 7.81052 9.18886 8.05078C9.05276 8.29105 8.74749 8.37535 8.50722 8.23926C7.60193 7.72655 6.5628 7.43721 5.68202 7.39551C4.86905 7.35711 3.85421 7.68853 2.94765 8.2793C2.04143 8.86987 1.32283 9.66755 1.03456 10.4736C0.947894 10.7162 1.02845 10.9884 1.25234 11.1582C1.86974 11.6262 3.22219 12.3535 5.70546 12.3535C6.06226 12.3535 6.39708 12.3386 6.71034 12.3115C6.98546 12.2878 7.22857 12.4915 7.25234 12.7666C7.27584 13.0414 7.07203 13.2837 6.79726 13.3076C6.45462 13.3372 6.09053 13.3535 5.70546 13.3535C3.0104 13.3535 1.44421 12.5589 0.647843 11.9551C0.0949145 11.5358 -0.148378 10.8121 0.0931553 10.1367C0.4783 9.05983 1.38064 8.10791 2.40175 7.44238C3.42276 6.77703 4.6432 6.3452 5.7289 6.39648ZM12.5551 10.7031C12.831 10.7034 13.0551 10.9271 13.0551 11.2031C13.0551 11.4791 12.831 11.7029 12.5551 11.7031H8.55507C8.27893 11.7031 8.05507 11.4793 8.05507 11.2031C8.05507 10.927 8.27893 10.7031 8.55507 10.7031H12.5551ZM6.00429 0C7.52286 0.000249683 8.75429 1.23137 8.75429 2.75C8.75429 4.26863 7.52286 5.49975 6.00429 5.5C4.48551 5.5 3.25429 4.26878 3.25429 2.75C3.25429 1.23122 4.48551 1.20798e-08 6.00429 0ZM6.00429 1C5.03779 1 4.25429 1.7835 4.25429 2.75C4.25429 3.7165 5.03779 4.5 6.00429 4.5C6.97057 4.49975 7.75429 3.71634 7.75429 2.75C7.75429 1.78366 6.97057 1.00025 6.00429 1Z" fill="var(--fill-0, currentColor)"/>
</svg>
