<svg width="16" height="16" viewBox="0 0 16 16" fill="none" xmlns="http://www.w3.org/2000/svg">
<path fill-rule="evenodd" clip-rule="evenodd" d="M7.97583 7.39648C8.93904 7.44211 10.0278 7.73247 11.0032 8.2373C11.9771 8.74147 12.8768 9.48012 13.4133 10.4492C13.5467 10.6906 13.4591 10.9951 13.218 11.1289C12.9766 11.2626 12.6722 11.1749 12.5383 10.9336C12.1244 10.186 11.3993 9.56814 10.5432 9.125C9.68892 8.68291 8.74054 8.43403 7.92896 8.39551C7.11611 8.3571 6.10105 8.68869 5.19458 9.2793C4.28843 9.86982 3.56981 10.6676 3.28149 11.4736C3.19495 11.7158 3.27534 11.9883 3.49927 12.1582C3.9868 12.5276 4.92615 13.0538 6.5061 13.2627C6.77929 13.2992 6.97166 13.5499 6.93579 13.8232C6.89964 14.0967 6.64863 14.2895 6.37525 14.2539C4.62113 14.022 3.51952 13.4277 2.89575 12.9551C2.34293 12.5361 2.09845 11.8124 2.34009 11.1367C2.72527 10.0599 3.62763 9.10787 4.64868 8.44238C5.66962 7.77718 6.89028 7.34519 7.97583 7.39648ZM9.00025 12.25C9.41446 12.25 9.75025 12.5858 9.75025 13C9.75025 13.4142 9.41446 13.75 9.00025 13.75C8.58609 13.7499 8.25025 13.4142 8.25025 13C8.25025 12.5858 8.58609 12.2501 9.00025 12.25ZM11.5002 12.25C11.9145 12.25 12.2502 12.5858 12.2502 13C12.2502 13.4142 11.9145 13.75 11.5002 13.75C11.0861 13.7499 10.7502 13.4142 10.7502 13C10.7502 12.5858 11.0861 12.2501 11.5002 12.25ZM14.0002 12.25C14.4145 12.25 14.7502 12.5858 14.7502 13C14.7502 13.4142 14.4145 13.75 14.0002 13.75C13.5861 13.7499 13.2502 13.4142 13.2502 13C13.2502 12.5858 13.5861 12.2501 14.0002 12.25ZM8.25025 1C9.76893 1.00012 11.0002 2.23129 11.0002 3.75C11.0002 5.26871 9.76893 6.49988 8.25025 6.5C6.73152 6.49994 5.50024 5.26874 5.50024 3.75C5.50024 2.23126 6.73152 1.00006 8.25025 1ZM8.25025 2C7.2838 2.00006 6.50025 2.78354 6.50025 3.75C6.50025 4.71646 7.2838 5.49994 8.25025 5.5C9.21664 5.49988 10.0002 4.71642 10.0002 3.75C10.0002 2.78358 9.21664 2.00012 8.25025 2Z" fill="currentColor"/>
</svg>
