<svg width="16" height="16" viewBox="0 0 12.5461 13.3514" fill="none" xmlns="http://www.w3.org/2000/svg">
<path id="Union" d="M9.83129 6.85156C10.2218 6.46108 10.8558 6.46116 11.2463 6.85156L12.2532 7.8584C12.6437 8.24892 12.6437 8.88291 12.2532 9.27344L8.74926 12.7764C8.67957 12.846 8.59096 12.8937 8.49438 12.9131L6.35083 13.3418C6.18708 13.3743 6.01772 13.3231 5.89965 13.2051C5.78163 13.087 5.73033 12.9176 5.76294 12.7539L6.19165 10.6104C6.21103 10.5138 6.25875 10.4252 6.32836 10.3555L9.83129 6.85156ZM5.72876 6.39648C6.42955 6.42964 7.19361 6.5925 7.92993 6.87012C8.18797 6.96754 8.31889 7.25551 8.22192 7.51367C8.12454 7.77194 7.83568 7.90282 7.57739 7.80566C6.92981 7.5615 6.26856 7.42331 5.68188 7.39551C4.86896 7.3571 3.85404 7.68859 2.94751 8.2793C2.04131 8.86985 1.32271 9.66757 1.03442 10.4736C0.947898 10.7158 1.02829 10.9883 1.25219 11.1582C1.74156 11.5291 2.68614 12.0574 4.27758 12.2646C4.55123 12.3004 4.74475 12.5515 4.70922 12.8252C4.67359 13.0989 4.42241 13.2923 4.14868 13.2568C2.38228 13.0268 1.27493 12.4297 0.648677 11.9551C0.0959104 11.5361 -0.148631 10.8124 0.0930134 10.1367C0.478176 9.05986 1.38052 8.10789 2.40161 7.44238C3.42259 6.77709 4.64312 6.34519 5.72876 6.39648ZM7.14184 10.9551L6.88989 12.2139L8.14868 11.9619L11.5461 8.56543L10.5393 7.55859L7.14184 10.9551ZM6.00317 0C7.52195 0 8.75317 1.23122 8.75317 2.75C8.75317 4.26878 7.52195 5.5 6.00317 5.5C4.4845 5.49987 3.25317 4.2687 3.25317 2.75C3.25317 1.2313 4.4845 0.000129628 6.00317 0ZM6.00317 1C5.03678 1.00013 4.25317 1.78358 4.25317 2.75C4.25317 3.71642 5.03678 4.49987 6.00317 4.5C6.96967 4.5 7.75317 3.7165 7.75317 2.75C7.75317 1.7835 6.96967 1 6.00317 1Z" fill="var(--fill-0, currentColor)"/>
</svg>
