<svg width="16" height="16" viewBox="0 0 12.2539 13.3535" fill="none" xmlns="http://www.w3.org/2000/svg">
<path id="Union" d="M5.72882 6.39648C6.77161 6.44578 7.96327 6.78182 9.0003 7.36914C9.24055 7.50522 9.3248 7.81052 9.18878 8.05078C9.05264 8.29092 8.74736 8.37532 8.50714 8.23926C7.60192 7.72665 6.56263 7.4372 5.68195 7.39551C4.86904 7.35723 3.85399 7.68862 2.94757 8.2793C2.04148 8.86985 1.32273 9.66763 1.03448 10.4736C0.947919 10.7161 1.02859 10.9885 1.25226 11.1582C1.86963 11.6262 3.22235 12.3534 5.70538 12.3535C5.98153 12.3535 6.20538 12.5774 6.20538 12.8535C6.20521 13.1295 5.98142 13.3535 5.70538 13.3535C3.01056 13.3534 1.44409 12.5588 0.647766 11.9551C0.0950418 11.5358 -0.148348 10.812 0.0930783 10.1367C0.478189 9.05993 1.38067 8.1079 2.40167 7.44238C3.42257 6.77711 4.64322 6.34531 5.72882 6.39648ZM11.3763 8.67285C11.5569 8.46427 11.8725 8.44166 12.0814 8.62207C12.2899 8.80264 12.3125 9.11833 12.1321 9.32715L8.93292 13.0303C8.84376 13.1333 8.71644 13.1952 8.58038 13.2021C8.44406 13.209 8.31042 13.1602 8.21124 13.0664L6.41046 11.3633C6.20992 11.1735 6.20121 10.8568 6.39093 10.6562C6.58069 10.4557 6.89738 10.447 7.09796 10.6367L8.51788 11.9795L11.3763 8.67285ZM6.00421 0C7.52296 4.3293e-05 8.75421 1.23124 8.75421 2.75C8.75421 4.26876 7.52296 5.49996 6.00421 5.5C4.48543 5.5 3.25421 4.26878 3.25421 2.75C3.25421 1.23122 4.48543 1.20798e-08 6.00421 0ZM6.00421 1C5.03771 1 4.25421 1.7835 4.25421 2.75C4.25421 3.7165 5.03771 4.5 6.00421 4.5C6.97067 4.49996 7.75421 3.71647 7.75421 2.75C7.75421 1.78353 6.97067 1.00004 6.00421 1Z" fill="var(--fill-0, currentColor)"/>
</svg>
