<svg width="16" height="16" viewBox="0 0 16 16" fill="none" xmlns="http://www.w3.org/2000/svg">
<g id="icon/line/user settings">
<path id="Union" d="M7.07649 2.57009C4.20161 3.01407 2.00046 5.5006 2.00032 8.49978C2.00039 9.96663 2.52746 11.3099 3.40169 12.3523C3.83902 11.6322 4.44207 11.0243 5.16341 10.5818C5.45199 10.4049 5.75642 10.2576 6.07063 10.1394C5.3172 9.55957 4.82958 8.65084 4.82942 7.62673C4.82968 5.87574 6.24939 4.45631 8.00032 4.45583C9.75167 4.45583 11.1719 5.87545 11.1722 7.62673C11.172 8.67035 10.6653 9.59271 9.88704 10.1707C10.1732 10.2835 10.4508 10.4197 10.7152 10.5818C11.464 11.0411 12.0849 11.679 12.5257 12.4353C13.4427 11.3816 14.0003 10.0062 14.0003 8.49978C14.0003 7.85488 13.8989 7.23402 13.7113 6.6531L14.1868 6.49978L14.6624 6.34548C14.8818 7.02452 15.0003 7.74925 15.0003 8.49978C15.0002 12.3655 11.866 15.4995 8.00032 15.4998C4.13442 15.4998 1.00047 12.3656 1.00032 8.49978C1.00046 4.99967 3.5691 2.09987 6.92415 1.58181L7.07649 2.57009ZM7.93978 10.7986C7.14446 10.7987 6.36385 11.0186 5.68587 11.4343C5.03429 11.8341 4.50054 12.4002 4.13997 13.073C4.13767 13.0773 4.13359 13.0806 4.13118 13.0847C5.17584 13.9672 6.52581 14.4998 8.00032 14.4998C9.43423 14.4997 10.7495 13.9954 11.7816 13.156V13.1551C11.421 12.446 10.8708 11.8502 10.1927 11.4343C9.51478 11.0186 8.73501 10.7987 7.93978 10.7986ZM8.00032 5.45583C6.80167 5.45631 5.82968 6.42803 5.82942 7.62673C5.82969 8.82543 6.80167 9.79813 8.00032 9.79861C9.19938 9.79861 10.1719 8.82573 10.1722 7.62673C10.1719 6.42773 9.19938 5.45583 8.00032 5.45583ZM8.70247 0.999778C9.25453 1.00004 9.70247 1.44766 9.70247 1.99978C9.70247 2.5519 9.25453 2.99951 8.70247 2.99978C8.15019 2.99978 7.70247 2.55206 7.70247 1.99978C7.70247 1.44749 8.15019 0.999778 8.70247 0.999778ZM11.7025 0.999778C12.2545 1.00004 12.7025 1.44766 12.7025 1.99978C12.7025 2.5519 12.2545 2.99951 11.7025 2.99978C11.1502 2.99978 10.7025 2.55206 10.7025 1.99978C10.7025 1.44749 11.1502 0.999778 11.7025 0.999778ZM14.7025 0.999778C15.2545 1.00004 15.7025 1.44766 15.7025 1.99978C15.7025 2.5519 15.2545 2.99951 14.7025 2.99978C14.1502 2.99978 13.7025 2.55206 13.7025 1.99978C13.7025 1.44749 14.1502 0.999778 14.7025 0.999778Z" fill="var(--fill-0, currentColor)"/>
</g>
</svg>
