<svg width="16" height="16" viewBox="0 0 16 16" fill="none" xmlns="http://www.w3.org/2000/svg">
<path fill-rule="evenodd" clip-rule="evenodd" d="M7.975 7.39648C9.01781 7.44584 10.2095 7.78178 11.2465 8.36914C11.4865 8.50526 11.5708 8.81064 11.435 9.05078C11.2989 9.29097 10.9936 9.37514 10.7533 9.23926C9.84815 8.72661 8.80883 8.43727 7.92812 8.39551C7.11522 8.3571 6.10026 8.68862 5.19375 9.2793C4.28757 9.86984 3.56896 10.6676 3.28066 11.4736C3.19399 11.7162 3.27453 11.9884 3.49843 12.1582C4.11595 12.6262 5.46858 13.3535 7.95156 13.3535C8.22754 13.3537 8.45156 13.5775 8.45156 13.8535C8.45138 14.1294 8.22743 14.3533 7.95156 14.3535C5.25674 14.3535 3.69038 13.5588 2.89394 12.9551C2.341 12.5359 2.09771 11.8121 2.33925 11.1367C2.72442 10.0599 3.62677 9.10789 4.64785 8.44238C5.66882 7.77712 6.88939 7.34519 7.975 7.39648ZM13.6215 9.67285C13.802 9.46426 14.1177 9.44172 14.3266 9.62207C14.5352 9.80265 14.5578 10.1183 14.3773 10.3271L11.1781 14.0303C11.0889 14.1333 10.9616 14.1952 10.8256 14.2021C10.6893 14.209 10.5556 14.1602 10.4564 14.0664L8.65566 12.3633C8.45521 12.1735 8.44649 11.8568 8.63613 11.6562C8.82586 11.4557 9.14256 11.4471 9.34316 11.6367L10.7631 12.9795L13.6215 9.67285ZM8.24941 1C9.76819 1 10.9994 2.23122 10.9994 3.75C10.9994 5.26878 9.76819 6.5 8.24941 6.5C6.73069 6.49993 5.49941 5.26874 5.49941 3.75C5.49941 2.23126 6.73069 1.00007 8.24941 1ZM8.24941 2C7.28297 2.00007 6.49941 2.78354 6.49941 3.75C6.49941 4.71646 7.28297 5.49993 8.24941 5.5C9.21591 5.5 9.99941 4.7165 9.99941 3.75C9.99941 2.7835 9.21591 2 8.24941 2Z" fill="currentColor"/>
</svg>
