<svg width="16" height="16" viewBox="0 0 13.0541 13.7031" fill="none" xmlns="http://www.w3.org/2000/svg">
<path id="Union" d="M10.5541 8.70312C10.8302 8.70312 11.0541 8.92698 11.0541 9.20312V10.7031H12.5541C12.8302 10.7031 13.0541 10.927 13.0541 11.2031C13.0541 11.4793 12.8302 11.7031 12.5541 11.7031H11.0541V13.2031C11.0541 13.4793 10.8302 13.7031 10.5541 13.7031C10.2781 13.7029 10.0541 13.4792 10.0541 13.2031V11.7031H8.5541C8.27811 11.7029 8.0541 11.4792 8.0541 11.2031C8.0541 10.9271 8.27811 10.7033 8.5541 10.7031H10.0541V9.20312C10.0541 8.9271 10.2781 8.70331 10.5541 8.70312ZM5.7289 6.39648C6.77178 6.4458 7.96331 6.78173 9.00039 7.36914C9.24057 7.50523 9.32484 7.81055 9.18886 8.05078C9.05278 8.29103 8.74749 8.3753 8.50722 8.23926C7.60196 7.72656 6.56279 7.43722 5.68203 7.39551C4.86907 7.3571 3.85421 7.68854 2.94765 8.2793C2.04144 8.86986 1.32285 9.66755 1.03457 10.4736C0.947893 10.7162 1.02844 10.9884 1.25234 11.1582C1.86977 11.6262 3.22225 12.3535 5.70547 12.3535C6.06224 12.3535 6.39711 12.3386 6.71035 12.3115C6.98543 12.2878 7.22858 12.4915 7.25234 12.7666C7.27584 13.0414 7.07199 13.2836 6.79726 13.3076C6.45464 13.3372 6.09051 13.3535 5.70547 13.3535C3.01045 13.3535 1.44423 12.5589 0.647848 11.9551C0.0949057 11.5358 -0.14838 10.8121 0.0931606 10.1367C0.478313 9.05984 1.38065 8.1079 2.40175 7.44238C3.42276 6.77705 4.64322 6.34519 5.7289 6.39648ZM6.00332 0C7.5221 0 8.75332 1.23122 8.75332 2.75C8.75332 4.26878 7.5221 5.5 6.00332 5.5C4.48472 5.49978 3.25332 4.26865 3.25332 2.75C3.25332 1.23135 4.48472 0.000215815 6.00332 0ZM6.00332 1C5.037 1.00022 4.25332 1.78363 4.25332 2.75C4.25332 3.71637 5.037 4.49978 6.00332 4.5C6.96982 4.5 7.75332 3.7165 7.75332 2.75C7.75332 1.7835 6.96982 1 6.00332 1Z" fill="var(--fill-0, currentColor)"/>
</svg>
