<svg width="16" height="16" viewBox="0 0 12.4013 13.6836" fill="none" xmlns="http://www.w3.org/2000/svg">
<path id="Union" d="M11.5481 6.93652C11.7433 6.74148 12.0599 6.74143 12.2551 6.93652C12.45 7.13175 12.4501 7.44838 12.2551 7.64355L11.762 8.13672L11.843 8.21777C12.4028 8.77779 12.4028 9.68613 11.843 10.2461C11.283 10.8058 10.3747 10.8058 9.81469 10.2461L9.73363 10.165L9.32641 10.5713C9.51192 10.8803 9.62034 11.2413 9.62035 11.6279C9.62 12.7632 8.70004 13.6834 7.56469 13.6836C6.4293 13.6835 5.5084 12.7633 5.50805 11.6279C5.50809 10.4923 6.42911 9.57142 7.56469 9.57129C7.95055 9.57135 8.31093 9.67929 8.61938 9.86426L11.5481 6.93652ZM5.72875 6.39648C6.77153 6.44578 7.96322 6.78184 9.00023 7.36914C9.24048 7.50522 9.32473 7.81052 9.18871 8.05078C9.05256 8.2909 8.74728 8.37532 8.50707 8.23926C7.60186 7.72667 6.56254 7.4372 5.68188 7.39551C4.86898 7.35725 3.8539 7.68863 2.9475 8.2793C2.04143 8.86985 1.32265 9.66764 1.03441 10.4736C0.947958 10.7158 1.0285 10.9884 1.25219 11.1582C1.75434 11.5388 2.73685 12.0864 4.40746 12.2812C4.68175 12.3132 4.87888 12.5617 4.84691 12.8359C4.81474 13.11 4.56635 13.3063 4.29223 13.2744C2.44227 13.0587 1.29086 12.4426 0.647696 11.9551C0.095413 11.536 -0.14841 10.812 0.0930084 10.1367C0.478114 9.05994 1.38062 8.1079 2.4016 7.44238C3.42248 6.77712 4.64317 6.34533 5.72875 6.39648ZM7.56469 10.5713C6.98139 10.5714 6.50809 11.0446 6.50805 11.6279C6.5084 12.211 6.98158 12.6835 7.56469 12.6836C8.14776 12.6834 8.62 12.211 8.62035 11.6279C8.62031 11.0446 8.14795 10.5715 7.56469 10.5713ZM10.4407 9.45703L10.5217 9.53906C10.6912 9.70826 10.9665 9.70826 11.136 9.53906C11.3053 9.36962 11.3052 9.0943 11.136 8.9248L11.0549 8.84375L10.4407 9.45703ZM6.00414 0C7.52292 7.85988e-06 8.75414 1.23122 8.75414 2.75C8.75414 4.26878 7.52292 5.49999 6.00414 5.5C4.48536 5.5 3.25414 4.26878 3.25414 2.75C3.25414 1.23122 4.48536 1.20798e-08 6.00414 0ZM6.00414 1C5.03764 1 4.25414 1.7835 4.25414 2.75C4.25414 3.7165 5.03764 4.5 6.00414 4.5C6.97063 4.49999 7.75414 3.71649 7.75414 2.75C7.75414 1.78351 6.97063 1.00001 6.00414 1Z" fill="var(--fill-0, currentColor)"/>
</svg>
