<svg width="16" height="16" viewBox="0 0 14.002 14.0186" fill="none" xmlns="http://www.w3.org/2000/svg">
<path id="Union" d="M7.00098 0.0166016C7.15897 0.0166016 7.31615 0.0218982 7.47168 0.0322266C7.74721 0.050537 7.95581 0.288918 7.9375 0.564453C7.91897 0.839775 7.68067 1.04857 7.40527 1.03027C7.27183 1.02141 7.13681 1.0166 7.00098 1.0166C3.68687 1.01679 1.00006 3.70343 1 7.01758C1.00005 8.58668 1.60292 10.0148 2.58887 11.084C3.00521 10.4882 3.54014 9.98136 4.16406 9.59863C4.45265 9.42168 4.75707 9.2744 5.07129 9.15625C4.31785 8.5764 3.83023 7.66766 3.83008 6.64355C3.83034 4.89257 5.25004 3.47314 7.00098 3.47266C8.75232 3.47266 10.1726 4.89227 10.1729 6.64355C10.1727 7.68718 9.66596 8.60953 8.8877 9.1875C9.17385 9.30035 9.45142 9.43652 9.71582 9.59863C10.3654 9.99699 10.9176 10.5304 11.3408 11.1582C12.3688 10.0812 13.0019 8.62407 13.002 7.01758C13.002 6.9202 12.9997 6.82273 12.9951 6.72656C12.9823 6.4511 13.1953 6.21747 13.4707 6.2041C13.7465 6.19097 13.981 6.40386 13.9941 6.67969C13.9995 6.79162 14.002 6.9044 14.002 7.01758C14.0018 10.8841 10.8675 14.0186 7.00098 14.0186C3.13462 14.0184 0.000111578 10.884 0 7.01758C6.28783e-05 3.15115 3.13459 0.0167903 7.00098 0.0166016ZM6.94043 9.81543C6.14511 9.81549 5.3645 10.0354 4.68652 10.4512C4.14249 10.7849 3.68141 11.2347 3.33398 11.7656C4.34822 12.5501 5.61956 13.0185 7.00098 13.0186C8.34491 13.0186 9.58569 12.5763 10.5859 11.8301C10.2341 11.2713 9.75915 10.7982 9.19336 10.4512C8.51544 10.0355 7.73566 9.8155 6.94043 9.81543ZM7.00098 4.47266C5.80233 4.47314 4.83034 5.44485 4.83008 6.64355C4.83034 7.84225 5.80233 8.81495 7.00098 8.81543C8.20003 8.81543 9.17259 7.84255 9.17285 6.64355C9.17259 5.44456 8.20004 4.47266 7.00098 4.47266ZM11.7031 0C11.9791 0.000154586 12.2031 0.223953 12.2031 0.5V0.882812C12.4033 0.950157 12.5844 1.0576 12.7393 1.19434L13.0752 1.00195C13.3143 0.864012 13.6198 0.945509 13.7578 1.18457C13.8958 1.42355 13.814 1.72898 13.5752 1.86719L13.2402 2.06055C13.2602 2.16035 13.2715 2.26348 13.2715 2.36914C13.2715 2.4751 13.2603 2.57865 13.2402 2.67871L13.5752 2.87207C13.8139 3.01025 13.8956 3.31575 13.7578 3.55469C13.6198 3.79339 13.3141 3.8758 13.0752 3.73828L12.7383 3.54395C12.5836 3.6804 12.4029 3.78721 12.2031 3.85449V4.23926C12.2029 4.51515 11.979 4.7391 11.7031 4.73926C11.4271 4.73926 11.2033 4.51524 11.2031 4.23926V3.85449C11.0037 3.78742 10.8225 3.68191 10.668 3.5459L10.3359 3.73828C10.0969 3.87585 9.79134 3.79349 9.65332 3.55469C9.5154 3.31572 9.5972 3.01026 9.83594 2.87207L10.165 2.68164C10.1446 2.58072 10.1348 2.47608 10.1348 2.36914C10.1348 2.26217 10.1446 2.1576 10.165 2.05664L9.83594 1.86719C9.59718 1.72901 9.51542 1.42355 9.65332 1.18457C9.79138 0.945651 10.0969 0.864143 10.3359 1.00195L10.667 1.19238C10.8217 1.0561 11.0033 0.949952 11.2031 0.882812V0.5C11.2031 0.223858 11.427 0 11.7031 0ZM11.7031 1.80176C11.3893 1.80186 11.1349 2.05534 11.1348 2.36914C11.1348 2.68308 11.3892 2.9374 11.7031 2.9375C12.0169 2.93729 12.2715 2.68301 12.2715 2.36914C12.2713 2.05541 12.0168 1.80197 11.7031 1.80176Z" fill="var(--fill-0, currentColor)"/>
</svg>
