<svg width="16" height="16" viewBox="0 0 12.5031 13.2582" fill="none" xmlns="http://www.w3.org/2000/svg">
<path id="Union" d="M5.72874 6.39648C6.69194 6.44209 7.78064 6.73248 8.75608 7.2373C9.73001 7.74146 10.6297 8.48012 11.1662 9.44922C11.2997 9.69064 11.2121 9.99512 10.9709 10.1289C10.7295 10.2625 10.425 10.1749 10.2912 9.93359C9.87732 9.18595 9.15219 8.56813 8.29612 8.125C7.44181 7.68292 6.49344 7.43401 5.68186 7.39551C4.86901 7.35714 3.85393 7.68868 2.94749 8.2793C2.04136 8.86983 1.3227 9.66762 1.0344 10.4736C0.947888 10.7158 1.02832 10.9883 1.25217 11.1582C1.73967 11.5276 2.67904 12.0538 4.25901 12.2627C4.53227 12.2992 4.72458 12.5499 4.6887 12.8232C4.65253 13.0967 4.40158 13.2896 4.12815 13.2539C2.37403 13.0219 1.2724 12.4277 0.648658 11.9551C0.0959043 11.5361 -0.14861 10.8124 0.092994 10.1367C0.47816 9.05992 1.38055 8.10788 2.40159 7.44238C3.4225 6.77717 4.64318 6.34523 5.72874 6.39648ZM6.75315 11.25C7.16736 11.25 7.50315 11.5858 7.50315 12C7.50315 12.4142 7.16736 12.75 6.75315 12.75C6.33911 12.7498 6.00315 12.4141 6.00315 12C6.00315 11.5859 6.33911 11.2502 6.75315 11.25ZM9.25315 11.25C9.66736 11.25 10.0032 11.5858 10.0032 12C10.0032 12.4142 9.66736 12.75 9.25315 12.75C8.83911 12.7498 8.50315 12.4141 8.50315 12C8.50315 11.5859 8.83911 11.2502 9.25315 11.25ZM11.7532 11.25C12.1674 11.25 12.5032 11.5858 12.5032 12C12.5032 12.4142 12.1674 12.75 11.7532 12.75C11.3391 12.7498 11.0032 12.4141 11.0032 12C11.0032 11.5859 11.3391 11.2502 11.7532 11.25ZM6.00413 0C7.52253 0.000450275 8.75413 1.23149 8.75413 2.75C8.75413 4.26851 7.52253 5.49955 6.00413 5.5C4.48534 5.5 3.25413 4.26878 3.25413 2.75C3.25413 1.23122 4.48534 1.20798e-08 6.00413 0ZM6.00413 1C5.03763 1 4.25413 1.7835 4.25413 2.75C4.25413 3.7165 5.03763 4.5 6.00413 4.5C6.97024 4.49955 7.75413 3.71622 7.75413 2.75C7.75413 1.78378 6.97024 1.00045 6.00413 1Z" fill="var(--fill-0, currentColor)"/>
</svg>
