<svg width="16" height="16" viewBox="0 0 15.0001 15.0001" fill="none" xmlns="http://www.w3.org/2000/svg">
<path id="Union" fill-rule="evenodd" clip-rule="evenodd" d="M9.19926 0.67094C8.24309 -0.223647 6.75699 -0.223646 5.80082 0.67094L5.13871 1.29008C5.0407 1.38181 4.91248 1.43506 4.77836 1.43949L3.87309 1.46977C2.56407 1.51311 1.51311 2.56407 1.46977 3.87309L1.43949 4.77836C1.43506 4.91248 1.38181 5.0407 1.29008 5.13871L0.67094 5.80082C-0.223646 6.75699 -0.223647 8.24309 0.67094 9.19926L1.29008 9.86137C1.38181 9.95938 1.43506 10.0876 1.43949 10.2217L1.46977 11.127C1.51311 12.436 2.56407 13.487 3.87309 13.5303L4.77836 13.5606C4.91248 13.565 5.04069 13.6183 5.13871 13.71L5.80082 14.3291C6.75699 15.2237 8.24309 15.2237 9.19926 14.3291L9.86137 13.71C9.95939 13.6183 10.0876 13.565 10.2217 13.5606L11.127 13.5303C12.436 13.487 13.487 12.436 13.5303 11.127L13.5606 10.2217C13.565 10.0876 13.6183 9.95939 13.71 9.86137L14.3291 9.19926C15.2237 8.24309 15.2237 6.75699 14.3291 5.80082L13.71 5.13871C13.6183 5.04069 13.565 4.91248 13.5606 4.77836L13.5303 3.87309C13.487 2.56407 12.436 1.51311 11.127 1.46977L10.2217 1.43949C10.0876 1.43506 9.95938 1.38181 9.86137 1.29008L9.19926 0.67094ZM6.48344 1.40141C7.05522 0.866251 7.94486 0.866251 8.51664 1.40141L9.17778 2.02055C9.45272 2.27787 9.81213 2.42704 10.1885 2.43949L11.0938 2.46879C11.8765 2.49469 12.5054 3.12357 12.5313 3.90629L12.5606 4.81156C12.573 5.18794 12.7222 5.54737 12.9795 5.82231L13.5987 6.48344C14.1338 7.05522 14.1338 7.94486 13.5987 8.51664L12.9795 9.17778C12.7222 9.45271 12.573 9.81213 12.5606 10.1885L12.5313 11.0938C12.5054 11.8765 11.8765 12.5054 11.0938 12.5313L10.1885 12.5606C9.81215 12.573 9.45271 12.7222 9.17778 12.9795L8.51664 13.5987C7.94486 14.1338 7.05522 14.1338 6.48344 13.5987L5.82231 12.9795C5.54737 12.7222 5.18794 12.573 4.81156 12.5606L3.90629 12.5313C3.12357 12.5054 2.49469 11.8765 2.46879 11.0938L2.43949 10.1885C2.42704 9.81213 2.27787 9.45272 2.02055 9.17778L1.40141 8.51664C0.866251 7.94486 0.866251 7.05522 1.40141 6.48344L2.02055 5.82231C2.27787 5.54736 2.42704 5.18794 2.43949 4.81156L2.46879 3.90629C2.49469 3.12357 3.12357 2.49469 3.90629 2.46879L4.81156 2.43949C5.18794 2.42704 5.54736 2.27787 5.82231 2.02055L6.48344 1.40141ZM10.4075 5.95213C10.5836 5.76399 10.5739 5.46866 10.3858 5.29254C10.1976 5.1164 9.90228 5.12613 9.72616 5.31429L6.5718 8.68371L5.27417 7.29762C5.09805 7.10946 4.80272 7.09973 4.61458 7.27587C4.42642 7.45199 4.41669 7.74732 4.59283 7.93546L6.23111 9.68546C6.31936 9.77973 6.4427 9.83321 6.5718 9.83321C6.7009 9.83321 6.82425 9.77973 6.91247 9.68546L10.4075 5.95213Z" fill="var(--fill-0, currentColor)"/>
</svg>
