<svg width="16" height="16" viewBox="0 0 16 16" fill="none" xmlns="http://www.w3.org/2000/svg">
<g clip-path="url(#clip0_16897_47030)">
<path fill-rule="evenodd" clip-rule="evenodd" d="M6.98381 1.90137C7.55559 1.36621 8.44441 1.36621 9.01619 1.90137L9.67778 2.52058L9.67779 2.52059C9.95274 2.77791 10.3118 2.92664 10.6882 2.93909L11.5938 2.96905C12.3766 2.99495 13.005 3.62344 13.0309 4.40617L13.0609 5.31185C13.0734 5.68822 13.2221 6.04725 13.4794 6.32219L13.4794 6.32221L14.0986 6.98381L14.4637 6.64214L14.0986 6.98381C14.6338 7.55559 14.6338 8.44441 14.0986 9.01619L13.4794 9.67778L13.4794 9.67781C13.2221 9.95275 13.0734 10.3118 13.0609 10.6882L13.0309 11.5938C13.005 12.3766 12.3766 13.005 11.5938 13.0309L10.6881 13.0609C10.3118 13.0734 9.95274 13.2221 9.67781 13.4794L9.67778 13.4794L9.01619 14.0986C8.44441 14.6338 7.55559 14.6338 6.98381 14.0986L6.68121 14.4219L6.98381 14.0986L6.32221 13.4794L6.32219 13.4794C6.04725 13.2221 5.68822 13.0734 5.31185 13.0609L4.40617 13.0309C3.62344 13.005 2.99495 12.3766 2.96905 11.5938L2.93909 10.6882C2.92664 10.3118 2.77791 9.95274 2.52059 9.67779L2.52058 9.67778L1.90137 9.01619C1.36621 8.44441 1.36621 7.55559 1.90137 6.98381L1.57403 6.67743L1.90137 6.98381L2.52058 6.32221L2.52059 6.3222C2.77791 6.04726 2.92664 5.68822 2.93909 5.31185L2.96905 4.40617C2.99495 3.62344 3.62344 2.99495 4.40617 2.96905L5.31185 2.93909C5.68822 2.92664 6.04726 2.77791 6.3222 2.52059L6.32221 2.52058L6.98381 1.90137L6.67743 1.57403L6.98381 1.90137ZM9.69953 1.17127C8.74325 0.276245 7.25674 0.276245 6.30047 1.17127L5.63889 1.79047L5.63888 1.79048C5.54086 1.8822 5.41289 1.9352 5.27878 1.93964L4.3731 1.9696L4.38963 2.46933L4.3731 1.9696C3.06404 2.01291 2.01291 3.06404 1.9696 4.3731L2.46933 4.38963L1.9696 4.3731L1.93964 5.27878C1.9352 5.41289 1.8822 5.54086 1.79048 5.63888L1.79047 5.63889L1.17126 6.30047C0.276245 7.25674 0.276245 8.74325 1.17127 9.69953L1.79047 10.3611C1.88219 10.4591 1.9352 10.5871 1.93964 10.7212L1.9696 11.6269C2.01291 12.936 3.06403 13.9871 4.3731 14.0304L5.27878 14.0604C5.41288 14.0648 5.54085 14.1178 5.63888 14.2095L5.6389 14.2095L6.30047 14.8287C7.25674 15.7238 8.74326 15.7238 9.69953 14.8287L10.3611 14.2095L10.3611 14.2095C10.4591 14.1178 10.5871 14.0648 10.7212 14.0604L11.6269 14.0304C12.936 13.9871 13.9871 12.936 14.0304 11.6269L14.0604 10.7212C14.0648 10.5871 14.1178 10.4591 14.2095 10.3611L14.2095 10.3611L14.8287 9.69953C15.7238 8.74326 15.7238 7.25674 14.8287 6.30047L14.2095 5.6389L14.2095 5.63888C14.1178 5.54085 14.0648 5.41288 14.0604 5.27878L14.0304 4.3731C13.9871 3.06403 12.936 2.01291 11.6269 1.9696L10.7212 1.93964C10.5871 1.9352 10.4591 1.88219 10.3611 1.79047L9.69953 1.17127ZM10.9075 6.45209C11.0836 6.26395 11.0739 5.96862 10.8857 5.7925C10.6976 5.61636 10.4022 5.62609 10.2261 5.81425L7.07176 9.18367L5.77413 7.79758C5.598 7.60942 5.30268 7.59969 5.11454 7.77583C4.92638 7.95195 4.91665 8.24728 5.09279 8.43542L6.73107 10.1854C6.81932 10.2797 6.94266 10.3332 7.07176 10.3332C7.20086 10.3332 7.3242 10.2797 7.41243 10.1854L10.9075 6.45209Z" fill="currentColor"/>
</g>
<defs>
<clipPath id="clip0_16897_47030">
<rect width="16" height="16" fill="white"/>
</clipPath>
</defs>
</svg>
