<svg width="16" height="16" viewBox="0 0 16 16" fill="none" xmlns="http://www.w3.org/2000/svg">
<g id="icon/line/vertical-split">
<path id="Union" d="M14.1006 13.5098C14.3285 13.5563 14.4999 13.7584 14.5 14C14.5 14.2417 14.3285 14.4437 14.1006 14.4902L14 14.5H2C1.72386 14.5 1.5 14.2761 1.5 14C1.50011 13.7239 1.72392 13.5 2 13.5H14L14.1006 13.5098ZM14.1006 11.1602C14.3285 11.2067 14.5 11.4087 14.5 11.6504C14.4999 11.892 14.3285 12.0941 14.1006 12.1406L14 12.1504H2C1.72396 12.1504 1.50016 11.9264 1.5 11.6504C1.5 11.3742 1.72386 11.1504 2 11.1504H14L14.1006 11.1602ZM14.1006 8.80957C14.3285 8.85608 14.4999 9.05818 14.5 9.2998C14.5 9.5415 14.3285 9.7435 14.1006 9.79004L14 9.7998H2C1.72386 9.7998 1.5 9.57595 1.5 9.2998C1.50011 9.02375 1.72392 8.7998 2 8.7998H14L14.1006 8.80957ZM13 1.5C14.1046 1.5 15 2.39543 15 3.5V5.5C15 6.53565 14.2128 7.387 13.2041 7.48926L13 7.5H3L2.7959 7.48926C1.85435 7.3938 1.1062 6.64565 1.01074 5.7041L1 5.5V3.5C1 2.39543 1.89543 1.5 3 1.5H13ZM3 2.5C2.44772 2.5 2 2.94772 2 3.5V5.5C2 6.05228 2.44772 6.5 3 6.5H13C13.5523 6.5 14 6.05228 14 5.5V3.5C14 2.94772 13.5523 2.5 13 2.5H3Z" fill="var(--fill-0, currentColor)"/>
</g>
</svg>
