<svg width="16" height="16" viewBox="0 0 14 13.0107" fill="none" xmlns="http://www.w3.org/2000/svg">
<path id="Union" fill-rule="evenodd" clip-rule="evenodd" d="M7.5 12.0057H12C12.5523 12.0057 13 11.5579 13 11.0057V2.00566C13 1.45338 12.5523 1.00566 12 1.00566H7.5L7.5 12.0057ZM6.92452 0.00566047H2C0.895431 0.00566052 0 0.901091 0 2.00566V11.0057L0.0107422 11.2098C0.1062 12.1513 0.854346 12.8995 1.7959 12.9949L2 13.0057H6.92844C6.95181 13.009 6.9757 13.0107 7 13.0107C7.0243 13.0107 7.04819 13.009 7.07156 13.0057H12L12.2041 12.9949C13.2128 12.8927 14 12.0413 14 11.0057V2.00566C14 0.901091 13.1046 0.00566047 12 0.00566047H7.07548C7.05087 0.0019327 7.02566 0 7 0C6.97434 0 6.94914 0.0019327 6.92452 0.00566047ZM6.5 1.00566L6.5 12.0057H2C1.44772 12.0057 1 11.5579 1 11.0057V2.00566C1 1.45338 1.44772 1.00566 2 1.00566H6.5Z" fill="var(--fill-0, currentColor)"/>
</svg>
