<svg width="16" height="16" viewBox="0 0 14 13" fill="none" xmlns="http://www.w3.org/2000/svg">
<path id="Union" d="M12 0C13.1046 0 14 0.895431 14 2V11C14 12.0357 13.2128 12.887 12.2041 12.9893L12 13H10L9.7959 12.9893C8.85435 12.8938 8.1062 12.1457 8.01074 11.2041L8 11V2C8 0.895431 8.89543 3.22128e-08 10 0H12ZM6.25 11.625C6.52614 11.625 6.75 11.8489 6.75 12.125C6.75 12.4011 6.52614 12.625 6.25 12.625H0.5C0.223858 12.625 0 12.4011 0 12.125C0 11.8489 0.223858 11.625 0.5 11.625H6.25ZM10 1C9.44772 1 9 1.44772 9 2V11C9 11.5523 9.44772 12 10 12H12C12.5523 12 13 11.5523 13 11V2C13 1.44772 12.5523 1 12 1H10ZM6.25 7.875C6.52614 7.875 6.75 8.09886 6.75 8.375C6.75 8.65114 6.52614 8.875 6.25 8.875H0.5C0.223858 8.875 0 8.65114 0 8.375C0 8.09886 0.223858 7.875 0.5 7.875H6.25ZM6.25 4.125C6.52614 4.125 6.75 4.34886 6.75 4.625C6.75 4.90114 6.52614 5.125 6.25 5.125H0.5C0.223858 5.125 0 4.90114 0 4.625C0 4.34886 0.223858 4.125 0.5 4.125H6.25ZM6.25 0.375C6.52614 0.375 6.75 0.598858 6.75 0.875C6.75 1.15114 6.52614 1.375 6.25 1.375H0.5C0.223858 1.375 0 1.15114 0 0.875C0 0.598858 0.223858 0.375 0.5 0.375H6.25Z" fill="var(--fill-0, currentColor)"/>
</svg>
