<svg width="16" height="16" viewBox="0 0 6.99992 11" fill="none" xmlns="http://www.w3.org/2000/svg">
<path id="Union" d="M3.49996 0C3.63257 -3.1618e-09 3.75971 0.0527162 3.85348 0.146484L6.85348 3.14648C7.04874 3.34175 7.04874 3.65825 6.85348 3.85352C6.65822 4.04878 6.34171 4.04878 6.14645 3.85352L3.99996 1.70703V9.29297L6.14645 7.14648C6.34171 6.95122 6.65822 6.95122 6.85348 7.14648C7.04874 7.34175 7.04874 7.65825 6.85348 7.85352L3.85348 10.8535C3.75971 10.9473 3.63257 11 3.49996 11C3.36735 11 3.24021 10.9473 3.14645 10.8535L0.146446 7.85352C-0.0488154 7.65825 -0.0488154 7.34175 0.146446 7.14648C0.341708 6.95122 0.658215 6.95122 0.853478 7.14648L2.99996 9.29297V1.70703L0.853478 3.85352C0.658215 4.04878 0.341708 4.04878 0.146446 3.85352C-0.0488155 3.65825 -0.0488153 3.34175 0.146446 3.14648L3.14645 0.146484C3.24021 0.0527163 3.36735 9.162e-08 3.49996 0Z" fill="var(--fill-0, currentColor)"/>
</svg>
