<svg width="16" height="16" viewBox="0 0 14 12.5" fill="none" xmlns="http://www.w3.org/2000/svg">
<path id="Union" fill-rule="evenodd" clip-rule="evenodd" d="M14 2C14 0.895431 13.1046 0 12 0H2C0.895431 0 0 0.895431 0 2V10.5C0 11.6046 0.895431 12.5 2 12.5H12C13.1046 12.5 14 11.6046 14 10.5V2ZM1 2C1 1.44772 1.44772 1 2 1H12C12.5523 1 13 1.44772 13 2V10.5C13 11.0523 12.5523 11.5 12 11.5H2C1.44772 11.5 1 11.0523 1 10.5V2ZM6.12402 3.19946C5.62694 2.85157 4.94434 3.20698 4.94434 3.81372V8.29712C4.94434 8.9037 5.62698 9.25977 6.12402 8.91235L9.32715 6.67017C9.75369 6.37159 9.75369 5.73925 9.32715 5.44067L6.12402 3.19946ZM8.46094 6.05493L5.94434 7.81665V4.29321L8.46094 6.05493Z" fill="var(--fill-0, currentColor)"/>
</svg>
