<svg width="16" height="16" viewBox="0 0 15 10.9736" fill="none" xmlns="http://www.w3.org/2000/svg">
<path id="Union" fill-rule="evenodd" clip-rule="evenodd" d="M9.06738 1.86035C9.06738 1.41544 8.72829 1.04901 8.29492 1.00488L8.20703 1H1.86035C1.38574 1 1 1.38574 1 1.86035V9.11328C1 9.58789 1.38574 9.97363 1.86035 9.97363H8.20703C8.68163 9.97362 9.06738 9.58788 9.06738 9.11328V1.86035ZM10.0674 9.11328C10.0674 10.1402 9.23391 10.9736 8.20703 10.9736H1.86035C0.833457 10.9736 0 10.1402 0 9.11328V1.86035C0 0.833457 0.833457 0 1.86035 0H8.20703L8.39746 0.00976562C9.33496 0.105226 10.0674 0.89776 10.0674 1.86035V3.47949L14.2129 0.577637C14.3655 0.470784 14.5652 0.457525 14.7305 0.543457C14.8958 0.629556 15 0.800379 15 0.986816V9.98682C15 10.1733 14.8958 10.3441 14.7305 10.4302C14.5652 10.5161 14.3655 10.5028 14.2129 10.396L10.0674 7.49414V9.11328ZM10.0674 6.2738L14 9.02588V1.94678L10.0674 4.6998V6.2738ZM4.99991 2.48677C5.27606 2.48677 5.49991 2.71062 5.49991 2.98677C5.49991 3.26291 5.27606 3.48677 4.99991 3.48677H2.99991C2.72377 3.48677 2.49991 3.26291 2.49991 2.98677C2.49991 2.71062 2.72377 2.48677 2.99991 2.48677H4.99991Z" fill="var(--fill-0, currentColor)"/>
</svg>
