<svg width="16" height="16" viewBox="0 0 13.9741 13.0004" fill="none" xmlns="http://www.w3.org/2000/svg">
<path id="Union" fill-rule="evenodd" clip-rule="evenodd" d="M8.9873 0.0568272C8.82256 -0.0291643 8.62343 -0.016885 8.4707 0.0890537L3.88281 3.27265H1.67969C1.24632 3.27265 0.823266 3.43218 0.505859 3.72577C0.18737 4.02048 0.000101788 4.42863 0 4.86347V8.13691C0.000101762 8.57174 0.18737 8.9799 0.505859 9.2746C0.823265 9.56819 1.24632 9.72773 1.67969 9.72773H3.88281L8.4707 12.9113C8.62343 13.0173 8.82256 13.0295 8.9873 12.9435C9.15215 12.8573 9.25586 12.6862 9.25586 12.5002V0.500187C9.25586 0.314129 9.15215 0.143099 8.9873 0.0568272ZM1.18457 8.5412C1.06106 8.42693 1.0001 8.28035 1 8.13691V4.86347C1.0001 4.72002 1.06106 4.57344 1.18457 4.45917C1.30953 4.34359 1.48746 4.27265 1.67969 4.27265H4.03809C4.13994 4.27265 4.23955 4.24184 4.32324 4.18378L8.25586 1.45526V11.5441L4.32324 8.81659C4.26057 8.77312 4.189 8.74509 4.11426 8.73358L4.03809 8.72773H1.67969C1.48746 8.72773 1.30953 8.65678 1.18457 8.5412ZM12.6001 4.76483C12.8463 5.31018 12.9741 5.90186 12.9741 6.50019C12.9741 7.09854 12.8463 7.69017 12.6001 8.23554C12.3539 8.78093 11.9942 9.26748 11.5454 9.66327C11.3383 9.84593 11.3188 10.1622 11.5015 10.3693C11.6841 10.5764 12.0004 10.5959 12.2075 10.4133C12.7626 9.92369 13.2067 9.32123 13.5112 8.64667C13.8157 7.97203 13.9741 7.24037 13.9741 6.50019C13.9741 5.75998 13.8158 5.02835 13.5112 4.3537C13.2067 3.6791 12.7626 3.07669 12.2075 2.5871C12.0005 2.40451 11.6841 2.42412 11.5015 2.63105C11.3189 2.83809 11.3385 3.15442 11.5454 3.3371C11.9941 3.73285 12.3539 4.21952 12.6001 4.76483Z" fill="var(--fill-0, currentColor)"/>
</svg>
