<svg width="16" height="16" viewBox="0 0 16 16" fill="none" xmlns="http://www.w3.org/2000/svg">
<path fill-rule="evenodd" clip-rule="evenodd" d="M14.2404 2.15184C14.2476 2.18824 14.2508 2.22529 14.2499 2.26226V6.75C14.2499 7.02614 14.026 7.25 13.7499 7.25C13.4738 7.25 13.2499 7.02614 13.2499 6.75V3.45727L6.81156 9.89561C6.6163 10.0909 6.29972 10.0909 6.10445 9.89561C5.90919 9.70034 5.90919 9.38376 6.10445 9.1885L12.543 2.75L9.2499 2.75L9.14931 2.74023C8.92134 2.69371 8.7499 2.49171 8.7499 2.25C8.7499 2.00829 8.92134 1.80629 9.14931 1.75977L9.2499 1.75L13.7499 1.75C13.8136 1.75 13.8746 1.76192 13.9307 1.78365C13.9713 1.79937 14.0104 1.82061 14.0466 1.84736C14.1444 1.9194 14.215 2.02615 14.2401 2.14941L14.2404 2.15184ZM1.75 11.7501V4.25006C1.75 2.86935 2.86929 1.75006 4.25 1.75006H5.66406L5.76465 1.75983C5.99262 1.80635 6.16406 2.00835 6.16406 2.25006C6.16406 2.49177 5.99262 2.69377 5.76465 2.74029L5.66406 2.75006H4.25C3.42157 2.75006 2.75 3.42163 2.75 4.25006V11.7501L2.75781 11.9034C2.83461 12.6598 3.47334 13.2501 4.25 13.2501H11.75C12.5784 13.2501 13.25 12.5785 13.25 11.7501V10.336C13.25 10.0599 13.4739 9.836 13.75 9.836C14.0261 9.836 14.25 10.0599 14.25 10.336V11.7501C14.25 13.1308 13.1307 14.2501 11.75 14.2501H4.25C2.95566 14.2501 1.89082 13.2665 1.7627 12.0059L1.75 11.7501Z" fill="currentColor"/>
</svg>
