<svg width="16" height="16" viewBox="0 0 12.5 12.5001" fill="none" xmlns="http://www.w3.org/2000/svg">
<path id="Union" fill-rule="evenodd" clip-rule="evenodd" d="M10.793 1L7.4999 1C7.22375 1 6.9999 0.776142 6.9999 0.5C6.9999 0.223858 7.22375 1.36599e-07 7.4999 9.83491e-08L11.9999 0C12.052 -1.13869e-09 12.1023 0.00798408 12.1496 0.0227966C12.2242 0.0461162 12.2945 0.0873374 12.3536 0.14646C12.4543 0.247206 12.5031 0.380247 12.4999 0.512258V5C12.4999 5.27614 12.276 5.5 11.9999 5.5C11.7238 5.5 11.4999 5.27614 11.4999 5V1.70727L5.06156 8.14561C4.8663 8.34087 4.54972 8.34087 4.35445 8.14561C4.15919 7.95034 4.15919 7.63376 4.35445 7.4385L10.793 1ZM0 10.0001V2.50006C0 1.11935 1.11929 5.99623e-05 2.5 5.99623e-05H3.91406C4.19021 5.99623e-05 4.41406 0.223918 4.41406 0.50006C4.41406 0.776202 4.19021 1.00006 3.91406 1.00006H2.5C1.67157 1.00006 1 1.67163 1 2.50006V10.0001L1.00781 10.1534C1.08461 10.9098 1.72334 11.5001 2.5 11.5001H10C10.8284 11.5001 11.5 10.8285 11.5 10.0001V8.586C11.5 8.30986 11.7239 8.086 12 8.086C12.2761 8.086 12.5 8.30986 12.5 8.586V10.0001C12.5 11.3808 11.3807 12.5001 10 12.5001H2.5C1.20566 12.5001 0.140824 11.5165 0.0126953 10.2559L0 10.0001Z" fill="var(--fill-0, currentColor)"/>
</svg>
