<svg width="16" height="16" viewBox="0 0 14 14" fill="none" xmlns="http://www.w3.org/2000/svg">
<path id="Union" d="M7 0C10.866 0 14 3.13401 14 7C14 10.866 10.866 14 7 14C3.13401 14 0 10.866 0 7C0 3.13401 3.13401 5.15405e-07 7 0ZM9.08105 7.47852C8.43646 7.47914 7.76469 7.4843 7.01074 7.5C7.0038 7.50014 6.9962 7.50014 6.98926 7.5C6.27147 7.48505 5.58354 7.4796 4.91797 7.47852C4.97227 8.50276 5.13433 9.55852 5.45996 10.5039C5.79543 11.4777 6.29502 12.3056 7 12.8779C7.70498 12.3056 8.20457 11.4777 8.54004 10.5039C8.86566 9.55853 9.02675 8.50274 9.08105 7.47852ZM1.02148 7.49609C1.23402 10.0923 3.09848 12.2192 5.5625 12.8252C5.10284 12.2332 4.76211 11.5476 4.51465 10.8291C4.14536 9.75691 3.972 8.58551 3.91699 7.48047C2.91648 7.48498 1.96063 7.49261 1.02148 7.49609ZM10.082 7.48047C10.027 8.5855 9.85464 9.75693 9.48535 10.8291C9.23782 11.5477 8.89637 12.2331 8.43652 12.8252C10.901 12.2195 12.7649 10.0926 12.9775 7.49609C11.9 7.49322 10.9893 7.48561 10.082 7.48047ZM7 1.12109C6.29476 1.6934 5.7955 2.52204 5.45996 3.49609C5.13888 4.42827 4.97645 5.46775 4.91992 6.47852C5.58906 6.47961 6.28053 6.48414 6.99902 6.49902C7.75376 6.48337 8.43004 6.47916 9.0791 6.47852C9.02257 5.46777 8.86111 4.42826 8.54004 3.49609C8.2045 2.52204 7.70524 1.6934 7 1.12109ZM5.5625 1.17383C3.10085 1.77915 1.23811 3.90336 1.02246 6.49609C1.95165 6.49257 2.91121 6.48492 3.91895 6.48047C3.97609 5.38692 4.14971 4.23046 4.51465 3.1709C4.7622 2.4522 5.1026 1.766 5.5625 1.17383ZM8.43652 1.17383C8.89661 1.76611 9.23774 2.45201 9.48535 3.1709C9.85029 4.23045 10.0229 5.38693 10.0801 6.48047C10.9952 6.48556 11.9095 6.49319 12.9766 6.49609C12.7609 3.90308 10.8986 1.77884 8.43652 1.17383Z" fill="var(--fill-0, currentColor)"/>
</svg>
