<svg width="16" height="16" viewBox="0 0 15.0049 14.3716" fill="none" xmlns="http://www.w3.org/2000/svg">
<path id="Union" fill-rule="evenodd" clip-rule="evenodd" d="M7.00216 0.5V3.10059C7.00216 3.37673 7.22602 3.60059 7.50216 3.60059C7.77831 3.60059 8.00216 3.37673 8.00216 3.10059V0.5C8.00216 0.223858 7.77831 0 7.50216 0C7.22602 0 7.00216 0.223858 7.00216 0.5ZM13.9844 12.2858C13.9977 12.3463 14.0048 12.4085 14.0049 12.4704C14.005 12.6625 13.9429 12.8498 13.8291 13.0046C13.7153 13.1592 13.5553 13.2736 13.3721 13.3308C13.1888 13.3879 12.992 13.3846 12.8105 13.322C12.629 13.2592 12.4713 13.1403 12.3623 12.9821L12.3608 12.9799C12.3575 12.9751 12.3541 12.9702 12.3506 12.9655L10.002 9.83564C9.93118 9.74149 9.83003 9.67682 9.71777 9.65009L9.60254 9.63642H5.40039C5.28256 9.63649 5.16985 9.67787 5.08105 9.75166L5.00098 9.83564L2.65137 12.9655L2.64062 12.9811C2.53142 13.1388 2.37467 13.2576 2.19336 13.32C2.01215 13.3823 1.81577 13.3848 1.63281 13.3278C1.44983 13.2708 1.28953 13.1569 1.17578 13.0026C1.06218 12.8485 1.00046 12.6619 1 12.4704C1.00009 12.4085 1.00723 12.3463 1.02051 12.2858C1.02268 12.2759 1.02412 12.2656 1.02555 12.2555C1.02582 12.2535 1.02609 12.2516 1.02637 12.2497L1.94531 5.84052C1.94703 5.82854 1.94838 5.81647 1.94922 5.80439C1.98002 5.36321 2.17003 4.94849 2.4834 4.63642C2.7967 4.32446 3.21215 4.13613 3.65332 4.10713C4.09467 4.07822 4.53235 4.21066 4.88379 4.4792C5.23502 4.74772 5.47739 5.13479 5.56543 5.56806C5.61293 5.80066 5.81729 5.96823 6.05469 5.96845H8.94922C9.18683 5.96845 9.39194 5.80084 9.43945 5.56806C9.52751 5.13472 9.76977 4.74773 10.1211 4.4792C10.4725 4.2107 10.9093 4.07828 11.3506 4.10713C11.7919 4.13603 12.2081 4.32434 12.5215 4.63642C12.8348 4.94848 13.0249 5.36327 13.0557 5.80439C13.0565 5.81648 13.0579 5.82853 13.0596 5.84052L13.9775 12.2497C13.9793 12.2617 13.9818 12.274 13.9844 12.2858ZM14.6348 13.5974C14.8749 13.2708 15.005 12.8757 15.0049 12.4704V12.4694C15.0047 12.348 14.9905 12.2272 14.9668 12.1081H14.9678L14.0488 5.69892C13.9936 5.02996 13.7037 4.40167 13.2275 3.92744C12.7427 3.44468 12.0987 3.15379 11.416 3.10908C10.7333 3.06441 10.0573 3.26891 9.51367 3.68427C9.08124 4.01476 8.75879 4.46222 8.5752 4.96845H6.42969C6.24607 4.46209 5.9228 4.0148 5.49023 3.68427C4.94674 3.26907 4.27136 3.06449 3.58887 3.10908C2.90615 3.15379 2.26217 3.44468 1.77734 3.92744C1.3011 4.4017 1.01034 5.02987 0.955078 5.69892L0.0380859 12.1052C0.0271655 12.1596 0.0167623 12.2141 0.0107422 12.2692L0 12.4694V12.4714C0.000664474 12.8759 0.130236 13.2697 0.370117 13.5954C0.610214 13.9212 0.948562 14.1624 1.33496 14.2829C1.72125 14.4033 2.13594 14.3969 2.51855 14.2653C2.89518 14.1358 3.22122 13.8909 3.45117 13.5661L5.65039 10.6364H9.35254L11.5508 13.5651C11.7803 13.891 12.1063 14.137 12.4834 14.2673C12.8664 14.3996 13.282 14.4063 13.6689 14.2858C14.0559 14.1653 14.3946 13.9238 14.6348 13.5974Z" fill="var(--fill-0, currentColor)"/>
</svg>
