<svg width="16" height="16" viewBox="0 0 14.4325 11.939" fill="none" xmlns="http://www.w3.org/2000/svg">
<path id="Union" fill-rule="evenodd" clip-rule="evenodd" d="M14.2861 2.92773C12.4109 1.05325 9.86815 7.86524e-05 7.21673 0C4.56512 0 2.02169 1.05306 0.146418 2.92773C-0.0488546 3.12295 -0.0487574 3.43947 0.146418 3.63477C0.341651 3.83006 0.658158 3.83 0.853449 3.63477C2.54118 1.94763 4.83033 1 7.21673 1C9.60293 1.00008 11.8914 1.94782 13.579 3.63477C13.7743 3.82995 14.0908 3.82992 14.2861 3.63477C14.4813 3.43947 14.4814 3.12297 14.2861 2.92773ZM7.21673 4.00024C8.80705 4.0003 10.3319 4.63207 11.457 5.7561C11.6523 5.95128 11.6531 6.26779 11.4579 6.46313C11.2628 6.65845 10.9463 6.65824 10.7509 6.46313C9.81339 5.52638 8.54204 5.0003 7.21673 5.00024C5.89141 5.00024 4.6201 5.52641 3.68255 6.46313C3.48727 6.65826 3.17072 6.65831 2.97552 6.46313C2.78039 6.26785 2.78035 5.9513 2.97552 5.7561C4.1006 4.63194 5.62628 4.00024 7.21673 4.00024ZM8.21649 9.93896C8.21649 9.38668 7.76877 8.93896 7.21649 8.93896C6.6642 8.93896 6.21649 9.38668 6.21649 9.93896C6.21649 10.4913 6.6642 10.939 7.21649 10.939C7.76877 10.939 8.21649 10.4913 8.21649 9.93896ZM9.21649 9.93896C9.21649 11.0435 8.32106 11.939 7.21649 11.939C6.11192 11.939 5.21649 11.0435 5.21649 9.93896C5.21649 8.8344 6.11192 7.93896 7.21649 7.93896C8.32106 7.93896 9.21649 8.8344 9.21649 9.93896Z" fill="var(--fill-0, currentColor)"/>
</svg>
