<svg width="16" height="16" viewBox="0 0 16 16" fill="none" xmlns="http://www.w3.org/2000/svg">
<path d="M14.1396 1.68506C14.3349 1.4898 14.6514 1.4898 14.8467 1.68506C15.0355 1.8739 15.0397 2.17431 14.8633 2.37061L14.8623 2.37256L2.8623 14.3726C2.85638 14.3785 2.85224 14.3859 2.84668 14.3921L2.76855 14.4565C2.57449 14.5847 2.31051 14.563 2.13965 14.3921C1.94439 14.1968 1.94439 13.8803 2.13965 13.6851L8.31152 7.51221C8.2081 7.50575 8.10423 7.50147 8 7.50146C6.67479 7.50146 5.40335 8.02777 4.46582 8.96436C4.27053 9.15948 3.95399 9.15953 3.75879 8.96436C3.56389 8.76905 3.56369 8.45244 3.75879 8.25732C4.88384 7.13331 6.40966 6.50146 8 6.50146C8.40621 6.50148 8.8081 6.54342 9.2002 6.62354L11.5781 4.24561C10.4591 3.7606 9.24319 3.50151 8 3.50146C5.61365 3.50146 3.32444 4.44916 1.63672 6.13623C1.44143 6.33146 1.12492 6.33152 0.929688 6.13623C0.73462 5.94093 0.734451 5.62438 0.929688 5.4292C2.80495 3.55459 5.34844 2.50146 8 2.50146C9.51471 2.50151 10.9934 2.84651 12.333 3.49072L14.1396 1.68506ZM8.0166 10.9331C8.11732 10.6763 8.40722 10.5487 8.66406 10.6489C8.97439 10.7707 9.25022 10.9691 9.46484 11.2241C9.67935 11.4793 9.82778 11.7842 9.89453 12.1108C9.96125 12.4376 9.94499 12.7763 9.84766 13.0952C9.7503 13.4141 9.57468 13.7042 9.33691 13.938C9.09912 14.1717 8.80583 14.3422 8.48535 14.4341C8.1649 14.5258 7.82637 14.5356 7.50098 14.4634C7.17548 14.391 6.87258 14.239 6.62109 14.02C6.36963 13.801 6.17698 13.5219 6.06055 13.2095C5.96429 12.9507 6.09579 12.6623 6.35449 12.5659C6.61319 12.4697 6.9017 12.6022 6.99805 12.8608C7.05627 13.0169 7.15275 13.1558 7.27832 13.2651C7.40388 13.3744 7.55433 13.4516 7.7168 13.4878C7.8795 13.524 8.04972 13.519 8.20996 13.4731C8.37004 13.4272 8.51692 13.3418 8.63574 13.2251C8.75449 13.1083 8.84194 12.9625 8.89062 12.8032C8.93921 12.6439 8.94738 12.4743 8.91406 12.311C8.88065 12.1478 8.80647 11.9952 8.69922 11.8677C8.59203 11.7403 8.45473 11.6414 8.2998 11.5806C8.04319 11.4797 7.91631 11.1899 8.0166 10.9331ZM11.2119 7.43604C11.5807 7.66995 11.9264 7.94384 12.2402 8.25732C12.4355 8.45242 12.4361 8.76899 12.2412 8.96436C12.0461 9.15967 11.7295 9.15946 11.5342 8.96436C11.2185 8.64902 10.8642 8.38191 10.4834 8.16455L11.2119 7.43604ZM14.082 4.56592C14.4278 4.8304 14.7581 5.11805 15.0693 5.4292C15.2646 5.6244 15.2645 5.94093 15.0693 6.13623C14.8741 6.33139 14.5576 6.33142 14.3623 6.13623C14.0506 5.82463 13.7171 5.54008 13.3672 5.28076L14.082 4.56592Z" fill="currentColor"/>
</svg>
