<svg width="16" height="16" viewBox="0 0 14.4324 13.0002" fill="none" xmlns="http://www.w3.org/2000/svg">
<path id="Union" d="M13.3563 0.146447C13.5516 -0.0488155 13.8681 -0.0488155 14.0634 0.146447C14.2522 0.335285 14.2564 0.635694 14.08 0.831993L14.079 0.833947L2.07898 12.8339C2.07306 12.8399 2.06892 12.8473 2.06336 12.8535L1.98523 12.9179C1.79117 13.0461 1.52719 13.0243 1.35633 12.8535C1.16106 12.6582 1.16106 12.3417 1.35633 12.1464L7.5282 5.9736C7.42477 5.96714 7.32091 5.96286 7.21668 5.96285C5.89147 5.96285 4.62003 6.48916 3.6825 7.42574C3.48721 7.62087 3.17066 7.62092 2.97547 7.42574C2.78057 7.23044 2.78037 6.91383 2.97547 6.71871C4.10052 5.5947 5.62633 4.96285 7.21668 4.96285C7.62289 4.96287 8.02477 5.0048 8.41687 5.08492L10.7948 2.70699C9.67582 2.22198 8.45986 1.96289 7.21668 1.96285C4.83033 1.96285 2.54112 2.91055 0.853396 4.59762C0.658104 4.79285 0.341597 4.79291 0.146364 4.59762C-0.0487037 4.40231 -0.0488724 4.08576 0.146364 3.89059C2.02163 2.01598 4.56511 0.962853 7.21668 0.962853C8.73138 0.962898 10.2101 1.3079 11.5497 1.95211L13.3563 0.146447ZM7.23328 9.39449C7.334 9.13773 7.6239 9.01013 7.88074 9.11031C8.19107 9.23205 8.46689 9.43045 8.68152 9.68551C8.89602 9.94067 9.04446 10.2456 9.11121 10.5722C9.17793 10.899 9.16167 11.2376 9.06433 11.5566C8.96697 11.8755 8.79136 12.1656 8.55359 12.3994C8.3158 12.6331 8.02251 12.8036 7.70203 12.8955C7.38158 12.9872 7.04305 12.997 6.71765 12.9248C6.39215 12.8524 6.08926 12.7004 5.83777 12.4814C5.58631 12.2624 5.39366 11.9833 5.27722 11.6709C5.18096 11.4121 5.31246 11.1237 5.57117 11.0273C5.82987 10.9311 6.11838 11.0636 6.21472 11.3222C6.27295 11.4782 6.36942 11.6171 6.495 11.7265C6.62056 11.8358 6.771 11.913 6.93347 11.9492C7.09618 11.9854 7.2664 11.9804 7.42664 11.9345C7.58672 11.8886 7.73359 11.8032 7.85242 11.6865C7.97117 11.5697 8.05862 11.4239 8.1073 11.2646C8.15589 11.1052 8.16406 10.9357 8.13074 10.7724C8.09733 10.6092 8.02315 10.4566 7.9159 10.3291C7.8087 10.2017 7.6714 10.1028 7.51648 10.042C7.25987 9.94109 7.13299 9.65128 7.23328 9.39449ZM10.4286 5.89742C10.7974 6.13133 11.1431 6.40523 11.4569 6.71871C11.6522 6.91381 11.6528 7.23038 11.4579 7.42574C11.2627 7.62106 10.9462 7.62085 10.7509 7.42574C10.4352 7.11041 10.0809 6.84329 9.70008 6.62594L10.4286 5.89742ZM13.2987 3.02731C13.6444 3.29179 13.9747 3.57944 14.286 3.89059C14.4813 4.08578 14.4811 4.40232 14.286 4.59762C14.0908 4.79278 13.7742 4.79281 13.579 4.59762C13.2672 4.28602 12.9337 4.00147 12.5839 3.74215L13.2987 3.02731Z" fill="var(--fill-0, currentColor)"/>
</svg>
