<svg width="16" height="16" viewBox="0 0 16 16" fill="none" xmlns="http://www.w3.org/2000/svg">
<path fill-rule="evenodd" clip-rule="evenodd" d="M11.0146 1.22949C11.2908 1.22949 11.5146 1.45335 11.5146 1.72949V9.32402C12.6485 9.56129 13.5 10.5667 13.5 11.771C13.5 13.1517 12.3807 14.271 11 14.271C9.61929 14.271 8.5 13.1517 8.5 11.771C8.5 10.5563 9.36624 9.54402 10.5146 9.31808V1.72949C10.5146 1.45335 10.7385 1.22949 11.0146 1.22949ZM11 13.271C11.8284 13.271 12.5 12.5994 12.5 11.771C12.5 10.9426 11.8284 10.271 11 10.271C10.1716 10.271 9.5 10.9426 9.5 11.771C9.5 12.5994 10.1716 13.271 11 13.271ZM5 7.271C5.82843 7.271 6.5 6.59942 6.5 5.771C6.5 4.94257 5.82843 4.271 5 4.271C4.17157 4.271 3.5 4.94257 3.5 5.771C3.5 6.59942 4.17157 7.271 5 7.271ZM5.5 14.271V8.22099C6.64112 7.98935 7.5 6.98048 7.5 5.771C7.5 4.56152 6.64112 3.55264 5.5 3.32101V1.72949C5.5 1.45335 5.27614 1.22949 5 1.22949C4.72386 1.22949 4.5 1.45335 4.5 1.72949V3.32101C3.35888 3.55264 2.5 4.56152 2.5 5.771C2.5 6.98047 3.35888 7.98935 4.5 8.22099V14.271C4.5 14.5471 4.72386 14.771 5 14.771C5.27614 14.771 5.5 14.5471 5.5 14.271Z" fill="currentColor"/>
</svg>
