<svg width="16" height="16" viewBox="0 0 11 13.5415" fill="none" xmlns="http://www.w3.org/2000/svg">
<path id="Union" fill-rule="evenodd" clip-rule="evenodd" d="M11 10.5415C11 9.33721 10.1485 8.33179 9.01465 8.09453V0.5C9.01465 0.223858 8.79079 0 8.51465 0C8.23851 0 8.01465 0.223858 8.01465 0.5V8.08858C6.86624 8.31453 6 9.32686 6 10.5415C6 11.9222 7.11929 13.0415 8.5 13.0415C9.88071 13.0415 11 11.9222 11 10.5415ZM10 10.5415C10 9.71308 9.32843 9.0415 8.5 9.0415C7.67157 9.0415 7 9.71308 7 10.5415C7 11.3699 7.67157 12.0415 8.5 12.0415C9.32843 12.0415 10 11.3699 10 10.5415ZM2 6.99149V13.0415C2 13.3176 2.22386 13.5415 2.5 13.5415C2.77614 13.5415 3 13.3176 3 13.0415V6.99149C4.14112 6.75986 5 5.75098 5 4.5415C5 3.33203 4.14112 2.32315 3 2.09151V0.5C3 0.223858 2.77614 0 2.5 0C2.22386 0 2 0.223858 2 0.5V2.09151C0.85888 2.32315 0 3.33203 0 4.5415C0 5.75098 0.85888 6.75986 2 6.99149ZM2.5 6.0415C3.32843 6.0415 4 5.36993 4 4.5415C4 3.71308 3.32843 3.0415 2.5 3.0415C1.67157 3.0415 1 3.71308 1 4.5415C1 5.36993 1.67157 6.0415 2.5 6.0415Z" fill="var(--fill-0, currentColor)"/>
</svg>
