<svg width="16" height="16" viewBox="0 0 13.5009 11.0546" fill="none" xmlns="http://www.w3.org/2000/svg">
<path id="Union" d="M10.0029 0C11.9347 6.52563e-05 13.5008 1.56621 13.5009 3.49805C13.5008 5.42994 11.9347 6.99603 10.0029 6.99609H1.64837L4.85344 10.2012C5.04868 10.3964 5.04864 10.7129 4.85344 10.9082C4.65818 11.1035 4.34168 11.1035 4.14641 10.9082L0.146413 6.9082C-0.0487819 6.71294 -0.0488267 6.39641 0.146413 6.20117L4.14641 2.20117C4.34166 2.006 4.6582 2.006 4.85344 2.20117C5.04868 2.39641 5.04864 2.71294 4.85344 2.9082L1.76555 5.99609H10.0029C11.3825 5.99603 12.5008 4.87765 12.5009 3.49805C12.5008 2.1185 11.3824 1.00007 10.0029 1H8.07024C7.7942 0.999974 7.57037 0.776016 7.57024 0.5C7.57037 0.223984 7.7942 2.57731e-05 8.07024 0H10.0029Z" fill="var(--fill-0, currentColor)"/>
</svg>
