<svg width="16" height="16" viewBox="0 0 14.5 11" fill="none" xmlns="http://www.w3.org/2000/svg">
<path id="Union" fill-rule="evenodd" clip-rule="evenodd" d="M2 11H12.5C13.5357 11 14.387 10.2128 14.4893 9.2041L14.5 9V2C14.5 0.96435 13.7128 0.113005 12.7041 0.0107422L12.5 0H2L1.7959 0.0107422C0.787223 0.113005 0 0.964349 0 2V9L0.0107422 9.2041C0.113005 10.2128 0.96435 11 2 11ZM12.5 10H2C1.44772 10 1 9.55228 1 9V2C1 1.44772 1.44772 1 2 1H12.5C13.0523 1 13.5 1.44772 13.5 2V9C13.5 9.55229 13.0523 10 12.5 10ZM5.90423 2.74731C5.74939 2.66174 5.56054 2.6643 5.40814 2.75415C5.25572 2.84406 5.16205 3.00785 5.16205 3.18481V7.81567C5.16217 7.99136 5.25446 8.15414 5.40521 8.24438C5.55608 8.33466 5.74343 8.33918 5.89837 8.2561L10.1503 5.97485C10.3116 5.88828 10.4129 5.7204 10.414 5.53735C10.415 5.35449 10.3162 5.18546 10.1562 5.09692L5.90423 2.74731ZM8.8681 5.52759L6.16205 6.97876V4.03149L8.8681 5.52759Z" fill="var(--fill-0, currentColor)"/>
</svg>
