<svg width="16" height="16" viewBox="0 0 13.4998 14.0725" fill="none" xmlns="http://www.w3.org/2000/svg">
<path id="Union" d="M6.36904 0.17682C6.8877 -0.27149 7.74079 0.190702 7.58291 0.913148L6.78408 4.56159L13.0692 5.4483C13.248 5.47352 13.4 5.59363 13.4657 5.76178C13.5313 5.92985 13.5008 6.12012 13.3866 6.25983L7.22939 13.794C6.73012 14.4043 5.74851 13.9297 5.91689 13.1592L6.71474 9.50983L0.430565 8.62409C0.251781 8.59887 0.0998347 8.47876 0.0340803 8.31061C-0.0314989 8.14254 -0.000996561 7.95227 0.113182 7.81256L6.27041 0.278382L6.36904 0.17682ZM1.44814 7.75787L7.3876 8.59577C7.5253 8.61518 7.64897 8.69062 7.72842 8.80475C7.80786 8.91898 7.83627 9.0614 7.80654 9.19733L7.11611 12.3526L12.0507 6.31354L6.11221 5.47662C5.9745 5.4572 5.85083 5.38177 5.77138 5.26764C5.69194 5.15341 5.66353 5.01099 5.69326 4.87506L6.38271 1.71881L1.44814 7.75787Z" fill="var(--fill-0, currentColor)"/>
</svg>
