<svg width="16" height="16" viewBox="0 0 16 16" fill="none" xmlns="http://www.w3.org/2000/svg">
<path fill-rule="evenodd" clip-rule="evenodd" d="M8 15C11.866 15 15 11.866 15 8C15 4.13401 11.866 1 8 1C4.13401 1 1 4.13401 1 8C1 11.866 4.13401 15 8 15ZM8 3.96447C7.72386 3.96447 7.5 4.18832 7.5 4.46447V7.5H4.46447C4.18832 7.5 3.96447 7.72386 3.96447 8C3.96447 8.27614 4.18832 8.5 4.46447 8.5L7.5 8.5V11.5355C7.5 11.8117 7.72386 12.0355 8 12.0355C8.27614 12.0355 8.5 11.8117 8.5 11.5355V8.5L11.5355 8.5C11.8117 8.5 12.0355 8.27614 12.0355 8C12.0355 7.72386 11.8117 7.5 11.5355 7.5H8.5V4.46447C8.5 4.18832 8.27614 3.96447 8 3.96447Z" fill="currentColor"/>
</svg>
