<svg width="16" height="16" viewBox="0 0 16 16" fill="none" xmlns="http://www.w3.org/2000/svg">
<path fill-rule="evenodd" clip-rule="evenodd" d="M8.6464 1.97105C8.35671 1.47645 7.64177 1.47645 7.35208 1.97105L0.946257 12.9078C0.653408 13.4078 1.01398 14.0369 1.59342 14.0369H14.4051C14.9845 14.0369 15.3451 13.4078 15.0522 12.9078L8.6464 1.97105ZM7.9998 5.50774C8.27594 5.50774 8.4998 5.73159 8.4998 6.00774V9.25774C8.4998 9.53388 8.27594 9.75774 7.9998 9.75774C7.72366 9.75774 7.4998 9.53388 7.4998 9.25774V6.00774C7.4998 5.73159 7.72366 5.50774 7.9998 5.50774ZM7.99931 12.162C8.48256 12.162 8.87431 11.7703 8.87431 11.287C8.87431 10.8038 8.48256 10.412 7.99931 10.412C7.51606 10.412 7.12431 10.8038 7.12431 11.287C7.12431 11.7703 7.51606 12.162 7.99931 12.162Z" fill="currentColor"/>
</svg>
