<svg width="16" height="16" viewBox="0 0 16 16" fill="none" xmlns="http://www.w3.org/2000/svg">
<path fill-rule="evenodd" clip-rule="evenodd" d="M8 15C11.866 15 15 11.866 15 8C15 4.13401 11.866 1 8 1C4.13401 1 1 4.13401 1 8C1 11.866 4.13401 15 8 15ZM5.06598 6.45164L7.64645 3.87117C7.84171 3.67591 8.15829 3.67591 8.35355 3.87117L10.934 6.45164C11.1293 6.6469 11.1293 6.96348 10.934 7.15875C10.7388 7.35401 10.4222 7.35401 10.2269 7.15875L8.50003 5.43186V11.7753C8.50003 12.0515 8.27617 12.2753 8.00003 12.2753C7.72388 12.2753 7.50003 12.0515 7.50003 11.7753V5.43181L5.77309 7.15875C5.57782 7.35401 5.26124 7.35401 5.06598 7.15875C4.87072 6.96348 4.87072 6.6469 5.06598 6.45164Z" fill="currentColor"/>
</svg>
