<svg width="16" height="16" viewBox="0 0 16 16" fill="none" xmlns="http://www.w3.org/2000/svg">
<path fill-rule="evenodd" clip-rule="evenodd" d="M7.85241 0.522336C7.94867 0.492555 8.05169 0.492555 8.14795 0.522336L14.1818 2.389C14.3912 2.45379 14.534 2.64745 14.534 2.86667V8.93333C14.534 11.2945 12.8397 12.9418 11.2918 13.9595C10.5054 14.4764 9.72275 14.8544 9.13869 15.1028C8.84592 15.2273 8.6012 15.3201 8.42842 15.3822C8.34199 15.4132 8.27344 15.4366 8.22573 15.4525C8.20187 15.4604 8.18321 15.4665 8.17013 15.4706L8.15473 15.4755L8.15024 15.477L8.14795 15.4777C8.05169 15.5074 7.9478 15.5072 7.85154 15.4774L7.85011 15.477L7.84563 15.4755L7.83023 15.4706C7.81714 15.4665 7.79849 15.4604 7.77463 15.4525C7.72692 15.4366 7.65836 15.4132 7.57193 15.3822C7.39916 15.3201 7.15444 15.2273 6.86167 15.1028C6.27761 14.8544 5.49493 14.4764 4.70858 13.9595C3.16061 12.9418 1.46631 11.2945 1.46631 8.93333V2.86667C1.46631 2.64745 1.60911 2.45379 1.81854 2.389L7.85241 0.522336ZM11.1561 6.48606C11.3531 6.29254 11.3559 5.97597 11.1623 5.77898C10.9688 5.582 10.6522 5.5792 10.4553 5.77273L6.9905 9.1767L5.53684 7.80624C5.33591 7.61682 5.01946 7.62614 4.83004 7.82707C4.64061 8.028 4.64993 8.34444 4.85086 8.53387L6.65466 10.2344C6.85017 10.4187 7.15639 10.4156 7.34806 10.2273L11.1561 6.48606Z" fill="currentColor"/>
</svg>
