<svg width="16" height="16" viewBox="0 0 16 16" fill="none" xmlns="http://www.w3.org/2000/svg">
<path d="M12 1C13.6569 1 15 2.34315 15 4V12C15 13.6569 13.6569 15 12 15H4C2.34315 15 1 13.6569 1 12V4C1 2.34315 2.34315 1 4 1H12ZM6 5.17969V11H7.0625V8.98828H8.11328C8.58724 8.98828 8.98047 8.90885 9.29297 8.75C9.60547 8.58854 9.83984 8.36589 9.99609 8.08203C10.1523 7.79557 10.2305 7.46615 10.2305 7.09375C10.2305 6.71615 10.1523 6.38411 9.99609 6.09766C9.84245 5.80859 9.61068 5.58333 9.30078 5.42188C8.99089 5.26042 8.60156 5.17969 8.13281 5.17969H6ZM8.05859 6.08203C8.32161 6.08203 8.53516 6.1237 8.69922 6.20703C8.86328 6.29036 8.98307 6.40885 9.05859 6.5625C9.13672 6.71354 9.17578 6.89062 9.17578 7.09375C9.17578 7.29688 9.13672 7.47526 9.05859 7.62891C8.98307 7.78255 8.86328 7.90234 8.69922 7.98828C8.53776 8.07161 8.32552 8.11328 8.0625 8.11328H7.0625V6.08203H8.05859Z" fill="currentColor"/>
</svg>
