<svg width="16" height="16" viewBox="0 0 16 16" fill="none" xmlns="http://www.w3.org/2000/svg">
<path fill-rule="evenodd" clip-rule="evenodd" d="M1.32698 2.63803C1 3.27976 1 4.11984 1 5.8V10.2C1 11.8802 1 12.7202 1.32698 13.362C1.6146 13.9265 2.07354 14.3854 2.63803 14.673C3.27976 15 4.11984 15 5.8 15H10.2C11.8802 15 12.7202 15 13.362 14.673C13.9265 14.3854 14.3854 13.9265 14.673 13.362C15 12.7202 15 11.8802 15 10.2V5.8C15 4.11984 15 3.27976 14.673 2.63803C14.3854 2.07354 13.9265 1.6146 13.362 1.32698C12.7202 1 11.8802 1 10.2 1H5.8C4.11984 1 3.27976 1 2.63803 1.32698C2.07354 1.6146 1.6146 2.07354 1.32698 2.63803ZM4.5 3.75C4.08579 3.75 3.75 4.08579 3.75 4.5C3.75 4.91421 4.08579 5.25 4.5 5.25H11.5C11.9142 5.25 12.25 4.91421 12.25 4.5C12.25 4.08579 11.9142 3.75 11.5 3.75H4.5Z" fill="currentColor"/>
</svg>
