<svg width="16" height="16" viewBox="0 0 16 16" fill="none" xmlns="http://www.w3.org/2000/svg">
<path fill-rule="evenodd" clip-rule="evenodd" d="M4.98242 1.38574C4.98242 0.971529 4.64664 0.635742 4.23242 0.635742C3.81821 0.635742 3.48242 0.971529 3.48242 1.38574V2.24164C3.00345 2.27223 2.66146 2.33974 2.36893 2.4888C1.89852 2.72848 1.51607 3.11093 1.27639 3.58134C1.02549 4.07375 1.00562 4.7063 1.00404 5.89648H14.995C14.9934 4.7063 14.9735 4.07375 14.7226 3.58134C14.483 3.11093 14.1005 2.72848 13.6301 2.4888C13.3376 2.33974 12.9956 2.27223 12.5166 2.24164V1.38574C12.5166 0.971529 12.1808 0.635742 11.7666 0.635742C11.3524 0.635742 11.0166 0.971529 11.0166 1.38574V2.21631H10.9951H5.00391H4.98242V1.38574ZM14.9951 7.14648H1.00391V11.0163C1.00391 12.4164 1.00391 13.1165 1.27639 13.6513C1.51607 14.1217 1.89852 14.5041 2.36893 14.7438C2.90371 15.0163 3.60377 15.0163 5.00391 15.0163H10.9951C12.3952 15.0163 13.0953 15.0163 13.6301 14.7438C14.1005 14.5041 14.483 14.1217 14.7226 13.6513C14.9951 13.1165 14.9951 12.4164 14.9951 11.0163V7.14648Z" fill="currentColor"/>
</svg>
