<svg width="16" height="16" viewBox="0 0 16 16" fill="none" xmlns="http://www.w3.org/2000/svg">
<g clip-path="url(#clip0_3560_22697)">
<path fill-rule="evenodd" clip-rule="evenodd" d="M10.9389 8.33565L10.9503 5.67104C10.0705 5.4985 9.12651 5.37675 8.19637 5.36899C7.22061 5.36085 6.20401 5.47914 5.2512 5.65179L5.01196 8.37253C4.96868 8.86465 4.59857 9.26548 4.11146 9.34779L1.25364 9.83065C0.534322 9.95218 -0.0977267 9.34377 -0.00366703 8.62034L0.179375 7.21254C0.276434 6.46606 0.776433 5.81691 1.51494 5.57598C2.87845 5.13115 5.64353 4.34765 8.20471 4.36902C10.6875 4.38974 13.213 5.15952 14.5287 5.62802C15.3141 5.9077 15.8016 6.64826 15.8181 7.45262L15.8485 8.94506C15.8629 9.65132 15.2096 10.183 14.521 10.0254L11.7822 9.39843C11.2871 9.28509 10.9368 8.84358 10.9389 8.33565Z" fill="currentColor"/>
</g>
<defs>
<clipPath id="clip0_3560_22697">
<rect width="16" height="16" fill="white"/>
</clipPath>
</defs>
</svg>
