<svg width="16" height="16" viewBox="0 0 16 16" fill="none" xmlns="http://www.w3.org/2000/svg">
<path fill-rule="evenodd" clip-rule="evenodd" d="M6.13802 5.73633L4.24582 7.61247C4.74593 8.35658 5.32734 9.11017 5.97956 9.77337C6.66377 10.4691 7.46625 11.1043 8.26207 11.6559L10.3551 9.90127C10.7337 9.58388 11.2788 9.56215 11.6815 9.8484L14.0437 11.5278C14.6383 11.9504 14.655 12.8276 14.0769 13.2726L12.952 14.1386C12.3555 14.5979 11.543 14.7033 10.8504 14.3515C9.57172 13.7019 7.06249 12.3007 5.26657 10.4746C3.52561 8.7043 2.28411 6.37416 1.68509 5.11258C1.32751 4.35947 1.5064 3.49105 2.06356 2.91068L3.09734 1.83383C3.58655 1.32423 4.42446 1.41026 4.79991 2.00863L6.29322 4.38854C6.56318 4.81878 6.49871 5.37871 6.13802 5.73633Z" fill="currentColor"/>
</svg>
