<svg width="16" height="16" viewBox="0 0 16 16" fill="none" xmlns="http://www.w3.org/2000/svg">
<path fill-rule="evenodd" clip-rule="evenodd" d="M8 1.5C3.97691 1.5 0.5 4.08068 0.5 7.5C0.5 9.58517 1.81521 11.3748 3.72712 12.4347C3.70134 12.6878 3.62961 13.0457 3.52825 13.3343C3.40655 13.6808 3.24804 13.963 3.15736 14.1099C3.05143 14.2816 3.03801 14.4938 3.12194 14.6754C3.20936 14.8646 3.39759 15.0048 3.62977 15.0147C3.9948 15.0302 4.73389 14.9702 5.73354 14.4421C6.03818 14.2812 6.30071 14.085 6.52674 13.908C6.57888 13.8672 6.62827 13.828 6.67562 13.7906L6.67569 13.7905C6.83777 13.6621 6.97583 13.5528 7.11751 13.459C7.40709 13.4861 7.70158 13.5 8 13.5C12.0231 13.5 15.5 10.9193 15.5 7.5C15.5 4.08068 12.0231 1.5 8 1.5Z" fill="currentColor"/>
</svg>
