<svg width="16" height="16" viewBox="0 0 16 16" fill="none" xmlns="http://www.w3.org/2000/svg">
<path fill-rule="evenodd" clip-rule="evenodd" d="M8.85685 1.26795C8.23805 0.910684 7.47565 0.910684 6.85685 1.26795L2.5 3.78338C2.35078 3.86953 2.21539 3.97329 2.09581 4.09119L7.85691 7.45183L13.6179 4.09123C13.4983 3.97332 13.3629 3.86954 13.2137 3.78338L8.85685 1.26795ZM14.1319 4.94912L8.35691 8.31787L8.35691 14.9982C8.52978 14.9536 8.69804 14.8855 8.85685 14.7938L13.2137 12.2783C13.8325 11.9211 14.2137 11.2608 14.2137 10.5463V5.51543C14.2137 5.32097 14.1855 5.13053 14.1319 4.94912ZM7.35691 14.9983L7.35691 8.31787L1.58182 4.94907C1.52824 5.13049 1.5 5.32095 1.5 5.51543V10.5463C1.5 11.2608 1.8812 11.9211 2.5 12.2783L6.85685 14.7938C7.01569 14.8855 7.184 14.9536 7.35691 14.9983Z" fill="currentColor"/>
</svg>
