<svg width="16" height="16" viewBox="0 0 16 16" fill="none" xmlns="http://www.w3.org/2000/svg">
<path d="M12.5059 1.2627C13.7664 1.39082 14.75 2.45566 14.75 3.75V12.25L14.7373 12.5059C14.6092 13.7664 13.5443 14.75 12.25 14.75H3.75C2.36929 14.75 1.25 13.6307 1.25 12.25V3.75C1.25 2.45566 2.23361 1.39082 3.49414 1.2627L3.75 1.25H12.25L12.5059 1.2627ZM3.75 2.75C3.19772 2.75 2.75 3.19772 2.75 3.75V12.25C2.75 12.6876 3.03138 13.0587 3.42285 13.1943C4.0805 11.2627 5.90946 9.87305 8.06348 9.87305C10.2001 9.87325 12.0158 11.241 12.6865 13.1484C13.0198 12.9862 13.25 12.6455 13.25 12.25V3.75C13.25 3.19772 12.8023 2.75 12.25 2.75H3.75ZM8.05469 3.82129C9.55929 3.82131 10.7791 5.04133 10.7793 6.5459C10.7793 8.0506 9.55939 9.27048 8.05469 9.27051C6.55018 9.27026 5.3301 8.05046 5.33008 6.5459C5.33026 5.04147 6.55028 3.82154 8.05469 3.82129Z" fill="currentColor"/>
</svg>
