<svg width="16" height="16" viewBox="0 0 16 16" fill="none" xmlns="http://www.w3.org/2000/svg">
<path fill-rule="evenodd" clip-rule="evenodd" d="M8 15C11.866 15 15 11.866 15 8C15 4.13401 11.866 1 8 1C4.13401 1 1 4.13401 1 8C1 11.866 4.13401 15 8 15ZM8 9.89347C8.48325 9.89347 8.875 10.2852 8.875 10.7685C8.875 11.2517 8.48325 11.6435 8 11.6435C7.51675 11.6435 7.125 11.2517 7.125 10.7685C7.125 10.2852 7.51675 9.89347 8 9.89347ZM8 8.70743C8.27614 8.70743 8.5 8.48358 8.5 8.20743V4.5C8.5 4.22386 8.27614 4 8 4C7.72386 4 7.5 4.22386 7.5 4.5V8.20743C7.5 8.48358 7.72386 8.70743 8 8.70743Z" fill="currentColor"/>
</svg>
