<svg width="16" height="16" viewBox="0 0 16 16" fill="none" xmlns="http://www.w3.org/2000/svg">
<path fill-rule="evenodd" clip-rule="evenodd" d="M8 15C11.866 15 15 11.866 15 8C15 4.13401 11.866 1 8 1C4.13401 1 1 4.13401 1 8C1 11.866 4.13401 15 8 15ZM6.95696 4.00403C7.31375 4.04368 7.57084 4.36505 7.5312 4.72184L7.40449 5.86227H9.09854L9.21742 4.58961C9.25081 4.23218 9.56763 3.96949 9.92506 4.00287C10.2825 4.03626 10.5452 4.35308 10.5118 4.71051L10.4042 5.86227H11.3546C11.7135 5.86227 12.0046 6.15329 12.0046 6.51227C12.0046 6.87126 11.7135 7.16227 11.3546 7.16227H9.70785C9.69693 7.16255 9.68596 7.16255 9.67494 7.16227H7.26004L7.07338 8.84224H8.74508L8.84639 7.93043C8.88604 7.57364 9.20741 7.31655 9.5642 7.35619C9.92099 7.39583 10.1781 7.71721 10.1384 8.07399L10.0531 8.84224H11.3546C11.7135 8.84224 12.0046 9.13325 12.0046 9.49224C12.0046 9.85122 11.7135 10.1422 11.3546 10.1422H9.90864L9.76597 11.4263C9.72632 11.7831 9.40495 12.0402 9.04816 12.0005C8.69137 11.9609 8.43427 11.6395 8.47392 11.2827L8.60064 10.1422H6.92894L6.78625 11.4264C6.74661 11.7832 6.42523 12.0403 6.06845 12.0006C5.71166 11.961 5.45456 11.6396 5.4942 11.2828L5.62093 10.1422H4.65C4.29101 10.1422 4 9.85122 4 9.49224C4 9.13325 4.29101 8.84224 4.65 8.84224H5.76538L5.95204 7.16227H4.65C4.29101 7.16227 4 6.87126 4 6.51227C4 6.15329 4.29101 5.86227 4.65 5.86227H6.09649L6.23915 4.57828C6.2788 4.22149 6.60017 3.96439 6.95696 4.00403Z" fill="currentColor"/>
</svg>
