<svg width="16" height="16" viewBox="0 0 16 16" fill="none" xmlns="http://www.w3.org/2000/svg">
<path fill-rule="evenodd" clip-rule="evenodd" d="M8 15C11.866 15 15 11.866 15 8C15 4.13401 11.866 1 8 1C4.13401 1 1 4.13401 1 8C1 11.866 4.13401 15 8 15ZM10.4495 5C10.7257 5 10.9495 5.22386 10.9495 5.5V5.56334C10.9498 5.57334 10.9498 5.58335 10.9495 5.59335V9.74264C10.9495 10.0188 10.7257 10.2426 10.4495 10.2426C10.1734 10.2426 9.94952 10.0188 9.94952 9.74264V6.78568L5.85355 10.8816C5.65829 11.0769 5.34171 11.0769 5.14645 10.8816C4.95118 10.6864 4.95118 10.3698 5.14645 10.1745L9.32099 6H6.20688C5.93074 6 5.70688 5.77614 5.70688 5.5C5.70688 5.22386 5.93074 5 6.20688 5H10.4495Z" fill="currentColor"/>
</svg>
