<svg width="16" height="16" viewBox="0 0 16 16" fill="none" xmlns="http://www.w3.org/2000/svg">
<path d="M7.75437 2.89961C6.16776 1.31331 3.59517 1.31341 2.00868 2.8999C0.412961 4.49562 0.447055 6.94017 1.99338 8.62988C1.99978 8.63687 2.00637 8.64367 2.01315 8.65029L7.65059 14.1479C7.8448 14.3373 8.1546 14.3373 8.34879 14.1479L13.9853 8.65026C13.9884 8.64726 13.9914 8.64423 13.9944 8.64116C13.9969 8.63861 13.9994 8.63604 14.0018 8.63345C15.6484 6.86893 15.577 4.48711 13.9898 2.90079C12.4032 1.31421 9.83039 1.31421 8.2438 2.90079C8.15566 2.98893 8.07468 3.08 7.9998 3.17293C7.92458 3.07957 7.84313 2.98808 7.75437 2.89961Z" fill="currentColor"/>
</svg>
