<svg width="16" height="16" viewBox="0 0 16 16" fill="none" xmlns="http://www.w3.org/2000/svg">
<path fill-rule="evenodd" clip-rule="evenodd" d="M3.5 1.5H12.5C13.8807 1.5 15 2.61929 15 4V10.2137L10.7102 7.20265C10.3584 6.95576 9.88119 6.992 9.57075 7.28917L2.33719 14.2137C1.54212 13.7952 1 12.9609 1 12V4C1 2.61929 2.11929 1.5 3.5 1.5ZM3.48427 14.5C3.48951 14.5 3.49475 14.5 3.5 14.5H12.5C13.8807 14.5 15 13.3807 15 12V11.433C14.9874 11.4257 14.9749 11.4178 14.9628 11.4093L10.2029 8.06836L3.48427 14.5Z" fill="currentColor"/>
<path d="M5.25 4.5C5.94036 4.5 6.5 5.05964 6.5 5.75C6.5 6.44036 5.94036 7 5.25 7C4.55964 7 4 6.44036 4 5.75C4 5.05964 4.55964 4.5 5.25 4.5Z" fill="currentColor" stroke="white"/>
</svg>
