<svg width="16" height="16" viewBox="0 0 16 16" fill="none" xmlns="http://www.w3.org/2000/svg">
<path fill-rule="evenodd" clip-rule="evenodd" d="M8 15C11.866 15 15 11.866 15 8C15 4.13401 11.866 1 8 1C4.13401 1 1 4.13401 1 8C1 11.866 4.13401 15 8 15ZM8 13.25C5.1005 13.25 2.75 10.8995 2.75 8C2.75 5.1005 5.1005 2.75 8 2.75C10.8995 2.75 13.25 5.1005 13.25 8C13.25 10.8995 10.8995 13.25 8 13.25ZM10.8284 10.8284C10.0783 11.5786 9.06087 12 8 12V8L8 4C9.06087 4 10.0783 4.42143 10.8284 5.17157C11.5786 5.92172 12 6.93913 12 8C12 9.06087 11.5786 10.0783 10.8284 10.8284Z" fill="currentColor"/>
</svg>
