<svg width="16" height="16" viewBox="0 0 16 16" fill="none" xmlns="http://www.w3.org/2000/svg">
<path fill-rule="evenodd" clip-rule="evenodd" d="M1 8C1 4.15 4.15 1 8 1C11.85 1 15 4.15 15 8C15 11.85 11.85 15 8 15C4.15 15 1 11.85 1 8ZM10.9633 5.9244L9.65472 8.75477C9.3743 9.13215 9.09389 9.41518 8.72 9.60388L5.91584 10.9247C5.355 11.2078 4.79417 10.6417 5.07459 10.0756L6.3832 7.24523C6.57014 6.86785 6.85056 6.49047 7.22445 6.39612L10.0286 5.07528C10.5894 4.79225 11.1503 5.35832 10.9633 5.9244Z" fill="currentColor"/>
</svg>
