<svg width="16" height="16" viewBox="0 0 16 16" fill="none" xmlns="http://www.w3.org/2000/svg">
<path fill-rule="evenodd" clip-rule="evenodd" d="M9.375 1V3.99989C9.375 5.44965 10.5503 6.6249 12 6.62489L14.4971 6.62487V12.5C14.4971 13.8807 13.3778 15 11.9971 15H3.99707C2.61636 15 1.49707 13.8807 1.49707 12.5V3.5C1.49707 2.11929 2.61636 1 3.99707 1H9.375ZM10.625 1.18038V3.99989C10.625 4.75929 11.2406 5.3749 12 5.37489L14.4223 5.37488C14.3208 4.96907 14.1181 4.59191 13.8291 4.2806L11.5246 1.79887C11.2713 1.52607 10.9633 1.31635 10.625 1.18038ZM5 10.875C4.65482 10.875 4.375 11.1548 4.375 11.5C4.375 11.8452 4.65482 12.125 5 12.125H8C8.34518 12.125 8.625 11.8452 8.625 11.5C8.625 11.1548 8.34518 10.875 8 10.875H5ZM4.125 9C4.125 8.65482 4.40482 8.375 4.75 8.375H11.25C11.5952 8.375 11.875 8.65482 11.875 9C11.875 9.34518 11.5952 9.625 11.25 9.625H4.75C4.40482 9.625 4.125 9.34518 4.125 9Z" fill="currentColor"/>
</svg>
