<svg width="16" height="16" viewBox="0 0 16 16" fill="none" xmlns="http://www.w3.org/2000/svg">
<path fill-rule="evenodd" clip-rule="evenodd" d="M2.5 11.0001L2.77192 11.0001C2.8838 11.0001 2.9747 10.9098 2.97542 10.7979L3 6.99994C2.97574 5.44236 3.87474 3.2922 6.04432 2.61599C6.3054 2.53461 6.5 2.30321 6.5 2.02975V1.99994C6.5 1.17152 7.17158 0.499966 8 0.5C8.82843 0.5 9.5 1.17157 9.5 2V2.02978C9.5 2.30326 9.69463 2.53464 9.95568 2.61612C12.1223 3.29239 13 5.44243 13 6.99994L12.9755 10.7884C12.9747 10.9051 13.0691 11.0001 13.1858 11.0001H13.5007C14.053 11.0001 14.5007 11.4478 14.5007 12.0001C14.5007 12.5524 14.053 13.0001 13.5007 13.0001H2.49999C1.94771 13.0001 1.5 12.5524 1.5 12.0001C1.5 11.4478 1.94772 11.0001 2.5 11.0001ZM9.75 13.9999C9.75 14.9664 8.9665 15.7499 8 15.7499C7.0335 15.7499 6.25 14.9664 6.25 13.9999H9.75Z" fill="currentColor"/>
</svg>
