<svg width="16" height="16" viewBox="0 0 16 16" fill="none" xmlns="http://www.w3.org/2000/svg">
<g clip-path="url(#clip0_7271_141133)">
<path fill-rule="evenodd" clip-rule="evenodd" d="M8 0.75C3.99594 0.75 0.75 3.99594 0.75 8C0.75 12.0041 3.99594 15.25 8 15.25C12.0041 15.25 15.25 12.0041 15.25 8C15.25 3.99594 12.0041 0.75 8 0.75ZM8.64206 4.39639C8.71291 4.41644 8.78292 4.43987 8.85182 4.46665C9.25994 4.6253 9.61506 4.8964 9.86794 5.25157C10.1212 5.6073 10.2592 6.03003 10.2592 6.46615H9.00922C9.00922 6.2956 8.95554 6.12527 8.84966 5.97656C8.74339 5.8273 8.58804 5.70524 8.39892 5.63172C8.20958 5.55812 7.99918 5.53834 7.79584 5.5763C7.59259 5.61424 7.41098 5.70704 7.27209 5.83739C7.13362 5.96734 7.04427 6.12797 7.00854 6.29653C6.9729 6.46472 6.99077 6.63953 7.06191 6.80071C7.1333 6.96247 7.25714 7.1072 7.42407 7.21188C7.59134 7.31677 7.79185 7.37486 7.99997 7.37486C8.43851 7.37486 8.87035 7.49707 9.2404 7.72912C9.61097 7.9615 9.90606 8.29583 10.0821 8.69457C10.2583 9.09388 10.3052 9.53583 10.2147 9.96266C10.1243 10.3891 9.90235 10.7751 9.58371 11.0741C9.31739 11.324 8.99323 11.5044 8.64206 11.6037V12.2239H7.39206V11.6129C7.30968 11.5909 7.22839 11.5644 7.14858 11.5334C6.74046 11.3747 6.38533 11.1036 6.13246 10.7484C5.87919 10.3927 5.74118 9.96998 5.74118 9.53386H6.99118C6.99118 9.70441 7.04486 9.87474 7.15074 10.0234C7.25701 10.1727 7.41235 10.2948 7.60148 10.3683C7.79082 10.4419 8.00121 10.4617 8.20456 10.4237C8.4078 10.3858 8.58942 10.293 8.72831 10.1626C8.86678 10.0327 8.95612 9.87204 8.99185 9.70348C9.0275 9.53529 9.00963 9.36048 8.93849 9.1993C8.86709 9.03754 8.74325 8.89281 8.57632 8.78813C8.40888 8.68313 8.20788 8.62486 7.99997 8.62486C7.56164 8.62486 7.13022 8.50305 6.75999 8.27089C6.38942 8.03851 6.09433 7.70418 5.91834 7.30544C5.7421 6.90613 5.69524 6.46418 5.78571 6.03735C5.8761 5.61089 6.09805 5.22495 6.41668 4.92592C6.69151 4.668 7.02792 4.48414 7.39206 4.387V3.77637H8.64206V4.39639Z" fill="currentColor"/>
</g>
<defs>
<clipPath id="clip0_7271_141133">
<rect width="16" height="16" fill="white"/>
</clipPath>
</defs>
</svg>
