<svg width="16" height="16" viewBox="0 0 16 16" fill="none" xmlns="http://www.w3.org/2000/svg">
<path d="M8.38443 1.81579C9.40013 0.99667 10.87 1.07519 11.7927 1.99785L14.2521 4.45733C15.1748 5.37999 15.2533 6.84987 14.4342 7.86557L11.403 11.6243C11.2406 11.8257 11.1318 12.065 11.0868 12.3197L10.8071 13.9052C10.6635 14.7189 9.66337 15.0341 9.07912 14.4499L5.99707 11.3135L4.00733 13.3033C3.71444 13.5962 3.23956 13.5962 2.94667 13.3033C2.65378 13.0104 2.65378 12.5355 2.94667 12.2426L4.9364 10.2529L1.80011 7.17088C1.21586 6.58663 1.5311 5.58654 2.34479 5.44295L3.93025 5.16316C4.18505 5.1182 4.42431 5.00943 4.62571 4.84701L8.38443 1.81579Z" fill="currentColor"/>
</svg>
