<svg width="16" height="16" viewBox="0 0 16 16" fill="none" xmlns="http://www.w3.org/2000/svg">
<path fill-rule="evenodd" clip-rule="evenodd" d="M1 8C1 4.13401 4.13401 1 8 1C9.85652 1 11.637 1.7375 12.9497 3.05025C14.2625 4.36301 15 6.14348 15 8C15 11.866 11.866 15 8 15C4.13401 15 1 11.866 1 8ZM7.13056 10.6845L10.517 8.44742C10.6787 8.35167 10.7772 8.18235 10.7772 8C10.7772 7.81765 10.6787 7.64833 10.517 7.55258L7.13056 5.3155C6.94215 5.18647 6.69625 5.16386 6.48572 5.2562C6.2752 5.34854 6.13213 5.54177 6.11055 5.76292V10.2371C6.13213 10.4582 6.2752 10.6515 6.48572 10.7438C6.69625 10.8361 6.94215 10.8135 7.13056 10.6845Z" fill="currentColor"/>
</svg>
