<svg width="16" height="16" viewBox="0 0 16 16" fill="none" xmlns="http://www.w3.org/2000/svg">
<path d="M12.5 1C13.6046 1 14.5 1.89543 14.5 3V13C14.5 14.1046 13.6046 15 12.5 15H3.5C2.39543 15 1.5 14.1046 1.5 13V3C1.5 1.89543 2.39543 1 3.5 1H12.5ZM6.82715 10.0654C6.6183 9.88506 6.30262 9.90762 6.12207 10.1162L4.79492 11.6514L4.37207 11.1807C4.18734 10.9754 3.87029 10.9588 3.66504 11.1436C3.46047 11.3284 3.44344 11.6446 3.62793 11.8496L4.43164 12.7422C4.52762 12.8487 4.66523 12.9087 4.80859 12.9072C4.95193 12.9058 5.08784 12.8428 5.18164 12.7344L6.87793 10.7705C7.05823 10.5617 7.03552 10.246 6.82715 10.0654ZM9 11C8.72386 11 8.5 11.2239 8.5 11.5C8.5 11.7761 8.72386 12 9 12H12C12.2761 12 12.5 11.7761 12.5 11.5C12.5 11.2239 12.2761 11 12 11H9ZM9 7C8.72386 7 8.5 7.22386 8.5 7.5C8.5 7.77614 8.72386 8 9 8H12C12.2761 8 12.5 7.77614 12.5 7.5C12.5 7.22386 12.2761 7 12 7H9ZM9 4C8.72386 4 8.5 4.22386 8.5 4.5C8.5 4.77614 8.72386 5 9 5H12C12.2761 5 12.5 4.77614 12.5 4.5C12.5 4.22386 12.2761 4 12 4H9Z" fill="currentColor"/>
<path d="M4.5 4.5H6.5C6.77614 4.5 7 4.72386 7 5V7C7 7.27614 6.77614 7.5 6.5 7.5H4.5C4.22386 7.5 4 7.27614 4 7V5C4 4.72386 4.22386 4.5 4.5 4.5Z" fill="currentColor" stroke="white"/>
</svg>
