<svg width="16" height="16" viewBox="0 0 16 16" fill="none" xmlns="http://www.w3.org/2000/svg">
<path fill-rule="evenodd" clip-rule="evenodd" d="M1.5 2.88462H7.83412C7.94182 2.88462 8.04664 2.84984 8.13298 2.78547L9.79065 1.54957C9.83382 1.51739 9.88623 1.5 9.94008 1.5H14.5C14.7761 1.5 15 1.72386 15 2V12.5C15 13.6046 14.1046 14.5 13 14.5H3C1.89543 14.5 1 13.6046 1 12.5V3.38462C1 3.10847 1.22386 2.88462 1.5 2.88462ZM7.86854 7C8.26452 7 8.61469 7.19614 8.82719 7.49657C8.74496 7.71539 8.69999 7.95244 8.69999 8.2C8.69999 8.43431 8.74028 8.65921 8.81431 8.86815C8.6007 9.15847 8.25662 9.34686 7.86854 9.34686C7.22047 9.34686 6.6951 8.8215 6.6951 8.17343C6.6951 7.52536 7.22047 7 7.86854 7ZM7.57935 11.1867C7.69639 10.6592 7.9974 10.2118 8.40569 9.9058H7.24106C6.43502 9.9058 5.73713 10.4656 5.56228 11.2525L5.52082 11.439C5.40149 11.976 5.81012 12.4854 6.36022 12.4854H7.87105C7.58557 12.2324 7.43551 11.8348 7.52653 11.4247L7.57935 11.1867ZM10.6325 9.34686C11.2806 9.34686 11.806 8.8215 11.806 8.17343C11.806 7.52536 11.2806 7 10.6325 7C9.98446 7 9.4591 7.52536 9.4591 8.17343C9.4591 8.8215 9.98446 9.34686 10.6325 9.34686ZM8.32639 11.2524C8.50124 10.4655 9.19913 9.90571 10.0052 9.90571H11.2588C12.0649 9.90571 12.7628 10.4655 12.9376 11.2524L12.9791 11.4389C13.0984 11.9759 12.6898 12.4853 12.1397 12.4853H9.12433C8.57423 12.4853 8.1656 11.9759 8.28494 11.4389L8.32639 11.2524Z" fill="currentColor"/>
</svg>
