<svg width="16" height="16" viewBox="0 0 16 16" fill="none" xmlns="http://www.w3.org/2000/svg">
<path fill-rule="evenodd" clip-rule="evenodd" d="M2.8418 1.2583C1.73723 1.2583 0.841797 2.15373 0.841797 3.2583V12.2417C0.841797 13.6224 1.96109 14.7417 3.3418 14.7417H12.6574C14.0381 14.7417 15.1574 13.6224 15.1574 12.2417V5.89216C15.1574 5.88706 15.1574 5.88196 15.1574 5.87687C15.1569 5.81305 15.1534 5.74994 15.1471 5.68767C15.0447 4.67916 14.193 3.89216 13.1574 3.89216H8.08621L6.86329 1.95698C6.81561 1.88153 6.7618 1.81124 6.70274 1.74658C6.4213 1.43847 6.02055 1.2583 5.59526 1.2583H2.8418ZM9.3267 7.49657C9.1142 7.19614 8.76403 7 8.36805 7C7.71998 7 7.19461 7.52536 7.19461 8.17343C7.19461 8.8215 7.71998 9.34686 8.36805 9.34686C8.75613 9.34686 9.10021 9.15847 9.31383 8.86815C9.23979 8.65921 9.1995 8.43431 9.1995 8.2C9.1995 7.95244 9.24448 7.71539 9.3267 7.49657ZM8.90521 9.9058C8.49691 10.2118 8.19591 10.6592 8.07886 11.1867L8.02604 11.4247C7.93503 11.8348 8.08508 12.2324 8.37056 12.4854H6.85973C6.30963 12.4854 5.901 11.976 6.02034 11.439L6.06179 11.2525C6.23664 10.4656 6.93453 9.9058 7.74057 9.9058H8.90521ZM12.3055 8.17343C12.3055 8.8215 11.7801 9.34686 11.132 9.34686C10.484 9.34686 9.95861 8.8215 9.95861 8.17343C9.95861 7.52536 10.484 7 11.132 7C11.7801 7 12.3055 7.52536 12.3055 8.17343ZM10.5047 9.90571C9.69864 9.90571 9.00075 10.4655 8.8259 11.2524L8.78445 11.4389C8.66511 11.9759 9.07374 12.4853 9.62384 12.4853H12.6392C13.1893 12.4853 13.5979 11.9759 13.4786 11.4389L13.4371 11.2524C13.2623 10.4655 12.5644 9.90571 11.7584 9.90571H10.5047ZM13.1574 2.89216C13.9247 2.89216 14.6248 3.18023 15.1553 3.65412C15.107 2.59247 14.2309 1.74658 13.1574 1.74658H7.91327L8.63721 2.89216H13.1574Z" fill="currentColor"/>
</svg>
