<svg width="16" height="16" viewBox="0 0 16 16" fill="none" xmlns="http://www.w3.org/2000/svg">
<path fill-rule="evenodd" clip-rule="evenodd" d="M11.5 2H11.4146C11.4699 2.15639 11.5 2.32468 11.5 2.5C11.5 3.32843 10.8284 4 10 4H6C5.17157 4 4.5 3.32843 4.5 2.5C4.5 2.32468 4.53008 2.15639 4.58535 2H4.5C3.11929 2 2 3.11929 2 4.5V12.5C2 13.8807 3.11929 15 4.5 15H11.5C12.8807 15 14 13.8807 14 12.5V4.5C14 3.11929 12.8807 2 11.5 2ZM4.82422 5.80005C4.54808 5.80005 4.32422 6.02391 4.32422 6.30005C4.32422 6.57619 4.54808 6.80005 4.82422 6.80005H8H11.1758C11.4519 6.80005 11.6758 6.57619 11.6758 6.30005C11.6758 6.02391 11.4519 5.80005 11.1758 5.80005H8H4.82422ZM4.32422 9C4.32422 8.72386 4.54808 8.5 4.82422 8.5H11.1758C11.4519 8.5 11.6758 8.72386 11.6758 9C11.6758 9.27614 11.4519 9.5 11.1758 9.5H4.82422C4.54808 9.5 4.32422 9.27614 4.32422 9ZM5.5 2.5C5.5 2.22386 5.72386 2 6 2H10C10.2761 2 10.5 2.22386 10.5 2.5C10.5 2.77614 10.2761 3 10 3H6C5.72386 3 5.5 2.77614 5.5 2.5Z" fill="currentColor"/>
</svg>
