<svg width="16" height="16" viewBox="0 0 16 16" fill="none" xmlns="http://www.w3.org/2000/svg">
<path fill-rule="evenodd" clip-rule="evenodd" d="M9.22164 14.8784C9.71871 15.3754 10.5246 15.3754 11.0216 14.8783L14.8782 11.0208C15.3751 10.5238 15.375 9.71805 14.8781 9.22109L8.70748 3.05051C7.14538 1.48841 4.61272 1.48841 3.05062 3.05051C1.48853 4.61261 1.48853 7.14527 3.05062 8.70736L9.22164 14.8784ZM6.40927 4.64139C5.92111 4.15323 5.12966 4.15323 4.6415 4.64139C4.15335 5.12954 4.15335 5.921 4.6415 6.40915C5.12966 6.89731 5.92111 6.89731 6.40927 6.40915C6.89742 5.921 6.89742 5.12954 6.40927 4.64139Z" fill="currentColor"/>
</svg>
