<svg width="16" height="16" viewBox="0 0 16 16" fill="none" xmlns="http://www.w3.org/2000/svg">
<path fill-rule="evenodd" clip-rule="evenodd" d="M5 1C2.79086 1 1 2.79086 1 5V11C1 13.2091 2.79086 15 5 15H11C13.2091 15 15 13.2091 15 11V5C15 2.79086 13.2091 1 11 1H5ZM11.791 5.64517C11.9715 5.43618 11.9484 5.12044 11.7394 4.93995C11.5304 4.75946 11.2147 4.78256 11.0342 4.99155L6.77315 9.92538L4.95856 7.90917C4.77383 7.70392 4.45769 7.68728 4.25243 7.87201C4.04718 8.05674 4.03054 8.37288 4.21527 8.57814L6.40924 11.0159C6.50525 11.1226 6.64248 11.1828 6.786 11.1814C6.92952 11.1799 7.06549 11.1168 7.1593 11.0082L11.791 5.64517Z" fill="currentColor"/>
</svg>
