<svg width="16" height="16" viewBox="0 0 16 16" fill="none" xmlns="http://www.w3.org/2000/svg">
<path fill-rule="evenodd" clip-rule="evenodd" d="M8 15C11.866 15 15 11.866 15 8C15 4.13401 11.866 1 8 1C4.13401 1 1 4.13401 1 8C1 11.866 4.13401 15 8 15ZM5.20706 6.99992H10.7928C11.2383 6.99992 11.4614 6.46135 11.1464 6.14637L8.3535 3.35348C8.15824 3.15822 7.84166 3.15822 7.6464 3.35348L4.8535 6.14637C4.53852 6.46135 4.76161 6.99992 5.20706 6.99992ZM10.7928 8.99992H5.20706C4.76161 8.99992 4.53852 9.53849 4.8535 9.85348L7.29284 12.2928C7.68337 12.6833 8.31653 12.6833 8.70706 12.2928L11.1464 9.85348C11.4614 9.53849 11.2383 8.99992 10.7928 8.99992Z" fill="currentColor"/>
</svg>
