<svg width="16" height="16" viewBox="0 0 16 16" fill="none" xmlns="http://www.w3.org/2000/svg">
<path fill-rule="evenodd" clip-rule="evenodd" d="M6.64214 1.53632C7.40616 0.821228 8.59383 0.821228 9.35786 1.53632L10.0195 2.15553C10.2059 2.33005 10.4494 2.43092 10.7047 2.43936L11.6104 2.46933C12.6563 2.50393 13.4961 3.34374 13.5307 4.38963L13.5606 5.29532C13.5691 5.55056 13.6699 5.79406 13.8445 5.98055L14.4637 6.64214C15.1788 7.40616 15.1788 8.59383 14.4637 9.35786L13.8445 10.0195C13.6699 10.2059 13.5691 10.4494 13.5606 10.7047L13.5307 11.6104C13.4961 12.6563 12.6563 13.4961 11.6104 13.5307L10.7047 13.5606C10.4494 13.5691 10.2059 13.6699 10.0195 13.8445L9.35786 14.4637C8.59383 15.1788 7.40616 15.1788 6.64214 14.4637L5.98055 13.8445C5.79406 13.6699 5.55056 13.5691 5.29532 13.5606L4.38963 13.5307C3.34374 13.4961 2.50393 12.6563 2.46933 11.6104L2.43936 10.7047C2.43092 10.4494 2.33005 10.2059 2.15553 10.0195L1.53632 9.35786C0.821228 8.59383 0.821228 7.40616 1.53632 6.64214L2.15553 5.98055C2.33005 5.79406 2.43092 5.55056 2.43936 5.29532L2.46933 4.38963C2.50393 3.34374 3.34374 2.50393 4.38963 2.46933L5.29532 2.43936C5.55056 2.43092 5.79406 2.33005 5.98055 2.15553L6.64214 1.53632ZM10.9073 6.45225C11.0835 6.26411 11.0737 5.96879 10.8856 5.79267C10.6974 5.61652 10.4021 5.62625 10.226 5.81441L7.07163 9.18384L5.774 7.79774C5.59788 7.60958 5.30255 7.59985 5.11441 7.776C4.92625 7.95212 4.91652 8.24745 5.09267 8.43558L6.73094 10.1856C6.81919 10.2799 6.94253 10.3333 7.07163 10.3333C7.20074 10.3333 7.32408 10.2799 7.4123 10.1856L10.9073 6.45225Z" fill="currentColor"/>
</svg>
