<svg width="16" height="16" viewBox="0 0 16 16" fill="none" xmlns="http://www.w3.org/2000/svg">
<path d="M8 10.5C8.93378 10.5 9.71532 11.1406 9.93555 12.0059C9.95672 12.0031 9.97808 12 10 12H14.5C14.7761 12 15 12.2239 15 12.5C15 12.7761 14.7761 13 14.5 13H10C9.97804 13 9.95676 12.9959 9.93555 12.9932C9.71564 13.8589 8.93411 14.5 8 14.5C7.06581 14.5 6.2833 13.859 6.06348 12.9932C6.04257 12.9958 6.02163 13 6 13H1.5C1.22386 13 1 12.7761 1 12.5C1 12.2239 1.22386 12 1.5 12H6C6.02158 12 6.04261 12.0032 6.06348 12.0059C6.28362 11.1405 7.06614 10.5 8 10.5ZM8 11.5C7.44772 11.5 7 11.9477 7 12.5C7 13.0523 7.44772 13.5 8 13.5C8.55228 13.5 9 13.0523 9 12.5C9 11.9477 8.55228 11.5 8 11.5ZM11 1C11.8284 1 12.5 1.67157 12.5 2.5V7C12.5 7.82843 11.8284 8.5 11 8.5H9.91406C9.78151 8.50004 9.65428 8.55275 9.56055 8.64648L8.53027 9.67676L8.47363 9.72852C8.17906 9.9688 7.74433 9.95134 7.46973 9.67676L6.43945 8.64648C6.34572 8.55275 6.21849 8.50004 6.08594 8.5H5C4.17157 8.5 3.5 7.82843 3.5 7V2.5C3.5 1.67157 4.17157 1 5 1H11ZM5 2C4.72386 2 4.5 2.22386 4.5 2.5V7C4.5 7.27614 4.72386 7.5 5 7.5H6.08594C6.48371 7.50004 6.86522 7.65818 7.14648 7.93945L8 8.79297L8.85352 7.93945C9.13478 7.65818 9.51629 7.50004 9.91406 7.5H11C11.2761 7.5 11.5 7.27614 11.5 7V2.5C11.5 2.22386 11.2761 2 11 2H5Z" fill="currentColor"/>
</svg>
