<svg width="16" height="16" viewBox="0 0 16 16" fill="none" xmlns="http://www.w3.org/2000/svg">
<path fill-rule="evenodd" clip-rule="evenodd" d="M13.6367 3.25C13.6367 3.80228 13.189 4.25 12.6367 4.25C12.0844 4.25 11.6367 3.80228 11.6367 3.25C11.6367 2.69772 12.0844 2.25 12.6367 2.25C13.189 2.25 13.6367 2.69772 13.6367 3.25ZM14.6367 3.25C14.6367 4.35457 13.7413 5.25 12.6367 5.25C11.5321 5.25 10.6367 4.35457 10.6367 3.25C10.6367 2.14543 11.5321 1.25 12.6367 1.25C13.7413 1.25 14.6367 2.14543 14.6367 3.25ZM5.4015 3.61987C5.7425 2.01083 8.03918 2.01082 8.38018 3.61987L8.88641 6.00855L11.2751 6.51478C12.8841 6.85578 12.8841 9.15246 11.2751 9.49346L8.88641 9.99969L8.38018 12.3884C8.03918 13.9974 5.7425 13.9974 5.4015 12.3884L4.89527 9.99969L2.50659 9.49346C0.897545 9.15246 0.89754 6.85578 2.50659 6.51478L4.89527 6.00855L5.4015 3.61987ZM7.40191 3.8272C7.28489 3.27505 6.49678 3.27505 6.37977 3.8272L5.80613 6.53394L5.73873 6.85201L5.42066 6.91941L2.71391 7.49305C2.16177 7.61006 2.16177 8.39817 2.71392 8.51519L5.42066 9.08882L5.73873 9.15623L5.80613 9.4743L6.37977 12.181C6.49678 12.7332 7.28489 12.7332 7.40191 12.181L7.97554 9.4743L8.04295 9.15623L8.36102 9.08882L11.0678 8.51519C11.6199 8.39817 11.6199 7.61006 11.0678 7.49305L8.36102 6.91941L8.04295 6.85201L7.97554 6.53394L7.40191 3.8272ZM12.1367 13.25V14.75H13.1367V13.25H14.6367V12.25H13.1367V10.75H12.1367V12.25H10.6367V13.25H12.1367Z" fill="currentColor"/>
</svg>
