<svg width="16" height="16" viewBox="0 0 16 16" fill="none" xmlns="http://www.w3.org/2000/svg">
<path d="M7.99805 2.75C8.27402 2.7502 8.49805 2.97398 8.49805 3.25V7.49805H12.7451C13.0213 7.49805 13.2451 7.7219 13.2451 7.99805C13.2449 8.27402 13.0211 8.49805 12.7451 8.49805H8.49805V12.7451C8.49805 13.0211 8.27402 13.2449 7.99805 13.2451C7.7219 13.2451 7.49805 13.0213 7.49805 12.7451V8.49805H3.25C2.97398 8.49805 2.7502 8.27402 2.75 7.99805C2.75 7.7219 2.97386 7.49805 3.25 7.49805H7.49805V3.25C7.49805 2.97386 7.7219 2.75 7.99805 2.75Z" fill="currentColor"/>
</svg>
