<svg width="16" height="16" viewBox="0 0 16 16" fill="none" xmlns="http://www.w3.org/2000/svg">
<g clip-path="url(#clip0_172_47935)">
<path d="M8.00049 0.75C8.27644 0.750156 8.5004 0.974032 8.50049 1.25C8.50049 1.52605 8.2765 1.74984 8.00049 1.75C6.76447 1.75 5.55558 2.11707 4.52783 2.80371C3.5003 3.49041 2.69907 4.46662 2.22607 5.6084C1.75311 6.75035 1.62949 8.00745 1.87061 9.21973C2.11181 10.432 2.70756 11.545 3.58154 12.4189C4.45552 13.2929 5.56856 13.8887 6.78076 14.1299C7.993 14.371 9.25018 14.2474 10.3921 13.7744C11.5338 13.3014 12.5101 12.5002 13.1968 11.4727C13.8834 10.4449 14.2505 9.23603 14.2505 8C14.2506 7.72394 14.4744 7.5 14.7505 7.5C15.0264 7.50016 15.2504 7.72403 15.2505 8C15.2505 9.43381 14.8253 10.8361 14.0288 12.0283C13.2322 13.2204 12.0995 14.1495 10.7749 14.6982C9.45032 15.2469 7.9926 15.39 6.58643 15.1104C5.18009 14.8306 3.88746 14.1409 2.87354 13.127C1.8596 12.113 1.16988 10.8204 0.890137 9.41406C0.610498 8.00784 0.753585 6.55021 1.30225 5.22559C1.85096 3.90101 2.78009 2.76826 3.97217 1.97168C5.16436 1.17516 6.56669 0.75 8.00049 0.75ZM11.603 8.88477C11.7612 8.88488 11.9102 8.95989 12.0044 9.08691C12.0987 9.21406 12.1275 9.37881 12.0815 9.53027C12.0412 9.66329 11.9933 9.79494 11.9399 9.92383C11.7257 10.4409 11.4118 10.9108 11.0161 11.3066C10.6201 11.7026 10.1497 12.0171 9.63232 12.2314C9.11498 12.4457 8.56046 12.5556 8.00049 12.5557C7.44058 12.5557 6.88596 12.4457 6.36865 12.2314C5.85127 12.0171 5.38085 11.7026 4.98486 11.3066C4.58901 10.9107 4.27435 10.441 4.06006 9.92383C4.00669 9.79498 3.9598 9.66324 3.91943 9.53027C3.87351 9.3788 3.9023 9.21406 3.99658 9.08691C4.0909 8.95987 4.23972 8.88478 4.39795 8.88477H11.603ZM5.15186 9.88477C5.29805 10.1461 5.47931 10.387 5.69189 10.5996C5.99503 10.9027 6.35541 11.1436 6.75146 11.3076C7.14741 11.4716 7.57195 11.5557 8.00049 11.5557C8.42909 11.5556 8.85353 11.4716 9.24951 11.3076C9.64559 11.1436 10.0059 10.9028 10.3091 10.5996C10.5216 10.387 10.7029 10.1461 10.8491 9.88477H5.15186ZM5.84619 4.90527C6.43849 4.90529 6.92334 5.39012 6.92334 5.98242C6.92319 6.57459 6.43839 7.05858 5.84619 7.05859C5.25398 7.05859 4.7692 6.5746 4.76904 5.98242C4.76904 5.39011 5.25388 4.90527 5.84619 4.90527ZM10.1538 4.90527C10.7461 4.90529 11.231 5.39012 11.231 5.98242C11.2308 6.57459 10.746 7.05858 10.1538 7.05859C9.56159 7.05859 9.07681 6.5746 9.07666 5.98242C9.07666 5.39011 9.5615 4.90527 10.1538 4.90527ZM13.2505 0.495117C13.5265 0.495275 13.7505 0.719072 13.7505 0.995117V2.49512H15.2505C15.5265 2.49527 15.7505 2.71907 15.7505 2.99512C15.7505 3.27116 15.5265 3.49496 15.2505 3.49512H13.7505V4.99512C13.7505 5.27116 13.5265 5.49496 13.2505 5.49512C12.9743 5.49512 12.7505 5.27126 12.7505 4.99512V3.49512H11.2505C10.9743 3.49512 10.7505 3.27126 10.7505 2.99512C10.7505 2.71897 10.9743 2.49512 11.2505 2.49512H12.7505V0.995117C12.7505 0.718975 12.9743 0.495117 13.2505 0.495117Z" fill="currentColor"/>
</g>
<defs>
<clipPath id="clip0_172_47935">
<rect width="16" height="16" fill="white"/>
</clipPath>
</defs>
</svg>
