<svg width="16" height="16" viewBox="0 0 16 16" fill="none" xmlns="http://www.w3.org/2000/svg">
<g clip-path="url(#clip0_755_64003)">
<path fill-rule="evenodd" clip-rule="evenodd" d="M8 14.25C11.4518 14.25 14.25 11.4518 14.25 8C14.25 4.54822 11.4518 1.75 8 1.75C4.54822 1.75 1.75 4.54822 1.75 8C1.75 11.4518 4.54822 14.25 8 14.25ZM8 15.25C12.0041 15.25 15.25 12.0041 15.25 8C15.25 3.99594 12.0041 0.75 8 0.75C3.99594 0.75 0.75 3.99594 0.75 8C0.75 12.0041 3.99594 15.25 8 15.25ZM8 3.96447C8.27614 3.96447 8.5 4.18832 8.5 4.46447V7.5H11.5355C11.8117 7.5 12.0355 7.72386 12.0355 8C12.0355 8.27614 11.8117 8.5 11.5355 8.5H8.5V11.5355C8.5 11.8117 8.27614 12.0355 8 12.0355C7.72386 12.0355 7.5 11.8117 7.5 11.5355V8.5H4.46447C4.18832 8.5 3.96447 8.27614 3.96447 8C3.96447 7.72386 4.18832 7.5 4.46447 7.5H7.5V4.46447C7.5 4.18832 7.72386 3.96447 8 3.96447Z" fill="currentColor"/>
</g>
<defs>
<clipPath id="clip0_755_64003">
<rect width="16" height="16" fill="white"/>
</clipPath>
</defs>
</svg>
