<svg width="16" height="16" viewBox="0 0 16 16" fill="none" xmlns="http://www.w3.org/2000/svg">
<mask id="path-1-inside-1_15651_4235" fill="white">
<path d="M12.1543 1.00391C13.7394 1.08421 15 2.39489 15 4V12L14.9961 12.1543C14.9184 13.6883 13.6883 14.9184 12.1543 14.9961L12 15H4C2.39489 15 1.08421 13.7394 1.00391 12.1543L1 12V4C1 2.34315 2.34315 1 4 1H12L12.1543 1.00391ZM4 2C2.89543 2 2 2.89543 2 4V12C2 13.1046 2.89543 14 4 14H12C13.1046 14 14 13.1046 14 12V4C14 2.89543 13.1046 2 12 2H4ZM7.03418 4.16309C7.29986 3.17644 8.70014 3.17644 8.96582 4.16309L9.57422 6.42578L11.8369 7.03418C12.8236 7.29986 12.8236 8.70014 11.8369 8.96582L9.57422 9.57422L8.96582 11.8369C8.70014 12.8236 7.29986 12.8236 7.03418 11.8369L6.42578 9.57422L4.16309 8.96582C3.17644 8.70014 3.17644 7.29986 4.16309 7.03418L6.42578 6.42578L7.03418 4.16309ZM7.39062 6.68555C7.29792 7.02944 7.02944 7.29792 6.68555 7.39062L4.42285 8L6.68555 8.60938C7.02944 8.70208 7.29792 8.97056 7.39062 9.31445L8 11.5771L8.60938 9.31445C8.70208 8.97056 8.97056 8.70208 9.31445 8.60938L11.5771 8L9.31445 7.39062C8.97056 7.29792 8.70208 7.02944 8.60938 6.68555L8 4.42285L7.39062 6.68555Z"/>
</mask>
<path d="M12.1543 1.00391L12.2049 0.00518715L12.1923 0.00454682L12.1796 0.00422657L12.1543 1.00391ZM15 4H16H15ZM15 12L15.9997 12.0253L16 12.0127V12H15ZM14.9961 12.1543L15.9948 12.2049L15.9955 12.1923L15.9958 12.1796L14.9961 12.1543ZM12.1543 14.9961L12.1796 15.9958L12.1923 15.9955L12.2049 15.9948L12.1543 14.9961ZM12 15V16H12.0127L12.0253 15.9997L12 15ZM4 15V16V16V15ZM1.00391 12.1543L0.00422657 12.1796L0.00454682 12.1923L0.00518715 12.2049L1.00391 12.1543ZM1 12H0V12.0127L0.000320315 12.0253L1 12ZM1 4H0V4H1ZM4 1V0V1ZM12 1L12.0253 0.000320315L12.0127 0H12V1ZM4 2V1V2ZM2 4H1V4H2ZM2 12H1H2ZM4 14V15V15V14ZM12 14V15V14ZM14 12H15V12H14ZM14 4H15H14ZM12 2V1V1V2ZM7.03418 4.16309L6.06857 3.90308L6.06848 3.90343L7.03418 4.16309ZM8.96582 4.16309L9.93152 3.90343L9.93143 3.90308L8.96582 4.16309ZM9.57422 6.42578L8.60852 6.68544L8.75813 7.24187L9.31456 7.39148L9.57422 6.42578ZM11.8369 7.03418L12.0969 6.06857L12.0966 6.06848L11.8369 7.03418ZM11.8369 8.96582L12.0966 9.93152L12.0969 9.93143L11.8369 8.96582ZM9.57422 9.57422L9.31456 8.60852L8.75813 8.75813L8.60852 9.31456L9.57422 9.57422ZM8.96582 11.8369L9.93143 12.0969L9.93152 12.0966L8.96582 11.8369ZM7.03418 11.8369L6.06848 12.0966L6.06857 12.0969L7.03418 11.8369ZM6.42578 9.57422L7.39148 9.31456L7.24187 8.75813L6.68544 8.60852L6.42578 9.57422ZM4.16309 8.96582L3.90308 9.93143L3.90343 9.93152L4.16309 8.96582ZM4.16309 7.03418L3.90343 6.06848L3.90308 6.06857L4.16309 7.03418ZM6.42578 6.42578L6.68544 7.39148L7.24187 7.24187L7.39148 6.68544L6.42578 6.42578ZM7.39062 6.68555L8.35615 6.94584L8.35622 6.9456L7.39062 6.68555ZM6.68555 7.39062L6.9456 8.35622L6.94584 8.35615L6.68555 7.39062ZM4.42285 8L4.1628 7.0344L0.577411 8L4.1628 8.9656L4.42285 8ZM6.68555 8.60938L6.94584 7.64385L6.9456 7.64378L6.68555 8.60938ZM7.39062 9.31445L8.35622 9.05441L8.35615 9.05416L7.39062 9.31445ZM8 11.5771L7.0344 11.8372L8 15.4226L8.9656 11.8372L8 11.5771ZM8.60938 9.31445L7.64385 9.05416L7.64378 9.05441L8.60938 9.31445ZM9.31445 8.60938L9.05441 7.64378L9.05416 7.64385L9.31445 8.60938ZM11.5771 8L11.8372 8.9656L15.4226 8L11.8372 7.0344L11.5771 8ZM9.31445 7.39062L9.05416 8.35615L9.05441 8.35622L9.31445 7.39062ZM8.60938 6.68555L7.64378 6.9456L7.64385 6.94584L8.60938 6.68555ZM8 4.42285L8.9656 4.1628L8 0.577411L7.0344 4.1628L8 4.42285ZM12.1543 1.00391L12.1037 2.00263C13.1596 2.05612 14 2.93023 14 4H15H16C16 1.85955 14.3193 0.112307 12.2049 0.00518715L12.1543 1.00391ZM15 4H14V12H15H16V4H15ZM15 12L14.0003 11.9747L13.9964 12.129L14.9961 12.1543L15.9958 12.1796L15.9997 12.0253L15 12ZM14.9961 12.1543L13.9974 12.1037C13.9456 13.1252 13.1252 13.9456 12.1037 13.9974L12.1543 14.9961L12.2049 15.9948C14.2514 15.8911 15.8911 14.2514 15.9948 12.2049L14.9961 12.1543ZM12.1543 14.9961L12.129 13.9964L11.9747 14.0003L12 15L12.0253 15.9997L12.1796 15.9958L12.1543 14.9961ZM12 15V14H4V15V16H12V15ZM4 15V14C2.93023 14 2.05612 13.1596 2.00263 12.1037L1.00391 12.1543L0.00518715 12.2049C0.112307 14.3193 1.85956 16 4 16V15ZM1.00391 12.1543L2.00359 12.129L1.99968 11.9747L1 12L0.000320315 12.0253L0.00422657 12.1796L1.00391 12.1543ZM1 12H2V4H1H0V12H1ZM1 4H2C2 2.89543 2.89543 2 4 2V1V0C1.79086 0 1.78814e-07 1.79086 0 4H1ZM4 1V2H12V1V0H4V1ZM12 1L11.9747 1.99968L12.129 2.00359L12.1543 1.00391L12.1796 0.00422657L12.0253 0.000320315L12 1ZM4 2V1C2.34315 1 1 2.34315 1 4H2H3C3 3.44772 3.44772 3 4 3V2ZM2 4H1V12H2H3V4H2ZM2 12H1C1 13.6569 2.34315 15 4 15V14V13C3.44772 13 3 12.5523 3 12H2ZM4 14V15H12V14V13H4V14ZM12 14V15C13.6569 15 15 13.6569 15 12H14H13C13 12.5523 12.5523 13 12 13V14ZM14 12H15V4H14H13V12H14ZM14 4H15C15 2.34315 13.6569 1 12 1V2V3C12.5523 3 13 3.44772 13 4H14ZM12 2V1H4V2V3H12V2ZM7.03418 4.16309L7.99979 4.4231L8.00021 4.4231L8.96582 4.16309L9.93143 3.90308C9.40007 1.92978 6.59993 1.92977 6.06857 3.90308L7.03418 4.16309ZM8.96582 4.16309L8.00012 4.42275L8.60852 6.68544L9.57422 6.42578L10.5399 6.16612L9.93152 3.90343L8.96582 4.16309ZM9.57422 6.42578L9.31456 7.39148L11.5773 7.99988L11.8369 7.03418L12.0966 6.06848L9.83388 5.46008L9.57422 6.42578ZM11.8369 7.03418L11.5769 7.99979V8.00021L11.8369 8.96582L12.0969 9.93143C14.0702 9.40007 14.0702 6.59993 12.0969 6.06857L11.8369 7.03418ZM11.8369 8.96582L11.5773 8.00012L9.31456 8.60852L9.57422 9.57422L9.83388 10.5399L12.0966 9.93152L11.8369 8.96582ZM9.57422 9.57422L8.60852 9.31456L8.00012 11.5773L8.96582 11.8369L9.93152 12.0966L10.5399 9.83388L9.57422 9.57422ZM8.96582 11.8369L8.00021 11.5769H7.99979L7.03418 11.8369L6.06857 12.0969C6.59993 14.0702 9.40007 14.0702 9.93143 12.0969L8.96582 11.8369ZM7.03418 11.8369L7.99988 11.5773L7.39148 9.31456L6.42578 9.57422L5.46008 9.83388L6.06848 12.0966L7.03418 11.8369ZM6.42578 9.57422L6.68544 8.60852L4.42275 8.00012L4.16309 8.96582L3.90343 9.93152L6.16612 10.5399L6.42578 9.57422ZM4.16309 8.96582L4.4231 8.00021L4.4231 7.99979L4.16309 7.03418L3.90308 6.06857C1.92978 6.59993 1.92977 9.40007 3.90308 9.93143L4.16309 8.96582ZM4.16309 7.03418L4.42275 7.99988L6.68544 7.39148L6.42578 6.42578L6.16612 5.46008L3.90343 6.06848L4.16309 7.03418ZM6.42578 6.42578L7.39148 6.68544L7.99988 4.42275L7.03418 4.16309L6.06848 3.90343L5.46008 6.16612L6.42578 6.42578ZM7.39062 6.68555L6.4251 6.42525L6.42525 6.4251L6.68555 7.39062L6.94584 8.35615C7.63363 8.17074 8.17074 7.63363 8.35615 6.94584L7.39062 6.68555ZM6.68555 7.39062L6.4255 6.42503L4.1628 7.0344L4.42285 8L4.6829 8.9656L6.9456 8.35622L6.68555 7.39062ZM4.42285 8L4.1628 8.9656L6.4255 9.57497L6.68555 8.60938L6.9456 7.64378L4.6829 7.0344L4.42285 8ZM6.68555 8.60938L6.42525 9.5749L6.4251 9.57475L7.39062 9.31445L8.35615 9.05416C8.17074 8.36637 7.63363 7.82926 6.94584 7.64385L6.68555 8.60938ZM7.39062 9.31445L6.42503 9.5745L7.0344 11.8372L8 11.5771L8.9656 11.3171L8.35622 9.05441L7.39062 9.31445ZM8 11.5771L8.9656 11.8372L9.57497 9.5745L8.60938 9.31445L7.64378 9.05441L7.0344 11.3171L8 11.5771ZM8.60938 9.31445L9.5749 9.57475L9.57475 9.5749L9.31445 8.60938L9.05416 7.64385C8.36637 7.82926 7.82926 8.36637 7.64385 9.05416L8.60938 9.31445ZM9.31445 8.60938L9.5745 9.57497L11.8372 8.9656L11.5771 8L11.3171 7.0344L9.05441 7.64378L9.31445 8.60938ZM11.5771 8L11.8372 7.0344L9.5745 6.42503L9.31445 7.39062L9.05441 8.35622L11.3171 8.9656L11.5771 8ZM9.31445 7.39062L9.57475 6.4251L9.5749 6.42525L8.60938 6.68555L7.64385 6.94584C7.82926 7.63363 8.36637 8.17074 9.05416 8.35615L9.31445 7.39062ZM8.60938 6.68555L9.57497 6.4255L8.9656 4.1628L8 4.42285L7.0344 4.6829L7.64378 6.9456L8.60938 6.68555ZM8 4.42285L7.0344 4.1628L6.42503 6.4255L7.39062 6.68555L8.35622 6.9456L8.9656 4.6829L8 4.42285Z" fill="currentColor" mask="url(#path-1-inside-1_15651_4235)"/>
</svg>
