<svg width="16" height="16" viewBox="0 0 16 16" fill="none" xmlns="http://www.w3.org/2000/svg">
<path d="M7.35205 1.61523C7.64182 1.12151 8.35612 1.12164 8.646 1.61523L15.0522 12.5527C15.3263 13.0212 15.0268 13.6026 14.5112 13.6738L14.4048 13.6816H1.59326L1.48682 13.6738C0.971397 13.6024 0.671694 13.0212 0.945801 12.5527L7.35205 1.61523ZM2.02881 12.6816H13.9692L7.99854 2.48828L2.02881 12.6816ZM7.99951 10.0576C8.48276 10.0576 8.87451 10.4494 8.87451 10.9326C8.87434 11.4157 8.48265 11.8076 7.99951 11.8076C7.5165 11.8075 7.12469 11.4156 7.12451 10.9326C7.12451 10.4495 7.51639 10.0578 7.99951 10.0576ZM7.99951 5.15332C8.27565 5.15332 8.49951 5.37718 8.49951 5.65332V8.90332C8.49934 9.17932 8.27555 9.40332 7.99951 9.40332C7.72361 9.40317 7.49969 9.17922 7.49951 8.90332V5.65332C7.49951 5.37727 7.7235 5.15348 7.99951 5.15332Z" fill="currentColor"/>
</svg>
