<svg width="16" height="16" viewBox="0 0 16 16" fill="none" xmlns="http://www.w3.org/2000/svg">
<path d="M14 8C14 8.27614 13.7761 8.5 13.5 8.5L2.5 8.5C2.22386 8.5 2 8.27614 2 8C2 7.72386 2.22386 7.5 2.5 7.5L13.5 7.5C13.7761 7.5 14 7.72386 14 8ZM11.6826 2.81836C11.8776 3.01365 11.8778 3.33024 11.6826 3.52539L8.35352 6.85449C8.15834 7.04943 7.8417 7.04936 7.64648 6.85449L4.31738 3.52539C4.1222 3.3302 4.12235 3.01364 4.31738 2.81836C4.51265 2.6231 4.82915 2.6231 5.02441 2.81836L7.5 5.29395L7.5 1.00098C7.5 0.724834 7.72386 0.500981 8 0.500976C8.27591 0.501058 8.49974 0.724131 8.5 1L8.5 5.29395L10.9756 2.81836C11.1708 2.62312 11.4874 2.62316 11.6826 2.81836ZM11.6826 12.4756C11.8779 12.6708 11.8778 12.9874 11.6826 13.1826C11.4874 13.3779 11.1708 13.3779 10.9756 13.1826L8.5 10.707L8.5 15C8.5 15.2761 8.27614 15.5 8 15.5C7.72386 15.5 7.5 15.2761 7.5 15L7.5 10.707L5.02441 13.1826C4.82917 13.3779 4.51265 13.3778 4.31738 13.1826C4.12212 12.9874 4.12212 12.6708 4.31738 12.4756L7.64648 9.14648C7.84175 8.95127 8.15827 8.95124 8.35352 9.14648L11.6826 12.4756Z" fill="currentColor"/>
</svg>
