<svg width="16" height="16" viewBox="0 0 16 16" fill="none" xmlns="http://www.w3.org/2000/svg">
<path fill-rule="evenodd" clip-rule="evenodd" d="M1.87988 5.67491C1.87988 5.17485 2.20869 4.75157 2.66191 4.60951V9.94432C2.66191 11.325 3.78119 12.4443 5.1619 12.4443H12.1234C11.9461 12.9028 11.501 13.228 10.98 13.228H3.87988C2.77531 13.228 1.87988 12.3326 1.87988 11.228V5.67491ZM10.98 14.228C12.0917 14.228 13.0131 13.4128 13.1788 12.3475C14.2232 12.0475 14.9874 11.0852 14.9874 9.94432V4.33081V4.2749C14.9874 4.10231 14.9699 3.93381 14.9366 3.77107C14.7035 2.63186 13.6955 1.7749 12.4874 1.7749H5.16191C4.02547 1.7749 3.06614 2.53318 2.76226 3.57138C1.70353 3.6878 0.879883 4.58517 0.879883 5.67491V11.228C0.879883 12.8849 2.22303 14.228 3.87988 14.228H10.98ZM3.66191 6.06288V9.94432C3.66191 10.7727 4.33348 11.4443 5.1619 11.4443H12.4874C13.3159 11.4443 13.9874 10.7727 13.9874 9.94432V6.06288C13.9517 6.08347 13.9153 6.10304 13.8781 6.12154L9.71533 8.19199C9.15433 8.47102 8.495 8.47101 7.934 8.19199L3.77124 6.12154C3.73404 6.10304 3.69758 6.08347 3.66191 6.06288ZM13.9874 4.33081V4.2749C13.9874 4.22313 13.9848 4.17196 13.9797 4.12154C13.9029 3.36515 13.2641 2.7749 12.4874 2.7749H5.16191C4.33348 2.7749 3.66191 3.44648 3.66191 4.2749V4.33081C3.66191 4.71034 3.87676 5.05716 4.21657 5.22618L8.37933 7.29662C8.65983 7.43614 8.9895 7.43614 9.27 7.29662L13.4328 5.22618C13.7726 5.05716 13.9874 4.71034 13.9874 4.33081Z" fill="currentColor"/>
</svg>
