<svg width="16" height="16" viewBox="0 0 16 16" fill="none" xmlns="http://www.w3.org/2000/svg">
<path fill-rule="evenodd" clip-rule="evenodd" d="M2.5 2C1.67157 2 1 2.67157 1 3.5V11.4995C1 12.8802 2.11929 13.9995 3.5 13.9995H7.50098H8.00098H8.00134H8.50134H12.5023C13.883 13.9995 15.0023 12.8802 15.0023 11.4995V3.5C15.0023 2.67157 14.3307 2 13.5023 2H11.001C9.72794 2 8.61365 2.67966 8.00116 3.69591C7.38867 2.67966 6.27438 2 5.00134 2H2.5ZM8.50134 12.9995V5.5C8.50134 5.48907 8.50129 5.47816 8.50119 5.46726C8.51871 4.10164 9.6312 3 11.001 3H13.5023C13.7785 3 14.0023 3.22386 14.0023 3.5V11.4995C14.0023 12.3279 13.3307 12.9995 12.5023 12.9995H8.50134ZM7.50113 5.46726C7.4836 4.10164 6.37112 3 5.00134 3H2.5C2.22386 3 2 3.22386 2 3.5V11.4995C2 12.3279 2.67157 12.9995 3.5 12.9995H7.50098V5.5C7.50098 5.48907 7.50103 5.47816 7.50113 5.46726Z" fill="currentColor"/>
</svg>
