<svg width="16" height="16" viewBox="0 0 16 16" fill="none" xmlns="http://www.w3.org/2000/svg">
<path fill-rule="evenodd" clip-rule="evenodd" d="M2.10254 5.35352C1.89355 5.35352 1.70703 5.31738 1.54297 5.24512C1.37891 5.1709 1.25 5.06152 1.15625 4.91699C1.0625 4.77246 1.01562 4.59277 1.01562 4.37793C1.01562 4.19434 1.04785 4.04199 1.1123 3.9209C1.17871 3.79785 1.26953 3.69824 1.38477 3.62207C1.5 3.5459 1.63086 3.48828 1.77734 3.44922C1.92578 3.41016 2.08105 3.38281 2.24316 3.36719C2.43262 3.34961 2.58496 3.33203 2.7002 3.31445C2.81738 3.29688 2.90234 3.27051 2.95508 3.23535C3.00977 3.19824 3.03711 3.14551 3.03711 3.07715V3.0625C3.03711 2.97266 3.01758 2.89648 2.97852 2.83398C2.93945 2.76953 2.88281 2.7207 2.80859 2.6875C2.73438 2.6543 2.64355 2.6377 2.53613 2.6377C2.42871 2.6377 2.33398 2.6543 2.25195 2.6875C2.16992 2.7207 2.10254 2.76562 2.0498 2.82227C1.99707 2.87695 1.95898 2.94043 1.93555 3.0127L1.10938 2.88086C1.16211 2.69141 1.25293 2.5293 1.38184 2.39453C1.5127 2.25977 1.67578 2.15625 1.87109 2.08398C2.06836 2.01172 2.29102 1.97559 2.53906 1.97559C2.7207 1.97559 2.89551 1.99707 3.06348 2.04004C3.23145 2.08301 3.38184 2.14941 3.51465 2.23926C3.64746 2.32715 3.75195 2.44141 3.82812 2.58203C3.9043 2.72266 3.94238 2.88965 3.94238 3.08301V5.29199H3.08398V4.83496H3.05762C3.00488 4.93848 2.93457 5.0293 2.84668 5.10742C2.75879 5.18359 2.65332 5.24414 2.53027 5.28906C2.40723 5.33203 2.26465 5.35352 2.10254 5.35352ZM2.36035 4.72656C2.49512 4.72656 2.61328 4.7002 2.71484 4.64746C2.81836 4.59277 2.89844 4.52051 2.95508 4.43066C3.01367 4.33887 3.04297 4.23633 3.04297 4.12305V3.77441C3.01562 3.79199 2.97656 3.80859 2.92578 3.82422C2.87695 3.83984 2.82129 3.85352 2.75879 3.86523C2.69824 3.87695 2.6377 3.8877 2.57715 3.89746C2.5166 3.90527 2.46191 3.91309 2.41309 3.9209C2.30566 3.93652 2.21191 3.96191 2.13184 3.99707C2.05176 4.03027 1.98926 4.07617 1.94434 4.13477C1.90137 4.19141 1.87988 4.2627 1.87988 4.34863C1.87988 4.47168 1.9248 4.56543 2.01465 4.62988C2.10449 4.69434 2.21973 4.72656 2.36035 4.72656ZM5.41699 3.41896C5.41699 3.14281 5.64085 2.91896 5.91699 2.91896H14C14.2762 2.91896 14.5 3.14281 14.5 3.41896C14.5 3.6951 14.2762 3.91896 14 3.91896H5.91699C5.64085 3.91896 5.41699 3.6951 5.41699 3.41896ZM5.41699 7.89552C5.41699 7.61938 5.64085 7.39552 5.91699 7.39552H14C14.2762 7.39552 14.5 7.61938 14.5 7.89552C14.5 8.17166 14.2762 8.39552 14 8.39552H5.91699C5.64085 8.39552 5.41699 8.17166 5.41699 7.89552ZM5.91699 11.8721C5.64085 11.8721 5.41699 12.0959 5.41699 12.3721C5.41699 12.6482 5.64085 12.8721 5.91699 12.8721H14C14.2762 12.8721 14.5 12.6482 14.5 12.3721C14.5 12.0959 14.2762 11.8721 14 11.8721H5.91699ZM2.43066 12.2133C2.55371 12.2718 2.70215 12.3011 2.87598 12.3011C3.12598 12.3011 3.35156 12.2367 3.55273 12.1078C3.75391 11.9789 3.91309 11.7894 4.03027 11.5394C4.14746 11.2875 4.20605 10.9799 4.20605 10.6166C4.20605 10.2416 4.14551 9.92907 4.02441 9.67907C3.90332 9.42907 3.74219 9.24255 3.54102 9.1195C3.3418 8.9945 3.12207 8.932 2.88184 8.932C2.69824 8.932 2.54492 8.96325 2.42188 9.02575C2.29883 9.0863 2.19922 9.16247 2.12305 9.25427C2.04883 9.34607 1.99121 9.43689 1.9502 9.52673H1.92383V7.88318H1.01562V12.2484H1.90918V11.724H1.9502C1.99121 11.8138 2.05078 11.9037 2.12891 11.9935C2.20703 12.0814 2.30762 12.1547 2.43066 12.2133ZM2.9668 11.4574C2.86523 11.5394 2.74023 11.5804 2.5918 11.5804C2.44531 11.5804 2.32031 11.5404 2.2168 11.4603C2.11523 11.3783 2.03711 11.265 1.98242 11.1205C1.92969 10.9759 1.90332 10.807 1.90332 10.6136C1.90332 10.4183 1.92969 10.2494 1.98242 10.1068C2.03711 9.96228 2.11523 9.85095 2.2168 9.77282C2.32031 9.69275 2.44531 9.65271 2.5918 9.65271C2.74219 9.65271 2.86719 9.69372 2.9668 9.77575C3.06836 9.85779 3.14551 9.97107 3.19824 10.1156C3.25098 10.2582 3.27734 10.4242 3.27734 10.6136C3.27734 10.8031 3.25098 10.9711 3.19824 11.1176C3.14551 11.2621 3.06836 11.3754 2.9668 11.4574Z" fill="currentColor"/>
</svg>
