<svg width="16" height="16" viewBox="0 0 16 16" fill="none" xmlns="http://www.w3.org/2000/svg">
<g clip-path="url(#clip0_19998_15610)">
<path d="M14.2344 0.595703C14.3738 0.492903 14.5593 0.468526 14.7227 0.536133C14.9093 0.613495 15.0311 0.796052 15.0312 0.998047V12.1973C15.0312 12.3994 14.9094 12.5827 14.7227 12.6602C14.5592 12.7278 14.3739 12.7034 14.2344 12.6006L14.1777 12.5518L14.1514 12.5254C14.1323 12.5069 14.1028 12.4791 14.0645 12.4434C13.987 12.3711 13.8717 12.2657 13.7246 12.1396C13.4297 11.8869 13.0081 11.55 12.5039 11.2139C11.479 10.5306 10.1811 9.89757 8.93164 9.89746H5.08496L7.20508 14.0078V14.0088C7.43208 14.4512 7.97449 14.6256 8.41602 14.3994C8.8309 14.1866 9.01038 13.6968 8.84473 13.2725L8.80762 13.1885L7.95703 11.5371C7.83056 11.2917 7.92644 10.9898 8.17188 10.8633C8.41735 10.7368 8.71922 10.8336 8.8457 11.0791L9.69629 12.7305L9.69727 12.7314C10.1763 13.6654 9.80596 14.8104 8.87305 15.2891C7.93901 15.7681 6.794 15.3979 6.31543 14.4648V14.4639L3.95117 9.88184C2.27571 9.72387 0.964844 8.31448 0.964844 6.59766C0.965231 4.77539 2.44231 3.29792 4.26465 3.29785H8.93164C10.1811 3.29774 11.479 2.6657 12.5039 1.98242C13.0082 1.6462 13.4297 1.30844 13.7246 1.05566C13.8716 0.929635 13.9871 0.825142 14.0645 0.75293C14.103 0.716942 14.1323 0.688391 14.1514 0.669922C14.1607 0.660911 14.1675 0.6537 14.1719 0.649414C14.1738 0.647614 14.1759 0.64638 14.1768 0.645508L14.1777 0.644531L14.2344 0.595703ZM14.0312 2.09863C13.7588 2.31732 13.4304 2.56656 13.0586 2.81445C11.9838 3.53095 10.4817 4.29774 8.93164 4.29785H4.26465C2.99459 4.29792 1.96523 5.32768 1.96484 6.59766C1.96484 7.86797 2.99435 8.8974 4.26465 8.89746H8.93164C10.4817 8.89757 11.9838 9.66534 13.0586 10.3818C13.4303 10.6296 13.7589 10.8781 14.0312 11.0967V2.09863Z" fill="currentColor"/>
</g>
<defs>
<clipPath id="clip0_19998_15610">
<rect width="16" height="16" fill="white"/>
</clipPath>
</defs>
</svg>
