<svg width="16" height="16" viewBox="0 0 16 16" fill="none" xmlns="http://www.w3.org/2000/svg">
<g clip-path="url(#clip0_20000_10247)">
<path d="M11.9961 0.814941L12.1221 0.837402C12.4105 0.901605 12.6488 1.06022 12.8262 1.30811C12.9768 1.51868 13.015 1.77706 13.0322 1.99365C13.0505 2.22379 13.0498 2.52175 13.0498 2.87842V3.38525C14.4406 3.62285 15.4997 4.83109 15.5 6.28955C15.5 7.74819 14.4407 8.95615 13.0498 9.19385V9.70166C13.0498 10.0583 13.0505 10.3563 13.0322 10.5864C13.015 10.803 12.9768 11.0614 12.8262 11.272C12.6236 11.5551 12.3416 11.7218 11.9961 11.7642C11.7353 11.7961 11.4821 11.7004 11.2793 11.6089C11.06 11.5099 10.7849 11.3596 10.4521 11.1782C9.4005 10.6049 8.14301 10.0575 7.09961 9.95752V13.1177C7.09961 13.2658 7.10025 13.3757 7.09082 13.4731C7.00312 14.3773 6.28794 15.0933 5.38379 15.1812C5.28623 15.1906 5.17568 15.1899 5.02734 15.1899C4.90889 15.1899 4.82046 15.1908 4.73828 15.1841C3.98316 15.1223 3.33695 14.6174 3.09375 13.8999C3.0673 13.8218 3.0463 13.7355 3.01758 13.6206L1.91504 9.21143C1.91167 9.19791 1.91043 9.18391 1.9082 9.17041C1.05127 8.50249 0.500001 7.46021 0.5 6.28955C0.500296 4.27396 2.13473 2.64014 4.15039 2.64014H6.77539C7.87418 2.63999 9.28894 2.03596 10.4521 1.40186C10.7849 1.22044 11.06 1.07014 11.2793 0.971191C11.4567 0.891167 11.6726 0.807371 11.8984 0.809082L11.9961 0.814941ZM3.9873 13.3774C4.02049 13.5102 4.03084 13.5485 4.04102 13.5786C4.15613 13.9185 4.46175 14.1576 4.81934 14.187C4.85096 14.1896 4.89062 14.1899 5.02734 14.1899C5.19911 14.1899 5.24984 14.1896 5.28711 14.186C5.71537 14.1444 6.05416 13.8048 6.0957 13.3765C6.09927 13.3392 6.09961 13.2887 6.09961 13.1177V9.93994H4.15039C3.78083 9.93994 3.42408 9.88387 3.08789 9.78174L3.9873 13.3774ZM11.8838 1.81006C11.8679 1.81378 11.8115 1.8277 11.6904 1.88232C11.5138 1.96203 11.2782 2.09033 10.9307 2.27979C9.85122 2.86822 8.397 3.52639 7.09961 3.62549V8.95361C8.39701 9.05269 9.85121 9.71185 10.9307 10.3003C11.2782 10.4897 11.5138 10.618 11.6904 10.6978C11.811 10.7521 11.8676 10.7652 11.8838 10.769C11.942 10.7606 11.9715 10.7441 12.0068 10.6968C12.0109 10.6832 12.0253 10.6317 12.0352 10.5073C12.0495 10.3263 12.0498 10.0759 12.0498 9.70166V2.87842C12.0498 2.50419 12.0495 2.25375 12.0352 2.07275C12.025 1.94537 12.0104 1.89436 12.0068 1.88232C11.9717 1.83546 11.9418 1.81848 11.8838 1.81006ZM4.15039 3.64014C2.68702 3.64014 1.5003 4.82625 1.5 6.28955C1.5 7.7531 2.68684 8.93994 4.15039 8.93994H6.09961V3.64014H4.15039ZM13.0498 8.17334C13.8843 7.95244 14.5 7.19355 14.5 6.28955C14.4998 5.3857 13.8843 4.62653 13.0498 4.40576V8.17334Z" fill="currentColor"/>
</g>
<defs>
<clipPath id="clip0_20000_10247">
<rect width="16" height="16" fill="white"/>
</clipPath>
</defs>
</svg>
