<svg width="16" height="16" viewBox="0 0 16 16" fill="none" xmlns="http://www.w3.org/2000/svg">
<path d="M8.00098 1C11.8674 1.00013 15.0019 4.13451 15.002 8.00098C15.0018 11.8674 11.8674 15.0018 8.00098 15.002C4.13451 15.0019 1.00013 11.8674 1 8.00098C1.00005 4.13447 4.13447 1.00005 8.00098 1ZM8.00098 2C4.68675 2.00005 2.00005 4.68675 2 8.00098C2.00013 11.3151 4.6868 14.0019 8.00098 14.002C11.3151 14.0018 14.0018 11.3151 14.002 8.00098C14.0019 4.6868 11.3151 2.00013 8.00098 2ZM6.81348 4.00488C6.98267 3.94962 7.16888 3.98903 7.30176 4.10742C7.43472 4.22629 7.49418 4.4074 7.45801 4.58203C7.41245 4.80148 7.38869 5.02972 7.38867 5.26367C7.38893 7.11524 8.89062 8.61599 10.7422 8.61621C10.9762 8.61621 11.2044 8.59243 11.4238 8.54688C11.5981 8.51086 11.7786 8.57068 11.8975 8.70312C12.0163 8.8361 12.0555 9.02287 12 9.19238C11.4618 10.8352 9.91788 12.0254 8.09277 12.0254C5.82178 12.0251 3.98047 10.1832 3.98047 7.91211C3.98074 6.0873 5.17089 4.543 6.81348 4.00488ZM6.38965 5.31055C5.54137 5.86645 4.98068 6.82382 4.98047 7.91211C4.98047 9.63089 6.37407 11.0251 8.09277 11.0254C9.18152 11.0254 10.1374 10.463 10.6934 9.61426C8.32761 9.58802 6.41487 7.67654 6.38965 5.31055Z" fill="currentColor"/>
</svg>
