<svg width="16" height="16" viewBox="0 0 16 16" fill="none" xmlns="http://www.w3.org/2000/svg">
<mask id="path-1-inside-1_1312_99516" fill="white">
<path fill-rule="evenodd" clip-rule="evenodd" d="M3.5 2.5H12.5C13.0523 2.5 13.5 2.94772 13.5 3.5V8.5H10.5C10.2239 8.5 10.0064 8.72733 9.93829 8.99494C9.71803 9.86012 8.93374 10.5 8 10.5C7.06626 10.5 6.28197 9.86012 6.06171 8.99494C5.99359 8.72733 5.77614 8.5 5.5 8.5H2.5V3.5C2.5 2.94772 2.94772 2.5 3.5 2.5ZM2.5 9.5V12.5C2.5 13.0523 2.94772 13.5 3.5 13.5H12.5C13.0523 13.5 13.5 13.0523 13.5 12.5V9.5H10.829C10.4171 10.6647 9.3072 11.5 8 11.5C6.6928 11.5 5.58287 10.6647 5.17101 9.5H2.5ZM1.5 8.5V3.5C1.5 2.39543 2.39543 1.5 3.5 1.5H12.5C13.6046 1.5 14.5 2.39543 14.5 3.5V8.5V9.5V12.5C14.5 13.6046 13.6046 14.5 12.5 14.5H3.5C2.39543 14.5 1.5 13.6046 1.5 12.5V9.5V8.5Z"/>
</mask>
<path d="M13.5 8.5V9.5H14.5V8.5H13.5ZM9.93829 8.99494L10.9074 9.24165V9.24165L9.93829 8.99494ZM6.06171 8.99494L7.0308 8.74823L7.0308 8.74823L6.06171 8.99494ZM2.5 8.5H1.5V9.5H2.5V8.5ZM2.5 9.5V8.5H1.5V9.5H2.5ZM13.5 9.5H14.5V8.5H13.5V9.5ZM10.829 9.5V8.5H10.1219L9.8862 9.16662L10.829 9.5ZM5.17101 9.5L6.1138 9.16662L5.87808 8.5H5.17101V9.5ZM12.5 1.5H3.5V3.5H12.5V1.5ZM14.5 3.5C14.5 2.39543 13.6046 1.5 12.5 1.5V3.5H14.5ZM14.5 8.5V3.5H12.5V8.5H14.5ZM13.5 7.5H10.5V9.5H13.5V7.5ZM10.5 7.5C9.62841 7.5 9.11201 8.18725 8.9692 8.74823L10.9074 9.24165C10.8972 9.28152 10.8744 9.33095 10.821 9.38049C10.762 9.4351 10.6505 9.5 10.5 9.5V7.5ZM8.9692 8.74823C8.85902 9.181 8.46551 9.5 8 9.5V11.5C9.40197 11.5 10.577 10.5392 10.9074 9.24165L8.9692 8.74823ZM8 9.5C7.53449 9.5 7.14098 9.181 7.0308 8.74823L5.09262 9.24165C5.42296 10.5392 6.59803 11.5 8 11.5V9.5ZM7.0308 8.74823C6.88799 8.18725 6.37159 7.5 5.5 7.5V9.5C5.34951 9.5 5.23795 9.4351 5.17903 9.38049C5.1256 9.33095 5.10277 9.28152 5.09262 9.24165L7.0308 8.74823ZM5.5 7.5H2.5V9.5H5.5V7.5ZM1.5 3.5V8.5H3.5V3.5H1.5ZM3.5 1.5C2.39543 1.5 1.5 2.39543 1.5 3.5H3.5V3.5V1.5ZM1.5 9.5V12.5H3.5V9.5H1.5ZM1.5 12.5C1.5 13.6046 2.39543 14.5 3.5 14.5V12.5H3.5H1.5ZM3.5 14.5H12.5V12.5H3.5V14.5ZM12.5 14.5C13.6046 14.5 14.5 13.6046 14.5 12.5H12.5V14.5ZM14.5 12.5V9.5H12.5V12.5H14.5ZM13.5 8.5H10.829V10.5H13.5V8.5ZM9.8862 9.16662C9.61098 9.94492 8.86973 10.5 8 10.5V12.5C9.74466 12.5 11.2233 11.3846 11.7718 9.83338L9.8862 9.16662ZM8 10.5C7.13027 10.5 6.38901 9.94492 6.1138 9.16662L4.22822 9.83338C4.77673 11.3846 6.25534 12.5 8 12.5V10.5ZM5.17101 8.5H2.5V10.5H5.17101V8.5ZM0.5 3.5V8.5H2.5V3.5H0.5ZM3.5 0.5C1.84315 0.5 0.5 1.84315 0.5 3.5H2.5C2.5 2.94772 2.94772 2.5 3.5 2.5V0.5ZM12.5 0.5H3.5V2.5H12.5V0.5ZM15.5 3.5C15.5 1.84315 14.1569 0.5 12.5 0.5V2.5C13.0523 2.5 13.5 2.94772 13.5 3.5H15.5ZM15.5 8.5V3.5H13.5V8.5H15.5ZM15.5 9.5V8.5H13.5V9.5H15.5ZM15.5 12.5V9.5H13.5V12.5H15.5ZM12.5 15.5C14.1569 15.5 15.5 14.1569 15.5 12.5H13.5C13.5 13.0523 13.0523 13.5 12.5 13.5V15.5ZM3.5 15.5H12.5V13.5H3.5V15.5ZM0.5 12.5C0.5 14.1569 1.84315 15.5 3.5 15.5V13.5C2.94772 13.5 2.5 13.0523 2.5 12.5H0.5ZM0.5 9.5V12.5H2.5V9.5H0.5ZM0.5 8.5V9.5H2.5V8.5H0.5Z" fill="currentColor" mask="url(#path-1-inside-1_1312_99516)"/>
</svg>
