<svg width="16" height="16" viewBox="0 0 16 16" fill="none" xmlns="http://www.w3.org/2000/svg">
<path d="M11 4.5C11.0327 4.5 11.0655 4.50242 11.0977 4.50879C11.1074 4.51071 11.1165 4.5151 11.126 4.51758C11.2092 4.53924 11.2883 4.58128 11.3535 4.64648C11.3874 4.68035 11.4134 4.71889 11.4355 4.75879C11.4601 4.803 11.48 4.85023 11.4902 4.90137C11.4967 4.9339 11.5 4.96695 11.5 5V11C11.4999 11.2761 11.2761 11.5 11 11.5C10.7239 11.5 10.5001 11.2761 10.5 11V6.20703L5.35352 11.3535C5.15827 11.5487 4.84173 11.5487 4.64648 11.3535C4.45125 11.1583 4.4513 10.8418 4.64648 10.6465L9.79297 5.5H5C4.72391 5.5 4.50009 5.27607 4.5 5C4.5 4.72386 4.72386 4.5 5 4.5H11Z" fill="currentColor"/>
</svg>
