<svg width="16" height="16" viewBox="0 0 16 16" fill="none" xmlns="http://www.w3.org/2000/svg">
<path d="M1.98959 8.35336C1.92779 8.29153 1.88726 8.21704 1.86461 8.13861C1.85181 8.0944 1.8432 8.04814 1.8432 7.99981C1.8432 7.9458 1.85429 7.89455 1.87013 7.84582C1.87431 7.83295 1.87731 7.81971 1.88256 7.80715C1.90787 7.74669 1.94396 7.69191 1.98959 7.64626L6.98975 2.6461C7.18499 2.45105 7.50165 2.45099 7.69686 2.6461C7.89206 2.8413 7.89193 3.15793 7.69686 3.35321L3.5502 7.49986H13.6569C13.933 7.49991 14.1568 7.7237 14.1568 7.99981C14.1568 8.27591 13.9329 8.49971 13.6569 8.49976H3.5502L7.69686 12.6464C7.89205 12.8417 7.89207 13.1583 7.69686 13.3535C7.50161 13.5488 7.18502 13.5487 6.98975 13.3535L1.98959 8.35336Z" fill="currentColor"/>
</svg>
