<svg width="16" height="16" viewBox="0 0 16 16" fill="none" xmlns="http://www.w3.org/2000/svg">
<path d="M11.0713 3.50035C10.9487 3.37776 4.06056 3.4778 3.9024 3.50914L3.89947 3.51012C3.87086 3.51598 3.84306 3.524 3.81646 3.53453C3.80296 3.53985 3.79048 3.54753 3.7774 3.55406C3.76353 3.56101 3.74947 3.56738 3.73638 3.57555C3.72592 3.58206 3.71617 3.58968 3.70611 3.59703C3.6885 3.60992 3.67205 3.624 3.6563 3.63902C3.65335 3.64184 3.64944 3.64394 3.64654 3.64684C3.64326 3.65011 3.64091 3.65424 3.63775 3.65758C3.62182 3.67444 3.60728 3.69234 3.5938 3.71129C3.58831 3.71899 3.58318 3.72679 3.57818 3.73473C3.56599 3.75408 3.55544 3.77426 3.54595 3.79527C3.5427 3.80248 3.53908 3.80944 3.53619 3.81676C3.51367 3.8737 3.50005 3.93545 3.50005 4.00035V11.0716C3.50026 11.3475 3.72419 11.5715 4.00005 11.5716C4.27607 11.5716 4.49984 11.3476 4.50005 11.0716V5.20738L11.6465 12.3539C11.8418 12.5491 12.1583 12.549 12.3536 12.3539C12.5488 12.1586 12.5488 11.8421 12.3536 11.6468L5.20708 4.50035H11.0713C11.3474 4.50035 11.5713 4.27642 11.5713 4.00035C11.5713 3.72421 11.3475 3.50035 11.0713 3.50035Z" fill="currentColor"/>
</svg>
