<svg width="16" height="16" viewBox="0 0 16 16" fill="none" xmlns="http://www.w3.org/2000/svg">
<path d="M5 11.4399C4.96731 11.4399 4.93453 11.4375 4.90234 11.4312C4.89262 11.4292 4.88354 11.4248 4.87402 11.4224C4.82106 11.4086 4.76965 11.3874 4.72266 11.356C4.58852 11.2663 4.5 11.1134 4.5 10.9399L4.5 4.93994C4.50017 4.66395 4.72397 4.43994 5 4.43994C5.27604 4.43994 5.49983 4.66395 5.5 4.93994L5.5 9.73291L10.6465 4.58643C10.8417 4.39138 11.1583 4.39138 11.3535 4.58643C11.5487 4.78163 11.5486 5.09818 11.3535 5.29346L6.20703 10.4399L11 10.4399C11.276 10.4399 11.4998 10.6639 11.5 10.9399C11.5 11.2161 11.2761 11.4399 11 11.4399L5 11.4399Z" fill="currentColor"/>
</svg>
