<svg width="16" height="16" viewBox="0 0 16 16" fill="none" xmlns="http://www.w3.org/2000/svg">
<path d="M12 3.5C12.0327 3.5 12.0655 3.50242 12.0977 3.50879L12.1006 3.50977C12.1299 3.51577 12.1583 3.52425 12.1855 3.53516C12.1947 3.53881 12.2029 3.54461 12.2119 3.54883C12.2295 3.55714 12.2472 3.56495 12.2637 3.5752C12.2741 3.58171 12.2839 3.58932 12.2939 3.59668C12.3116 3.60957 12.328 3.62364 12.3438 3.63867C12.3467 3.6415 12.3506 3.64357 12.3535 3.64648C12.3571 3.65009 12.3598 3.65452 12.3633 3.6582C12.3771 3.67292 12.3894 3.68877 12.4014 3.70508C12.4096 3.71632 12.4176 3.72751 12.4248 3.73926C12.4352 3.75615 12.4438 3.77385 12.4521 3.79199C12.4559 3.80024 12.4606 3.80801 12.4639 3.81641C12.4719 3.83664 12.4781 3.85748 12.4834 3.87891C12.4859 3.88905 12.4893 3.89893 12.4912 3.90918C12.4966 3.93862 12.5 3.96902 12.5 4V11.0713C12.4998 11.3472 12.2759 11.5711 12 11.5713C11.724 11.5713 11.5002 11.3473 11.5 11.0713V5.20703L4.35352 12.3535C4.15828 12.5487 3.84173 12.5487 3.64648 12.3535C3.45124 12.1583 3.45129 11.8418 3.64648 11.6465L10.793 4.5H4.92871C4.65262 4.5 4.4288 4.27607 4.42871 4C4.42871 3.72386 4.65257 3.5 4.92871 3.5H12Z" fill="currentColor"/>
</svg>
