<svg width="16" height="16" viewBox="0 0 16 16" fill="none" xmlns="http://www.w3.org/2000/svg">
<path d="M8.01562 2.00098C8.03624 2.00164 8.05673 2.00364 8.07715 2.00684C8.0907 2.00894 8.10402 2.01148 8.11719 2.01465C8.1321 2.01825 8.14654 2.02334 8.16113 2.02832C8.17565 2.03328 8.19022 2.03772 8.2041 2.04395C8.21656 2.04953 8.22817 2.05683 8.24023 2.06348C8.25552 2.0719 8.27091 2.07992 8.28516 2.08984C8.30908 2.10652 8.33217 2.12516 8.35352 2.14648L13.3535 7.14648C13.5487 7.34171 13.5487 7.65824 13.3535 7.85352C13.1583 8.04878 12.8417 8.04878 12.6465 7.85352L8.5 3.70703V12.8135C8.5 13.0896 8.27614 13.3135 8 13.3135C7.72386 13.3135 7.5 13.0896 7.5 12.8135V3.70703L3.35352 7.85352C3.15825 8.04878 2.84175 8.04878 2.64648 7.85352C2.45134 7.65824 2.45126 7.34171 2.64648 7.14648L7.64648 2.14648L7.72461 2.08203C7.74996 2.0653 7.77634 2.05068 7.80371 2.03906C7.81087 2.03601 7.81884 2.03495 7.82617 2.03223C7.84617 2.02483 7.86609 2.01745 7.88672 2.0127C7.89948 2.00974 7.91267 2.00879 7.92578 2.00684C7.94592 2.00385 7.96602 2.0015 7.98633 2.00098C7.99088 2.00085 7.99542 2 8 2C8.00524 2 8.01043 2.00082 8.01562 2.00098Z" fill="currentColor"/>
</svg>
