<svg width="16" height="16" viewBox="0 0 16 16" fill="none" xmlns="http://www.w3.org/2000/svg">
<path d="M8 2C8.27614 2 8.5 2.22386 8.5 2.5V11.6064L12.6465 7.45996C12.8417 7.2647 13.1583 7.2647 13.3535 7.45996C13.5488 7.65522 13.5488 7.97173 13.3535 8.16699L8.35352 13.167C8.31945 13.2011 8.2804 13.2268 8.24023 13.249C8.19596 13.2735 8.14884 13.2936 8.09766 13.3037C8.0329 13.3166 7.96611 13.3167 7.90137 13.3037C7.85024 13.2935 7.80299 13.2736 7.75879 13.249C7.71891 13.2269 7.68034 13.2008 7.64648 13.167L2.64648 8.16699C2.45122 7.97173 2.45122 7.65522 2.64648 7.45996C2.84175 7.2647 3.15825 7.2647 3.35352 7.45996L7.5 11.6064V2.5C7.5 2.22386 7.72386 2 8 2Z" fill="currentColor"/>
</svg>
