<svg width="16" height="16" viewBox="0 0 16 16" fill="none" xmlns="http://www.w3.org/2000/svg">
<path d="M4 12.5C3.96732 12.5 3.93452 12.4976 3.90234 12.4912L3.89941 12.4902C3.87008 12.4842 3.84167 12.4757 3.81445 12.4648C3.80529 12.4612 3.79706 12.4554 3.78809 12.4512C3.77046 12.4429 3.75275 12.435 3.73633 12.4248C3.72587 12.4183 3.71612 12.4107 3.70605 12.4033C3.68845 12.3904 3.67201 12.3764 3.65625 12.3613C3.65329 12.3585 3.6494 12.3564 3.64648 12.3535C3.64288 12.3499 3.64019 12.3455 3.63672 12.3418C3.62289 12.3271 3.61061 12.3112 3.59863 12.2949C3.59035 12.2837 3.58241 12.2725 3.5752 12.2607C3.56482 12.2438 3.5562 12.2261 3.54785 12.208C3.54406 12.1998 3.53945 12.192 3.53613 12.1836C3.52813 12.1634 3.52194 12.1425 3.5166 12.1211C3.51407 12.111 3.51067 12.1011 3.50879 12.0908C3.50339 12.0614 3.5 12.031 3.5 12L3.5 4.92871C3.50021 4.65283 3.72411 4.42885 4 4.42871C4.27601 4.42871 4.49979 4.65275 4.5 4.92871L4.5 10.793L11.6465 3.64648C11.8417 3.45132 12.1583 3.45134 12.3535 3.64648C12.5488 3.84173 12.5487 4.15825 12.3535 4.35352L5.20703 11.5L11.0713 11.5C11.3474 11.5 11.5712 11.7239 11.5713 12C11.5713 12.2761 11.3474 12.5 11.0713 12.5L4 12.5Z" fill="currentColor"/>
</svg>
