<svg width="16" height="16" viewBox="0 0 16 16" fill="none" xmlns="http://www.w3.org/2000/svg">
<path d="M8.22168 1.79541C9.63885 0.402765 11.8524 0.402763 13.2695 1.79541C14.691 3.19276 14.6911 5.38249 13.2695 6.77979L13.2666 6.78271L8.37598 11.522C7.51288 12.3669 6.10061 12.3939 5.28223 11.5005V11.4995C4.43359 10.6454 4.41108 9.25533 5.31934 8.45166L7.33789 6.46729C7.53471 6.27387 7.85134 6.2766 8.04492 6.47314C8.23828 6.67004 8.23577 6.98665 8.03906 7.18018L6.00098 9.18311L5.99219 9.19189L5.98242 9.20068C5.56745 9.56802 5.51575 10.2333 5.91504 10.7124L6.00098 10.8062L6.01074 10.8149L6.01953 10.8247C6.42278 11.2648 7.18217 11.2927 7.67773 10.8062L7.68066 10.8032L12.5684 6.06689C13.5916 5.0614 13.5915 3.51384 12.5684 2.5083C11.5402 1.49798 9.94998 1.49798 8.92188 2.5083L3.62402 7.71436C2.12566 9.18714 2.12553 11.6694 3.62402 13.1421C5.1275 14.6194 7.66829 14.6193 9.17188 13.1421L12.1611 10.2056C12.3581 10.012 12.6746 10.0145 12.8682 10.2114C13.0615 10.4084 13.0582 10.725 12.8613 10.9185L9.87305 13.856C7.9804 15.7153 4.81534 15.7155 2.92285 13.856C1.02551 11.9914 1.02583 8.86619 2.92285 7.00146L8.22168 1.79541Z" fill="currentColor"/>
</svg>
