<svg width="16" height="16" viewBox="0 0 16 16" fill="none" xmlns="http://www.w3.org/2000/svg">
<path d="M8.19238 0.538574L14.1924 3.03857L14.5 3.16748V9.50049C14.4999 11.2243 13.8156 12.8783 12.5967 14.0972C12.5504 14.1435 12.5017 14.1872 12.4541 14.2319C12.4197 14.2769 12.3777 14.3154 12.3281 14.3472C11.2201 15.3366 9.80682 15.919 8.32227 15.9927L8 16.0005C6.27617 16.0005 4.62229 15.3161 3.40332 14.0972C2.26058 12.9544 1.58757 11.4292 1.50781 9.82275L1.5 9.50049V3.16748L1.80762 3.03857L7.80762 0.538574L8 0.458496L8.19238 0.538574ZM8.0625 11.8735C6.60185 11.8737 5.32874 12.6774 4.66016 13.8677C5.614 14.5973 6.78575 15.0005 8 15.0005L8.27246 14.9937C9.42528 14.9365 10.5265 14.5159 11.4248 13.8003C10.7464 12.6473 9.49538 11.8735 8.0625 11.8735ZM2.5 3.8335V9.50049L2.50684 9.77295C2.56941 11.0339 3.06505 12.2343 3.9082 13.1733C4.77436 11.7924 6.31074 10.8737 8.0625 10.8735C9.77871 10.8735 11.2878 11.7561 12.1631 13.0903C13.0213 12.0954 13.4999 10.8234 13.5 9.50049V3.8335L8 1.54248L2.5 3.8335ZM8.05566 4.82275C9.56016 4.82304 10.7803 6.0428 10.7803 7.54736C10.7801 9.05175 9.56003 10.2717 8.05566 10.272C6.55105 10.272 5.33125 9.05193 5.33105 7.54736C5.33105 6.04263 6.55093 4.82275 8.05566 4.82275ZM8.05566 5.82275C7.10321 5.82275 6.33105 6.59491 6.33105 7.54736C6.33125 8.49965 7.10334 9.27197 8.05566 9.27197C9.00775 9.27169 9.78007 8.49947 9.78027 7.54736C9.78027 6.59509 9.00787 5.82304 8.05566 5.82275Z" fill="currentColor"/>
</svg>
