<svg width="16" height="16" viewBox="0 0 16 16" fill="none" xmlns="http://www.w3.org/2000/svg">
<path d="M7.86328 0.77002C7.95306 0.744366 8.04889 0.744366 8.13867 0.77002L14.8896 2.69873C15.104 2.76015 15.2518 2.9562 15.252 3.1792C15.2519 7.89763 13.5079 10.9135 11.7363 12.7485C10.8549 13.6615 9.97225 14.2768 9.30762 14.6646C8.97525 14.8584 8.69642 14.9963 8.49805 15.0864C8.39894 15.1314 8.3195 15.1645 8.26367 15.187C8.23579 15.1982 8.2131 15.2064 8.19727 15.2124C8.18948 15.2154 8.18341 15.2185 8.17871 15.2202C8.17646 15.221 8.17437 15.2216 8.17285 15.2222L8.1709 15.2231H8.16992L8.00098 14.7524L8.16895 15.2231C8.06032 15.2619 7.94163 15.2619 7.83301 15.2231L8.00098 14.7524C7.83529 15.2163 7.83239 15.2232 7.83203 15.2231H7.83105L7.8291 15.2222C7.82759 15.2216 7.82549 15.221 7.82324 15.2202C7.81854 15.2185 7.81247 15.2154 7.80469 15.2124C7.78886 15.2064 7.76617 15.1982 7.73828 15.187C7.68246 15.1645 7.603 15.1314 7.50391 15.0864C7.30553 14.9963 7.0267 14.8584 6.69434 14.6646C6.0297 14.2768 5.14708 13.6615 4.26562 12.7485C2.49405 10.9135 0.750072 7.89762 0.75 3.1792C0.75012 2.95621 0.897952 2.76016 1.1123 2.69873L7.86328 0.77002ZM8.05762 10.186C6.72191 10.1862 5.56153 10.9433 4.98438 12.0532L4.98535 12.0542C5.79151 12.8891 6.59715 13.4496 7.19824 13.8003C7.49853 13.9755 7.74724 14.0978 7.91797 14.1753C7.94783 14.1888 7.97604 14.1996 8.00098 14.2104C8.02591 14.1996 8.05412 14.1888 8.08398 14.1753C8.25471 14.0978 8.50343 13.9755 8.80371 13.8003C9.4048 13.4496 10.2104 12.8891 11.0166 12.0542C11.0412 12.0287 11.0642 12.0011 11.0889 11.9751C10.4986 10.9079 9.36171 10.1862 8.05762 10.186ZM1.75391 3.55518C1.82967 7.14759 2.98813 9.60869 4.29102 11.2573C5.082 10.0132 6.47273 9.18616 8.05762 9.18604C9.60811 9.18618 10.9723 9.9781 11.7715 11.1772C13.0487 9.52929 14.1725 7.09058 14.2471 3.55518L8.00098 1.77002L1.75391 3.55518ZM8.0498 3.74072C9.43155 3.74084 10.5524 4.86098 10.5527 6.24268C10.5527 7.62464 9.43174 8.74548 8.0498 8.74561C6.66797 8.74536 5.54785 7.62456 5.54785 6.24268C5.54817 4.86106 6.66817 3.74097 8.0498 3.74072ZM8.0498 4.74072C7.22045 4.74097 6.54817 5.41334 6.54785 6.24268C6.54785 7.07228 7.22026 7.74536 8.0498 7.74561C8.87946 7.74548 9.55273 7.07236 9.55273 6.24268C9.55242 5.41326 8.87926 4.74084 8.0498 4.74072Z" fill="currentColor"/>
</svg>
