<svg width="16" height="16" viewBox="0 0 16 16" fill="none" xmlns="http://www.w3.org/2000/svg">
<path d="M8 1C11.866 1 15 4.13401 15 8C15 11.866 11.866 15 8 15C4.13401 15 1 11.866 1 8C1 4.13401 4.13401 1 8 1ZM8 2C4.68629 2 2 4.68629 2 8C2 11.3137 4.68629 14 8 14C11.3137 14 14 11.3137 14 8C14 4.68629 11.3137 2 8 2ZM11.3203 11.5H10.0654L9.43945 9.6543H6.54492L5.90527 11.5H4.6748L7.29688 4.22461H8.70801L11.3203 11.5ZM7.68262 6.2998C7.54915 6.72949 7.42057 7.125 7.29688 7.48633L6.88086 8.6875H9.11035L8.70312 7.48633C8.58268 7.12174 8.45573 6.72624 8.32227 6.2998C8.22808 5.99657 8.12339 5.64663 8.00488 5.25098C7.88569 5.64667 7.77911 5.99654 7.68262 6.2998Z" fill="currentColor"/>
</svg>
