<svg width="16" height="16" viewBox="0 0 16 16" fill="none" xmlns="http://www.w3.org/2000/svg">
<g clip-path="url(#clip0_19684_14092)">
<path d="M8 0.967285C9.47877 0.967338 10.6777 2.16623 10.6777 3.64502C10.6776 4.95282 9.73977 6.03969 8.5 6.27393V8.62939L10.6143 10.3218C11.0824 9.92066 11.6906 9.67822 12.3555 9.67822C13.8341 9.67849 15.0332 10.8773 15.0332 12.356C15.0329 13.8344 13.8339 15.0334 12.3555 15.0337C10.8768 15.0337 9.67801 13.8345 9.67773 12.356C9.67773 11.9029 9.79063 11.4761 9.98926 11.1021L8 9.51025L6.00977 11.1021C6.20852 11.4762 6.32227 11.9028 6.32227 12.356C6.32199 13.8345 5.12314 15.0336 3.64453 15.0337C2.16602 15.0335 0.967068 13.8344 0.966797 12.356C0.966797 10.8772 2.16585 9.67838 3.64453 9.67822C4.30906 9.67825 4.91568 9.92194 5.38379 10.3228L7.5 8.62939V6.27393C6.26058 6.03942 5.32239 4.95258 5.32227 3.64502C5.32227 2.16634 6.52137 0.967502 8 0.967285ZM3.64453 10.6782C2.71813 10.6784 1.9668 11.4295 1.9668 12.356C1.96707 13.2822 2.7183 14.0335 3.64453 14.0337C4.57085 14.0336 5.32199 13.2822 5.32227 12.356C5.32227 11.4295 4.57102 10.6783 3.64453 10.6782ZM12.3555 10.6782C11.4289 10.6782 10.6777 11.4294 10.6777 12.356C10.678 13.2823 11.4291 14.0337 12.3555 14.0337C13.2816 14.0334 14.0329 13.2821 14.0332 12.356C14.0332 11.4296 13.2818 10.6785 12.3555 10.6782ZM8 1.96729C7.07365 1.9675 6.32227 2.71862 6.32227 3.64502C6.32241 4.56902 7.07005 5.31788 7.99316 5.32178H8.00586C8.92975 5.31878 9.67759 4.56958 9.67773 3.64502C9.67773 2.71852 8.92649 1.96734 8 1.96729Z" fill="currentColor"/>
</g>
<defs>
<clipPath id="clip0_19684_14092">
<rect width="16" height="16" fill="white"/>
</clipPath>
</defs>
</svg>
