<svg width="16" height="16" viewBox="0 0 16 16" fill="none" xmlns="http://www.w3.org/2000/svg">
<path d="M9.33301 1.77539C11.2062 1.77539 12.7246 3.29383 12.7246 5.16699C12.7245 6.10957 12.3395 6.96155 11.7188 7.57617C12.7197 8.16584 13.3916 9.25422 13.3916 10.5C13.3916 12.3732 11.8732 13.8916 10 13.8916H4C3.5997 13.8916 3.27557 13.5672 3.27539 13.167V2.5C3.27539 2.09959 3.59959 1.77539 4 1.77539H9.33301ZM4.72461 12.4414H10C11.0724 12.4414 11.9414 11.5724 11.9414 10.5C11.9414 9.42765 11.0724 8.55859 10 8.55859H4.72461V12.4414ZM4.72461 7.1084H9.33301C10.4053 7.1084 11.2752 6.2392 11.2754 5.16699C11.2754 4.09464 10.4054 3.22461 9.33301 3.22461H4.72461V7.1084Z" fill="currentColor"/>
</svg>
