<svg width="16" height="16" viewBox="0 0 16 16" fill="none" xmlns="http://www.w3.org/2000/svg">
<path d="M5.3623 2V2.00293C5.38515 2.00137 5.4084 2 5.43164 2H8.33203C9.08028 2.00005 9.72308 2.12233 10.2607 2.36621C10.8041 2.61015 11.2205 2.95621 11.5088 3.40527C11.797 3.84874 11.9404 4.37561 11.9404 4.98535V5.00195C11.9404 5.42316 11.8466 5.81681 11.6582 6.18262C11.4697 6.54294 11.2173 6.84819 10.9014 7.09766C10.6032 7.33302 10.2677 7.48704 9.89551 7.55957C9.85691 7.56724 9.82812 7.60125 9.82812 7.64062C9.82836 7.68185 9.86039 7.71577 9.90137 7.7207C10.4143 7.78246 10.8645 7.93864 11.251 8.1875C11.6554 8.44802 11.971 8.78652 12.1982 9.20215C12.4254 9.61231 12.539 10.0776 12.5391 10.5986V10.6152C12.5391 11.3138 12.3737 11.9187 12.041 12.4287C11.7139 12.9332 11.2446 13.3211 10.6348 13.5928C10.025 13.8643 9.29304 14 8.43945 14H5.43164C5.40838 14 5.38517 13.9977 5.3623 13.9961V14H5.25C4.2835 14 3.5 13.2165 3.5 12.25V3.75C3.5 2.7835 4.2835 2 5.25 2H5.3623ZM5.3623 12.4785H8.05762C8.90009 12.4785 9.53737 12.3088 9.96973 11.9707C10.4021 11.6325 10.6181 11.1421 10.6182 10.499V10.4824C10.6182 10.0501 10.5188 9.68963 10.3193 9.40137C10.1198 9.11308 9.82006 8.89707 9.4209 8.75293C9.02731 8.60325 8.53681 8.52833 7.94922 8.52832H5.3623V12.4785ZM5.3623 7.10645H7.5752C8.40108 7.1064 9.025 6.95656 9.44629 6.65723C9.86757 6.35231 10.0781 5.90825 10.0781 5.32617V5.30957C10.0781 4.74418 9.8864 4.30652 9.50391 3.99609C9.12137 3.6801 8.58361 3.52148 7.89062 3.52148H5.3623V7.10645Z" fill="currentColor"/>
</svg>
