<svg width="16" height="16" viewBox="0 0 16 16" fill="none" xmlns="http://www.w3.org/2000/svg">
<path d="M3.63672 12.5762V3.42676C3.63672 2.45117 4.11133 2.00293 5.14844 2.00293H8.41797C10.5361 2.00293 11.8633 3.14551 11.8633 4.95605C11.8633 6.30078 11.1338 7.25879 9.87695 7.59277V7.68066C11.4941 7.86523 12.5137 8.98145 12.5137 10.625C12.5137 12.6992 10.8965 14 8.33008 14H5.14844C4.11133 14 3.63672 13.5605 3.63672 12.5762ZM5.62305 7.07422H7.31055C9.09473 7.07422 9.88574 6.47656 9.88574 5.29004C9.88574 4.22656 9.19141 3.58496 8.00488 3.58496H5.62305V7.07422ZM5.62305 12.418H7.53027C9.63086 12.418 10.4834 11.8203 10.4834 10.5547C10.4834 9.31543 9.64844 8.57715 8.16309 8.57715H5.62305V12.418Z" fill="currentColor"/>
</svg>
