<svg width="16" height="16" viewBox="0 0 16 16" fill="none" xmlns="http://www.w3.org/2000/svg">
<path d="M8.00098 10.2891C9.30156 10.2893 10.3562 11.344 10.3564 12.6445C10.3562 13.9451 9.30156 14.9998 8.00098 15C6.70042 14.9998 5.64575 13.9451 5.64551 12.6445C5.64574 11.344 6.70042 10.2893 8.00098 10.2891ZM8.00098 11.2852C7.25009 11.2854 6.64184 11.8936 6.6416 12.6445C6.64184 13.3954 7.2501 14.0046 8.00098 14.0049C8.75188 14.0047 9.36109 13.3954 9.36133 12.6445C9.36109 11.8936 8.75188 11.2854 8.00098 11.2852ZM3.35547 5.64453C4.65623 5.64453 5.7107 6.6993 5.71094 8C5.71073 9.30073 4.65624 10.3555 3.35547 10.3555C2.05497 10.3551 1.00021 9.30053 1 8C1.00023 6.69949 2.05498 5.64485 3.35547 5.64453ZM12.6445 5.64453C13.9453 5.64453 14.9998 6.6993 15 8C14.9998 9.30073 13.9453 10.3555 12.6445 10.3555C11.344 10.3552 10.2893 9.30057 10.2891 8C10.2893 6.69946 11.344 5.64479 12.6445 5.64453ZM3.35547 6.64062C2.60466 6.64095 1.99633 7.24917 1.99609 8C1.9963 8.75085 2.60464 9.36003 3.35547 9.36035C4.10657 9.36035 4.71561 8.75105 4.71582 8C4.71559 7.24897 4.10655 6.64062 3.35547 6.64062ZM12.6445 6.64062C11.8937 6.64088 11.2854 7.24913 11.2852 8C11.2854 8.75089 11.8937 9.36009 12.6445 9.36035C13.3956 9.36035 14.0047 8.75105 14.0049 8C14.0046 7.24897 13.3956 6.64062 12.6445 6.64062ZM8.00098 1C9.30156 1.00021 10.3562 2.05489 10.3564 3.35547C10.3563 4.65609 9.30159 5.71073 8.00098 5.71094C6.70038 5.7107 5.64568 4.65608 5.64551 3.35547C5.64574 2.05491 6.70042 1.00023 8.00098 1ZM8.00098 1.99609C7.25009 1.99633 6.64184 2.60459 6.6416 3.35547C6.64178 4.1064 7.25006 4.71559 8.00098 4.71582C8.75192 4.71561 9.36115 4.10642 9.36133 3.35547C9.36109 2.60457 8.75188 1.9963 8.00098 1.99609Z" fill="currentColor"/>
</svg>
