<svg width="16" height="16" viewBox="0 0 16 16" fill="none" xmlns="http://www.w3.org/2000/svg">
<path d="M12.833 12.3008C13.1091 12.3008 13.333 12.5246 13.333 12.8008C13.3327 13.0767 13.109 13.3008 12.833 13.3008H4.83301C4.55703 13.3008 4.33327 13.0767 4.33301 12.8008C4.33301 12.5246 4.55687 12.3008 4.83301 12.3008H12.833ZM12.833 7.5C13.1091 7.5 13.333 7.72386 13.333 8C13.333 8.27614 13.1091 8.5 12.833 8.5H4.83301C4.55687 8.5 4.33301 8.27614 4.33301 8C4.33301 7.72386 4.55687 7.5 4.83301 7.5H12.833ZM12.833 2.7002C13.1091 2.7002 13.333 2.92405 13.333 3.2002C13.333 3.47634 13.1091 3.7002 12.833 3.7002H4.83301C4.55687 3.7002 4.33301 3.47634 4.33301 3.2002C4.33301 2.92405 4.55687 2.7002 4.83301 2.7002H12.833Z" fill="currentColor"/>
</svg>
