<svg width="16" height="16" viewBox="0 0 16 16" fill="none" xmlns="http://www.w3.org/2000/svg">
<path d="M11.7676 0.640137C12.0436 0.640254 12.2676 0.864067 12.2676 1.14014V2.21729C12.2676 2.22121 12.2657 2.2251 12.2656 2.229C12.8851 2.25152 13.2959 2.31416 13.6387 2.48877C14.1091 2.72844 14.4918 3.11116 14.7314 3.58154C15.0038 4.11629 15.0039 4.81638 15.0039 6.21631V11.0161C15.0039 12.4159 15.0037 13.1161 14.7314 13.6509L14.6348 13.8237C14.3946 14.2152 14.0502 14.534 13.6387 14.7437C13.1039 15.0161 12.404 15.0161 11.0039 15.0161H5.00391L4.07715 15.0122C3.39958 15.0016 2.94352 14.964 2.57812 14.8335L2.36914 14.7437C1.89875 14.504 1.51605 14.1213 1.27637 13.6509C1.00408 13.1161 1.00391 12.4159 1.00391 11.0161V6.21631C1.00391 4.99112 1.00393 4.30193 1.18652 3.79053L1.27637 3.58154C1.48601 3.17011 1.80489 2.82563 2.19629 2.58545L2.36914 2.48877C2.71032 2.31499 3.1188 2.25179 3.7334 2.229C3.73331 2.2251 3.73242 2.22121 3.73242 2.21729V1.14014C3.73242 0.864067 3.95638 0.640254 4.23242 0.640137C4.50856 0.640137 4.73242 0.863994 4.73242 1.14014V2.21631H11.0039C11.0947 2.21631 11.1825 2.21721 11.2676 2.21729V1.14014C11.2676 0.863994 11.4914 0.640137 11.7676 0.640137ZM13.9199 7.02197H2.08008C2.05403 7.02197 2.02888 7.01703 2.00391 7.01318V11.0161C2.00391 11.7325 2.00424 12.21 2.03418 12.5767C2.06318 12.9316 2.11456 13.0948 2.16699 13.1978C2.3108 13.4799 2.54108 13.7093 2.82324 13.853C2.92618 13.9054 3.08871 13.9569 3.44336 13.9858C3.81007 14.0158 4.28736 14.0161 5.00391 14.0161H11.0039C11.7204 14.0161 12.1977 14.0158 12.5645 13.9858C12.9191 13.9569 13.0816 13.9054 13.1846 13.853C13.4667 13.7093 13.697 13.4799 13.8408 13.1978C13.8933 13.0948 13.9446 12.9316 13.9736 12.5767C14.0036 12.21 14.0039 11.7325 14.0039 11.0161V7.01221C13.9765 7.01688 13.9487 7.02196 13.9199 7.02197ZM11.291 10.0044C12.0552 10.0818 12.6531 10.7268 12.6533 11.5112L12.6455 11.6665C12.5676 12.4302 11.9209 13.0268 11.1367 13.0269L10.9814 13.019C10.2176 12.9414 9.62037 12.2954 9.62012 11.5112C9.62031 10.6747 10.3001 9.99658 11.1367 9.99658L11.291 10.0044ZM11.1367 10.9966C10.8512 10.9966 10.6203 11.2282 10.6201 11.5112C10.6204 11.7942 10.8512 12.0269 11.1367 12.0269C11.4221 12.0268 11.6531 11.7941 11.6533 11.5112C11.6531 11.2283 11.4222 10.9967 11.1367 10.9966ZM5.00391 3.21631C4.28738 3.21631 3.81006 3.21663 3.44336 3.24658C3.08883 3.27555 2.92619 3.32703 2.82324 3.37939C2.54102 3.52319 2.3108 3.75343 2.16699 4.03564C2.11463 4.13858 2.06315 4.30125 2.03418 4.65576C2.0192 4.83917 2.01175 5.05035 2.00781 5.30518L2.00391 6.02881C2.0288 6.02499 2.05412 6.02198 2.08008 6.02197H13.9199C13.9482 6.02199 13.9759 6.02525 14.0029 6.02979C14.0027 5.41536 14.0009 4.98967 13.9736 4.65576C13.9447 4.30125 13.8932 4.13858 13.8408 4.03564C13.697 3.75343 13.4668 3.52319 13.1846 3.37939C13.0816 3.32703 12.919 3.27555 12.5645 3.24658C12.1977 3.21663 11.7204 3.21631 11.0039 3.21631H5.00391Z" fill="currentColor"/>
</svg>
