<svg width="16" height="16" viewBox="0 0 16 16" fill="none" xmlns="http://www.w3.org/2000/svg">
<path d="M11.8037 1.50098C12.9238 1.50098 13.4843 1.50076 13.9121 1.71875C14.2883 1.91049 14.5944 2.21659 14.7861 2.59277C15.0039 3.02055 15.0039 3.58141 15.0039 4.70117V11.3008C15.0039 12.4206 15.0041 12.9814 14.7861 13.4092L14.709 13.5469C14.5168 13.86 14.2412 14.1155 13.9121 14.2832L13.7441 14.3545C13.335 14.5004 12.7836 14.501 11.8037 14.501H4.2041L3.46191 14.498C2.92044 14.4895 2.55582 14.4587 2.26367 14.3545L2.0957 14.2832C1.76659 14.1155 1.49096 13.86 1.29883 13.5469L1.22168 13.4092C1.00372 12.9814 1.00391 12.4206 1.00391 11.3008V4.70117C1.00391 3.58141 1.00389 3.02055 1.22168 2.59277C1.41338 2.21659 1.71954 1.91049 2.0957 1.71875C2.41653 1.55528 2.81194 1.51413 3.46191 1.50391L4.2041 1.50098H11.8037ZM4.2041 2.50098C3.62755 2.50098 3.25502 2.50224 2.97168 2.52539C2.70012 2.54759 2.59924 2.58516 2.5498 2.61035C2.36193 2.7062 2.20909 2.85897 2.11328 3.04688C2.08809 3.09645 2.05046 3.19787 2.02832 3.46875C2.00521 3.75203 2.00391 4.12495 2.00391 4.70117V11.3008C2.00391 11.8771 2.00518 12.2499 2.02832 12.5332C2.05052 12.8044 2.08811 12.9057 2.11328 12.9551C2.20913 13.1429 2.36196 13.2958 2.5498 13.3916C2.59931 13.4168 2.70045 13.4544 2.97168 13.4766C3.25501 13.4997 3.62758 13.501 4.2041 13.501H11.8037C12.3802 13.501 12.7528 13.4997 13.0361 13.4766C13.3074 13.4544 13.4085 13.4168 13.458 13.3916C13.6458 13.2958 13.7987 13.1429 13.8945 12.9551C13.9197 12.9057 13.9573 12.8044 13.9795 12.5332C14.0026 12.2499 14.0039 11.8771 14.0039 11.3008V4.70117C14.0039 4.12495 14.0026 3.75203 13.9795 3.46875C13.9574 3.19787 13.9197 3.09645 13.8945 3.04688C13.7987 2.85897 13.6459 2.7062 13.458 2.61035C13.4086 2.58516 13.3077 2.54759 13.0361 2.52539C12.8945 2.51382 12.7307 2.507 12.5303 2.50391L11.8037 2.50098H4.2041ZM11.75 10.5C12.1641 10.5 12.4998 10.836 12.5 11.25C12.5 11.6642 12.1642 12 11.75 12C11.3358 12 11 11.6642 11 11.25C11.0002 10.836 11.3359 10.5 11.75 10.5ZM12.5 4.00098C12.7761 4.00098 13 4.22483 13 4.50098C12.9997 4.77689 12.776 5.00098 12.5 5.00098H3.5C3.22402 5.00098 3.00026 4.77689 3 4.50098C3 4.22483 3.22386 4.00098 3.5 4.00098H12.5Z" fill="currentColor"/>
</svg>
