<svg width="16" height="16" viewBox="0 0 16 16" fill="none" xmlns="http://www.w3.org/2000/svg">
<path fill-rule="evenodd" clip-rule="evenodd" d="M11.9674 3.99476C10.8183 2.84563 9.2598 2.19995 7.63469 2.19971C7.35855 2.19967 7.13473 1.97577 7.13477 1.69963C7.13481 1.42349 7.3587 1.19967 7.63484 1.19971C9.52512 1.19999 11.3379 1.95103 12.6745 3.28765C14.0111 4.62428 14.7622 6.43705 14.7625 8.32732C14.7625 8.60346 14.5387 8.82735 14.2625 8.82739C13.9864 8.82743 13.7625 8.60361 13.7625 8.32747C13.7622 6.70236 13.1165 5.14388 11.9674 3.99476ZM9.99348 5.96859C9.36788 5.34299 8.51949 4.99137 7.63476 4.99101C7.35862 4.9909 7.13485 4.76695 7.13496 4.49081C7.13508 4.21467 7.35903 3.9909 7.63517 3.99101C8.78497 3.99148 9.88755 4.44845 10.7006 5.26148C11.5136 6.07452 11.9706 7.1771 11.9711 8.3269C11.9712 8.60305 11.7474 8.82699 11.4713 8.82711C11.1951 8.82722 10.9712 8.60345 10.9711 8.32731C10.9707 7.44258 10.6191 6.59419 9.99348 5.96859ZM2.30357 4.08816C2.28133 3.80953 2.373 3.60786 2.51678 3.47056C2.66714 3.32699 2.90833 3.22336 3.22376 3.22336H4.14335C4.37279 3.22336 4.57278 3.37951 4.62842 3.60209L4.77305 4.18058C5.03503 5.22846 4.59441 6.32609 3.68061 6.90198L3.06129 7.29227C2.70183 6.35966 2.44914 5.34183 2.31835 4.28272C2.31356 4.21574 2.30858 4.15087 2.30357 4.08816ZM4.21377 7.74799L3.46739 8.21836C3.57638 8.43824 3.69178 8.65154 3.81333 8.85758L3.81377 8.85831C4.63307 10.2525 5.78001 11.4259 7.15519 12.2768L7.15587 12.2772C7.36386 12.4064 7.57814 12.5247 7.79863 12.6333L8.20398 11.9367C8.20921 11.9277 8.21449 11.9188 8.21979 11.9098C9.0266 10.5511 10.6456 9.90037 12.1701 10.3259L12.6499 10.4599C13.2976 10.6407 13.7459 11.2304 13.7466 11.9029L13.7475 12.6318C13.7481 13.1478 13.5832 13.6802 13.2677 14.0813C12.9441 14.4928 12.441 14.7831 11.82 14.7063L11.8195 14.7062L11.7503 14.6977C10.3472 14.5261 9.01647 14.2541 7.80607 13.7367C7.72083 13.7003 7.63617 13.6626 7.5521 13.6237C7.23554 13.4771 6.92752 13.3125 6.62893 13.1271C5.11564 12.1908 3.85349 10.8995 2.95183 9.36532C2.73944 9.00527 2.54533 8.62735 2.37019 8.23475C1.84685 7.06164 1.49112 5.7536 1.32424 4.39183L1.32268 4.37911L1.32177 4.36632C1.31697 4.29845 1.3119 4.23232 1.30674 4.16773C1.26157 3.60183 1.4556 3.1012 1.82617 2.74734C2.19017 2.39975 2.69198 2.22336 3.22376 2.22336H4.14335C4.83165 2.22336 5.43162 2.6918 5.59856 3.35954L5.74319 3.93804C6.10996 5.40507 5.49309 6.94175 4.21377 7.74799ZM9.01651 12.5287L8.72847 13.0237C9.18736 13.1866 9.6689 13.3183 10.1727 13.4268C10.7135 13.5432 11.28 13.6327 11.8717 13.7051L11.872 13.7052L11.942 13.7138L11.881 14.2105L11.9425 13.7138C12.1483 13.7394 12.3287 13.6576 12.4818 13.4631C12.643 13.258 12.7479 12.9504 12.7475 12.633L12.7466 11.904C12.7464 11.6799 12.597 11.4833 12.3811 11.423L11.9012 11.2891C10.8051 10.9831 9.64066 11.4561 9.06829 12.4397L9.01651 12.5287Z" fill="currentColor"/>
</svg>
