<svg width="16" height="16" viewBox="0 0 16 16" fill="none" xmlns="http://www.w3.org/2000/svg">
<path fill-rule="evenodd" clip-rule="evenodd" d="M14.9625 8.84345C14.9672 8.6513 14.8924 8.4515 14.6875 8.27733C14.6342 8.23196 14.5788 8.18461 14.5218 8.13519C13.69 7.48676 12.8012 6.95308 11.8972 6.55445L11.7252 7.30743C11.4922 8.32722 11.9419 9.38111 12.8393 9.91859L13.3826 10.2439C13.5727 10.3578 13.8159 10.3278 13.9726 10.1711L14.6475 9.49613C14.863 9.28065 14.9575 9.04461 14.9625 8.84345ZM10.9853 6.20605L10.7829 7.09218C10.4568 8.51989 11.0863 9.99533 12.3427 10.7478L12.8859 11.0732C13.4563 11.4148 14.186 11.3246 14.6561 10.8545L15.331 10.1796C15.694 9.81657 15.9168 9.35323 15.9287 8.86714C15.9409 8.37204 15.7321 7.89674 15.3136 7.54096C15.2589 7.49444 15.2029 7.4465 15.1456 7.39676L15.1362 7.38861L15.1264 7.38096C14.0633 6.55065 12.9058 5.88949 11.7254 5.43906C11.3364 5.29062 9.40924 4.63613 7.78107 4.70473C6.20572 4.7711 5.56705 4.91297 4.14719 5.41037L4.13343 5.41519L4.11999 5.42083C2.78826 5.97958 1.71976 6.62407 0.702196 7.47078C-0.155999 8.18488 -0.117528 9.44484 0.626833 10.1892L1.27266 10.835C1.73625 11.2986 2.45325 11.3934 3.02139 11.0662L3.5183 10.7801C4.8352 10.0217 5.48587 8.47754 5.1036 7.00538C5.03112 6.72626 4.95784 6.4447 4.88815 6.17799C5.9381 5.82747 6.5141 5.72553 7.82176 5.67043C8.94639 5.62304 10.2916 5.98406 10.9853 6.20605ZM3.98302 6.53734C2.96914 7.00718 2.12785 7.54191 1.32043 8.21376C0.94761 8.52399 0.922259 9.11771 1.31029 9.50574L1.95612 10.1516C2.11065 10.3061 2.34965 10.3377 2.53903 10.2286L3.03594 9.94247C3.97695 9.40056 4.44066 8.29807 4.16807 7.24831C4.10601 7.00933 4.04341 6.76873 3.98302 6.53734Z" fill="currentColor"/>
</svg>
