<svg width="16" height="16" viewBox="0 0 16 16" fill="none" xmlns="http://www.w3.org/2000/svg">
<path fill-rule="evenodd" clip-rule="evenodd" d="M2 7.97754C2 4.66383 4.68629 1.97754 8 1.97754C11.3137 1.97754 14 4.66383 14 7.97754C14 11.2912 11.3137 13.9775 8 13.9775C6.88708 13.9775 5.84635 13.675 4.95389 13.148C4.83158 13.0758 4.68433 13.059 4.54889 13.1018L2.45603 13.7636L3.05676 11.7017C3.09789 11.5605 3.07479 11.4084 2.99359 11.2858C2.36568 10.3376 2 9.20104 2 7.97754ZM8 0.977539C4.13401 0.977539 1 4.11155 1 7.97754C1 9.31923 1.37794 10.574 2.03327 11.6396L1.23406 14.3828C1.18243 14.56 1.23262 14.7512 1.3646 14.8802C1.49658 15.0092 1.68889 15.055 1.86486 14.9994L4.6423 14.1211C5.63953 14.6672 6.78419 14.9775 8 14.9775C11.866 14.9775 15 11.8435 15 7.97754C15 4.11155 11.866 0.977539 8 0.977539ZM8.44522 4.60567C8.64049 4.41041 8.95707 4.41042 9.15232 4.60569C9.34758 4.80096 9.34757 5.11754 9.1523 5.3128L7.35738 7.10758L9.71576 8.10796C9.8688 8.17287 9.97957 8.30961 10.0113 8.4728C10.043 8.63598 9.99161 8.80427 9.87405 8.92182L7.44644 11.3493C7.25118 11.5446 6.93459 11.5446 6.73934 11.3493C6.54408 11.1541 6.54408 10.8375 6.73935 10.6422L8.64264 8.739L6.28424 7.73862C6.1312 7.67371 6.02043 7.53697 5.98869 7.37378C5.95695 7.21059 6.0084 7.0423 6.12595 6.92476L8.44522 4.60567Z" fill="currentColor"/>
</svg>
