<svg width="16" height="16" viewBox="0 0 16 16" fill="none" xmlns="http://www.w3.org/2000/svg">
<g clip-path="url(#clip0_278_46982)">
<path fill-rule="evenodd" clip-rule="evenodd" d="M14.2301 8.50254C13.9742 11.7193 11.2826 14.25 8 14.25C4.71739 14.25 2.02585 11.7193 1.76991 8.50254H4.24445C4.6033 8.50254 4.93465 8.31026 5.11269 7.99868L6.23917 6.02734L8.64689 10.8428C8.91478 11.3786 9.6717 11.3996 9.96889 10.8795L11.3271 8.50254H14.2301ZM14.2305 7.50254H11.3271C10.9683 7.50254 10.6369 7.69483 10.4589 8.0064L9.33241 9.97775L6.92469 5.16231C6.6568 4.62653 5.89989 4.60552 5.60269 5.12562L4.24445 7.50254H1.76951C2.02301 4.28333 4.71566 1.75 8 1.75C11.2843 1.75 13.977 4.28333 14.2305 7.50254ZM8 15.25C12.0041 15.25 15.25 12.0041 15.25 8C15.25 3.99594 12.0041 0.75 8 0.75C3.99594 0.75 0.75 3.99594 0.75 8C0.75 12.0041 3.99594 15.25 8 15.25Z" fill="currentColor"/>
</g>
<defs>
<clipPath id="clip0_278_46982">
<rect width="16" height="16" fill="white"/>
</clipPath>
</defs>
</svg>
