<svg width="16" height="16" viewBox="0 0 16 16" fill="none" xmlns="http://www.w3.org/2000/svg">
<path d="M12.5 1.5C13.8807 1.5 15 2.61929 15 4V10C15 11.3807 13.8807 12.5 12.5 12.5H5.31641C5.03889 12.5 4.76664 12.5772 4.53027 12.7227L1.76172 14.4258C1.60748 14.5206 1.41391 14.5248 1.25586 14.4365C1.09783 14.3481 1 14.1811 1 14V4C1 2.61929 2.11929 1.5 3.5 1.5H12.5ZM3.5 2.5C2.67157 2.5 2 3.17157 2 4V13.1055L4.00586 11.8711C4.39988 11.6286 4.85376 11.5 5.31641 11.5H12.5C13.3284 11.5 14 10.8284 14 10V4C14 3.17157 13.3284 2.5 12.5 2.5H3.5ZM8 9C8.27614 9 8.5 9.22386 8.5 9.5C8.5 9.77614 8.27614 10 8 10H4C3.72386 10 3.5 9.77614 3.5 9.5C3.5 9.22386 3.72386 9 4 9H8ZM12 6.5C12.2761 6.5 12.5 6.72386 12.5 7C12.5 7.27614 12.2761 7.5 12 7.5H4C3.72386 7.5 3.5 7.27614 3.5 7C3.5 6.72386 3.72386 6.5 4 6.5H12ZM12 4C12.2761 4 12.5 4.22386 12.5 4.5C12.5 4.77614 12.2761 5 12 5H4C3.72386 5 3.5 4.77614 3.5 4.5C3.5 4.22386 3.72386 4 4 4H12Z" fill="currentColor"/>
</svg>
