<svg width="16" height="16" viewBox="0 0 16 16" fill="none" xmlns="http://www.w3.org/2000/svg">
<path d="M8 1C11.866 1 15 4.13401 15 8C15 11.866 11.866 15 8 15C4.13401 15 1 11.866 1 8C1 4.13401 4.13401 1 8 1ZM8 2C4.68629 2 2 4.68629 2 8C2 11.3137 4.68629 14 8 14C11.3137 14 14 11.3137 14 8C14 4.68629 11.3137 2 8 2ZM7.99805 3.5C8.27396 3.50026 8.49805 3.72402 8.49805 4V7.49805H12C12.2761 7.49805 12.5 7.7219 12.5 7.99805C12.4997 8.27396 12.276 8.49805 12 8.49805H8.49805V12C8.49805 12.276 8.27396 12.4997 7.99805 12.5C7.7219 12.5 7.49805 12.2761 7.49805 12V8.49805H4C3.72402 8.49805 3.50026 8.27396 3.5 7.99805C3.5 7.7219 3.72386 7.49805 4 7.49805H7.49805V4C7.49805 3.72386 7.7219 3.5 7.99805 3.5Z" fill="currentColor"/>
</svg>
