<svg width="16" height="16" viewBox="0 0 16 16" fill="none" xmlns="http://www.w3.org/2000/svg">
<path d="M12.1494 3.14648C12.3446 2.95126 12.6612 2.95135 12.8564 3.14648C13.0517 3.34175 13.0517 3.65825 12.8564 3.85352L8.70898 8.00098L12.8574 12.1494C13.0526 12.3446 13.0526 12.6612 12.8574 12.8564C12.6622 13.0516 12.3456 13.0517 12.1504 12.8564L8.00195 8.70801L3.85352 12.8564C3.65825 13.0517 3.34175 13.0517 3.14648 12.8564C2.95135 12.6612 2.95126 12.3446 3.14648 12.1494L7.29492 8.00098L3.14746 3.85352C2.95228 3.65827 2.95228 3.34173 3.14746 3.14648C3.34271 2.95137 3.65927 2.95132 3.85449 3.14648L8.00195 7.29395L12.1494 3.14648Z" fill="currentColor"/>
</svg>
