<svg width="16" height="16" viewBox="0 0 16 16" fill="none" xmlns="http://www.w3.org/2000/svg">
<path fill-rule="evenodd" clip-rule="evenodd" d="M13.8582 5.01957C14.444 4.43378 14.444 3.48404 13.8582 2.89825L13.1017 2.14177C12.5159 1.55598 11.5662 1.55598 10.9804 2.14177L10.2733 2.84888L9.73812 3.38406C9.29641 3.03029 8.64983 3.05813 8.24037 3.46759C7.83091 3.87706 7.80306 4.52363 8.15684 4.96534L3.27295 9.84923C3.21092 9.91126 3.16631 9.9885 3.14358 10.0732L2.78936 11.3935L2.49513 11.6877C2.00697 12.1759 2.00697 12.9673 2.49513 13.4555C2.98328 13.9436 3.77474 13.9436 4.2629 13.4555L4.55713 13.1612L5.87738 12.807C5.9621 12.7843 6.03935 12.7397 6.10137 12.6777L10.9813 7.79768C11.4229 8.19856 12.1061 8.18587 12.5324 7.75961C12.9418 7.35014 12.9697 6.70357 12.6159 6.26186L13.8582 5.01957ZM10.2733 7.09152L5.48894 11.8759L4.16869 12.2301C4.08397 12.2528 4.00672 12.2974 3.9447 12.3595L3.55579 12.7484C3.45816 12.846 3.29987 12.846 3.20223 12.7484C3.1046 12.6507 3.1046 12.4924 3.20223 12.3948L3.59114 12.0059C3.65317 11.9439 3.69778 11.8666 3.72051 11.7819L4.07473 10.4617L8.85909 5.6773L10.2733 7.09152Z" fill="currentColor"/>
</svg>
