<svg width="16" height="16" viewBox="0 0 16 16" fill="none" xmlns="http://www.w3.org/2000/svg">
<path fill-rule="evenodd" clip-rule="evenodd" d="M9.49993 5.79345L9.49993 2.33333C9.49993 2.05718 9.27607 1.83333 8.99993 1.83333C8.72379 1.83333 8.49993 2.05718 8.49993 2.33333L8.49993 6.9999C8.49993 7.27604 8.72378 7.4999 8.99993 7.4999H9.00021C9.00046 7.4999 9.00071 7.4999 9.00096 7.4999L13.6665 7.4999C13.9426 7.4999 14.1665 7.27605 14.1665 6.9999C14.1665 6.72376 13.9426 6.4999 13.6665 6.4999L10.2077 6.4999L14.354 2.35355C14.5493 2.15829 14.5493 1.84171 14.354 1.64645C14.1588 1.45118 13.8422 1.45118 13.6469 1.64645L9.49993 5.79345ZM2.33398 8.50042C2.05784 8.50042 1.83398 8.72427 1.83398 9.00042C1.83398 9.27656 2.05784 9.50042 2.33398 9.50042H5.7928L1.64645 13.6468C1.45118 13.842 1.45118 14.1586 1.64645 14.3539C1.84171 14.5491 2.15829 14.5491 2.35355 14.3539L6.50056 10.2069L6.50056 13.667C6.50056 13.9431 6.72442 14.167 7.00056 14.167C7.2767 14.167 7.50056 13.9431 7.50056 13.667L7.50056 9.00042C7.50056 8.72427 7.2767 8.50042 7.00056 8.50042H7.00028H6.99953L2.33398 8.50042Z" fill="currentColor"/>
</svg>
