<svg width="16" height="16" viewBox="0 0 16 16" fill="none" xmlns="http://www.w3.org/2000/svg">
<path fill-rule="evenodd" clip-rule="evenodd" d="M12.25 2.25H3.75C2.92157 2.25 2.25 2.92157 2.25 3.75V12.25C2.25 12.9163 2.68448 13.4812 3.28559 13.6767C3.78399 11.4981 5.73336 9.87302 8.06301 9.87302C10.3773 9.87302 12.3163 11.4767 12.8304 13.6336C13.3706 13.4067 13.75 12.8727 13.75 12.25V3.75C13.75 2.92157 13.0784 2.25 12.25 2.25ZM11.8282 13.75C11.3786 12.0924 9.86289 10.873 8.06301 10.873C6.26313 10.873 4.74739 12.0924 4.29784 13.75H11.8282ZM3.75 1.25C2.36929 1.25 1.25 2.36929 1.25 3.75V12.25C1.25 13.6307 2.36929 14.75 3.75 14.75H12.25C13.6307 14.75 14.75 13.6307 14.75 12.25V3.75C14.75 2.36929 13.6307 1.25 12.25 1.25H3.75ZM8.0551 4.82163C7.10265 4.82163 6.33054 5.59375 6.33054 6.5462C6.33054 7.49865 7.10265 8.27076 8.0551 8.27076C9.00755 8.27076 9.77967 7.49865 9.77967 6.5462C9.77967 5.59375 9.00755 4.82163 8.0551 4.82163ZM5.33054 6.5462C5.33054 5.04146 6.55037 3.82163 8.0551 3.82163C9.55984 3.82163 10.7797 5.04146 10.7797 6.5462C10.7797 8.05093 9.55984 9.27076 8.0551 9.27076C6.55037 9.27076 5.33054 8.05093 5.33054 6.5462Z" fill="currentColor"/>
</svg>
