<svg width="16" height="16" viewBox="0 0 16 16" fill="none" xmlns="http://www.w3.org/2000/svg">
<path fill-rule="evenodd" clip-rule="evenodd" d="M6.40156 2.21603C6.91092 2.07529 7.44702 2 8.00237 2C11.3173 2 14.0047 4.68747 14.0047 8.00237C14.0047 11.3173 11.3173 14.0047 8.00237 14.0047C4.68747 14.0047 2 11.3173 2 8.00237C2 7.44702 2.07529 6.91092 2.21603 6.40156C2.28957 6.13539 2.13341 5.86 1.86724 5.78646C1.60107 5.71292 1.32568 5.86908 1.25214 6.13525C1.0877 6.73042 1 7.35608 1 8.00237C1 11.8696 4.13519 15.0047 8.00237 15.0047C11.8696 15.0047 15.0047 11.8696 15.0047 8.00237C15.0047 4.13519 11.8696 1 8.00237 1C7.35608 1 6.73042 1.0877 6.13525 1.25214C5.86908 1.32568 5.71292 1.60107 5.78646 1.86724C5.86 2.13341 6.13539 2.28957 6.40156 2.21603ZM2.36648 2.36697L2.59546 1.92248C2.40218 1.82291 2.16671 1.85966 2.01296 2.01338C1.8592 2.16711 1.82242 2.40258 1.92196 2.59587L2.36648 2.36697ZM2.36648 2.36697C2.59546 1.92248 2.59549 1.9225 2.59555 1.92253L2.59579 1.92265L2.5967 1.92312L2.60022 1.92494L2.61398 1.93203L2.66741 1.95965L2.87033 2.06489C3.04543 2.15589 3.29636 2.28676 3.60007 2.44643C4.20731 2.76568 5.02634 3.20044 5.8724 3.662C6.71765 4.12311 7.5936 4.61299 8.31334 5.04204C8.67294 5.25642 8.9976 5.45801 9.26169 5.63484C9.51651 5.80548 9.74438 5.97226 9.88806 6.11579L9.88824 6.11597C10.9298 7.15751 10.9295 8.84639 9.88843 9.88855C8.84662 10.9314 7.1576 10.9298 6.11567 9.88891C5.97184 9.74523 5.80488 9.5173 5.63418 9.26254C5.45726 8.99847 5.25561 8.67382 5.04121 8.31422C4.61209 7.59449 4.12223 6.71849 3.66117 5.87318C3.19966 5.02705 2.76497 4.20794 2.44579 3.60061C2.28616 3.29687 2.15531 3.04591 2.06433 2.87079L1.95911 2.66784L1.93151 2.6144L1.92441 2.60064L1.9226 2.59711L1.92213 2.59621L1.922 2.59597C1.92197 2.59591 1.92196 2.59587 2.36648 2.36697ZM4.53907 5.39434C4.17886 4.73393 3.83479 4.08952 3.54976 3.55041C4.0888 3.8355 4.73314 4.17962 5.39349 4.53986C6.23441 4.99862 7.09758 5.4815 7.80129 5.901C8.15341 6.11091 8.46156 6.30255 8.70529 6.46576C8.95828 6.63517 9.11324 6.75525 9.18132 6.82326C9.83195 7.47409 9.83215 8.52994 9.18096 9.1818C8.53042 9.83301 7.47457 9.83293 6.82241 9.18144C6.75448 9.11358 6.63442 8.95884 6.46495 8.70591C6.30171 8.46228 6.11005 8.15419 5.90013 7.80211C5.48061 7.09847 4.99777 6.2353 4.53907 5.39434Z" fill="currentColor"/>
</svg>
