<svg width="16" height="16" viewBox="0 0 16 16" fill="none" xmlns="http://www.w3.org/2000/svg">
<g clip-path="url(#clip0_20290_5433)">
<path d="M6.30078 1.1709C7.25695 0.276313 8.74305 0.276311 9.69922 1.1709L10.3613 1.79004C10.4593 1.88177 10.5875 1.93502 10.7217 1.93945L11.627 1.96973C12.936 2.01307 13.9869 3.06403 14.0303 4.37305L14.0605 5.27832C14.065 5.41243 14.1182 5.54065 14.21 5.63867L14.8291 6.30078C15.7237 7.25695 15.7237 8.74305 14.8291 9.69922L14.21 10.3613C14.1182 10.4593 14.065 10.5875 14.0605 10.7217L14.0303 11.627C13.9869 12.936 12.936 13.9869 11.627 14.0303L10.7217 14.0605C10.5876 14.065 10.4594 14.1182 10.3613 14.21L9.69922 14.8291C8.74305 15.7237 7.25695 15.7237 6.30078 14.8291L5.63867 14.21C5.54065 14.1182 5.41243 14.065 5.27832 14.0605L4.37305 14.0303C3.06403 13.9869 2.01307 12.936 1.96973 11.627L1.93945 10.7217C1.93502 10.5875 1.88177 10.4593 1.79004 10.3613L1.1709 9.69922C0.276311 8.74305 0.276313 7.25695 1.1709 6.30078L1.79004 5.63867C1.88177 5.54066 1.93502 5.41244 1.93945 5.27832L1.96973 4.37305C2.01307 3.06403 3.06403 2.01307 4.37305 1.96973L5.27832 1.93945C5.41244 1.93502 5.54066 1.88177 5.63867 1.79004L6.30078 1.1709ZM9.0166 1.90137C8.44482 1.36621 7.55518 1.36621 6.9834 1.90137L6.32227 2.52051C6.04732 2.77782 5.68789 2.927 5.31152 2.93945L4.40625 2.96875C3.62353 2.99465 2.99465 3.62353 2.96875 4.40625L2.93945 5.31152C2.927 5.68789 2.77782 6.04732 2.52051 6.32227L1.90137 6.9834C1.36621 7.55518 1.36621 8.44482 1.90137 9.0166L2.52051 9.67773C2.77783 9.95268 2.927 10.3121 2.93945 10.6885L2.96875 11.5938C2.99465 12.3765 3.62353 13.0054 4.40625 13.0312L5.31152 13.0605C5.6879 13.073 6.04733 13.2222 6.32227 13.4795L6.9834 14.0986C7.55518 14.6338 8.44482 14.6338 9.0166 14.0986L9.67773 13.4795C9.95267 13.2222 10.3121 13.073 10.6885 13.0605L11.5938 13.0312C12.3765 13.0054 13.0054 12.3765 13.0312 11.5938L13.0605 10.6885C13.073 10.3121 13.2222 9.95267 13.4795 9.67773L14.0986 9.0166C14.6338 8.44482 14.6338 7.55518 14.0986 6.9834L13.4795 6.32227C13.2222 6.04733 13.073 5.6879 13.0605 5.31152L13.0312 4.40625C13.0054 3.62353 12.3765 2.99465 11.5938 2.96875L10.6885 2.93945C10.3121 2.927 9.95268 2.77783 9.67773 2.52051L9.0166 1.90137ZM10.25 9C10.9404 9 11.5 9.55963 11.5 10.25C11.5 10.9404 10.9404 11.5 10.25 11.5C9.55963 11.5 9 10.9404 9 10.25C9 9.55963 9.55963 9 10.25 9ZM10.957 5.75L5.75 10.957L5.04297 10.25L10.25 5.04297L10.957 5.75ZM10.25 10C10.1119 10 10 10.1119 10 10.25C10 10.3881 10.1119 10.5 10.25 10.5C10.3881 10.5 10.5 10.3881 10.5 10.25C10.5 10.1119 10.3881 10 10.25 10ZM5.75 4.5C6.44035 4.5 7 5.05965 7 5.75C7 6.44035 6.44035 7 5.75 7C5.05965 7 4.5 6.44035 4.5 5.75C4.5 5.05965 5.05965 4.5 5.75 4.5ZM5.75 5.5C5.61193 5.5 5.5 5.61193 5.5 5.75C5.5 5.88807 5.61193 6 5.75 6C5.88807 6 6 5.88807 6 5.75C6 5.61193 5.88807 5.5 5.75 5.5Z" fill="currentColor"/>
</g>
<defs>
<clipPath id="clip0_20290_5433">
<rect width="16" height="16" fill="white"/>
</clipPath>
</defs>
</svg>
