<svg width="16" height="16" viewBox="0 0 16 16" fill="none" xmlns="http://www.w3.org/2000/svg">
<path fill-rule="evenodd" clip-rule="evenodd" d="M2.34232 2.00832C1.51868 2.09514 0.920807 2.83401 1.00736 3.65773C1.09408 4.48124 1.83228 5.07889 2.6558 4.99269C3.24983 4.93026 3.72522 4.52838 3.91263 4.0005H11.2505C12.2169 4.00062 13.0006 4.78414 13.0005 5.7505C13.0003 6.71665 12.2167 7.50038 11.2505 7.5005H4.75052C3.23161 7.5005 1.99955 8.73159 1.99955 10.2505C1.99973 11.7693 3.23172 13.0005 4.75052 13.0005H12.0826C12.3082 13.6401 12.9489 14.0665 13.6529 13.9927C14.4764 13.9059 15.0751 13.1678 14.9888 12.3443C14.9022 11.5205 14.1631 10.9219 13.3394 11.0083C12.7456 11.0708 12.2698 11.4727 12.0826 12.0005H4.75052C3.78401 12.0005 2.99973 11.217 2.99955 10.2505C2.99955 9.28387 3.78389 8.5005 4.75052 8.5005H11.2505C12.7689 8.50038 14.0003 7.26892 14.0005 5.7505C14.0007 4.23184 12.7692 3.00063 11.2505 3.0005H3.91263C3.68655 2.36107 3.04617 1.93434 2.34232 2.00832ZM13.4439 12.0034C13.7184 11.9748 13.9648 12.1742 13.9937 12.4487C14.0223 12.7231 13.8227 12.9685 13.5484 12.9976C13.2741 13.0262 13.0286 12.8275 12.9995 12.5532C12.9707 12.2787 13.1695 12.0325 13.4439 12.0034ZM2.44681 3.00343C2.72143 2.97457 2.96773 3.17414 2.99662 3.44875C3.02524 3.72321 2.8258 3.96872 2.5513 3.99758C2.27704 4.0261 2.03152 3.82747 2.00248 3.55324C1.97366 3.27881 2.17249 3.03257 2.44681 3.00343Z" fill="currentColor"/>
</svg>
