<svg width="16" height="16" viewBox="0 0 16 16" fill="none" xmlns="http://www.w3.org/2000/svg">
<path fill-rule="evenodd" clip-rule="evenodd" d="M13.6509 2.0586C14.4746 2.14534 15.0724 2.88422 14.9858 3.70801C14.9223 4.31063 14.5095 4.79051 13.9702 4.97168C13.7368 6.95854 12.049 8.50008 9.99949 8.5H5.99949C4.49656 8.50005 3.25181 9.60575 3.03367 11.0479C3.6563 11.2831 4.06826 11.9147 3.99558 12.6074C3.90885 13.4309 3.17064 14.0286 2.34714 13.9424C1.52342 13.8558 0.924909 13.1176 1.0112 12.294C1.07471 11.6909 1.48783 11.2095 2.02781 11.0283C2.26135 9.04172 3.95018 7.50004 5.99949 7.5H9.99949C11.5027 7.50007 12.7473 6.39456 12.9653 4.95215C12.3422 4.71737 11.929 4.08744 12.0014 3.39454C12.088 2.57072 12.827 1.97213 13.6509 2.0586ZM2.55613 11.9531C2.2816 11.9243 2.03533 12.124 2.00632 12.3984C1.9777 12.6729 2.17714 12.9184 2.45163 12.9473C2.72588 12.9758 2.97142 12.7771 3.00046 12.5029C3.02913 12.2286 2.83034 11.9823 2.55613 11.9531ZM13.5464 3.05372C13.2718 3.02498 13.0254 3.22447 12.9966 3.49903C12.9681 3.77333 13.1676 4.01891 13.4419 4.04786C13.7161 4.07647 13.9615 3.87768 13.9907 3.60352C14.0195 3.32902 13.8208 3.08278 13.5464 3.05372Z" fill="currentColor"/>
</svg>
