<svg width="16" height="16" viewBox="0 0 16 16" fill="none" xmlns="http://www.w3.org/2000/svg">
<path fill-rule="evenodd" clip-rule="evenodd" d="M14.4609 3.19238C14.737 3.19238 14.9607 3.41641 14.9609 3.69238C14.9607 3.96832 14.7369 4.19238 14.4609 4.19238H13.4932L13.0205 11.2773C12.9833 11.8358 12.9544 12.2844 12.9014 12.6455C12.8475 13.0126 12.7642 13.3304 12.5986 13.6211C12.3332 14.0871 11.9318 14.4614 11.4492 14.6953C11.1482 14.8411 10.8258 14.9033 10.4561 14.9326C10.0922 14.9615 9.64268 14.9609 9.08301 14.9609H6.91602C6.35635 14.9609 5.90677 14.9615 5.54297 14.9326C5.17332 14.9032 4.85077 14.8412 4.5498 14.6953C4.06745 14.4614 3.66676 14.0868 3.40137 13.6211C3.2359 13.3305 3.15252 13.0124 3.09863 12.6455C3.04564 12.2844 3.01574 11.8357 2.97852 11.2773L2.50586 4.19238H1.53809C1.26227 4.19218 1.03833 3.96819 1.03809 3.69238C1.03829 3.41654 1.26224 3.19259 1.53809 3.19238H14.4609ZM3.97656 11.2109C4.01484 11.7852 4.042 12.1873 4.08789 12.5C4.13286 12.8063 4.19065 12.9873 4.26953 13.126C4.43486 13.4162 4.68486 13.6501 4.98535 13.7959C5.12897 13.8655 5.31344 13.911 5.62207 13.9355C5.93715 13.9606 6.34044 13.9609 6.91602 13.9609H9.08301C9.65857 13.9609 10.0619 13.9605 10.377 13.9355C10.6858 13.911 10.87 13.8655 11.0137 13.7959C11.3144 13.6501 11.564 13.4164 11.7295 13.126C11.8085 12.9872 11.8661 12.8066 11.9111 12.5C11.957 12.1873 11.9842 11.7852 12.0225 11.2109L12.4912 4.19238H3.50781L3.97656 11.2109ZM6.56348 6.42285C6.83949 6.42285 7.06327 6.64688 7.06348 6.92285V10.5127C7.06334 10.7887 6.83954 11.0127 6.56348 11.0127C6.28771 11.0124 6.06361 10.7885 6.06348 10.5127V6.92285C6.06368 6.64709 6.28775 6.42319 6.56348 6.42285ZM9.43555 6.42285C9.71155 6.42287 9.93534 6.64689 9.93555 6.92285V10.5127C9.93541 10.7887 9.71159 11.0127 9.43555 11.0127C9.15966 11.0125 8.93568 10.7886 8.93555 10.5127V6.92285C8.93575 6.64701 9.1597 6.42305 9.43555 6.42285ZM10.1533 1.03809C10.4293 1.03809 10.6531 1.26212 10.6533 1.53809C10.6533 1.81423 10.4295 2.03809 10.1533 2.03809H5.8457C5.56977 2.03784 5.3457 1.81408 5.3457 1.53809C5.34591 1.26227 5.56989 1.03833 5.8457 1.03809H10.1533Z" fill="currentColor"/>
</svg>
