<svg width="16" height="16" viewBox="0 0 16 16" fill="none" xmlns="http://www.w3.org/2000/svg">
<path fill-rule="evenodd" clip-rule="evenodd" d="M3 12.6001H13C13.5523 12.6001 14 12.1524 14 11.6001V3.6001C14 3.04781 13.5523 2.6001 13 2.6001H3C2.44772 2.6001 2 3.04781 2 3.6001V11.6001C2 12.1524 2.44772 12.6001 3 12.6001ZM13 13.6001C14.1046 13.6001 15 12.7047 15 11.6001V3.6001C15 2.49553 14.1046 1.6001 13 1.6001H3C1.89543 1.6001 1 2.49553 1 3.6001V11.6001C1 12.7047 1.89543 13.6001 3 13.6001H13ZM4.5 14.6001C4.5 14.324 4.72386 14.1001 5 14.1001H11C11.2761 14.1001 11.5 14.324 11.5 14.6001C11.5 14.8762 11.2761 15.1001 11 15.1001H5C4.72386 15.1001 4.5 14.8762 4.5 14.6001ZM7.12443 4.79909C6.62735 4.45113 5.94434 4.80675 5.94434 5.41351V9.89763C5.94434 10.5044 6.62735 10.86 7.12443 10.5121L10.3274 8.27C10.7539 7.97142 10.7539 7.33972 10.3274 7.04115L7.12443 4.79909ZM6.94434 9.41747V5.89368L9.46133 7.65557L6.94434 9.41747Z" fill="currentColor"/>
</svg>
