<svg width="16" height="16" viewBox="0 0 16 16" fill="none" xmlns="http://www.w3.org/2000/svg">
<path d="M12 1C13.3807 1 14.5 2.11929 14.5 3.5V12.5C14.5 13.8807 13.3807 15 12 15H4C2.61929 15 1.5 13.8807 1.5 12.5V3.5C1.5 2.11929 2.61929 1 4 1H12ZM4 2C3.17157 2 2.5 2.67157 2.5 3.5V12.5C2.5 13.3284 3.17157 14 4 14H12C12.8284 14 13.5 13.3284 13.5 12.5V3.5C13.5 2.67157 12.8284 2 12 2H4ZM5.125 10.5C5.47018 10.5 5.75 10.7798 5.75 11.125C5.75 11.4702 5.47018 11.75 5.125 11.75C4.77982 11.75 4.5 11.4702 4.5 11.125C4.5 10.7798 4.77982 10.5 5.125 10.5ZM11.5 10.625C11.7761 10.625 12 10.8489 12 11.125C12 11.4011 11.7761 11.625 11.5 11.625H7.5C7.22386 11.625 7 11.4011 7 11.125C7 10.8489 7.22386 10.625 7.5 10.625H11.5ZM5.125 7.5C5.47018 7.5 5.75 7.77982 5.75 8.125C5.75 8.47018 5.47018 8.75 5.125 8.75C4.77982 8.75 4.5 8.47018 4.5 8.125C4.5 7.77982 4.77982 7.5 5.125 7.5ZM11.5 7.625C11.7761 7.625 12 7.84886 12 8.125C12 8.40114 11.7761 8.625 11.5 8.625H7.5C7.22386 8.625 7 8.40114 7 8.125C7 7.84886 7.22386 7.625 7.5 7.625H11.5ZM5.125 4.5C5.47018 4.5 5.75 4.77982 5.75 5.125C5.75 5.47018 5.47018 5.75 5.125 5.75C4.77982 5.75 4.5 5.47018 4.5 5.125C4.5 4.77982 4.77982 4.5 5.125 4.5ZM11.5 4.625C11.7761 4.625 12 4.84886 12 5.125C12 5.40114 11.7761 5.625 11.5 5.625H7.5C7.22386 5.625 7 5.40114 7 5.125C7 4.84886 7.22386 4.625 7.5 4.625H11.5Z" fill="currentColor"/>
</svg>
