<svg width="16" height="16" viewBox="0 0 16 16" fill="none" xmlns="http://www.w3.org/2000/svg">
<g clip-path="url(#clip0_1836_83113)">
<path fill-rule="evenodd" clip-rule="evenodd" d="M6.6 0.5C3.31997 0.5 0.5 2.73214 0.5 5.66667C0.5 6.68307 0.847222 7.62442 1.43333 8.41444V11.7333C1.43333 11.9227 1.54034 12.0959 1.70974 12.1806C1.87914 12.2652 2.08185 12.247 2.23336 12.1333L4.42205 10.4916C5.09887 10.7116 5.83258 10.8333 6.6 10.8333C9.88003 10.8333 12.7 8.60119 12.7 5.66667C12.7 2.73214 9.88003 0.5 6.6 0.5ZM1.5 5.66667C1.5 3.44732 3.69389 1.5 6.6 1.5C9.50611 1.5 11.7 3.44732 11.7 5.66667C11.7 7.88601 9.50611 9.83333 6.6 9.83333C5.85251 9.83333 5.14598 9.69941 4.50856 9.46316C4.34919 9.4041 4.17074 9.43003 4.03478 9.53202L2.43333 10.7333V8.24453C2.43333 8.13134 2.39493 8.0215 2.32439 7.93297C1.79831 7.27265 1.5 6.49466 1.5 5.66667ZM14.6658 6.31995C14.5086 6.09288 14.1972 6.0362 13.9701 6.19336C13.743 6.35051 13.6864 6.66197 13.8435 6.88904C14.2647 7.4976 14.5004 8.19475 14.5004 8.93316C14.5004 9.76203 14.2021 10.5391 13.676 11.1995C13.6055 11.288 13.5671 11.3978 13.5671 11.511V14.0658L11.745 12.8515C11.6169 12.7662 11.4567 12.7445 11.3106 12.7929C10.7194 12.9885 10.0761 13.0998 9.40038 13.0998C7.94825 13.0998 6.64948 12.6031 5.72807 11.8221C5.51741 11.6436 5.2019 11.6696 5.02336 11.8803C4.84481 12.0909 4.87084 12.4064 5.0815 12.585C6.19289 13.527 7.72398 14.0998 9.40038 14.0998C10.0974 14.0998 10.7656 13.998 11.3887 13.8158L13.7898 15.4159C13.9432 15.5181 14.1405 15.5277 14.303 15.4406C14.4656 15.3536 14.5671 15.1842 14.5671 14.9998V11.6809C15.1531 10.8911 15.5004 9.95049 15.5004 8.93316C15.5004 7.97477 15.1929 7.08152 14.6658 6.31995Z" fill="currentColor"/>
</g>
<defs>
<clipPath id="clip0_1836_83113">
<rect width="16" height="16" fill="white"/>
</clipPath>
</defs>
</svg>
