<svg width="16" height="16" viewBox="0 0 16 16" fill="none" xmlns="http://www.w3.org/2000/svg">
<path d="M10.8193 0.884277C11.8276 0.986893 12.6152 1.83815 12.6152 2.87354V8.39307L12.6074 8.51807C12.5919 8.64144 12.5529 8.7617 12.4932 8.87158L9.375 14.604L9.30176 14.7192C9.14167 14.9367 8.89941 15.0801 8.63184 15.1167L8.49609 15.1265H8.19629L7.99219 15.1157C7.05069 15.0203 6.30257 14.272 6.20703 13.3306L6.19629 13.1265V10.5913H3.28223L3.15039 10.5874C1.80212 10.502 0.909648 9.11003 1.42969 7.83545L3.7627 2.11768C4.06978 1.36544 4.80176 0.873701 5.61426 0.873535H10.6152L10.8193 0.884277ZM5.61426 1.87354C5.20809 1.8737 4.84199 2.11955 4.68848 2.49561L2.35547 8.21338C2.08709 8.87115 2.57182 9.59131 3.28223 9.59131H6.19629C6.74836 9.59154 7.19627 10.0392 7.19629 10.5913V13.1265C7.19637 13.6787 7.64405 14.1265 8.19629 14.1265H8.49609L11.6152 8.39307V2.87354C11.6152 2.32151 11.1672 1.87395 10.6152 1.87354H5.61426ZM14.2217 1.00732C14.4977 1.00741 14.7216 1.23132 14.7217 1.50732V7.99268L14.7119 8.09326C14.6652 8.32095 14.4632 8.4926 14.2217 8.49268C13.9801 8.49268 13.7782 8.321 13.7314 8.09326L13.7217 7.99268V1.50732C13.7218 1.23127 13.9456 1.00732 14.2217 1.00732Z" fill="currentColor"/>
</svg>
