<svg width="16" height="16" viewBox="0 0 16 16" fill="none" xmlns="http://www.w3.org/2000/svg">
<path d="M8.00098 1C11.8674 1.00013 15.0019 4.13451 15.002 8.00098C15.0018 11.8674 11.8674 15.0018 8.00098 15.002C4.1345 15.0019 1.00011 11.8674 1 8.00098C1.00006 4.13447 4.13447 1.00006 8.00098 1ZM8.00098 2C4.68676 2.00006 2.00006 4.68675 2 8.00098C2.00011 11.3152 4.68679 14.0019 8.00098 14.002C11.3151 14.0018 14.0018 11.3151 14.002 8.00098C14.0019 4.6868 11.3151 2.00013 8.00098 2ZM8.00098 4.90039C8.27692 4.90052 8.50083 5.12445 8.50098 5.40039V9.39453L10.248 7.64746C10.4433 7.45231 10.7598 7.45226 10.9551 7.64746C11.1501 7.84271 11.1502 8.1593 10.9551 8.35449L8.35449 10.9551C8.26079 11.0487 8.13347 11.1015 8.00098 11.1016C7.86851 11.1015 7.74118 11.0487 7.64746 10.9551L5.04688 8.35449C4.85182 8.15924 4.85175 7.84267 5.04688 7.64746C5.24208 7.45228 5.55864 7.45239 5.75391 7.64746L7.50098 9.39453V5.40039C7.50112 5.1244 7.72497 4.90045 8.00098 4.90039Z" fill="currentColor"/>
</svg>
