<svg width="16" height="16" viewBox="0 0 16 16" fill="none" xmlns="http://www.w3.org/2000/svg">
<path fill-rule="evenodd" clip-rule="evenodd" d="M1.53906 3.37305C1.53906 3.0969 1.76292 2.87305 2.03906 2.87305H7.20192C7.38211 2.87305 7.54837 2.97001 7.6371 3.12684L8.2328 4.17978H11.9602C13.3409 4.17978 14.4602 5.29907 14.4602 6.67978V10.6272C14.4602 12.0079 13.3409 13.1272 11.9602 13.1272H4.03906C2.65835 13.1272 1.53906 12.0079 1.53906 10.6272V7.03346C1.53906 6.75732 1.76292 6.53346 2.03906 6.53346C2.3152 6.53346 2.53906 6.75732 2.53906 7.03346V10.6272C2.53906 11.4556 3.21064 12.1272 4.03906 12.1272H11.9602C12.7886 12.1272 13.4602 11.4556 13.4602 10.6272V6.67978C13.4602 5.85135 12.7886 5.17978 11.9602 5.17978H7.9412C7.76101 5.17978 7.59475 5.08282 7.50602 4.92598L6.91032 3.87305H2.03906C1.76292 3.87305 1.53906 3.64919 1.53906 3.37305Z" fill="currentColor"/>
</svg>
