<svg width="16" height="16" viewBox="0 0 16 16" fill="none" xmlns="http://www.w3.org/2000/svg">
<path d="M8.58008 1.75977C8.80789 1.80641 8.97949 2.0084 8.97949 2.25C8.97949 2.4916 8.80789 2.69359 8.58008 2.74023L8.47949 2.75H8C5.10051 2.75 2.75 5.10051 2.75 8C2.75 10.8995 5.10051 13.25 8 13.25C10.8995 13.25 13.25 10.8995 13.25 8V7.52051C13.2502 7.24451 13.474 7.02051 13.75 7.02051C14.026 7.02051 14.2498 7.24451 14.25 7.52051V8C14.25 11.4518 11.4518 14.25 8 14.25C4.54822 14.25 1.75 11.4518 1.75 8C1.75 4.54822 4.54822 1.75 8 1.75H8.47949L8.58008 1.75977ZM13.3965 1.89648C13.5918 1.70144 13.9083 1.70129 14.1035 1.89648C14.2985 2.09169 14.2985 2.40831 14.1035 2.60352L7.37109 9.33594C7.17589 9.53101 6.8593 9.53094 6.66406 9.33594C6.46884 9.14071 6.46892 8.82418 6.66406 8.62891L13.3965 1.89648Z" fill="currentColor"/>
</svg>
