<svg width="16" height="16" viewBox="0 0 16 16" fill="none" xmlns="http://www.w3.org/2000/svg">
<path d="M9.61914 2.20654C10.4001 1.42589 11.6663 1.42597 12.4473 2.20654L13.793 3.55225C14.5737 4.33322 14.5737 5.59936 13.793 6.38037L6.40137 13.772C6.19207 13.9813 5.92498 14.124 5.63477 14.1821L3.06934 14.6958C2.01975 14.9057 1.09379 13.9798 1.30371 12.9302L1.81738 10.3647C1.87556 10.0747 2.01832 9.80736 2.22754 9.59814L9.61914 2.20654ZM2.93457 10.3052C2.86491 10.3748 2.81728 10.4645 2.79785 10.561L2.28418 13.1265C2.21421 13.4763 2.52319 13.7853 2.87305 13.7153L5.43848 13.2017C5.53518 13.1823 5.6246 13.1347 5.69434 13.0649L11.626 7.1333L8.86621 4.37354L2.93457 10.3052ZM11.7402 2.91357C11.3498 2.52352 10.7166 2.52345 10.3262 2.91357L9.57324 3.6665L12.333 6.42627L13.0859 5.67334C13.4761 5.28285 13.4762 4.64973 13.0859 4.25928L11.7402 2.91357Z" fill="currentColor"/>
</svg>
