<svg width="16" height="16" viewBox="0 0 16 16" fill="none" xmlns="http://www.w3.org/2000/svg">
<path fill-rule="evenodd" clip-rule="evenodd" d="M11.2999 1.75H3.5C2.11929 1.75 1 2.86929 1 4.25V4.76645V11.75C1 13.1307 2.11929 14.25 3.5 14.25H12.5C13.8807 14.25 15 13.1307 15 11.75V5.45015C14.625 5.64186 14.2001 5.75 13.75 5.75C13.6079 5.75 13.4683 5.73922 13.332 5.71844L8.44711 8.16022C8.16564 8.30091 7.83436 8.30091 7.55289 8.16022L2.55289 5.66092C2.21405 5.49155 2 5.14526 2 4.76645V4.25C2 3.42157 2.67157 2.75 3.5 2.75H11.0112C11.0434 2.39255 11.144 2.05482 11.2999 1.75ZM12.0177 2.75C12.006 2.83165 12 2.91512 12 3C12 3.9665 12.7835 4.75 13.75 4.75C13.8331 4.75 13.9148 4.74421 13.9947 4.73302C14.3862 4.67824 14.7361 4.49396 14.9999 4.22487C15.3092 3.90923 15.5 3.47689 15.5 3C15.5 2.0335 14.7165 1.25 13.75 1.25C13.3272 1.25 12.9393 1.39997 12.6368 1.64961C12.5982 1.68152 12.5609 1.71506 12.5251 1.75012C12.2572 2.01268 12.0734 2.36067 12.0177 2.75ZM2 6.49851C2.03454 6.51844 2.0698 6.53742 2.10577 6.5554L7.10577 9.0547C7.66872 9.33609 8.33128 9.33609 8.89423 9.0547L13.8942 6.5554C13.9302 6.53742 13.9655 6.51844 14 6.49851V11.75C14 12.5784 13.3284 13.25 12.5 13.25H3.5C2.67157 13.25 2 12.5784 2 11.75V6.49851Z" fill="currentColor"/>
</svg>
