<svg width="16" height="16" viewBox="0 0 16 16" fill="none" xmlns="http://www.w3.org/2000/svg">
<path fill-rule="evenodd" clip-rule="evenodd" d="M3.13965 1.7793C1.75896 1.7793 0.639682 2.89855 0.639655 4.27925L0.639648 4.60823C0.639648 4.69756 0.645597 4.78599 0.657208 4.87305V11.2208C0.657208 12.6015 1.7765 13.7208 3.15721 13.7208H6.36892C6.64506 13.7208 6.86892 13.4969 6.86892 13.2208C6.86892 12.9446 6.64506 12.7208 6.36892 12.7208H3.15721C2.32878 12.7208 1.65721 12.0492 1.65721 11.2208V6.35035C1.68477 6.36588 1.71278 6.38082 1.74124 6.39512L3.63547 7.34751L4.31558 7.68946L4.99569 8.03141L4.99569 8.03142L4.99921 8.03316L5.42294 8.24205C5.67062 8.36415 5.97039 8.26234 6.09249 8.01466C6.21459 7.76698 6.11278 7.46721 5.8651 7.34511L5.4431 7.13708L4.76478 6.79603L4.08467 6.45408L2.19045 5.50169C1.90938 5.36038 1.71462 5.09722 1.65721 4.79501V4.2793C1.65721 3.45087 2.32878 2.7793 3.15721 2.7793H11.529C12.3574 2.7793 13.029 3.45087 13.029 4.2793V4.9319C13.029 4.98661 13.0378 5.03926 13.054 5.08853C13.0944 5.32416 13.2997 5.50348 13.5468 5.50348C13.823 5.50348 14.0468 5.27962 14.0468 5.00348V4.2793C14.0468 2.89859 12.9275 1.7793 11.5468 1.7793H11.529H3.15721H3.13965ZM11.1103 6.7207C9.31541 6.7207 7.86033 8.17578 7.86033 9.9707C7.86033 10.6878 8.09255 11.3506 8.48588 11.888L13.0277 7.34625C12.4902 6.95292 11.8274 6.7207 11.1103 6.7207ZM13.7348 8.05336L9.19299 12.5952C9.73047 12.9885 10.3933 13.2207 11.1103 13.2207C12.9053 13.2207 14.3603 11.7656 14.3603 9.9707C14.3603 9.25365 14.1281 8.59084 13.7348 8.05336ZM6.86033 9.9707C6.86033 7.62349 8.76312 5.7207 11.1103 5.7207C13.4575 5.7207 15.3603 7.62349 15.3603 9.9707C15.3603 12.3179 13.4575 14.2207 11.1103 14.2207C8.76312 14.2207 6.86033 12.3179 6.86033 9.9707Z" fill="currentColor"/>
</svg>
