<svg width="16" height="16" viewBox="0 0 16 16" fill="none" xmlns="http://www.w3.org/2000/svg">
<g clip-path="url(#clip0_172_47934)">
<path fill-rule="evenodd" clip-rule="evenodd" d="M14.25 8C14.25 11.4518 11.4518 14.25 8 14.25C4.54822 14.25 1.75 11.4518 1.75 8C1.75 4.54822 4.54822 1.75 8 1.75C11.4518 1.75 14.25 4.54822 14.25 8ZM15.25 8C15.25 12.0041 12.0041 15.25 8 15.25C3.99594 15.25 0.75 12.0041 0.75 8C0.75 3.99594 3.99594 0.75 8 0.75C12.0041 0.75 15.25 3.99594 15.25 8ZM4.39778 8.88474C4.23944 8.88474 4.09046 8.95974 3.99615 9.08692C3.90184 9.21411 3.87335 9.37845 3.91934 9.52996C3.95974 9.66306 4.0067 9.79434 4.06012 9.92332C4.27444 10.4407 4.58857 10.9109 4.98458 11.3069C5.38059 11.7029 5.85072 12.017 6.36813 12.2313C6.88554 12.4456 7.4401 12.556 8.00014 12.556C8.56018 12.556 9.11474 12.4456 9.63215 12.2313C10.1496 12.017 10.6197 11.7029 11.0157 11.3069C11.4117 10.9109 11.7258 10.4407 11.9402 9.92332C11.9936 9.79434 12.0405 9.66306 12.0809 9.52996C12.1269 9.37845 12.0984 9.21411 12.0041 9.08692C11.9098 8.95974 11.7608 8.88474 11.6025 8.88474H4.39778ZM5.69168 10.5998C5.47893 10.387 5.29704 10.1463 5.15077 9.88474H10.8495C10.7032 10.1463 10.5214 10.387 10.3086 10.5998C10.0054 10.9029 9.64555 11.1434 9.24947 11.3074C8.85338 11.4715 8.42886 11.556 8.00014 11.556C7.57142 11.556 7.1469 11.4715 6.75081 11.3074C6.35473 11.1434 5.99484 10.9029 5.69168 10.5998ZM6.92289 5.98197C6.92289 6.57428 6.43827 7.05889 5.84597 7.05889C5.25366 7.05889 4.76904 6.57428 4.76904 5.98197C4.76904 5.38966 5.25366 4.90505 5.84597 4.90505C6.43827 4.90505 6.92289 5.38966 6.92289 5.98197ZM10.1536 7.05889C10.7459 7.05889 11.2305 6.57428 11.2305 5.98197C11.2305 5.38966 10.7459 4.90505 10.1536 4.90505C9.56128 4.90505 9.07666 5.38966 9.07666 5.98197C9.07666 6.57428 9.56128 7.05889 10.1536 7.05889Z" fill="currentColor"/>
</g>
<defs>
<clipPath id="clip0_172_47934">
<rect width="16" height="16" fill="white"/>
</clipPath>
</defs>
</svg>
