<svg width="16" height="16" viewBox="0 0 16 16" fill="none" xmlns="http://www.w3.org/2000/svg">
<path d="M12.8628 3.5C13.9671 3.50026 14.8628 4.39559 14.8628 5.5V10.5L14.852 10.7041C14.7498 11.7126 13.8982 12.4998 12.8628 12.5H5.62154L5.47311 12.4922C5.17903 12.4629 4.89997 12.3475 4.67135 12.1602L4.561 12.0605L1.561 9.06055C1.01207 8.51142 0.978154 7.6428 1.45846 7.05371L1.561 6.93945L4.561 3.93945C4.80699 3.69346 5.12995 3.54203 5.47311 3.50781L5.62154 3.5H12.8628ZM5.62154 4.5C5.52218 4.50008 5.42566 4.52964 5.3442 4.58398L5.26803 4.64648L2.26803 7.64648C2.07303 7.8417 2.07303 8.1583 2.26803 8.35352L5.26803 11.3535C5.3617 11.4472 5.48908 11.4999 5.62154 11.5H12.8628C13.4148 11.4997 13.8628 11.0521 13.8628 10.5V5.5C13.8628 4.94788 13.4148 4.50026 12.8628 4.5H5.62154ZM10.5044 5.64648C10.6996 5.45128 11.0161 5.45124 11.2114 5.64648C11.4066 5.84173 11.4066 6.15827 11.2114 6.35352L9.56783 7.99707L11.2124 9.6416C11.4074 9.83677 11.4073 10.1534 11.2124 10.3486C11.0171 10.5439 10.7006 10.5438 10.5053 10.3486L8.8608 8.7041L7.21627 10.3486C7.02103 10.5439 6.70451 10.5438 6.50924 10.3486C6.31398 10.1534 6.31398 9.83686 6.50924 9.6416L8.15377 7.99707L6.50924 6.35352C6.31422 6.1583 6.31422 5.8417 6.50924 5.64648C6.70444 5.45128 7.02099 5.4514 7.21627 5.64648L8.8608 7.29004L10.5044 5.64648Z" fill="currentColor"/>
</svg>
