<svg width="16" height="16" viewBox="0 0 16 16" fill="none" xmlns="http://www.w3.org/2000/svg">
<path d="M12.1543 1.00391C13.7394 1.08421 15 2.39489 15 4V12L14.9961 12.1543C14.9184 13.6883 13.6883 14.9184 12.1543 14.9961L12 15H4C2.39489 15 1.08421 13.7394 1.00391 12.1543L1 12V4C1 2.34315 2.34315 1 4 1H12L12.1543 1.00391ZM4 2C2.89543 2 2 2.89543 2 4V12C2 13.1046 2.89543 14 4 14H12C13.1046 14 14 13.1046 14 12V4C14 2.89543 13.1046 2 12 2H4ZM10.0703 7.37891V8.58301H7.13477V10.2393H10.334V11.4443H5.66699V7.37891H10.0703ZM10.334 5.76074H5.66699V4.55664H10.334V5.76074Z" fill="currentColor"/>
</svg>
