<svg width="16" height="16" viewBox="0 0 16 16" fill="none" xmlns="http://www.w3.org/2000/svg">
<g clip-path="url(#clip0_8908_210262)">
<path fill-rule="evenodd" clip-rule="evenodd" d="M14.25 8C14.25 11.4518 11.4518 14.25 8 14.25C4.54822 14.25 1.75 11.4518 1.75 8C1.75 4.54822 4.54822 1.75 8 1.75C11.4518 1.75 14.25 4.54822 14.25 8ZM15.25 8C15.25 12.0041 12.0041 15.25 8 15.25C3.99594 15.25 0.75 12.0041 0.75 8C0.75 3.99594 3.99594 0.75 8 0.75C12.0041 0.75 15.25 3.99594 15.25 8ZM8 9.89298C8.48325 9.89298 8.875 10.2847 8.875 10.768C8.875 11.2512 8.48325 11.643 8 11.643C7.51675 11.643 7.125 11.2512 7.125 10.768C7.125 10.2847 7.51675 9.89298 8 9.89298ZM8 8.70743C8.27614 8.70743 8.5 8.48358 8.5 8.20743V4.5C8.5 4.22386 8.27614 4 8 4C7.72386 4 7.5 4.22386 7.5 4.5V8.20743C7.5 8.48358 7.72386 8.70743 8 8.70743Z" fill="currentColor"/>
</g>
<defs>
<clipPath id="clip0_8908_210262">
<rect width="16" height="16" fill="white"/>
</clipPath>
</defs>
</svg>
