<svg width="16" height="16" viewBox="0 0 16 16" fill="none" xmlns="http://www.w3.org/2000/svg">
<path d="M6.33496 8.95898C6.53024 8.76413 6.84686 8.7639 7.04199 8.95898C7.23706 9.15412 7.23684 9.47074 7.04199 9.66602L3.20801 13.5H6.66699C6.94285 13.5002 7.16683 13.7241 7.16699 14C7.16699 14.276 6.94294 14.4998 6.66699 14.5H2C1.9929 14.5 1.98554 14.4974 1.97852 14.4971C1.95331 14.496 1.92816 14.4951 1.90332 14.4902C1.88142 14.4859 1.86063 14.4787 1.83984 14.4717C1.82981 14.4683 1.81941 14.466 1.80957 14.4619C1.6279 14.387 1.5 14.2086 1.5 14V9.33301C1.50038 9.05733 1.72429 8.83323 2 8.83301C2.27572 8.83323 2.49962 9.05733 2.5 9.33301V12.7939L6.33496 8.95898ZM14.0176 1.50098C14.0444 1.50192 14.0713 1.50357 14.0977 1.50879C14.1488 1.51884 14.196 1.53914 14.2402 1.56348C14.2532 1.57061 14.2669 1.57659 14.2793 1.58496C14.3329 1.62099 14.3789 1.66723 14.415 1.7207C14.4204 1.7287 14.4238 1.73787 14.4287 1.74609C14.4732 1.8208 14.501 1.90678 14.501 2V6.66699C14.5008 6.94278 14.2768 7.16673 14.001 7.16699C13.725 7.16699 13.5012 6.94294 13.501 6.66699V3.20605L9.66602 7.04102C9.47078 7.2362 9.15424 7.23618 8.95898 7.04102C8.76374 6.84577 8.76377 6.52925 8.95898 6.33398L12.793 2.5H9.33398C9.05784 2.5 8.83398 2.27614 8.83398 2C8.83398 1.72386 9.05784 1.5 9.33398 1.5H14.001C14.0065 1.50001 14.0121 1.50079 14.0176 1.50098Z" fill="currentColor"/>
</svg>
