<svg width="16" height="16" viewBox="0 0 16 16" fill="none" xmlns="http://www.w3.org/2000/svg">
<path d="M11 1C12.6569 1 14 2.34315 14 4L14 12.5C14 13.8807 12.8807 15 11.5 15L4.5 15C3.11929 15 2 13.8807 2 12.5L2 3.5C2 2.11929 3.11929 1 4.5 1L11 1ZM4.5 2C3.67157 2 3 2.67157 3 3.5L3 12.5C3 13.3284 3.67157 14 4.5 14L11.5 14C12.3284 14 13 13.3284 13 12.5L13 4C13 2.89543 12.1046 2 11 2L4.5 2ZM7.12207 9.67285C7.30258 9.46433 7.6183 9.44187 7.82715 9.62207C8.03573 9.80262 8.05829 10.1183 7.87793 10.3271L5.84277 12.6836C5.74903 12.7921 5.61313 12.8559 5.46973 12.8574C5.32627 12.8588 5.18875 12.798 5.09277 12.6914L4.12793 11.6201C3.94369 11.4149 3.96018 11.0987 4.16504 10.9141C4.37024 10.7294 4.68732 10.7461 4.87207 10.9512L5.45605 11.6006L7.12207 9.67285ZM11.5 11C11.7761 11 11.9999 11.2239 12 11.5C12 11.7761 11.7761 12 11.5 12H9.5C9.22403 11.9998 9 11.776 9 11.5C9.00009 11.2241 9.22408 11.0002 9.5 11H11.5ZM7 4C7.55228 4 8 4.44772 8 5V7C8 7.55228 7.55228 8 7 8L5 8C4.44772 8 4 7.55228 4 7L4 5C4 4.44772 4.44772 4 5 4H7ZM11.5 7C11.7761 7.00002 11.9999 7.22394 12 7.5C12 7.77613 11.7761 7.99998 11.5 8H9.5C9.22386 8 9 7.77614 9 7.5C9.00009 7.22393 9.22391 7 9.5 7H11.5ZM5 7L7 7V5H5L5 7ZM11.5 4C11.7761 4 11.9999 4.22393 12 4.5C12 4.77614 11.7761 5 11.5 5L9.5 5C9.224 4.99983 9 4.77604 9 4.5C9.00009 4.22404 9.22406 4.00017 9.5 4L11.5 4Z" fill="currentColor"/>
</svg>
