<svg width="16" height="16" viewBox="0 0 16 16" fill="none" xmlns="http://www.w3.org/2000/svg">
<path d="M12.0615 9.6084C12.4803 9.19008 13.1595 9.18989 13.5781 9.6084L14.2256 10.2559C14.6437 10.6745 14.6438 11.3538 14.2256 11.7725L11.3457 14.6514C11.2575 14.7396 11.1435 14.7987 11.0205 14.8193L9.62109 15.0537C9.15522 15.1314 8.74647 14.7345 8.81152 14.2666L9.0127 12.8281C9.03077 12.6991 9.0915 12.5795 9.18359 12.4873L12.0615 9.6084ZM11 1C12.6569 1 14 2.34315 14 4V8C14 8.27614 13.7761 8.5 13.5 8.5C13.2239 8.5 13 8.27614 13 8V4C13 2.89543 12.1046 2 11 2H4.5C3.67157 2 3 2.67157 3 3.5V12.5C3 13.3284 3.67157 14 4.5 14H7C7.27614 14 7.5 14.2239 7.5 14.5C7.5 14.7761 7.27614 15 7 15H4.5C3.11929 15 2 13.8807 2 12.5V3.5C2 2.11929 3.11929 1 4.5 1H11ZM12.8711 10.3154C12.843 10.2874 12.7968 10.2876 12.7686 10.3154L9.98535 13.0986L9.8584 13.999L10.7285 13.8525L13.5176 11.0654C13.5457 11.0372 13.5456 10.9911 13.5176 10.9629L12.8711 10.3154ZM10.75 7.5C11.0261 7.5 11.25 7.72386 11.25 8C11.25 8.27614 11.0261 8.5 10.75 8.5H5.25C4.97386 8.5 4.75 8.27614 4.75 8C4.75 7.72386 4.97386 7.5 5.25 7.5H10.75ZM10.75 4.5C11.0261 4.5 11.25 4.72386 11.25 5C11.25 5.27614 11.0261 5.5 10.75 5.5H5.25C4.97386 5.5 4.75 5.27614 4.75 5C4.75 4.72386 4.97386 4.5 5.25 4.5H10.75Z" fill="currentColor"/>
</svg>
