<svg width="16" height="16" viewBox="0 0 16 16" fill="none" xmlns="http://www.w3.org/2000/svg">
<path d="M9.60059 10.8291C9.87646 10.8294 10.1006 11.0532 10.1006 11.3291C10.1006 11.605 9.87646 11.8288 9.60059 11.8291H6.40039C6.12425 11.8291 5.90039 11.6052 5.90039 11.3291C5.90039 11.053 6.12425 10.8291 6.40039 10.8291H9.60059ZM12 7.49805C12.2761 7.49807 12.5 7.72192 12.5 7.99805C12.4999 8.27409 12.2761 8.49803 12 8.49805H4C3.72392 8.49805 3.5001 8.2741 3.5 7.99805C3.5 7.7219 3.72386 7.49805 4 7.49805H12ZM14 4.16699C14.2761 4.16699 14.5 4.39085 14.5 4.66699C14.5 4.94313 14.2761 5.16699 14 5.16699H2C1.72386 5.16699 1.5 4.94313 1.5 4.66699C1.5 4.39085 1.72386 4.16699 2 4.16699H14Z" fill="currentColor"/>
</svg>
