<svg width="16" height="16" viewBox="0 0 16 16" fill="none" xmlns="http://www.w3.org/2000/svg">
<path fill-rule="evenodd" clip-rule="evenodd" d="M1.7749 3.77539C1.7749 3.22311 2.22262 2.77539 2.7749 2.77539H4.227C4.50314 2.77539 4.727 2.55153 4.727 2.27539C4.727 1.99925 4.50314 1.77539 4.227 1.77539H2.7749C1.67033 1.77539 0.774902 2.67082 0.774902 3.77539V5.13789C0.774902 5.41403 0.99876 5.63789 1.2749 5.63789C1.55104 5.63789 1.7749 5.41403 1.7749 5.13789V3.77539ZM11.773 1.77539C11.4969 1.77539 11.273 1.99925 11.273 2.27539C11.273 2.55153 11.4969 2.77539 11.773 2.77539H13.2249C13.7772 2.77539 14.2249 3.22311 14.2249 3.77539V5.13789C14.2249 5.41403 14.4488 5.63789 14.7249 5.63789C15.001 5.63789 15.2249 5.41403 15.2249 5.13789V3.77539C15.2249 2.67082 14.3295 1.77539 13.2249 1.77539H11.773ZM1.7749 10.8629C1.7749 10.5867 1.55104 10.3629 1.2749 10.3629C0.99876 10.3629 0.774902 10.5867 0.774902 10.8629V12.2254C0.774902 13.33 1.67033 14.2254 2.7749 14.2254H4.227C4.50314 14.2254 4.727 14.0015 4.727 13.7254C4.727 13.4492 4.50314 13.2254 4.227 13.2254H2.7749C2.22262 13.2254 1.7749 12.7777 1.7749 12.2254V10.8629ZM15.2249 10.8629C15.2249 10.5867 15.001 10.3629 14.7249 10.3629C14.4488 10.3629 14.2249 10.5867 14.2249 10.8629V12.2254C14.2249 12.7777 13.7772 13.2254 13.2249 13.2254H11.773C11.4969 13.2254 11.273 13.4492 11.273 13.7254C11.273 14.0015 11.4969 14.2254 11.773 14.2254H13.2249C14.3295 14.2254 15.2249 13.33 15.2249 12.2254V10.8629ZM5.14307 4.50049C4.31464 4.50049 3.64307 5.17206 3.64307 6.00049V10.0005C3.64307 10.8289 4.31464 11.5005 5.14307 11.5005H10.8574C11.6858 11.5005 12.3574 10.8289 12.3574 10.0005V6.00049C12.3574 5.17206 11.6858 4.50049 10.8574 4.50049H5.14307ZM4.64307 6.00049C4.64307 5.72435 4.86692 5.50049 5.14307 5.50049H10.8574C11.1335 5.50049 11.3574 5.72435 11.3574 6.00049V10.0005C11.3574 10.2766 11.1335 10.5005 10.8574 10.5005H5.14307C4.86692 10.5005 4.64307 10.2766 4.64307 10.0005V6.00049Z" fill="currentColor"/>
</svg>
