<svg width="16" height="16" viewBox="0 0 16 16" fill="none" xmlns="http://www.w3.org/2000/svg">
<path d="M6.10254 9.00488C6.60667 9.05621 7 9.48232 7 10V12.5L6.98926 12.7041C6.8938 13.6457 6.14565 14.3938 5.2041 14.4893L5 14.5H3.5C2.46435 14.5 1.613 13.7128 1.51074 12.7041L1.5 12.5V11C1.5 9.89543 2.39543 9 3.5 9H6L6.10254 9.00488ZM12.7041 9.01074C13.7128 9.113 14.5 9.96435 14.5 11V12.5L14.4893 12.7041C14.3938 13.6457 13.6457 14.3938 12.7041 14.4893L12.5 14.5H11C9.96435 14.5 9.113 13.7128 9.01074 12.7041L9 12.5V10C9 9.44772 9.44772 9 10 9H12.5L12.7041 9.01074ZM10 12.5C10 13.0523 10.4477 13.5 11 13.5H12.5C13.0523 13.5 13.5 13.0523 13.5 12.5V11C13.5 10.4477 13.0523 10 12.5 10H10V12.5ZM3.5 10C2.94772 10 2.5 10.4477 2.5 11V12.5C2.5 13.0523 2.94772 13.5 3.5 13.5H5C5.55228 13.5 6 13.0523 6 12.5V10H3.5ZM5.2041 1.51074C6.21278 1.613 7 2.46435 7 3.5V6L6.99512 6.10254C6.94722 6.57297 6.57297 6.94722 6.10254 6.99512L6 7H3.5C2.46435 7 1.613 6.21278 1.51074 5.2041L1.5 5V3.5C1.5 2.39543 2.39543 1.5 3.5 1.5H5L5.2041 1.51074ZM12.7041 1.51074C13.7128 1.613 14.5 2.46435 14.5 3.5V5L14.4893 5.2041C14.3938 6.14565 13.6457 6.8938 12.7041 6.98926L12.5 7H10C9.48232 7 9.05621 6.60667 9.00488 6.10254L9 6V3.5C9 2.39543 9.89543 1.5 11 1.5H12.5L12.7041 1.51074ZM3.5 2.5C2.94772 2.5 2.5 2.94772 2.5 3.5V5C2.5 5.55228 2.94772 6 3.5 6H6V3.5C6 2.94772 5.55228 2.5 5 2.5H3.5ZM11 2.5C10.4477 2.5 10 2.94772 10 3.5V6H12.5C13.0523 6 13.5 5.55228 13.5 5V3.5C13.5 2.94772 13.0523 2.5 12.5 2.5H11Z" fill="currentColor"/>
</svg>
