<svg width="16" height="16" viewBox="0 0 16 16" fill="none" xmlns="http://www.w3.org/2000/svg">
<path d="M13.2598 6.62842C13.7261 6.62842 14.1292 6.71956 14.4678 6.90186C14.8085 7.08175 15.0713 7.32202 15.2559 7.62256C15.4429 7.9232 15.5346 8.25242 15.5322 8.60986C15.5346 9.01706 15.421 9.36288 15.1914 9.64697C14.9642 9.93094 14.6609 10.1212 14.2822 10.2183V10.2759C14.7652 10.3493 15.1401 10.5409 15.4053 10.8511C15.6725 11.161 15.805 11.5455 15.8027 12.0044C15.8051 12.4044 15.6936 12.7634 15.4688 13.0806C15.2462 13.3978 14.9416 13.6483 14.5557 13.8306C14.1699 14.0103 13.7284 14.1001 13.2314 14.1001C12.7439 14.1001 12.3083 14.0162 11.9248 13.8481C11.5436 13.6801 11.2421 13.4462 11.0195 13.1479C10.9001 12.9848 10.8105 12.8077 10.751 12.6167C10.6665 12.3453 10.9012 12.104 11.1855 12.104H11.3105C11.5739 12.104 11.778 12.3223 11.9131 12.5483C11.9374 12.589 11.9654 12.6281 11.9961 12.6655C12.1286 12.8216 12.3017 12.9427 12.5146 13.0278C12.7276 13.1129 12.9644 13.1558 13.2246 13.1558C13.511 13.1557 13.7643 13.1057 13.9844 13.0063C14.2069 12.9069 14.3814 12.7679 14.5068 12.5903C14.6321 12.4105 14.6943 12.2034 14.6943 11.9692C14.6943 11.7255 14.6322 11.5112 14.5068 11.3267C14.3837 11.1396 14.202 10.9928 13.9629 10.8862C13.7262 10.7797 13.4396 10.7261 13.1035 10.7261H12.9365C12.6895 10.7259 12.4893 10.5258 12.4893 10.2788C12.4894 10.0319 12.6896 9.83169 12.9365 9.83154H13.1035C13.3732 9.83154 13.61 9.78297 13.8135 9.68604C14.0194 9.58897 14.1809 9.45358 14.2969 9.28076C14.4128 9.10563 14.4707 8.90077 14.4707 8.6665C14.4707 8.44171 14.4201 8.24622 14.3184 8.08057C14.2189 7.91254 14.0762 7.78169 13.8916 7.68701C13.7094 7.59243 13.4944 7.54448 13.2461 7.54443C13.0094 7.54443 12.7879 7.58873 12.582 7.67627C12.3785 7.76147 12.2128 7.8845 12.085 8.04541C12.0556 8.08183 12.029 8.11988 12.0059 8.15967C11.8714 8.39134 11.6673 8.61668 11.3994 8.6167H11.332C11.0501 8.61669 10.8154 8.37954 10.8975 8.10986C10.9556 7.91936 11.0452 7.743 11.165 7.58057C11.3876 7.28227 11.6813 7.04846 12.0459 6.88037C12.4103 6.71244 12.8149 6.62844 13.2598 6.62842ZM9 3.00049C9.27614 3.00049 9.5 3.22435 9.5 3.50049V13.5005C9.5 13.7766 9.27614 14.0005 9 14.0005C8.72386 14.0005 8.5 13.7766 8.5 13.5005V8.75049H2V13.5005C2 13.7766 1.77614 14.0005 1.5 14.0005C1.22386 14.0005 1 13.7766 1 13.5005V3.50049C1 3.22435 1.22386 3.00049 1.5 3.00049C1.77614 3.00049 2 3.22435 2 3.50049V7.75049H8.5V3.50049C8.5 3.22435 8.72386 3.00049 9 3.00049Z" fill="currentColor"/>
</svg>
