<svg width="16" height="16" viewBox="0 0 16 16" fill="none" xmlns="http://www.w3.org/2000/svg">
<path d="M9 3.00049C9.27614 3.00049 9.5 3.22435 9.5 3.50049V13.5005C9.5 13.7766 9.27614 14.0005 9 14.0005C8.72386 14.0005 8.5 13.7766 8.5 13.5005V8.75049H2V13.5005C2 13.7766 1.77614 14.0005 1.5 14.0005C1.22386 14.0005 1 13.7766 1 13.5005V3.50049C1 3.22435 1.22386 3.00049 1.5 3.00049C1.77614 3.00049 2 3.22435 2 3.50049V7.75049H8.5V3.50049C8.5 3.22435 8.72386 3.00049 9 3.00049ZM13.082 6.71533C13.5287 6.4115 14.1338 6.73174 14.1338 7.27197V13.4497C14.1338 13.7537 13.887 14.0005 13.583 14.0005C13.2791 14.0004 13.0322 13.7537 13.0322 13.4497V7.82861H12.9902L11.9307 8.52002C11.638 8.71116 11.2501 8.50139 11.25 8.15186C11.25 8.00338 11.325 7.86499 11.4492 7.78369L13.0645 6.72803L13.082 6.71533Z" fill="currentColor"/>
</svg>
