<svg width="16" height="16" viewBox="0 0 16 16" fill="none" xmlns="http://www.w3.org/2000/svg">
<path d="M9 3.00049C9.27614 3.00049 9.5 3.22435 9.5 3.50049V13.5005C9.5 13.7766 9.27614 14.0005 9 14.0005C8.72386 14.0005 8.5 13.7766 8.5 13.5005V8.75049H2V13.5005C2 13.7766 1.77614 14.0005 1.5 14.0005C1.22386 14.0005 1 13.7766 1 13.5005V3.50049C1 3.22435 1.22386 3.00049 1.5 3.00049C1.77614 3.00049 2 3.22435 2 3.50049V7.75049H8.5V3.50049C8.5 3.22435 8.72386 3.00049 9 3.00049ZM13.0469 6.62842C13.5037 6.62843 13.906 6.71965 14.2539 6.90186C14.6041 7.08171 14.8777 7.32781 15.0742 7.64014C15.2707 7.95027 15.3691 8.30127 15.3691 8.69189C15.3691 8.96169 15.3186 9.22592 15.2168 9.48389C15.1174 9.74186 14.9428 10.0291 14.6943 10.3462C14.4458 10.6611 14.0999 11.0438 13.6572 11.4937L12.2119 13.0063V13.0591H15.0156C15.2754 13.0591 15.4862 13.27 15.4863 13.5298C15.4863 13.7896 15.2755 14.0005 15.0156 14.0005H11.2656C10.953 14.0002 10.6993 13.7468 10.6992 13.4341C10.6992 13.2873 10.7565 13.1461 10.8584 13.0405L13.1602 10.6558C13.4229 10.3788 13.6401 10.1356 13.8105 9.92725C13.9832 9.71675 14.1121 9.51686 14.1973 9.32764C14.2825 9.13824 14.3252 8.93621 14.3252 8.72314C14.3251 8.48186 14.2679 8.27323 14.1543 8.09814C14.0407 7.92084 13.8858 7.78455 13.6895 7.68994C13.493 7.59294 13.2715 7.54443 13.0254 7.54443C12.765 7.54445 12.5379 7.59807 12.3438 7.70459C12.1496 7.81112 12.0006 7.96164 11.8965 8.15576C11.868 8.20893 11.843 8.26462 11.8223 8.32275C11.7252 8.59518 11.505 8.8374 11.2158 8.8374C10.9267 8.83721 10.6842 8.59977 10.7441 8.31689C10.7935 8.08411 10.8786 7.87075 10.998 7.67627C11.2016 7.34485 11.4809 7.08805 11.8359 6.90576C12.1911 6.7211 12.5947 6.62842 13.0469 6.62842Z" fill="currentColor"/>
</svg>
