<svg width="16" height="16" viewBox="0 0 16 16" fill="none" xmlns="http://www.w3.org/2000/svg">
<path fill-rule="evenodd" clip-rule="evenodd" d="M1.99306 2.8999C3.57955 1.31341 6.15214 1.31331 7.73874 2.89961C7.82751 2.98808 7.90895 3.07957 7.98418 3.17293C8.05906 3.08 8.14004 2.98893 8.22818 2.90079C9.81476 1.31421 12.3876 1.31421 13.9742 2.90079C15.5614 4.48711 15.6327 6.86893 13.9862 8.63345C13.9808 8.63918 13.9753 8.64478 13.9697 8.65026L8.33317 14.1479C8.13897 14.3373 7.82917 14.3373 7.63497 14.1479L1.99753 8.65029C1.99075 8.64367 1.98415 8.63687 1.97776 8.62988C0.43143 6.94017 0.397336 4.49562 1.99306 2.8999ZM7.03193 3.60701C5.83587 2.41095 3.89623 2.41095 2.70017 3.60701C1.51628 4.7909 1.50065 6.61786 2.70618 7.94458L7.98402 13.0915L13.2628 7.94283C14.5424 6.56415 14.4618 4.80192 13.2672 3.60801L13.267 3.6079C12.071 2.41184 10.1313 2.41184 8.93528 3.6079C8.73112 3.81206 8.56989 4.05115 8.4233 4.3207C8.33578 4.48164 8.16725 4.58183 7.98405 4.58183C7.80085 4.58183 7.63232 4.48164 7.5448 4.3207C7.39794 4.05064 7.23688 3.81123 7.03256 3.60764L7.03193 3.60701Z" fill="currentColor"/>
</svg>
