<svg width="16" height="16" viewBox="0 0 16 16" fill="none" xmlns="http://www.w3.org/2000/svg">
<path d="M4.83401 1.1875C6.04338 1.20277 7.18134 1.71173 7.99905 2.57422C8.81637 1.71114 9.95567 1.20277 11.166 1.1875H11.1768C13.6077 1.20239 15.5705 3.17917 15.5625 5.60938C15.5625 8.22735 14.2164 10.3105 12.7237 11.8154C11.2299 13.3213 9.54052 14.3001 8.73049 14.7227C8.27037 14.9628 7.7287 14.9628 7.26858 14.7227C6.45852 14.3001 4.76988 13.3213 3.27639 11.8154C1.78381 10.3105 0.437524 8.22746 0.437524 5.60938C0.429587 3.17928 2.39123 1.20241 4.82327 1.1875H4.83401ZM11.1758 2.3125C10.0857 2.32771 9.07297 2.87843 8.4678 3.7832C8.36342 3.9392 8.18773 4.03314 8.00002 4.0332C7.81237 4.0332 7.63669 3.93912 7.53225 3.7832C6.92575 2.87791 5.91255 2.32739 4.82327 2.3125C3.01263 2.32724 1.5557 3.80024 1.56252 5.60742V5.60938C1.56252 7.81793 2.69592 9.63273 4.07522 11.0234C5.45341 12.413 7.02883 13.328 7.78909 13.7246C7.92303 13.7945 8.07604 13.7945 8.20998 13.7246C8.97029 13.328 10.5464 12.4131 11.9248 11.0234C13.3043 9.63272 14.4375 7.81784 14.4375 5.60938V5.60742C14.4443 3.8 12.986 2.3267 11.1758 2.3125Z" fill="currentColor"/>
</svg>
