<svg width="16" height="16" viewBox="0 0 16 16" fill="none" xmlns="http://www.w3.org/2000/svg">
<path d="M8 0.75C12.0041 0.75 15.25 3.99594 15.25 8C15.25 12.0041 12.0041 15.25 8 15.25C3.99594 15.25 0.75 12.0041 0.75 8C0.75 3.99594 3.99594 0.75 8 0.75ZM8 1.75C4.54822 1.75 1.75 4.54822 1.75 8C1.75 11.4518 4.54822 14.25 8 14.25C11.4518 14.25 14.25 11.4518 14.25 8C14.25 4.54822 11.4518 1.75 8 1.75ZM7.89258 10.3096C8.09766 10.3096 8.26855 10.3779 8.40527 10.5146C8.54525 10.6481 8.61523 10.8158 8.61523 11.0176C8.61523 11.2161 8.54525 11.3838 8.40527 11.5205C8.26855 11.654 8.09766 11.7207 7.89258 11.7207C7.69076 11.7207 7.51986 11.654 7.37988 11.5205C7.24316 11.3838 7.1748 11.2161 7.1748 11.0176C7.1748 10.8158 7.24316 10.6481 7.37988 10.5146C7.51986 10.3779 7.69076 10.3096 7.89258 10.3096ZM8.08789 4.2793C8.52734 4.2793 8.90983 4.36068 9.23535 4.52344C9.56087 4.6862 9.81315 4.91244 9.99219 5.20215C10.1745 5.49186 10.2656 5.82878 10.2656 6.21289C10.2656 6.61328 10.1745 6.95345 9.99219 7.2334C9.8099 7.51009 9.56087 7.74609 9.24512 7.94141C9.04329 8.06185 8.87891 8.18066 8.75195 8.29785C8.62826 8.41504 8.53711 8.55664 8.47852 8.72266C8.41992 8.88542 8.39062 9.10352 8.39062 9.37695V9.44531H7.37988V9.37695C7.37988 8.93425 7.42057 8.59408 7.50195 8.35645C7.58659 8.11556 7.70703 7.92513 7.86328 7.78516C8.02279 7.64193 8.21159 7.50195 8.42969 7.36523C8.64453 7.23828 8.82357 7.0804 8.9668 6.8916C9.11003 6.69954 9.18164 6.47005 9.18164 6.20312C9.18164 5.99479 9.13281 5.81413 9.03516 5.66113C8.94075 5.50814 8.80892 5.38932 8.63965 5.30469C8.47363 5.22005 8.28971 5.17773 8.08789 5.17773C7.90885 5.17773 7.73633 5.21517 7.57031 5.29004C7.40755 5.36491 7.27083 5.4821 7.16016 5.6416C7.04948 5.79785 6.986 6.0013 6.96973 6.25195H5.89551C5.90853 5.82878 6.01432 5.4707 6.21289 5.17773C6.41146 4.88151 6.67513 4.65853 7.00391 4.50879C7.33268 4.35579 7.69401 4.2793 8.08789 4.2793Z" fill="currentColor"/>
</svg>
