<svg width="16" height="16" viewBox="0 0 16 16" fill="none" xmlns="http://www.w3.org/2000/svg">
<path d="M8 1C11.8659 1 15.0006 4.13415 15.001 8C15.001 11.8662 11.8662 15.001 8 15.001C4.13415 15.0006 1 11.8659 1 8C1.00041 4.1344 4.1344 1.00041 8 1ZM9.07812 11.9004C8.73451 11.9953 8.37285 12.0468 7.99902 12.0469C7.62635 12.0469 7.26556 11.9957 6.92285 11.9014L6.1709 13.7158C6.74767 13.9004 7.36201 14.0009 8 14.001C8.63819 14.001 9.2531 13.9004 9.83008 13.7158L9.07812 11.9004ZM2.66797 10.751C3.23911 11.8562 4.14322 12.7603 5.24805 13.332L5.99902 11.5176C5.36683 11.1573 4.8415 10.6323 4.48145 10L2.66797 10.751ZM11.5156 9.99805C11.1562 10.6301 10.6323 11.1551 10.001 11.5156L10.7529 13.3311C11.858 12.7592 12.7618 11.8554 13.333 10.75L11.5156 9.99805ZM7.99902 4.95605C6.31705 4.95605 4.95329 6.32002 4.95312 8.00195C4.95326 9.68391 6.31704 11.0469 7.99902 11.0469C9.68081 11.0466 11.0438 9.68377 11.0439 8.00195C11.0438 6.32017 9.68079 4.95629 7.99902 4.95605ZM2.28418 6.17285C2.10012 6.74897 2.00008 7.36284 2 8C2 8.63735 2.10009 9.2518 2.28418 9.82812L4.09766 9.07715C4.00351 8.73486 3.95315 8.37417 3.95312 8.00195C3.95315 7.62891 4.00407 7.26781 4.09863 6.9248L2.28418 6.17285ZM11.8975 6.92773C11.9915 7.26998 12.0439 7.62983 12.0439 8.00195C12.0439 8.37324 11.9921 8.73269 11.8984 9.07422L13.7168 9.82715C13.9008 9.25102 14.001 8.6371 14.001 8C14.0009 7.36309 13.9008 6.74975 13.7168 6.17383L11.8975 6.92773ZM10.001 4.48633C10.6319 4.84657 11.1551 5.37244 11.5146 6.00391L13.333 5.25098C12.7618 4.1457 11.858 3.24159 10.7529 2.66992L10.001 4.48633ZM5.24707 2.66895C4.14281 3.24041 3.23905 4.14453 2.66797 5.24902L4.48242 6.00098C4.84258 5.36956 5.36741 4.84423 5.99902 4.48438L5.24707 2.66895ZM8 2C7.36208 2.00008 6.74761 2.10067 6.1709 2.28516L6.92285 4.10156C7.26551 4.00724 7.62641 3.95605 7.99902 3.95605C8.37246 3.95609 8.73386 4.00778 9.07715 4.10254L9.83008 2.28516C9.25316 2.10064 8.63811 2 8 2Z" fill="currentColor"/>
</svg>
