<svg width="16" height="16" viewBox="0 0 16 16" fill="none" xmlns="http://www.w3.org/2000/svg">
<path fill-rule="evenodd" clip-rule="evenodd" d="M13.2469 4.8726L12.5349 5.58461C13.4262 6.27539 14.1557 7.16512 14.6569 8.18747C13.451 10.6476 10.9226 12.3399 7.99996 12.3399C7.32196 12.3399 6.66518 12.2488 6.04121 12.0782L5.24221 12.8773C6.10604 13.177 7.03394 13.3399 7.99996 13.3399C11.3849 13.3399 14.3017 11.3399 15.635 8.45926C15.7148 8.28688 15.7148 8.08803 15.635 7.91565C15.0835 6.72426 14.2612 5.68351 13.2469 4.8726ZM2.34461 14.3627C2.14871 14.5488 1.83908 14.5457 1.64693 14.3536C1.45167 14.1583 1.45167 13.8417 1.64693 13.6464L3.35305 11.9403C2.06192 11.0826 1.02154 9.8778 0.365021 8.4595C0.285231 8.28712 0.285227 8.08827 0.365012 7.9159C1.69831 5.03527 4.6151 3.03523 8.00006 3.03523C9.24844 3.03523 10.4331 3.30726 11.4982 3.79517L13.6469 1.64645C13.8422 1.45118 14.1588 1.45118 14.354 1.64645C14.54 1.83245 14.5489 2.12855 14.3805 2.32499C14.3773 2.32801 14.3742 2.33108 14.3711 2.33419L2.37106 14.3342C2.3618 14.3434 2.35298 14.353 2.34461 14.3627ZM7.48507 10.6344C7.65138 10.6692 7.82377 10.6876 8.00044 10.6876C9.38116 10.6876 10.5004 9.56829 10.5004 8.18757C10.5004 8.0109 10.4821 7.83851 10.4473 7.6722L9.40547 8.71399C9.25368 9.11895 8.93182 9.44081 8.52686 9.5926L7.48507 10.6344ZM8.00006 4.03523C8.96649 4.03523 9.88981 4.22027 10.7365 4.55692L9.26365 6.02973C8.89297 5.81226 8.46127 5.68757 8.00044 5.68757C6.61973 5.68757 5.50044 6.80686 5.50044 8.18757C5.50044 8.6484 5.62512 9.0801 5.8426 9.45079L4.07641 11.217C2.90601 10.4849 1.9546 9.43502 1.34315 8.18768C2.54904 5.7275 5.07742 4.03523 8.00006 4.03523ZM8.00044 6.68757C8.18127 6.68757 8.35463 6.71957 8.51516 6.77822L6.59109 8.70229C6.53244 8.54176 6.50044 8.36841 6.50044 8.18757C6.50044 7.35915 7.17202 6.68757 8.00044 6.68757Z" fill="currentColor"/>
</svg>
