<svg width="16" height="16" viewBox="0 0 16 16" fill="none" xmlns="http://www.w3.org/2000/svg">
<path d="M10.5 1.41406C10.7761 1.41406 11 1.63792 11 1.91406V2.91406H13.5C13.7761 2.91406 14 3.13792 14 3.41406V13.4141C14 13.6902 13.7761 13.9141 13.5 13.9141H12.25V14.5859H11.25V13.9141H4.75V14.5859H3.75V13.9141H2.5C2.22386 13.9141 2 13.6902 2 13.4141V3.41406C2 3.13792 2.22386 2.91406 2.5 2.91406H5V1.91406C5 1.63792 5.22386 1.41406 5.5 1.41406H10.5ZM3 12.9141H13V3.91406H3V12.9141ZM6.5 11.4141H5.5V5.41406H6.5V11.4141ZM10.5 11.4141H9.5V5.41406H10.5V11.4141ZM6 2.91406H10V2.41406H6V2.91406Z" fill="currentColor"/>
</svg>
