<svg width="16" height="16" viewBox="0 0 16 16" fill="none" xmlns="http://www.w3.org/2000/svg">
<path d="M7.05078 1.47168C7.94185 1.35437 8.84769 1.41387 9.71582 1.64648C10.5837 1.87908 11.3975 2.2802 12.1104 2.82715C12.8234 3.37429 13.4227 4.0566 13.8721 4.83496C14.3214 5.6133 14.6122 6.47321 14.7295 7.36426C14.8468 8.25516 14.7872 9.16034 14.5547 10.0283L14.4326 10.4844L8.27148 8.83398L7.07715 13.0977L7.07324 13.1074L7.07031 13.1172C6.70431 14.2289 5.79226 14.7264 4.92383 14.5537C4.06827 14.3832 3.40475 13.5867 3.48145 12.4785L3.95215 12.5117L4.42383 12.5439C4.37778 13.2096 4.74878 13.5553 5.1084 13.627C5.45378 13.6956 5.93528 13.5361 6.1709 12.8301L7.36035 8.58984L1.21191 6.94141L1.33398 6.48633C1.5666 5.61819 1.96752 4.80386 2.51465 4.09082C3.06167 3.37801 3.74337 2.77938 4.52148 2.33008C5.29984 1.88069 6.1597 1.58899 7.05078 1.47168ZM10.5566 2.96582C10.6881 3.28164 10.8249 3.65508 10.9375 4.07324C11.2612 5.27512 11.4075 6.87076 10.7607 8.52344L13.7461 9.32324C13.8572 8.71837 13.8745 8.09896 13.7939 7.4873C13.6928 6.71922 13.441 5.97855 13.0537 5.30762C12.6663 4.63665 12.1508 4.04783 11.5361 3.57617C11.2296 3.341 10.9014 3.13605 10.5566 2.96582ZM9.31934 2.83203C9.00971 3.04727 8.59159 3.37176 8.16309 3.80762C7.37017 4.61428 6.5581 5.78348 6.30176 7.3291L9.84473 8.27832C10.4408 6.8347 10.3219 5.41937 10.0254 4.31836C9.86547 3.72469 9.65669 3.22979 9.4873 2.88477C9.46609 2.84156 9.44451 2.80099 9.4248 2.7627C9.39186 2.78476 9.35547 2.80692 9.31934 2.83203ZM8.35742 2.37207C7.96371 2.34442 7.56702 2.35547 7.17383 2.40723C6.40579 2.50837 5.66504 2.76015 4.99414 3.14746C4.32313 3.53487 3.73437 4.05132 3.2627 4.66602C2.88721 5.15547 2.59287 5.70089 2.38672 6.28027L5.3877 7.08398C5.701 5.33661 6.62252 4.02834 7.48926 3.14648C7.79217 2.83834 8.09155 2.58132 8.35742 2.37207Z" fill="currentColor"/>
</svg>
