<svg width="16" height="16" viewBox="0 0 16 16" fill="none" xmlns="http://www.w3.org/2000/svg">
<path d="M6.64355 2.0918C7.40959 1.38497 8.59041 1.38497 9.35645 2.0918L14.1953 6.55957C14.7079 7.03283 15 7.69882 15 8.39648V12.5205C14.9998 13.9011 13.8806 15.0205 12.5 15.0205H3.5C2.1194 15.0205 1.00019 13.9011 1 12.5205V8.39648C1 7.69882 1.29209 7.03283 1.80469 6.55957L6.64355 2.0918ZM8.67871 2.82715C8.29565 2.47355 7.70435 2.47355 7.32129 2.82715L2.48242 7.29395C2.17495 7.57789 2 7.97795 2 8.39648V12.5205C2.00019 13.3488 2.67169 14.0205 3.5 14.0205H7.5V9.52051H8.5V14.0205H12.5C13.3283 14.0205 13.9998 13.3488 14 12.5205V8.39648C14 7.97795 13.825 7.57789 13.5176 7.29395L8.67871 2.82715Z" fill="currentColor"/>
</svg>
