<svg width="16" height="16" viewBox="0 0 16 16" fill="none" xmlns="http://www.w3.org/2000/svg">
<path fill-rule="evenodd" clip-rule="evenodd" d="M4.35355 2.64645C4.15829 2.45118 3.84171 2.45118 3.64645 2.64645C3.45118 2.84171 3.45118 3.15829 3.64645 3.35355L7.64645 7.35355C7.84171 7.54882 8.15829 7.54882 8.35355 7.35355L12.3536 3.35355C12.5488 3.15829 12.5488 2.84171 12.3536 2.64645C12.1583 2.45118 11.8417 2.45118 11.6464 2.64645L8 6.29289L4.35355 2.64645ZM3.64645 12.6464C3.45118 12.8417 3.45118 13.1583 3.64645 13.3536C3.84171 13.5488 4.15829 13.5488 4.35355 13.3536L8 9.70711L11.6464 13.3536C11.8417 13.5488 12.1583 13.5488 12.3536 13.3536C12.5488 13.1583 12.5488 12.8417 12.3536 12.6464L8.35355 8.64645C8.15829 8.45118 7.84171 8.45118 7.64645 8.64645L3.64645 12.6464Z" fill="currentColor"/>
</svg>
