<svg width="16" height="16" viewBox="0 0 16 16" fill="none" xmlns="http://www.w3.org/2000/svg">
<path d="M7.35352 7.64648C7.54878 7.84175 7.54878 8.15825 7.35352 8.35352L3.35352 12.3535C3.15825 12.5488 2.84175 12.5488 2.64648 12.3535C2.45122 12.1583 2.45122 11.8417 2.64648 11.6465L6.29297 8L2.64648 4.35352C2.45122 4.15825 2.45122 3.84175 2.64648 3.64648C2.84175 3.45122 3.15825 3.45122 3.35352 3.64648L7.35352 7.64648ZM13.3535 11.6465C13.5488 11.8417 13.5488 12.1583 13.3535 12.3535C13.1583 12.5488 12.8417 12.5488 12.6465 12.3535L8.64648 8.35352C8.55272 8.25975 8.5 8.13261 8.5 8C8.5 7.86739 8.55272 7.74025 8.64648 7.64648L12.6465 3.64648C12.8417 3.45122 13.1583 3.45122 13.3535 3.64648C13.5488 3.84175 13.5488 4.15825 13.3535 4.35352L9.70703 8L13.3535 11.6465Z" fill="currentColor"/>
</svg>
