<svg width="16" height="16" viewBox="0 0 16 16" fill="none" xmlns="http://www.w3.org/2000/svg">
<path d="M11.1152 1C11.6982 1 12.1659 0.999462 12.543 1.03027C12.9257 1.06157 13.2595 1.12734 13.5674 1.28418C14.0587 1.5345 14.4577 1.93452 14.708 2.42578C14.8649 2.73374 14.9316 3.06736 14.9629 3.4502C14.9937 3.82731 14.9932 4.29501 14.9932 4.87793V10.2666L15 11.2148V11.2178C15 11.3499 14.9984 11.4757 14.998 11.5947C14.9982 11.6002 15 11.6058 15 11.6113C15 12.2506 15.0043 12.6684 14.9092 13.0234C14.877 13.1434 14.8357 13.2595 14.7881 13.3721C14.7868 13.3752 14.7865 13.3787 14.7852 13.3818C14.7832 13.3864 14.7803 13.3909 14.7783 13.3955C14.7488 13.4634 14.7154 13.529 14.6807 13.5938C14.6764 13.6017 14.6733 13.6103 14.6689 13.6182C14.5917 13.7585 14.5016 13.8903 14.4014 14.0137C14.3916 14.0257 14.3821 14.0379 14.3721 14.0498C14.274 14.1663 14.1663 14.274 14.0498 14.3721C14.0379 14.3821 14.0257 14.3916 14.0137 14.4014C13.8927 14.4997 13.7634 14.5879 13.626 14.6641C13.6154 14.6699 13.6044 14.6749 13.5938 14.6807C13.5317 14.714 13.4683 14.745 13.4033 14.7734C13.396 14.7767 13.3892 14.782 13.3818 14.7852C13.3787 14.7865 13.3752 14.7868 13.3721 14.7881C13.2595 14.8357 13.1434 14.877 13.0234 14.9092C12.6684 15.0043 12.2506 15 11.6113 15H4.43848C4.25437 15 4.08548 14.9979 3.94434 14.9902C3.78508 14.9856 3.63831 14.9798 3.50293 14.9688C3.11071 14.9367 2.77003 14.869 2.45605 14.709C1.95439 14.4533 1.54666 14.0456 1.29102 13.5439C1.13104 13.23 1.0633 12.8893 1.03125 12.4971C0.999684 12.1107 1 11.6317 1 11.0332V4.9668C1 4.36834 0.999684 3.8893 1.03125 3.50293C1.0633 3.11071 1.13104 2.77003 1.29102 2.45605C1.54666 1.95439 1.95439 1.54666 2.45605 1.29102C2.77003 1.13104 3.11071 1.0633 3.50293 1.03125C3.8893 0.999684 4.36834 1 4.9668 1H11.1152ZM10.8506 8.01562L10.8477 8.0166C10.8458 8.01746 10.8421 8.01849 10.8369 8.02148C10.8253 8.02823 10.8062 8.04118 10.7764 8.06445C10.7117 8.11491 10.6308 8.18806 10.4961 8.31055L4.38672 13.8643C4.3325 13.9135 4.28442 13.9573 4.24219 13.9961C4.45206 13.9987 4.691 14 4.9668 14H11.2178C11.7444 14 12.1141 13.9998 12.4033 13.9795C12.6355 13.9632 12.7904 13.9328 12.9111 13.8926C13.0141 13.8544 13.112 13.8076 13.2041 13.751C13.2449 13.7259 13.2849 13.7002 13.3232 13.6719C13.3367 13.6619 13.3501 13.652 13.3633 13.6416C13.4151 13.6008 13.4652 13.5582 13.5117 13.5117C13.5701 13.4534 13.6227 13.3897 13.6719 13.3232C13.7002 13.2849 13.7259 13.2449 13.751 13.2041C13.8121 13.1046 13.8628 12.9988 13.9023 12.8867C13.9383 12.7696 13.9643 12.6198 13.9795 12.4033C13.9997 12.1147 14 11.7464 14 11.2217L13.9941 10.4395L13.3662 9.90039L11.3467 8.28418C11.2043 8.17024 11.1186 8.10198 11.0508 8.05566C11.0195 8.03432 10.9993 8.02358 10.9873 8.01758C10.9816 8.01474 10.9784 8.01242 10.9766 8.01172H10.9736C10.933 8.00135 10.8905 8.00272 10.8506 8.01562ZM4.9668 2C4.35182 2 3.9202 2.00085 3.58398 2.02832C3.25392 2.05531 3.05959 2.10553 2.91016 2.18164C2.59655 2.34143 2.34143 2.59655 2.18164 2.91016C2.10553 3.05959 2.05531 3.25392 2.02832 3.58398C2.00085 3.9202 2 4.35182 2 4.9668V11.0332C2 11.6482 2.00085 12.0798 2.02832 12.416C2.05531 12.7461 2.10553 12.9404 2.18164 13.0898C2.34143 13.4034 2.59655 13.6586 2.91016 13.8184C2.95546 13.8414 3.00544 13.8605 3.06152 13.8789C3.1198 13.7196 3.22492 13.5992 3.29492 13.5234C3.40105 13.4086 3.54952 13.2744 3.71387 13.125L9.82324 7.57129C9.94715 7.45865 10.0605 7.35461 10.1621 7.27539C10.2686 7.19243 10.3903 7.11347 10.541 7.06445C10.7614 6.99287 10.9982 6.98542 11.2227 7.04297C11.3762 7.0824 11.5028 7.15339 11.6143 7.22949C11.7206 7.30209 11.8401 7.39841 11.9707 7.50293L13.9912 9.11914L13.9932 9.12012V4.87793C13.9932 4.27869 13.9925 3.85913 13.9658 3.53223C13.9396 3.21122 13.8905 3.02343 13.8174 2.87988C13.6629 2.57674 13.4164 2.33024 13.1133 2.17578C12.9697 2.10263 12.782 2.05358 12.4609 2.02734C12.134 2.00064 11.7146 2 11.1152 2H4.9668ZM5.47266 3.52734C6.54634 3.52758 7.41699 4.39891 7.41699 5.47266C7.41676 6.5462 6.5462 7.41676 5.47266 7.41699C4.39891 7.41699 3.52758 6.54634 3.52734 5.47266C3.52734 4.39877 4.39877 3.52734 5.47266 3.52734ZM5.47266 4.52734C4.95105 4.52734 4.52734 4.95105 4.52734 5.47266C4.52758 5.99406 4.9512 6.41699 5.47266 6.41699C5.99391 6.41676 6.41676 5.99391 6.41699 5.47266C6.41699 4.9512 5.99406 4.52758 5.47266 4.52734Z" fill="currentColor"/>
</svg>
