<svg width="16" height="16" viewBox="0 0 16 16" fill="none" xmlns="http://www.w3.org/2000/svg">
<g clip-path="url(#clip0_175_48162)">
<path d="M7.00684 0.756348L7.20996 0.780762L13.8174 1.9458C14.9048 2.13774 15.631 3.1747 15.4395 4.26221L13.9424 12.7534L13.8975 12.9526C13.6399 13.8632 12.7719 14.4704 11.8281 14.4009L11.625 14.3765L9.72266 14.0405L5.09082 15.0679C3.74284 15.3667 2.40724 14.5164 2.1084 13.1685L0.810547 7.31104C0.511706 5.96305 1.36198 4.62745 2.70996 4.32861L4.62793 3.90283L4.89258 2.40283C5.07246 1.38307 5.99586 0.682027 7.00684 0.756348ZM2.92578 5.30518C2.11725 5.48461 1.60698 6.28563 1.78613 7.09424L3.08496 12.9526C3.26444 13.7611 4.06543 14.2715 4.87402 14.0923L7.15039 13.5864L5.01855 13.2114L4.81934 13.1646C3.90879 12.9071 3.30182 12.0408 3.37109 11.0972L3.39551 10.894L4.43945 4.96924L2.92578 5.30518ZM5.07812 8.52588C4.98192 8.5349 4.89636 8.54837 4.82227 8.56299L4.38086 11.0679C4.28519 11.6115 4.64786 12.13 5.19141 12.2261L11.7988 13.3911C12.3425 13.487 12.8608 13.124 12.957 12.5806L13.2725 10.7896C13.2674 10.7872 13.2618 10.7862 13.2568 10.7837C11.5256 9.91302 10.2225 9.8157 9.28711 9.99756C8.34763 10.1803 7.72379 10.655 7.375 11.02C7.18425 11.2196 6.86762 11.2273 6.66797 11.0366C6.46854 10.8459 6.46173 10.5292 6.65234 10.3296C6.93584 10.0329 7.35084 9.68785 7.9082 9.41357C7.49432 8.95349 6.83331 8.68033 6.13574 8.56787C5.74849 8.50548 5.37682 8.49788 5.07812 8.52588ZM7.03613 1.76514C6.49235 1.66939 5.97385 2.03288 5.87793 2.57666L5.00391 7.52783C5.38555 7.49383 5.83458 7.50736 6.29492 7.58154C7.21145 7.7293 8.28486 8.14208 8.89648 9.05811C8.96156 9.04263 9.02812 9.02926 9.0957 9.01611C10.2333 8.79489 11.678 8.92696 13.4521 9.76709L14.4541 4.08936C14.55 3.5455 14.1874 3.02613 13.6436 2.93018L7.03613 1.76514ZM10.9492 3.26904C11.9157 3.26905 12.6992 4.05257 12.6992 5.01904C12.6992 5.98554 11.9157 6.76903 10.9492 6.76904C9.98272 6.76904 9.19922 5.98554 9.19922 5.01904C9.19924 4.05256 9.98273 3.26904 10.9492 3.26904ZM10.9492 4.26904C10.535 4.26904 10.1992 4.60485 10.1992 5.01904C10.1992 5.43326 10.535 5.76904 10.9492 5.76904C11.3634 5.76903 11.6992 5.43325 11.6992 5.01904C11.6992 4.60485 11.3634 4.26905 10.9492 4.26904Z" fill="currentColor"/>
</g>
<defs>
<clipPath id="clip0_175_48162">
<rect width="16" height="16" fill="white"/>
</clipPath>
</defs>
</svg>
