<svg width="16" height="16" viewBox="0 0 16 16" fill="none" xmlns="http://www.w3.org/2000/svg">
<path d="M13.998 9.49805C14.2742 9.49805 14.498 9.7219 14.498 9.99805V10.7979C14.498 11.3497 14.498 11.7938 14.4688 12.1523C14.439 12.5167 14.3764 12.8367 14.2256 13.1328C13.9859 13.6032 13.6032 13.9859 13.1328 14.2256C12.8367 14.3764 12.5167 14.439 12.1523 14.4688C11.7938 14.498 11.3497 14.498 10.7979 14.498H5.19824C4.64644 14.498 4.20234 14.498 3.84375 14.4688C3.4794 14.439 3.15937 14.3764 2.86328 14.2256C2.39288 13.9859 2.01019 13.6032 1.77051 13.1328C1.61968 12.8367 1.55711 12.5167 1.52734 12.1523C1.49805 11.7938 1.49805 11.3497 1.49805 10.7979V9.99805C1.49805 9.7219 1.7219 9.49805 1.99805 9.49805C2.27419 9.49805 2.49805 9.7219 2.49805 9.99805V10.7979C2.49805 11.3662 2.49824 11.7629 2.52344 12.0713C2.54814 12.3733 2.59418 12.5471 2.66113 12.6787C2.80494 12.961 3.03514 13.1912 3.31738 13.335C3.44896 13.4019 3.62275 13.448 3.9248 13.4727C4.23323 13.4979 4.62994 13.498 5.19824 13.498H10.7979C11.3662 13.498 11.7629 13.4979 12.0713 13.4727C12.3733 13.448 12.5471 13.4019 12.6787 13.335C12.961 13.1912 13.1912 12.961 13.335 12.6787C13.4019 12.5471 13.448 12.3733 13.4727 12.0713C13.4979 11.7629 13.498 11.3662 13.498 10.7979V9.99805C13.498 9.7219 13.7219 9.49805 13.998 9.49805ZM7.99805 1.49805C8.27419 1.49805 8.49805 1.7219 8.49805 1.99805V8.79102L10.9775 6.31152C11.1728 6.11626 11.4893 6.11626 11.6846 6.31152C11.8798 6.50679 11.8798 6.82329 11.6846 7.01855L8.35156 10.3516C8.1563 10.5468 7.83979 10.5468 7.64453 10.3516L4.31152 7.01855C4.11626 6.82329 4.11626 6.50679 4.31152 6.31152C4.50679 6.11626 4.82329 6.11626 5.01855 6.31152L7.49805 8.79102V1.99805C7.49805 1.7219 7.7219 1.49805 7.99805 1.49805Z" fill="currentColor"/>
</svg>
