<svg width="16" height="16" viewBox="0 0 16 16" fill="none" xmlns="http://www.w3.org/2000/svg">
<path d="M10.3877 2.10303C11.6033 2.10303 12.6992 2.83644 13.1621 3.96045L14.8857 8.14893C14.9603 8.33007 14.999 8.52432 14.999 8.72021V11.397C14.9989 12.7776 13.8797 13.8969 12.499 13.897H3.5C2.11934 13.897 1.00009 12.7776 1 11.397V8.72021C1 8.52426 1.03866 8.33012 1.11328 8.14893L2.83789 3.96045C3.30084 2.83652 4.39675 2.10303 5.6123 2.10303H10.3877ZM2 11.397C2.00009 12.2253 2.67163 12.897 3.5 12.897H12.499C13.3274 12.8969 13.9989 12.2253 13.999 11.397V9.02197H11.9072C11.6172 9.02213 11.3465 9.16744 11.1855 9.40869C10.8391 9.9284 10.2555 10.2406 9.63086 10.2407H6.36816C5.74355 10.2407 5.15996 9.92841 4.81348 9.40869C4.6524 9.1673 4.38104 9.02197 4.09082 9.02197H2V11.397ZM5.6123 3.10303C4.80196 3.10303 4.07134 3.59205 3.7627 4.34131L2.24707 8.02197H4.09082C4.71539 8.02197 5.29897 8.33441 5.64551 8.854C5.80652 9.09553 6.0779 9.24066 6.36816 9.24072H9.63086C9.9211 9.24064 10.1925 9.09551 10.3535 8.854C10.7 8.33456 11.2828 8.02213 11.9072 8.02197H13.752L12.2373 4.34131C11.9287 3.59197 11.1981 3.10303 10.3877 3.10303H5.6123Z" fill="currentColor"/>
</svg>
