<svg width="16" height="16" viewBox="0 0 16 16" fill="none" xmlns="http://www.w3.org/2000/svg">
<path d="M4.77637 1.75586C5.40982 1.80982 5.94689 2.26 6.10352 2.88574L6.24805 3.46484C6.61468 4.93175 5.99792 6.4682 4.71875 7.27441L3.97266 7.74414C4.03864 7.87728 4.10613 8.00855 4.17676 8.13672L4.31836 8.38379V8.38477C5.13767 9.77894 6.28501 10.9529 7.66016 11.8037H7.66113C7.86888 11.9327 8.08447 12.0478 8.30469 12.1562L8.70898 11.4629C9.51034 10.0862 11.1404 9.42435 12.6748 9.85254L13.1553 9.98633C13.8028 10.1672 14.2512 10.7573 14.252 11.4297L14.2529 12.1582C14.2535 12.6741 14.0879 13.2074 13.7725 13.6084C13.4488 14.0196 12.9458 14.3091 12.3252 14.2324V14.2334L12.2549 14.2246C10.8519 14.053 9.52084 13.781 8.31055 13.2637C8.22542 13.2273 8.14061 13.1893 8.05664 13.1504C7.74 13.0037 7.43147 12.8388 7.13281 12.6533V12.6523C5.62012 11.716 4.35842 10.4254 3.45703 8.8916V8.89258C3.24462 8.53252 3.05016 8.15434 2.875 7.76172C2.35174 6.58877 1.99601 5.28051 1.8291 3.91895L1.82715 3.90527V3.89258C1.82235 3.82487 1.81667 3.75878 1.81152 3.69434C1.76638 3.12862 1.9607 2.62825 2.33105 2.27441C2.69501 1.92687 3.19682 1.75005 3.72852 1.75H4.64844L4.77637 1.75586ZM12.4062 10.8154C11.3101 10.5095 10.1456 10.9832 9.57324 11.9668L9.2334 12.5479C10.185 12.8858 11.2337 13.0916 12.377 13.2314L12.4473 13.2402C12.653 13.2657 12.8333 13.1837 12.9863 12.9893C13.1475 12.7843 13.2533 12.4765 13.2529 12.1592L13.252 11.4307C13.2517 11.2065 13.1016 11.0095 12.8857 10.9492L12.4062 10.8154ZM3.61426 2.75488C3.35458 2.77664 3.15309 2.8714 3.02148 2.99707C2.87778 3.13437 2.78636 3.33669 2.80859 3.61523C2.81364 3.67844 2.81842 3.74399 2.82324 3.81152C2.95407 4.86947 3.20837 5.88569 3.56738 6.81738L4.18555 6.42871C5.09932 5.85285 5.54024 4.75488 5.27832 3.70703L5.13379 3.12891C5.08507 2.93403 4.92532 2.78965 4.73242 2.75684L4.64844 2.75H3.72852L3.61426 2.75488ZM14.1465 1.14648C14.3417 0.951243 14.6582 0.951284 14.8535 1.14648C15.0488 1.34175 15.0488 1.65825 14.8535 1.85352L11.4824 5.22461H14.0098C14.2858 5.22474 14.5098 5.44855 14.5098 5.72461C14.5097 6.00062 14.2858 6.22448 14.0098 6.22461H10.2754C10.2423 6.22459 10.2093 6.22042 10.1768 6.21387C9.94794 6.16799 9.77545 5.96686 9.77539 5.72461V1.99023C9.77556 1.71434 9.9995 1.4904 10.2754 1.49023C10.5513 1.49037 10.7752 1.71432 10.7754 1.99023V4.51758L14.1465 1.14648Z" fill="currentColor"/>
</svg>
