<svg width="16" height="16" viewBox="0 0 16 16" fill="none" xmlns="http://www.w3.org/2000/svg">
<path fill-rule="evenodd" clip-rule="evenodd" d="M2.77637 2C2.50022 2 2.27637 2.22386 2.27637 2.5C2.27637 2.77614 2.50022 3 2.77637 3H13.8669C14.143 3 14.3669 2.77614 14.3669 2.5C14.3669 2.22386 14.143 2 13.8669 2H2.77637ZM7.21289 7.43408C6.93675 7.43408 6.71289 7.65794 6.71289 7.93408C6.71289 8.21022 6.93675 8.43408 7.21289 8.43408H14.0001C14.2763 8.43408 14.5001 8.21022 14.5001 7.93408C14.5001 7.65794 14.2763 7.43408 14.0001 7.43408H7.21289ZM2.27686 13.3687C2.27686 13.0925 2.50071 12.8687 2.77686 12.8687H13.8674C14.1435 12.8687 14.3674 13.0925 14.3674 13.3687C14.3674 13.6448 14.1435 13.8687 13.8674 13.8687H2.77686C2.50071 13.8687 2.27686 13.6448 2.27686 13.3687ZM2 6.01564V9.85287C2 10.192 2.39554 10.3773 2.65607 10.1602L4.95841 8.24154C5.15032 8.08162 5.15032 7.78688 4.95841 7.62697L2.65607 5.70835C2.39554 5.49124 2 5.6765 2 6.01564Z" fill="currentColor"/>
</svg>
