<svg width="16" height="16" viewBox="0 0 16 16" fill="none" xmlns="http://www.w3.org/2000/svg">
<path fill-rule="evenodd" clip-rule="evenodd" d="M12 0.432617C13.3807 0.432617 14.5 1.55288 14.5 2.93359V15C14.4998 15.1923 14.3893 15.3681 14.2158 15.4512C14.0421 15.534 13.8353 15.5096 13.6855 15.3887L11.7295 13.8066L10.2012 15.3516C10.1073 15.4463 9.97911 15.5 9.8457 15.5C9.71242 15.4999 9.58403 15.4463 9.49023 15.3516L8 13.8447L6.50977 15.3516C6.41597 15.4463 6.28758 15.4999 6.1543 15.5C6.02089 15.5 5.89272 15.4463 5.79883 15.3516L4.26953 13.8066L2.31445 15.3887C2.16471 15.5096 1.95794 15.534 1.78418 15.4512C1.61071 15.3681 1.50019 15.1923 1.5 15V2.93359C1.5 1.55288 2.61929 0.432617 4 0.432617H12ZM4 1.43359C3.17157 1.43359 2.5 2.10517 2.5 2.93359V13.9521L3.99316 12.7451L4.07227 12.6924C4.26391 12.5899 4.50513 12.6225 4.66309 12.7822L6.15332 14.2891L7.64453 12.7822L7.7207 12.7188C7.80262 12.6636 7.89977 12.6338 8 12.6338C8.13357 12.6338 8.26155 12.6873 8.35547 12.7822L9.8457 14.2891L11.3369 12.7822L11.4092 12.7217C11.5884 12.5983 11.832 12.6037 12.0068 12.7451L13.5 13.9521V2.93359C13.5 2.10517 12.8284 1.43359 12 1.43359H4ZM11.5 9C11.7761 9 12 9.22386 12 9.5C12 9.77614 11.7761 10 11.5 10H4.5C4.22386 10 4 9.77614 4 9.5C4 9.22386 4.22386 9 4.5 9H11.5ZM11.5 5C11.7761 5 12 5.22386 12 5.5C12 5.77614 11.7761 6 11.5 6H4.5C4.22386 6 4 5.77614 4 5.5C4 5.22386 4.22386 5 4.5 5H11.5Z" fill="currentColor"/>
</svg>
