<svg width="16" height="16" viewBox="0 0 16 16" fill="none" xmlns="http://www.w3.org/2000/svg">
<path d="M12.0493 2C12.3998 2 12.6662 2.31451 12.6089 2.66016C12.5633 2.93372 12.3267 3.13477 12.0493 3.13477H9.521L7.88818 12.8652H10.2271C10.5776 12.8652 10.8443 13.1806 10.7866 13.5264C10.7408 13.7997 10.5042 14 10.2271 14H3.95068C3.60024 14 3.33375 13.6855 3.39111 13.3398C3.43671 13.0663 3.67335 12.8652 3.95068 12.8652H6.47803L8.11182 3.13477H5.77295C5.42237 3.13477 5.15574 2.81944 5.21338 2.47363C5.25916 2.2003 5.49577 2 5.77295 2H12.0493Z" fill="currentColor"/>
</svg>
