<svg width="16" height="16" viewBox="0 0 16 16" fill="none" xmlns="http://www.w3.org/2000/svg">
<path fill-rule="evenodd" clip-rule="evenodd" d="M1 4C1 2.61929 2.11929 1.5 3.5 1.5H12.5C13.8807 1.5 15 2.61929 15 4V9C15 9.65311 14.5826 10.2087 14 10.4146V12C14 13.3807 12.8807 14.5 11.5 14.5H4.5C3.11929 14.5 2 13.3807 2 12V10.4146C1.4174 10.2087 1 9.65311 1 9V4ZM3 10.5H13V12C13 12.8284 12.3284 13.5 11.5 13.5H4.5C3.67157 13.5 3 12.8284 3 12V10.5ZM3.5 2.5C2.67157 2.5 2 3.17157 2 4V9C2 9.27614 2.22386 9.5 2.5 9.5H13.5C13.7761 9.5 14 9.27614 14 9V4C14 3.17157 13.3284 2.5 12.5 2.5H3.5ZM7 7C6.72386 7 6.5 7.22386 6.5 7.5C6.5 7.77614 6.72386 8 7 8H9C9.27614 8 9.5 7.77614 9.5 7.5C9.5 7.22386 9.27614 7 9 7H7Z" fill="currentColor"/>
</svg>
