<svg width="16" height="16" viewBox="0 0 16 16" fill="none" xmlns="http://www.w3.org/2000/svg">
<g clip-path="url(#clip0_19684_14093)">
<path d="M14.1797 1.11328C14.375 0.918077 14.6915 0.918046 14.8867 1.11328C15.0819 1.30853 15.0819 1.62506 14.8867 1.82031L7.72656 8.97949C8.21174 9.61356 8.49998 10.4065 8.5 11.2666C8.49995 13.3468 6.81358 15.0331 4.7334 15.0332C2.65319 15.0332 0.966848 13.3468 0.966797 11.2666C0.966837 9.18638 2.65318 7.50004 4.7334 7.5C5.59299 7.50003 6.38469 7.78872 7.01855 8.27344L14.1797 1.11328ZM4.7334 8.5C3.20546 8.50004 1.96684 9.73867 1.9668 11.2666C1.96685 12.7945 3.20547 14.0332 4.7334 14.0332C6.26129 14.0331 7.49995 12.7945 7.5 11.2666C7.49996 9.73869 6.2613 8.50008 4.7334 8.5ZM13.2461 4.84668C13.4413 4.65145 13.7579 4.65152 13.9531 4.84668L14.8867 5.78027C15.0818 5.97555 15.0819 6.29211 14.8867 6.4873L12.0869 9.28711C11.8917 9.48205 11.5751 9.48208 11.3799 9.28711L10.4463 8.35352C10.2512 8.15833 10.2513 7.84173 10.4463 7.64648C10.6415 7.45136 10.9581 7.45136 11.1533 7.64648L11.7334 8.22656L13.8262 6.13379L13.2461 5.55371C13.051 5.35856 13.0512 5.04194 13.2461 4.84668Z" fill="currentColor"/>
</g>
<defs>
<clipPath id="clip0_19684_14093">
<rect width="16" height="16" fill="white"/>
</clipPath>
</defs>
</svg>
