<svg width="16" height="16" viewBox="0 0 16 16" fill="none" xmlns="http://www.w3.org/2000/svg">
<path fill-rule="evenodd" clip-rule="evenodd" d="M2.63776 3.13203C2.72077 3.04212 2.82437 3 2.92308 3H13.0769C13.1756 3 13.2792 3.04212 13.3622 3.13203C13.4465 3.2233 13.5 3.35505 13.5 3.5V9.5C13.5 9.77614 13.7239 10 14 10C14.2761 10 14.5 9.77614 14.5 9.5V3.5C14.5 3.11452 14.359 2.73756 14.097 2.45375C13.8338 2.1686 13.4678 2 13.0769 2H2.92308C2.53215 2 2.16618 2.1686 1.90296 2.45375C1.64098 2.73756 1.5 3.11452 1.5 3.5V9.5C1.5 9.77614 1.72386 10 2 10C2.27614 10 2.5 9.77614 2.5 9.5V3.5C2.5 3.35505 2.55352 3.2233 2.63776 3.13203ZM1 11C0.867392 11 0.740215 11.0527 0.646447 11.1464C0.552678 11.2402 0.5 11.3674 0.5 11.5C0.5 12.1523 0.741543 12.7843 1.18121 13.2554C1.62196 13.7276 2.22742 14 2.86667 14H13.1333C13.7726 14 14.378 13.7276 14.8188 13.2554C15.2585 12.7843 15.5 12.1523 15.5 11.5C15.5 11.2239 15.2761 11 15 11H1ZM1.91226 12.5731C1.76203 12.4121 1.64796 12.2157 1.5783 12H14.4217C14.352 12.2157 14.238 12.4121 14.0877 12.5731C13.8284 12.851 13.4842 13 13.1333 13H2.86667C2.51577 13 2.17165 12.851 1.91226 12.5731Z" fill="currentColor"/>
</svg>
