<svg width="16" height="16" viewBox="0 0 16 16" fill="none" xmlns="http://www.w3.org/2000/svg">
<g clip-path="url(#clip0_18127_4196)">
<path d="M7.29883 3.5127C10.1079 3.08824 12.5303 5.25632 12.5303 7.99023C12.5301 9.75305 11.5195 11.2693 10.0537 12.0166C10.0369 12.0274 10.0191 12.0362 10.001 12.0449C9.99569 12.0475 9.99065 12.0511 9.98535 12.0537V13.7178C9.98491 14.4618 9.38084 15.0663 8.63672 15.0664H7.36328C6.61926 15.0662 6.01607 14.4617 6.01562 13.7178V12.0537C4.30216 11.2168 3.18912 9.33411 3.53125 7.23242L3.59961 6.89844C4.00315 5.24813 5.34502 3.91462 7.02637 3.5625L7.29883 3.5127ZM7.01562 12.0967V13.7178C7.01607 13.9095 7.17155 14.0662 7.36328 14.0664H8.63672C8.82855 14.0663 8.98491 13.9095 8.98535 13.7178V12.0967H7.01562ZM11.5303 7.99023C11.5303 5.85973 9.645 4.16922 7.44531 4.50195L7.23145 4.54102C5.93479 4.81258 4.88566 5.85156 4.57129 7.13379L4.51855 7.39355C4.25876 8.98994 5.06971 10.4181 6.34473 11.0967H9.6582C10.7719 10.503 11.5301 9.33693 11.5303 7.99023ZM1.94922 7.5C2.17683 7.5468 2.34863 7.74877 2.34863 7.99023C2.3484 8.23155 2.17678 8.43378 1.94922 8.48047L1.84863 8.49023H1C0.724021 8.49023 0.500264 8.26615 0.5 7.99023C0.5 7.71409 0.723858 7.49023 1 7.49023H1.84863L1.94922 7.5ZM15.1006 7.5C15.3284 7.54662 15.5 7.74861 15.5 7.99023C15.4998 8.23168 15.3283 8.43392 15.1006 8.48047L15 8.49023H14.1514C13.8754 8.49023 13.6516 8.26615 13.6514 7.99023C13.6514 7.71409 13.8752 7.49023 14.1514 7.49023H15L15.1006 7.5ZM12.5957 2.68652C12.7909 2.49131 13.1075 2.4914 13.3027 2.68652C13.498 2.88179 13.498 3.19829 13.3027 3.39355L12.7031 3.99316C12.5079 4.18843 12.1914 4.18843 11.9961 3.99316C11.801 3.79789 11.8009 3.48135 11.9961 3.28613L12.5957 2.68652ZM2.69629 2.68652C2.86715 2.51566 3.13112 2.49391 3.3252 2.62207L3.40332 2.68652L4.00293 3.28613L4.06738 3.36523C4.19528 3.55928 4.17369 3.82241 4.00293 3.99316C3.83217 4.16392 3.56904 4.18551 3.375 4.05762L3.2959 3.99316L2.69629 3.39355L2.63184 3.31543C2.50367 3.12135 2.52543 2.85739 2.69629 2.68652ZM8 0.490234C8.27614 0.490234 8.5 0.714092 8.5 0.990234V1.83887C8.49966 2.11472 8.27593 2.33887 8 2.33887C7.72407 2.33887 7.50034 2.11472 7.5 1.83887V0.990234C7.5 0.714092 7.72386 0.490234 8 0.490234Z" fill="currentColor"/>
</g>
<defs>
<clipPath id="clip0_18127_4196">
<rect width="16" height="16" fill="white"/>
</clipPath>
</defs>
</svg>
