<svg width="16" height="16" viewBox="0 0 16 16" fill="none" xmlns="http://www.w3.org/2000/svg">
<path d="M5.18066 15.1152C4.17235 15.0126 3.38477 14.1614 3.38477 13.126V7.60645L3.39258 7.48145C3.40807 7.35807 3.44709 7.23781 3.50684 7.12793L6.625 1.39551L6.69824 1.28027C6.85833 1.06277 7.10059 0.919459 7.36816 0.882812L7.50391 0.873047H7.80371L8.00781 0.883789C8.94931 0.979231 9.69743 1.72747 9.79297 2.66895L9.80371 2.87305V5.4082H12.7178L12.8496 5.41211C14.1979 5.49751 15.0904 6.88948 14.5703 8.16406L12.2373 13.8818C11.9302 14.6341 11.1982 15.1258 10.3857 15.126H5.38477L5.18066 15.1152ZM10.3857 14.126C10.7919 14.1258 11.158 13.88 11.3115 13.5039L13.6445 7.78613C13.9129 7.12837 13.4282 6.4082 12.7178 6.4082H9.80371C9.25164 6.40797 8.80373 5.96033 8.80371 5.4082V2.87305C8.80363 2.32083 8.35595 1.87305 7.80371 1.87305H7.50391L4.38477 7.60645V13.126C4.38477 13.678 4.83284 14.1256 5.38477 14.126H10.3857ZM1.77832 14.9922C1.50231 14.9921 1.27843 14.7682 1.27832 14.4922V8.00684L1.28809 7.90625C1.33478 7.67856 1.53684 7.50691 1.77832 7.50684C2.01987 7.50684 2.22185 7.67852 2.26855 7.90625L2.27832 8.00684V14.4922C2.27821 14.7682 2.0544 14.9922 1.77832 14.9922Z" fill="currentColor"/>
</svg>
