<svg width="16" height="16" viewBox="0 0 16 16" fill="none" xmlns="http://www.w3.org/2000/svg">
<g clip-path="url(#clip0_21966_3145)">
<path d="M8.57617 6.71729C8.77145 6.52262 9.08812 6.5223 9.2832 6.71729C10.7605 8.19481 10.7603 10.5903 9.2832 12.0679L7.42578 13.9253C5.9482 15.4029 3.55287 15.4027 2.0752 13.9253C0.597622 12.4476 0.597566 10.0523 2.0752 8.57471L2.08008 8.56982L3.71191 6.98486C3.90997 6.79288 4.22665 6.79681 4.41895 6.99463C4.61123 7.19257 4.6059 7.50922 4.4082 7.70166L2.77734 9.28662C1.69511 10.3741 1.6968 12.1327 2.78223 13.2183C3.86938 14.3052 5.63169 14.3053 6.71875 13.2183L8.57617 11.3608C9.66278 10.2737 9.66293 8.51132 8.57617 7.42432C8.381 7.22905 8.38094 6.91252 8.57617 6.71729ZM8.5752 2.07471C10.0528 0.597103 12.4481 0.597086 13.9258 2.07471C15.4031 3.55237 15.4033 5.94772 13.9258 7.42529L13.9199 7.43018L12.2891 9.01514C12.091 9.20744 11.7744 9.20239 11.582 9.00439C11.3897 8.80635 11.3938 8.48977 11.5918 8.29736L13.2236 6.7124C14.3053 5.62493 14.3038 3.86709 13.2188 2.78174C12.1316 1.69464 10.3694 1.69466 9.28223 2.78174L7.4248 4.63916C6.33782 5.7263 6.33774 7.48859 7.4248 8.57568C7.61978 8.77097 7.61997 9.08755 7.4248 9.28271C7.22962 9.47763 6.91297 9.47761 6.71777 9.28271C5.24018 7.8051 5.24026 5.40979 6.71777 3.93213L8.5752 2.07471Z" fill="currentColor"/>
</g>
<defs>
<clipPath id="clip0_21966_3145">
<rect width="16" height="16" fill="white"/>
</clipPath>
</defs>
</svg>
