<svg width="16" height="16" viewBox="0 0 16 16" fill="none" xmlns="http://www.w3.org/2000/svg">
<path d="M2.31396 3.64648C2.50925 3.45155 2.82584 3.45133 3.021 3.64648C3.21579 3.84167 3.21581 4.15835 3.021 4.35352C0.994036 6.38048 0.994036 9.683 3.021 11.71C3.21579 11.9051 3.21581 12.2218 3.021 12.417C2.82585 12.6121 2.50926 12.6119 2.31396 12.417C-0.10352 9.99951 -0.10352 6.06397 2.31396 3.64648ZM12.98 3.64648C13.1753 3.45139 13.4918 3.45128 13.687 3.64648C16.1042 6.06393 16.1043 9.99956 13.687 12.417C13.4918 12.6122 13.1753 12.6121 12.98 12.417C12.7847 12.2217 12.7847 11.9052 12.98 11.71C15.0067 9.68305 15.0067 6.38044 12.98 4.35352C12.7847 4.15825 12.7847 3.84175 12.98 3.64648ZM4.15479 5.36035C4.35003 5.16555 4.66668 5.16538 4.86182 5.36035C5.05694 5.55548 5.05667 5.87209 4.86182 6.06738C3.78743 7.14189 3.7875 8.79362 4.86182 9.86816C5.05694 10.0633 5.05667 10.3799 4.86182 10.5752C4.66655 10.7704 4.35003 10.7704 4.15479 10.5752C2.68994 9.11012 2.68987 6.82539 4.15479 5.36035ZM11.1392 5.36035C11.3344 5.16551 11.6511 5.16527 11.8462 5.36035C13.3111 6.8253 13.3108 9.11007 11.8462 10.5752C11.6509 10.7705 11.3344 10.7705 11.1392 10.5752C10.944 10.3799 10.9439 10.0634 11.1392 9.86816C12.2133 8.79357 12.2136 7.14181 11.1392 6.06738C10.9439 5.87212 10.9439 5.5556 11.1392 5.36035ZM7.99951 6.23047C8.97686 6.23047 9.76985 7.02269 9.77002 8C9.76987 8.97733 8.97687 9.77051 7.99951 9.77051C7.02235 9.77027 6.23013 8.97718 6.22998 8C6.23015 7.02283 7.02236 6.2307 7.99951 6.23047ZM7.99951 7.23047C7.57464 7.2307 7.23015 7.57512 7.22998 8C7.23013 8.4249 7.57463 8.77027 7.99951 8.77051C8.42459 8.77051 8.76987 8.42504 8.77002 8C8.76985 7.57497 8.42458 7.23047 7.99951 7.23047Z" fill="currentColor"/>
</svg>
