<svg width="16" height="16" viewBox="0 0 16 16" fill="none" xmlns="http://www.w3.org/2000/svg">
<path fill-rule="evenodd" clip-rule="evenodd" d="M8.16794 1C8.44408 1 8.66794 1.22386 8.66794 1.5V3.14568C8.66794 3.42182 8.44408 3.64568 8.16794 3.64568C7.8918 3.64568 7.66794 3.42182 7.66794 3.14568V1.5C7.66794 1.22386 7.8918 1 8.16794 1ZM3.29134 3.09405C3.48661 2.89879 3.80319 2.8988 3.99845 3.09406L5.39481 4.49047C5.59007 4.68573 5.59006 5.00231 5.3948 5.19757C5.19953 5.39283 4.88295 5.39283 4.68769 5.19756L3.29133 3.80116C3.09607 3.60589 3.09608 3.28931 3.29134 3.09405ZM12.9082 3.23038C13.1035 3.42564 13.1035 3.74223 12.9082 3.93749L11.9773 4.86843C11.7821 5.06369 11.4655 5.0637 11.2702 4.86844C11.0749 4.67318 11.0749 4.3566 11.2702 4.16133L12.2011 3.2304C12.3964 3.03513 12.7129 3.03513 12.9082 3.23038ZM1.25 7.91814C1.25 7.64199 1.47386 7.41814 1.75 7.41814H4.05388C4.33002 7.41814 4.55388 7.64199 4.55388 7.91814C4.55388 8.19428 4.33002 8.41814 4.05388 8.41814H1.75C1.47386 8.41814 1.25 8.19428 1.25 7.91814ZM12.7694 7.91814C12.7694 7.64199 12.9932 7.41814 13.2694 7.41814H14.2568C14.5329 7.41814 14.7568 7.64199 14.7568 7.91814C14.7568 8.19428 14.5329 8.41814 14.2568 8.41814H13.2694C12.9932 8.41814 12.7694 8.19428 12.7694 7.91814ZM5.72392 10.3622C5.91919 10.5575 5.91919 10.8741 5.72393 11.0693L3.86212 12.9312C3.66686 13.1265 3.35028 13.1265 3.15502 12.9312C2.95975 12.736 2.95975 12.4194 3.155 12.2241L5.01682 10.3622C5.21208 10.167 5.52866 10.167 5.72392 10.3622ZM11.5993 11.3496C11.7946 11.1544 12.1112 11.1544 12.3064 11.3496L12.7719 11.8151C12.9671 12.0104 12.9671 12.327 12.7719 12.5222C12.5766 12.7175 12.26 12.7175 12.0648 12.5222L11.5993 12.0567C11.4041 11.8615 11.4041 11.5449 11.5993 11.3496ZM8.16794 11.3678C8.44408 11.3678 8.66794 11.5916 8.66794 11.8678V14.5008C8.66794 14.777 8.44408 15.0008 8.16794 15.0008C7.8918 15.0008 7.66794 14.777 7.66794 14.5008V11.8678C7.66794 11.5916 7.8918 11.3678 8.16794 11.3678Z" fill="currentColor"/>
</svg>
