<svg width="16" height="16" viewBox="0 0 16 16" fill="none" xmlns="http://www.w3.org/2000/svg">
<g clip-path="url(#clip0_20793_3119)">
<path d="M11.334 0.833008C13.0827 0.833272 14.501 2.25224 14.501 4.00098C14.5009 4.26862 14.4627 4.52553 14.3975 4.77246C14.8882 5.74328 15.167 6.84033 15.167 8.00098C15.1666 11.9584 11.9584 15.1666 8.00098 15.167C4.04321 15.167 0.833448 11.9586 0.833008 8.00098C0.833008 7.73015 0.850623 7.46224 0.879883 7.19922C0.880915 7.18681 0.882823 7.17427 0.884766 7.16211C1.30011 3.5993 4.32669 0.833008 8.00098 0.833008C8.70052 0.833087 9.37733 0.936523 10.0176 1.12402C10.4188 0.940139 10.8637 0.833008 11.334 0.833008ZM8.00098 1.83398C5.04663 1.83398 2.57822 3.91174 1.97559 6.68555L5.01758 6.41504L5.13867 6.41309C5.37775 6.42676 5.60055 6.54276 5.74805 6.73145L5.81543 6.83203L7.03418 8.96777L8.89844 10.0332C9.3521 10.2929 9.45823 10.9018 9.11816 11.2988L7.50098 13.1855V14.1455C7.66567 14.1587 7.83289 14.167 8.00098 14.167C11.4061 14.1666 14.1666 11.4061 14.167 8.00098C14.167 7.29467 14.0463 6.61658 13.8281 5.98535C13.7441 6.11183 13.6567 6.23736 13.5635 6.3584C13.038 7.04068 12.3375 7.70453 11.6875 8.35449C11.4924 8.54937 11.1757 8.54905 10.9805 8.35449C10.3307 7.70468 9.62995 7.04051 9.10449 6.3584C8.57421 5.66984 8.16724 4.89553 8.16699 4.00098C8.16699 3.19801 8.46838 2.4664 8.96094 1.9082C8.64847 1.85938 8.32756 1.83403 8.00098 1.83398ZM1.84082 7.70117C1.83609 7.80024 1.83398 7.90073 1.83398 8.00098C1.83436 10.889 3.82037 13.3125 6.50098 13.9824V13.124C6.50099 12.9253 6.57193 12.733 6.70117 12.582L8.22656 10.8008L6.49805 9.81348C6.36893 9.73968 6.2613 9.63202 6.1875 9.50293L4.99902 7.41992L1.84082 7.70117ZM11.334 1.83398C10.1374 1.83398 9.16699 2.80436 9.16699 4.00098C9.16724 4.57854 9.42716 5.13864 9.89648 5.74805C10.2876 6.25573 10.7882 6.75152 11.334 7.29297C11.8799 6.75135 12.3804 6.2559 12.7715 5.74805C13.2408 5.13864 13.5007 4.57854 13.501 4.00098C13.501 2.80452 12.5304 1.83425 11.334 1.83398ZM11.4688 3.18066C11.7721 3.24318 12.001 3.51214 12.001 3.83398C12.0007 4.20179 11.7018 4.50071 11.334 4.50098C11.0121 4.50098 10.7432 4.27208 10.6807 3.96875L10.667 3.83398L10.6807 3.69922C10.743 3.39561 11.0119 3.16699 11.334 3.16699L11.4688 3.18066Z" fill="currentColor"/>
</g>
<defs>
<clipPath id="clip0_20793_3119">
<rect width="16" height="16" fill="white"/>
</clipPath>
</defs>
</svg>
