<svg width="16" height="16" viewBox="0 0 16 16" fill="none" xmlns="http://www.w3.org/2000/svg">
<g clip-path="url(#clip0_5_8207)">
<path fill-rule="evenodd" clip-rule="evenodd" d="M14.25 8C14.25 11.4518 11.4518 14.25 8 14.25C4.54822 14.25 1.75 11.4518 1.75 8C1.75 4.54822 4.54822 1.75 8 1.75C11.4518 1.75 14.25 4.54822 14.25 8ZM15.25 8C15.25 12.0041 12.0041 15.25 8 15.25C3.99594 15.25 0.75 12.0041 0.75 8C0.75 3.99594 3.99594 0.75 8 0.75C12.0041 0.75 15.25 3.99594 15.25 8ZM11.8938 4.72963C11.9938 4.53623 11.9572 4.30033 11.8032 4.14637C11.6492 3.99241 11.4134 3.95578 11.22 4.05581L6.60626 6.44212C6.51432 6.48967 6.43941 6.56459 6.39185 6.65653L4.00555 11.2702C3.90552 11.4636 3.94214 11.6995 4.09611 11.8535C4.25007 12.0074 4.48596 12.0441 4.67936 11.944L9.29306 9.55773C9.385 9.51018 9.45991 9.43526 9.50746 9.34332L11.8938 4.72963ZM7.20699 7.25725L10.2837 5.66593L8.69233 8.7426L5.61566 10.3339L7.20699 7.25725Z" fill="currentColor"/>
</g>
<defs>
<clipPath id="clip0_5_8207">
<rect width="16" height="16" fill="white"/>
</clipPath>
</defs>
</svg>
