<svg width="16" height="16" viewBox="0 0 16 16" fill="none" xmlns="http://www.w3.org/2000/svg">
<path d="M8.01758 1C11.8836 1 15.0176 4.13401 15.0176 8C15.0176 11.866 11.8836 15 8.01758 15C5.14642 14.9999 2.68029 13.271 1.60059 10.7998C1.49022 10.5468 1.60544 10.2521 1.8584 10.1416C2.11129 10.0312 2.40592 10.1467 2.5166 10.3994C3.44291 12.5195 5.55804 13.9999 8.01758 14C11.3313 14 14.0176 11.3137 14.0176 8C14.0176 4.68629 11.3313 2 8.01758 2C5.55804 2.00006 3.44291 3.4805 2.5166 5.60059C2.40592 5.85333 2.11129 5.96885 1.8584 5.8584C1.60544 5.74788 1.49022 5.45318 1.60059 5.2002C2.68029 2.72902 5.14642 1.00006 8.01758 1ZM6.36328 5.04688C6.53422 4.87593 6.79808 4.85406 6.99219 4.98242L7.07031 5.04688L9.66992 7.64648C9.76369 7.74025 9.81641 7.86739 9.81641 8C9.81641 8.13261 9.76369 8.25975 9.66992 8.35352L7.07031 10.9531C6.87505 11.1484 6.55854 11.1484 6.36328 10.9531C6.16816 10.7579 6.16807 10.4413 6.36328 10.2461L8.09668 8.51172H7.35938L6.10352 8.50977L3.59277 8.50488L1.94922 8.5C1.67322 8.49922 1.44965 8.27496 1.4502 7.99902C1.45098 7.72303 1.67523 7.49946 1.95117 7.5L3.59473 7.50488V7.50391L6.10547 7.50879L7.35938 7.51172H8.12109L6.36328 5.75391L6.29883 5.67578C6.17045 5.48172 6.19244 5.21784 6.36328 5.04688Z" fill="currentColor"/>
</svg>
