<svg width="16" height="16" viewBox="0 0 16 16" fill="none" xmlns="http://www.w3.org/2000/svg">
<path d="M4.11914 12.0967C3.73958 12.0967 3.4012 12.0322 3.104 11.9033C2.81038 11.7744 2.57585 11.5828 2.40039 11.3286C2.22852 11.0708 2.14258 10.7539 2.14258 10.3779C2.14258 10.0521 2.20524 9.78532 2.33057 9.57764C2.45589 9.36637 2.6224 9.19808 2.83008 9.07275C3.04134 8.94743 3.28125 8.85433 3.5498 8.79346C3.82194 8.729 4.10124 8.68066 4.3877 8.64844C4.74219 8.60547 5.02327 8.56966 5.23096 8.54102C5.43864 8.51237 5.58724 8.4694 5.67676 8.41211C5.76986 8.35124 5.81641 8.25277 5.81641 8.1167V8.07373C5.81641 7.89469 5.77165 7.73714 5.68213 7.60107C5.59619 7.46501 5.47087 7.35938 5.30615 7.28418C5.14502 7.2054 4.94808 7.16602 4.71533 7.16602C4.48258 7.16602 4.27669 7.20361 4.09766 7.27881C3.9222 7.354 3.78076 7.45785 3.67334 7.59033C3.5695 7.71924 3.50863 7.86605 3.49072 8.03076L2.29834 8.00391C2.33057 7.65299 2.44873 7.34147 2.65283 7.06934C2.85693 6.79362 3.13444 6.57699 3.48535 6.41943C3.83626 6.26188 4.24805 6.18311 4.7207 6.18311C5.06445 6.18311 5.37777 6.22786 5.66064 6.31738C5.9471 6.40332 6.19238 6.53044 6.39648 6.69873C6.60059 6.86344 6.75814 7.06396 6.86914 7.30029C6.98014 7.53304 7.03564 7.79443 7.03564 8.08447V12H5.82715V11.1943H5.80029C5.71794 11.3519 5.60514 11.5005 5.46191 11.6401C5.32227 11.7762 5.14323 11.8872 4.9248 11.9731C4.70638 12.0555 4.43783 12.0967 4.11914 12.0967ZM4.39307 11.1406C4.70817 11.1406 4.97135 11.0833 5.18262 10.9688C5.39746 10.8506 5.5568 10.6966 5.66064 10.5068C5.76807 10.3171 5.82178 10.1094 5.82178 9.88379V9.22852C5.77881 9.25716 5.71257 9.28581 5.62305 9.31445C5.53711 9.33952 5.43148 9.36458 5.30615 9.38965C5.18441 9.41471 5.05371 9.43799 4.91406 9.45947C4.77441 9.48096 4.63477 9.50244 4.49512 9.52393C4.2946 9.54899 4.10661 9.59554 3.93115 9.66357C3.75928 9.72803 3.61963 9.81755 3.51221 9.93213C3.40837 10.0467 3.35645 10.1971 3.35645 10.3833C3.35645 10.6196 3.44954 10.8058 3.63574 10.9419C3.82552 11.0744 4.07796 11.1406 4.39307 11.1406Z" fill="currentColor"/>
<path d="M11.198 14.374C10.7146 14.374 10.2975 14.3096 9.94656 14.1807C9.59923 14.0553 9.31635 13.8853 9.09793 13.6704C8.88309 13.4556 8.72553 13.221 8.62527 12.9668L9.70486 12.5854C9.76932 12.7 9.86062 12.82 9.97879 12.9453C10.097 13.0706 10.2545 13.1763 10.4514 13.2622C10.652 13.3481 10.9062 13.3911 11.2141 13.3911C11.6474 13.3911 12.0037 13.2873 12.283 13.0796C12.5659 12.8719 12.7073 12.5371 12.7073 12.0752V10.915H12.6267C12.5587 11.0439 12.4584 11.1872 12.326 11.3447C12.1935 11.4987 12.0109 11.6312 11.7781 11.7422C11.5489 11.8532 11.2535 11.9087 10.8919 11.9087C10.4228 11.9087 10.0003 11.7977 9.6243 11.5757C9.24832 11.3537 8.94933 11.026 8.72732 10.5928C8.50532 10.1559 8.39432 9.61882 8.39432 8.98145C8.39432 8.33691 8.50353 7.78727 8.72195 7.33252C8.94396 6.87419 9.24295 6.52507 9.61893 6.28516C9.99848 6.04167 10.4282 5.91992 10.908 5.91992C11.2732 5.91992 11.5704 5.98079 11.7996 6.10254C12.0288 6.22428 12.2096 6.36751 12.3421 6.53223C12.4746 6.69694 12.5766 6.84554 12.6482 6.97803H12.7288V5.99512H13.9373V12.1235C13.9373 12.6356 13.8173 13.0581 13.5774 13.3911C13.3375 13.7241 13.0099 13.9712 12.5945 14.1323C12.1827 14.2935 11.7172 14.374 11.198 14.374ZM11.1927 10.8989C11.6832 10.8989 12.0592 10.7288 12.3206 10.3887C12.5856 10.0449 12.718 9.57048 12.718 8.96533C12.718 8.56429 12.659 8.21517 12.5408 7.91797C12.4262 7.61719 12.2561 7.38265 12.0305 7.21436C11.805 7.04606 11.5257 6.96191 11.1927 6.96191C10.8561 6.96191 10.5732 7.05143 10.344 7.23047C10.1149 7.40592 9.94298 7.64404 9.8284 7.94482C9.71381 8.24561 9.65652 8.58577 9.65652 8.96533C9.65652 9.34847 9.71381 9.68506 9.8284 9.9751C9.94656 10.2651 10.1202 10.4925 10.3494 10.6572C10.5786 10.8184 10.8596 10.8989 11.1927 10.8989Z" fill="currentColor"/>
</svg>
