<svg width="16" height="16" viewBox="0 0 16 16" fill="none" xmlns="http://www.w3.org/2000/svg">
<path d="M4.97656 1.23389C5.51285 1.01937 6.11115 1.01947 6.64746 1.23389L9.72266 2.46338C10.0206 2.58254 10.3534 2.58247 10.6514 2.46338L12.5762 1.69385C13.7667 1.21764 15.0615 2.09425 15.0615 3.37646V11.9243C15.0612 12.6651 14.6106 13.3317 13.9229 13.6069L11.0225 14.7671C10.4863 14.9814 9.88771 14.9815 9.35156 14.7671L6.27637 13.5366C5.97842 13.4175 5.64559 13.4174 5.34766 13.5366L3.42285 14.3071C2.23259 14.7828 0.937711 13.9054 0.9375 12.6235V4.07666C0.9375 3.33564 1.38919 2.66935 2.07715 2.39404L4.97656 1.23389ZM6.3125 12.5054C6.42591 12.5313 6.53816 12.5642 6.64746 12.6079L9.6875 13.8237V3.49365C9.57391 3.46774 9.46105 3.43588 9.35156 3.39209L6.3125 2.17627V12.5054ZM14.0615 3.37646C14.0615 2.80171 13.4809 2.4091 12.9473 2.62256L11.0225 3.39209C10.9132 3.43575 10.8008 3.46778 10.6875 3.49365V13.8237L13.5508 12.6782C13.859 12.5549 14.0612 12.2562 14.0615 11.9243V3.37646ZM2.44824 3.32178C2.13994 3.44522 1.9375 3.74454 1.9375 4.07666V12.6235C1.93771 13.198 2.51827 13.5916 3.05176 13.3784L4.97656 12.6079C5.08607 12.5641 5.19887 12.5313 5.3125 12.5054V2.17627L2.44824 3.32178Z" fill="currentColor"/>
</svg>
