<svg width="16" height="16" viewBox="0 0 16 16" fill="none" xmlns="http://www.w3.org/2000/svg">
<path fill-rule="evenodd" clip-rule="evenodd" d="M3.64551 3C3.36937 3 3.14551 3.22386 3.14551 3.5V12.5C3.14551 12.7761 3.36936 13 3.64551 13C3.92165 13 4.14551 12.7761 4.14551 12.5V3.5C4.14551 3.22386 3.92165 3 3.64551 3ZM14.0498 7.99975C14.0498 8.27589 13.8259 8.49975 13.5498 8.49976L7.75687 8.49983L10.2325 10.9755C10.4278 11.1707 10.4278 11.4873 10.2325 11.6826C10.0372 11.8778 9.72065 11.8778 9.52538 11.6826L6.19625 8.35343C6.14678 8.30396 6.10985 8.24671 6.08544 8.18561C6.0628 8.12907 6.05019 8.06742 6.04981 8.00287C6.04981 8.00187 6.0498 8.00086 6.0498 7.99986C6.04981 7.92991 6.06417 7.86331 6.09011 7.80286C6.11059 7.75503 6.13888 7.70974 6.17498 7.66894C6.18259 7.66032 6.1905 7.65196 6.19869 7.64388L9.52547 4.3171C9.72073 4.12184 10.0373 4.12184 10.2326 4.3171C10.4278 4.51236 10.4278 4.82895 10.2326 5.02421L7.75695 7.49983L13.5498 7.49976C13.826 7.49975 14.0498 7.72361 14.0498 7.99975Z" fill="currentColor"/>
</svg>
