<svg width="16" height="16" viewBox="0 0 16 16" fill="none" xmlns="http://www.w3.org/2000/svg">
<path fill-rule="evenodd" clip-rule="evenodd" d="M12.3535 3C12.6297 3 12.8535 3.22386 12.8535 3.5V12.5C12.8535 12.7761 12.6297 13 12.3535 13C12.0774 13 11.8535 12.7761 11.8535 12.5V3.5C11.8535 3.22386 12.0774 3 12.3535 3ZM1.94922 7.99975C1.94922 8.27589 2.17308 8.49975 2.44923 8.49976L8.24215 8.49983L5.76653 10.9755C5.57127 11.1707 5.57127 11.4873 5.76653 11.6826C5.9618 11.8778 6.27838 11.8778 6.47364 11.6826L9.80277 8.35343C9.85224 8.30396 9.88917 8.24671 9.91358 8.18561C9.93622 8.12907 9.94883 8.06742 9.94921 8.00287C9.94922 8.00187 9.94922 8.00086 9.94922 7.99986C9.94922 7.92991 9.93485 7.86331 9.90891 7.80286C9.88843 7.75503 9.86014 7.70974 9.82405 7.66894C9.81643 7.66032 9.80852 7.65196 9.80033 7.64388L6.47355 4.3171C6.27829 4.12184 5.96171 4.12184 5.76644 4.3171C5.57118 4.51236 5.57118 4.82895 5.76644 5.02421L8.24207 7.49983L2.44921 7.49976C2.17307 7.49975 1.94922 7.72361 1.94922 7.99975Z" fill="currentColor"/>
</svg>
