<svg width="16" height="16" viewBox="0 0 16 16" fill="none" xmlns="http://www.w3.org/2000/svg">
<path fill-rule="evenodd" clip-rule="evenodd" d="M4.52273 2.01758C4.4245 2.01758 4.25 2.12626 4.25 2.38424V13.6509C4.25 13.9089 4.4245 14.0176 4.52273 14.0176H11.4773C11.5755 14.0176 11.75 13.9089 11.75 13.6509V2.38424C11.75 2.12626 11.5755 2.01758 11.4773 2.01758H10.25V2.48315C10.25 3.03544 9.80228 3.48315 9.25 3.48315H6.75C6.19772 3.48315 5.75 3.03544 5.75 2.48315V2.01758H4.52273ZM6.75 2.01758V2.48315L9.25 2.48315V2.01758H6.75ZM3.25 2.38424C3.25 1.68494 3.76743 1.01758 4.52273 1.01758H11.4773C12.2326 1.01758 12.75 1.68494 12.75 2.38424V13.6509C12.75 14.3502 12.2326 15.0176 11.4773 15.0176H4.52273C3.76743 15.0176 3.25 14.3502 3.25 13.6509V2.38424ZM8 13.27C8.34518 13.27 8.625 12.9902 8.625 12.645C8.625 12.2998 8.34518 12.02 8 12.02C7.65482 12.02 7.375 12.2998 7.375 12.645C7.375 12.9902 7.65482 13.27 8 13.27Z" fill="currentColor"/>
</svg>
