<svg width="16" height="16" viewBox="0 0 16 16" fill="none" xmlns="http://www.w3.org/2000/svg">
<path d="M14.4814 1.51367C14.7774 1.57448 15 1.83646 15 2.15039V12.5C15 13.6046 14.1046 14.5 13 14.5H3C1.89543 14.5 1 13.6046 1 12.5V3.53418C1.00024 3.17539 1.29155 2.88477 1.65039 2.88477H7.83398L9.49219 1.64844L9.59375 1.58496C9.70021 1.52952 9.81923 1.5 9.94043 1.5H14.3496L14.4814 1.51367ZM8.43164 3.68652C8.259 3.81516 8.04929 3.88477 7.83398 3.88477H2V12.5C2 13.0523 2.44772 13.5 3 13.5H13C13.5523 13.5 14 13.0523 14 12.5V2.5H10.0234L8.43164 3.68652ZM8.22656 5.34766C8.42178 5.15263 8.73838 5.15263 8.93359 5.34766L11.9336 8.34766C12.1288 8.54286 12.1287 8.85941 11.9336 9.05469L8.93359 12.0547C8.73833 12.2499 8.42182 12.2499 8.22656 12.0547C8.03148 11.8594 8.03136 11.5429 8.22656 11.3477L10.373 9.20117H4.41992C4.14378 9.20117 3.91992 8.97731 3.91992 8.70117C3.92011 8.42519 4.1439 8.20117 4.41992 8.20117H10.373L8.22656 6.05469C8.03148 5.85941 8.03136 5.54286 8.22656 5.34766Z" fill="currentColor"/>
</svg>
