<svg width="16" height="16" viewBox="0 0 16 16" fill="none" xmlns="http://www.w3.org/2000/svg">
<path d="M2.75 9.125C3.23325 9.125 3.625 9.51675 3.625 10C3.625 10.4832 3.23325 10.875 2.75 10.875C2.26675 10.875 1.875 10.4832 1.875 10C1.875 9.51675 2.26675 9.125 2.75 9.125ZM13.75 9.5C14.0261 9.5 14.25 9.72386 14.25 10C14.25 10.2761 14.0261 10.5 13.75 10.5H5.75C5.47386 10.5 5.25 10.2761 5.25 10C5.25 9.72386 5.47386 9.5 5.75 9.5H13.75ZM2.75 4.125C3.23325 4.125 3.625 4.51675 3.625 5C3.625 5.48325 3.23325 5.875 2.75 5.875C2.26675 5.875 1.875 5.48325 1.875 5C1.875 4.51675 2.26675 4.125 2.75 4.125ZM13.75 4.5C14.0261 4.5 14.25 4.72386 14.25 5C14.25 5.27614 14.0261 5.5 13.75 5.5H5.75C5.47386 5.5 5.25 5.27614 5.25 5C5.25 4.72386 5.47386 4.5 5.75 4.5H13.75Z" fill="currentColor"/>
</svg>
