<svg width="16" height="16" viewBox="0 0 16 16" fill="none" xmlns="http://www.w3.org/2000/svg">
<path fill-rule="evenodd" clip-rule="evenodd" d="M6.86242 7.88769C7.85171 7.93443 8.98465 8.25627 9.96496 8.82031C10.9436 9.38343 11.8158 10.2153 12.2081 11.3076C12.4538 11.9918 12.195 12.7282 11.6144 13.1328C10.8196 13.6866 9.31141 14.3994 6.84094 14.3994C4.31839 14.3993 2.85207 13.656 2.10657 13.0908C1.58913 12.6984 1.36116 12.0208 1.58703 11.3887C1.94759 10.3805 2.79313 9.48922 3.74914 8.86621C4.70474 8.24351 5.84627 7.83981 6.86242 7.88769ZM6.81848 8.82226C6.05751 8.78638 5.10843 9.09743 4.25989 9.65039C3.41181 10.2031 2.73882 10.9487 2.46887 11.7031C2.3877 11.9301 2.46246 12.1858 2.672 12.3447C3.24984 12.7828 4.51622 13.4628 6.84094 13.4629C9.11868 13.4629 10.4403 12.8094 11.0792 12.3643C11.3285 12.1903 11.4235 11.8921 11.3273 11.624C11.0336 10.8063 10.3552 10.125 9.49817 9.63183C8.64286 9.1397 7.65452 8.86176 6.81848 8.82226ZM10.1349 6.76855C10.8753 6.97632 11.6914 7.45981 12.3829 8.07617C13.0743 8.69244 13.6886 9.48332 13.9747 10.3418C14.0621 10.6038 13.9203 10.8873 13.6583 10.9746C13.3964 11.0618 13.1128 10.9201 13.0255 10.6582C12.8117 10.0168 12.3256 9.36477 11.7169 8.82226C11.1086 8.28011 10.4243 7.88834 9.86535 7.73144C9.59967 7.65681 9.4443 7.38096 9.51867 7.11523C9.59324 6.84951 9.86915 6.69425 10.1349 6.76855ZM7.12121 1.90039C8.54265 1.90071 9.69543 3.0531 9.69543 4.47461C9.69504 5.89578 8.5424 7.0485 7.12121 7.04883C5.69975 7.04883 4.54739 5.89598 4.547 4.47461C4.547 3.0529 5.69951 1.90039 7.12121 1.90039ZM7.12121 2.83593C6.21649 2.83593 5.48254 3.56988 5.48254 4.47461C5.48294 5.37899 6.21673 6.1123 7.12121 6.1123C8.02542 6.11198 8.75852 5.37879 8.75891 4.47461C8.75891 3.57008 8.02566 2.83626 7.12121 2.83593ZM9.18469 0.644528C10.5414 1.06013 11.5293 2.32332 11.5294 3.81738C11.5292 4.0932 11.3052 4.31714 11.0294 4.31738C10.7534 4.31738 10.5296 4.09335 10.5294 3.81738C10.5293 2.77508 9.84007 1.8921 8.89172 1.60156C8.62773 1.52068 8.47887 1.24056 8.55969 0.97656C8.64067 0.71273 8.92078 0.563749 9.18469 0.644528Z" fill="currentColor"/>
</svg>
