<svg width="16" height="16" viewBox="0 0 16 16" fill="none" xmlns="http://www.w3.org/2000/svg">
<path d="M12.8999 6.10059C13.176 6.10059 13.3999 6.32444 13.3999 6.60059V8.00098C13.3995 10.8141 11.2478 13.1225 8.50049 13.375V14.5H10.8003C11.0761 14.5003 11.3001 14.7242 11.3003 15C11.3002 15.2759 11.0761 15.4997 10.8003 15.5H5.20068C4.92462 15.5 4.70082 15.276 4.70068 15C4.70089 14.724 4.92467 14.5 5.20068 14.5H7.50049V13.375C4.75288 13.1227 2.60055 10.8143 2.6001 8.00098V6.60059C2.6001 6.32444 2.82396 6.10059 3.1001 6.10059C3.37624 6.10059 3.6001 6.32444 3.6001 6.60059V8.00098C3.60057 10.4306 5.57073 12.4004 8.00049 12.4004C10.4301 12.4002 12.3994 10.4305 12.3999 8.00098V6.60059C12.3999 6.32451 12.6238 6.10069 12.8999 6.10059ZM7.99951 0.5C9.43532 0.5 10.5999 1.66385 10.6001 3.09961V8C10.6001 9.43594 9.43545 10.5996 7.99951 10.5996C6.56375 10.5994 5.3999 9.43581 5.3999 8V3.09961C5.40011 1.66398 6.56388 0.500211 7.99951 0.5ZM7.99951 1.5C7.11617 1.50021 6.40011 2.21626 6.3999 3.09961V8C6.3999 8.88352 7.11604 9.5994 7.99951 9.59961C8.88317 9.59961 9.6001 8.88366 9.6001 8V3.09961C9.59989 2.21613 8.88304 1.5 7.99951 1.5Z" fill="currentColor"/>
</svg>
