<svg width="16" height="16" viewBox="0 0 16 16" fill="none" xmlns="http://www.w3.org/2000/svg">
<path fill-rule="evenodd" clip-rule="evenodd" d="M10.2691 2C10.2691 1.81394 10.1658 1.64327 10.0009 1.557C9.83607 1.47073 9.63695 1.48312 9.48408 1.58918L4.89497 4.77273H2.6926C2.25923 4.77273 1.83652 4.9316 1.51911 5.22519C1.20039 5.51999 1.01318 5.92856 1.01318 6.36364V9.63636C1.01318 10.0714 1.20039 10.48 1.51911 10.7748C1.83652 11.0684 2.25923 11.2273 2.6926 11.2273H4.06586L1.64645 13.6467C1.45118 13.842 1.45118 14.1585 1.64645 14.3538C1.83822 14.5456 2.14702 14.549 2.34297 14.3641C2.35165 14.3539 2.36081 14.344 2.37044 14.3343L14.3704 2.33433C14.3739 2.33084 14.3775 2.32741 14.381 2.32405C14.5483 2.1276 14.5392 1.83232 14.3536 1.64669C14.1583 1.45143 13.8417 1.45143 13.6464 1.64669L10.2691 5.02406V2ZM13.6293 4.48964L12.9213 5.19773C13.2039 5.51566 13.4375 5.87527 13.6133 6.2648C13.8595 6.81018 13.9869 7.40172 13.9869 8.0001C13.9869 8.59848 13.8595 9.19001 13.6133 9.7354C13.3671 10.2808 13.0077 10.7675 12.5589 11.1633C12.3518 11.346 12.332 11.662 12.5146 11.8691C12.6973 12.0762 13.0133 12.096 13.2204 11.9133C13.7756 11.4237 14.2202 10.8215 14.5248 10.1468C14.8294 9.47214 14.9869 8.74036 14.9869 8.0001C14.9869 7.25984 14.8294 6.52806 14.5248 5.85336C14.2992 5.35357 13.9967 4.89357 13.6293 4.48964ZM10.2691 7.84991L9.26908 8.84991V13.0446L6.79245 11.3265L6.07388 12.0451L9.48408 14.4108C9.63695 14.5169 9.83607 14.5293 10.0009 14.443C10.1658 14.3567 10.2691 14.1861 10.2691 14V7.84991ZM5.06566 10.2275L9.26908 6.02406V2.95539L5.33642 5.68355C5.25272 5.74162 5.15329 5.77273 5.05142 5.77273H2.6926C2.50036 5.77273 2.3231 5.84372 2.19814 5.95931C2.07449 6.07367 2.01318 6.22006 2.01318 6.36364V9.63636C2.01318 9.77994 2.07449 9.92633 2.19814 10.0407C2.3231 10.1563 2.50037 10.2273 2.6926 10.2273H5.05142L5.06566 10.2275Z" fill="currentColor"/>
</svg>
