<svg width="16" height="16" viewBox="0 0 16 16" fill="none" xmlns="http://www.w3.org/2000/svg">
<path fill-rule="evenodd" clip-rule="evenodd" d="M4.23114 0.640137C4.50729 0.640137 4.73114 0.863994 4.73114 1.14014V2.21691V2.2171L5.00098 2.21702H10.999L11.2689 2.2171L11.2689 2.21691V1.14014C11.2689 0.863994 11.4927 0.640137 11.7689 0.640137C12.045 0.640137 12.2689 0.863994 12.2689 1.14014V2.21691L12.2687 2.22991C12.8839 2.25266 13.2926 2.31557 13.634 2.48951C14.1044 2.72919 14.4869 3.11164 14.7265 3.58205C14.999 4.11683 14.999 4.81689 14.999 6.21702V11.1383C14.999 12.5384 14.999 13.2385 14.7265 13.7733C14.4869 14.2437 14.1044 14.6261 13.634 14.8658C13.0992 15.1383 12.3992 15.1383 10.999 15.1383H5.00098C3.60085 15.1383 2.90078 15.1383 2.366 14.8658C1.8956 14.6261 1.51314 14.2437 1.27346 13.7733C1.00098 13.2385 1.00098 12.5384 1.00098 11.1383V6.21703C1.00098 4.81689 1.00098 4.11683 1.27346 3.58205C1.51314 3.11164 1.8956 2.72919 2.366 2.48951C2.70738 2.31557 3.11611 2.25266 3.73131 2.22991L3.73114 2.21691V1.14014C3.73114 0.863994 3.955 0.640137 4.23114 0.640137ZM5.00098 3.21702H10.999C11.7156 3.21702 12.1929 3.2178 12.5596 3.24776C12.9146 3.27677 13.0771 3.32807 13.18 3.38051C13.4623 3.52432 13.6917 3.7538 13.8355 4.03604C13.888 4.13896 13.9393 4.30142 13.9683 4.65646C13.9956 4.99029 13.9986 5.41574 13.999 6.02991C13.974 6.02607 13.9484 6.02408 13.9224 6.02408H2.07786C2.05173 6.02408 2.02607 6.02608 2.00102 6.02995C2.00135 5.41575 2.00444 4.99029 2.03172 4.65646C2.06072 4.30142 2.11203 4.13896 2.16447 4.03604C2.30828 3.7538 2.53775 3.52432 2.81999 3.38051C2.92291 3.32807 3.08537 3.27677 3.44041 3.24776C3.80713 3.2178 4.28441 3.21702 5.00098 3.21702ZM2.00098 7.0182V11.1383C2.00098 11.8549 2.00175 12.3321 2.03172 12.6989C2.06072 13.0539 2.11203 13.2164 2.16447 13.3193C2.30828 13.6015 2.53775 13.831 2.81999 13.9748C2.92291 14.0272 3.08537 14.0786 3.44041 14.1076C3.80713 14.1375 4.28441 14.1383 5.00098 14.1383H10.999C11.7156 14.1383 12.1929 14.1375 12.5596 14.1076C12.9146 14.0786 13.0771 14.0272 13.18 13.9748C13.4623 13.831 13.6917 13.6015 13.8355 13.3193C13.888 13.2164 13.9393 13.0539 13.9683 12.6989C13.9982 12.3321 13.999 11.8549 13.999 11.1383V7.01824C13.974 7.02208 13.9484 7.02408 13.9224 7.02408H2.07786C2.05172 7.02408 2.02604 7.02207 2.00098 7.0182ZM8.18464 8.05483C8.3799 7.85957 8.69649 7.85957 8.89175 8.05483L11.0453 10.2084C11.2406 10.4036 11.2406 10.7202 11.0453 10.9155L8.89175 13.069C8.69649 13.2643 8.3799 13.2643 8.18464 13.069C7.98938 12.8738 7.98938 12.5572 8.18464 12.3619L9.48465 11.0619H5.30803C5.03189 11.0619 4.80803 10.8381 4.80803 10.5619C4.80803 10.2858 5.03189 10.0619 5.30803 10.0619H9.48462L8.18464 8.76194C7.98938 8.56667 7.98938 8.25009 8.18464 8.05483Z" fill="currentColor"/>
</svg>
