<svg width="16" height="16" viewBox="0 0 16 16" fill="none" xmlns="http://www.w3.org/2000/svg">
<path d="M14.1006 12.7598C14.3286 12.8063 14.5 13.0083 14.5 13.25C14.5 13.4917 14.3286 13.6937 14.1006 13.7402L14 13.75H2C1.72386 13.75 1.5 13.5261 1.5 13.25C1.5 12.9739 1.72386 12.75 2 12.75H14L14.1006 12.7598ZM14.1006 9.25977C14.3286 9.30629 14.5 9.50829 14.5 9.75C14.5 9.99171 14.3286 10.1937 14.1006 10.2402L14 10.25H2C1.72386 10.25 1.5 10.0261 1.5 9.75C1.5 9.47386 1.72386 9.25 2 9.25H14L14.1006 9.25977ZM14.1006 5.75977C14.3286 5.80629 14.5 6.00829 14.5 6.25C14.5 6.49171 14.3286 6.69371 14.1006 6.74023L14 6.75H2C1.72386 6.75 1.5 6.52614 1.5 6.25C1.5 5.97386 1.72386 5.75 2 5.75H14L14.1006 5.75977ZM14.1006 2.25977C14.3286 2.30629 14.5 2.50829 14.5 2.75C14.5 2.99171 14.3286 3.19371 14.1006 3.24023L14 3.25H2C1.72386 3.25 1.5 3.02614 1.5 2.75C1.5 2.47386 1.72386 2.25 2 2.25H14L14.1006 2.25977Z" fill="currentColor"/>
</svg>
