<svg width="16" height="16" viewBox="0 0 16 16" fill="none" xmlns="http://www.w3.org/2000/svg">
<path d="M8.63574 1C9.32489 1 9.98364 1.28441 10.4561 1.78613L13.3203 4.83008C13.7567 5.29377 14 5.90624 14 6.54297V12.5C14 13.8807 12.8807 15 11.5 15H4.5C3.11929 15 2 13.8807 2 12.5V3.5C2 2.11929 3.11929 1 4.5 1H8.63574ZM4.5 2C3.67157 2 3 2.67157 3 3.5V12.5C3 13.3284 3.67157 14 4.5 14H11.5C12.3284 14 13 13.3284 13 12.5V6.54297C13 6.44397 12.9907 6.34581 12.9717 6.25H10.5C9.67157 6.25 9 5.57843 9 4.75V2.0459C8.88179 2.01634 8.7597 2 8.63574 2H4.5ZM9.5 10.5C9.77614 10.5 10 10.7239 10 11C10 11.2761 9.77614 11.5 9.5 11.5H5C4.72386 11.5 4.5 11.2761 4.5 11C4.5 10.7239 4.72386 10.5 5 10.5H9.5ZM10.5 8C10.7761 8 11 8.22386 11 8.5C11 8.77614 10.7761 9 10.5 9H5C4.72386 9 4.5 8.77614 4.5 8.5C4.5 8.22386 4.72386 8 5 8H10.5ZM10 4.75C10 5.02614 10.2239 5.25 10.5 5.25H12.3438L10 2.75977V4.75Z" fill="currentColor"/>
</svg>
