<svg width="16" height="16" viewBox="0 0 16 16" fill="none" xmlns="http://www.w3.org/2000/svg">
<path fill-rule="evenodd" clip-rule="evenodd" d="M4.71004 2.67248C5.58269 1.79982 6.76626 1.30957 8.00038 1.30957C9.2345 1.30957 10.4181 1.79982 11.2907 2.67248C12.1634 3.54513 12.6536 4.7287 12.6536 5.96282C12.6536 8.01311 13.1695 9.38537 13.7205 10.271L13.7267 10.2808C13.9758 10.6811 14.1699 10.9931 14.3 11.219C14.3652 11.3321 14.4217 11.4361 14.4623 11.5256C14.4826 11.5703 14.5037 11.6216 14.5197 11.6753C14.5333 11.721 14.5563 11.8098 14.5477 11.9156C14.5407 12.0015 14.5242 12.1305 14.4513 12.2615C14.3785 12.3926 14.2777 12.4748 14.2085 12.5261C14.075 12.6252 13.9167 12.6491 13.8532 12.6586C13.7615 12.6721 13.6539 12.6793 13.5392 12.6838C13.3109 12.6927 12.9927 12.6927 12.5894 12.6927H12.5767H10.3217C10.3013 13.0512 10.2397 13.4822 10.0547 13.8723C9.90545 14.187 9.67283 14.4847 9.31829 14.6995C8.96608 14.9129 8.52812 15.0236 8.00038 15.0236C7.47467 15.0236 7.03782 14.916 6.68587 14.7066C6.33091 14.4953 6.09707 14.2012 5.94685 13.8873C5.75907 13.495 5.69806 13.0585 5.6783 12.6927H3.42409H3.41134C3.00807 12.6927 2.68985 12.6927 2.46157 12.6838C2.34686 12.6793 2.23927 12.6721 2.14761 12.6586C2.08405 12.6491 1.92578 12.6252 1.79227 12.5261C1.72303 12.4748 1.62225 12.3926 1.54943 12.2615C1.47661 12.1305 1.46009 12.0015 1.45306 11.9156C1.44442 11.8098 1.46744 11.721 1.48105 11.6753C1.49705 11.6216 1.51812 11.5703 1.53841 11.5256C1.57906 11.4361 1.63552 11.3321 1.70071 11.219C1.83089 10.9931 2.02505 10.6811 2.27419 10.2807L2.28023 10.271C2.8313 9.38537 3.34713 8.01311 3.34713 5.96282C3.34713 4.7287 3.83738 3.54513 4.71004 2.67248ZM6.68071 12.6927C6.69829 12.9669 6.74179 13.2319 6.84886 13.4556C6.92757 13.62 7.03712 13.7519 7.19726 13.8472C7.36041 13.9443 7.61037 14.0236 8.00038 14.0236C8.38837 14.0236 8.63721 13.943 8.8001 13.8443C8.96065 13.747 9.07144 13.6119 9.15113 13.4438C9.25706 13.2205 9.30102 12.9585 9.31919 12.6927H6.68071ZM9.83184 11.6927H6.16892H3.42409C3.05941 11.6927 2.78591 11.6926 2.5851 11.6873C2.70587 11.4799 2.88529 11.1914 3.12928 10.7993C3.78377 9.74747 4.34713 8.19063 4.34713 5.96282C4.34713 4.99392 4.73203 4.0647 5.41714 3.37958C6.10226 2.69446 7.03148 2.30957 8.00038 2.30957C8.96928 2.30957 9.8985 2.69446 10.5836 3.37958C11.2687 4.0647 11.6536 4.99392 11.6536 5.96282C11.6536 8.19063 12.217 9.74747 12.8715 10.7993C13.1155 11.1914 13.2949 11.4799 13.4157 11.6873C13.2148 11.6926 12.9414 11.6927 12.5767 11.6927H9.83184ZM13.7211 11.667C13.7279 11.665 13.7318 11.6642 13.7321 11.6644C13.7324 11.6645 13.729 11.6655 13.7211 11.667ZM2.26863 11.6644C2.2689 11.6642 2.27285 11.665 2.27966 11.667C2.27176 11.6655 2.26836 11.6645 2.26863 11.6644Z" fill="currentColor"/>
</svg>
