<svg width="16" height="16" viewBox="0 0 16 16" fill="none" xmlns="http://www.w3.org/2000/svg">
<path fill-rule="evenodd" clip-rule="evenodd" d="M8.00035 1.79102C7.51414 1.79102 7.11385 2.1615 7.06732 2.63523L7.03494 2.96486L6.71879 3.06361C6.49341 3.13401 6.27598 3.22252 6.06818 3.32747C4.66717 4.03507 3.70822 5.48657 3.70822 7.16116V10.8081C3.70822 11.1211 3.45443 11.3749 3.14137 11.3749C2.92522 11.3749 2.75 11.5502 2.75 11.7663V11.8333C2.75 11.9011 2.7647 11.9654 2.79109 12.0233L10.8567 3.95768C10.5202 3.65742 10.1361 3.40933 9.71693 3.22618C9.5757 3.16447 9.43052 3.11015 9.28189 3.06371L8.96574 2.96493L8.93339 2.6353C8.88689 2.16154 8.48658 1.79102 8.00035 1.79102ZM1.14645 13.6679L2.06973 12.7446C1.86966 12.495 1.75 12.1781 1.75 11.8333V11.7663C1.75 11.1491 2.15187 10.6258 2.70822 10.4437V7.16116C2.70822 5.09479 3.89266 3.30594 5.61736 2.43486C5.78453 2.35043 5.95681 2.27459 6.13362 2.20793C6.36119 1.39054 7.11052 0.791016 8.00035 0.791016C8.89023 0.791016 9.6396 1.39061 9.86712 2.20808C9.95158 2.23992 10.035 2.27387 10.1173 2.30984C10.6514 2.54323 11.1397 2.86232 11.5646 3.24976L13.1464 1.66793C13.3417 1.47267 13.6583 1.47267 13.8536 1.66793C14.0372 1.85163 14.0481 2.14269 13.8862 2.33911C13.8804 2.34439 13.8747 2.34983 13.8691 2.35543L1.8691 14.3554C1.85754 14.367 1.84665 14.379 1.83646 14.3914C1.64023 14.5701 1.33611 14.5647 1.14645 14.375C0.951184 14.1798 0.951184 13.8632 1.14645 13.6679ZM4.34703 13.2917H5.63535C5.86566 14.3865 6.83702 15.2085 8.00035 15.2085C9.16368 15.2085 10.135 14.3865 10.3653 13.2917H12.7921C13.5976 13.2917 14.2505 12.6388 14.2505 11.8333V11.7665C14.2505 11.1492 13.8486 10.6258 13.2921 10.4437V7.16116C13.2921 6.33945 13.1049 5.56164 12.7708 4.86796L12.0104 5.62839C12.1924 6.10448 12.2921 6.62123 12.2921 7.16116V10.8081C12.2921 11.1211 12.5459 11.3749 12.859 11.3749C13.0752 11.3749 13.2505 11.5502 13.2505 11.7665V11.8333C13.2505 12.0865 13.0453 12.2917 12.7921 12.2917H5.34703L4.34703 13.2917ZM6.67432 13.2917C6.87643 13.8275 7.39389 14.2085 8.00035 14.2085C8.60681 14.2085 9.12427 13.8275 9.32638 13.2917H6.67432Z" fill="currentColor"/>
</svg>
