<svg width="16" height="16" viewBox="0 0 16 16" fill="none" xmlns="http://www.w3.org/2000/svg">
<path d="M8.32031 0.842773C11.1884 1.00631 13.4521 3.35789 13.4521 6.19434V6.66699C13.4522 8.66481 13.5841 9.53399 13.7402 9.98535C13.8122 10.1932 13.8907 10.3144 13.9785 10.4297C14.0594 10.5359 14.2196 10.7195 14.3516 10.9385C14.4469 11.0959 14.499 11.277 14.5 11.4619C14.5009 11.6468 14.4511 11.8279 14.3574 11.9863C14.2638 12.1446 14.1297 12.2748 13.9707 12.3643C13.8119 12.4535 13.6326 12.5005 13.4512 12.501H10.5V12.5342C10.4999 13.2223 10.2441 13.889 9.7793 14.3848C9.31333 14.8817 8.67374 15.167 8 15.167C7.32626 15.167 6.68666 14.8817 6.2207 14.3848C5.75588 13.889 5.50014 13.2223 5.5 12.5342V12.501H2.54883C2.36736 12.5005 2.1881 12.4535 2.0293 12.3643C1.87037 12.2748 1.73622 12.1446 1.64258 11.9863C1.54896 11.8279 1.49909 11.6467 1.5 11.4619C1.50104 11.277 1.55307 11.0959 1.64844 10.9385C1.91119 10.5018 2.09938 10.2865 2.26367 9.84277C2.42175 9.41553 2.54781 8.77337 2.54785 7.61328V6.13379C2.54696 5.43339 2.68967 4.73975 2.9668 4.09375C3.24415 3.44743 3.65085 2.86101 4.16211 2.36914C4.67339 1.87731 5.27994 1.48878 5.94531 1.22559C6.61064 0.962477 7.3231 0.82968 8.04102 0.833984L8.32031 0.842773ZM6.5 12.5342C6.50014 12.977 6.66533 13.3962 6.9502 13.7002C7.23434 14.0032 7.61306 14.167 8 14.167C8.38694 14.167 8.76566 14.0032 9.0498 13.7002C9.33467 13.3962 9.49986 12.977 9.5 12.5342V12.501H6.5V12.5342ZM8.03418 1.83398C7.44368 1.83052 6.85818 1.94042 6.3125 2.15625C5.76693 2.37213 5.27163 2.68952 4.85547 3.08984C4.43926 3.49027 4.10976 3.96625 3.88574 4.48828C3.66198 5.01 3.5471 5.5691 3.54785 6.13281V7.61328C3.54781 8.83976 3.41536 9.61175 3.20117 10.1904C2.99335 10.7516 2.69589 11.1358 2.50391 11.4551L2.50293 11.457C2.50073 11.4609 2.50008 11.4644 2.5 11.4668C2.50003 11.4693 2.50055 11.4735 2.50293 11.4775C2.50559 11.4819 2.51109 11.4874 2.51953 11.4922C2.52822 11.4971 2.53951 11.5009 2.55176 11.501H13.4482C13.4605 11.5009 13.4718 11.497 13.4805 11.4922C13.4889 11.4874 13.4944 11.4819 13.4971 11.4775C13.4993 11.4738 13.4999 11.4702 13.5 11.4678C13.5 11.4654 13.4994 11.4612 13.4971 11.457L13.4961 11.4551C13.4008 11.2966 13.3263 11.2248 13.1826 11.0361C13.0457 10.8563 12.9089 10.6418 12.7949 10.3125C12.5789 9.68797 12.4522 8.66867 12.4521 6.66699V6.19434C12.4521 3.82865 10.4963 1.85166 8.03418 1.83398Z" fill="currentColor"/>
</svg>
