<svg width="16" height="16" viewBox="0 0 16 16" fill="none" xmlns="http://www.w3.org/2000/svg">
<g clip-path="url(#clip0_4018_43644)">
<path fill-rule="evenodd" clip-rule="evenodd" d="M8.00036 1.79102C7.51415 1.79102 7.11386 2.1615 7.06733 2.63523L7.03495 2.96486L6.7188 3.06361C6.49343 3.13401 6.276 3.22252 6.0682 3.32747C4.66719 4.03507 3.70824 5.48657 3.70824 7.16116V10.8081C3.70824 11.1211 3.45445 11.3749 3.14138 11.3749C2.92524 11.3749 2.75002 11.5502 2.75002 11.7663V11.8333C2.75002 12.0865 2.95524 12.2917 3.20841 12.2917H12.7922C13.0453 12.2917 13.2505 12.0865 13.2505 11.8333V11.7665C13.2505 11.5502 13.0753 11.3749 12.859 11.3749C12.5459 11.3749 12.2922 11.1211 12.2922 10.8081V7.16116C12.2922 5.40202 11.2337 3.88897 9.71694 3.22618C9.57571 3.16447 9.43054 3.11015 9.2819 3.06371L8.96576 2.96493L8.9334 2.6353C8.8869 2.16154 8.4866 1.79102 8.00036 1.79102ZM6.13364 2.20793C6.36121 1.39054 7.11053 0.791016 8.00036 0.791016C8.89025 0.791016 9.63961 1.39061 9.86713 2.20808C9.95159 2.23992 10.035 2.27387 10.1173 2.30984C11.9852 3.12604 13.2922 4.99042 13.2922 7.16116V10.4437C13.8486 10.6258 14.2505 11.1492 14.2505 11.7665V11.8333C14.2505 12.6388 13.5976 13.2917 12.7922 13.2917H10.3654C10.135 14.3865 9.1637 15.2085 8.00036 15.2085C6.83703 15.2085 5.86568 14.3865 5.63537 13.2917H3.20841C2.40296 13.2917 1.75002 12.6388 1.75002 11.8333V11.7663C1.75002 11.1491 2.15189 10.6258 2.70824 10.4437V7.16116C2.70824 5.09479 3.89268 3.30594 5.61737 2.43486C5.78454 2.35043 5.95682 2.27459 6.13364 2.20793ZM6.67433 13.2917C6.87644 13.8275 7.3939 14.2085 8.00036 14.2085C8.60682 14.2085 9.12429 13.8275 9.3264 13.2917H6.67433ZM3.91331 1.85829C3.73581 1.64676 3.42043 1.61916 3.20889 1.79667C2.07649 2.74687 1.27396 4.03118 0.916337 5.46552C0.849532 5.73346 1.01258 6.00483 1.28052 6.07163C1.54846 6.13844 1.81983 5.97539 1.88663 5.70745C2.19317 4.47801 2.88105 3.37717 3.85168 2.56271C4.06322 2.38521 4.09081 2.06983 3.91331 1.85829ZM12.7916 1.79667C12.5801 1.61916 12.2647 1.64676 12.0872 1.85829C11.9097 2.06983 11.9373 2.38521 12.1488 2.56271C13.1195 3.37717 13.8074 4.47801 14.1139 5.70745C14.1807 5.97539 14.4521 6.13844 14.72 6.07163C14.9879 6.00483 15.151 5.73346 15.0842 5.46552C14.7266 4.03118 13.924 2.74687 12.7916 1.79667Z" fill="currentColor"/>
</g>
<defs>
<clipPath id="clip0_4018_43644">
<rect width="16" height="16" fill="white"/>
</clipPath>
</defs>
</svg>
