<svg width="16" height="16" viewBox="0 0 16 16" fill="none" xmlns="http://www.w3.org/2000/svg">
<path d="M14 11.8721C14.2761 11.8721 14.5 12.0959 14.5 12.3721C14.5 12.6482 14.2761 12.8721 14 12.8721H5.91699C5.64085 12.8721 5.41699 12.6482 5.41699 12.3721C5.41699 12.0959 5.64085 11.8721 5.91699 11.8721H14ZM2.49414 8.41113C2.92181 8.41119 3.26498 8.51601 3.52441 8.72461C3.78557 8.93318 3.91689 9.20435 3.91699 9.53906C3.91699 9.63374 3.90188 9.72974 3.87207 9.82617C3.84226 9.92086 3.80693 10.0055 3.7666 10.0791C3.72629 10.1509 3.67059 10.2297 3.60059 10.3154C3.53236 10.3994 3.47382 10.4668 3.4248 10.5176C3.37571 10.5667 3.31133 10.6297 3.23242 10.7051L2.3252 11.541V11.5596H3.96387V12.3008H1.07129V11.6572L2.55176 10.2939C2.71119 10.1415 2.82265 10.0124 2.88574 9.90723C2.95042 9.80046 2.98335 9.68854 2.9834 9.57129C2.9834 9.44855 2.93433 9.34608 2.83789 9.26367C2.74146 9.17954 2.61618 9.13672 2.46191 9.13672C2.29899 9.13678 2.16451 9.18841 2.05762 9.29004C1.95241 9.38999 1.89941 9.51777 1.89941 9.67383V9.69238H1.01562V9.67383C1.01562 9.29867 1.15117 8.99393 1.42285 8.76074C1.69463 8.52753 2.05227 8.41113 2.49414 8.41113ZM14 7.39551C14.2761 7.39551 14.5 7.61937 14.5 7.89551C14.5 8.17165 14.2761 8.39551 14 8.39551H5.91699C5.64085 8.39551 5.41699 8.17165 5.41699 7.89551C5.41699 7.61937 5.64085 7.39551 5.91699 7.39551H14ZM3.10254 5.80176H2.13672V2.83398H2.11816L1.16211 3.47949V2.64355L2.13379 1.98145H3.10254V5.80176ZM14 2.91895C14.2761 2.91895 14.5 3.1428 14.5 3.41895C14.5 3.69509 14.2761 3.91895 14 3.91895H5.91699C5.64085 3.91895 5.41699 3.69509 5.41699 3.41895C5.41699 3.1428 5.64085 2.91895 5.91699 2.91895H14Z" fill="currentColor"/>
</svg>
