<svg width="16" height="16" viewBox="0 0 16 16" fill="none" xmlns="http://www.w3.org/2000/svg">
<g clip-path="url(#clip0_12071_47043)">
<path fill-rule="evenodd" clip-rule="evenodd" d="M8 14.25C11.4518 14.25 14.25 11.4518 14.25 8C14.25 4.54822 11.4518 1.75 8 1.75C4.54822 1.75 1.75 4.54822 1.75 8C1.75 11.4518 4.54822 14.25 8 14.25ZM8 15.25C12.0041 15.25 15.25 12.0041 15.25 8C15.25 3.99594 12.0041 0.75 8 0.75C3.99594 0.75 0.75 3.99594 0.75 8C0.75 12.0041 3.99594 15.25 8 15.25Z" fill="currentColor"/>
<path d="M9.14258 4.45215V11H8.14941V5.36182H8.10547L6.5498 6.49561V5.48926L7.98242 4.45215H9.14258Z" fill="currentColor"/>
</g>
<defs>
<clipPath id="clip0_12071_47043">
<rect width="16" height="16" fill="white"/>
</clipPath>
</defs>
</svg>
