<svg width="16" height="16" viewBox="0 0 16 16" fill="none" xmlns="http://www.w3.org/2000/svg">
<path d="M8.14551 2.04232L8.24609 2.06282C8.44414 2.11312 8.62211 2.22281 8.75586 2.37728L8.81934 2.45833L8.89453 2.59017C8.9553 2.72377 8.97596 2.85991 8.98633 2.97298C9.0002 3.12451 9 3.31322 9 3.5179V4.71419L13.2852 6.87728L13.5 6.98958C13.5752 7.03422 13.6507 7.08788 13.7158 7.15462L13.7891 7.23861C13.8341 7.29641 13.873 7.3589 13.9043 7.42513L13.9453 7.52767L13.9795 7.66243C14.0032 7.79701 14 7.93053 14 8.03743V13.5003H14.5C14.7761 13.5003 15 13.7242 15 14.0003C15 14.2765 14.7761 14.5003 14.5 14.5003H1.5C1.22386 14.5003 1 14.2765 1 14.0003C1.00001 13.7242 1.22386 13.5003 1.5 13.5003H2.01172V5.71614C2.01172 5.57304 2.00533 5.38164 2.06641 5.20443L2.1084 5.10189C2.15574 5.00219 2.21933 4.91064 2.29688 4.83138L2.40137 4.74056C2.5115 4.65854 2.63346 4.60214 2.72949 4.55403L7.11816 2.35482C7.30097 2.26323 7.46878 2.17879 7.61035 2.12337C7.75134 2.06818 7.93736 2.01171 8.14551 2.04232ZM7.97461 3.05501C7.88565 3.08987 7.76561 3.14906 7.56543 3.24935L3.17773 5.44759C3.09219 5.49044 3.04745 5.51266 3.0166 5.5306L3.01465 5.53157C3.01456 5.53277 3.01472 5.53414 3.01465 5.53548C3.01243 5.57108 3.01172 5.62049 3.01172 5.71614V13.5003H8V3.5179C8 3.29402 7.99989 3.15993 7.99121 3.06478C7.99073 3.05967 7.98876 3.05459 7.98828 3.05013C7.98416 3.05167 7.97927 3.05319 7.97461 3.05501ZM9 13.5003H13V8.03743C13 7.94233 13.0002 7.89321 12.998 7.85775C12.9979 7.85645 12.9972 7.85499 12.9971 7.85384L12.9951 7.85286L12.835 7.76986L9 5.83528V13.5003ZM5.60156 11.1956C5.82949 11.2422 6.00098 11.4442 6.00098 11.6859C6.00075 11.9274 5.82939 12.1296 5.60156 12.1761L5.50098 12.1859H5.5C5.22402 12.1859 5.00026 11.9618 5 11.6859C5 11.4097 5.22386 11.1859 5.5 11.1859H5.50098L5.60156 11.1956ZM5.60156 8.69564C5.82949 8.74219 6.00098 8.94418 6.00098 9.18587C6.00075 9.42738 5.82939 9.62962 5.60156 9.67611L5.50098 9.68587H5.5C5.22402 9.68587 5.00026 9.46179 5 9.18587C5 8.90973 5.22386 8.68587 5.5 8.68587H5.50098L5.60156 8.69564ZM5.60156 6.19564C5.82949 6.24219 6.00098 6.44418 6.00098 6.68587C6.00075 6.92738 5.82939 7.12962 5.60156 7.17611L5.50098 7.18587H5.5C5.22402 7.18587 5.00026 6.96179 5 6.68587C5 6.40973 5.22386 6.18587 5.5 6.18587H5.50098L5.60156 6.19564Z" fill="currentColor"/>
</svg>
