<svg width="16" height="16" viewBox="0 0 16 16" fill="none" xmlns="http://www.w3.org/2000/svg">
<path d="M11.377 1.67871C13.6393 1.67871 15.4736 3.51302 15.4736 5.77539V10.2236C15.4736 12.486 13.6393 14.3203 11.377 14.3203H5.54688C3.2845 14.3203 1.4502 12.486 1.4502 10.2236V5.84375H2.39844V10.2236C2.39844 11.9621 3.80842 13.3721 5.54688 13.3721H11.377C13.1154 13.3721 14.5244 11.9621 14.5244 10.2236V5.77539C14.5244 4.03694 13.1154 2.62793 11.377 2.62793H0.999023V1.67871H11.377ZM7.60449 5.54395C8.10745 5.59485 8.49996 6.01976 8.5 6.53613V6.94238L8.49512 7.04395C8.44424 7.54734 8.01876 7.94043 7.50195 7.94043L7.40039 7.93457C6.89603 7.88346 6.50239 7.45728 6.50391 6.93945L6.50586 6.5332C6.50771 5.9838 6.95353 5.53906 7.50293 5.53906L7.60449 5.54395ZM11.6045 5.54395C12.1074 5.59485 12.5 6.01976 12.5 6.53613V6.94238L12.4951 7.04395C12.4442 7.54734 12.0188 7.94043 11.502 7.94043L11.4004 7.93457C10.896 7.88346 10.5024 7.45728 10.5039 6.93945L10.5059 6.5332C10.5077 5.9838 10.9535 5.53906 11.5029 5.53906L11.6045 5.54395Z" fill="currentColor"/>
</svg>
