<svg width="16" height="16" viewBox="0 0 16 16" fill="none" xmlns="http://www.w3.org/2000/svg">
<path fill-rule="evenodd" clip-rule="evenodd" d="M1.5 3.09619C1.5 2.82005 1.72386 2.59619 2 2.59619H14C14.2761 2.59619 14.5 2.82005 14.5 3.09619C14.5 3.37233 14.2761 3.59619 14 3.59619H2C1.72386 3.59619 1.5 3.37233 1.5 3.09619ZM1.5 12.9041C1.5 12.628 1.72386 12.4041 2 12.4041H7.67362C7.94976 12.4041 8.17362 12.628 8.17362 12.9041C8.17362 13.1802 7.94976 13.4041 7.67362 13.4041H2C1.72386 13.4041 1.5 13.1802 1.5 12.9041ZM11.0011 12.6538C11.1337 12.6538 11.2608 12.6011 11.3546 12.5073L13.8536 10.0073C14.0488 9.81199 14.0488 9.49541 13.8535 9.30019C13.6582 9.10496 13.3416 9.10502 13.1464 9.30032L11.5005 10.9469V5.65381C11.5005 5.37767 11.2766 5.15381 11.0005 5.15381C10.7243 5.15381 10.5005 5.37767 10.5005 5.65381V10.9465L8.85348 9.30019C8.65818 9.10496 8.3416 9.10502 8.14638 9.30032C7.95115 9.49562 7.95122 9.81221 8.14652 10.0074L10.6475 12.5074C10.7413 12.6012 10.8685 12.6538 11.0011 12.6538Z" fill="currentColor"/>
</svg>
