<svg width="16" height="16" viewBox="0 0 16 16" fill="none" xmlns="http://www.w3.org/2000/svg">
<path d="M1 14C1 13.7239 1.22386 13.5 1.5 13.5L14.5 13.5C14.7761 13.5 15 13.7239 15 14C15 14.2761 14.7761 14.5 14.5 14.5L1.5 14.5C1.22393 14.5 1.00011 14.276 1 14ZM1 2C1 1.72386 1.22386 1.5 1.5 1.5L14.5 1.5C14.7761 1.5 15 1.72386 15 2C15 2.27614 14.7761 2.5 14.5 2.5L1.5 2.5C1.22393 2.5 1.00011 2.27605 1 2ZM3.75 6.25C3.75 4.86929 4.86929 3.75 6.25 3.75L9.75 3.75C11.1307 3.75 12.25 4.86929 12.25 6.25L12.25 9.75C12.25 11.1307 11.1307 12.25 9.75 12.25H6.25C4.86929 12.25 3.75 11.1307 3.75 9.75L3.75 6.25ZM4.75 9.75C4.75 10.5784 5.42157 11.25 6.25 11.25H9.75C10.5784 11.25 11.25 10.5784 11.25 9.75L11.25 6.25C11.25 5.42157 10.5784 4.75 9.75 4.75L6.25 4.75C5.42157 4.75 4.75 5.42157 4.75 6.25L4.75 9.75Z" fill="currentColor"/>
</svg>
