<svg width="16" height="16" viewBox="0 0 16 16" fill="none" xmlns="http://www.w3.org/2000/svg">
<g clip-path="url(#clip0_956_70520)">
<path fill-rule="evenodd" clip-rule="evenodd" d="M1.75 8C1.75 11.4518 4.54822 14.25 8 14.25C11.4518 14.25 14.25 11.4518 14.25 8C14.25 4.54822 11.4518 1.75 8 1.75C4.54822 1.75 1.75 4.54822 1.75 8ZM8 0.75C3.99594 0.75 0.75 3.99594 0.75 8C0.75 12.0041 3.99594 15.25 8 15.25C12.0041 15.25 15.25 12.0041 15.25 8C15.25 3.99594 12.0041 0.75 8 0.75ZM7.51686 3.77637V4.48515C7.13647 4.5693 6.78448 4.75198 6.50203 5.01706C6.20141 5.29919 5.99272 5.6626 5.90779 6.06327C5.82281 6.46424 5.86677 6.87947 6.0325 7.25497C6.19803 7.63001 6.476 7.94538 6.8262 8.16499C7.17614 8.38442 7.58447 8.49986 7.99977 8.49986V7.49986C7.76863 7.49986 7.54503 7.4354 7.35746 7.31778C7.17017 7.20033 7.02921 7.03664 6.94735 6.85118C6.8657 6.66619 6.84493 6.46466 6.88606 6.27061C6.92726 6.07626 7.02986 5.8931 7.18635 5.74624C7.34317 5.59907 7.5467 5.49561 7.7727 5.45342C7.99878 5.41122 8.23281 5.43312 8.44401 5.51521C8.65503 5.59725 8.83035 5.73421 8.95129 5.90406C9.07191 6.07348 9.13402 6.26904 9.13402 6.46615H10.134C10.134 6.05658 10.0044 5.65909 9.76591 5.32407C9.5277 4.98949 9.19255 4.7333 8.80633 4.58316C8.71181 4.54642 8.61506 4.51634 8.51686 4.49299V3.77637H7.51686ZM7.51686 11.5148C7.40708 11.4905 7.29899 11.4578 7.19367 11.4168C6.80745 11.2667 6.4723 11.0105 6.23409 10.6759C5.99556 10.3409 5.86598 9.94343 5.86598 9.53386H6.86598C6.86598 9.73097 6.92809 9.92653 7.04871 10.0959C7.16965 10.2658 7.34497 10.4028 7.55599 10.4848C7.76719 10.5669 8.00122 10.5888 8.2273 10.5466C8.4533 10.5044 8.65683 10.4009 8.81365 10.2538C8.97014 10.1069 9.07274 9.92375 9.11394 9.7294C9.15507 9.53535 9.1343 9.33382 9.05265 9.14883C8.97079 8.96337 8.82983 8.79967 8.64253 8.68223C8.45497 8.56461 8.23137 8.50015 8.00023 8.50015V7.50015C8.41553 7.50015 8.82386 7.61559 9.1738 7.83502C9.524 8.05463 9.80197 8.37 9.9675 8.74504C10.1332 9.12054 10.1772 9.53577 10.0922 9.93674C10.0073 10.3374 9.79859 10.7008 9.49797 10.9829C9.22388 11.2402 8.88432 11.4198 8.51686 11.5071V12.2239H7.51686V11.5148Z" fill="currentColor"/>
</g>
<defs>
<clipPath id="clip0_956_70520">
<rect width="16" height="16" fill="white"/>
</clipPath>
</defs>
</svg>
