<svg width="16" height="16" viewBox="0 0 16 16" fill="none" xmlns="http://www.w3.org/2000/svg">
<path d="M6.86279 8.55322C8.41259 8.68796 9.71638 9.81311 10.0591 11.355L10.1333 11.6899C10.4175 12.9686 9.44418 14.1821 8.13428 14.1821H2.70752C1.39787 14.1818 0.425352 12.9685 0.709473 11.6899L0.783691 11.355C1.14922 9.7102 2.60857 8.53964 4.29346 8.53955H6.54932L6.86279 8.55322ZM4.06689 9.54932C2.94823 9.64663 2.0076 10.4588 1.76025 11.5718L1.68506 11.9077C1.54 12.5616 2.03775 13.1818 2.70752 13.1821H8.13428C8.80435 13.1821 9.30194 12.5618 9.15674 11.9077L9.08252 11.5718C8.83508 10.4586 7.89391 9.6463 6.7749 9.54932L6.54932 9.53955H4.29346L4.06689 9.54932ZM11.7075 6.99268C13.3925 6.99272 14.8518 8.16327 15.2173 9.80811L15.2915 10.1431C15.5753 11.4214 14.6029 12.6349 13.2935 12.6353H11.3062C11.0302 12.6353 10.8064 12.4112 10.8062 12.1353C10.8062 11.8591 11.03 11.6353 11.3062 11.6353H13.2935C13.963 11.6349 14.4606 11.0145 14.3159 10.3608L14.2407 10.0249C13.9769 8.8376 12.9238 7.99272 11.7075 7.99268H9.45166C9.12641 7.99268 8.8132 8.05278 8.52393 8.16357C8.46302 8.18691 8.40298 8.21298 8.34424 8.24072C8.0948 8.35851 7.79638 8.25162 7.67822 8.00244C7.5603 7.75287 7.66705 7.4545 7.9165 7.33643C7.99786 7.29799 8.0811 7.26234 8.16553 7.22998C8.56716 7.0761 9.002 6.99268 9.45166 6.99268H11.7075ZM5.65869 2.86084C6.8291 2.97967 7.74246 3.9687 7.74268 5.17041L7.73096 5.40771C7.61211 6.57826 6.62329 7.4917 5.42139 7.4917L5.18408 7.47998C4.09167 7.36895 3.22273 6.50016 3.11182 5.40771L3.1001 5.17041C3.10033 3.88867 4.13962 2.84924 5.42139 2.84912L5.65869 2.86084ZM5.42139 3.84912C4.69191 3.84924 4.10033 4.44096 4.1001 5.17041C4.1001 5.90006 4.69177 6.49158 5.42139 6.4917C6.15111 6.4917 6.74267 5.90013 6.74268 5.17041C6.74244 4.44089 6.15097 3.84912 5.42139 3.84912ZM11.0493 1.82861C12.0896 1.93447 12.9019 2.81315 12.9019 3.88135L12.8911 4.09229C12.7854 5.13257 11.9065 5.9446 10.8384 5.94482L10.6274 5.93408C9.65631 5.83553 8.88432 5.06338 8.78564 4.09229L8.7749 3.88135C8.7749 2.74178 9.69881 1.81787 10.8384 1.81787L11.0493 1.82861ZM10.8384 2.81787C10.2511 2.81787 9.7749 3.29407 9.7749 3.88135C9.77496 4.46858 10.2511 4.94482 10.8384 4.94482C11.4254 4.94458 11.9018 4.46843 11.9019 3.88135C11.9019 3.29422 11.4255 2.81811 10.8384 2.81787Z" fill="currentColor"/>
</svg>
