<svg width="16" height="16" viewBox="0 0 16 16" fill="none" xmlns="http://www.w3.org/2000/svg">
<path fill-rule="evenodd" clip-rule="evenodd" d="M11.6048 3.5C11.6048 3.91421 11.269 4.25 10.8548 4.25C10.4406 4.25 10.1048 3.91421 10.1048 3.5C10.1048 3.08579 10.4406 2.75 10.8548 2.75C11.269 2.75 11.6048 3.08579 11.6048 3.5ZM11.395 5.16503C12.0971 4.93739 12.6048 4.27798 12.6048 3.5C12.6048 2.5335 11.8213 1.75 10.8548 1.75C9.88831 1.75 9.1048 2.5335 9.1048 3.5C9.1048 4.30738 9.65157 4.98706 10.395 5.18897V10.25C10.395 11.9069 9.05187 13.25 7.39502 13.25C5.73817 13.25 4.39502 11.9069 4.39502 10.25V9.86076L4.97032 10.592C5.14107 10.809 5.45542 10.8465 5.67244 10.6757C5.88946 10.505 5.92697 10.1906 5.75622 9.9736L4.28797 8.10749C4.15621 7.94003 3.93279 7.87447 3.73143 7.94419C3.53007 8.0139 3.39502 8.20358 3.39502 8.41667V10.25C3.39502 12.4591 5.18588 14.25 7.39502 14.25C9.60416 14.25 11.395 12.4591 11.395 10.25V5.16503Z" fill="currentColor"/>
</svg>
