<svg width="16" height="16" viewBox="0 0 16 16" fill="none" xmlns="http://www.w3.org/2000/svg">
<path d="M8 1C11.866 1 15 4.13401 15 8C15 11.866 11.866 15 8 15C4.13401 15 1 11.866 1 8C1 4.13401 4.13401 1 8 1ZM8.20703 8.5L4.12598 12.5801C5.17138 13.4652 6.52292 14 8 14C11.1453 14 13.7234 11.5797 13.9775 8.5H8.20703ZM7.5 2.02246C4.42031 2.27661 2 4.85472 2 8C2 9.47658 2.53434 10.8278 3.41895 11.873L7.5 7.79297V2.02246ZM8.5 7.5H13.9775C13.737 4.58523 11.4148 2.263 8.5 2.02246V7.5Z" fill="currentColor"/>
</svg>
