<svg width="16" height="16" viewBox="0 0 16 16" fill="none" xmlns="http://www.w3.org/2000/svg">
<path fill-rule="evenodd" clip-rule="evenodd" d="M6.18691 1.01517C4.89565 1.01517 3.81685 1.99855 3.69759 3.28428L3.18728 8.78614C3.16322 9.04561 3.07197 9.29433 2.92254 9.5078L1.98036 10.8538C1.51642 11.5166 1.99057 12.4272 2.79959 12.4272H7.53251V14.9999C7.53251 15.276 7.75637 15.4999 8.03251 15.4999C8.30866 15.4999 8.53251 15.276 8.53251 14.9999V12.4272H13.2007C14.0097 12.4272 14.4838 11.5166 14.0199 10.8538L13.0711 9.49841C12.9248 9.2894 12.8343 9.04653 12.808 8.79276L12.2347 3.25761C12.1027 1.98343 11.0289 1.01517 9.74796 1.01517H6.18691ZM4.69332 3.37664C4.76487 2.6052 5.41216 2.01517 6.18691 2.01517H9.74796C10.5166 2.01517 11.1608 2.59613 11.24 3.36063L11.8133 8.89579C11.8571 9.31874 12.0081 9.72353 12.2519 10.0719L13.2007 11.4272H2.79959L3.74177 10.0813C3.99083 9.72547 4.1429 9.31094 4.18301 8.8785L4.69332 3.37664Z" fill="currentColor"/>
</svg>
