<svg width="16" height="16" viewBox="0 0 16 16" fill="none" xmlns="http://www.w3.org/2000/svg">
<g clip-path="url(#clip0_3549_21429)">
<path d="M14.357 4.1148C15.2626 5.02053 15.3377 6.4648 14.5303 7.45906L11.0217 11.7783C10.8611 11.9762 10.7533 12.2117 10.7089 12.4627L10.4209 14.0916C10.2804 14.8882 9.30126 15.1976 8.72914 14.6261L5.42769 11.3247L3.60883 13.1435C3.41357 13.3388 3.09698 13.3388 2.90172 13.1435C2.70665 12.9483 2.70655 12.6316 2.90172 12.4364L4.72059 10.6176L1.37357 7.27054C0.802238 6.6984 1.11158 5.71928 1.90804 5.57873L3.52527 5.29285C3.78181 5.24754 4.02297 5.13678 4.2234 4.97037L8.47433 1.44036C9.4677 0.615971 10.9257 0.683751 11.8386 1.59642L14.357 4.1148ZM11.1315 2.30353C10.5837 1.756 9.70906 1.71561 9.11307 2.21031L4.86215 5.73894C4.528 6.01636 4.12629 6.20277 3.6986 6.27824L2.08068 6.56343L9.43624 13.9176L9.72351 12.2893C9.79739 11.8707 9.97687 11.4779 10.2449 11.1479L13.7535 6.8286C14.238 6.23206 14.1933 5.36538 13.6499 4.82191L11.1315 2.30353Z" fill="currentColor"/>
</g>
<defs>
<clipPath id="clip0_3549_21429">
<rect width="16" height="16" fill="white"/>
</clipPath>
</defs>
</svg>
