<svg width="16" height="16" viewBox="0 0 16 16" fill="none" xmlns="http://www.w3.org/2000/svg">
<path fill-rule="evenodd" clip-rule="evenodd" d="M5.67452 1.4998H3C1.89543 1.4998 1 2.39523 1 3.4998V12.4998C1 13.6044 1.89543 14.4998 3 14.4998H5.67511C5.69954 14.5035 5.72455 14.5054 5.75 14.5054C5.77545 14.5054 5.80046 14.5035 5.82489 14.4998H10.1751C10.1995 14.5035 10.2245 14.5054 10.25 14.5054C10.2754 14.5054 10.3005 14.5035 10.3249 14.4998H13C14.1046 14.4998 15 13.6044 15 12.4998V3.4998C15 2.39523 14.1046 1.4998 13 1.4998H10.3255C10.3009 1.49607 10.2757 1.49414 10.25 1.49414C10.2243 1.49414 10.1991 1.49607 10.1745 1.4998H5.82548C5.80087 1.49607 5.77566 1.49414 5.75 1.49414C5.72434 1.49414 5.69913 1.49607 5.67452 1.4998ZM9.75 2.4998H6.25L6.25 13.4998H9.75L9.75 2.4998ZM10.75 2.4998L10.75 13.4998H13C13.5523 13.4998 14 13.0521 14 12.4998V3.4998C14 2.94752 13.5523 2.4998 13 2.4998H10.75ZM5.25 13.4998L5.25 2.4998H3C2.44772 2.4998 2 2.94752 2 3.4998V12.4998C2 13.0521 2.44772 13.4998 3 13.4998H5.25Z" fill="currentColor"/>
</svg>
