<svg width="16" height="16" viewBox="0 0 16 16" fill="none" xmlns="http://www.w3.org/2000/svg">
<path d="M13.369 10.8155L8.4157 7.27741C8.24185 7.15323 8.00831 7.15323 7.83446 7.27741L2.88114 10.8155C2.60196 11.0149 2.60196 11.4298 2.88114 11.6292L7.83446 15.1673C8.00831 15.2915 8.24185 15.2915 8.4157 15.1673L13.369 11.6292C13.6482 11.4298 13.6482 11.0149 13.369 10.8155Z" fill="#EDEDED" stroke="currentColor"/>
<path d="M13.369 7.96833L8.4157 4.43024C8.24185 4.30606 8.00831 4.30606 7.83446 4.43024L2.88114 7.96833C2.60196 8.16774 2.60196 8.58266 2.88114 8.78207L7.83446 12.3202C8.00831 12.4443 8.24185 12.4443 8.4157 12.3202L13.369 8.78207C13.6482 8.58266 13.6482 8.16774 13.369 7.96833Z" fill="white" stroke="currentColor"/>
<path d="M13.369 5.12068L8.4157 1.58259C8.24185 1.45841 8.00831 1.45841 7.83446 1.58259L2.88114 5.12068C2.60196 5.32009 2.60196 5.735 2.88114 5.93441L7.83446 9.4725C8.00831 9.59668 8.24185 9.59668 8.4157 9.4725L13.369 5.93441C13.6482 5.735 13.6482 5.32009 13.369 5.12068Z" fill="white" stroke="currentColor"/>
</svg>
