<svg width="16" height="16" viewBox="0 0 16 16" fill="none" xmlns="http://www.w3.org/2000/svg">
<path fill-rule="evenodd" clip-rule="evenodd" d="M10.167 14.2005C9.56292 14.395 8.91873 14.5 8.25 14.5C4.79822 14.5 2 11.7018 2 8.25C2 5.85176 3.35077 3.76901 5.33301 2.72104V10.4257L4.25346 9.34615C4.05819 9.15089 3.74161 9.15089 3.54635 9.34615C3.35109 9.54142 3.35109 9.858 3.54635 10.0533L5.46231 11.9692C5.55379 12.0702 5.68599 12.1337 5.83301 12.1337C5.97725 12.1337 6.10722 12.0726 6.19848 11.9749L8.12012 10.0533C8.31538 9.858 8.31538 9.54142 8.12012 9.34615C7.92486 9.15089 7.60828 9.15089 7.41302 9.34615L6.33301 10.4262V2.29948C6.93708 2.10502 7.58127 2 8.25 2C11.7018 2 14.5 4.79822 14.5 8.25C14.5 10.6482 13.1492 12.731 11.167 13.779V6.07407L12.2465 7.15359C12.4418 7.34885 12.7584 7.34885 12.9536 7.15359C13.1489 6.95832 13.1489 6.64174 12.9536 6.44648L11.03 4.52291C10.9389 4.42671 10.81 4.3667 10.667 4.3667C10.6349 4.36668 10.6028 4.36973 10.5712 4.37585C10.4767 4.39416 10.3864 4.43992 10.3132 4.51315L8.37985 6.44648C8.18458 6.64174 8.18458 6.95832 8.37985 7.15359C8.57511 7.34885 8.89169 7.34885 9.08695 7.15359L10.167 6.07355V14.2005ZM8.25 15.5C12.2541 15.5 15.5 12.2541 15.5 8.25C15.5 4.24594 12.2541 1 8.25 1C4.24594 1 1 4.24594 1 8.25C1 12.2541 4.24594 15.5 8.25 15.5Z" fill="currentColor"/>
</svg>
