<svg width="16" height="16" viewBox="0 0 16 16" fill="none" xmlns="http://www.w3.org/2000/svg">
<path d="M1.06641 2.4248C0.7577 1.57847 1.57847 0.7577 2.4248 1.06641H2.42578L14.3047 5.40723L14.4707 5.4834C15.2452 5.91875 15.1623 7.12177 14.2637 7.41113V7.41211L9.07129 9.07227L7.41016 14.2637L7.41113 14.2646C7.12276 15.1654 5.91761 15.2451 5.48242 14.4717L5.40625 14.3057L1.06641 2.4248ZM2.01953 2.01953C2.00953 2.02953 2.004 2.04046 2.00195 2.04883C2.00053 2.05499 1.99972 2.06514 2.00586 2.08203L6.3457 13.9619C6.35345 13.9828 6.36128 13.9896 6.36523 13.9922C6.3723 13.9965 6.38569 14.0013 6.40234 14.001C6.41937 14.0005 6.43278 13.9949 6.43945 13.9902C6.44335 13.9875 6.45124 13.9808 6.45801 13.96L8.19824 8.52246L8.24805 8.41406C8.30991 8.31314 8.40631 8.23618 8.52148 8.19922L13.959 6.45898C13.9801 6.45194 13.9865 6.44338 13.9893 6.43945C13.994 6.43257 13.9996 6.41999 14 6.40332C14.0003 6.38666 13.9955 6.37322 13.9912 6.36621C13.9887 6.36231 13.9818 6.35443 13.9609 6.34668L2.08203 2.00586C2.06514 1.99972 2.05499 2.00053 2.04883 2.00195C2.04046 2.004 2.02953 2.00953 2.01953 2.01953Z" fill="currentColor"/>
</svg>
