<svg width="16" height="16" viewBox="0 0 16 16" fill="none" xmlns="http://www.w3.org/2000/svg">
<path fill-rule="evenodd" clip-rule="evenodd" d="M8.00045 12.1523C5.07789 12.1523 2.54957 10.4602 1.34364 8.00011C2.54953 5.53993 5.07791 3.84766 8.00055 3.84766C10.9231 3.84766 13.4514 5.53983 14.6574 7.9999C13.4515 10.4601 10.9231 12.1523 8.00045 12.1523ZM8.00055 2.84766C4.61559 2.84766 1.6988 4.84769 0.3655 7.72832C0.285715 7.9007 0.28572 8.09955 0.365509 8.27192C1.69886 11.1524 4.61558 13.1523 8.00045 13.1523C11.3854 13.1523 14.3022 11.1523 15.6355 8.27168C15.7153 8.0993 15.7153 7.90045 15.6355 7.72808C14.3021 4.84758 11.3854 2.84766 8.00055 2.84766ZM9.50106 7.99998C9.50106 8.8284 8.82948 9.49998 8.00106 9.49998C7.17263 9.49998 6.50106 8.8284 6.50106 7.99998C6.50106 7.17155 7.17263 6.49998 8.00106 6.49998C8.82948 6.49998 9.50106 7.17155 9.50106 7.99998ZM10.5011 7.99998C10.5011 9.38069 9.38177 10.5 8.00106 10.5C6.62034 10.5 5.50106 9.38069 5.50106 7.99998C5.50106 6.61926 6.62034 5.49998 8.00106 5.49998C9.38177 5.49998 10.5011 6.61926 10.5011 7.99998Z" fill="currentColor"/>
</svg>
