<svg width="16" height="16" viewBox="0 0 16 16" fill="none" xmlns="http://www.w3.org/2000/svg">
<path d="M11.5 1.63721C12.0523 1.63721 12.5 2.08492 12.5 2.63721V3.86279C13.8806 3.86279 14.9999 4.98217 15 6.36279V9.36279C15 10.7435 13.8807 11.8628 12.5 11.8628V13.3628C12.5 13.9151 12.0523 14.3628 11.5 14.3628H4.5C3.94772 14.3628 3.5 13.9151 3.5 13.3628V11.8628C2.11929 11.8628 1 10.7435 1 9.36279V6.36279C1.0001 4.98217 2.11935 3.86279 3.5 3.86279V2.63721C3.5 2.08492 3.94772 1.63721 4.5 1.63721H11.5ZM4.5 13.3628H11.5V9.36279H4.5V13.3628ZM3.5 4.86279C2.67164 4.86279 2.0001 5.53445 2 6.36279V9.36279C2 10.1912 2.67157 10.8628 3.5 10.8628V8.36279H12.5V10.8628C13.3284 10.8628 14 10.1912 14 9.36279V6.36279C13.9999 5.53445 13.3284 4.86279 12.5 4.86279H3.5ZM12 6.36279C12.2761 6.36279 12.4999 6.58674 12.5 6.86279C12.5 7.13894 12.2761 7.36279 12 7.36279H10C9.72387 7.36278 9.5 7.13893 9.5 6.86279C9.5001 6.58674 9.72393 6.3628 10 6.36279H12ZM4.5 3.86279H11.5V2.63721H4.5V3.86279Z" fill="currentColor"/>
</svg>
