<svg width="16" height="16" viewBox="0 0 16 16" fill="none" xmlns="http://www.w3.org/2000/svg">
<path d="M3.53027 1.43945C4.58774 1.28587 6.04479 1.28594 7.63379 1.90137C9.01702 2.43713 10.5644 2.44377 11.7939 2.30371C12.404 2.23421 12.925 2.13061 13.292 2.04395C13.4751 2.00069 13.6195 1.96111 13.7168 1.93359C13.7652 1.91989 13.8022 1.90962 13.8262 1.90234L13.8584 1.8916C14.0105 1.84255 14.1774 1.86988 14.3066 1.96387C14.4356 2.05792 14.5126 2.20852 14.5127 2.36816V10.4131C14.5126 10.6242 14.3794 10.8126 14.1807 10.8838H14.1797L14.1787 10.8848C14.178 10.885 14.1769 10.8854 14.1758 10.8857C14.1734 10.8866 14.17 10.8873 14.166 10.8887C14.1577 10.8916 14.1458 10.8963 14.1309 10.9014C14.1008 10.9115 14.0572 10.9251 14.002 10.9424C13.8915 10.977 13.7324 11.0241 13.5332 11.0762C13.1349 11.1803 12.5725 11.3055 11.9131 11.3887C10.6039 11.5538 8.86239 11.5612 7.25586 10.8721C5.8713 10.2783 4.60431 10.2784 3.68164 10.4268C3.22009 10.501 2.84643 10.6128 2.59082 10.7041C2.55369 10.7174 2.51926 10.7319 2.4873 10.7441V14.7764C2.4873 15.0525 2.26345 15.2764 1.9873 15.2764C1.71116 15.2764 1.4873 15.0525 1.4873 14.7764V2.36816C1.48743 2.17377 1.60009 1.99603 1.77637 1.91406L1.9873 2.36816L1.77734 1.91406L1.77832 1.91309C1.77909 1.91277 1.78024 1.91257 1.78125 1.91211C1.78346 1.9111 1.78667 1.90972 1.79004 1.9082C1.7968 1.90517 1.80609 1.90137 1.81738 1.89648C1.84062 1.88644 1.87352 1.87198 1.91504 1.85547C1.99822 1.8224 2.11758 1.77822 2.26855 1.72949C2.57035 1.63209 3.00155 1.51625 3.53027 1.43945ZM7.27246 2.83398C5.88025 2.2948 4.60387 2.29461 3.67383 2.42969C3.20903 2.49722 2.83235 2.59864 2.5752 2.68164C2.54391 2.69174 2.51495 2.70343 2.4873 2.71289V9.68359C2.76504 9.59596 3.11495 9.50502 3.52246 9.43945C4.58723 9.26819 6.05388 9.26835 7.65039 9.95312C9.02514 10.5428 10.5631 10.551 11.7881 10.3965C12.3957 10.3198 12.9146 10.205 13.2803 10.1094C13.3671 10.0867 13.4443 10.0616 13.5127 10.042V3.01855C13.1162 3.11189 12.5594 3.22355 11.9072 3.29785C10.6027 3.44645 8.87051 3.45295 7.27246 2.83398Z" fill="currentColor"/>
</svg>
