<svg width="16" height="16" viewBox="0 0 16 16" fill="none" xmlns="http://www.w3.org/2000/svg">
<g clip-path="url(#clip0_20510_18220)">
<path d="M15 8C15 11.866 11.866 15 8 15C4.13401 15 1 11.866 1 8C1 4.13401 4.13401 1 8 1C11.866 1 15 4.13401 15 8ZM2.54 8C2.54 11.0155 4.98453 13.46 8 13.46C11.0155 13.46 13.46 11.0155 13.46 8C13.46 4.98453 11.0155 2.54 8 2.54C4.98453 2.54 2.54 4.98453 2.54 8Z" fill="#EDEDED"/>
<path d="M8 1C9.05964 1 10.1055 1.24057 11.0586 1.70357C12.0117 2.16658 12.8473 2.83993 13.5024 3.67286C14.1574 4.5058 14.6148 5.47657 14.84 6.512C15.0653 7.54743 15.0525 8.62048 14.8027 9.65026C14.5529 10.68 14.0725 11.6397 13.3979 12.4568C12.7232 13.2739 11.8719 13.9272 10.908 14.3674C9.94411 14.8076 8.89286 15.0232 7.83352 14.998C6.77418 14.9728 5.73438 14.7074 4.79252 14.2219L5.49816 12.8531C6.23281 13.2318 7.04386 13.4388 7.87014 13.4585C8.69643 13.4781 9.5164 13.3099 10.2682 12.9666C11.0201 12.6232 11.6841 12.1136 12.2104 11.4763C12.7366 10.8389 13.1112 10.0904 13.3061 9.2872C13.501 8.48397 13.5109 7.64699 13.3352 6.83936C13.1595 6.03173 12.8028 5.27452 12.2918 4.62483C11.7809 3.97515 11.1292 3.44993 10.3857 3.08879C9.64226 2.72765 8.82652 2.54 8 2.54V1Z" fill="currentColor"/>
</g>
<defs>
<clipPath id="clip0_20510_18220">
<rect width="14" height="14" fill="white" transform="translate(1 1)"/>
</clipPath>
</defs>
</svg>
