<svg width="16" height="16" viewBox="0 0 16 16" fill="none" xmlns="http://www.w3.org/2000/svg">
<path fill-rule="evenodd" clip-rule="evenodd" d="M15.0029 1L14.9713 1.55675C14.8316 4.01469 14.0839 6.00848 13.104 7.59486C13.8082 9.45376 13.4067 11.6316 11.9103 13.128C11.589 13.4493 11.2358 13.7123 10.8682 13.9291L10.5346 14.1257L10.2607 13.8519L8.51561 12.1068C8.45446 12.1442 8.39483 12.18 8.33684 12.2142C7.99038 12.4189 7.70151 12.5687 7.49727 12.6682C7.39511 12.718 7.31402 12.7552 7.25736 12.7805C7.22903 12.7931 7.20679 12.8027 7.19107 12.8095L7.17243 12.8173L7.16687 12.8196L7.16505 12.8204L7.16438 12.8207C7.16411 12.8208 7.16387 12.8209 6.97463 12.3581L7.16387 12.8209L6.85615 12.9467L6.62108 12.7116L3.28881 9.37936L3.05525 9.1458L3.17844 8.83933L3.64237 9.02581C3.17844 8.83933 3.17854 8.83909 3.17865 8.83882L3.17892 8.83814L3.17967 8.83631L3.18195 8.83072L3.18974 8.81197C3.19638 8.79616 3.20591 8.7738 3.2184 8.74532C3.24339 8.68836 3.28026 8.60686 3.32958 8.5042C3.4282 8.29894 3.57683 8.0087 3.78011 7.6607C3.81445 7.60191 3.85037 7.54144 3.8879 7.47942L2.14878 5.7403L1.87494 5.46646L2.0716 5.13284C2.28832 4.7652 2.55138 4.41206 2.87265 4.09079L2.87272 4.09071C4.36085 2.60202 6.52494 2.20263 8.37581 2.8898C9.96598 1.90589 11.9694 1.15824 14.446 1.02905L15.0029 1ZM10.8969 10.2878C11.3937 9.81941 11.8952 9.27874 12.3687 8.66082C12.6164 9.9817 12.2262 11.3979 11.2032 12.4209C11.0407 12.5834 10.8662 12.7288 10.6823 12.8593L9.36681 11.5438C9.84639 11.2017 10.3693 10.7852 10.8969 10.2878ZM5.69878 5.09118C5.20287 5.61982 4.78811 6.14405 4.44781 6.62512L3.14137 5.31868C3.27188 5.13479 3.41733 4.96032 3.57983 4.79782L3.5799 4.79775C4.59264 3.78459 5.99405 3.39488 7.30599 3.63026C6.69569 4.10018 6.16163 4.59779 5.69878 5.09118ZM4.2407 8.91703L7.08187 11.7582C7.26364 11.669 7.52018 11.5352 7.82829 11.3532C8.47125 10.9734 9.33455 10.3864 10.2109 9.56015C11.0974 8.72443 11.9956 7.64617 12.6943 6.28936L9.69632 3.29141C8.33811 3.9882 7.2613 4.88717 6.4281 5.77535C5.60432 6.65349 5.0206 7.51967 4.64358 8.1651C4.46209 8.47579 4.32907 8.73434 4.2407 8.91703ZM13.928 2.06987C13.8061 3.2791 13.5237 4.35886 13.138 5.31887L10.6685 2.84934C11.6304 2.46563 12.7136 2.18663 13.928 2.06987ZM2.36272 12.6707C2.62663 12.4067 3.05376 12.4067 3.31767 12.6707C3.58158 12.9346 3.58158 13.3617 3.31767 13.6256C3.32196 13.6213 3.32125 13.6217 3.31403 13.6259C3.29076 13.6395 3.19988 13.6927 2.99145 13.7545C2.74958 13.8263 2.45103 13.8809 2.14165 13.92C2.11619 13.9232 2.09083 13.9263 2.06562 13.9293C2.06865 13.9022 2.07182 13.875 2.07513 13.8476C2.11281 13.5367 2.1661 13.2369 2.23696 12.9944C2.29699 12.7889 2.34884 12.6984 2.36257 12.6745C2.36717 12.6664 2.36749 12.6659 2.3624 12.671L2.36272 12.6707ZM4.02478 14.3327C3.65357 14.7039 2.7303 14.8689 2.00067 14.9422C1.44397 14.9982 1 15.0007 1 15.0007C1 15.0007 1.00022 14.5569 1.05306 13.9997C1.12267 13.2658 1.28359 12.3352 1.65561 11.9636C2.31005 11.3091 3.37034 11.3091 4.02478 11.9636C4.67921 12.618 4.67921 13.6783 4.02478 14.3327Z" fill="currentColor"/>
</svg>
