<svg width="16" height="16" viewBox="0 0 16 16" fill="none" xmlns="http://www.w3.org/2000/svg">
<path d="M9.31641 1C9.4703 1.00006 9.61623 1.07108 9.71094 1.19238C9.80551 1.31365 9.83899 1.47188 9.80176 1.62109L9.09082 4.4668H11.8721L12.0156 4.47656C12.717 4.57446 13.113 5.37967 12.7158 6.00391L7.13867 14.7686C7.01226 14.9672 6.76381 15.0504 6.54297 14.9688C6.32236 14.887 6.18859 14.6626 6.22168 14.4297L7.00586 8.93359H4.53125C3.55539 8.93359 2.83852 8.01606 3.0752 7.06934L4.30859 2.13574C4.47564 1.46835 5.07569 1.0002 5.76367 1H9.31641ZM5.76367 2C5.53444 2.0002 5.33492 2.15649 5.2793 2.37891L4.0459 7.3125C3.96728 7.62794 4.20609 7.93359 4.53125 7.93359H7.58301L7.68945 7.94531C7.7939 7.968 7.88969 8.02341 7.96094 8.10547C8.05582 8.21492 8.09857 8.36051 8.07812 8.50391L7.53906 12.2754L11.8721 5.4668H8.4502C8.29627 5.4668 8.15042 5.39571 8.05566 5.27441C7.96103 5.15315 7.92763 4.99495 7.96484 4.8457L8.67676 2H5.76367Z" fill="currentColor"/>
</svg>
