<svg width="16" height="16" viewBox="0 0 16 16" fill="none" xmlns="http://www.w3.org/2000/svg">
<path d="M7.99805 1.5C11.5864 1.5002 14.4951 4.40965 14.4951 7.99805C14.4949 11.5863 11.5863 14.4949 7.99805 14.4951C7.69102 14.4951 7.38795 14.4735 7.0918 14.4316L6.79785 14.3828C6.04932 14.2412 5.44817 13.9869 5.01465 13.7617C4.67831 13.9399 4.25056 14.1115 3.80176 14.2422C3.2253 14.4101 2.56613 14.5274 1.97266 14.4951C1.77577 14.4843 1.60374 14.358 1.5332 14.1738C1.46282 13.9897 1.50717 13.7811 1.64648 13.6416C1.9468 13.3408 2.20258 12.8447 2.33789 12.3301C2.40435 12.0772 2.43706 11.837 2.43652 11.6348C2.43595 11.4262 2.40028 11.2934 2.36426 11.2256H2.36328C1.81788 10.2756 1.50007 9.17494 1.5 7.99805C1.5 4.40953 4.40953 1.50001 7.99805 1.5ZM7.99805 2.5C4.96182 2.50001 2.5 4.96182 2.5 7.99805C2.50006 8.87225 2.70766 9.69658 3.07227 10.4307L3.23828 10.7402L3.24609 10.7549C3.38774 11.0205 3.43573 11.3351 3.43652 11.6328C3.43728 11.9374 3.38874 12.2642 3.30469 12.584C3.23282 12.8574 3.12876 13.1377 2.99902 13.4062C3.1728 13.3717 3.34941 13.3317 3.52246 13.2812C4.03861 13.1309 4.4832 12.9329 4.73438 12.7705L4.79492 12.7373C4.94106 12.6694 5.11275 12.6751 5.25488 12.7568C5.62683 12.9713 6.21481 13.2549 6.9834 13.4004C7.31107 13.4624 7.65135 13.4951 7.99805 13.4951C11.034 13.4949 13.4949 11.034 13.4951 7.99805C13.4951 4.96193 11.0341 2.5002 7.99805 2.5ZM7.89258 10.3096C8.09766 10.3096 8.26855 10.3779 8.40527 10.5146C8.54525 10.6481 8.61523 10.8158 8.61523 11.0176C8.61523 11.2161 8.54525 11.3838 8.40527 11.5205C8.26855 11.654 8.09766 11.7207 7.89258 11.7207C7.69076 11.7207 7.51986 11.654 7.37988 11.5205C7.24316 11.3838 7.1748 11.2161 7.1748 11.0176C7.1748 10.8158 7.24316 10.6481 7.37988 10.5146C7.51986 10.3779 7.69076 10.3096 7.89258 10.3096ZM8.08789 4.2793C8.52734 4.2793 8.90983 4.36068 9.23535 4.52344C9.56087 4.6862 9.81315 4.91243 9.99219 5.20215C10.1745 5.49186 10.2656 5.82878 10.2656 6.21289C10.2656 6.61328 10.1745 6.95345 9.99219 7.2334C9.8099 7.51009 9.56087 7.74609 9.24512 7.94141C9.04329 8.06185 8.87891 8.18066 8.75195 8.29785C8.62826 8.41504 8.53711 8.55664 8.47852 8.72266C8.41992 8.88542 8.39062 8.98438 8.39062 9.25781C8.39062 9.36137 8.30668 9.44531 8.20312 9.44531H7.56738C7.46383 9.44531 7.37988 9.36137 7.37988 9.25781C7.37988 8.8151 7.42057 8.59408 7.50195 8.35645C7.58659 8.11556 7.70703 7.92513 7.86328 7.78516C8.02279 7.64193 8.21159 7.50195 8.42969 7.36523C8.64453 7.23828 8.82357 7.0804 8.9668 6.8916C9.11003 6.69954 9.18164 6.47005 9.18164 6.20312C9.18164 5.99479 9.13281 5.81413 9.03516 5.66113C8.94076 5.50814 8.80892 5.38932 8.63965 5.30469C8.47363 5.22005 8.28971 5.17773 8.08789 5.17773C7.90885 5.17773 7.73633 5.21517 7.57031 5.29004C7.40755 5.36491 7.27083 5.4821 7.16016 5.6416C7.13439 5.67798 7.11147 5.7173 7.09082 5.75879C6.96264 6.01625 6.7456 6.25195 6.45801 6.25195C6.15018 6.2518 5.89316 5.99288 5.97559 5.69629C6.0287 5.50528 6.10804 5.33244 6.21289 5.17773C6.41146 4.88151 6.67513 4.65853 7.00391 4.50879C7.33268 4.35579 7.69401 4.2793 8.08789 4.2793Z" fill="currentColor"/>
</svg>
