<svg width="16" height="16" viewBox="0 0 16 16" fill="none" xmlns="http://www.w3.org/2000/svg">
<path d="M10.5859 2.9375C10.736 2.70585 11.0456 2.63916 11.2773 2.78906C11.7655 3.10497 12.2086 3.48466 12.5947 3.91602C13.6236 5.0656 14.2499 6.58565 14.25 8.25C14.25 8.68109 14.1476 9.18133 14.0234 9.63672C13.8971 10.0997 13.7378 10.5517 13.6064 10.8984C13.4801 11.2318 13.4531 11.5851 13.5361 11.9092L14.1846 14.4336C14.3068 14.9101 13.835 15.3235 13.3789 15.1396L11.2178 14.2666C10.8595 14.1221 10.4472 14.1203 10.0566 14.252C9.42976 14.4634 8.46205 14.75 7.75 14.75C4.1602 14.75 1.25009 11.8398 1.25 8.25C1.25013 7.97397 1.47394 7.75 1.75 7.75C2.02606 7.75 2.24987 7.97397 2.25 8.25C2.25009 11.2875 4.71249 13.75 7.75 13.75C8.27657 13.75 9.09805 13.519 9.73633 13.3037C10.3283 13.1041 10.9895 13.0963 11.5928 13.3398L13.0195 13.915L12.5684 12.1572C12.4288 11.6129 12.4806 11.0498 12.6719 10.5449C12.7968 10.2151 12.9436 9.79453 13.0586 9.37305C13.1756 8.94401 13.25 8.54641 13.25 8.25C13.2499 6.84113 12.7208 5.55634 11.8496 4.58301C11.5225 4.21758 11.1466 3.89631 10.7334 3.62891C10.5019 3.47879 10.436 3.1692 10.5859 2.9375ZM3.69238 0.827148C3.92584 0.680219 4.23457 0.750062 4.38184 0.983398C4.5288 1.21675 4.45869 1.52547 4.22559 1.67285C3.62152 2.05416 3.12357 2.58264 2.77832 3.20801C2.75744 3.24584 2.73843 3.28486 2.71875 3.32324C2.8882 3.27658 3.06669 3.25 3.25098 3.25C4.35532 3.25026 5.25098 4.14559 5.25098 5.25C5.25098 6.35441 4.35532 7.24974 3.25098 7.25C2.21531 7.25 1.36298 6.4628 1.26074 5.4541L1.25098 5.25C1.25183 4.3668 1.4765 3.49783 1.90332 2.72461C2.33013 1.9515 2.94559 1.29849 3.69238 0.827148ZM8.19238 0.827148C8.42584 0.680219 8.73457 0.750062 8.88184 0.983398C9.0288 1.21675 8.95869 1.52547 8.72559 1.67285C8.12152 2.05416 7.62357 2.58264 7.27832 3.20801C7.25744 3.24584 7.23843 3.28486 7.21875 3.32324C7.3882 3.27658 7.56669 3.25 7.75098 3.25C8.85532 3.25026 9.75098 4.14559 9.75098 5.25C9.75098 6.35441 8.85532 7.24974 7.75098 7.25C6.71531 7.25 5.86298 6.4628 5.76074 5.4541L5.75098 5.25C5.75183 4.3668 5.9765 3.49783 6.40332 2.72461C6.83013 1.9515 7.44559 1.29849 8.19238 0.827148ZM3.25098 4.25C2.69869 4.25 2.25098 4.69772 2.25098 5.25C2.25098 5.80228 2.69869 6.25 3.25098 6.25C3.80304 6.24974 4.25098 5.80212 4.25098 5.25C4.25098 4.69788 3.80304 4.25026 3.25098 4.25ZM7.75098 4.25C7.19869 4.25 6.75098 4.69772 6.75098 5.25C6.75098 5.80228 7.19869 6.25 7.75098 6.25C8.30304 6.24974 8.75098 5.80212 8.75098 5.25C8.75098 4.69788 8.30304 4.25026 7.75098 4.25Z" fill="currentColor"/>
</svg>
