<svg width="16" height="16" viewBox="0 0 16 16" fill="none" xmlns="http://www.w3.org/2000/svg">
<path fill-rule="evenodd" clip-rule="evenodd" d="M7.75484 3.00333C8.07268 3.13855 8.43996 2.9905 8.57518 2.67266C8.71039 2.35481 8.56235 1.98754 8.2445 1.85232C7.92666 1.7171 7.55938 1.86515 7.42417 2.183C7.28895 2.50084 7.437 2.86812 7.75484 3.00333ZM5.28851 2.83688C5.28522 3.18228 5.56255 3.46494 5.90794 3.46823C6.25334 3.47152 6.536 3.19419 6.53929 2.8488C6.54258 2.5034 6.26525 2.22074 5.91986 2.21745C5.57447 2.21416 5.2918 2.49149 5.28851 2.83688ZM3.51017 4.28115C3.6393 4.60151 4.00369 4.75653 4.32405 4.62739C4.64442 4.49825 4.79943 4.13386 4.6703 3.8135C4.54116 3.49314 4.17677 3.33812 3.85641 3.46726C3.53605 3.5964 3.38103 3.96079 3.51017 4.28115ZM2.42001 6.29608C2.66192 6.54263 3.05789 6.54641 3.30445 6.3045C3.55101 6.0626 3.55478 5.66662 3.31288 5.42007C3.07097 5.17351 2.675 5.16974 2.42844 5.41164C2.18188 5.65354 2.17811 6.04952 2.42001 6.29608ZM3.00382 8.24459C2.8686 8.56243 2.50133 8.71048 2.18348 8.57526C1.86564 8.44005 1.71759 8.07277 1.85281 7.75493C1.98803 7.43708 2.3553 7.28904 2.67315 7.42425C2.99099 7.55947 3.13904 7.92675 3.00382 8.24459ZM14.1477 8.24459C14.0125 8.56243 13.6452 8.71048 13.3273 8.57526C13.0095 8.44005 12.8615 8.07277 12.9967 7.75493C13.1319 7.43708 13.4992 7.28904 13.817 7.42425C14.1349 7.55947 14.2829 7.92675 14.1477 8.24459ZM13.6002 10.5689C13.3536 10.8108 12.9577 10.8071 12.7158 10.5605C12.4739 10.3139 12.4776 9.91797 12.7242 9.67606C12.9707 9.43416 13.3667 9.43793 13.6086 9.68449C13.8505 9.93104 13.8468 10.327 13.6002 10.5689ZM13.6406 6.29608C13.3987 6.54263 13.0027 6.54641 12.7561 6.3045C12.5096 6.0626 12.5058 5.66662 12.7477 5.42007C12.9896 5.17351 13.3856 5.16974 13.6321 5.41164C13.8787 5.65354 13.8825 6.04952 13.6406 6.29608ZM2.46095 10.5689C2.70751 10.8108 3.10349 10.8071 3.34539 10.5605C3.58729 10.3139 3.58352 9.91797 3.33696 9.67606C3.09041 9.43416 2.69443 9.43793 2.45253 9.68449C2.21062 9.93104 2.2144 10.327 2.46095 10.5689ZM12.2042 12.5072C11.8838 12.6364 11.5194 12.4813 11.3903 12.161C11.2611 11.8406 11.4162 11.4762 11.7365 11.3471C12.0569 11.2179 12.4213 11.373 12.5504 11.6933C12.6795 12.0137 12.5245 12.3781 12.2042 12.5072ZM12.5504 4.28115C12.4213 4.60151 12.0569 4.75653 11.7365 4.62739C11.4162 4.49825 11.2611 4.13386 11.3903 3.8135C11.5194 3.49314 11.8838 3.33812 12.2042 3.46726C12.5245 3.5964 12.6795 3.96079 12.5504 4.28115ZM3.85641 12.5072C4.17677 12.6364 4.54116 12.4813 4.6703 12.161C4.79943 11.8406 4.64442 11.4762 4.32405 11.3471C4.00369 11.2179 3.6393 11.373 3.51017 11.6933C3.38103 12.0137 3.53605 12.3781 3.85641 12.5072ZM10.1727 13.7637C9.82726 13.7604 9.54993 13.4777 9.55322 13.1323C9.55651 12.7869 9.83918 12.5096 10.1846 12.5129C10.53 12.5162 10.8073 12.7989 10.804 13.1443C10.8007 13.4897 10.518 13.767 10.1727 13.7637ZM10.7715 2.83688C10.7748 3.18228 10.4975 3.46494 10.1521 3.46823C9.80666 3.47152 9.524 3.19419 9.52071 2.8488C9.51742 2.5034 9.79475 2.22074 10.1401 2.21745C10.4855 2.21416 10.7682 2.49149 10.7715 2.83688ZM5.88735 13.764C6.23274 13.7607 6.51007 13.478 6.50678 13.1326C6.50349 12.7872 6.22083 12.5099 5.87543 12.5132C5.53004 12.5165 5.25271 12.7992 5.256 13.1445C5.25929 13.4899 5.54196 13.7673 5.88735 13.764ZM8.57518 13.8165C8.43996 14.1344 8.07268 14.2824 7.75484 14.1472C7.437 14.012 7.28895 13.6447 7.42417 13.3269C7.55938 13.009 7.92666 12.861 8.2445 12.9962C8.56235 13.1314 8.71039 13.4987 8.57518 13.8165ZM9.45239 7.99973C9.45239 8.8016 8.80234 9.45165 8.00047 9.45165C7.1986 9.45165 6.54855 8.8016 6.54855 7.99973C6.54855 7.19785 7.1986 6.54781 8.00047 6.54781C8.80234 6.54781 9.45239 7.19785 9.45239 7.99973ZM8.83457 4.63507C8.83457 5.09574 8.46113 5.46918 8.00046 5.46918C7.5398 5.46918 7.16635 5.09574 7.16635 4.63507C7.16635 4.17441 7.5398 3.80096 8.00046 3.80096C8.46113 3.80096 8.83457 4.17441 8.83457 4.63507ZM5.15716 6.15874C5.4829 6.48448 6.01103 6.48448 6.33677 6.15874C6.6625 5.833 6.6625 5.30487 6.33677 4.97913C6.01103 4.65339 5.4829 4.65339 5.15716 4.97913C4.83142 5.30487 4.83142 5.833 5.15716 6.15874ZM11.3653 8.83375C11.826 8.83375 12.1994 8.46031 12.1994 7.99965C12.1994 7.53898 11.826 7.16554 11.3653 7.16554C10.9047 7.16554 10.5312 7.53898 10.5312 7.99965C10.5312 8.46031 10.9047 8.83375 11.3653 8.83375ZM4.63556 8.83378C5.09622 8.83378 5.46967 8.46034 5.46967 7.99968C5.46967 7.53901 5.09622 7.16557 4.63556 7.16557C4.17489 7.16557 3.80145 7.53901 3.80145 7.99968C3.80145 8.46034 4.17489 8.83378 4.63556 8.83378ZM11.0953 10.9161C10.7696 11.2418 10.2414 11.2418 9.91571 10.9161C9.58997 10.5904 9.58997 10.0622 9.91571 9.73649C10.2414 9.41075 10.7696 9.41075 11.0953 9.73649C11.4211 10.0622 11.4211 10.5904 11.0953 10.9161ZM5.15613 10.9164C5.48187 11.2422 6.01 11.2422 6.33574 10.9164C6.66148 10.5907 6.66148 10.0626 6.33574 9.73683C6.01 9.41109 5.48187 9.41109 5.15613 9.73683C4.83039 10.0626 4.83039 10.5907 5.15613 10.9164ZM11.0942 6.15926C10.7684 6.485 10.2403 6.485 9.91458 6.15926C9.58884 5.83352 9.58884 5.30539 9.91458 4.97965C10.2403 4.65391 10.7684 4.65391 11.0942 4.97965C11.4199 5.30539 11.4199 5.83352 11.0942 6.15926ZM8.00068 12.1981C8.46135 12.1981 8.83479 11.8246 8.83479 11.364C8.83479 10.9033 8.46135 10.5299 8.00068 10.5299C7.54002 10.5299 7.16658 10.9033 7.16658 11.364C7.16658 11.8246 7.54002 12.1981 8.00068 12.1981Z" fill="currentColor"/>
</svg>
