<svg width="16" height="16" viewBox="0 0 16 16" fill="none" xmlns="http://www.w3.org/2000/svg">
<path fill-rule="evenodd" clip-rule="evenodd" d="M6.84366 3.3024L1.75002 7.75934L6.84366 12.2163V10.2005C6.84366 9.65076 7.29433 9.1902 7.86163 9.20885C9.84472 9.27406 11.2372 9.71896 12.3309 10.4266C12.9474 10.8256 13.4563 11.3005 13.914 11.8116C13.7094 9.9268 13.1083 8.65403 12.2649 7.8085C11.2114 6.75226 9.6949 6.27711 7.82609 6.20911C7.2941 6.18975 6.84366 5.75841 6.84366 5.20052V3.3024ZM6.59979 2.18703C7.08472 1.76271 7.84366 2.10709 7.84366 2.75146V5.20041C7.84395 5.20088 7.84453 5.20171 7.84559 5.20277C7.8494 5.20662 7.85513 5.2095 7.86245 5.20977C9.86407 5.2826 11.6708 5.79686 12.9729 7.1023C14.2775 8.41023 14.9907 10.4269 14.9907 13.3182C14.9907 13.5328 14.8537 13.7235 14.6503 13.792C14.4469 13.8605 14.2225 13.7916 14.0926 13.6207C13.3699 12.6698 12.7098 11.8629 11.7876 11.2662C10.8789 10.6782 9.67627 10.2711 7.84366 10.2088V12.7672C7.84366 13.4116 7.08472 13.756 6.59978 13.3317L1.09151 8.51192C0.636188 8.11351 0.636187 7.40518 1.09151 7.00676L6.59979 2.18703Z" fill="currentColor"/>
</svg>
