<svg width="16" height="16" viewBox="0 0 16 16" fill="none" xmlns="http://www.w3.org/2000/svg">
<path fill-rule="evenodd" clip-rule="evenodd" d="M6 3.5C6 2.67157 6.67157 2 7.5 2H8.50011C9.32853 2 10.0001 2.67157 10.0001 3.5V13.5004C10.0001 13.7765 9.77625 14.0004 9.5001 14.0004H6.5C6.22386 14.0004 6 13.7765 6 13.5004V3.5ZM7.5 3C7.22386 3 7 3.22386 7 3.5V13.0004H9.0001V3.5C9.0001 3.22386 8.77625 3 8.50011 3H7.5ZM11.0001 6.5C11.0001 5.67157 11.6717 5 12.5001 5H13.5002C14.3287 5 15.0002 5.67157 15.0002 6.5V13.5003C15.0002 13.7764 14.7764 14.0003 14.5002 14.0003H11.5001C11.224 14.0003 11.0001 13.7764 11.0001 13.5003V6.5ZM12.5001 6C12.224 6 12.0001 6.22386 12.0001 6.5V13.0003H14.0002V6.5C14.0002 6.22386 13.7764 6 13.5002 6H12.5001ZM2.5 8.00024C1.67157 8.00024 1 8.67182 1 9.50025V13.5004C1 13.7766 1.22386 14.0004 1.5 14.0004H4.5001C4.77625 14.0004 5.0001 13.7766 5.0001 13.5004V9.50024C5.0001 8.67182 4.32853 8.00024 3.50011 8.00024H2.5ZM2 9.50025C2 9.2241 2.22386 9.00024 2.5 9.00024H3.50011C3.77625 9.00024 4.0001 9.2241 4.0001 9.50024V13.0004H2V9.50025Z" fill="currentColor"/>
</svg>
