<svg width="16" height="16" viewBox="0 0 16 16" fill="none" xmlns="http://www.w3.org/2000/svg">
<path d="M14.1392 10.8682C14.3331 10.6717 14.6501 10.67 14.8462 10.8643C15.042 11.0585 15.0436 11.3748 14.8501 11.5713L11.6147 14.8477C11.4209 15.044 11.1048 15.0465 10.9087 14.8525C10.7128 14.6583 10.7102 14.341 10.9038 14.1445L14.1392 10.8682ZM13.4751 8.08203C13.6689 7.9541 13.9325 7.9756 14.103 8.14648C14.2736 8.31745 14.2954 8.58215 14.1675 8.77637L14.103 8.85449L8.85303 14.1143C8.658 14.3094 8.342 14.3095 8.14697 14.1143C7.9519 13.9188 7.9519 13.6017 8.14697 13.4062L13.397 8.14648L13.4751 8.08203Z" fill="currentColor"/>
</svg>
