<svg width="16" height="16" viewBox="0 0 16 16" fill="none" xmlns="http://www.w3.org/2000/svg">
<g clip-path="url(#clip0_22038_3101)">
<g filter="url(#filter0_d_22038_3101)">
<path d="M9.86971 4.95166L14.628 7.5471C14.7951 7.63825 14.8031 7.87529 14.6425 7.97749L9.88422 11.0055C9.71779 11.1114 9.5 10.9919 9.5 10.7946V5.17114C9.5 4.98137 9.70312 4.86079 9.86971 4.95166Z" fill="currentColor"/>
<path d="M9.00684 5.06738C9.07078 4.59306 9.56761 4.2979 10.0146 4.46875L10.1094 4.5127L14.8672 7.1084C15.3685 7.38184 15.3928 8.09279 14.9111 8.39941L10.1523 11.4277C9.6532 11.745 9.00025 11.3864 9 10.7949V5.1709L9.00684 5.06738Z" stroke="white"/>
</g>
<g filter="url(#filter1_d_22038_3101)">
<path d="M6.11578 4.9945L1.35748 8.02251C1.19688 8.12471 1.20487 8.36175 1.37199 8.4529L6.13029 11.0483C6.29688 11.1392 6.5 11.0186 6.5 10.8289V5.20542C6.5 5.00815 6.28221 4.88859 6.11578 4.9945Z" fill="currentColor"/>
<path d="M6.99219 5.09766C6.92366 4.60664 6.39345 4.31491 5.94238 4.52051L5.84766 4.57227L1.08887 7.60059C0.607158 7.90721 0.631496 8.61816 1.13281 8.8916L5.89062 11.4873C6.39034 11.7599 6.99983 11.3983 7 10.8291V5.20508L6.99219 5.09766Z" stroke="white"/>
</g>
</g>
<defs>
<filter id="filter0_d_22038_3101" x="7.5" y="3.91943" width="9.2583" height="10.127" filterUnits="userSpaceOnUse" color-interpolation-filters="sRGB">
<feFlood flood-opacity="0" result="BackgroundImageFix"/>
<feColorMatrix in="SourceAlpha" type="matrix" values="0 0 0 0 0 0 0 0 0 0 0 0 0 0 0 0 0 0 127 0" result="hardAlpha"/>
<feOffset dy="1"/>
<feGaussianBlur stdDeviation="0.5"/>
<feComposite in2="hardAlpha" operator="out"/>
<feColorMatrix type="matrix" values="0 0 0 0 0 0 0 0 0 0 0 0 0 0 0 0 0 0 0.3 0"/>
<feBlend mode="normal" in2="BackgroundImageFix" result="effect1_dropShadow_22038_3101"/>
<feBlend mode="normal" in="SourceGraphic" in2="effect1_dropShadow_22038_3101" result="shape"/>
</filter>
<filter id="filter1_d_22038_3101" x="-0.758301" y="3.95361" width="9.2583" height="10.127" filterUnits="userSpaceOnUse" color-interpolation-filters="sRGB">
<feFlood flood-opacity="0" result="BackgroundImageFix"/>
<feColorMatrix in="SourceAlpha" type="matrix" values="0 0 0 0 0 0 0 0 0 0 0 0 0 0 0 0 0 0 127 0" result="hardAlpha"/>
<feOffset dy="1"/>
<feGaussianBlur stdDeviation="0.5"/>
<feComposite in2="hardAlpha" operator="out"/>
<feColorMatrix type="matrix" values="0 0 0 0 0 0 0 0 0 0 0 0 0 0 0 0 0 0 0.3 0"/>
<feBlend mode="normal" in2="BackgroundImageFix" result="effect1_dropShadow_22038_3101"/>
<feBlend mode="normal" in="SourceGraphic" in2="effect1_dropShadow_22038_3101" result="shape"/>
</filter>
<clipPath id="clip0_22038_3101">
<rect width="16" height="16" fill="white"/>
</clipPath>
</defs>
</svg>
