<svg width="16" height="16" viewBox="0 0 16 16" fill="none" xmlns="http://www.w3.org/2000/svg">
<g clip-path="url(#clip0_22692_6645)">
<path d="M7.64648 1.08398C7.84174 0.888733 8.15825 0.888756 8.35352 1.08398C9.58954 2.31998 11.6784 3.58269 14.6338 4.00488C14.8799 4.04028 15.0625 4.25135 15.0625 4.5H14.5625L15.0625 4.50098V4.52832C15.0623 4.54487 15.0614 4.56861 15.0605 4.59863C15.0588 4.65884 15.0556 4.7456 15.0488 4.85547C15.0353 5.07513 15.0083 5.38855 14.9551 5.77148C14.8488 6.53677 14.637 7.58652 14.2109 8.72266C13.358 10.9972 11.6358 13.6472 8.18555 15.0273C8.06654 15.0748 7.93346 15.0749 7.81445 15.0273C4.36429 13.6473 2.64305 10.9972 1.79004 8.72266C1.36399 7.58652 1.15122 6.53677 1.04492 5.77148C0.991751 5.38856 0.964678 5.07512 0.951172 4.85547C0.944418 4.7456 0.941204 4.65884 0.939453 4.59863C0.938581 4.56862 0.937736 4.54487 0.9375 4.52832V4.50098C0.9375 4.5007 0.9375 4.5 1.4375 4.5H0.9375C0.937515 4.25119 1.12087 4.04007 1.36719 4.00488C4.32234 3.58262 6.41053 2.31992 7.64648 1.08398ZM8 2.12402C6.66375 3.32577 4.64717 4.45183 1.95898 4.9209C1.97302 5.10726 1.99556 5.34964 2.03516 5.63477C2.13395 6.34592 2.33151 7.32012 2.72559 8.37109C3.49739 10.4292 5.01154 12.7564 8 14.0205C10.9885 12.7564 12.5026 10.4292 13.2744 8.37109C13.6685 7.3201 13.866 6.34593 13.9648 5.63477C14.0044 5.34968 14.026 5.10725 14.04 4.9209C11.3524 4.45173 9.33608 3.32561 8 2.12402ZM8 4.4375C9.24264 4.43751 10.25 5.44486 10.25 6.6875C10.25 7.33151 9.97861 7.91164 9.5459 8.32129L10.1514 10.6221C10.2762 11.0975 9.91736 11.5625 9.42578 11.5625H6.57422C6.08264 11.5625 5.72384 11.0975 5.84863 10.6221L6.4541 8.32031C6.02168 7.91069 5.75001 7.33126 5.75 6.6875C5.75001 5.44486 6.75736 4.43751 8 4.4375ZM8 5.4375C7.30965 5.43751 6.75001 5.99715 6.75 6.6875C6.75001 7.11779 6.96698 7.49801 7.2998 7.72363L7.59277 7.92188L7.50293 8.26465L6.89844 10.5625H9.10156L8.49707 8.26465L8.40723 7.92188L8.7002 7.72363C9.03302 7.49801 9.24999 7.11779 9.25 6.6875C9.24999 5.99715 8.69035 5.43751 8 5.4375Z" fill="currentColor"/>
</g>
<defs>
<clipPath id="clip0_22692_6645">
<rect width="16" height="16" fill="white"/>
</clipPath>
</defs>
</svg>
