<svg width="16" height="16" viewBox="0 0 16 16" fill="none" xmlns="http://www.w3.org/2000/svg">
<path d="M6.58447 5.95703C7.36552 5.17598 8.63253 5.17598 9.41357 5.95703L12.2417 8.78516C13.0227 9.56621 13.0227 10.8332 12.2417 11.6143L9.41357 14.4424C8.63253 15.2234 7.36552 15.2234 6.58447 14.4424L3.75635 11.6143C2.9753 10.8332 2.9753 9.56621 3.75635 8.78516L6.58447 5.95703ZM8.70557 6.66406C8.31502 6.27385 7.68192 6.27364 7.2915 6.66406L4.46338 9.49219C4.07285 9.88271 4.07285 10.5167 4.46338 10.9072L7.2915 13.7354C7.68193 14.1258 8.31502 14.1256 8.70557 13.7354L11.5347 10.9072C11.9252 10.5167 11.9252 9.88271 11.5347 9.49219L8.70557 6.66406ZM6.67139 1.52539C7.42277 0.83667 8.57205 0.823317 9.33936 1.49414L11.9634 3.78906V2.65332C11.9634 2.37725 12.1873 2.15343 12.4634 2.15332C12.7395 2.15332 12.9634 2.37718 12.9634 2.65332V5.02246C12.9633 5.1549 12.9106 5.28329 12.8169 5.37695C12.7232 5.47036 12.5957 5.52344 12.4634 5.52344H9.99951C9.72378 5.52332 9.50003 5.29907 9.49951 5.02344C9.49951 4.74737 9.72347 4.52355 9.99951 4.52344H11.2827L8.68115 2.24707C8.2975 1.91163 7.72287 1.91832 7.34717 2.2627L4.3374 5.02148C4.13383 5.20796 3.8179 5.19376 3.63135 4.99023C3.44494 4.7867 3.45821 4.47074 3.66162 4.28418L6.67139 1.52539Z" fill="currentColor"/>
</svg>
