<svg width="16" height="16" viewBox="0 0 16 16" fill="none" xmlns="http://www.w3.org/2000/svg">
<path fill-rule="evenodd" clip-rule="evenodd" d="M11.19 1.0121C11.2757 0.998575 11.363 0.998564 11.4487 1.0121L11.5757 1.04238L11.6636 1.07753C11.7454 1.11643 11.8105 1.16553 11.8599 1.20742C11.921 1.25937 11.9868 1.32551 12.0464 1.38515L14.6148 3.95351C14.6744 4.01313 14.7405 4.07888 14.7925 4.14003C14.8483 4.20583 14.9168 4.29917 14.9575 4.42421C15.0116 4.59072 15.0115 4.77038 14.9575 4.93691C14.9169 5.06208 14.8484 5.15522 14.7925 5.22109C14.7404 5.28239 14.6745 5.34881 14.6148 5.40859L5.40968 14.6137C5.34991 14.6734 5.28349 14.7393 5.22218 14.7914C5.15631 14.8473 5.06326 14.9157 4.938 14.9564C4.77139 15.0106 4.59191 15.0106 4.4253 14.9564C4.30017 14.9157 4.20695 14.8473 4.14112 14.7914C4.07997 14.7394 4.01423 14.6733 3.9546 14.6137L1.38624 12.0453C1.3266 11.9857 1.26046 11.9199 1.20851 11.8588C1.15264 11.7929 1.08413 11.6997 1.04347 11.5746C0.989445 11.4081 0.98939 11.2284 1.04347 11.0619L1.07862 10.974C1.11757 10.8921 1.1666 10.8271 1.20851 10.7777C1.2606 10.7164 1.32648 10.65 1.38624 10.5902L10.5913 1.38515C10.6511 1.32537 10.7175 1.25949 10.7788 1.20742C10.8447 1.15151 10.9378 1.08305 11.063 1.04238L11.19 1.0121ZM10.0317 3.35292L11.0073 4.32851C11.2017 4.52287 11.2016 4.83819 11.0073 5.03261C10.8129 5.22695 10.4976 5.227 10.3032 5.03261L9.32765 4.05703L8.04054 5.34413L9.01612 6.31972C9.21048 6.51408 9.21039 6.8294 9.01612 7.02382C8.82171 7.21819 8.50642 7.21822 8.31202 7.02382L7.33644 6.04824L6.04933 7.33535L7.02491 8.31093C7.21927 8.50529 7.21917 8.82061 7.02491 9.01503C6.8305 9.20943 6.51521 9.20944 6.32081 9.01503L5.34523 8.03945L4.05812 9.32656L5.0337 10.3021C5.22805 10.4965 5.22794 10.8118 5.0337 11.0062C4.8393 11.2007 4.52401 11.2007 4.3296 11.0062L3.35401 10.0307L2.0669 11.3178L4.68116 13.932C4.68849 13.9247 4.6974 13.9177 4.70558 13.9096L13.9107 4.70449C13.9188 4.69629 13.9258 4.68739 13.9331 4.68007L11.3189 2.06581L10.0317 3.35292Z" fill="currentColor"/>
</svg>
