<svg width="16" height="16" viewBox="0 0 16 16" fill="none" xmlns="http://www.w3.org/2000/svg">
<path fill-rule="evenodd" clip-rule="evenodd" d="M9.60942 2.64643C9.80467 2.45118 10.1212 2.45119 10.3164 2.64643C10.5117 2.8417 10.5117 3.15821 10.3164 3.35347L10.0791 3.59077C9.96583 3.70414 9.96599 3.88697 10.0782 3.99897H10.0791L13.501 7.42085C13.6143 7.53403 13.7962 7.53365 13.9082 7.42183L14.1465 7.18354C14.3418 6.9883 14.6583 6.9883 14.8536 7.18354C15.0488 7.37881 15.0488 7.69532 14.8536 7.89058L14.6163 8.12788C14.2198 8.52502 13.6302 8.60726 13.1514 8.37886L12.1329 11.2568C11.9825 11.681 11.6213 11.9962 11.1778 12.0869L11.1788 12.0878L5.53324 13.2558C4.76592 13.4141 4.08372 12.736 4.24418 11.9658L5.41215 6.32124C5.5038 5.87921 5.81984 5.5177 6.2432 5.36714L9.12016 4.34761C8.89224 3.86915 8.97596 3.27994 9.37211 2.88374L9.60942 2.64643ZM1.40727 3.44526C1.59976 3.24783 1.9165 3.24348 2.1143 3.4355C2.71001 4.01571 3.54606 5.01882 3.55473 6.31636C3.56138 7.33781 3.04484 8.08554 2.64945 8.67476C2.22839 9.30225 1.9562 9.73973 2.0059 10.2949L2.02543 10.4375C2.09343 10.7941 2.32996 11.32 3.1309 11.9501C3.34786 12.1208 3.3854 12.4353 3.21488 12.6523C3.04409 12.869 2.72966 12.906 2.51274 12.7353C1.41736 11.8734 1.07083 11.053 1.00981 10.3867V10.3857C0.923097 9.42417 1.42941 8.69683 1.8184 8.11714C2.23327 7.49886 2.55899 6.99471 2.55473 6.32319C2.54882 5.44888 1.97275 4.69357 1.41703 4.15229C1.21958 3.95971 1.21501 3.64302 1.40727 3.44526ZM6.57719 6.3105C6.48241 6.34457 6.41227 6.4252 6.39164 6.52339L5.37797 11.415L7.74223 9.04976C7.70894 8.94523 7.69147 8.83325 7.69145 8.71772C7.69169 8.11509 8.18056 7.62597 8.78324 7.62593C9.38587 7.62604 9.8748 8.11513 9.87504 8.71772C9.87493 9.32043 9.38595 9.80941 8.78324 9.80952C8.66697 9.80951 8.55534 9.79049 8.45024 9.75679L6.08695 12.1201L10.9766 11.1083H10.9776C11.075 11.0885 11.1563 11.019 11.1905 10.9228L12.3399 7.67378L11.083 6.41694L9.82621 5.15913L6.57719 6.3105Z" fill="currentColor"/>
</svg>
