<svg width="16" height="16" viewBox="0 0 16 16" fill="none" xmlns="http://www.w3.org/2000/svg">
<path d="M13.7617 13.1074C13.957 13.3027 13.957 13.6202 13.7617 13.8154C13.5665 14.0107 13.249 14.0107 13.0537 13.8154L13.7617 13.1074ZM6.73145 1.52539C9.57755 1.52539 11.8848 3.83261 11.8848 6.67871C11.8848 7.94883 11.4239 9.11047 10.6621 10.0088L12.2617 11.6074L13.1182 12.4648L13.5469 12.8936L13.7617 13.1074L13.4072 13.4609L13.0537 13.8154L12.8398 13.6006L12.4111 13.1719L11.5537 12.3154L9.94434 10.7051C9.06308 11.4092 7.94717 11.832 6.73145 11.832C3.88534 11.832 1.57812 9.52481 1.57812 6.67871C1.57812 3.83261 3.88534 1.52539 6.73145 1.52539ZM6.73145 2.52539C4.43763 2.52539 2.57812 4.3849 2.57812 6.67871C2.57812 8.97253 4.43763 10.832 6.73145 10.832C9.02526 10.832 10.8848 8.97253 10.8848 6.67871C10.8848 4.3849 9.02526 2.52539 6.73145 2.52539Z" fill="currentColor"/>
</svg>
