<svg width="16" height="16" viewBox="0 0 16 16" fill="none" xmlns="http://www.w3.org/2000/svg">
<path fill-rule="evenodd" clip-rule="evenodd" d="M8.89706 3.3024L13.9907 7.75934L8.89706 12.2163V10.2005C8.89706 9.65076 8.44639 9.1902 7.87909 9.20885C5.896 9.27406 4.50352 9.71896 3.40983 10.4266C2.79328 10.8256 2.28442 11.3005 1.82673 11.8116C2.03135 9.9268 2.63246 8.65403 3.47582 7.8085C4.52935 6.75226 6.04582 6.27711 7.91463 6.20911C8.44662 6.18975 8.89706 5.75841 8.89706 5.20052V3.3024ZM9.14094 2.18703C8.656 1.76271 7.89706 2.10709 7.89706 2.75146V5.20041C7.89677 5.20088 7.89619 5.20171 7.89514 5.20277C7.89132 5.20662 7.88559 5.2095 7.87827 5.20977C5.87665 5.2826 4.0699 5.79686 2.76781 7.1023C1.46324 8.41023 0.75 10.4269 0.75 13.3182C0.75 13.5328 0.886978 13.7235 1.09038 13.792C1.29377 13.8605 1.51821 13.7916 1.64808 13.6207C2.37078 12.6698 3.03088 11.8629 3.95308 11.2662C4.86185 10.6782 6.06445 10.2711 7.89706 10.2088V12.7672C7.89706 13.4116 8.656 13.756 9.14094 13.3317L14.6492 8.51192C15.1045 8.11351 15.1045 7.40518 14.6492 7.00676L9.14094 2.18703Z" fill="currentColor"/>
</svg>
