<svg width="16" height="16" viewBox="0 0 16 16" fill="none" xmlns="http://www.w3.org/2000/svg">
<path d="M12.7632 3.23682C12.5679 3.04162 12.2514 3.04162 12.0562 3.23682L7.64697 7.64697C7.45174 7.84224 7.45172 8.15875 7.64697 8.354L12.0562 12.7632C12.2514 12.9584 12.5679 12.9584 12.7632 12.7632C12.9584 12.5679 12.9584 12.2514 12.7632 12.0562L8.70752 8.00049L12.7632 3.94385C12.9584 3.74859 12.9584 3.43207 12.7632 3.23682ZM8.354 3.23682C8.15881 3.04167 7.84224 3.04178 7.64697 3.23682L3.23779 7.64697C3.04253 7.84223 3.04253 8.15874 3.23779 8.354L7.64697 12.7632C7.84226 12.9582 8.15883 12.9584 8.354 12.7632C8.54901 12.568 8.54895 12.2514 8.354 12.0562L4.29834 8.00049L8.354 3.94385C8.54897 3.74866 8.54893 3.43203 8.354 3.23682Z" fill="currentColor"/>
</svg>
