<svg width="16" height="16" viewBox="0 0 16 16" fill="none" xmlns="http://www.w3.org/2000/svg">
<path d="M8.19434 0.965332C9.16902 0.889281 10.1474 1.05881 11.04 1.45752C11.9326 1.85625 12.7119 2.47191 13.3057 3.24854C13.8993 4.02509 14.2897 4.93804 14.4404 5.90381C14.5911 6.86959 14.4978 7.85831 14.1689 8.77881C13.8659 9.62693 13.3693 10.3912 12.7236 11.0161V15.0542H11.7236V10.5786L11.8906 10.4302C12.4948 9.88981 12.9537 9.20611 13.2266 8.44287C13.4993 7.67943 13.5771 6.85911 13.4521 6.05811C13.3271 5.25708 13.0031 4.50003 12.5107 3.85596C12.0184 3.21202 11.3729 2.70129 10.6328 2.37061C9.8925 2.03993 9.08081 1.89934 8.27246 1.9624C7.4641 2.02548 6.68398 2.28945 6.00391 2.73096C5.32391 3.17246 4.76549 3.77807 4.37891 4.49072C3.99249 5.2033 3.79028 6.0014 3.79102 6.81201V7.52588L3.73828 7.63135L2.77051 9.56592L3.51465 9.93799L3.79102 10.0767V12.1724C3.79117 12.3554 3.86374 12.5312 3.99316 12.6606C4.12268 12.79 4.29836 12.8627 4.48145 12.8628H7.36426V15.0542H6.36426V13.8628H4.48145C4.03315 13.8627 3.60318 13.6846 3.28613 13.3677C2.96917 13.0507 2.79117 12.6206 2.79102 12.1724V10.6938L1.87598 10.2368L1.42871 10.0142L2.79102 7.28955V6.81201C2.79027 5.83475 3.03407 4.87223 3.5 4.01318C3.96613 3.15402 4.64013 2.42535 5.45996 1.89307C6.2799 1.36076 7.21973 1.04143 8.19434 0.965332ZM9.15137 4.58154C9.41204 4.63975 9.65529 4.74254 9.87402 4.88135L10.7578 3.99854L11.4648 4.70557L10.5811 5.58838C10.7203 5.8074 10.8236 6.05087 10.8818 6.31201H12.1299V7.31201H10.8809C10.8226 7.57244 10.7198 7.81514 10.5811 8.03369L11.4648 8.91748L10.7578 9.62451L9.87402 8.74072C9.65516 8.87976 9.41224 8.98322 9.15137 9.0415V10.2896H8.15137V9.0415C7.89049 8.98321 7.64754 8.87979 7.42871 8.74072L6.5459 9.62451L5.83887 8.91748L6.72168 8.03369C6.58301 7.81515 6.48009 7.57242 6.42188 7.31201H5.17383V6.31201H6.4209C6.47914 6.05089 6.58256 5.80739 6.72168 5.58838L5.83887 4.70557L6.5459 3.99854L7.42871 4.88135C7.64742 4.74251 7.89069 4.63976 8.15137 4.58154V3.33447H9.15137V4.58154ZM8.63281 5.52588C7.93114 5.53592 7.36561 6.10706 7.36523 6.81104C7.36523 7.52145 7.94101 8.0979 8.65137 8.09814C9.36182 8.09802 9.93848 7.52152 9.93848 6.81104C9.9381 6.10707 9.3716 5.53593 8.66992 5.52588H8.63281Z" fill="currentColor"/>
</svg>
