<svg width="16" height="16" viewBox="0 0 16 16" fill="none" xmlns="http://www.w3.org/2000/svg">
<path d="M5 3C5.27614 3 5.5 3.22386 5.5 3.5V11.293L7.12207 9.67188C7.31734 9.47672 7.63388 9.47665 7.8291 9.67188C8.02398 9.86713 8.02414 10.1838 7.8291 10.3789L5.3584 12.8477C5.3334 12.8734 5.30638 12.8971 5.27637 12.917C5.27213 12.9198 5.267 12.9212 5.2627 12.9238C5.21261 12.9549 5.15746 12.9784 5.09766 12.9902C5.03321 13.003 4.96678 13.0031 4.90234 12.9902C4.80353 12.9706 4.71498 12.9221 4.64648 12.8535L2.17188 10.3789C1.97669 10.1837 1.97685 9.86716 2.17188 9.67188C2.36715 9.47672 2.68368 9.47665 2.87891 9.67188L4.5 11.293V3.5C4.5 3.22402 4.72408 3.00026 5 3ZM11.001 3C11.141 3.00013 11.2676 3.05847 11.3584 3.15137L13.8291 5.62109C14.0241 5.81625 14.0239 6.13289 13.8291 6.32812C13.6339 6.52333 13.3173 6.52323 13.1221 6.32812L11.501 4.70703V12.5C11.501 12.776 11.2769 12.9997 11.001 13C10.7251 12.9997 10.501 12.776 10.501 12.5V4.70605L8.87891 6.32812C8.6837 6.52333 8.36715 6.52323 8.17188 6.32812C7.97692 6.13284 7.97671 5.81626 8.17188 5.62109L10.6465 3.14648C10.6558 3.13713 10.6669 3.12955 10.6768 3.12109C10.7641 3.04618 10.8769 3.00012 11.001 3Z" fill="currentColor"/>
</svg>
