<svg width="16" height="16" viewBox="0 0 16 16" fill="none" xmlns="http://www.w3.org/2000/svg">
<path d="M8.00003 1C8.19445 1 8.3711 1.11285 8.45316 1.28906L10.3194 5.30762L14.7178 5.84082L14.7881 5.85449C14.9495 5.89817 15.0802 6.02062 15.1328 6.18262C15.1929 6.3676 15.1405 6.57067 14.9981 6.70312L11.752 9.71875L12.6055 14.0674C12.6427 14.2582 12.5655 14.4531 12.4082 14.5674C12.2705 14.6674 12.0927 14.6903 11.9366 14.6309L11.8711 14.5996L8.00003 12.4453L4.12894 14.5996C3.95892 14.6941 3.74922 14.6817 3.59183 14.5674C3.43462 14.4531 3.35738 14.2581 3.39457 14.0674L4.2471 9.71875L1.00199 6.70312C0.859676 6.57069 0.807242 6.36754 0.867222 6.18262C0.927311 5.99768 1.08927 5.86438 1.28226 5.84082L5.67972 5.30762L7.54691 1.28906L7.58207 1.22656C7.67347 1.08678 7.82984 1.00006 8.00003 1ZM6.47074 5.98145C6.39786 6.1381 6.2487 6.24575 6.07718 6.2666L2.47074 6.70312L5.13187 9.17676C5.25828 9.29447 5.31542 9.46914 5.28226 9.63867L4.58304 13.2031L7.75687 11.4375L7.81546 11.4092C7.95382 11.3542 8.11112 11.3641 8.2432 11.4375L11.416 13.2031L10.7178 9.63867C10.6847 9.46919 10.7419 9.29447 10.8682 9.17676L13.5284 6.70312L9.92289 6.2666C9.75142 6.24569 9.60217 6.13808 9.52933 5.98145L8.00003 2.68652L6.47074 5.98145Z" fill="currentColor"/>
</svg>
