<svg width="16" height="16" viewBox="0 0 16 16" fill="none" xmlns="http://www.w3.org/2000/svg">
<path d="M7.93262 1.74805C9.18066 1.74805 10.2969 2.11719 11.0527 2.78516C11.6416 3.3125 11.9668 3.92773 11.9668 4.50781C11.9668 4.92969 11.7031 5.21094 11.2988 5.21094C10.9473 5.21094 10.7188 5.05273 10.5693 4.70117C10.1738 3.72559 9.18945 3.11914 7.96777 3.11914C6.41211 3.11914 5.41016 3.89258 5.41016 5.08789C5.41016 5.98438 6.00781 6.62598 7.13281 6.9248L8.32324 7.25H14.5C14.9142 7.25 15.25 7.58579 15.25 8C15.25 8.41421 14.9142 8.75 14.5 8.75H11.5391C12.0137 9.27841 12.2393 9.93677 12.2393 10.7568C12.2393 12.9102 10.5869 14.2549 7.9502 14.2549C6.53516 14.2549 5.30469 13.8682 4.55762 13.1914C3.9248 12.6201 3.59961 12.0488 3.59961 11.5215C3.59961 11.082 3.87207 10.7832 4.26758 10.7832C4.62793 10.7832 4.87402 10.9678 5.20801 11.4688C5.82324 12.4268 6.74609 12.8838 8.04688 12.8838C9.69922 12.8838 10.7012 12.1543 10.7012 10.9238C10.7012 9.91309 10.0684 9.27148 8.72363 8.91113L8.12598 8.75H1.5C1.08579 8.75 0.75 8.41421 0.75 8C0.75 7.58579 1.08579 7.25 1.5 7.25H4.59766C4.07437 6.71232 3.81055 6.03071 3.81055 5.20215C3.81055 3.13672 5.47168 1.74805 7.93262 1.74805Z" fill="currentColor"/>
</svg>
