<svg width="16" height="16" viewBox="0 0 16 16" fill="none" xmlns="http://www.w3.org/2000/svg">
<path d="M10.876 8.92139C11.0839 8.74015 11.4005 8.76148 11.582 8.96924C12.0009 9.4486 12.2372 10.0642 12.2373 10.8394C12.2372 11.833 11.6978 12.6586 10.9473 13.229C10.1985 13.7979 9.20704 14.1421 8.19434 14.1919C7.30541 14.2356 6.40229 14.0695 5.61621 13.6108C4.82381 13.1483 4.17968 12.4054 3.79395 11.3511C3.69916 11.0918 3.83253 10.8044 4.0918 10.7095C4.35095 10.615 4.63854 10.7482 4.7334 11.0073C5.04362 11.8552 5.53988 12.4089 6.12012 12.7476C6.70665 13.0898 7.40911 13.2291 8.14551 13.1929L8.45508 13.1665C9.17057 13.0788 9.84084 12.8145 10.3428 12.4331C10.9143 11.9987 11.2372 11.4419 11.2373 10.8394C11.2372 10.2855 11.0755 9.90951 10.8291 9.62744C10.6474 9.41951 10.668 9.1031 10.876 8.92139ZM7.99219 2.00146C9.6219 1.97537 11.1837 2.86432 11.9219 4.52197C12.0337 4.77386 11.9205 5.06963 11.6689 5.18213C11.4169 5.29432 11.1213 5.18095 11.0088 4.9292C10.4415 3.65478 9.25684 2.9807 8.00879 3.00049H8.00781C7.2108 3.0132 6.46417 3.24867 5.93066 3.63135C5.40391 4.00935 5.10361 4.5125 5.10352 5.09912C5.10362 5.75227 5.34305 6.15913 5.71973 6.46338C6.11467 6.78218 6.6796 7.00194 7.36621 7.19971H14C14.276 7.19981 14.5 7.42366 14.5 7.69971C14.5 7.97578 14.2761 8.1996 14 8.19971H2C1.72386 8.19971 1.5 7.97585 1.5 7.69971C1.50004 7.4236 1.72388 7.19971 2 7.19971H5.0459C4.46705 6.71268 4.10362 6.0364 4.10352 5.09912C4.10361 4.1239 4.61819 3.34231 5.34766 2.81885C6.07078 2.30014 7.02315 2.01686 7.99219 2.00146Z" fill="currentColor"/>
</svg>
