<svg width="16" height="16" viewBox="0 0 16 16" fill="none" xmlns="http://www.w3.org/2000/svg">
<path d="M14 7.5C14.276 7.5 14.4998 7.72401 14.5 8C14.4997 8.27592 14.276 8.5 14 8.5H11.6387C12.1714 9.06664 12.5 9.82789 12.5 10.667C12.4997 12.4157 11.0817 13.834 9.33301 13.834H6.66699C4.91825 13.834 3.50026 12.4157 3.5 10.667C3.5 10.3909 3.72386 10.167 4 10.167C4.27614 10.167 4.5 10.3909 4.5 10.667C4.50026 11.8634 5.47054 12.834 6.66699 12.834H9.33301C10.5295 12.834 11.4997 11.8634 11.5 10.667C11.5 9.47038 10.5296 8.5 9.33301 8.5H2C1.72402 8.5 1.50026 8.27592 1.5 8C1.50018 7.72401 1.72397 7.5 2 7.5H14ZM9.33301 2.16602C11.0819 2.16602 12.5 3.58508 12.5 5.33398C12.4996 5.60975 12.2759 5.83398 12 5.83398C11.7241 5.83398 11.5004 5.60975 11.5 5.33398C11.5 4.13737 10.5296 3.16699 9.33301 3.16699H6.66699C5.47038 3.16699 4.5 4.13737 4.5 5.33398C4.49956 5.60975 4.27587 5.83398 4 5.83398C3.72413 5.83398 3.50044 5.60975 3.5 5.33398C3.5 3.58508 4.91809 2.16602 6.66699 2.16602H9.33301Z" fill="currentColor"/>
</svg>
