<svg width="16" height="16" viewBox="0 0 16 16" fill="none" xmlns="http://www.w3.org/2000/svg">
<path d="M10 0.5C10.6558 0.5 11.2111 0.921518 11.415 1.50781C11.4427 1.50307 11.471 1.5 11.5 1.5C12.8807 1.5 14 2.61929 14 4V12.5C14 13.8807 12.8807 15 11.5 15H4.5C3.11929 15 2 13.8807 2 12.5V4C2 2.61929 3.11929 1.5 4.5 1.5H4.58691C4.79297 0.91766 5.34707 0.5 6 0.5H10ZM11.415 2.49121C11.2114 3.07796 10.6561 3.5 10 3.5H6C5.34707 3.5 4.79297 3.08234 4.58691 2.5H4.5C3.67157 2.5 3 3.17157 3 4V12.5C3 13.3284 3.67157 14 4.5 14H11.5C12.3284 14 13 13.3284 13 12.5V4C13 3.17157 12.3284 2.5 11.5 2.5C11.4709 2.5 11.4427 2.49597 11.415 2.49121ZM10.75 8.25C11.0261 8.25 11.25 8.47386 11.25 8.75C11.25 9.02614 11.0261 9.25 10.75 9.25H5.25C4.97386 9.25 4.75 9.02614 4.75 8.75C4.75 8.47386 4.97386 8.25 5.25 8.25H10.75ZM10.75 5.25C11.0261 5.25 11.25 5.47386 11.25 5.75C11.25 6.02614 11.0261 6.25 10.75 6.25H5.25C4.97386 6.25 4.75 6.02614 4.75 5.75C4.75 5.47386 4.97386 5.25 5.25 5.25H10.75ZM6 1.5C5.72386 1.5 5.5 1.72386 5.5 2C5.5 2.27614 5.72386 2.5 6 2.5H10C10.2761 2.5 10.5 2.27614 10.5 2C10.5 1.72386 10.2761 1.5 10 1.5H6Z" fill="currentColor"/>
</svg>
