<svg width="16" height="16" viewBox="0 0 16 16" fill="none" xmlns="http://www.w3.org/2000/svg">
<g clip-path="url(#clip0_785_70503)">
<path fill-rule="evenodd" clip-rule="evenodd" d="M7.5 14.2303V11.969C5.69076 11.7433 4.25681 10.3093 4.03118 8.5H1.76971C2.01137 11.5531 4.44695 13.9886 7.5 14.2303ZM14.2303 8.5C13.9886 11.5531 11.5531 13.9886 8.5 14.2303V11.969C10.3094 11.7435 11.7436 10.3094 11.9693 8.5H14.2303ZM14.2303 7.5H11.9693C11.7437 5.69054 10.3095 4.2564 8.5 4.03087V1.76971C11.5531 2.01137 13.9886 4.44695 14.2303 7.5ZM7.5 1.76971V4.03092C5.69073 4.25664 4.25676 5.69069 4.03116 7.5H1.76971C2.01137 4.44695 4.44695 2.01137 7.5 1.76971ZM15.25 8C15.25 12.0041 12.0041 15.25 8 15.25C3.99594 15.25 0.75 12.0041 0.75 8C0.75 3.99594 3.99594 0.75 8 0.75C12.0041 0.75 15.25 3.99594 15.25 8ZM11.0002 7.99995C11.0002 9.6568 9.65708 10.9999 8.00022 10.9999C6.34337 10.9999 5.00022 9.6568 5.00022 7.99995C5.00022 6.34309 6.34337 4.99995 8.00022 4.99995C9.65708 4.99995 11.0002 6.34309 11.0002 7.99995Z" fill="currentColor"/>
</g>
<defs>
<clipPath id="clip0_785_70503">
<rect width="16" height="16" fill="white"/>
</clipPath>
</defs>
</svg>
