<svg width="16" height="16" viewBox="0 0 16 16" fill="none" xmlns="http://www.w3.org/2000/svg">
<path d="M14.3748 8.3748C15.1558 9.15584 15.1558 10.4222 14.3748 11.2032L10.8393 14.7388C10.0582 15.5198 8.79188 15.5198 8.01083 14.7388L2.58255 9.31047L2.47551 9.19101C2.27606 8.9436 2.15998 8.63905 2.14475 8.32162L2.14613 8.16142L2.3816 4.15425C2.42367 3.4429 2.9582 2.86622 3.65011 2.76006L3.79029 2.74556L7.79746 2.51009C8.17152 2.48809 8.53829 2.60668 8.82705 2.83948L8.94651 2.94651L14.3748 8.3748ZM8.2394 3.65362C8.13842 3.55269 7.99868 3.49953 7.85616 3.50791L3.84899 3.74338C3.59634 3.75849 3.39453 3.96031 3.37942 4.21295L3.14395 8.22012C3.13557 8.36264 3.18873 8.50238 3.28965 8.60336L8.71794 14.0316C9.10847 14.4222 9.74163 14.4222 10.1322 14.0316L13.6677 10.4961C14.0582 10.1056 14.0582 9.47243 13.6677 9.0819L8.2394 3.65362ZM6.34043 5.29018C6.73087 5.68071 6.73093 6.3139 6.34043 6.70439C5.94994 7.09489 5.31675 7.09483 4.92622 6.70439C4.5357 6.31387 4.5357 5.68071 4.92622 5.29018C5.31674 4.89966 5.94991 4.89966 6.34043 5.29018Z" fill="currentColor"/>
</svg>
