<svg width="16" height="16" viewBox="0 0 16 16" fill="none" xmlns="http://www.w3.org/2000/svg">
<path d="M6.51172 1.41357C7.93179 1.09273 9.41817 1.23913 10.748 1.83154C11.0012 1.94435 11.1154 2.2414 11.0029 2.49463C10.89 2.74799 10.5922 2.8624 10.3389 2.74951C9.20691 2.24531 7.94212 2.11999 6.7334 2.39307C5.52452 2.66624 4.43611 3.32302 3.63086 4.26514C2.82561 5.20728 2.34625 6.3849 2.26465 7.62158C2.18318 8.85794 2.50354 10.0879 3.17773 11.1274C3.85223 12.1671 4.84541 12.9615 6.00781 13.3911C7.17041 13.8206 8.44134 13.8626 9.62988 13.5112C10.8184 13.1598 11.8614 12.4336 12.6035 11.4409C13.3455 10.4484 13.7472 9.24263 13.748 8.00342V7.42822C13.7482 7.15107 13.9728 6.92642 14.25 6.92627C14.5273 6.92627 14.7518 7.15098 14.752 7.42822V8.00342C14.7511 9.45944 14.28 10.8763 13.4082 12.0425C12.5364 13.2087 11.3104 14.0623 9.91406 14.4751C8.51802 14.8877 7.02571 14.8379 5.66016 14.3335C4.29447 13.8289 3.12838 12.8957 2.33594 11.6743C1.54358 10.4529 1.1669 9.00795 1.2627 7.55518C1.35856 6.10247 1.92132 4.71954 2.86719 3.61279C3.81312 2.50607 5.09165 1.73453 6.51172 1.41357ZM13.8945 2.64502C14.0904 2.44898 14.4082 2.4486 14.6045 2.64404C14.8006 2.83997 14.8012 3.15775 14.6055 3.354L8.35547 9.61084C8.2613 9.7051 8.13324 9.75827 8 9.7583C7.8669 9.75823 7.73865 9.70496 7.64453 9.61084L5.76953 7.73584C5.57397 7.53977 5.57385 7.22188 5.76953 7.02588C5.96557 6.82984 6.28431 6.83002 6.48047 7.02588L7.99902 8.54443L13.8945 2.64502Z" fill="currentColor"/>
</svg>
