<svg width="16" height="16" viewBox="0 0 16 16" fill="none" xmlns="http://www.w3.org/2000/svg">
<path d="M13 1.5C14.1046 1.5 15 2.39545 15 3.5V12.5C15 13.5356 14.2128 14.387 13.2041 14.4893L13 14.5H3L2.7959 14.4893C1.85435 14.3938 1.1062 13.6457 1.01074 12.7041L1 12.5V3.5C1.00002 2.39545 1.89545 1.5 3 1.5H13ZM3 2.5C2.44773 2.5 2.00002 2.94774 2 3.5V12.5C2 13.0523 2.44772 13.5 3 13.5H5.5V2.5H3ZM6.5 7.5V13.5H13C13.5523 13.5 14 13.0523 14 12.5V7.5H6.5ZM6.5 6.5H14V3.5C14 2.94774 13.5523 2.5 13 2.5H6.5V6.5Z" fill="currentColor"/>
</svg>
