<svg width="16" height="16" viewBox="0 0 16 16" fill="none" xmlns="http://www.w3.org/2000/svg">
<g clip-path="url(#clip0_8823_76241)">
<path fill-rule="evenodd" clip-rule="evenodd" d="M14.25 8C14.25 11.4518 11.4518 14.25 8 14.25C4.54822 14.25 1.75 11.4518 1.75 8C1.75 4.54822 4.54822 1.75 8 1.75C11.4518 1.75 14.25 4.54822 14.25 8ZM15.25 8C15.25 12.0041 12.0041 15.25 8 15.25C3.99594 15.25 0.75 12.0041 0.75 8C0.75 3.99594 3.99594 0.75 8 0.75C12.0041 0.75 15.25 3.99594 15.25 8ZM8.5 3C8.5 2.72386 8.27614 2.5 8 2.5C7.72386 2.5 7.5 2.72386 7.5 3V3.0001C7.5 3.27624 7.72386 3.5001 8 3.5001C8.27614 3.5001 8.5 3.27624 8.5 3.0001V3ZM8 12.5C8.27614 12.5 8.5 12.7239 8.5 13V13.0001C8.5 13.2762 8.27614 13.5001 8 13.5001C7.72386 13.5001 7.5 13.2762 7.5 13.0001V13C7.5 12.7239 7.72386 12.5 8 12.5ZM13 7.5C12.7239 7.5 12.5 7.72386 12.5 8C12.5 8.27614 12.7239 8.5 13 8.5H13.0001C13.2762 8.5 13.5001 8.27614 13.5001 8C13.5001 7.72386 13.2762 7.5 13.0001 7.5H13ZM2.5 8C2.5 7.72386 2.72386 7.5 3 7.5H3.0001C3.27624 7.5 3.5001 7.72386 3.5001 8C3.5001 8.27614 3.27624 8.5 3.0001 8.5H3C2.72386 8.5 2.5 8.27614 2.5 8ZM4.14645 4.85355C3.95118 4.65829 3.95118 4.34171 4.14645 4.14645C4.34171 3.95118 4.65829 3.95118 4.85355 4.14645L4.85362 4.14652C5.04889 4.34178 5.04889 4.65836 4.85362 4.85362C4.65836 5.04889 4.34178 5.04889 4.14652 4.85362L4.14645 4.85355ZM4.14645 11.1464C3.95118 11.3417 3.95118 11.6583 4.14645 11.8536L4.14652 11.8536C4.34178 12.0489 4.65836 12.0489 4.85362 11.8536C5.04889 11.6584 5.04889 11.3418 4.85362 11.1465L4.85355 11.1464C4.65829 10.9512 4.34171 10.9512 4.14645 11.1464ZM11.1464 4.85355C10.9512 4.65829 10.9512 4.34171 11.1464 4.14645C11.3417 3.95118 11.6583 3.95118 11.8536 4.14645L11.8536 4.14652C12.0489 4.34178 12.0489 4.65836 11.8536 4.85362C11.6584 5.04889 11.3418 5.04889 11.1465 4.85362L11.1464 4.85355ZM11.1464 11.1464C10.9512 11.3417 10.9512 11.6583 11.1464 11.8536L11.1465 11.8536C11.3418 12.0489 11.6584 12.0489 11.8536 11.8536C12.0489 11.6584 12.0489 11.3418 11.8536 11.1465L11.8536 11.1464C11.6583 10.9512 11.3417 10.9512 11.1464 11.1464ZM11.4941 7.50004C11.7702 7.49687 11.9966 7.71814 11.9998 7.99427C12.003 8.27039 11.7817 8.4968 11.5056 8.49998L8.00573 8.54018L7.49999 8.54599V8.04021L7.49999 4.50001C7.49999 4.22387 7.72385 4.00001 7.99999 4.00001C8.27613 4.00001 8.49999 4.22387 8.49999 4.50001V7.53443L11.4941 7.50004Z" fill="currentColor"/>
<circle cx="8" cy="8" r="1.25" fill="white" stroke="currentColor"/>
</g>
<defs>
<clipPath id="clip0_8823_76241">
<rect width="16" height="16" fill="white"/>
</clipPath>
</defs>
</svg>
