<svg width="16" height="16" viewBox="0 0 16 16" fill="none" xmlns="http://www.w3.org/2000/svg">
<path d="M7.56641 12.7002C7.84255 12.7002 8.06641 12.9241 8.06641 13.2002C8.06622 13.4762 7.84244 13.7002 7.56641 13.7002H1.5C1.22406 13.7001 1.00018 13.4761 1 13.2002C1 12.9241 1.22395 12.7003 1.5 12.7002H7.56641ZM14.5 9.2334C14.776 9.23361 15 9.45739 15 9.7334C14.9999 10.0093 14.7759 10.2332 14.5 10.2334H1.5C1.22403 10.2333 1.00013 10.0094 1 9.7334C1 9.45732 1.22395 9.23351 1.5 9.2334H14.5ZM3.56934 2.45898C3.78682 2.52649 3.96526 2.69308 4.04297 2.91602L5.2168 6.29102C5.31837 6.58339 5.10155 6.88867 4.79199 6.88867H4.77441C4.57659 6.88849 4.40241 6.7586 4.34473 6.56934L4.11133 5.80566H2.53613L2.30273 6.57031C2.24483 6.75942 2.06986 6.88867 1.87207 6.88867H1.85742C1.54804 6.88853 1.33114 6.58333 1.43262 6.29102L2.59961 2.92969C2.70432 2.62811 2.98841 2.42597 3.30762 2.42578H3.56934V2.45898ZM14.5 5.7666C14.7759 5.76686 15 5.99062 15 6.2666C14.9999 6.54252 14.7759 6.76635 14.5 6.7666H7.56641C7.29038 6.76652 7.06648 6.54263 7.06641 6.2666C7.06641 5.99051 7.29033 5.76668 7.56641 5.7666H14.5ZM2.75 5.10742H3.89844L3.35254 3.31641H3.29688L2.75 5.10742ZM14.5 2.2998C14.7759 2.30006 14.9999 2.52391 15 2.7998C15 3.07579 14.7759 3.29955 14.5 3.2998H7.56641C7.29033 3.29972 7.06641 3.0759 7.06641 2.7998C7.06651 2.5238 7.2904 2.29989 7.56641 2.2998H14.5Z" fill="currentColor"/>
</svg>
