<svg width="16" height="16" viewBox="0 0 16 16" fill="none" xmlns="http://www.w3.org/2000/svg">
<path fill-rule="evenodd" clip-rule="evenodd" d="M8 1C8.27614 1 8.5 1.22386 8.5 1.5V2.8C8.5 3.07614 8.27614 3.3 8 3.3C7.72386 3.3 7.5 3.07614 7.5 2.8V1.5C7.5 1.22386 7.72386 1 8 1ZM13.2936 2.64645C13.4888 2.84171 13.4888 3.15829 13.2936 3.35355L12.2936 4.35355C12.0983 4.54882 11.7817 4.54882 11.5864 4.35355C11.3912 4.15829 11.3912 3.84171 11.5864 3.64645L12.5864 2.64645C12.7817 2.45118 13.0983 2.45118 13.2936 2.64645ZM13.2 7.5C12.9239 7.5 12.7 7.72386 12.7 8C12.7 8.27614 12.9239 8.5 13.2 8.5H14.5C14.7761 8.5 15 8.27614 15 8C15 7.72386 14.7761 7.5 14.5 7.5H13.2ZM11.5866 11.5861C11.7818 11.3908 12.0984 11.3908 12.2937 11.5861L13.2937 12.5861C13.489 12.7814 13.489 13.0979 13.2937 13.2932C13.0984 13.4885 12.7818 13.4885 12.5866 13.2932L11.5866 12.2932C11.3913 12.0979 11.3913 11.7814 11.5866 11.5861ZM8.5 13.2C8.5 12.9239 8.27614 12.7 8 12.7C7.72386 12.7 7.5 12.9239 7.5 13.2V14.5C7.5 14.7761 7.72386 15 8 15C8.27614 15 8.5 14.7761 8.5 14.5V13.2ZM4.35375 11.5861C4.54901 11.7814 4.54901 12.0979 4.35375 12.2932L3.35375 13.2932C3.15849 13.4885 2.8419 13.4885 2.64664 13.2932C2.45138 13.0979 2.45138 12.7814 2.64664 12.5861L3.64664 11.5861C3.8419 11.3908 4.15849 11.3908 4.35375 11.5861ZM1.5 7.5C1.22386 7.5 1 7.72386 1 8C1 8.27614 1.22386 8.5 1.5 8.5H2.8C3.07614 8.5 3.3 8.27614 3.3 8C3.3 7.72386 3.07614 7.5 2.8 7.5H1.5ZM2.70651 2.70645C2.90177 2.51118 3.21835 2.51118 3.41361 2.70645L4.41361 3.70645C4.60887 3.90171 4.60887 4.21829 4.41361 4.41355C4.21835 4.60882 3.90177 4.60882 3.70651 4.41355L2.70651 3.41355C2.51124 3.21829 2.51124 2.90171 2.70651 2.70645ZM5.5002 7.99995C5.5002 6.61924 6.61948 5.49995 8.0002 5.49995C9.38091 5.49995 10.5002 6.61924 10.5002 7.99995C10.5002 9.38066 9.38091 10.5 8.0002 10.5C6.61948 10.5 5.5002 9.38066 5.5002 7.99995ZM8.0002 4.49995C6.0672 4.49995 4.5002 6.06695 4.5002 7.99995C4.5002 9.93295 6.0672 11.5 8.0002 11.5C9.93319 11.5 11.5002 9.93295 11.5002 7.99995C11.5002 6.06695 9.93319 4.49995 8.0002 4.49995Z" fill="currentColor"/>
</svg>
