<svg width="16" height="16" viewBox="0 0 16 16" fill="none" xmlns="http://www.w3.org/2000/svg">
<path d="M10.8926 6.31934C11.0704 6.25724 11.2646 6.25721 11.4424 6.31934L11.5303 6.35547L11.5986 6.39355C11.7487 6.48853 11.8391 6.62497 11.8926 6.71484C11.9586 6.82582 12.027 6.9722 12.0996 7.12402L14.0098 11.1172L15.2852 13.7842C15.4041 14.0331 15.2986 14.3319 15.0498 14.4512C14.8008 14.5701 14.502 14.4647 14.3828 14.2158L13.2432 11.833H9.0918L7.95215 14.2158C7.83306 14.4648 7.53418 14.57 7.28516 14.4512C7.03606 14.332 6.93067 14.0333 7.0498 13.7842L8.3252 11.1172L10.2354 7.12402C10.308 6.97217 10.3774 6.8258 10.4434 6.71484C10.5046 6.61195 10.6137 6.44818 10.8057 6.35547L10.8926 6.31934ZM5.60156 1.50977C5.8293 1.55647 6.00098 1.75845 6.00098 2V2.83301H9.50098L9.60156 2.84277C9.8292 2.88952 10.0008 3.0916 10.001 3.33301C10.001 3.60899 9.7769 3.83275 9.50098 3.83301H8.25C7.9079 5.53937 7.24421 7.10613 6.30957 8.46973C6.55481 8.63066 6.79978 8.76943 7.03906 8.87695C7.29061 8.99023 7.40301 9.28637 7.29004 9.53809C7.17697 9.78975 6.88163 9.90173 6.62988 9.78906C6.32049 9.65006 6.01126 9.47382 5.70996 9.27246C4.63758 10.5867 3.29071 11.6694 1.72363 12.4482C1.47642 12.571 1.17567 12.4698 1.05273 12.2227C0.929904 11.9754 1.03106 11.6746 1.27832 11.5518C2.70864 10.8409 3.93604 9.85692 4.91504 8.66406C4.12102 7.97235 3.42165 7.09745 3.04004 6.19434C2.93282 5.94005 3.05239 5.64649 3.30664 5.53906C3.56084 5.43214 3.85455 5.55155 3.96191 5.80566C4.2642 6.52082 4.83691 7.25567 5.51562 7.85938C6.21996 6.8208 6.75491 5.65152 7.09375 4.38281L7.22754 3.83301H1.50098C1.22483 3.83301 1.00098 3.60915 1.00098 3.33301C1.00115 3.05702 1.22494 2.83301 1.50098 2.83301H5.00098V2C5.00098 1.72386 5.22483 1.5 5.50098 1.5L5.60156 1.50977ZM11.1377 7.55469L9.57031 10.833H12.7646L11.1973 7.55469C11.1872 7.53355 11.1761 7.51404 11.167 7.49512C11.158 7.51393 11.1477 7.53369 11.1377 7.55469Z" fill="currentColor"/>
</svg>
