<svg width="16" height="16" viewBox="0 0 16 16" fill="none" xmlns="http://www.w3.org/2000/svg">
<path d="M14 13.0752C14.3728 13.0752 14.6748 13.3772 14.6748 13.75C14.6748 14.1228 14.3728 14.4248 14 14.4248H2C1.62721 14.4248 1.3252 14.1228 1.3252 13.75C1.3252 13.3772 1.62721 13.0752 2 13.0752H14ZM5.90039 1.9502C6.27296 1.95046 6.5752 2.25237 6.5752 2.625C6.5752 2.99763 6.27296 3.29954 5.90039 3.2998H5.36719V7.89844C5.3672 9.5703 6.40626 10.625 8.03906 10.625C9.67968 10.625 10.7187 9.56249 10.7188 7.89844V3.2998H10.1006C9.72779 3.2998 9.42578 2.99779 9.42578 2.625C9.42578 2.25221 9.72779 1.9502 10.1006 1.9502H12.6006C12.9732 1.95046 13.2754 2.25237 13.2754 2.625C13.2754 2.99763 12.9732 3.29954 12.6006 3.2998H12.0859V7.92969C12.0859 10.2734 10.4609 11.8516 8.03906 11.8516C5.48438 11.8516 4.00001 10.2578 4 7.89844V3.2998H3.40039C3.0276 3.2998 2.72461 2.99779 2.72461 2.625C2.72461 2.25221 3.0276 1.9502 3.40039 1.9502H5.90039Z" fill="currentColor"/>
</svg>
