<svg width="16" height="16" viewBox="0 0 16 16" fill="none" xmlns="http://www.w3.org/2000/svg">
<path fill-rule="evenodd" clip-rule="evenodd" d="M1.64673 1.64634C1.84197 1.45123 2.15853 1.45121 2.35376 1.64634L4.69165 3.98423H6.52466C6.80078 3.98423 7.02462 4.20811 7.02466 4.48423C7.02466 4.76037 6.8008 4.98423 6.52466 4.98423H5.69165L8.20532 7.4979H10.0081C10.2841 7.49802 10.5081 7.72183 10.5081 7.9979C10.5079 8.27387 10.284 8.49778 10.0081 8.4979H9.20532L11.7092 11.0018C13.2677 10.8861 14.4961 9.58589 14.4963 7.9979C14.4963 6.33362 13.1469 4.98426 11.4827 4.98423H9.47485C9.19902 4.98405 8.97511 4.76005 8.97485 4.48423C8.97497 4.20829 9.19893 3.9844 9.47485 3.98423H11.4827C13.6992 3.98426 15.4963 5.78134 15.4963 7.9979C15.4961 9.83798 14.2575 11.3876 12.5686 11.8612L14.3538 13.6463C14.5489 13.8416 14.5489 14.1581 14.3538 14.3534C14.1585 14.5486 13.842 14.5485 13.6467 14.3534L11.3049 12.0116H9.47485C9.19902 12.0114 8.97511 11.7874 8.97485 11.5116C8.97485 11.2355 9.19886 11.0117 9.47485 11.0116H10.3049L7.79126 8.4979H5.99243C5.71642 8.49783 5.49255 8.2739 5.49243 7.9979C5.49243 7.7218 5.71634 7.49796 5.99243 7.4979H6.79126L4.28638 4.99302C2.72982 5.11085 1.50321 6.4112 1.50317 7.9979C1.50323 9.66212 2.85263 11.0115 4.51685 11.0116H6.52466C6.80078 11.0116 7.02462 11.2355 7.02466 11.5116C7.02454 11.7876 6.80073 12.0116 6.52466 12.0116H4.51685C2.30035 12.0115 0.503231 10.2144 0.503174 7.9979C0.503203 6.15883 1.74063 4.60934 3.42798 4.13462L1.64673 2.35337C1.45157 2.1581 1.4515 1.84157 1.64673 1.64634Z" fill="currentColor"/>
</svg>
