<svg width="16" height="16" viewBox="0 0 16 16" fill="none" xmlns="http://www.w3.org/2000/svg">
<path fill-rule="evenodd" clip-rule="evenodd" d="M12.3705 4.61033L11.4595 5.52132L11.809 8.89575C11.8528 9.3187 12.0038 9.72349 12.2476 10.0718L13.1964 11.4272H5.55359L4.55359 12.4272H7.53076V14.9961C7.53076 15.2723 7.75462 15.4961 8.03076 15.4961C8.3069 15.4961 8.53076 15.2723 8.53076 14.9961V12.4272H13.1964C14.0054 12.4272 14.4795 11.5165 14.0156 10.8537L13.0668 9.49838C12.9205 9.28937 12.83 9.04649 12.8037 8.79272L12.3705 4.61033ZM1.8197 13.749C1.62381 13.935 1.31418 13.9319 1.12203 13.7398C0.92677 13.5445 0.92677 13.2279 1.12203 13.0327L2.0546 12.1001C1.76195 11.7749 1.68728 11.2663 1.97606 10.8537L2.91824 9.50777C3.06767 9.29429 3.15891 9.04557 3.18298 8.78611L3.69329 3.28425C3.81255 1.99851 4.89135 1.01514 6.18261 1.01514H9.74365C10.6574 1.01514 11.4657 1.50781 11.902 2.25276L13.122 1.03268C13.3173 0.837415 13.6339 0.837415 13.8291 1.03268C14.0151 1.21868 14.024 1.51478 13.8556 1.71122C13.8524 1.71424 13.8493 1.71731 13.8462 1.72042L1.84615 13.7204C1.8369 13.7297 1.82808 13.7392 1.8197 13.749ZM9.74365 2.01514C10.3864 2.01514 10.9421 2.42138 11.1532 3.00148L2.95344 11.2013L3.73747 10.0812C3.98652 9.72544 4.1386 9.3109 4.1787 8.87846L4.68902 3.3766C4.76057 2.60516 5.40785 2.01514 6.18261 2.01514H9.74365Z" fill="currentColor"/>
</svg>
