<svg width="16" height="16" viewBox="0 0 16 16" fill="none" xmlns="http://www.w3.org/2000/svg">
<path fill-rule="evenodd" clip-rule="evenodd" d="M3.01841 1.02569L2.97108 0.95942C2.81057 0.734713 2.4983 0.682668 2.27359 0.843172C2.04888 1.00368 1.99684 1.31595 2.15734 1.54066L3.15939 2.94353C1.82866 4.21778 1 6.01216 1 8.00008C1 11.8661 4.13401 15.0001 8 15.0001C9.15869 15.0001 10.2516 14.7186 11.2141 14.2202L12.1573 15.5407C12.3178 15.7654 12.6301 15.8174 12.8548 15.6569C13.0746 15.4999 13.1292 15.1978 12.9813 14.9743L3.02868 1.04062C3.02516 1.03568 3.02173 1.03071 3.01841 1.02569ZM12.8405 13.0567C14.1713 11.7825 15 9.98805 15 8.00008C15 4.13408 11.866 1.00008 8 1.00008C6.84126 1.00008 5.74828 1.28162 4.78574 1.78004L5.37407 2.6037C5.74983 2.42052 6.14757 2.27542 6.56226 2.17344C6.29255 2.52069 6.06413 2.90037 5.8714 3.29996L6.54998 4.24998C6.88267 3.38235 7.35483 2.64392 8 2.12048C8.70548 2.69285 9.20408 3.52227 9.53968 4.49659C9.86068 5.42854 10.0232 6.46733 10.0797 7.47785C9.68729 7.47824 9.2849 7.48052 8.86123 7.48573L9.57102 8.47942C9.7439 8.47847 9.91396 8.47795 10.0822 8.47779C10.0708 8.69305 10.0546 8.90968 10.0331 9.12638L10.8772 10.3081C10.9889 9.69697 11.0536 9.07899 11.0834 8.48046C11.4268 8.48241 11.7707 8.48519 12.124 8.48804L12.1244 8.48804L12.1246 8.48804C12.7046 8.49272 13.3098 8.4976 13.9795 8.49938C13.8598 9.95233 13.2224 11.2585 12.2522 12.2331L12.8405 13.0567ZM2.02062 7.49904C2.14068 6.04683 2.77791 4.74132 3.74768 3.76714L5.12275 5.69223C5.01358 6.28967 4.94935 6.89364 4.9187 7.47958C4.42495 7.48177 3.94277 7.48563 3.47006 7.48942C2.97742 7.49337 2.49506 7.49724 2.02062 7.49904ZM5.92025 7.47798C5.93148 7.27741 5.94688 7.07572 5.96686 6.87398L6.39947 7.47963C6.23843 7.47877 6.07872 7.47824 5.92025 7.47798ZM5.91784 8.47792C6.30968 8.47855 6.70927 8.4809 7.11814 8.48577L9.44996 11.7503C9.11728 12.6179 8.64514 13.3563 8.00001 13.8797C7.29453 13.3073 6.79592 12.4779 6.46032 11.5036C6.13462 10.558 5.9721 9.50237 5.91784 8.47792ZM9.43774 13.8267C9.70742 13.4795 9.93582 13.0999 10.1285 12.7003L10.6258 13.3965C10.2501 13.5797 9.85239 13.7247 9.43774 13.8267ZM4.91661 8.47958C4.4342 8.48176 3.96219 8.48556 3.49741 8.48929L3.49714 8.4893L3.49677 8.4893C2.9976 8.49331 2.50679 8.49726 2.02045 8.49906C2.2341 11.094 4.09907 13.221 6.56227 13.8267C6.1023 13.2345 5.76241 12.548 5.51484 11.8292C5.14541 10.7567 4.97157 9.58495 4.91661 8.47958ZM13.9794 7.49936C13.3241 7.49758 12.7264 7.49279 12.1508 7.48816C11.7885 7.48526 11.435 7.48242 11.0814 7.48045C11.0242 6.38689 10.8501 5.23049 10.4852 4.17093C10.2376 3.45216 9.89771 2.76565 9.43774 2.17344C11.9004 2.77905 13.7651 4.90516 13.9794 7.49936Z" fill="currentColor"/>
</svg>
