<svg width="16" height="16" viewBox="0 0 16 16" fill="none" xmlns="http://www.w3.org/2000/svg">
<path fill-rule="evenodd" clip-rule="evenodd" d="M7.07666 2.57031C4.20177 3.01429 2.00062 5.50083 2.00049 8.5C2.00055 9.96685 2.52763 11.3101 3.40186 12.3525C3.83919 11.6324 4.44224 11.0245 5.16357 10.582C5.45216 10.4051 5.75658 10.2578 6.0708 10.1396C5.31736 9.5598 4.82974 8.65106 4.82959 7.62695C4.82985 5.87597 6.24955 4.45654 8.00049 4.45605C9.75183 4.45605 11.1721 5.87567 11.1724 7.62695C11.1722 8.67058 10.6655 9.59293 9.88721 10.1709C10.1734 10.2837 10.4509 10.4199 10.7153 10.582C11.4642 11.0413 12.0851 11.6792 12.5259 12.4355C13.4428 11.3819 14.0004 10.0064 14.0005 8.5C14.0005 7.8551 13.8991 7.23424 13.7114 6.65332L14.187 6.5L14.6626 6.3457C14.882 7.02474 15.0005 7.74948 15.0005 8.5C15.0003 12.3657 11.8662 15.4997 8.00049 15.5C4.13459 15.5 1.00064 12.3659 1.00049 8.5C1.00062 4.99989 3.56926 2.10009 6.92432 1.58203L7.07666 2.57031ZM7.93994 10.7988C7.14462 10.7989 6.36402 11.0188 5.68604 11.4346C5.03445 11.8343 4.5007 12.4005 4.14014 13.0732C4.13783 13.0775 4.13376 13.0808 4.13135 13.085C5.176 13.9674 6.52598 14.5 8.00049 14.5C9.4344 14.4999 10.7497 13.9956 11.7817 13.1562V13.1553C11.4211 12.4463 10.871 11.8504 10.1929 11.4346C9.51495 11.0189 8.73517 10.7989 7.93994 10.7988ZM8.00049 5.45605C6.80184 5.45654 5.82985 6.42825 5.82959 7.62695C5.82985 8.82565 6.80184 9.79835 8.00049 9.79883C9.19954 9.79883 10.1721 8.82595 10.1724 7.62695C10.1721 6.42795 9.19955 5.45605 8.00049 5.45605ZM8.70264 1C9.2547 1.00026 9.70264 1.44788 9.70264 2C9.70264 2.55212 9.2547 2.99974 8.70264 3C8.15035 3 7.70264 2.55228 7.70264 2C7.70264 1.44772 8.15035 1 8.70264 1ZM11.7026 1C12.2547 1.00026 12.7026 1.44788 12.7026 2C12.7026 2.55212 12.2547 2.99974 11.7026 3C11.1504 3 10.7026 2.55228 10.7026 2C10.7026 1.44772 11.1504 1 11.7026 1ZM14.7026 1C15.2547 1.00026 15.7026 1.44788 15.7026 2C15.7026 2.55212 15.2547 2.99974 14.7026 3C14.1504 3 13.7026 2.55228 13.7026 2C13.7026 1.44772 14.1504 1 14.7026 1Z" fill="currentColor"/>
</svg>
