<svg width="16" height="16" viewBox="0 0 16 16" fill="none" xmlns="http://www.w3.org/2000/svg">
<path d="M11.8936 7.45703C12.8583 7.45712 13.6406 8.23936 13.6406 9.2041V9.39062C14.4515 9.43431 15.0957 10.104 15.0957 10.9258V13.0039C15.0957 13.8539 14.4066 14.5429 13.5566 14.543H10.2314C9.38156 14.5428 8.69238 13.8538 8.69238 13.0039V10.9258C8.6924 10.1044 9.33617 9.43491 10.1465 9.39062V9.2041C10.1465 8.23939 10.9289 7.45717 11.8936 7.45703ZM7.97461 7.39648C8.34043 7.41378 8.72242 7.46674 9.10742 7.55176C9.377 7.61131 9.54772 7.87789 9.48828 8.14746C9.42874 8.41693 9.16205 8.58758 8.89258 8.52832C8.55811 8.45444 8.23208 8.40992 7.92773 8.39551C7.11478 8.35714 6.09988 8.68855 5.19336 9.2793C4.28718 9.86986 3.56854 10.6676 3.28027 11.4736C3.19384 11.7156 3.27427 11.9883 3.49805 12.1582C3.99122 12.5319 4.94702 13.0658 6.56152 13.2695C6.85695 13.3068 7.17506 13.3335 7.5166 13.3457C7.79257 13.3555 8.00885 13.5873 7.99902 13.8633C7.98908 14.1391 7.75724 14.3544 7.48145 14.3447C7.11068 14.3315 6.76252 14.3028 6.43652 14.2617C4.64615 14.0358 3.52582 13.4344 2.89453 12.9561C2.34184 12.5372 2.09723 11.8125 2.33887 11.1367C2.724 10.0599 3.62639 9.10791 4.64746 8.44238C5.66844 7.77705 6.88894 7.34523 7.97461 7.39648ZM10.2314 10.3867C9.93385 10.3869 9.6924 10.6282 9.69238 10.9258V13.0039C9.69238 13.3015 9.93384 13.5428 10.2314 13.543H13.5566C13.8543 13.5429 14.0957 13.3016 14.0957 13.0039V10.9258C14.0957 10.6281 13.8543 10.3868 13.5566 10.3867H10.2314ZM11.8936 8.45703C11.4812 8.45717 11.1465 8.79168 11.1465 9.2041V9.38672H12.6406V9.2041C12.6406 8.79164 12.306 8.45712 11.8936 8.45703ZM8.25 1C9.76863 1.00019 11 2.23133 11 3.75C11 5.26867 9.76863 6.49981 8.25 6.5C6.73122 6.5 5.5 5.26878 5.5 3.75C5.5 2.23122 6.73122 1 8.25 1ZM8.25 2C7.2835 2 6.5 2.7835 6.5 3.75C6.5 4.7165 7.2835 5.5 8.25 5.5C9.21634 5.49981 10 4.71638 10 3.75C10 2.78362 9.21634 2.00019 8.25 2Z" fill="currentColor"/>
</svg>
