<svg width="16" height="16" viewBox="0 0 16 16" fill="none" xmlns="http://www.w3.org/2000/svg">
<path d="M8 1C8.158 1 8.31518 1.0053 8.4707 1.01562C8.74624 1.03394 8.95483 1.27232 8.93652 1.54785C8.91799 1.82317 8.67969 2.03197 8.4043 2.01367C8.27085 2.00481 8.13583 2 8 2C4.6859 2.00019 1.99909 4.68683 1.99902 8.00098C1.99908 9.57008 2.60194 10.9982 3.58789 12.0674C4.00424 11.4716 4.53916 10.9648 5.16309 10.582C5.45167 10.4051 5.7561 10.2578 6.07031 10.1396C5.31687 9.5598 4.82926 8.65106 4.8291 7.62695C4.82936 5.87597 6.24907 4.45654 8 4.45605C9.75134 4.45605 11.1716 5.87567 11.1719 7.62695C11.1717 8.67058 10.665 9.59293 9.88672 10.1709C10.1729 10.2837 10.4504 10.4199 10.7148 10.582C11.3644 10.9804 11.9167 11.5138 12.3398 12.1416C13.3679 11.0646 14.0009 9.60747 14.001 8.00098C14.001 7.9036 13.9987 7.80613 13.9941 7.70996C13.9813 7.4345 14.1943 7.20087 14.4697 7.1875C14.7456 7.17437 14.98 7.38726 14.9932 7.66309C14.9985 7.77502 15.001 7.8878 15.001 8.00098C15.0009 11.8675 11.8665 15.002 8 15.002C4.13364 15.0018 0.999135 11.8674 0.999023 8.00098C0.999086 4.13455 4.13361 1.00019 8 1ZM7.93945 10.7988C7.14414 10.7989 6.36353 11.0188 5.68555 11.4346C5.14152 11.7683 4.68044 12.2181 4.33301 12.749C5.34724 13.5335 6.61858 14.0019 8 14.002C9.34393 14.002 10.5847 13.5597 11.585 12.8135C11.2331 12.2547 10.7582 11.7816 10.1924 11.4346C9.51446 11.0189 8.73468 10.7989 7.93945 10.7988ZM8 5.45605C6.80135 5.45654 5.82936 6.42825 5.8291 7.62695C5.82937 8.82565 6.80135 9.79835 8 9.79883C9.19906 9.79883 10.1716 8.82595 10.1719 7.62695C10.1716 6.42795 9.19906 5.45605 8 5.45605ZM12.7021 0.983398C12.9782 0.983553 13.2021 1.20735 13.2021 1.4834V1.86621C13.4023 1.93356 13.5834 2.041 13.7383 2.17773L14.0742 1.98535C14.3133 1.84741 14.6188 1.92891 14.7568 2.16797C14.8948 2.40695 14.813 2.71238 14.5742 2.85059L14.2393 3.04395C14.2592 3.14375 14.2705 3.24688 14.2705 3.35254C14.2705 3.4585 14.2593 3.56205 14.2393 3.66211L14.5742 3.85547C14.8129 3.99365 14.8946 4.29915 14.7568 4.53809C14.6188 4.77679 14.3132 4.8592 14.0742 4.72168L13.7373 4.52734C13.5826 4.6638 13.402 4.77061 13.2021 4.83789V5.22266C13.202 5.49855 12.978 5.7225 12.7021 5.72266C12.4261 5.72266 12.2023 5.49864 12.2021 5.22266V4.83789C12.0027 4.77082 11.8215 4.66531 11.667 4.5293L11.335 4.72168C11.096 4.85925 10.7904 4.77689 10.6523 4.53809C10.5144 4.29911 10.5962 3.99366 10.835 3.85547L11.1641 3.66504C11.1437 3.56411 11.1338 3.45948 11.1338 3.35254C11.1338 3.24557 11.1436 3.14099 11.1641 3.04004L10.835 2.85059C10.5962 2.71241 10.5144 2.40695 10.6523 2.16797C10.7904 1.92905 11.0959 1.84754 11.335 1.98535L11.666 2.17578C11.8207 2.03949 12.0024 1.93335 12.2021 1.86621V1.4834C12.2021 1.20726 12.426 0.983398 12.7021 0.983398ZM12.7021 2.78516C12.3883 2.78526 12.134 3.03874 12.1338 3.35254C12.1338 3.66648 12.3882 3.92079 12.7021 3.9209C13.016 3.92069 13.2705 3.66641 13.2705 3.35254C13.2703 3.0388 13.0159 2.78537 12.7021 2.78516Z" fill="currentColor"/>
</svg>
