<svg width="16" height="16" viewBox="0 0 16 16" fill="none" xmlns="http://www.w3.org/2000/svg">
<path fill-rule="evenodd" clip-rule="evenodd" d="M13.7942 7.93555C13.9894 7.74078 14.3061 7.74069 14.5012 7.93555C14.6963 8.13068 14.696 8.4473 14.5012 8.64258L14.008 9.13574L14.0891 9.2168C14.649 9.77672 14.6488 10.6851 14.0891 11.2451C13.5291 11.8051 12.6208 11.8051 12.0608 11.2451L11.9797 11.1641L11.5725 11.5703C11.7581 11.8793 11.8664 12.2403 11.8664 12.627C11.8663 13.7625 10.9463 14.6824 9.81078 14.6826C8.67526 14.6825 7.75427 13.7625 7.75414 12.627C7.7544 11.4915 8.67533 10.5704 9.81078 10.5703C10.1966 10.5704 10.557 10.6784 10.8655 10.8633L13.7942 7.93555ZM7.97484 7.39648C9.01762 7.44578 10.2093 7.78184 11.2463 8.36914C11.4866 8.50522 11.5708 8.81052 11.4348 9.05078C11.2987 9.2909 10.9934 9.37532 10.7532 9.23926C9.84796 8.72667 8.80864 8.4372 7.92797 8.39551C7.11507 8.35725 6.1 8.68863 5.19359 9.2793C4.28753 9.86985 3.56875 10.6676 3.28051 11.4736C3.19405 11.7158 3.27459 11.9884 3.49828 12.1582C4.00044 12.5388 4.98294 13.0864 6.65356 13.2812C6.92784 13.3132 7.12497 13.5617 7.09301 13.8359C7.06084 14.11 6.81245 14.3063 6.53832 14.2744C4.68836 14.0587 3.53695 13.4426 2.89379 12.9551C2.34151 12.536 2.09768 11.812 2.3391 11.1367C2.72421 10.0599 3.62672 9.1079 4.6477 8.44238C5.66857 7.77712 6.88926 7.34533 7.97484 7.39648ZM9.81078 11.5703C9.22762 11.5704 8.7544 12.0438 8.75414 12.627C8.75427 13.2102 9.22754 13.6825 9.81078 13.6826C10.394 13.6824 10.8663 13.2102 10.8664 12.627C10.8662 12.0438 10.3939 11.5705 9.81078 11.5703ZM12.6868 10.4561L12.7678 10.5381C12.9373 10.7076 13.2126 10.7075 13.3821 10.5381C13.5512 10.3685 13.5515 10.0932 13.3821 9.92383L13.301 9.84277L12.6868 10.4561ZM8.25024 1C9.76901 1.00001 11.0002 2.23122 11.0002 3.75C11.0002 5.26878 9.76901 6.49999 8.25024 6.5C6.73145 6.5 5.50024 5.26878 5.50024 3.75C5.50024 2.23122 6.73145 1 8.25024 1ZM8.25024 2C7.28374 2 6.50024 2.7835 6.50024 3.75C6.50024 4.7165 7.28374 5.5 8.25024 5.5C9.21673 5.49999 10.0002 4.71649 10.0002 3.75C10.0002 2.78351 9.21673 2.00001 8.25024 2Z" fill="currentColor"/>
</svg>
