<svg width="16" height="16" viewBox="0 0 16 16" fill="none" xmlns="http://www.w3.org/2000/svg">
<path fill-rule="evenodd" clip-rule="evenodd" d="M12.1576 9.66406C12.4336 9.66419 12.6576 9.888 12.6576 10.1641V10.6807C12.9279 10.7606 13.1705 10.9046 13.3695 11.0938L13.8207 10.834C14.0598 10.696 14.3653 10.7775 14.5033 11.0166C14.6409 11.2555 14.5593 11.5611 14.3207 11.6992L13.8676 11.96C13.8988 12.0913 13.9183 12.2282 13.9183 12.3691C13.9183 12.5101 13.8989 12.647 13.8676 12.7783L14.3207 13.04C14.5591 13.1783 14.6411 13.4838 14.5033 13.7227C14.3653 13.9613 14.0596 14.0435 13.8207 13.9062L13.3685 13.6445C13.1697 13.8334 12.9276 13.9768 12.6576 14.0566V14.5762C12.6571 14.8518 12.4333 15.076 12.1576 15.0762C11.8818 15.0762 11.6581 14.8519 11.6576 14.5762V14.0566C11.3886 13.9771 11.1471 13.8343 10.9486 13.6465L10.5004 13.9062C10.2615 14.044 9.95597 13.9612 9.81776 13.7227C9.67971 13.4836 9.76134 13.1782 10.0004 13.04L10.4476 12.7812C10.4159 12.649 10.3969 12.5111 10.3969 12.3691C10.3969 12.2273 10.415 12.0892 10.4467 11.957L10.0004 11.6992C9.76148 11.5612 9.68002 11.2556 9.81776 11.0166C9.95588 10.7776 10.2613 10.6959 10.5004 10.834L10.9476 11.0918C11.1463 10.9035 11.3881 10.7604 11.6576 10.6807V10.1641C11.6576 9.88792 11.8815 9.66406 12.1576 9.66406ZM7.97498 7.39648C9.01786 7.44578 10.2094 7.78173 11.2465 8.36914C11.4867 8.50522 11.571 8.81052 11.4349 9.05078C11.2988 9.29104 10.9936 9.37535 10.7533 9.23926C9.84802 8.72656 8.80888 8.43721 7.92811 8.39551C7.11515 8.35712 6.10029 8.68853 5.19373 9.2793C4.28753 9.86986 3.56892 10.6676 3.28065 11.4736C3.19399 11.7162 3.27456 11.9885 3.49842 12.1582C4.11582 12.6262 5.4683 13.3535 7.95155 13.3535C8.22769 13.3535 8.45155 13.5774 8.45155 13.8535C8.45137 14.1295 8.22758 14.3535 7.95155 14.3535C5.25651 14.3535 3.69029 13.5589 2.89393 12.9551C2.34102 12.5358 2.09772 11.8121 2.33924 11.1367C2.72438 10.0598 3.62674 9.10791 4.64784 8.44238C5.66884 7.77704 6.8893 7.34521 7.97498 7.39648ZM12.1576 11.6094C11.7375 11.6094 11.3969 11.949 11.3969 12.3691C11.3971 12.7891 11.7376 13.1299 12.1576 13.1299C12.5775 13.1298 12.9181 12.789 12.9183 12.3691C12.9183 11.9491 12.5776 11.6095 12.1576 11.6094ZM8.25037 1C9.76896 1.00023 11.0004 2.23136 11.0004 3.75C11.0004 5.26864 9.76896 6.49977 8.25037 6.5C6.73159 6.5 5.50037 5.26878 5.50037 3.75C5.50037 2.23122 6.73159 1 8.25037 1ZM8.25037 2C7.28388 2 6.50037 2.7835 6.50037 3.75C6.50037 4.7165 7.28388 5.5 8.25037 5.5C9.21668 5.49977 10.0004 4.71636 10.0004 3.75C10.0004 2.78364 9.21668 2.00023 8.25037 2Z" fill="currentColor"/>
</svg>
