<svg width="16" height="16" viewBox="0 0 16 16" fill="none" xmlns="http://www.w3.org/2000/svg">
<path fill-rule="evenodd" clip-rule="evenodd" d="M7.97494 7.39648C9.01776 7.44578 10.2094 7.78179 11.2464 8.36914C11.4867 8.50522 11.5709 8.81052 11.4349 9.05078C11.2988 9.29096 10.9935 9.37533 10.7533 9.23926C9.84802 8.72662 8.80878 8.4372 7.92806 8.39551C7.11514 8.35719 6.10016 8.68859 5.19369 9.2793C4.28756 9.86985 3.56885 10.6676 3.2806 11.4736C3.194 11.7161 3.27464 11.9885 3.49838 12.1582C4.11576 12.6262 5.4684 13.3534 7.9515 13.3535C8.30821 13.3535 8.6432 13.3386 8.95638 13.3115C9.23149 13.2878 9.4746 13.4915 9.49838 13.7666C9.52188 14.0414 9.31807 14.2837 9.0433 14.3076C8.70073 14.3372 8.33647 14.3535 7.9515 14.3535C5.2566 14.3534 3.69022 13.5588 2.89388 12.9551C2.34109 12.5358 2.09774 11.812 2.3392 11.1367C2.72432 10.0599 3.62676 9.1079 4.64779 8.44238C5.66872 7.77708 6.88931 7.34528 7.97494 7.39648ZM14.8011 11.7031C15.0772 11.7032 15.3011 11.927 15.3011 12.2031C15.3011 12.4792 15.0772 12.703 14.8011 12.7031H10.8011C10.525 12.7031 10.3011 12.4793 10.3011 12.2031C10.3011 11.927 10.525 11.7031 10.8011 11.7031H14.8011ZM8.25033 1C9.76902 1.00011 11.0003 2.23128 11.0003 3.75C11.0003 5.26872 9.76902 6.49989 8.25033 6.5C6.73155 6.5 5.50033 5.26878 5.50033 3.75C5.50033 2.23122 6.73155 1 8.25033 1ZM8.25033 2C7.28383 2 6.50033 2.7835 6.50033 3.75C6.50033 4.7165 7.28383 5.5 8.25033 5.5C9.21673 5.49989 10.0003 4.71643 10.0003 3.75C10.0003 2.78357 9.21673 2.00011 8.25033 2Z" fill="currentColor"/>
</svg>
