<svg width="16" height="16" viewBox="0 0 16 16" fill="none" xmlns="http://www.w3.org/2000/svg">
<path fill-rule="evenodd" clip-rule="evenodd" d="M7.97492 7.39648C9.03174 7.44644 10.2422 7.79101 11.2894 8.39355C12.3347 8.99514 13.2668 9.88391 13.6859 11.0508C13.9481 11.7816 13.6704 12.5678 13.0501 13C12.201 13.5915 10.5902 14.3535 7.95148 14.3535C5.25666 14.3534 3.69019 13.5588 2.89386 12.9551C2.34113 12.5358 2.09775 11.812 2.33917 11.1367C2.72434 10.0598 3.62658 9.10694 4.64777 8.44141C5.66866 7.77613 6.88932 7.34531 7.97492 7.39648ZM7.92804 8.39551C7.11513 8.35722 6.10009 8.68862 5.19367 9.2793C4.28758 9.86985 3.56882 10.6676 3.28058 11.4736C3.19402 11.716 3.27469 11.9885 3.49835 12.1582C4.11573 12.6262 5.46846 13.3534 7.95148 13.3535C10.3844 13.3535 11.7962 12.6552 12.4788 12.1797C12.7454 11.994 12.8472 11.6751 12.7444 11.3887C12.4308 10.5152 11.7058 9.78759 10.7903 9.26074C9.87682 8.73513 8.82103 8.43779 7.92804 8.39551ZM8.25031 1C9.76905 1.00005 11.0003 2.23125 11.0003 3.75C11.0003 5.26875 9.76905 6.49995 8.25031 6.5C6.73152 6.5 5.50031 5.26878 5.50031 3.75C5.50031 2.23122 6.73152 1 8.25031 1ZM8.25031 2C7.28381 2 6.50031 2.7835 6.50031 3.75C6.50031 4.7165 7.28381 5.5 8.25031 5.5C9.21677 5.49995 10.0003 4.71647 10.0003 3.75C10.0003 2.78353 9.21677 2.00005 8.25031 2Z" fill="currentColor"/>
</svg>
