<svg width="16" height="16" viewBox="0 0 16 16" fill="none" xmlns="http://www.w3.org/2000/svg">
<path fill-rule="evenodd" clip-rule="evenodd" d="M12.0784 7.85156C12.4688 7.46108 13.1029 7.46116 13.4934 7.85156L14.5002 8.8584C14.8908 9.24892 14.8908 9.88291 14.5002 10.2734L10.9963 13.7764C10.9266 13.846 10.838 13.8937 10.7415 13.9131L8.5979 14.3418C8.43415 14.3743 8.26479 14.3231 8.14672 14.2051C8.0287 14.087 7.9774 13.9177 8.01001 13.7539L8.43872 11.6104C8.4581 11.5138 8.50582 11.4252 8.57544 11.3555L12.0784 7.85156ZM7.97583 7.39648C8.67662 7.42964 9.44069 7.5925 10.177 7.87012C10.435 7.96755 10.566 8.25551 10.469 8.51367C10.3716 8.77194 10.0828 8.90282 9.82446 8.80566C9.17688 8.5615 8.51563 8.42331 7.92895 8.39551C7.11603 8.3571 6.10111 8.68859 5.19458 9.2793C4.28838 9.86985 3.56978 10.6676 3.28149 11.4736C3.19497 11.7158 3.27536 11.9883 3.49926 12.1582C3.98863 12.5291 4.93321 13.0574 6.52465 13.2646C6.7983 13.3004 6.99182 13.5515 6.95629 13.8252C6.92066 14.0989 6.66948 14.2923 6.39575 14.2568C4.62935 14.0268 3.522 13.4297 2.89575 12.9551C2.34298 12.5361 2.09844 11.8124 2.34008 11.1367C2.72525 10.0599 3.62759 9.10789 4.64868 8.44238C5.66966 7.77709 6.89019 7.34519 7.97583 7.39648ZM9.38891 11.9551L9.13696 13.2139L10.3957 12.9619L13.7932 9.56543L12.7864 8.55859L9.38891 11.9551ZM8.25024 1C9.76902 1 11.0002 2.23122 11.0002 3.75C11.0002 5.26878 9.76902 6.5 8.25024 6.5C6.73157 6.49987 5.50024 5.2687 5.50024 3.75C5.50024 2.2313 6.73157 1.00013 8.25024 1ZM8.25024 2C7.28385 2.00013 6.50024 2.78358 6.50024 3.75C6.50024 4.71642 7.28385 5.49987 8.25024 5.5C9.21674 5.5 10.0002 4.7165 10.0002 3.75C10.0002 2.7835 9.21674 2 8.25024 2Z" fill="currentColor"/>
</svg>
