<svg width="16" height="16" viewBox="0 0 16 16" fill="none" xmlns="http://www.w3.org/2000/svg">
<path d="M13 1.5C14.1046 1.5 15 2.39543 15 3.5V12.5C15 13.5357 14.2128 14.387 13.2041 14.4893L13 14.5H11L10.7959 14.4893C9.85435 14.3938 9.1062 13.6457 9.01074 12.7041L9 12.5V3.5C9 2.39543 9.89543 1.5 11 1.5H13ZM7.25 13.125C7.52614 13.125 7.75 13.3489 7.75 13.625C7.75 13.9011 7.52614 14.125 7.25 14.125H1.5C1.22386 14.125 1 13.9011 1 13.625C1 13.3489 1.22386 13.125 1.5 13.125H7.25ZM11 2.5C10.4477 2.5 10 2.94772 10 3.5V12.5C10 13.0523 10.4477 13.5 11 13.5H13C13.5523 13.5 14 13.0523 14 12.5V3.5C14 2.94772 13.5523 2.5 13 2.5H11ZM7.25 9.375C7.52614 9.375 7.75 9.59886 7.75 9.875C7.75 10.1511 7.52614 10.375 7.25 10.375H1.5C1.22386 10.375 1 10.1511 1 9.875C1 9.59886 1.22386 9.375 1.5 9.375H7.25ZM7.25 5.625C7.52614 5.625 7.75 5.84886 7.75 6.125C7.75 6.40114 7.52614 6.625 7.25 6.625H1.5C1.22386 6.625 1 6.40114 1 6.125C1 5.84886 1.22386 5.625 1.5 5.625H7.25ZM7.25 1.875C7.52614 1.875 7.75 2.09886 7.75 2.375C7.75 2.65114 7.52614 2.875 7.25 2.875H1.5C1.22386 2.875 1 2.65114 1 2.375C1 2.09886 1.22386 1.875 1.5 1.875H7.25Z" fill="currentColor"/>
</svg>
