<svg width="16" height="16" viewBox="0 0 16 16" fill="none" xmlns="http://www.w3.org/2000/svg">
<path fill-rule="evenodd" clip-rule="evenodd" d="M8.07548 1.4998C8.05087 1.49607 8.02566 1.49414 8 1.49414C7.97434 1.49414 7.94914 1.49607 7.92452 1.4998H3C1.89543 1.4998 1 2.39523 1 3.4998V12.4998C1 13.6044 1.89543 14.4998 3 14.4998H7.92511C7.94954 14.5035 7.97455 14.5054 8 14.5054C8.02545 14.5054 8.05046 14.5035 8.07489 14.4998H13C14.1046 14.4998 15 13.6044 15 12.4998V3.4998C15 2.39523 14.1046 1.4998 13 1.4998H8.07548ZM7.5 2.4998H3C2.44772 2.4998 2 2.94752 2 3.4998V12.4998C2 13.0521 2.44772 13.4998 3 13.4998H7.5L7.5 2.4998ZM8.5 13.4998L8.5 2.4998H13C13.5523 2.4998 14 2.94752 14 3.4998V12.4998C14 13.0521 13.5523 13.4998 13 13.4998H8.5Z" fill="currentColor"/>
</svg>
