<svg width="16" height="16" viewBox="0 0 16 16" fill="none" xmlns="http://www.w3.org/2000/svg">
<path fill-rule="evenodd" clip-rule="evenodd" d="M8.00004 13.5C7.86743 13.5 7.74029 13.4473 7.64652 13.3535L4.64652 10.3535C4.45126 10.1583 4.45126 9.84175 4.64652 9.64648C4.84178 9.45122 5.15829 9.45122 5.35355 9.64648L7.50004 11.793L7.50004 4.20703L5.35355 6.35352C5.15829 6.54878 4.84178 6.54878 4.64652 6.35352C4.45126 6.15825 4.45126 5.84175 4.64652 5.64648L7.64652 2.64648C7.74029 2.55272 7.86743 2.5 8.00004 2.5C8.13265 2.5 8.25979 2.55272 8.35355 2.64648L11.3536 5.64648C11.5488 5.84175 11.5488 6.15825 11.3536 6.35352C11.1583 6.54878 10.8418 6.54878 10.6465 6.35352L8.50004 4.20703L8.50004 11.793L10.6465 9.64648C10.8418 9.45122 11.1583 9.45122 11.3536 9.64648C11.5488 9.84175 11.5488 10.1583 11.3536 10.3535L8.35355 13.3535C8.25979 13.4473 8.13265 13.5 8.00004 13.5Z" fill="currentColor"/>
</svg>
