<svg width="16" height="16" viewBox="0 0 16 16" fill="none" xmlns="http://www.w3.org/2000/svg">
<path fill-rule="evenodd" clip-rule="evenodd" d="M10.2691 2C10.2691 1.81394 10.1658 1.64327 10.0009 1.557C9.83607 1.47073 9.63695 1.48312 9.48408 1.58918L4.89497 4.77273H2.6926C2.25923 4.77273 1.83652 4.9316 1.51911 5.22519C1.20039 5.51999 1.01318 5.92856 1.01318 6.36364V9.63636C1.01318 10.0714 1.20039 10.48 1.51911 10.7748C1.83652 11.0684 2.25923 11.2273 2.6926 11.2273H4.89497L9.48408 14.4108C9.63695 14.5169 9.83607 14.5293 10.0009 14.443C10.1658 14.3567 10.2691 14.1861 10.2691 14V2ZM5.33642 5.68355L9.26908 2.95539V13.0446L5.33642 10.3164C5.25272 10.2584 5.15329 10.2273 5.05142 10.2273H2.6926C2.50037 10.2273 2.3231 10.1563 2.19814 10.0407C2.07449 9.92633 2.01318 9.77994 2.01318 9.63636V6.36364C2.01318 6.22006 2.07449 6.07367 2.19814 5.95931C2.3231 5.84372 2.50036 5.77273 2.6926 5.77273H5.05142C5.15329 5.77273 5.25272 5.74162 5.33642 5.68355ZM13.2204 4.08692C13.0133 3.90426 12.6973 3.92409 12.5146 4.1312C12.332 4.3383 12.3518 4.65426 12.5589 4.83692C13.0077 5.23271 13.3671 5.71947 13.6133 6.26485C13.8595 6.81024 13.9869 7.40177 13.9869 8.00015C13.9869 8.59854 13.8595 9.19007 13.6133 9.73546C13.3671 10.2808 13.0077 10.7676 12.5589 11.1634C12.3518 11.346 12.332 11.662 12.5146 11.8691C12.6973 12.0762 13.0133 12.096 13.2204 11.9134C13.7756 11.4238 14.2202 10.8216 14.5248 10.1469C14.8294 9.4722 14.9869 8.74041 14.9869 8.00015C14.9869 7.2599 14.8294 6.52811 14.5248 5.85342C14.2202 5.17872 13.7756 4.57655 13.2204 4.08692Z" fill="currentColor"/>
</svg>
