<svg width="16" height="16" viewBox="0 0 16 16" fill="none" xmlns="http://www.w3.org/2000/svg">
<path fill-rule="evenodd" clip-rule="evenodd" d="M8.50196 1.5C8.50196 1.22386 8.2781 1 8.00196 1C7.72582 1 7.50196 1.22386 7.50196 1.5V4.10084C7.50196 4.37698 7.72582 4.60084 8.00196 4.60084C8.2781 4.60084 8.50196 4.37698 8.50196 4.10084V1.5ZM5.9904 4.68422C5.44675 4.26882 4.77097 4.06456 4.08824 4.10927C3.40552 4.15398 2.76215 4.44464 2.27732 4.92739C1.797 5.40566 1.50456 6.04036 1.45285 6.71579L0.53901 13.0913C0.513067 13.2158 0.499924 13.3426 0.499796 13.4698L0.499796 13.4711C0.500398 13.8758 0.630199 14.2698 0.870296 14.5956C1.11039 14.9215 1.44824 15.1621 1.83464 15.2826C2.22104 15.4031 2.63581 15.397 3.01853 15.2653C3.39803 15.1348 3.72636 14.8875 3.95658 14.5589L6.15035 11.6362H9.85197L12.0454 14.5585C12.2752 14.8879 12.6036 15.136 12.9834 15.2672C13.3666 15.3996 13.7821 15.406 14.1692 15.2854C14.5563 15.1648 14.8946 14.9236 15.1349 14.597C15.3751 14.2704 15.5046 13.8756 15.5044 13.4701V13.4698C15.5043 13.3426 15.4911 13.2158 15.4652 13.0913L14.5513 6.71579C14.4996 6.04036 14.2072 5.40566 13.7269 4.92739C13.242 4.44464 12.5987 4.15398 11.9159 4.10927C11.2332 4.06456 10.5574 4.26882 10.0138 4.68422C9.58106 5.01487 9.2554 5.46145 9.07182 5.96804H6.93237C6.74879 5.46145 6.42313 5.01487 5.9904 4.68422ZM4.1536 5.10713C4.59494 5.07823 5.03181 5.21028 5.38325 5.47881C5.7347 5.74735 5.97689 6.13417 6.06497 6.56761C6.11231 6.80061 6.31719 6.96804 6.55495 6.96804H9.44924C9.687 6.96804 9.89188 6.80061 9.93922 6.56761C10.0273 6.13417 10.2695 5.74735 10.6209 5.47881C10.9724 5.21028 11.4092 5.07823 11.8506 5.10713C12.2919 5.13604 12.7079 5.32393 13.0213 5.63601C13.3347 5.94809 13.5244 6.3632 13.5552 6.80442C13.556 6.81651 13.5573 6.82856 13.559 6.84055L14.4777 13.25C14.4795 13.2622 14.4816 13.2742 14.4843 13.2863C14.4976 13.3469 14.5043 13.4088 14.5044 13.4708C14.5044 13.6628 14.4431 13.8498 14.3293 14.0045C14.2155 14.1592 14.0552 14.2735 13.8717 14.3307C13.6883 14.3878 13.4915 14.3848 13.3099 14.3221C13.1283 14.2593 12.9716 14.1402 12.8626 13.982C12.8587 13.9765 12.8548 13.971 12.8508 13.9657L10.5017 10.8361C10.4073 10.7103 10.2592 10.6362 10.1019 10.6362H5.90047C5.74316 10.6362 5.59502 10.7103 5.50059 10.8361L3.15155 13.9657C3.14775 13.9707 3.14404 13.9759 3.14043 13.9811C3.03122 14.1387 2.87454 14.2573 2.6932 14.3197C2.51186 14.3821 2.31534 14.385 2.13226 14.3279C1.94918 14.2708 1.7891 14.1568 1.67534 14.0024C1.56171 13.8482 1.50022 13.6618 1.4998 13.4702C1.4999 13.4084 1.50665 13.3467 1.51991 13.2863C1.52255 13.2743 1.52474 13.2622 1.52648 13.25L2.44518 6.84055C2.4469 6.82856 2.44818 6.81651 2.44903 6.80442C2.47982 6.3632 2.6695 5.94809 2.98292 5.63601C3.29633 5.32393 3.71225 5.13604 4.1536 5.10713Z" fill="currentColor"/>
</svg>
