<svg width="16" height="16" viewBox="0 0 16 16" fill="none" xmlns="http://www.w3.org/2000/svg">
<path fill-rule="evenodd" clip-rule="evenodd" d="M1.6367 6.13654C3.32445 4.4493 5.61323 3.50146 7.9997 3.50146C10.3862 3.50146 12.675 4.4493 14.3627 6.13654C14.558 6.33178 14.8746 6.33173 15.0698 6.13644C15.265 5.94114 15.265 5.62456 15.0697 5.42933C13.1944 3.55462 10.6513 2.50146 7.9997 2.50146C5.34806 2.50146 2.80498 3.55462 0.929703 5.42933C0.734411 5.62456 0.734364 5.94114 0.929596 6.13644C1.12483 6.33173 1.44141 6.33178 1.6367 6.13654ZM7.9998 7.50171C6.67443 7.50171 5.40328 8.02793 4.46571 8.96473C4.27037 9.15991 3.95379 9.15979 3.75861 8.96444C3.56342 8.7691 3.56355 8.45252 3.7589 8.25734C4.88397 7.13318 6.40935 6.50171 7.9998 6.50171C9.59026 6.50171 11.1156 7.13318 12.2407 8.25734C12.4361 8.45252 12.4362 8.7691 12.241 8.96444C12.0458 9.15979 11.7292 9.15991 11.5339 8.96473C10.5963 8.02793 9.32518 7.50171 7.9998 7.50171ZM7.99976 11.4404C7.44747 11.4404 6.99976 11.8881 6.99976 12.4404C6.99976 12.9927 7.44747 13.4404 7.99976 13.4404C8.55204 13.4404 8.99976 12.9927 8.99976 12.4404C8.99976 11.8881 8.55204 11.4404 7.99976 11.4404ZM5.99976 12.4404C5.99976 11.3359 6.89519 10.4404 7.99976 10.4404C9.10433 10.4404 9.99976 11.3359 9.99976 12.4404C9.99976 13.545 9.10433 14.4404 7.99976 14.4404C6.89519 14.4404 5.99976 13.545 5.99976 12.4404Z" fill="currentColor"/>
</svg>
