<svg width="16" height="16" viewBox="0 0 16 16" fill="none" xmlns="http://www.w3.org/2000/svg">
<path d="M10.752 3.00293C12.6838 3.00299 14.2499 4.56914 14.25 6.50098C14.2499 8.43287 12.6838 9.99896 10.752 9.99902H2.39746L5.60254 13.2041C5.79778 13.3993 5.79773 13.7159 5.60254 13.9111C5.40728 14.1064 5.09077 14.1064 4.89551 13.9111L0.895508 9.91113C0.700313 9.71587 0.700268 9.39934 0.895508 9.2041L4.89551 5.2041C5.09075 5.00893 5.40729 5.00893 5.60254 5.2041C5.79778 5.39934 5.79773 5.71587 5.60254 5.91113L2.51465 8.99902H10.752C12.1316 8.99896 13.2499 7.88058 13.25 6.50098C13.2499 5.12143 12.1315 4.00299 10.752 4.00293H8.81934C8.5433 4.0029 8.31947 3.77895 8.31934 3.50293C8.31947 3.22691 8.5433 3.00296 8.81934 3.00293H10.752Z" fill="currentColor"/>
</svg>
