<svg width="16" height="16" viewBox="0 0 16 16" fill="none" xmlns="http://www.w3.org/2000/svg">
<path fill-rule="evenodd" clip-rule="evenodd" d="M7.52006 1.2421C8.01928 0.631261 9.00203 1.10627 8.83347 1.87695L8.03545 5.52574L14.3198 6.412C14.4986 6.43721 14.6499 6.55685 14.7157 6.72501C14.7814 6.89316 14.7514 7.0837 14.6372 7.22351L8.47994 14.7574C7.98072 15.3683 6.99797 14.8932 7.16653 14.1226L7.96455 10.4738L1.68018 9.58751C1.50139 9.5623 1.35009 9.44266 1.28434 9.2745C1.21858 9.10635 1.24859 8.91581 1.36285 8.77601L7.52006 1.2421ZM7.6334 2.68367L2.69904 8.7213L8.638 9.55885C8.77578 9.57828 8.89922 9.65424 8.97867 9.76847C9.05811 9.88269 9.08636 10.0249 9.05664 10.1608L8.3666 13.3158L13.301 7.27821L7.362 6.44066C7.22422 6.42123 7.10078 6.34527 7.02133 6.23105C6.94189 6.11682 6.91364 5.97465 6.94336 5.83873L7.6334 2.68367Z" fill="currentColor"/>
</svg>
